<?xml version="1.0" encoding="UTF-8" standalone="no"?>
<!-- Created with Inkscape (http://www.inkscape.org/) -->

<svg
   width="469.08316"
   height="460.84781"
   viewBox="0 0 124.11158 121.93264"
   version="1.1"
   id="svg5"
   inkscape:version="1.1.1 (3bf5ae0d25, 2021-09-20)"
   sodipodi:docname="agreement.svg"
   inkscape:export-filename="C:\Users\leo\Desktop\svgs\combobox.png"
   inkscape:export-xdpi="96"
   inkscape:export-ydpi="96"
   xmlns:inkscape="http://www.inkscape.org/namespaces/inkscape"
   xmlns:sodipodi="http://sodipodi.sourceforge.net/DTD/sodipodi-0.dtd"
   xmlns="http://www.w3.org/2000/svg"
   xmlns:svg="http://www.w3.org/2000/svg">
  <sodipodi:namedview
     id="namedview7"
     pagecolor="#505050"
     bordercolor="#eeeeee"
     borderopacity="1"
     inkscape:pageshadow="0"
     inkscape:pageopacity="0"
     inkscape:pagecheckerboard="0"
     inkscape:document-units="mm"
     showgrid="false"
     inkscape:zoom="0.70710678"
     inkscape:cx="68.589358"
     inkscape:cy="160.51324"
     inkscape:window-width="1920"
     inkscape:window-height="1121"
     inkscape:window-x="-7"
     inkscape:window-y="-7"
     inkscape:window-maximized="1"
     inkscape:current-layer="svg5"
     fit-margin-top="50"
     fit-margin-left="50"
     fit-margin-right="50"
     fit-margin-bottom="50"
     lock-margins="true"
     units="px"
     showguides="false" />
  <defs
     id="defs2">
    <rect
       x="-190"
       y="50"
       width="409"
       height="109"
       id="rect62070" />
    <rect
       x="-268"
       y="6"
       width="249"
       height="367"
       id="rect60744" />
    <filter
       style="color-interpolation-filters:sRGB"
       inkscape:label="Drop Shadow"
       id="filter41397"
       x="-0.4636397"
       y="-0.4636397"
       width="2.0236785"
       height="2.0043981">
      <feFlood
         flood-opacity="0.498039"
         flood-color="rgb(0,0,0)"
         result="flood"
         id="feFlood41387" />
      <feComposite
         in="flood"
         in2="SourceGraphic"
         operator="in"
         result="composite1"
         id="feComposite41389" />
      <feGaussianBlur
         in="composite1"
         stdDeviation="3"
         result="blur"
         id="feGaussianBlur41391" />
      <feOffset
         dx="1.49701"
         dy="1.1976"
         result="offset"
         id="feOffset41393" />
      <feComposite
         in="SourceGraphic"
         in2="offset"
         operator="over"
         result="composite2"
         id="feComposite41395" />
    </filter>
    <filter
       style="color-interpolation-filters:sRGB"
       inkscape:label="Drop Shadow"
       id="filter48262"
       x="-0.11650321"
       y="-0.11797703"
       width="1.3759789"
       height="1.3795844">
      <feFlood
         flood-opacity="0.211765"
         flood-color="rgb(0,0,0)"
         result="flood"
         id="feFlood48252" />
      <feComposite
         in="flood"
         in2="SourceGraphic"
         operator="in"
         result="composite1"
         id="feComposite48254" />
      <feGaussianBlur
         in="composite1"
         stdDeviation="1"
         result="blur"
         id="feGaussianBlur48256" />
      <feOffset
         dx="0.7"
         dy="0.7"
         result="offset"
         id="feOffset48258" />
      <feComposite
         in="SourceGraphic"
         in2="offset"
         operator="over"
         result="composite2"
         id="feComposite48260" />
    </filter>
    <rect
       x="-268"
       y="6"
       width="249"
       height="367"
       id="rect71674" />
    <rect
       x="-268"
       y="6"
       width="249"
       height="367"
       id="rect72688" />
  </defs>
  <path
     style="fill:#d9d9d9;stroke-width:0.206118;fill-opacity:1"
     d="m 11.025837,113.31633 c -0.539027,-0.26681 -1.009911,-0.71786 -1.3136617,-1.25831 -0.4560598,-0.81145 -0.4696025,-0.97232 -0.3684053,-4.37619 0.079879,-2.68681 0.2094566,-3.92445 0.540638,-5.16383 0.827509,-3.096801 2.275722,-5.898612 4.127448,-7.985246 l 0.786637,-0.88643 1.193714,1.09099 c 2.449947,2.239112 5.171806,3.736962 8.344076,4.591781 1.440486,0.388162 2.283167,0.472905 4.740613,0.476737 3.235271,0.0051 5.099807,-0.348541 7.548527,-1.431482 0.64449,-0.285024 1.199867,-0.490157 1.234173,-0.455851 0.0343,0.03431 -0.161246,0.787151 -0.434558,1.672991 -0.885686,2.87062 -1.184161,5.52034 -1.077945,9.56948 0.05257,2.00423 0.165039,3.85275 0.249923,4.10782 l 0.154329,0.46377 -12.442656,-1.6e-4 c -12.063995,-1.6e-4 -12.468224,-0.0128 -13.282852,-0.41607 z m 33.185015,0 c -0.539028,-0.26681 -1.009911,-0.71786 -1.313661,-1.25831 -0.456521,-0.81227 -0.469568,-0.96888 -0.364582,-4.37619 0.08088,-2.62487 0.220967,-3.97874 0.544665,-5.26382 0.695754,-2.762139 2.297275,-5.854008 4.220077,-8.147195 l 0.504715,-0.601937 1.181376,1.07971 c 2.437192,2.227457 5.165237,3.727244 8.331737,4.580507 2.524518,0.680275 6.97541,0.685435 9.467555,0.01097 3.167077,-0.857113 5.91317,-2.368553 8.350362,-4.596009 l 1.186331,-1.084239 0.399154,0.503404 c 2.242027,2.827594 3.606737,5.438329 4.315027,8.254779 0.318378,1.26601 0.464617,2.65192 0.545197,5.1669 0.103677,3.23578 0.08376,3.49129 -0.340462,4.36762 -0.335018,0.69205 -0.675552,1.03968 -1.327741,1.3554 -0.863952,0.41823 -1.133006,0.42463 -17.868356,0.42447 -16.625892,-1.6e-4 -17.009261,-0.009 -17.831394,-0.41607 z m 43.303717,-0.0475 c 0.08488,-0.25507 0.197348,-2.10359 0.249923,-4.10782 0.106216,-4.04914 -0.192259,-6.69886 -1.077945,-9.56948 -0.273312,-0.88584 -0.468863,-1.638686 -0.434558,-1.672991 0.03431,-0.03431 0.589683,0.170827 1.234173,0.455851 2.44872,1.082941 4.313256,1.436526 7.548527,1.431482 2.457446,-0.0038 3.300126,-0.08857 4.740614,-0.476737 3.172267,-0.854819 5.894127,-2.352669 8.344077,-4.591781 l 1.19371,-1.09099 0.78664,0.88643 c 1.85236,2.087348 3.30123,4.890919 4.12674,7.985246 0.32621,1.22274 0.46144,2.48888 0.54117,5.06691 0.1,3.23178 0.0794,3.49238 -0.34428,4.36762 -0.33502,0.69205 -0.67555,1.03968 -1.32774,1.3554 -0.85596,0.41437 -1.17755,0.42463 -13.306272,0.42463 H 87.36024 Z M 26.294301,93.39762 c -2.831836,-0.604264 -5.482087,-2.283137 -7.413483,-4.696271 -2.360745,-2.949573 -3.285065,-6.963795 -2.461402,-10.689592 1.088634,-4.924376 4.991199,-8.826942 9.915574,-9.915575 6.965769,-1.539925 13.982074,3.024288 15.404378,10.020784 0.408208,2.008033 0.407506,3.27256 -0.0029,5.273391 -1.029379,5.018086 -5.012675,9.002048 -10.022843,10.024519 -1.934148,0.394719 -3.512149,0.389696 -5.419291,-0.01725 z m 32.978897,0 C 56.441362,92.793356 53.79111,91.114483 51.859715,88.701349 49.49897,85.751776 48.57465,81.737554 49.398313,78.011757 c 1.087893,-4.921031 4.979817,-8.811809 9.915575,-9.912659 6.949905,-1.550078 13.964409,3.012505 15.401444,10.017868 0.179246,0.873798 0.325901,2.060313 0.325901,2.636696 0,4.792553 -3.004318,9.573485 -7.317193,11.644238 -2.62527,1.26048 -5.586899,1.610836 -8.450842,0.99972 z m 32.978897,0 c -2.831836,-0.604264 -5.482088,-2.283137 -7.413483,-4.696271 -2.360745,-2.949573 -3.285065,-6.963795 -2.461403,-10.689592 1.087894,-4.921031 4.979818,-8.811809 9.915576,-9.912659 6.949904,-1.550078 13.964405,3.012505 15.401445,10.017868 0.17924,0.873798 0.3259,2.060313 0.3259,2.636696 0,4.792553 -3.00432,9.573485 -7.31719,11.644238 -2.625273,1.26048 -5.586902,1.610836 -8.450845,0.99972 z M 59.470667,53.105983 C 48.652856,46.904753 42.741613,41.015973 38.166968,31.883244 36.392425,28.340582 35.979482,26.781015 35.98933,23.658946 c 0.0091,-2.873679 0.353023,-4.314228 1.670571,-6.996603 0.789609,-1.607551 1.26538,-2.25745 2.730846,-3.730305 2.031832,-2.042077 3.653598,-3.0632882 6.241842,-3.9304293 3.210168,-1.0755048 6.679688,-1.0251128 10.126057,0.1470728 1.584871,0.5390497 3.69968,1.6601165 4.666771,2.4738705 l 0.629147,0.529393 0.773557,-0.608607 c 2.876731,-2.2633111 7.086615,-3.5249633 10.922598,-3.273373 5.392572,0.3536822 10.293166,3.602914 12.702342,8.422009 1.310878,2.622161 1.660088,4.079709 1.669194,6.966972 0.0099,3.122632 -0.403252,4.68231 -2.17832,8.224298 -3.973374,7.928502 -9.603482,14.034475 -17.43065,18.90391 -4.06435,2.528513 -5.687215,3.377272 -6.457492,3.377272 -0.511926,0 -1.305569,-0.324947 -2.585126,-1.058443 z"
     id="path969"
     inkscape:label="agreement" />
</svg>
