<?xml version="1.0" encoding="UTF-8" standalone="no"?>
<!-- Created with Inkscape (http://www.inkscape.org/) -->

<svg
   width="500"
   height="500"
   viewBox="0 0 132.29167 132.29167"
   version="1.1"
   id="svg5"
   inkscape:version="1.1.1 (3bf5ae0d25, 2021-09-20)"
   sodipodi:docname="stages_icons.svg"
   xmlns:inkscape="http://www.inkscape.org/namespaces/inkscape"
   xmlns:sodipodi="http://sodipodi.sourceforge.net/DTD/sodipodi-0.dtd"
   xmlns="http://www.w3.org/2000/svg"
   xmlns:svg="http://www.w3.org/2000/svg">
  <sodipodi:namedview
     id="namedview7"
     pagecolor="#505050"
     bordercolor="#eeeeee"
     borderopacity="1"
     inkscape:pageshadow="0"
     inkscape:pageopacity="0"
     inkscape:pagecheckerboard="0"
     inkscape:document-units="mm"
     showgrid="false"
     units="px"
     inkscape:zoom="1.121145"
     inkscape:cx="410.74079"
     inkscape:cy="190.43031"
     inkscape:window-width="1920"
     inkscape:window-height="1121"
     inkscape:window-x="-7"
     inkscape:window-y="-7"
     inkscape:window-maximized="1"
     inkscape:current-layer="layer7" />
  <defs
     id="defs2" />
  <g
     inkscape:label="modeling"
     inkscape:groupmode="layer"
     id="layer1"
     style="display:none">
    <path
       style="fill:#fc857f;fill-opacity:1;stroke:none;stroke-width:0.264583px;stroke-linecap:butt;stroke-linejoin:miter;stroke-opacity:1"
       d="M 11.775683,97.647587 12.138012,31.341435 64.934631,7.8913613 119.94869,31.565445 120.39963,98.529282 65.038004,124.64108 Z"
       id="path4942" />
    <path
       style="display:inline;fill:#fa6763;fill-opacity:1;stroke:none;stroke-width:0.264583px;stroke-linecap:butt;stroke-linejoin:miter;stroke-opacity:1"
       d="m 11.775683,97.647589 0.362329,-66.306154 52.537663,26.812325 0.362329,66.48732 z"
       id="path1083" />
    <path
       style="fill:#fb7771;fill-opacity:1;stroke:none;stroke-width:0.264583px;stroke-linecap:butt;stroke-linejoin:miter;stroke-opacity:1"
       d="M 64.675675,58.15376 119.94869,31.565445 120.39963,98.529284 65.038004,124.64108 Z"
       id="path2566" />
    <path
       style="fill:#fc857f;fill-opacity:1;stroke:none;stroke-width:0.264583px;stroke-linecap:butt;stroke-linejoin:miter;stroke-opacity:1"
       d="M 12.138012,31.341435 64.675675,58.15376 119.94869,31.565445 64.934631,7.8913613 Z"
       id="path3675" />
  </g>
  <g
     inkscape:groupmode="layer"
     id="layer2"
     inkscape:label="rigging"
     style="display:none">
    <circle
       style="fill:#fc857f;fill-opacity:1;stroke:none;stroke-width:21.7927;stroke-linecap:round;stroke-linejoin:round;stroke-dashoffset:186.406;stroke-opacity:0.551402;paint-order:markers fill stroke"
       id="path5169"
       cx="98.908493"
       cy="83.816467"
       r="15.723324" />
    <path
       id="rect5343"
       style="fill:#f25f5c;fill-opacity:1;stroke:none;stroke-width:21.7927;stroke-linecap:round;stroke-linejoin:round;stroke-dashoffset:186.406;stroke-opacity:0.551402;paint-order:markers fill stroke"
       d="m 53.094801,8.9793853 c -0.11783,-0.00136 -0.235759,-0.0011 -0.353616,0.00112 -2.262846,0.042499 -4.523199,0.746187 -6.486725,2.1633677 -5.236064,3.779149 -6.322593,11.156295 -2.436463,16.540585 l 32.641965,45.226327 a 25.059048,25.059048 0 0 1 18.794612,-13.7933 L 62.720718,14.041509 C 60.36779,10.781488 56.747551,9.0217938 53.094801,8.9793853 Z M 74.129922,80.969646 28.672169,99.144302 c -6.165689,2.465138 -9.199886,9.277128 -6.802615,15.273088 2.397272,5.99595 9.29096,8.83811 15.45665,6.37298 l 45.270808,-18.0992 a 25.059048,25.059048 0 0 1 -8.747504,-18.874573 25.059048,25.059048 0 0 1 0.280414,-2.846951 z" />
  </g>
  <g
     inkscape:groupmode="layer"
     id="layer3"
     inkscape:label="grooming"
     style="display:none">
    <path
       id="path7338"
       style="fill:#fc857f;fill-opacity:1;stroke:none;stroke-width:20;stroke-linecap:round;stroke-linejoin:round;stroke-dashoffset:186.406;stroke-opacity:0.551402;paint-order:markers fill stroke"
       d="M 86.562773,6.5019569 C 86.9061,7.6832029 86.450835,8.5469736 86.450835,8.5469736 L 68.641269,88.537028 A 18.7138,18.7138 0 0 1 83.611299,101.48182 18.7138,18.7138 0 0 1 71.272813,124.89501 18.7138,18.7138 0 0 1 47.859774,112.55702 18.7138,18.7138 0 0 1 52.88851,93.454286 c 2.011337,-3.968839 2.87975,-8.582349 3.333065,-11.812334 0.588758,-4.195037 0.0073,-13.692526 0.186373,-15.400269 0.179087,-1.707747 0.573514,-3.482047 0.573514,-3.482047 l 12.32135,-49.372263 c 0,0 0.455281,-4.6261133 4.644464,-7.1040424 4.189182,-2.4779289 9.943549,-1.4281503 9.943549,-1.4281503 0,0 1.789886,-0.3181357 2.472279,1.122734 0.0853,0.1801101 0.15062,0.3552926 0.19967,0.524042 z M 74.780903,104.21732 a 9.469634,9.469634 0 0 0 -11.84779,-6.243444 9.469634,9.469634 0 0 0 -6.243439,11.847794 9.469634,9.469634 0 0 0 11.847788,6.24344 9.469634,9.469634 0 0 0 6.243441,-11.84779 z" />
    <path
       id="path7150"
       style="fill:#f25f5c;fill-opacity:1;stroke:none;stroke-width:75.5906;stroke-linecap:round;stroke-linejoin:round;stroke-dashoffset:186.406;stroke-opacity:0.551402;paint-order:markers fill stroke"
       d="m 446.12109,112.34961 c -4.64859,0.0816 -7.25781,2.69141 -7.25781,2.69141 L 169.99609,268.79883 a 70.729323,70.729323 0 0 0 -63.47656,-39.56836 70.729323,70.729323 0 0 0 -70.728514,70.73047 70.729323,70.729323 0 0 0 70.728514,70.72851 70.729323,70.729323 0 0 0 63.3418,-39.51953 c 12.07909,-11.7002 27.76385,-19.99514 38.91797,-25.24414 14.48673,-6.81729 49.4255,-15.34 55.39062,-17.89648 5.96513,-2.55649 11.92969,-5.96485 11.92969,-5.96485 l 164.4668,-99.70117 c 0,0 16.19231,-6.81752 20.45312,-24.71289 4.26081,-17.89537 -5.96484,-37.49609 -5.96484,-37.49609 0,0 -0.85325,-6.81777 -6.81836,-7.66992 -0.74564,-0.10652 -1.45115,-0.14642 -2.11524,-0.13477 z M 106.51953,264.16992 a 35.790743,35.790743 0 0 1 35.79102,35.79102 35.790743,35.790743 0 0 1 -35.79102,35.79101 35.790743,35.790743 0 0 1 -35.791014,-35.79101 35.790743,35.790743 0 0 1 35.791014,-35.79102 z"
       transform="scale(0.26458333)" />
  </g>
  <g
     inkscape:groupmode="layer"
     id="layer4"
     inkscape:label="texturing"
     style="display:none">
    <path
       id="rect9844"
       style="fill:#f25f5c;fill-opacity:1;stroke:none;stroke-width:75.5906;stroke-linecap:round;stroke-linejoin:round;stroke-dashoffset:186.406;stroke-opacity:0.551402;paint-order:markers fill stroke"
       d="m 89.353516,25.169922 c -4.232104,0.08827 -8.487857,0.714067 -12.94336,1.853516 C 56.663912,32.073332 41.061953,44.036488 32.751953,60.5 20.236741,85.294751 24.752474,115.16914 44,134.9082 c 3.432934,3.5206 25.794804,19.84061 59.5,43.42578 29.7,20.78255 55.82543,39.73194 58.05664,42.10938 6.56381,6.994 8.27572,16.92305 4.39258,25.48242 -1.2984,2.862 -7.10931,9.59929 -16.44922,19.07422 -0.0507,0.0514 -0.0767,0.0894 -0.12695,0.14062 L 138.125,276.38867 c -16.28639,16.2864 -16.28639,42.50853 0,58.79492 l 7.70898,7.70899 5.02735,5.0293 c 0.0102,0.0102 0.0211,0.0191 0.0312,0.0293 l 18.67578,18.67774 c 5.92232,5.92232 15.45853,5.92232 21.38086,0 L 209.6562,347.92189 349.24018,208.3379 367.94722,189.63087 c 5.92232,-5.92233 5.92232,-15.45853 0,-21.38086 l -18.70704,-18.70703 -5.02734,-5.02735 -7.71094,-7.71093 c -8.14319,-8.1432 -18.76917,-12.21485 -29.39648,-12.21485 -10.62731,0 -21.25524,4.07165 -29.39844,12.21485 l -11.80664,11.80664 c -0.30291,0.29422 -0.50046,0.46664 -0.82617,0.78711 -16.40936,16.14493 -20.23106,18.61258 -28.78516,18.58008 -7.33167,-0.0278 -12.87673,-2.50564 -17.3457,-7.74805 C 217.04906,158.00832 198.85,132.41076 178.5,103.3457 136.33153,43.118236 133.38783,39.630167 118.80859,32.634766 107.85978,27.381315 98.664144,24.975724 89.353516,25.169922 Z M 86.375,66.326172 c 4.685063,-0.05519 9.511652,1.576619 13.623047,5.291016 10.627473,9.601284 8.638073,26.43401 -3.90625,33.056642 -7.601394,4.01306 -17.010288,2.61616 -23.431641,-3.47852 C 68.416053,97.167118 66.689627,93.118012 66.607422,87 66.442684,74.737216 76.067862,66.447599 86.375,66.326172 Z"
       transform="scale(0.26458333)" />
    <path
       id="rect10053"
       style="fill:#fc857f;fill-opacity:1;stroke:none;stroke-width:75.5906;stroke-linecap:round;stroke-linejoin:round;stroke-dashoffset:186.406;stroke-opacity:0.551402;paint-order:markers fill stroke"
       d="m 381.74023,208.05273 c -3.86447,0 -7.72829,1.48025 -10.68945,4.44141 l -16.03516,16.03516 -127.33789,127.33789 -16.03515,16.03515 c -5.92232,5.92233 -5.92232,15.45854 0,21.38086 l 16.03515,16.03516 40.31641,40.31641 15.06836,15.06835 c 14.80581,14.80582 38.64536,14.80582 53.45117,0 l 15.08399,-15.08398 c 2.81903,-5.9463 0.88232,-11.26931 -1.45313,-15.31445 -3.07224,-5.32127 -29.82226,-47.25781 -29.82226,-47.25781 0,0 36.78176,24.05987 43.58593,27.98828 5.39048,3.11219 10.60013,7.88307 17.77539,4.49804 l 82.16797,-82.16797 c 14.80582,-14.80581 14.80582,-38.64535 0,-53.45117 L 448.78125,268.8457 408.45508,228.51953 392.43164,212.49414 c -2.96116,-2.96116 -6.82693,-4.44141 -10.69141,-4.44141 z"
       transform="scale(0.26458333)" />
  </g>
  <g
     inkscape:groupmode="layer"
     id="layer5"
     inkscape:label="shading"
     style="display:none">
    <g
       id="g23306"
       transform="matrix(0.84615249,0,0,0.84615249,10.176372,10.176372)">
      <circle
         style="fill:#f25f5c;fill-opacity:1;stroke:none;stroke-width:20;stroke-linecap:round;stroke-linejoin:round;stroke-dashoffset:186.406;stroke-opacity:0.551402;paint-order:markers fill stroke"
         id="path20383"
         cx="66.145836"
         cy="66.145836"
         r="60.25909" />
      <path
         style="fill:none;stroke:#fc857f;stroke-width:13;stroke-linecap:round;stroke-linejoin:miter;stroke-miterlimit:4;stroke-dasharray:none;stroke-opacity:1"
         d="m 20.422538,66.058085 c 0,-21.431057 17.644311,-47.206475 46.770132,-46.770133"
         id="path20418"
         sodipodi:nodetypes="cc" />
    </g>
  </g>
  <g
     inkscape:groupmode="layer"
     id="layer6"
     inkscape:label="layout"
     style="display:none">
    <path
       id="rect23658"
       style="fill:#a7ec85;fill-opacity:1;stroke:none;stroke-width:11.3034;stroke-linecap:round;stroke-linejoin:round;stroke-miterlimit:4;stroke-dasharray:none;stroke-dashoffset:186.406;stroke-opacity:1;paint-order:markers fill stroke"
       d="m 13.586509,9.1206328 c -2.408498,0 -4.3475379,1.9390402 -4.3475379,4.3475392 v 13.317533 c 0,2.408497 1.9390399,4.347538 4.3475379,4.347538 h 13.317017 c 2.408497,0 4.347538,-1.939041 4.347538,-4.347538 V 13.468172 c 0,-2.408499 -1.939041,-4.3475392 -4.347538,-4.3475392 z m 91.801631,0 c -2.4085,0 -4.34754,1.9390402 -4.34754,4.3475392 v 13.317533 c 0,2.408497 1.93904,4.347538 4.34754,4.347538 h 13.31701 c 2.4085,0 4.34755,-1.939041 4.34755,-4.347538 V 13.468172 c 0,-2.408499 -1.93905,-4.3475392 -4.34755,-4.3475392 z M 13.586509,101.15842 c -2.408498,0 -4.3475379,1.93904 -4.3475379,4.34754 v 13.31753 c 0,2.4085 1.9390399,4.34754 4.3475379,4.34754 h 13.317017 c 2.408497,0 4.347538,-1.93904 4.347538,-4.34754 v -13.31753 c 0,-2.4085 -1.939041,-4.34754 -4.347538,-4.34754 z m 91.801631,0 c -2.4085,0 -4.34754,1.93904 -4.34754,4.34754 v 13.31753 c 0,2.4085 1.93904,4.34754 4.34754,4.34754 h 13.31701 c 2.40851,0 4.34755,-1.93904 4.34755,-4.34754 v -13.31753 c 0,-2.4085 -1.93904,-4.34754 -4.34755,-4.34754 z" />
    <path
       id="rect26650"
       style="fill:#6ba84d;fill-opacity:1;stroke:none;stroke-width:13;stroke-linecap:round;stroke-linejoin:round;stroke-miterlimit:4;stroke-dasharray:none;stroke-dashoffset:186.406;stroke-opacity:1;paint-order:markers fill stroke"
       d="m 39.840204,16.497961 c -1.108001,0 -1.999877,0.891878 -1.999877,1.999878 v 9.923941 c 0,1.108001 0.891876,1.999879 1.999877,1.999879 h 9.923425 c 1.107998,0 1.999877,-0.891878 1.999877,-1.999879 v -9.923941 c 0,-1.108 -0.891879,-1.999878 -1.999877,-1.999878 z m 21.711335,0 c -1.108001,0 -1.999877,0.891878 -1.999877,1.999878 v 9.923941 c 0,1.108001 0.891876,1.999879 1.999877,1.999879 h 9.923425 c 1.108001,0 2.000396,-0.891878 2.000396,-1.999879 v -9.923941 c 0,-1.108 -0.892395,-1.999878 -2.000396,-1.999878 z m 21.23953,0 c -1.107998,0 -1.999877,0.891878 -1.999877,1.999878 v 9.923941 c 0,1.108001 0.891879,1.999879 1.999877,1.999879 h 9.923425 c 1.108001,0 1.999882,-0.891878 1.99988,-1.999879 v -9.923941 c 0,-1.108 -0.891879,-1.999878 -1.99988,-1.999878 z M 18.718496,37.61967 c -1.108,0 -1.999879,0.891876 -1.999878,1.999877 v 9.923425 c 0,1.107999 0.891878,1.999877 1.999878,1.999877 h 9.923941 c 1.108001,0 1.999879,-0.891878 1.999879,-1.999877 v -9.923425 c 0,-1.108001 -0.891878,-1.99988 -1.999879,-1.999877 z m 85.193764,0 c -1.108,0 -1.99988,0.891876 -1.99988,1.999877 v 9.923425 c 0,1.107999 0.89188,1.999877 1.99988,1.999877 h 9.92394 c 1.108,0 1.99988,-0.891878 1.99988,-1.999877 v -9.923425 c 0,-1.108001 -0.89188,-1.99988 -1.99988,-1.999877 z M 18.718496,58.858682 c -1.108,0 -1.999879,0.892394 -1.999878,2.000395 v 9.923425 c 0,1.108001 0.891878,1.999877 1.999878,1.999877 h 9.923941 c 1.108001,0 1.999879,-0.891876 1.999879,-1.999877 v -9.923425 c 0,-1.108001 -0.891878,-2.000395 -1.999879,-2.000395 z m 85.193764,0 c -1.108,0 -1.99988,0.892394 -1.99988,2.000395 v 9.923425 c 0,1.108001 0.89188,1.999877 1.99988,1.999877 h 9.92394 c 1.108,0 1.99988,-0.891876 1.99988,-1.999877 v -9.923425 c 0,-1.108001 -0.89188,-2.000395 -1.99988,-2.000395 z M 18.718496,80.570535 c -1.108,0 -1.999879,0.891879 -1.999878,1.999877 v 9.923425 c 0,1.108001 0.891878,1.99988 1.999878,1.99988 h 9.923941 c 1.108001,0 1.999879,-0.891879 1.999879,-1.99988 v -9.923425 c 0,-1.107998 -0.891878,-1.999877 -1.999879,-1.999877 z m 85.193764,0 c -1.108,0 -1.99988,0.891879 -1.99988,1.999877 v 9.923425 c 0,1.108001 0.89188,1.99988 1.99988,1.99988 h 9.92394 c 1.108,0 1.99988,-0.891879 1.99988,-1.99988 v -9.923425 c 0,-1.107998 -0.89188,-1.999877 -1.99988,-1.999877 z M 39.840204,101.69172 c -1.108001,0 -1.999877,0.89188 -1.999877,1.99988 v 9.92394 c 0,1.108 0.891876,1.99988 1.999877,1.99988 h 9.923425 c 1.107998,0 1.999877,-0.89188 1.999877,-1.99988 v -9.92394 c 0,-1.108 -0.891879,-1.99988 -1.999877,-1.99988 z m 21.711335,0 c -1.108001,0 -1.999877,0.89188 -1.999877,1.99988 v 9.92394 c 0,1.108 0.891876,1.99988 1.999877,1.99988 h 9.923425 c 1.108001,0 2.000396,-0.89188 2.000396,-1.99988 v -9.92394 c 0,-1.108 -0.892395,-1.99988 -2.000396,-1.99988 z m 21.23953,0 c -1.107998,0 -1.999877,0.89188 -1.999877,1.99988 v 9.92394 c 0,1.108 0.891879,1.99988 1.999877,1.99988 h 9.923425 c 1.108001,0 1.999882,-0.89188 1.99988,-1.99988 v -9.92394 c 0,-1.108 -0.891879,-1.99988 -1.99988,-1.99988 z" />
  </g>
  <g
     inkscape:groupmode="layer"
     id="layer7"
     inkscape:label="animation">
    <path
       style="fill:#a7ec85;fill-opacity:1;stroke-width:0.264583"
       d="m 97.495502,33.919911 c -6.332331,-2.189668 -10.058971,-8.809514 -8.451429,-15.012757 1.52219,-5.873876 7.059331,-9.9486971 13.014127,-9.5771904 5.77646,0.3603807 10.91999,5.1071984 11.67917,10.7783724 0.81448,6.084273 -2.91472,11.978846 -8.72185,13.78623 -2.09205,0.651119 -5.675412,0.663194 -7.520018,0.02535 z"
       id="path30218" />
    <path
       style="fill:#74b554;fill-opacity:1;stroke-width:0.264583"
       d="m 73.38392,125.67153 c -1.79057,-0.70993 -3.661658,-2.38783 -4.493638,-4.02965 -1.049533,-2.07116 -1.185243,-3.59016 -0.620471,-6.94501 0.269475,-1.60073 0.684167,-4.27963 0.921538,-5.95312 0.237371,-1.67349 0.899393,-5.88803 1.471157,-9.36564 0.571768,-3.477612 1.038514,-6.75183 1.037215,-7.276041 -0.0021,-0.881759 -0.449879,-1.418596 -5.980052,-7.17082 -3.287728,-3.419739 -6.124868,-6.217708 -6.304758,-6.217708 -0.179888,0 -3.704196,3.600762 -7.831794,8.001696 -5.922266,6.314445 -7.674757,8.033072 -8.311107,8.150502 -0.44351,0.08185 -7.712008,0.112488 -16.152216,0.0681 L 11.773961,94.853124 10.397653,94.230715 C 7.4907023,92.916107 5.2916699,89.530983 5.2916699,86.370723 c 0,-3.267271 2.5551383,-6.644992 5.8747691,-7.76605 1.549888,-0.523404 2.187545,-0.55259 12.072957,-0.55259 8.601141,0 10.488305,-0.06479 10.730397,-0.368377 0.161562,-0.20261 3.210782,-3.618383 6.776042,-7.590612 3.56526,-3.972229 8.565885,-9.562451 11.112499,-12.422716 2.546615,-2.860265 6.505443,-7.289937 8.797396,-9.843714 2.291953,-2.553777 4.167187,-4.715441 4.167187,-4.803698 0,-0.08825 -0.982266,-0.154279 -2.182812,-0.146719 l -2.182813,0.01376 -7.276041,7.699708 c -7.709402,8.158302 -8.178099,8.542379 -10.80399,8.853376 -4.090956,0.484513 -7.838977,-2.977666 -7.799213,-7.204411 0.02246,-2.386991 0.772324,-3.750982 3.63683,-6.615289 4.501057,-4.500753 17.670563,-16.915196 18.306094,-17.256532 0.49729,-0.267089 3.355777,-0.324104 13.265308,-0.264583 l 12.631428,0.07585 1.342821,0.708631 c 0.738553,0.389744 3.050286,2.294744 5.137184,4.233333 10.909628,10.134306 12.286207,11.32855 13.058957,11.329238 0.63186,5.29e-4 1.72137,-0.975704 6.74687,-6.045594 6.7062,-6.76543 7.4405,-7.288333 10.21424,-7.273646 5.15796,0.02731 8.95709,5.478517 7.00894,10.05683 -0.43847,1.030436 -2.45479,3.197807 -10.38489,11.162881 -10.93745,10.985672 -11.14058,11.14503 -14.20641,11.14503 -2.949371,0 -3.899098,-0.624998 -9.662585,-6.358783 l -5.032372,-5.006438 -6.737964,6.741853 -6.737966,6.741853 8.765503,8.79907 c 4.821025,4.839491 8.843062,9.058401 8.937857,9.375359 0.0948,0.316958 -0.13589,2.221958 -0.512633,4.233333 -4.947972,26.416474 -6.181859,32.579634 -6.742638,33.678854 -1.826109,3.57946 -6.571004,5.42181 -10.228702,3.9716 z"
       id="path30116" />
  </g>
</svg>
