<?xml version="1.0" encoding="UTF-8" standalone="no"?>
<!-- Created with Inkscape (http://www.inkscape.org/) -->

<svg
   width="500"
   height="500"
   viewBox="0 0 132.29167 132.29167"
   version="1.1"
   id="svg5"
   inkscape:version="1.1.1 (3bf5ae0d25, 2021-09-20)"
   sodipodi:docname="animation.svg"
   xmlns:inkscape="http://www.inkscape.org/namespaces/inkscape"
   xmlns:sodipodi="http://sodipodi.sourceforge.net/DTD/sodipodi-0.dtd"
   xmlns="http://www.w3.org/2000/svg"
   xmlns:svg="http://www.w3.org/2000/svg">
  <sodipodi:namedview
     id="namedview7"
     pagecolor="#505050"
     bordercolor="#eeeeee"
     borderopacity="1"
     inkscape:pageshadow="0"
     inkscape:pageopacity="0"
     inkscape:pagecheckerboard="0"
     inkscape:document-units="mm"
     showgrid="false"
     units="px"
     inkscape:zoom="1.121145"
     inkscape:cx="410.74081"
     inkscape:cy="190.43032"
     inkscape:window-width="1920"
     inkscape:window-height="1121"
     inkscape:window-x="-7"
     inkscape:window-y="-7"
     inkscape:window-maximized="1"
     inkscape:current-layer="svg5" />
  <defs
     id="defs2" />
  <path
     style="fill:#74b554;fill-opacity:1;stroke-width:0.264583"
     d="m 73.38392,125.67153 c -1.79057,-0.70993 -3.661658,-2.38783 -4.493638,-4.02965 -1.049533,-2.07116 -1.185243,-3.59016 -0.620471,-6.94501 0.269475,-1.60073 0.684167,-4.27963 0.921538,-5.95312 0.237371,-1.67349 0.899393,-5.88803 1.471157,-9.36564 0.571768,-3.477612 1.038514,-6.75183 1.037215,-7.276041 -0.0021,-0.881759 -0.449879,-1.418596 -5.980052,-7.17082 -3.287728,-3.419739 -6.124868,-6.217708 -6.304758,-6.217708 -0.179888,0 -3.704196,3.600762 -7.831794,8.001696 -5.922266,6.314445 -7.674757,8.033072 -8.311107,8.150502 -0.44351,0.08185 -7.712008,0.112488 -16.152216,0.0681 L 11.773961,94.853124 10.397653,94.230715 C 7.4907023,92.916107 5.2916699,89.530983 5.2916699,86.370723 c 0,-3.267271 2.5551383,-6.644992 5.8747691,-7.76605 1.549888,-0.523404 2.187545,-0.55259 12.072957,-0.55259 8.601141,0 10.488305,-0.06479 10.730397,-0.368377 0.161562,-0.20261 3.210782,-3.618383 6.776042,-7.590612 3.56526,-3.972229 8.565885,-9.562451 11.112499,-12.422716 2.546615,-2.860265 6.505443,-7.289937 8.797396,-9.843714 2.291953,-2.553777 4.167187,-4.715441 4.167187,-4.803698 0,-0.08825 -0.982266,-0.154279 -2.182812,-0.146719 l -2.182813,0.01376 -7.276041,7.699708 c -7.709402,8.158302 -8.178099,8.542379 -10.80399,8.853376 -4.090956,0.484513 -7.838977,-2.977666 -7.799213,-7.204411 0.02246,-2.386991 0.772324,-3.750982 3.63683,-6.615289 4.501057,-4.500753 17.670563,-16.915196 18.306094,-17.256532 0.49729,-0.267089 3.355777,-0.324104 13.265308,-0.264583 l 12.631428,0.07585 1.342821,0.708631 c 0.738553,0.389744 3.050286,2.294744 5.137184,4.233333 10.909628,10.134306 12.286207,11.32855 13.058957,11.329238 0.63186,5.29e-4 1.72137,-0.975704 6.74687,-6.045594 6.7062,-6.76543 7.4405,-7.288333 10.21424,-7.273646 5.15796,0.02731 8.95709,5.478517 7.00894,10.05683 -0.43847,1.030436 -2.45479,3.197807 -10.38489,11.162881 -10.93745,10.985672 -11.14058,11.14503 -14.20641,11.14503 -2.949371,0 -3.899098,-0.624998 -9.662585,-6.358783 l -5.032372,-5.006438 -6.737964,6.741853 -6.737966,6.741853 8.765503,8.79907 c 4.821025,4.839491 8.843062,9.058401 8.937857,9.375359 0.0948,0.316958 -0.13589,2.221958 -0.512633,4.233333 -4.947972,26.416474 -6.181859,32.579634 -6.742638,33.678854 -1.826109,3.57946 -6.571004,5.42181 -10.228702,3.9716 z"
     id="path30116"
     inkscape:label="body" />
  <path
     style="fill:#a7ec85;fill-opacity:1;stroke-width:0.264583"
     d="m 97.495502,33.919911 c -6.332331,-2.189668 -10.058971,-8.809514 -8.451429,-15.012757 1.52219,-5.873876 7.059331,-9.9486971 13.014127,-9.5771904 5.77646,0.3603807 10.91999,5.1071984 11.67917,10.7783724 0.81448,6.084273 -2.91472,11.978846 -8.72185,13.78623 -2.09205,0.651119 -5.675412,0.663194 -7.520018,0.02535 z"
     id="path30218"
     inkscape:label="head"
     sodipodi:insensitive="true" />
</svg>
