<?xml version="1.0" encoding="UTF-8" standalone="no"?>
<!-- Created with Inkscape (http://www.inkscape.org/) -->

<svg
   width="469.08316"
   height="460.84781"
   viewBox="0 0 124.11158 121.93264"
   version="1.1"
   id="svg5"
   inkscape:version="1.1.1 (3bf5ae0d25, 2021-09-20)"
   sodipodi:docname="archive.svg"
   inkscape:export-filename="C:\Users\leo\Desktop\svgs\combobox.png"
   inkscape:export-xdpi="96"
   inkscape:export-ydpi="96"
   xmlns:inkscape="http://www.inkscape.org/namespaces/inkscape"
   xmlns:sodipodi="http://sodipodi.sourceforge.net/DTD/sodipodi-0.dtd"
   xmlns="http://www.w3.org/2000/svg"
   xmlns:svg="http://www.w3.org/2000/svg">
  <sodipodi:namedview
     id="namedview7"
     pagecolor="#505050"
     bordercolor="#eeeeee"
     borderopacity="1"
     inkscape:pageshadow="0"
     inkscape:pageopacity="0"
     inkscape:pagecheckerboard="0"
     inkscape:document-units="mm"
     showgrid="false"
     inkscape:zoom="1.4142136"
     inkscape:cx="324.91556"
     inkscape:cy="225.2135"
     inkscape:window-width="1920"
     inkscape:window-height="1121"
     inkscape:window-x="-7"
     inkscape:window-y="-7"
     inkscape:window-maximized="1"
     inkscape:current-layer="svg5"
     fit-margin-top="50"
     fit-margin-left="50"
     fit-margin-right="50"
     fit-margin-bottom="50"
     lock-margins="true"
     units="px"
     showguides="false" />
  <defs
     id="defs2">
    <rect
       x="-190"
       y="50"
       width="409"
       height="109"
       id="rect62070" />
    <rect
       x="-268"
       y="6"
       width="249"
       height="367"
       id="rect60744" />
    <filter
       style="color-interpolation-filters:sRGB"
       inkscape:label="Drop Shadow"
       id="filter41397"
       x="-0.4636397"
       y="-0.4636397"
       width="2.0236785"
       height="2.0043981">
      <feFlood
         flood-opacity="0.498039"
         flood-color="rgb(0,0,0)"
         result="flood"
         id="feFlood41387" />
      <feComposite
         in="flood"
         in2="SourceGraphic"
         operator="in"
         result="composite1"
         id="feComposite41389" />
      <feGaussianBlur
         in="composite1"
         stdDeviation="3"
         result="blur"
         id="feGaussianBlur41391" />
      <feOffset
         dx="1.49701"
         dy="1.1976"
         result="offset"
         id="feOffset41393" />
      <feComposite
         in="SourceGraphic"
         in2="offset"
         operator="over"
         result="composite2"
         id="feComposite41395" />
    </filter>
    <filter
       style="color-interpolation-filters:sRGB"
       inkscape:label="Drop Shadow"
       id="filter48262"
       x="-0.11650321"
       y="-0.11797703"
       width="1.3759789"
       height="1.3795844">
      <feFlood
         flood-opacity="0.211765"
         flood-color="rgb(0,0,0)"
         result="flood"
         id="feFlood48252" />
      <feComposite
         in="flood"
         in2="SourceGraphic"
         operator="in"
         result="composite1"
         id="feComposite48254" />
      <feGaussianBlur
         in="composite1"
         stdDeviation="1"
         result="blur"
         id="feGaussianBlur48256" />
      <feOffset
         dx="0.7"
         dy="0.7"
         result="offset"
         id="feOffset48258" />
      <feComposite
         in="SourceGraphic"
         in2="offset"
         operator="over"
         result="composite2"
         id="feComposite48260" />
    </filter>
    <rect
       x="-268"
       y="6"
       width="249"
       height="367"
       id="rect71674" />
    <rect
       x="-268"
       y="6"
       width="249"
       height="367"
       id="rect72688" />
  </defs>
  <path
     style="fill:#d9d9d9;stroke-width:0.236632;fill-opacity:1"
     d="m 32.895347,112.67603 c -4.179801,-1.01322 -7.667441,-4.65537 -8.460066,-8.83487 -0.155999,-0.82257 -0.241532,-11.485481 -0.241532,-30.11042 V 44.893898 h 37.861162 37.861171 l -0.0036,28.928297 c -0.0036,31.367255 0.0322,30.444315 -1.289996,33.053605 -0.322836,0.63709 -1.186697,1.8061 -1.919677,2.59781 -1.505793,1.62644 -3.86604,2.94045 -5.98863,3.33403 -0.806174,0.14949 -11.415938,0.2291 -28.869134,0.21663 -22.682676,-0.0162 -27.835762,-0.0782 -28.949797,-0.34824 z M 45.19787,97.267215 c 0.34017,-0.25398 0.83804,-0.755831 1.106377,-1.115238 0.482984,-0.646916 0.487885,-0.838488 0.487885,-19.076088 0,-18.237595 -0.0049,-18.429175 -0.487885,-19.076083 -0.927095,-1.241742 -1.683405,-1.629241 -3.179915,-1.629241 -1.496453,0 -2.252708,0.387445 -3.179915,1.629134 -0.481148,0.644344 -0.488837,0.898991 -0.556795,18.442698 -0.0379,9.784134 -0.0071,18.132272 0.06858,18.551422 0.170129,0.943065 1.159588,2.150976 2.118292,2.585965 0.957719,0.434542 2.840209,0.272153 3.62338,-0.312569 z m 18.930584,0 c 0.340169,-0.25398 0.838041,-0.755831 1.106375,-1.115238 0.482989,-0.646916 0.48789,-0.838488 0.48789,-19.076088 0,-18.237595 -0.0045,-18.429175 -0.48789,-19.076083 -0.927092,-1.241742 -1.683406,-1.629241 -3.179918,-1.629241 -1.496449,0 -2.252705,0.387445 -3.17991,1.629134 -0.48115,0.644344 -0.488838,0.898991 -0.556797,18.442698 -0.0379,9.784134 -0.0071,18.132272 0.06858,18.551422 0.170129,0.943065 1.159588,2.150976 2.118285,2.585965 0.957723,0.434542 2.840213,0.272153 3.623385,-0.312569 z m 18.930578,0 c 0.340178,-0.25398 0.83804,-0.755831 1.106384,-1.115238 0.48298,-0.646916 0.487881,-0.838488 0.487881,-19.076088 0,-18.237595 -0.0045,-18.429175 -0.487881,-19.076083 -0.927101,-1.241742 -1.683406,-1.629241 -3.179918,-1.629241 -1.496449,0 -2.25271,0.387445 -3.179918,1.629134 -0.481147,0.644344 -0.488838,0.898991 -0.556791,18.442698 -0.03792,9.784134 -0.0072,18.132272 0.0686,18.551422 0.170125,0.943065 1.15958,2.150976 2.118287,2.585965 0.957724,0.434542 2.840214,0.272153 3.623377,-0.312569 z M 23.253982,38.794594 c -0.356396,-0.212948 -0.883319,-0.761729 -1.170939,-1.219513 -0.513849,-0.817848 -0.522923,-0.894388 -0.521529,-4.399233 0.0014,-3.429405 0.02205,-3.614487 0.536662,-4.801312 0.679301,-1.566643 1.638635,-2.730422 2.932471,-3.557417 l 1.018049,-0.650717 10.196928,-0.06906 10.196928,-0.06906 v -2.324119 c 0,-2.893454 0.238581,-4.457209 0.976445,-6.369093 0.703049,-1.821674 2.59875,-4.209005 4.050588,-5.101062 1.970639,-1.2108272 2.859818,-1.3230852 10.510066,-1.3268818 3.876277,-0.00188 7.52083,0.1028584 8.09899,0.2328483 1.750552,0.393581 3.697107,1.7075945 4.938974,3.3340315 1.939193,2.539707 2.64211,4.966436 2.647097,9.138702 l 0.003,2.415574 10.19693,0.06906 10.19692,0.06906 1.018049,0.650716 c 1.229839,0.786089 2.336599,2.096523 2.959279,3.706517 0.47835,1.236798 0.51127,1.544087 0.51127,4.771034 0,3.380418 -0.0105,3.46574 -0.52566,4.285238 -1.10423,1.756434 2.45896,1.613258 -39.998802,1.607257 -34.898528,-0.0049 -38.178424,-0.03814 -38.771599,-0.39257 z M 71.391067,21.461635 c -0.0714,-2.794727 -0.240938,-3.321489 -1.409738,-4.37958 -0.522109,-0.472659 -0.7695,-0.487886 -7.926258,-0.487886 -7.156754,0 -7.404144,0.01523 -7.926256,0.487886 -1.168798,1.058091 -1.338361,1.584852 -1.409733,4.37958 l -0.06605,2.586451 h 9.402041 9.402047 z"
     id="path1692"
     sodipodi:nodetypes="cssccccssssccssssssscsssssscssscsscsscssccscccscsscccssscssccccssssccccsssscccc"
     inkscape:label="archive" />
</svg>
