<?xml version="1.0" encoding="UTF-8" standalone="no"?>
<!-- Created with Inkscape (http://www.inkscape.org/) -->

<svg
   width="500mm"
   height="500mm"
   viewBox="0 0 499.99999 500"
   version="1.1"
   id="svg1031"
   inkscape:version="1.2.1 (9c6d41e410, 2022-07-14)"
   sodipodi:docname="artefacts_icon.svg"
   xml:space="preserve"
   xmlns:inkscape="http://www.inkscape.org/namespaces/inkscape"
   xmlns:sodipodi="http://sodipodi.sourceforge.net/DTD/sodipodi-0.dtd"
   xmlns="http://www.w3.org/2000/svg"
   xmlns:svg="http://www.w3.org/2000/svg"><sodipodi:namedview
     id="namedview1033"
     pagecolor="#505050"
     bordercolor="#eeeeee"
     borderopacity="1"
     inkscape:pageshadow="0"
     inkscape:pageopacity="0"
     inkscape:pagecheckerboard="0"
     inkscape:document-units="mm"
     showgrid="false"
     fit-margin-top="50"
     lock-margins="true"
     fit-margin-left="50"
     fit-margin-right="50"
     fit-margin-bottom="50"
     inkscape:zoom="0.29332833"
     inkscape:cx="673.30694"
     inkscape:cy="852.28727"
     inkscape:window-width="1920"
     inkscape:window-height="1121"
     inkscape:window-x="-7"
     inkscape:window-y="-7"
     inkscape:window-maximized="1"
     inkscape:current-layer="svg1031"
     inkscape:showpageshadow="0"
     inkscape:deskcolor="#505050" /><defs
     id="defs1028" /><path
     style="fill:#ffffff;stroke-width:0.947595;fill-opacity:0.85000002"
     d="m 117.16585,451.92355 c -7.25665,-6.63031 -12.93728,-19.7359 -12.775,-29.47282 0.11878,-7.12769 2.57045,-15.81178 6.10203,-21.6141 5.81124,-9.54777 17.65217,-17.67086 27.60711,-18.939 l 4.21447,-0.53687 9.20486,-15.12338 9.20486,-15.12336 -18.72548,-11.74835 -18.72548,-11.74833 -1.94111,-4.13308 c -2.79539,-5.95206 -2.01727,-10.50662 3.51849,-20.5946 8.72878,-15.90668 13.78579,-20.25501 22.73278,-19.547 4.0588,0.32118 5.98308,1.14563 13.85084,5.93434 7.1254,4.33687 9.28343,5.32103 9.80144,4.46994 0.36535,-0.60026 22.10785,-48.21518 48.31666,-105.81093 26.20881,-57.59575 48.95424,-106.850455 50.5454,-109.454916 4.99277,-8.172241 8.0894,-9.535639 55.2484,-24.324415 37.75405,-11.839437 43.8753,-13.477356 47.15961,-12.61891 8.16954,2.135338 8.19158,2.202844 16.83927,51.57177 8.52742,48.682261 8.73892,52.059151 3.77347,60.248021 -1.58276,2.60957 -34.88411,45.43943 -74.00367,95.17707 -39.11955,49.73763 -71.42538,90.92319 -71.79073,91.52345 -0.51802,0.85109 1.3475,2.31585 8.4729,6.65272 7.86776,4.7887 9.48402,6.1192 11.63381,9.57687 4.73887,7.62188 3.19954,14.11123 -6.91975,29.17159 -6.41762,9.55123 -10.10574,12.33462 -16.67675,12.58584 l -4.56287,0.17443 -19.03733,-11.23597 -19.03734,-11.23596 -9.20481,15.1234 -9.20481,15.1234 1.45913,3.99011 c 2.07486,5.67385 2.28331,14.8752 0.49841,22.00047 -3.82322,15.26222 -16.39906,27.19953 -31.67545,30.06713 -13.41118,2.51747 -25.92704,-1.01333 -35.90336,-10.12856 z"
     id="path977"
     inkscape:label="artefacts_icon" /></svg>
