<?xml version="1.0" encoding="UTF-8" standalone="no"?>
<!-- Created with Inkscape (http://www.inkscape.org/) -->

<svg
   width="469.08316"
   height="460.84781"
   viewBox="0 0 124.11158 121.93264"
   version="1.1"
   id="svg5"
   inkscape:version="1.2.1 (9c6d41e410, 2022-07-14)"
   sodipodi:docname="assets_groups.svg"
   inkscape:export-filename="C:\Users\leo\Desktop\svgs\combobox.png"
   inkscape:export-xdpi="96"
   inkscape:export-ydpi="96"
   xml:space="preserve"
   xmlns:inkscape="http://www.inkscape.org/namespaces/inkscape"
   xmlns:sodipodi="http://sodipodi.sourceforge.net/DTD/sodipodi-0.dtd"
   xmlns="http://www.w3.org/2000/svg"
   xmlns:svg="http://www.w3.org/2000/svg"><sodipodi:namedview
     id="namedview7"
     pagecolor="#505050"
     bordercolor="#eeeeee"
     borderopacity="1"
     inkscape:pageshadow="0"
     inkscape:pageopacity="0"
     inkscape:pagecheckerboard="0"
     inkscape:document-units="mm"
     showgrid="false"
     inkscape:zoom="0.728792"
     inkscape:cx="77.525549"
     inkscape:cy="127.60843"
     inkscape:window-width="1920"
     inkscape:window-height="1121"
     inkscape:window-x="-7"
     inkscape:window-y="-7"
     inkscape:window-maximized="1"
     inkscape:current-layer="svg5"
     fit-margin-top="50"
     fit-margin-left="50"
     fit-margin-right="50"
     fit-margin-bottom="50"
     lock-margins="true"
     units="px"
     showguides="false"
     inkscape:showpageshadow="0"
     inkscape:deskcolor="#505050" /><defs
     id="defs2"><filter
       style="color-interpolation-filters:sRGB"
       inkscape:label="Drop Shadow"
       id="filter41397"
       x="-0.4636397"
       y="-0.4636397"
       width="2.0236785"
       height="2.0043981"><feFlood
         flood-opacity="0.498039"
         flood-color="rgb(0,0,0)"
         result="flood"
         id="feFlood41387" /><feComposite
         in="flood"
         in2="SourceGraphic"
         operator="in"
         result="composite1"
         id="feComposite41389" /><feGaussianBlur
         in="composite1"
         stdDeviation="3"
         result="blur"
         id="feGaussianBlur41391" /><feOffset
         dx="1.49701"
         dy="1.1976"
         result="offset"
         id="feOffset41393" /><feComposite
         in="SourceGraphic"
         in2="offset"
         operator="over"
         result="composite2"
         id="feComposite41395" /></filter><filter
       style="color-interpolation-filters:sRGB"
       inkscape:label="Drop Shadow"
       id="filter48262"
       x="-0.11650321"
       y="-0.11797703"
       width="1.3759789"
       height="1.3795844"><feFlood
         flood-opacity="0.211765"
         flood-color="rgb(0,0,0)"
         result="flood"
         id="feFlood48252" /><feComposite
         in="flood"
         in2="SourceGraphic"
         operator="in"
         result="composite1"
         id="feComposite48254" /><feGaussianBlur
         in="composite1"
         stdDeviation="1"
         result="blur"
         id="feGaussianBlur48256" /><feOffset
         dx="0.7"
         dy="0.7"
         result="offset"
         id="feOffset48258" /><feComposite
         in="SourceGraphic"
         in2="offset"
         operator="over"
         result="composite2"
         id="feComposite48260" /></filter></defs><path
     id="path342"
     style="fill:#d9d9d9;stroke-width:0.208128;fill-opacity:1"
     d="m 14.610522,101.37627 c -0.766041,-0.34207 -1.460025,-1.07525 -1.755221,-1.854357 -0.127511,-0.33654 -0.221991,-2.190882 -0.221991,-4.357 0,-4.385375 0.208353,-5.140095 1.641345,-5.945483 l 0.808797,-0.454569 h 25.423547 c 24.868692,0 25.441057,0.0089 26.225831,0.409293 0.556467,0.283888 0.940371,0.694545 1.252964,1.340277 0.42295,0.873697 0.44671,1.180579 0.38616,4.987444 -0.07064,4.440878 -0.112912,4.599925 -1.497468,5.633715 -0.572361,0.42736 -0.679276,0.4293 -26.107148,0.47431 -20.961899,0.0371 -25.644204,-0.005 -26.156816,-0.23363 z m 61.798007,-0.12572 c -0.52638,-0.26184 -1.020102,-0.72754 -1.300798,-1.22697 -0.421564,-0.750071 -0.452175,-1.079726 -0.448985,-4.835101 0.0032,-3.786475 0.03153,-4.079177 0.468287,-4.840995 0.885899,-1.545243 1.081881,-1.582623 8.29753,-1.582623 h 6.382269 l 0.07293,2.670123 c 0.07018,2.56954 0.09553,2.699735 0.672718,3.456189 1.401546,1.83683 3.965921,1.759914 5.13288,-0.153952 0.345853,-0.567216 0.405655,-1.055667 0.406319,-3.318733 l 7.78e-4,-2.653627 h 6.475653 c 6.27196,0 6.50109,0.0143 7.28445,0.454569 0.52362,0.294293 0.95997,0.766863 1.23756,1.340275 0.39595,0.817929 0.42382,1.19613 0.36424,4.94217 -0.0706,4.440851 -0.1129,4.599865 -1.49742,5.633715 -0.56727,0.4236 -0.78121,0.42981 -16.637348,0.48305 -15.773917,0.053 -16.077931,0.0463 -16.911067,-0.36809 z M 17.836499,52.631034 V 22.741036 l 0.44079,-0.784281 c 0.242435,-0.431354 0.793717,-0.982636 1.225071,-1.225071 0.772936,-0.434414 0.953219,-0.44079 12.463118,-0.44079 h 11.678838 v 3.975002 c 0,3.236361 0.06278,4.1073 0.337852,4.686969 1.054382,2.221948 4.370497,2.273245 5.486919,0.08488 0.376556,-0.738109 0.419056,-1.223316 0.419056,-4.784133 v -3.962718 h 11.589433 c 11.276774,0 11.613327,0.01157 12.475143,0.428765 0.643054,0.311298 1.003179,0.671422 1.314476,1.314477 0.409986,0.846918 0.428765,1.233793 0.428765,8.832911 v 7.9472 h -6.99285 c -7.732593,0 -7.958917,0.0338 -8.880974,1.326457 -0.454211,0.636766 -0.465481,0.797278 -0.5243,7.466932 l -0.06011,6.816178 H 45.905062 c -14.736682,0 -14.243988,-0.04294 -15.220784,1.326457 l -0.464189,0.650755 -0.05658,13.060004 -0.05659,13.060004 h -6.13521 -6.13521 z m 20.250974,29.46049 c -0.622006,-0.310331 -0.997027,-0.690237 -1.300797,-1.317741 -0.408659,-0.844178 -0.426824,-1.237978 -0.426824,-9.253447 0,-9.488207 -0.0021,-9.474431 1.619844,-10.386042 0.751189,-0.422191 1.110177,-0.466653 3.767777,-0.466653 h 2.937481 l 4.16e-4,2.653626 c 2.08e-4,2.110976 0.07474,2.80174 0.364224,3.377925 1.119332,2.227893 4.395402,2.227893 5.514735,0 0.289484,-0.576185 0.363965,-1.266949 0.364223,-3.377925 l 2.29e-4,-2.653626 h 2.937481 c 3.474379,0 4.249334,0.277565 4.978103,1.783004 0.407408,0.841586 0.420859,1.189384 0.364242,9.416483 -0.05681,8.255557 -0.07321,8.561927 -0.487903,9.117118 -0.236012,0.315973 -0.687649,0.767597 -1.003637,1.003609 -0.55692,0.415968 -0.853061,0.43081 -9.665071,0.484413 -8.86844,0.05394 -9.111904,0.04464 -9.964523,-0.380744 z m 29.163443,0.01124 c -0.526427,-0.261825 -1.020077,-0.727435 -1.300797,-1.22691 L 65.49771,80.070892 V 63.804958 c 0,-15.891449 0.0097,-16.284847 0.419056,-17.087354 0.269723,-0.528702 0.711772,-0.970751 1.240474,-1.240474 0.772655,-0.394179 1.217288,-0.419056 7.489791,-0.419056 h 6.668373 v 3.142491 c 0,2.468251 0.07249,3.295248 0.337852,3.854458 1.039945,2.191525 4.15904,2.295291 5.39891,0.179612 0.476997,-0.813933 0.507065,-1.052372 0.507065,-4.020902 v -3.155659 h 6.594372 c 6.233127,0 6.642887,0.02349 7.480077,0.428766 0.64538,0.312422 1.00307,0.671192 1.31822,1.322192 0.42818,0.884511 0.43194,1.056608 0.37673,17.2469 -0.0551,16.148408 -0.0611,16.360681 -0.48488,16.928141 -0.23602,0.316066 -0.68772,0.76777 -1.00379,1.003782 -0.56769,0.423908 -0.77592,0.429769 -17.157662,0.482987 -16.295665,0.05294 -16.597694,0.04656 -17.431382,-0.368086 z"
     inkscape:label="assets_group" /></svg>
