<?xml version="1.0" encoding="UTF-8" standalone="no"?>
<!-- Created with Inkscape (http://www.inkscape.org/) -->

<svg
   width="469.08316"
   height="460.84781"
   viewBox="0 0 124.11158 121.93264"
   version="1.1"
   id="svg5"
   inkscape:version="1.2.1 (9c6d41e410, 2022-07-14)"
   sodipodi:docname="assets_groups.svg"
   inkscape:export-filename="C:\Users\leo\Desktop\svgs\combobox.png"
   inkscape:export-xdpi="96"
   inkscape:export-ydpi="96"
   xml:space="preserve"
   xmlns:inkscape="http://www.inkscape.org/namespaces/inkscape"
   xmlns:sodipodi="http://sodipodi.sourceforge.net/DTD/sodipodi-0.dtd"
   xmlns:xlink="http://www.w3.org/1999/xlink"
   xmlns="http://www.w3.org/2000/svg"
   xmlns:svg="http://www.w3.org/2000/svg"><sodipodi:namedview
     id="namedview7"
     pagecolor="#505050"
     bordercolor="#eeeeee"
     borderopacity="1"
     inkscape:pageshadow="0"
     inkscape:pageopacity="0"
     inkscape:pagecheckerboard="0"
     inkscape:document-units="mm"
     showgrid="false"
     inkscape:zoom="0.728792"
     inkscape:cx="77.525549"
     inkscape:cy="127.60843"
     inkscape:window-width="1920"
     inkscape:window-height="1121"
     inkscape:window-x="-7"
     inkscape:window-y="-7"
     inkscape:window-maximized="1"
     inkscape:current-layer="svg5"
     fit-margin-top="50"
     fit-margin-left="50"
     fit-margin-right="50"
     fit-margin-bottom="50"
     lock-margins="true"
     units="px"
     showguides="false"
     inkscape:showpageshadow="0"
     inkscape:deskcolor="#505050" /><defs
     id="defs2"><linearGradient
       id="linearGradient8511"
       inkscape:swatch="solid"><stop
         style="stop-color:#d9d9d9;stop-opacity:1;"
         offset="0"
         id="stop8509" /></linearGradient><filter
       style="color-interpolation-filters:sRGB"
       inkscape:label="Drop Shadow"
       id="filter41397"
       x="-0.4636397"
       y="-0.4636397"
       width="2.0236785"
       height="2.0043981"><feFlood
         flood-opacity="0.498039"
         flood-color="rgb(0,0,0)"
         result="flood"
         id="feFlood41387" /><feComposite
         in="flood"
         in2="SourceGraphic"
         operator="in"
         result="composite1"
         id="feComposite41389" /><feGaussianBlur
         in="composite1"
         stdDeviation="3"
         result="blur"
         id="feGaussianBlur41391" /><feOffset
         dx="1.49701"
         dy="1.1976"
         result="offset"
         id="feOffset41393" /><feComposite
         in="SourceGraphic"
         in2="offset"
         operator="over"
         result="composite2"
         id="feComposite41395" /></filter><filter
       style="color-interpolation-filters:sRGB"
       inkscape:label="Drop Shadow"
       id="filter48262"
       x="-0.11650321"
       y="-0.11797703"
       width="1.3759789"
       height="1.3795844"><feFlood
         flood-opacity="0.211765"
         flood-color="rgb(0,0,0)"
         result="flood"
         id="feFlood48252" /><feComposite
         in="flood"
         in2="SourceGraphic"
         operator="in"
         result="composite1"
         id="feComposite48254" /><feGaussianBlur
         in="composite1"
         stdDeviation="1"
         result="blur"
         id="feGaussianBlur48256" /><feOffset
         dx="0.7"
         dy="0.7"
         result="offset"
         id="feOffset48258" /><feComposite
         in="SourceGraphic"
         in2="offset"
         operator="over"
         result="composite2"
         id="feComposite48260" /></filter><linearGradient
       inkscape:collect="always"
       xlink:href="#linearGradient8511"
       id="linearGradient8513"
       x1="11.312294"
       y1="63.876311"
       x2="112.81817"
       y2="63.876311"
       gradientUnits="userSpaceOnUse" /></defs><path
     id="path8517"
     style="color:#000000;fill:url(#linearGradient8513);stroke-linecap:round;-inkscape-stroke:none;paint-order:markers stroke fill"
     d="M 23.255428 25.782922 C 22.264779 25.781909 21.267261 25.884788 20.273181 26.093498 C 14.83943 27.234329 10.416718 31.607074 9.2500814 37.019446 C 9.2120574 37.195852 9.2344138 37.370569 9.2030558 37.547062 C 8.3782688 42.189281 9.7950232 46.837724 13.168188 50.210889 C 17.558406 54.601104 24.065204 55.684542 29.620931 52.939404 C 32.834283 51.351659 35.384998 48.514182 36.636523 45.146598 L 36.435502 45.687651 L 40.804744 45.691268 L 46.504138 45.695402 L 47.726803 46.107263 C 50.12243 46.912429 52.603956 48.784901 54.976489 51.886755 C 57.506651 55.194687 58.614916 57.107925 63.195109 66.09364 C 66.993372 73.545315 68.540489 76.345352 70.572437 79.406006 C 75.366037 86.626451 80.862193 91.079044 87.318184 92.413997 C 87.384944 92.427797 87.317206 92.409616 87.377096 92.423816 C 87.408296 92.499116 87.426291 92.592084 87.460811 92.677547 C 87.636698 93.112957 87.847264 93.592481 88.072144 94.056791 C 90.390987 98.844536 95.49566 101.99222 100.84966 101.99222 C 108.67271 101.99222 115.21881 95.446123 115.21881 87.623075 C 115.21881 80.932081 110.38454 74.972017 103.83811 73.597575 C 97.517638 72.270574 91.059944 75.342675 88.185315 81.086007 C 88.151245 81.154077 88.127278 81.206368 88.093848 81.273592 C 87.131395 80.852967 85.919684 80.192646 85.172062 79.617362 C 82.902304 77.870823 79.704721 73.873697 77.060413 69.093974 C 76.528363 68.132267 74.394221 64.052962 72.443123 60.253687 C 68.348667 52.280758 66.183453 48.825563 63.65813 45.587915 L 73.939673 45.587915 L 87.476314 45.587915 L 87.105278 44.164229 C 87.702096 46.44647 89.139072 48.609042 90.85957 50.310624 C 96.447837 55.837437 105.3211 55.78644 110.9276 50.228459 C 116.57403 44.631077 116.57522 35.657652 110.9431 30.025557 C 108.15304 27.235497 104.53185 25.827858 100.90805 25.808761 C 97.284258 25.789661 93.657368 27.158791 90.85957 29.925822 C 89.138882 31.627593 87.702117 33.791968 87.105278 36.074284 L 87.478381 34.648531 L 62.066496 34.601506 L 36.415865 34.55448 L 36.531104 34.843868 C 35.230609 31.562565 32.739858 28.839782 29.593542 27.285156 C 27.58212 26.291294 25.434857 25.785153 23.255428 25.782922 z "
     inkscape:label="assets_groups" /></svg>
