<?xml version="1.0" encoding="UTF-8" standalone="no"?>
<!-- Created with Inkscape (http://www.inkscape.org/) -->

<svg
   width="469.08316"
   height="460.84781"
   viewBox="0 0 124.11158 121.93264"
   version="1.1"
   id="svg5"
   inkscape:version="1.2.1 (9c6d41e410, 2022-07-14)"
   sodipodi:docname="assets_groups.svg"
   inkscape:export-filename="C:\Users\leo\Desktop\svgs\combobox.png"
   inkscape:export-xdpi="96"
   inkscape:export-ydpi="96"
   xml:space="preserve"
   xmlns:inkscape="http://www.inkscape.org/namespaces/inkscape"
   xmlns:sodipodi="http://sodipodi.sourceforge.net/DTD/sodipodi-0.dtd"
   xmlns="http://www.w3.org/2000/svg"
   xmlns:svg="http://www.w3.org/2000/svg"><sodipodi:namedview
     id="namedview7"
     pagecolor="#505050"
     bordercolor="#eeeeee"
     borderopacity="1"
     inkscape:pageshadow="0"
     inkscape:pageopacity="0"
     inkscape:pagecheckerboard="0"
     inkscape:document-units="mm"
     showgrid="false"
     inkscape:zoom="0.728792"
     inkscape:cx="77.525549"
     inkscape:cy="127.60843"
     inkscape:window-width="1920"
     inkscape:window-height="1121"
     inkscape:window-x="-7"
     inkscape:window-y="-7"
     inkscape:window-maximized="1"
     inkscape:current-layer="svg5"
     fit-margin-top="50"
     fit-margin-left="50"
     fit-margin-right="50"
     fit-margin-bottom="50"
     lock-margins="true"
     units="px"
     showguides="false"
     inkscape:showpageshadow="0"
     inkscape:deskcolor="#505050" /><defs
     id="defs2"><filter
       style="color-interpolation-filters:sRGB"
       inkscape:label="Drop Shadow"
       id="filter41397"
       x="-0.4636397"
       y="-0.4636397"
       width="2.0236785"
       height="2.0043981"><feFlood
         flood-opacity="0.498039"
         flood-color="rgb(0,0,0)"
         result="flood"
         id="feFlood41387" /><feComposite
         in="flood"
         in2="SourceGraphic"
         operator="in"
         result="composite1"
         id="feComposite41389" /><feGaussianBlur
         in="composite1"
         stdDeviation="3"
         result="blur"
         id="feGaussianBlur41391" /><feOffset
         dx="1.49701"
         dy="1.1976"
         result="offset"
         id="feOffset41393" /><feComposite
         in="SourceGraphic"
         in2="offset"
         operator="over"
         result="composite2"
         id="feComposite41395" /></filter><filter
       style="color-interpolation-filters:sRGB"
       inkscape:label="Drop Shadow"
       id="filter48262"
       x="-0.11650321"
       y="-0.11797703"
       width="1.3759789"
       height="1.3795844"><feFlood
         flood-opacity="0.211765"
         flood-color="rgb(0,0,0)"
         result="flood"
         id="feFlood48252" /><feComposite
         in="flood"
         in2="SourceGraphic"
         operator="in"
         result="composite1"
         id="feComposite48254" /><feGaussianBlur
         in="composite1"
         stdDeviation="1"
         result="blur"
         id="feGaussianBlur48256" /><feOffset
         dx="0.7"
         dy="0.7"
         result="offset"
         id="feOffset48258" /><feComposite
         in="SourceGraphic"
         in2="offset"
         operator="over"
         result="composite2"
         id="feComposite48260" /></filter></defs><path
     style="fill:#d9d9d9;stroke-width:0.199349;fill-opacity:1"
     d="m 12.85242,111.66439 c -0.364052,-0.1794 -0.902294,-0.64132 -1.196094,-1.02648 l -0.534181,-0.7003 -0.05254,-21.028186 c -0.05237,-20.958304 -0.05116,-21.031036 0.363005,-21.88659 0.24491,-0.505915 0.716711,-1.045674 1.148961,-1.314457 0.729758,-0.453778 0.775408,-0.456341 9.155906,-0.514039 l 8.422491,-0.05799 v 6.846544 6.846547 l 0.527641,1.058837 c 0.597215,1.198456 1.786054,2.093361 3.068831,2.310085 1.191522,0.201307 2.738144,-0.332844 3.64104,-1.257494 1.258216,-1.28853 1.334491,-1.816737 1.334491,-9.241389 V 65.15265 h 8.080034 c 6.853864,0 8.192506,0.04698 8.821189,0.309599 1.054603,0.440533 1.759635,1.189479 2.023437,2.149474 0.166229,0.604916 0.212534,6.428785 0.170647,21.462796 l -0.05749,20.632611 -0.456053,0.73342 c -0.267708,0.43052 -0.808254,0.90391 -1.308869,1.14625 -0.846059,0.40957 -1.017836,0.41281 -21.671676,0.4083 -18.86758,-0.004 -20.880898,-0.0351 -21.480772,-0.33071 z m 55.238549,-0.082 c -0.480149,-0.23767 -1.037322,-0.73049 -1.295767,-1.1461 l -0.45341,-0.72914 V 88.576147 67.445163 l 0.456464,-0.639956 c 0.251056,-0.351974 0.744444,-0.845363 1.096419,-1.096419 0.639347,-0.456031 0.647945,-0.456519 9.062447,-0.51445 l 8.422491,-0.05799 v 6.550481 c 0,7.686406 0.06884,8.116624 1.500416,9.376747 2.189114,1.926934 5.274144,1.37286 6.543946,-1.1753 l 0.527641,-1.058837 v -6.846547 -6.846544 l 8.422494,0.05799 c 8.3805,0.0577 8.42614,0.06026 9.1559,0.514039 0.43225,0.268783 0.90405,0.808542 1.14896,1.314457 0.41417,0.855554 0.41538,0.928286 0.36301,21.88659 l -0.0525,21.028186 -0.53696,0.70394 c -1.10628,1.45032 0.43623,1.35811 -22.717319,1.35794 -20.704012,-1.6e-4 -20.805794,-0.002 -21.644192,-0.41712 z M 40.861773,56.493064 C 40.443359,56.3428 39.91836,56.054554 39.695107,55.852514 38.691764,54.944499 38.731969,55.886092 38.731969,33.296205 V 12.184802 l 0.448535,-0.659035 c 0.246694,-0.362469 0.701704,-0.846697 1.011134,-1.076062 0.547356,-0.405727 0.794479,-0.418544 9.120212,-0.4730163 l 8.557614,-0.055989 v 6.9520093 c 0,6.892825 0.0039,6.959489 0.463839,7.830596 0.255113,0.483223 0.845935,1.147709 1.31294,1.476634 0.768456,0.541247 0.997307,0.598047 2.409548,0.598047 1.412241,0 1.641092,-0.0568 2.409548,-0.598047 0.467005,-0.328925 1.057827,-0.993411 1.31294,-1.476634 0.45989,-0.871107 0.463839,-0.937771 0.463839,-7.830596 V 9.9206995 l 8.557614,0.055989 c 8.325733,0.054473 8.572856,0.067289 9.120212,0.4730165 0.30943,0.229365 0.76444,0.713593 1.011134,1.076062 l 0.448535,0.659035 V 33.3565 54.528197 L 84.9304,55.194784 c -0.247067,0.366622 -0.762882,0.850851 -1.146256,1.076061 -0.689771,0.405205 -0.913367,0.409925 -21.42933,0.452451 -17.136488,0.03552 -20.864231,-0.0044 -21.493041,-0.230232 z"
     id="path935" /></svg>
