<?xml version="1.0" encoding="UTF-8" standalone="no"?>
<!-- Created with Inkscape (http://www.inkscape.org/) -->

<svg
   width="500"
   height="500"
   viewBox="0 0 132.29167 132.29167"
   version="1.1"
   id="svg5"
   inkscape:version="1.2.1 (9c6d41e410, 2022-07-14)"
   sodipodi:docname="batcher_icon.svg"
   xmlns:inkscape="http://www.inkscape.org/namespaces/inkscape"
   xmlns:sodipodi="http://sodipodi.sourceforge.net/DTD/sodipodi-0.dtd"
   xmlns="http://www.w3.org/2000/svg"
   xmlns:svg="http://www.w3.org/2000/svg">
  <sodipodi:namedview
     id="namedview7"
     pagecolor="#505050"
     bordercolor="#eeeeee"
     borderopacity="1"
     inkscape:pageshadow="0"
     inkscape:pageopacity="0"
     inkscape:pagecheckerboard="0"
     inkscape:document-units="mm"
     showgrid="false"
     units="px"
     inkscape:zoom="0.56057251"
     inkscape:cx="409.40288"
     inkscape:cy="142.71124"
     inkscape:window-width="1920"
     inkscape:window-height="1121"
     inkscape:window-x="-7"
     inkscape:window-y="-7"
     inkscape:window-maximized="1"
     inkscape:current-layer="svg5"
     inkscape:showpageshadow="0"
     inkscape:deskcolor="#505050" />
  <defs
     id="defs2" />
  <path
     style="fill:#ffffff;stroke-width:0.190532;fill-opacity:0.85000002"
     d="m 47.940579,114.65402 c -0.778361,-0.33903 -1.566977,-1.30909 -1.717794,-2.11302 -0.07458,-0.39753 -0.01199,-0.97579 0.159218,-1.47102 0.155156,-0.44879 3.647152,-8.70402 7.759993,-18.344935 4.112842,-9.640919 7.5194,-17.636118 7.570131,-17.767109 0.0732,-0.189005 -2.458413,-0.239028 -12.265093,-0.242349 -11.646463,-0.0039 -12.402336,-0.02462 -13.139636,-0.359455 -0.960019,-0.435978 -1.7056,-1.76576 -1.544979,-2.75555 0.05513,-0.339749 3.978159,-12.302032 8.717831,-26.582849 6.418268,-19.338487 8.742484,-26.113554 9.106968,-26.546718 0.966491,-1.14861 0.138616,-1.101375 19.303565,-1.101375 17.181023,0 17.587608,0.0084 18.357381,0.381081 0.882008,0.426973 1.620632,1.526295 1.617626,2.407575 -9.53e-4,0.30011 -0.205754,0.974351 -0.454954,1.498314 -0.249203,0.523963 -4.918211,8.797815 -10.375573,18.386338 l -9.922478,17.433678 12.268924,0.09527 c 12.018445,0.09332 12.279661,0.103285 12.794942,0.488103 1.355997,1.01267 1.717182,2.339039 0.992816,3.645885 C 96.925679,62.145702 86.45668,74.106348 73.905022,88.285093 56.880249,107.51681 50.881265,114.17351 50.286316,114.49333 c -0.903158,0.48548 -1.505359,0.52674 -2.345737,0.16069 z"
     id="path393"
     inkscape:label="batcher_icon" />
</svg>
