<?xml version="1.0" encoding="UTF-8" standalone="no"?>
<!-- Created with Inkscape (http://www.inkscape.org/) -->

<svg
   width="533.33331"
   height="533.33331"
   viewBox="0 0 141.1111 141.11111"
   version="1.1"
   id="svg1369"
   inkscape:version="1.1.1 (3bf5ae0d25, 2021-09-20)"
   xmlns:inkscape="http://www.inkscape.org/namespaces/inkscape"
   xmlns:sodipodi="http://sodipodi.sourceforge.net/DTD/sodipodi-0.dtd"
   xmlns="http://www.w3.org/2000/svg"
   xmlns:svg="http://www.w3.org/2000/svg">
  <sodipodi:namedview
     id="namedview1371"
     pagecolor="#505050"
     bordercolor="#eeeeee"
     borderopacity="1"
     inkscape:pageshadow="0"
     inkscape:pageopacity="0"
     inkscape:pagecheckerboard="0"
     inkscape:document-units="mm"
     showgrid="false"
     units="px"
     fit-margin-top="0"
     fit-margin-left="0"
     fit-margin-right="0"
     fit-margin-bottom="0"
     inkscape:zoom="0.64052329"
     inkscape:cx="473.83133"
     inkscape:cy="81.964233"
     inkscape:window-width="1920"
     inkscape:window-height="1141"
     inkscape:window-x="-7"
     inkscape:window-y="-7"
     inkscape:window-maximized="1"
     inkscape:current-layer="layer1" />
  <defs
     id="defs1366" />
  <g
     inkscape:label="Layer 1"
     inkscape:groupmode="layer"
     id="layer1"
     transform="translate(67.170906,118.39204)">
    <path
       style="fill:#e6e6e6;stroke-width:0.352778"
       d="M 13.791588,-2.8433428 C 5.757339,-4.0462408 -2.5826199,-8.2646901 -8.1475054,-13.940394 c -2.9240656,-2.982295 -3.0644886,-3.141641 -4.2229046,-4.791932 -3.805029,-5.420684 -5.887473,-11.550123 -5.700677,-16.779309 0.07138,-1.998341 -0.02021,-3.153956 -0.249978,-3.153445 -0.31253,7.06e-4 -4.183369,3.002996 -5.913885,4.586922 -0.683599,0.625694 -0.932766,0.829236 -3.25918,2.66241 -2.023999,1.594877 -2.770738,2.216909 -3.622188,3.017263 -0.330232,0.310416 -3.018383,2.486307 -5.973666,4.835313 -5.544197,4.406804 -6.876921,5.101526 -9.796201,5.106563 -3.138298,0.0054 -5.748715,-2.218351 -6.082735,-5.181769 -0.133957,-1.188462 0.03584,-1.990495 0.727693,-3.437332 1.365989,-2.856611 0.664115,-2.223576 12.234208,-11.034292 2.037291,-1.551414 4.974166,-3.774309 6.526388,-4.93977 1.552222,-1.165465 3.774722,-2.890601 4.938889,-3.833643 1.164166,-0.943042 2.396292,-1.940147 2.738059,-2.215794 0.341768,-0.275642 0.743049,-0.50117 0.891738,-0.50117 0.148689,0 0.520852,-0.277812 0.827031,-0.617361 0.306176,-0.339548 1.000351,-0.934861 1.542612,-1.322916 0.542262,-0.388056 2.214954,-1.658056 3.717092,-2.822222 1.502142,-1.164167 4.493743,-3.466042 6.648005,-5.115278 2.154259,-1.649236 3.9175903,-3.117673 3.9185111,-3.263194 0.00106,-0.145521 -5.4719891,-0.264583 -12.1620201,-0.264583 -13.594011,0 -14.357123,-0.110931 -15.698976,-2.282095 -0.883681,-1.429826 -0.902742,-2.656861 -0.06554,-4.218901 0.8144,-1.519491 2.277986,-2.734532 4.201946,-3.488372 1.341709,-0.525702 3.936008,-0.587964 24.9590255,-0.599002 12.9039221,-0.0068 23.4616785,-0.139683 23.4616785,-0.295349 0,-0.155671 -1.230313,-1.261756 -2.734028,-2.457965 -1.503715,-1.196213 -3.051527,-2.465585 -3.439583,-2.820825 -0.3880554,-0.35524 -2.6667316,-2.215159 -5.0637223,-4.133152 -2.3969943,-1.917994 -4.51326215,-3.890791 -4.70282022,-4.383994 -1.11581486,-2.903179 1.92784922,-6.012009 5.88598742,-6.012009 1.4668922,0 3.8131001,0.826082 4.6905721,1.651514 0.375094,0.352847 2.465539,1.990916 4.645437,3.640152 6.100603,4.615509 11.039541,8.410038 11.948819,9.180138 0.453044,0.383702 0.906826,0.697639 1.008404,0.697639 0.101576,0 1.431932,1.031875 2.956348,2.293055 1.524417,1.261181 2.935951,2.293056 3.136738,2.293056 0.200787,0 0.365068,0.126703 0.365068,0.281558 0,0.154859 1.211305,1.147047 2.69179,2.204861 1.480485,1.057819 2.944516,2.201115 3.253401,2.540663 0.308885,0.339549 0.764455,0.617361 1.012377,0.617361 0.247922,0 0.450765,0.132363 0.450765,0.29414 0,0.161776 0.874977,0.896761 1.944395,1.633297 1.069421,0.736536 2.934733,2.314875 4.145138,3.507419 5.644035,5.560737 8.455706,10.254505 10.206076,17.037895 1.0604,4.10949 1.132889,10.992019 0.157155,14.921691 -1.90458,7.670521 -6.19096,14.490741 -12.038276,19.154551 -2.708186,2.1600443 -3.089991,2.449629 -3.913205,2.9680323 -8.488887,5.3457118 -18.980674,7.475163 -29.252668,5.9372319 z M 28.760872,-20.158934 c 2.863183,-1.000337 4.895846,-1.969509 6.539335,-3.117949 2.214658,-1.547565 6.037093,-5.770957 7.147567,-7.897318 1.404351,-2.689087 2.564644,-6.994002 2.564644,-9.51534 0,-3.68234 -1.629843,-8.957951 -3.677704,-11.904302 -0.997715,-1.435456 -4.99522,-5.473202 -5.418656,-5.473202 -0.188235,0 -0.526866,-0.222451 -0.75251,-0.494337 -0.477097,-0.574869 -3.316354,-2.019049 -5.849739,-2.975458 -0.970139,-0.36625 -3.311702,-0.874881 -5.203472,-1.130296 -2.851009,-0.384923 -4.028158,-0.384196 -6.879166,0.0042 -4.39983,0.599454 -9.8093913,2.602802 -11.0434714,4.089777 -0.2310024,0.278342 -0.5726536,0.506074 -0.7592236,0.506074 -0.6031406,0 -4.1983798,3.652717 -5.3820091,5.468055 -1.7504726,2.684706 -2.2193213,3.669221 -2.9997045,6.298967 -1.7649435,5.947494 -0.306779,13.068225 3.69204848,18.029578 1.82636212,2.265969 4.46452592,4.771132 5.02708292,4.773648 0.2425347,0.0011 0.4409722,0.131554 0.4409722,0.289934 0,0.321694 3.5571886,2.149901 5.997222,3.082251 3.902544,1.491181 12.239924,1.473898 16.556784,-0.03433 z m -9.32484,-7.813149 c -1.461343,-0.200723 -4.751049,-1.341441 -6.504915,-2.255608 -1.963318,-1.023338 -4.8340078,-4.292257 -5.8597973,-6.672689 -1.118496,-2.595559 -1.1928721,-6.762668 -0.1588982,-8.902748 0.3880555,-0.80318 0.7055555,-1.602232 0.7055555,-1.775668 0,-0.703792 2.735555,-3.585976 4.569442,-4.814376 4.281353,-2.86779 9.256451,-3.572196 13.86291,-1.962795 5.566519,1.944828 8.725492,5.418758 9.86423,10.847721 1.013361,4.831225 -1.761472,10.410292 -6.595699,13.261286 -2.58234,1.522942 -7.356488,2.621876 -9.882828,2.274877 z"
       id="path2272" />
  </g>
</svg>
