<?xml version="1.0" encoding="UTF-8" standalone="no"?>
<!-- Created with Inkscape (http://www.inkscape.org/) -->

<svg
   width="533.33331"
   height="533.33331"
   viewBox="0 0 141.1111 141.11111"
   version="1.1"
   id="svg1369"
   inkscape:version="1.1.1 (3bf5ae0d25, 2021-09-20)"
   sodipodi:docname="blender.svg"
   xmlns:inkscape="http://www.inkscape.org/namespaces/inkscape"
   xmlns:sodipodi="http://sodipodi.sourceforge.net/DTD/sodipodi-0.dtd"
   xmlns="http://www.w3.org/2000/svg"
   xmlns:svg="http://www.w3.org/2000/svg">
  <sodipodi:namedview
     id="namedview1371"
     pagecolor="#505050"
     bordercolor="#eeeeee"
     borderopacity="1"
     inkscape:pageshadow="0"
     inkscape:pageopacity="0"
     inkscape:pagecheckerboard="0"
     inkscape:document-units="mm"
     showgrid="false"
     units="px"
     fit-margin-top="0"
     fit-margin-left="0"
     fit-margin-right="0"
     fit-margin-bottom="0"
     inkscape:zoom="0.64052329"
     inkscape:cx="437.14257"
     inkscape:cy="81.964233"
     inkscape:window-width="1920"
     inkscape:window-height="1121"
     inkscape:window-x="-7"
     inkscape:window-y="-7"
     inkscape:window-maximized="1"
     inkscape:current-layer="svg1369" />
  <defs
     id="defs1366" />
  <path
     style="fill:#e6e6e6;stroke-width:0.352778"
     d="m 81.011136,115.73871 c -8.034249,-1.2029 -16.374208,-5.42135 -21.939093,-11.09705 -2.924066,-2.9823 -3.064489,-3.14164 -4.222905,-4.791935 -3.805029,-5.420684 -5.887473,-11.550123 -5.700677,-16.779309 0.07138,-1.998341 -0.02021,-3.153956 -0.249978,-3.153445 -0.31253,7.06e-4 -4.183369,3.002996 -5.913885,4.586922 -0.683599,0.625694 -0.932766,0.829236 -3.25918,2.66241 -2.023999,1.594877 -2.770738,2.216909 -3.622188,3.017263 -0.330232,0.310416 -3.018383,2.486307 -5.973666,4.835313 -5.544197,4.406804 -6.876921,5.101521 -9.796201,5.106561 -3.138298,0.005 -5.748715,-2.218349 -6.082735,-5.181767 -0.133957,-1.188462 0.03584,-1.990495 0.727693,-3.437332 1.365989,-2.856611 0.664115,-2.223576 12.234208,-11.034292 2.037291,-1.551414 4.974166,-3.774309 6.526388,-4.93977 1.552222,-1.165465 3.774722,-2.890601 4.938889,-3.833643 1.164166,-0.943042 2.396292,-1.940147 2.738059,-2.215794 0.341768,-0.275642 0.743049,-0.50117 0.891738,-0.50117 0.148689,0 0.520852,-0.277812 0.827031,-0.617361 0.306176,-0.339548 1.000351,-0.934861 1.542612,-1.322916 0.542262,-0.388056 2.214954,-1.658056 3.717092,-2.822222 1.502142,-1.164167 4.493743,-3.466042 6.648005,-5.115278 2.154259,-1.649236 3.917591,-3.117673 3.918511,-3.263194 0.0011,-0.145521 -5.471989,-0.264583 -12.16202,-0.264583 -13.594011,0 -14.357123,-0.110931 -15.698976,-2.282095 -0.883681,-1.429826 -0.902742,-2.656861 -0.06554,-4.218901 0.8144,-1.519491 2.277986,-2.734532 4.201946,-3.488372 1.341709,-0.525702 3.936008,-0.587964 24.959026,-0.599002 12.903922,-0.0068 23.461678,-0.139683 23.461678,-0.295349 0,-0.155671 -1.230313,-1.261756 -2.734028,-2.457965 -1.503715,-1.196213 -3.051527,-2.465585 -3.439583,-2.820825 -0.388055,-0.35524 -2.666731,-2.215159 -5.063722,-4.133152 -2.396994,-1.917994 -4.513262,-3.890791 -4.70282,-4.383994 -1.115815,-2.903179 1.927849,-6.012009 5.885987,-6.012009 1.466892,0 3.8131,0.826082 4.690572,1.651514 0.375094,0.352847 2.465539,1.990916 4.645437,3.640152 6.100603,4.615509 11.039541,8.410038 11.948819,9.180138 0.453044,0.383702 0.906826,0.697639 1.008404,0.697639 0.101576,0 1.431932,1.031875 2.956348,2.293055 1.524418,1.261181 2.935948,2.293056 3.136738,2.293056 0.20079,0 0.36507,0.126703 0.36507,0.281558 0,0.154859 1.2113,1.147047 2.69179,2.204861 1.48048,1.057819 2.94451,2.201115 3.2534,2.540663 0.30888,0.339549 0.76445,0.617361 1.01238,0.617361 0.24792,0 0.45076,0.132363 0.45076,0.29414 0,0.161776 0.87498,0.896761 1.9444,1.633297 1.06942,0.736536 2.93473,2.314875 4.14513,3.507419 5.64404,5.560737 8.45571,10.254505 10.20608,17.037895 1.0604,4.10949 1.13289,10.992019 0.15716,14.921691 -1.90458,7.670521 -6.19096,14.490737 -12.03828,19.154547 -2.70819,2.16005 -3.08999,2.44963 -3.91321,2.96804 -8.48888,5.34571 -18.98067,7.47516 -29.252664,5.93723 z M 95.98042,98.423117 c 2.863183,-1.000337 4.89585,-1.969509 6.53934,-3.117949 2.21465,-1.547565 6.03709,-5.770957 7.14756,-7.897318 1.40435,-2.689087 2.56465,-6.994002 2.56465,-9.51534 0,-3.68234 -1.62985,-8.957951 -3.67771,-11.904302 -0.99771,-1.435456 -4.99522,-5.473202 -5.41865,-5.473202 -0.18824,0 -0.52687,-0.222451 -0.75251,-0.494337 -0.4771,-0.574869 -3.316358,-2.019049 -5.849743,-2.975458 -0.970139,-0.36625 -3.311702,-0.874881 -5.203472,-1.130296 -2.851009,-0.384923 -4.028158,-0.384196 -6.879166,0.0042 -4.39983,0.599454 -9.809391,2.602802 -11.043471,4.089777 -0.231002,0.278342 -0.572654,0.506074 -0.759224,0.506074 -0.60314,0 -4.198379,3.652717 -5.382009,5.468055 -1.750472,2.684706 -2.219321,3.669221 -2.999704,6.298967 -1.764944,5.947494 -0.306779,13.068225 3.692048,18.029578 1.826362,2.265969 4.464526,4.771132 5.027083,4.773648 0.242535,0.0011 0.440972,0.131554 0.440972,0.289934 0,0.321694 3.557189,2.149901 5.997222,3.082251 3.902544,1.491181 12.239924,1.473898 16.556784,-0.03433 z m -9.32484,-7.813149 c -1.461343,-0.200723 -4.751049,-1.341441 -6.504915,-2.255608 -1.963318,-1.023338 -4.834007,-4.292257 -5.859797,-6.672689 -1.118496,-2.595559 -1.192872,-6.762668 -0.158898,-8.902748 0.388055,-0.80318 0.705555,-1.602232 0.705555,-1.775668 0,-0.703792 2.735555,-3.585976 4.569442,-4.814376 4.281353,-2.86779 9.256451,-3.572196 13.86291,-1.962795 5.566519,1.944828 8.725493,5.418758 9.864233,10.847721 1.01336,4.831225 -1.76147,10.410292 -6.595702,13.261286 -2.58234,1.522942 -7.356488,2.621876 -9.882828,2.274877 z"
     id="path2272"
     inkscape:label="blender" />
</svg>
