<?xml version="1.0" encoding="UTF-8" standalone="no"?>
<!-- Created with Inkscape (http://www.inkscape.org/) -->

<svg
   width="489.99652"
   height="474.47256"
   viewBox="0 0 129.64491 125.53752"
   version="1.1"
   id="svg5"
   inkscape:version="1.1.1 (3bf5ae0d25, 2021-09-20)"
   sodipodi:docname="bulb.svg"
   xmlns:inkscape="http://www.inkscape.org/namespaces/inkscape"
   xmlns:sodipodi="http://sodipodi.sourceforge.net/DTD/sodipodi-0.dtd"
   xmlns="http://www.w3.org/2000/svg"
   xmlns:svg="http://www.w3.org/2000/svg">
  <sodipodi:namedview
     id="namedview7"
     pagecolor="#505050"
     bordercolor="#eeeeee"
     borderopacity="1"
     inkscape:pageshadow="0"
     inkscape:pageopacity="0"
     inkscape:pagecheckerboard="0"
     inkscape:document-units="mm"
     showgrid="false"
     inkscape:zoom="1.1536234"
     inkscape:cx="238.37935"
     inkscape:cy="111.38817"
     inkscape:window-width="1920"
     inkscape:window-height="1121"
     inkscape:window-x="-7"
     inkscape:window-y="-7"
     inkscape:window-maximized="1"
     inkscape:current-layer="svg5"
     fit-margin-top="1"
     fit-margin-left="1"
     fit-margin-right="1"
     fit-margin-bottom="1"
     lock-margins="true"
     units="px" />
  <defs
     id="defs2" />
  <path
     id="rect85"
     style="fill:#d9d9d9;fill-rule:evenodd;stroke-width:0.236197;fill-opacity:1"
     d="M 64.822286,14.583193 A 34.694236,33.829966 0 0 0 30.128047,48.413368 34.694236,33.829966 0 0 0 46.294126,76.987223 c -0.1276,0.367929 -0.19751,0.763825 -0.19751,1.176849 v 9.293316 c 0,1.978253 1.59232,3.571098 3.57057,3.571098 h 29.65571 c 1.97825,0 3.57109,-1.592845 3.57109,-3.571098 v -9.293316 c 0,-0.288401 -0.035,-0.568062 -0.0988,-0.836362 A 34.694236,33.829966 0 0 0 99.516866,48.413455 34.694236,33.829966 0 0 0 64.822626,14.58328 Z m -15.15545,78.335803 c -1.97816,0 -3.57057,1.459656 -3.57057,3.272647 0,1.8129 1.59241,3.272559 3.57057,3.272559 h 29.6557 c 1.97826,0 3.5711,-1.459659 3.5711,-3.272559 0,-1.812991 -1.59284,-3.272647 -3.5711,-3.272647 z m 5.38182,7.853934 c -1.97816,0 -3.5711,1.59293 -3.5711,3.57118 v 3.03914 c 0,1.97825 1.59294,3.57109 3.5711,3.57109 h 18.74726 c 1.97825,0 3.57057,-1.59284 3.57057,-3.57109 v -3.03914 c 0,-1.97825 -1.59232,-3.57118 -3.57057,-3.57118 z"
     inkscape:label="bulb" />
</svg>
