<?xml version="1.0" encoding="UTF-8" standalone="no"?>
<!-- Created with Inkscape (http://www.inkscape.org/) -->

<svg
   width="500"
   height="500"
   viewBox="0 0 132.29167 132.29167"
   version="1.1"
   id="svg5"
   inkscape:version="1.2.1 (9c6d41e410, 2022-07-14)"
   sodipodi:docname="calendar_icon.svg"
   xml:space="preserve"
   xmlns:inkscape="http://www.inkscape.org/namespaces/inkscape"
   xmlns:sodipodi="http://sodipodi.sourceforge.net/DTD/sodipodi-0.dtd"
   xmlns="http://www.w3.org/2000/svg"
   xmlns:svg="http://www.w3.org/2000/svg"><sodipodi:namedview
     id="namedview7"
     pagecolor="#505050"
     bordercolor="#eeeeee"
     borderopacity="1"
     inkscape:pageshadow="0"
     inkscape:pageopacity="0"
     inkscape:pagecheckerboard="0"
     inkscape:document-units="mm"
     showgrid="false"
     units="px"
     inkscape:zoom="0.56057251"
     inkscape:cx="409.40288"
     inkscape:cy="142.71124"
     inkscape:window-width="1920"
     inkscape:window-height="1121"
     inkscape:window-x="-7"
     inkscape:window-y="-7"
     inkscape:window-maximized="1"
     inkscape:current-layer="svg5"
     inkscape:showpageshadow="0"
     inkscape:deskcolor="#505050" /><defs
     id="defs2" /><path
     id="path310"
     style="fill:#d6d6d6;stroke-width:0.32106;fill-opacity:1"
     d="m 63.956079,109.25419 c -0.586324,-0.28892 -1.453187,-1.03289 -1.926363,-1.65326 l -0.860322,-1.12795 v -9.552986 c 0,-9.147706 0.02809,-9.590618 0.661959,-10.439625 0.364075,-0.48764 1.060886,-1.184504 1.548464,-1.548578 0.876804,-0.654721 1.183374,-0.662899 28.013137,-0.747586 30.233186,-0.09538 28.455436,-0.219636 30.234206,2.112446 l 0.86479,1.133806 v 9.521269 9.521254 l -0.86479,1.13382 c -1.76391,2.31258 -0.0607,2.18817 -29.845013,2.18003 -24.119039,-0.006 -26.865237,-0.0591 -27.826068,-0.53264 z M 12.586403,78.432376 C 12.000079,78.143451 11.133216,77.399479 10.66004,76.779114 L 9.7997162,75.65117 v -9.552997 c 0,-9.147704 0.028091,-9.590613 0.6619598,-10.439618 0.364076,-0.487643 1.060912,-1.184505 1.548523,-1.548581 0.882871,-0.659202 1.053078,-0.66231 40.859032,-0.745936 44.542358,-0.09357 41.269386,-0.253965 43.07308,2.110792 l 0.864795,1.133807 v 9.521267 9.521266 l -0.864795,1.133806 c -1.793392,2.351248 1.399844,2.188171 -42.687421,2.180041 -36.009813,-0.0061 -39.699158,-0.05497 -40.668487,-0.532641 z m 0,-30.821806 C 12.000079,47.321645 11.133216,46.577674 10.66004,45.957308 L 9.7997162,44.829364 v -9.552997 c 0,-9.147703 0.028091,-9.590612 0.6619598,-10.439618 0.364076,-0.487644 1.060819,-1.184505 1.548314,-1.548581 0.865132,-0.646109 1.289722,-0.664081 17.732979,-0.750537 18.794093,-0.09881 18.232379,-0.158328 19.966636,2.115394 l 0.864792,1.133806 v 9.521267 9.521266 l -0.864792,1.133807 c -1.711172,2.243461 -1.214858,2.188175 -19.57107,2.180035 -14.606287,-0.0064 -16.607646,-0.06721 -17.552132,-0.532636 z"
     inkscape:label="calendar" /></svg>
