<?xml version="1.0" encoding="UTF-8" standalone="no"?>
<!-- Created with Inkscape (http://www.inkscape.org/) -->

<svg
   width="500"
   height="500"
   viewBox="0 0 132.29167 132.29167"
   version="1.1"
   id="svg5"
   inkscape:version="1.1.1 (3bf5ae0d25, 2021-09-20)"
   sodipodi:docname="camera.svg"
   xmlns:inkscape="http://www.inkscape.org/namespaces/inkscape"
   xmlns:sodipodi="http://sodipodi.sourceforge.net/DTD/sodipodi-0.dtd"
   xmlns="http://www.w3.org/2000/svg"
   xmlns:svg="http://www.w3.org/2000/svg">
  <sodipodi:namedview
     id="namedview7"
     pagecolor="#505050"
     bordercolor="#eeeeee"
     borderopacity="1"
     inkscape:pageshadow="0"
     inkscape:pageopacity="0"
     inkscape:pagecheckerboard="0"
     inkscape:document-units="mm"
     showgrid="false"
     units="px"
     inkscape:zoom="0.56057251"
     inkscape:cx="584.22415"
     inkscape:cy="141.8193"
     inkscape:window-width="1920"
     inkscape:window-height="1121"
     inkscape:window-x="-7"
     inkscape:window-y="-7"
     inkscape:window-maximized="1"
     inkscape:current-layer="layer10" />
  <defs
     id="defs2" />
  <g
     inkscape:groupmode="layer"
     id="layer10"
     inkscape:label="camera">
    <path
       style="fill:#74b554;fill-opacity:1;stroke-width:0.244303"
       d="m 22.232038,116.63589 c -4.123732,-0.80986 -7.825038,-4.39811 -8.935889,-8.66296 -0.55369,-2.12576 -0.562428,-42.527773 -0.0097,-44.650005 1.103483,-4.236556 4.349241,-7.492707 8.562778,-8.590195 2.169164,-0.564994 62.062115,-0.564994 64.231281,0 4.367742,1.137654 7.859068,4.809712 8.677833,9.127055 0.339168,1.788415 0.339168,41.750795 0,43.539215 -0.852447,4.49494 -4.783579,8.4288 -9.250708,9.25712 -1.638052,0.30373 -61.723839,0.28452 -63.275639,-0.0202 z"
       id="path69234" />
    <path
       id="path69342"
       style="fill:#a7ec85;fill-opacity:1;stroke-width:0.244303"
       d="m 37.969115,15.418506 c -2.182784,-0.01488 -3.507047,0.100403 -4.642094,0.403593 -6.019593,1.607932 -11.032641,6.62098 -12.640573,12.640573 -0.684217,2.561489 -0.560854,7.153214 0.259416,9.650055 2.028326,6.174076 7.465493,10.962399 13.72991,12.092286 1.679234,0.302877 5.800839,0.112477 7.568531,-0.34985 3.5473,-0.927767 6.62346,-3.000695 8.895064,-5.745385 2.6563,3.137249 6.333204,5.370227 10.352857,6.095235 1.679234,0.302877 5.800836,0.112477 7.568531,-0.34985 7.975015,-2.085798 13.574067,-9.9548 12.985252,-18.250048 -0.306649,-4.320143 -1.968598,-7.885033 -5.166608,-11.083044 -3.618971,-3.618972 -7.05543,-5.069205 -12.093837,-5.103565 -2.182781,-0.01488 -3.506528,0.100403 -4.641578,0.403593 -3.514759,0.938851 -6.685129,3.039719 -9.03614,5.8229 -0.328501,-0.379537 -0.676251,-0.753767 -1.045413,-1.122928 -3.618974,-3.618972 -7.054914,-5.069205 -12.093318,-5.103565 z m 73.772755,41.87393 c -2.19153,0.0028 -2.61067,0.174554 -8.02277,3.276801 l -3.725348,2.135272 v 22.924699 22.925212 l 3.725348,2.13527 c 2.0491,1.17455 4.27516,2.39855 4.94699,2.71973 1.05879,0.50618 1.49804,0.5717 3.29799,0.493 3.18498,-0.13922 5.43216,-1.5635 6.7722,-4.29225 0.6791,-1.38288 0.67902,-1.38297 0.67902,-23.980962 0,-22.566876 -5.3e-4,-22.599523 -0.52193,-23.727235 -1.32231,-2.859763 -4.04326,-4.613537 -7.1515,-4.609537 z" />
  </g>
</svg>
