<?xml version="1.0" encoding="UTF-8" standalone="no"?>
<!-- Created with Inkscape (http://www.inkscape.org/) -->

<svg
   width="500"
   height="500"
   viewBox="0 0 132.29167 132.29167"
   version="1.1"
   id="svg5"
   inkscape:version="1.1.1 (3bf5ae0d25, 2021-09-20)"
   sodipodi:docname="cfx.svg"
   xmlns:inkscape="http://www.inkscape.org/namespaces/inkscape"
   xmlns:sodipodi="http://sodipodi.sourceforge.net/DTD/sodipodi-0.dtd"
   xmlns="http://www.w3.org/2000/svg"
   xmlns:svg="http://www.w3.org/2000/svg">
  <sodipodi:namedview
     id="namedview7"
     pagecolor="#505050"
     bordercolor="#eeeeee"
     borderopacity="1"
     inkscape:pageshadow="0"
     inkscape:pageopacity="0"
     inkscape:pagecheckerboard="0"
     inkscape:document-units="mm"
     showgrid="false"
     units="px"
     inkscape:zoom="1.121145"
     inkscape:cx="410.74081"
     inkscape:cy="190.43032"
     inkscape:window-width="1920"
     inkscape:window-height="1121"
     inkscape:window-x="-7"
     inkscape:window-y="-7"
     inkscape:window-maximized="1"
     inkscape:current-layer="layer8" />
  <defs
     id="defs2" />
  <g
     inkscape:groupmode="layer"
     id="layer8"
     inkscape:label="cfx">
    <path
       id="path42148"
       style="fill:#74b554;fill-opacity:1;stroke-width:0.999999"
       d="m 116.83203,261.5293 c -7.80754,0.0126 -9.22058,0.38988 -14.89453,3.18164 -8.951161,4.40427 -17.352125,13.07839 -19.408203,20.03906 -0.664615,2.25 -0.663085,2.25 35.404293,2.25 40.88438,0 38.5683,0.57517 32.94532,-8.1875 -3.90395,-6.08378 -9.68435,-11.08036 -16.8418,-14.55859 -4.86402,-2.36372 -6.75515,-2.69545 -15.55469,-2.72266 -0.58049,-0.002 -1.12989,-0.003 -1.65039,-0.002 z M 79,364.97656 v 47.27735 c 0,52.84716 -0.0961,52.07876 7.0625,55.91797 C 89.313642,469.9156 95.593691,470 223.26562,470 c 143.56745,0 137.618,0.20786 142.23438,-4.96484 1.63178,-1.82843 2.06296,-3.97179 2.3457,-11.63868 L 368.19336,444 H 263.10742 158.02344 L 157.76172,404.75 157.5,365.5 118.25,365.23828 Z"
       transform="scale(0.26458333)" />
    <path
       style="fill:#a7ec85;fill-opacity:1;stroke-width:0.264583"
       d="m 54.573417,110.39234 -5.883878,-0.0712 -0.06925,-10.24755 -0.06925,-10.247549 -14.684374,-0.139325 C 17.453067,89.530985 17.961219,89.586598 14.529345,87.57041 5.9178381,82.511241 4.6236433,70.31532 11.985009,63.5937 c 2.907847,-2.655141 3.494271,-2.873481 16.21047,-6.035593 19.759775,-4.913627 32.56855,-8.110108 33.518584,-8.364698 l 0.992187,-0.265888 v -6.220647 c 0,-8.047495 0.136234,-8.337516 4.15585,-8.847153 6.3358,-0.803302 10.466059,-6.121416 9.370769,-12.065779 -1.710536,-9.283406 -13.718867,-11.659971 -18.844563,-3.729521 -0.96198,1.48837 -1.362062,2.793514 -1.704621,5.560808 -0.396563,3.203542 -3.626204,4.408086 -5.851778,2.182512 -0.848337,-0.848336 -0.883989,-0.965702 -0.883989,-2.909951 0,-4.199502 1.793166,-8.330139 4.991121,-11.497271 9.413787,-9.3230557 24.875896,-5.2854682 28.7874,7.517192 0.780122,2.553395 0.659562,7.611327 -0.241757,10.142696 -1.857505,5.216837 -6.003367,9.299722 -11.119622,10.950712 l -1.792232,0.578344 0.07244,4.215802 0.07244,4.215802 22.586436,5.626907 c 18.519336,4.613679 22.926316,5.79661 24.473956,6.56935 7.20804,3.598984 10.28294,12.325018 6.92736,19.658617 -1.81617,3.969213 -5.85171,7.325122 -9.94199,8.267631 -2.5283,0.582589 -2.39933,0.760344 -2.31542,-3.191306 l 0.0738,-3.476903 1.13195,-0.333846 c 4.4227,-1.304401 6.80637,-6.839547 4.72354,-10.9686 -1.85763,-3.682609 -1.47221,-3.530973 -21.893517,-8.613648 -9.660228,-2.404343 -20.20875,-5.034843 -23.441156,-5.845561 l -5.877105,-1.474031 -23.094769,5.736392 c -12.702124,3.155013 -23.63055,5.971963 -24.285394,6.259885 -3.949443,1.736495 -5.802039,6.711233 -3.99973,10.740395 0.809184,1.808974 2.693966,3.550311 4.624635,4.272668 1.498705,0.560737 1.754992,0.569124 15.332451,0.501772 l 13.808268,-0.0685 -0.06107,-2.910416 c -0.08435,-4.019645 -0.987113,-7.227819 -2.717826,-9.658379 -0.290616,-0.408133 -0.528392,-0.815822 -0.528392,-0.905976 0,-0.09015 11.578828,-0.131304 25.730728,-0.09145 25.730728,0.07247 25.730728,0.07247 27.236787,0.812052 2.23254,1.096335 4.01982,2.833867 5.03429,4.89418 l 0.86798,1.76281 0.0721,15.932218 0.0721,15.932222 -0.94085,0.94085 -0.94085,0.94085 -8.391696,0.0221 c -4.615437,0.0122 -14.047171,0.0419 -20.95941,0.0662 -6.912239,0.0243 -15.215451,0.012 -18.451583,-0.0271 z"
       id="path42146" />
  </g>
</svg>
