<?xml version="1.0" encoding="UTF-8" standalone="no"?>
<!-- Created with Inkscape (http://www.inkscape.org/) -->

<svg
   width="500"
   height="500"
   viewBox="0 0 132.29167 132.29167"
   version="1.1"
   id="svg5"
   inkscape:version="1.1.1 (3bf5ae0d25, 2021-09-20)"
   sodipodi:docname="chart_icon.svg"
   xmlns:inkscape="http://www.inkscape.org/namespaces/inkscape"
   xmlns:sodipodi="http://sodipodi.sourceforge.net/DTD/sodipodi-0.dtd"
   xmlns="http://www.w3.org/2000/svg"
   xmlns:svg="http://www.w3.org/2000/svg">
  <sodipodi:namedview
     id="namedview7"
     pagecolor="#505050"
     bordercolor="#eeeeee"
     borderopacity="1"
     inkscape:pageshadow="0"
     inkscape:pageopacity="0"
     inkscape:pagecheckerboard="0"
     inkscape:document-units="mm"
     showgrid="false"
     units="px"
     inkscape:zoom="0.56057251"
     inkscape:cx="460.24376"
     inkscape:cy="141.8193"
     inkscape:window-width="1920"
     inkscape:window-height="1121"
     inkscape:window-x="-7"
     inkscape:window-y="-7"
     inkscape:window-maximized="1"
     inkscape:current-layer="svg5" />
  <defs
     id="defs2" />
  <path
     style="fill:#d9d9d9;stroke-width:0.213904;fill-opacity:1"
     d="M 53.311619,115.87325 C 42.915411,114.43084 33.267018,109.7102 25.907283,102.4652 7.0476292,83.899582 6.5471225,53.895776 24.777246,34.723015 c 6.01371,-6.324666 13.963817,-11.091296 22.120611,-13.262812 3.086164,-0.821604 7.053344,-1.503878 9.051216,-1.556623 1.947149,-0.05141 2.79615,0.35343 3.363957,1.604067 0.390795,0.860755 0.406479,1.754578 0.410998,23.422318 0.0033,16.029057 0.07296,22.66219 0.241348,22.994635 0.130158,0.25697 7.392679,7.638338 16.138939,16.403037 8.847388,8.86604 16.001968,16.202963 16.126973,16.537973 0.636218,1.70508 0.106914,2.81565 -2.235206,4.68987 -6.981101,5.58642 -14.586979,8.88109 -23.594602,10.22058 -3.366808,0.50066 -9.835629,0.54869 -13.089861,0.0972 z M 105.39714,102.95853 C 105.0442,102.73582 98.522813,96.309313 90.905172,88.677407 79.029891,76.779889 77.05154,74.710258 77.031238,74.16336 c -0.06398,-1.723523 0.243005,-2.418646 1.372196,-3.107157 0.664562,-0.405208 1.235687,-0.416818 20.543594,-0.417595 22.212752,-8.56e-4 20.598052,-0.116473 21.529652,1.54107 0.44844,0.797895 0.45746,0.924896 0.22178,3.120869 -0.89404,8.330325 -3.38026,15.224702 -7.99923,22.18216 -1.70753,2.572033 -3.68657,4.980403 -4.50029,5.476603 -0.84647,0.51616 -1.98307,0.51585 -2.8018,-8.6e-4 z M 67.219614,63.84767 C 66.810196,63.641073 66.256721,63.144969 65.989668,62.74522 L 65.504122,62.018399 V 40.224998 c 0,-23.995677 -0.06472,-22.836398 1.324025,-23.716181 0.638312,-0.404375 0.922333,-0.436747 2.883317,-0.32863 5.549938,0.305989 12.943139,2.460211 18.252534,5.318401 14.452802,7.780332 23.926692,21.833714 25.490232,37.811736 0.22871,2.337211 0.21756,2.557339 -0.16245,3.206297 -0.22441,0.383236 -0.67975,0.89937 -1.01188,1.146962 -0.60348,0.449879 -0.61779,0.4502 -22.459878,0.504942 C 69.337349,64.21986 67.917239,64.1997 67.219614,63.84767 Z"
     id="path834"
     inkscape:label="chart" />
</svg>
