<?xml version="1.0" encoding="UTF-8" standalone="no"?>
<!-- Created with Inkscape (http://www.inkscape.org/) -->

<svg
   width="469.08316"
   height="460.84781"
   viewBox="0 0 124.11158 121.93264"
   version="1.1"
   id="svg5"
   inkscape:version="1.1.1 (3bf5ae0d25, 2021-09-20)"
   sodipodi:docname="chip_icon.svg"
   inkscape:export-filename="C:\Users\leo\Desktop\svgs\combobox.png"
   inkscape:export-xdpi="96"
   inkscape:export-ydpi="96"
   xmlns:inkscape="http://www.inkscape.org/namespaces/inkscape"
   xmlns:sodipodi="http://sodipodi.sourceforge.net/DTD/sodipodi-0.dtd"
   xmlns="http://www.w3.org/2000/svg"
   xmlns:svg="http://www.w3.org/2000/svg">
  <sodipodi:namedview
     id="namedview7"
     pagecolor="#505050"
     bordercolor="#eeeeee"
     borderopacity="1"
     inkscape:pageshadow="0"
     inkscape:pageopacity="0"
     inkscape:pagecheckerboard="0"
     inkscape:document-units="mm"
     showgrid="false"
     inkscape:zoom="1"
     inkscape:cx="59.5"
     inkscape:cy="113.5"
     inkscape:window-width="1920"
     inkscape:window-height="1121"
     inkscape:window-x="-7"
     inkscape:window-y="-7"
     inkscape:window-maximized="1"
     inkscape:current-layer="svg5"
     fit-margin-top="50"
     fit-margin-left="50"
     fit-margin-right="50"
     fit-margin-bottom="50"
     lock-margins="true"
     units="px"
     showguides="false" />
  <defs
     id="defs2">
    <rect
       x="-190"
       y="50"
       width="409"
       height="109"
       id="rect62070" />
    <rect
       x="-268"
       y="6"
       width="249"
       height="367"
       id="rect60744" />
    <filter
       style="color-interpolation-filters:sRGB"
       inkscape:label="Drop Shadow"
       id="filter41397"
       x="-0.4636397"
       y="-0.4636397"
       width="2.0236785"
       height="2.0043981">
      <feFlood
         flood-opacity="0.498039"
         flood-color="rgb(0,0,0)"
         result="flood"
         id="feFlood41387" />
      <feComposite
         in="flood"
         in2="SourceGraphic"
         operator="in"
         result="composite1"
         id="feComposite41389" />
      <feGaussianBlur
         in="composite1"
         stdDeviation="3"
         result="blur"
         id="feGaussianBlur41391" />
      <feOffset
         dx="1.49701"
         dy="1.1976"
         result="offset"
         id="feOffset41393" />
      <feComposite
         in="SourceGraphic"
         in2="offset"
         operator="over"
         result="composite2"
         id="feComposite41395" />
    </filter>
    <filter
       style="color-interpolation-filters:sRGB"
       inkscape:label="Drop Shadow"
       id="filter48262"
       x="-0.11650321"
       y="-0.11797703"
       width="1.3759789"
       height="1.3795844">
      <feFlood
         flood-opacity="0.211765"
         flood-color="rgb(0,0,0)"
         result="flood"
         id="feFlood48252" />
      <feComposite
         in="flood"
         in2="SourceGraphic"
         operator="in"
         result="composite1"
         id="feComposite48254" />
      <feGaussianBlur
         in="composite1"
         stdDeviation="1"
         result="blur"
         id="feGaussianBlur48256" />
      <feOffset
         dx="0.7"
         dy="0.7"
         result="offset"
         id="feOffset48258" />
      <feComposite
         in="SourceGraphic"
         in2="offset"
         operator="over"
         result="composite2"
         id="feComposite48260" />
    </filter>
    <rect
       x="-268"
       y="6"
       width="249"
       height="367"
       id="rect71674" />
    <rect
       x="-268"
       y="6"
       width="249"
       height="367"
       id="rect72688" />
  </defs>
  <path
     style="fill:#ffffff;stroke-width:0.204107"
     d="m 36.950605,106.78837 v -4.18419 h -2.416637 c -4.414353,0 -7.278715,-1.12522 -10.134771,-3.981276 -2.856056,-2.85606 -3.981271,-5.720421 -3.981271,-10.134771 V 86.071497 H 16.233729 12.049532 V 81.8873 77.703103 h 4.187147 4.187146 l -0.05398,-6.276295 -0.05398,-6.276295 -4.13317,-0.05525 -4.133169,-0.05525 v -4.07369 -4.073691 l 4.133169,-0.05525 4.13317,-0.05526 0.05398,-6.276294 0.05398,-6.276295 h -4.187146 -4.187147 v -4.184195 -4.184196 h 4.184197 4.184197 v -2.416637 c 0,-4.414353 1.125215,-7.278716 3.981271,-10.134771 2.856056,-2.856056 5.720418,-3.981272 10.134771,-3.981272 h 2.416637 v -4.184201 -4.184197 h 4.184196 4.184197 v 4.187147 4.187146 l 6.276295,-0.05398 6.276295,-0.05398 0.05526,-4.133169 0.05525,-4.13317 h 4.073691 4.073691 l 0.05525,4.13317 0.05526,4.133169 6.276294,0.05398 6.276295,0.05398 v -4.187146 -4.187147 h 4.184197 4.184196 v 4.184197 4.184197 l 2.398259,0.003 c 4.402117,0.0055 7.350787,1.157106 10.162537,3.968861 2.811752,2.811755 3.963322,5.760425 3.968852,10.162543 l 0.003,2.398259 h 4.1842 4.1842 v 4.184197 4.184196 h -4.18715 -4.18714 l 0.054,6.276294 0.054,6.276295 4.13317,0.05526 4.13316,0.05525 v 4.073691 4.073692 l -4.13317,0.05525 -4.13316,0.05525 -0.054,6.276295 -0.054,6.276296 h 4.18714 4.18715 v 4.184196 4.184197 h -4.1842 -4.1842 v 2.416637 c 0,4.414347 -1.12521,7.278707 -3.981261,10.134768 -2.85606,2.856055 -5.720421,3.981275 -10.13477,3.981275 h -2.416637 v 4.18419 4.1842 h -4.184197 -4.184196 v -4.18715 -4.18714 l -6.276295,0.054 -6.276295,0.054 -0.05526,4.13317 -0.05525,4.13316 h -4.073692 -4.073691 l -0.05525,-4.13316 -0.05526,-4.13317 -6.276295,-0.054 -6.276295,-0.054 v 4.18714 4.18715 h -4.184105 -4.184197 z m 55.31304,-12.878169 c 1.159457,-0.539838 2.172798,-1.55537 2.730101,-2.736026 l 0.433558,-0.918482 V 60.966316 c 0,-29.271472 -2.08e-4,-29.289939 -0.426206,-30.210148 -0.542939,-1.172961 -1.562205,-2.192227 -2.735162,-2.735165 -0.920212,-0.425945 -0.938679,-0.426206 -30.210152,-0.426206 H 32.766408 l -0.918482,0.433556 c -1.180654,0.557309 -2.196192,1.57065 -2.736024,2.730105 l -0.427637,0.918482 v 29.289376 29.289377 l 0.427637,0.918482 c 0.720137,1.546714 2.069331,2.65727 3.6989,3.044651 0.44145,0.104945 13.138889,0.169722 29.653197,0.151269 28.856669,-0.03225 28.881942,-0.03263 29.799646,-0.459894 z M 47.846104,85.872682 c -4.61788,-0.699621 -8.5707,-3.930998 -10.087416,-8.246327 -0.765727,-2.17863 -0.834947,-3.805388 -0.756677,-17.782628 0.08158,-14.568487 0.04973,-14.134477 1.223376,-16.667659 1.55471,-3.355668 4.799028,-5.993997 8.522361,-6.930516 1.631578,-0.410386 28.957639,-0.414786 30.616073,-0.0049 4.226673,1.044558 7.709852,4.267093 9.122216,8.439606 l 0.572874,1.692437 v 14.389517 c 0,15.554181 0.01194,15.363886 -1.12042,17.859376 -1.532338,3.376971 -4.42701,5.838028 -8.235583,7.001914 -0.908856,0.277745 -2.958635,0.327806 -14.932749,0.3647 -7.633607,0.02352 -14.349432,-0.02847 -14.924055,-0.115518 z M 75.62891,77.474809 c 1.083269,-0.299888 2.635479,-1.852099 2.935367,-2.935367 0.315139,-1.138361 0.315139,-26.00789 0,-27.146251 -0.308231,-1.113403 -1.853944,-2.640877 -2.978968,-2.943815 -0.60923,-0.164047 -4.678095,-0.214858 -13.980981,-0.174592 -14.41102,0.06238 -13.614016,-0.0075 -14.930802,1.309275 -1.316782,1.316785 -1.246894,0.519781 -1.309273,14.930801 -0.03939,9.100438 0.01227,13.378144 0.168557,13.958574 0.287492,1.06766 1.673834,2.543393 2.745741,2.922784 0.670124,0.237185 3.120744,0.290368 13.67518,0.296788 8.798963,0.0053 13.116516,-0.06354 13.675179,-0.218197 z"
     id="path4799"
     inkscape:label="chip" />
</svg>
