<?xml version="1.0" encoding="UTF-8" standalone="no"?>
<!-- Created with Inkscape (http://www.inkscape.org/) -->

<svg
   width="500"
   height="500"
   viewBox="0 0 132.29166 132.29165"
   version="1.1"
   id="svg5"
   inkscape:version="1.1.1 (3bf5ae0d25, 2021-09-20)"
   sodipodi:docname="combobox.svg"
   xmlns:inkscape="http://www.inkscape.org/namespaces/inkscape"
   xmlns:sodipodi="http://sodipodi.sourceforge.net/DTD/sodipodi-0.dtd"
   xmlns="http://www.w3.org/2000/svg"
   xmlns:svg="http://www.w3.org/2000/svg">
  <sodipodi:namedview
     id="namedview7"
     pagecolor="#505050"
     bordercolor="#eeeeee"
     borderopacity="1"
     inkscape:pageshadow="0"
     inkscape:pageopacity="0"
     inkscape:pagecheckerboard="0"
     inkscape:document-units="mm"
     showgrid="false"
     inkscape:zoom="1.1536234"
     inkscape:cx="194.17082"
     inkscape:cy="197.20474"
     inkscape:window-width="1920"
     inkscape:window-height="1121"
     inkscape:window-x="-7"
     inkscape:window-y="-7"
     inkscape:window-maximized="1"
     inkscape:current-layer="svg5"
     fit-margin-top="50"
     fit-margin-left="50"
     fit-margin-right="50"
     fit-margin-bottom="50"
     lock-margins="true"
     units="px" />
  <defs
     id="defs2" />
  <path
     id="rect27429"
     style="opacity:1;fill:#d9d9d9;fill-opacity:1;stroke:none;stroke-width:10.043;stroke-linecap:round;stroke-linejoin:round;stroke-miterlimit:4;stroke-dasharray:none;stroke-dashoffset:0;stroke-opacity:1;paint-order:normal"
     d="m 32.563995,34.978837 c -3.710416,0.01804 -7.312757,1.375405 -10.041509,4.104162 -5.821347,5.821347 -5.398758,15.61593 0.946726,21.961414 l 31.222774,31.222783 c 0.172178,0.17217 0.347738,0.33796 0.524845,0.50141 0.13751,0.15011 0.275766,0.30003 0.421046,0.44532 2.842866,2.84286 6.634121,4.1919 10.507762,4.09411 3.873937,0.098 7.664695,-1.25105 10.507762,-4.09411 0.145002,-0.14501 0.282949,-0.29467 0.420211,-0.44449 0.177423,-0.16372 0.354042,-0.32977 0.52652,-0.50224 L 108.8229,61.044413 c 6.34549,-6.345484 6.76724,-16.140067 0.9459,-21.961414 -5.82135,-5.821344 -15.615926,-5.399594 -21.961419,0.94589 L 66.145639,61.689796 44.484737,40.028889 C 41.113696,36.657853 36.769139,34.958381 32.563995,34.978837 Z"
     inkscape:label="comboBox" />
</svg>
