<?xml version="1.0" encoding="UTF-8" standalone="no"?>
<!-- Created with Inkscape (http://www.inkscape.org/) -->

<svg
   width="469.08316"
   height="460.84781"
   viewBox="0 0 124.11158 121.93264"
   version="1.1"
   id="svg5"
   inkscape:version="1.1.1 (3bf5ae0d25, 2021-09-20)"
   sodipodi:docname="congrats.svg"
   inkscape:export-filename="C:\Users\leo\Desktop\svgs\combobox.png"
   inkscape:export-xdpi="96"
   inkscape:export-ydpi="96"
   xmlns:inkscape="http://www.inkscape.org/namespaces/inkscape"
   xmlns:sodipodi="http://sodipodi.sourceforge.net/DTD/sodipodi-0.dtd"
   xmlns="http://www.w3.org/2000/svg"
   xmlns:svg="http://www.w3.org/2000/svg">
  <sodipodi:namedview
     id="namedview7"
     pagecolor="#505050"
     bordercolor="#eeeeee"
     borderopacity="1"
     inkscape:pageshadow="0"
     inkscape:pageopacity="0"
     inkscape:pagecheckerboard="0"
     inkscape:document-units="mm"
     showgrid="false"
     inkscape:zoom="0.70710678"
     inkscape:cx="-33.234019"
     inkscape:cy="160.51324"
     inkscape:window-width="1920"
     inkscape:window-height="1121"
     inkscape:window-x="-7"
     inkscape:window-y="-7"
     inkscape:window-maximized="1"
     inkscape:current-layer="svg5"
     fit-margin-top="50"
     fit-margin-left="50"
     fit-margin-right="50"
     fit-margin-bottom="50"
     lock-margins="true"
     units="px"
     showguides="false" />
  <defs
     id="defs2">
    <rect
       x="-190"
       y="50"
       width="409"
       height="109"
       id="rect62070" />
    <rect
       x="-268"
       y="6"
       width="249"
       height="367"
       id="rect60744" />
    <filter
       style="color-interpolation-filters:sRGB"
       inkscape:label="Drop Shadow"
       id="filter41397"
       x="-0.4636397"
       y="-0.4636397"
       width="2.0236785"
       height="2.0043981">
      <feFlood
         flood-opacity="0.498039"
         flood-color="rgb(0,0,0)"
         result="flood"
         id="feFlood41387" />
      <feComposite
         in="flood"
         in2="SourceGraphic"
         operator="in"
         result="composite1"
         id="feComposite41389" />
      <feGaussianBlur
         in="composite1"
         stdDeviation="3"
         result="blur"
         id="feGaussianBlur41391" />
      <feOffset
         dx="1.49701"
         dy="1.1976"
         result="offset"
         id="feOffset41393" />
      <feComposite
         in="SourceGraphic"
         in2="offset"
         operator="over"
         result="composite2"
         id="feComposite41395" />
    </filter>
    <filter
       style="color-interpolation-filters:sRGB"
       inkscape:label="Drop Shadow"
       id="filter48262"
       x="-0.11650321"
       y="-0.11797703"
       width="1.3759789"
       height="1.3795844">
      <feFlood
         flood-opacity="0.211765"
         flood-color="rgb(0,0,0)"
         result="flood"
         id="feFlood48252" />
      <feComposite
         in="flood"
         in2="SourceGraphic"
         operator="in"
         result="composite1"
         id="feComposite48254" />
      <feGaussianBlur
         in="composite1"
         stdDeviation="1"
         result="blur"
         id="feGaussianBlur48256" />
      <feOffset
         dx="0.7"
         dy="0.7"
         result="offset"
         id="feOffset48258" />
      <feComposite
         in="SourceGraphic"
         in2="offset"
         operator="over"
         result="composite2"
         id="feComposite48260" />
    </filter>
    <rect
       x="-268"
       y="6"
       width="249"
       height="367"
       id="rect71674" />
    <rect
       x="-268"
       y="6"
       width="249"
       height="367"
       id="rect72688" />
  </defs>
  <path
     style="fill:#d9d9d9;stroke-width:0.220056;fill-opacity:1"
     d="m 14.393152,110.06379 c -0.242061,-0.10016 -0.66684,-0.42624 -0.943953,-0.7247 -1.03392,-1.11356 -0.959432,-1.4632 2.004252,-9.407991 1.512481,-4.054531 2.821041,-7.549878 2.907911,-7.767438 0.133962,-0.335499 0.396012,-0.166413 1.725791,1.113569 3.579007,3.44498 8.790612,6.29729 14.771203,8.08428 1.089277,0.32547 2.129041,0.641 2.310588,0.70117 0.410782,0.13616 -21.028292,8.19342 -21.78554,8.18747 -0.302578,-0.002 -0.74819,-0.0863 -0.990252,-0.18636 z M 44.760874,98.16607 C 36.81034,96.729644 31.343813,94.802612 26.936342,91.88266 24.585165,90.325004 23.117544,88.998256 21.800943,87.240193 l -1.091885,-1.458001 0.501013,-1.342686 c 0.275557,-0.738478 1.31907,-3.551741 2.318918,-6.251695 l 1.817905,-4.909006 2.445143,2.389574 c 1.344829,1.314266 3.088808,2.88899 3.875507,3.499387 7.180925,5.571641 17.490103,10.46662 27.727051,13.165294 2.386913,0.629241 2.677942,0.753539 2.200559,0.939853 -1.77171,0.691466 -14.483513,5.333846 -14.551638,5.314292 -0.04515,-0.01296 -1.072335,-0.202468 -2.282642,-0.421135 z M 68.807529,88.811219 C 52.371201,86.570132 35.317195,77.950535 28.077444,68.225038 L 27.4907,67.436834 30.86471,58.322519 c 1.855705,-5.012874 3.694557,-9.878382 4.086334,-10.812238 0.784506,-1.869976 1.642033,-2.792208 3.306997,-3.556525 1.508035,-0.692276 4.557889,-0.611487 7.052973,0.18683 4.052112,1.296497 9.068692,4.221116 13.982883,8.151885 3.057585,2.445704 8.873059,8.291913 11.38219,11.442342 4.075332,5.116934 7.051267,10.136847 8.347384,14.080663 0.398341,1.21207 0.506244,2.032874 0.506244,3.850979 0,2.146446 -0.04606,2.393736 -0.648374,3.481032 -0.894712,1.615136 -1.707933,2.256437 -4.050081,3.193866 -2.22662,0.891187 -2.676406,0.926273 -6.023731,0.469866 z m 5.286803,-5.868439 c 0.712075,-0.712075 -0.09541,-4.141248 -1.72554,-7.327864 C 70.209464,71.393801 66.771246,66.850473 62.148447,62.109548 56.161039,55.969147 50.404096,51.733608 45.157588,49.608917 c -2.146505,-0.869276 -4.445681,-1.205689 -5.014392,-0.733701 -0.873812,0.725201 -0.119195,4.037423 1.730319,7.594832 5.518286,10.61404 18.84439,23.015921 28.130021,26.179085 1.717798,0.585171 3.659865,0.724578 4.090796,0.293647 z m 14.69345,-4.702911 c -0.262308,-0.262309 -0.345801,-0.816399 -0.345801,-2.294868 0,-2.731925 -0.152088,-2.640672 4.401118,-2.640672 4.553207,0 4.40112,-0.09126 4.40112,2.640672 0,2.731924 0.152087,2.640671 -4.40112,2.640671 -3.078878,0 -3.768302,-0.05879 -4.055317,-0.345803 z M 78.539463,67.877446 c -2.781884,-0.545475 -3.029305,-1.088605 -2.176814,-4.778478 0.843738,-3.651995 2.375689,-6.088834 4.514518,-7.181134 0.867899,-0.443237 1.388837,-0.5466 2.723582,-0.540398 1.831097,0.0086 2.945969,0.457554 5.281343,2.127202 l 1.210308,0.865297 0.158966,-1.940196 c 0.29346,-3.581702 0.998315,-5.28527 2.651909,-6.409418 2.745078,-1.866165 5.084924,-1.561803 8.980955,1.168218 l 1.71025,1.198405 0.33155,-1.039232 c 0.18235,-0.571577 0.44693,-1.633381 0.58796,-2.359565 0.4555,-2.345522 1.06273,-2.621096 4.31464,-1.958074 2.92191,0.595739 3.16031,1.152801 2.16789,5.065655 -0.98432,3.880903 -2.23015,5.744873 -4.62908,6.925861 -1.26584,0.623172 -1.57187,0.687437 -2.80294,0.588619 -1.53046,-0.122851 -2.62305,-0.59984 -4.735419,-2.067331 -0.762241,-0.529541 -1.416044,-0.9628 -1.452897,-0.9628 -0.03686,0 -0.132098,0.926011 -0.211655,2.0578 -0.275316,3.916696 -1.144174,5.575866 -3.536719,6.753711 -1.30542,0.642658 -1.583969,0.700046 -2.929121,0.603488 -1.705079,-0.122396 -2.675566,-0.554312 -5.15404,-2.293822 l -1.687023,-1.184032 -0.334277,1.047448 c -0.183853,0.576097 -0.449662,1.6416 -0.590687,2.367785 -0.455322,2.344571 -1.038537,2.602775 -4.393199,1.944991 z M 73.035126,50.718582 c -1.615581,-1.070754 -2.197622,-1.620921 -2.197622,-2.077269 0,-0.559071 2.803997,-4.090853 5.330107,-6.713547 8.21296,-8.526986 18.371822,-13.936857 28.299869,-15.070451 3.23731,-0.36964 3.33943,-0.29459 3.33943,2.454211 0,1.384447 -0.0894,2.020076 -0.31598,2.246657 -0.17986,0.179856 -1.00936,0.382334 -1.92549,0.470002 -8.261192,0.790558 -17.054243,5.27711 -24.537385,12.519914 -1.354466,1.310966 -3.087407,3.188415 -3.850979,4.172112 -1.704941,2.196442 -2.274371,2.798579 -2.646569,2.798579 -0.158406,0 -0.831327,-0.360093 -1.495381,-0.800208 z M 55.93449,46.622545 c -0.465406,-0.505292 -1.161071,-3.298193 -1.161071,-4.661369 0,-0.984536 0.718279,-1.568145 2.310588,-1.877376 0.726185,-0.141025 1.78799,-0.405607 2.359565,-0.587959 l 1.039232,-0.331545 -1.198405,-1.710251 c -2.730021,-3.896031 -3.034382,-6.235876 -1.168218,-8.980954 1.12415,-1.653595 2.827718,-2.35845 6.409418,-2.651909 l 1.940196,-0.158967 -0.865297,-1.210308 c -1.669648,-2.335375 -2.118694,-3.450247 -2.127202,-5.281343 -0.0063,-1.334745 0.09716,-1.855682 0.540398,-2.723581 1.0923,-2.138829 3.529139,-3.67078 7.181134,-4.514519 3.749647,-0.866298 4.232259,-0.628248 4.79706,2.366165 0.190859,1.011873 0.347015,2.108646 0.347015,2.43727 0,0.864936 -0.7941,1.472072 -2.310588,1.766576 -0.726184,0.141028 -1.791686,0.406837 -2.367784,0.59069 l -1.047449,0.334276 1.212955,1.721189 c 0.667126,0.946654 1.459341,2.250453 1.76048,2.89733 1.336007,2.869881 0.16247,6.420999 -2.559635,7.745456 -1.200922,0.584315 -3.421051,1.0104 -5.305679,1.018258 -0.574896,0.0024 -1.045266,0.04913 -1.045266,0.103844 0,0.05471 0.43326,0.723138 0.9628,1.485378 1.457105,2.097416 1.944709,3.207813 2.064623,4.70165 0.09165,1.141794 0.01523,1.555403 -0.499153,2.701603 -1.103918,2.459858 -3.006128,3.747772 -7.050704,4.773761 -2.709108,0.687222 -3.619724,0.697287 -4.219013,0.04663 z M 44.776592,27.186888 c -0.287015,-0.287015 -0.345803,-0.976439 -0.345803,-4.055317 0,-4.553206 -0.09126,-4.401118 2.640672,-4.401118 2.731924,0 2.640671,-0.152088 2.640671,4.401118 0,4.553207 0.09126,4.40112 -2.640671,4.40112 -1.478469,0 -2.03256,-0.0835 -2.294869,-0.345803 z m 51.416003,-7.41709 c -0.756379,-0.763162 -1.368992,-1.577046 -1.368992,-1.818764 0,-0.557612 5.244537,-5.82226 5.800017,-5.82226 0.52719,0 3.22228,2.700504 3.22228,3.228752 0,0.565056 -5.271334,5.793542 -5.84102,5.793542 -0.251871,0 -1.034451,-0.596459 -1.812285,-1.38127 z"
     id="path977"
     inkscape:label="congrats" />
</svg>
