<?xml version="1.0" encoding="UTF-8" standalone="no"?>
<!-- Created with Inkscape (http://www.inkscape.org/) -->

<svg
   width="500mm"
   height="500mm"
   viewBox="0 0 499.99999 500"
   version="1.1"
   id="svg1031"
   inkscape:version="1.1.1 (3bf5ae0d25, 2021-09-20)"
   sodipodi:docname="footer_icons.svg"
   xmlns:inkscape="http://www.inkscape.org/namespaces/inkscape"
   xmlns:sodipodi="http://sodipodi.sourceforge.net/DTD/sodipodi-0.dtd"
   xmlns="http://www.w3.org/2000/svg"
   xmlns:svg="http://www.w3.org/2000/svg">
  <sodipodi:namedview
     id="namedview1033"
     pagecolor="#505050"
     bordercolor="#eeeeee"
     borderopacity="1"
     inkscape:pageshadow="0"
     inkscape:pageopacity="0"
     inkscape:pagecheckerboard="0"
     inkscape:document-units="mm"
     showgrid="false"
     fit-margin-top="50"
     lock-margins="true"
     fit-margin-left="50"
     fit-margin-right="50"
     fit-margin-bottom="50"
     inkscape:zoom="0.26051305"
     inkscape:cx="1606.4455"
     inkscape:cy="489.41887"
     inkscape:window-width="1920"
     inkscape:window-height="1141"
     inkscape:window-x="-7"
     inkscape:window-y="-7"
     inkscape:window-maximized="1"
     inkscape:current-layer="layer7" />
  <defs
     id="defs1028" />
  <g
     inkscape:label="running"
     inkscape:groupmode="layer"
     id="layer1"
     transform="translate(129.90465,89.272399)"
     style="display:none;opacity:1">
    <path
       id="path22015"
       style="display:inline;fill:#ffffff;stroke:#000000;stroke-width:1.00599px;stroke-linecap:butt;stroke-linejoin:miter;stroke-opacity:0"
       d="M 242.28358,-36.256158 A 42.339609,42.339609 0 0 0 199.94364,6.0838074 42.339609,42.339609 0 0 0 242.28358,48.421781 42.339609,42.339609 0 0 0 284.62357,6.0838074 42.339609,42.339609 0 0 0 242.28358,-36.256158 Z M 93.640853,29.569356 c -2.191316,-0.04116 -3.955564,0.399119 -6.601815,3.045392 -4.233932,4.233948 -63.792788,59.27638 -68.30901,64.921658 -4.516225,5.645284 -7.337424,19.757554 2.259506,31.048114 9.596997,11.2906 26.814362,7.62112 34.435488,0 C 63.04615,120.96339 102.84601,79.4718 102.84601,79.4718 h 16.3709 L 10.82747,200.28092 h -68.872906 c 0,0 -26.53235,0.56338 -27.096861,27.66073 -0.56445,27.09739 24.275388,28.79253 24.275388,28.79253 h 95.403908 c 7.33887,0 9.879359,0.84647 14.113326,-3.38737 4.233965,-4.23399 49.678565,-52.50204 49.678565,-52.50204 l 42.90389,44.59755 c 0,0 -11.07323,78.11428 -12.98356,85.2438 -1.91028,7.12951 3.38703,29.91978 23.14558,32.17791 19.75848,2.25812 28.56384,-7.96407 32.17786,-21.45196 3.61411,-13.48784 20.31414,-105.98231 22.01783,-112.34064 1.70367,-6.35839 -0.97047,-9.92737 -3.38736,-14.11334 -2.4169,-4.18601 -57.01716,-56.45326 -57.01716,-56.45326 l 46.85515,-47.98492 c 0,0 24.55613,24.55809 32.74177,32.74376 8.18566,8.18566 23.14544,10.16028 32.17788,1.12786 9.03246,-9.03245 57.8657,-56.733974 64.35776,-63.226048 6.49211,-6.49204 10.72597,-21.451939 -1.69368,-33.871589 -12.41965,-12.419574 -27.38016,-7.621229 -33.30768,-1.693683 -5.92756,5.927544 -32.74271,32.742696 -37.25894,37.258921 -4.51624,4.516226 -7.90396,4.515674 -10.16206,2.257464 -2.25815,-2.258144 -44.03217,-42.340354 -52.50006,-49.114678 -8.4679,-6.774337 -15.807,-6.208837 -15.807,-6.208837 H 98.328857 c -1.905135,0 -3.373246,-0.199671 -4.688071,-0.223984 z"
       inkscape:label="running" />
  </g>
  <g
     inkscape:groupmode="layer"
     id="layer3"
     inkscape:label="refresh"
     style="display:none;opacity:0.45935">
    <path
       style="fill:#ffffff;stroke-width:0.815228"
       d="M 229.51782,454.18053 C 196.249,450.38769 165.2272,437.90099 137.88938,417.29884 127.66831,409.59609 110.38634,392.32026 102.6405,382.06246 70.73747,339.81341 58.716777,291.02114 67.693751,240.21286 79.236859,174.88064 126.52634,120.31605 189.82295,99.295037 c 16.49903,-5.479383 38.9993,-9.49168 53.2277,-9.49168 h 3.87454 l 0.26383,-21.399726 c 0.25837,-20.958691 0.30421,-21.464714 2.22406,-24.553091 3.13011,-5.035279 9.85849,-7.394781 15.31027,-5.368985 2.59138,0.962915 83.68841,81.498835 85.50104,84.909455 0.64348,1.21077 1.16997,3.70524 1.16997,5.54327 0,1.83804 -0.52649,4.33251 -1.16997,5.54327 -1.81263,3.41063 -82.90966,83.94655 -85.50104,84.90946 -5.45178,2.0258 -12.18016,-0.33371 -15.31027,-5.36898 -1.92044,-3.08932 -1.96562,-3.58983 -2.22488,-24.64445 l -0.26462,-21.49108 -7.07243,0.58327 c -14.75015,1.21647 -26.48166,4.48903 -39.4725,11.01105 -10.85969,5.45209 -17.58133,10.3708 -26.70392,19.54118 -20.13408,20.23958 -30.34698,44.79999 -30.35072,72.98873 -0.002,18.5681 3.47334,33.47413 11.37135,48.76612 13.97569,27.05953 40.77146,47.52054 70.04313,53.48433 34.11334,6.95023 66.68676,-1.73163 92.12554,-24.55443 10.55793,-9.47222 16.9863,-17.83389 23.38104,-30.41281 4.724,-9.29243 7.38216,-17.29979 9.83639,-29.63074 2.15532,-10.82917 3.40475,-13.17902 8.29591,-15.60255 3.1312,-1.55148 4.88648,-1.6423 31.7403,-1.6423 27.08426,0 28.5904,0.0797 31.91336,1.68829 5.18799,2.51147 7.24053,6.33868 7.03782,13.12289 -0.33126,11.08673 -4.36945,30.58718 -9.16289,44.24754 -17.22832,49.09745 -53.14398,87.80552 -100.59705,108.41836 -15.48866,6.72801 -28.78036,10.564 -45.36118,13.09124 -10.23705,1.56032 -35.31904,2.23655 -44.42991,1.19786 z"
       id="path9261" />
  </g>
  <g
     inkscape:groupmode="layer"
     id="layer4"
     inkscape:label="settings"
     style="display:none">
    <path
       style="fill:#ffffff;stroke-width:0.853663"
       d="m 244.35733,438.64548 c -7.54983,-1.56967 -16.47623,-8.04677 -19.8961,-14.43684 -1.42935,-2.67076 -3.43575,-9.54862 -3.44666,-11.81495 l -0.01,-1.92074 h -80.08759 c -53.969222,0 -81.739501,-0.30251 -85.152926,-0.92757 -9.869292,-1.80729 -17.256785,-7.59367 -21.572354,-16.89691 -3.181268,-6.858 -3.169008,-16.42189 0.02989,-23.31911 2.742235,-5.91259 8.234389,-11.58239 13.938386,-14.38927 l 4.246054,-2.08942 84.01847,-0.42683 84.01847,-0.42683 1.11027,-4.88923 c 1.5996,-7.04396 4.76927,-12.74051 9.31589,-16.74261 14.36831,-12.64751 37.28546,-7.8772 45.27422,9.42403 l 2.4835,5.3785 0.25749,34.14653 c 0.30842,40.9008 0.12069,42.08664 -8.04518,50.81661 -6.36341,6.80299 -17.4973,10.38275 -26.48259,8.51464 z m 73.8552,-29.0411 c -8.78272,-1.48402 -17.24681,-7.54108 -21.10449,-15.10276 -7.24028,-14.1921 -1.50504,-31.70415 12.86238,-39.27414 l 4.51105,-2.37681 h 66.58576 66.58575 l 4.24605,2.08942 c 5.70399,2.80688 11.19615,8.47668 13.93838,14.38927 3.1989,6.89722 3.21116,16.46111 0.0299,23.31911 -4.31557,9.30324 -11.70307,15.08962 -21.57236,16.89691 -5.89651,1.07978 -119.72603,1.13304 -126.08243,0.059 z m 25.2935,-102.70909 c -4.94133,-1.6278 -7.03645,-2.89261 -11.29719,-6.82003 -4.73319,-4.36289 -7.5833,-9.88971 -8.72343,-16.91605 -1.14484,-7.05544 -1.14484,-59.29454 0,-66.34997 1.15253,-7.10276 3.99838,-12.56066 8.91005,-17.08809 6.20719,-5.72158 10.55664,-7.3498 19.6472,-7.3549 6.67233,-0.004 8.31649,0.3068 12.49893,2.36074 8.42175,4.13581 14.67018,12.68063 15.98072,21.85392 l 0.5646,3.95192 32.8562,0.42683 c 32.01101,0.41585 32.96599,0.4773 37.12452,2.38842 12.19714,5.60542 19.3471,19.24932 16.75436,31.97154 -0.59803,2.93447 -1.98875,6.87198 -3.09048,8.75005 -2.88103,4.91111 -8.72928,10.2829 -13.66388,12.5507 -4.15853,1.91111 -5.11351,1.97256 -37.12452,2.38841 l -32.8562,0.42683 -0.59147,4.13985 c -1.30922,9.16347 -8.26139,18.32803 -16.77836,22.11773 -4.93439,2.19562 -15.32002,2.81331 -20.21105,1.2021 z M 52.406798,277.82089 c -5.591974,-1.77872 -8.374658,-3.55438 -12.527089,-7.99366 -4.883773,-5.22115 -6.244558,-7.81327 -7.634497,-14.54268 -2.040052,-9.87696 1.182854,-19.21504 9.229549,-26.74178 8.319119,-7.78156 -2.929382,-7.15628 128.737589,-7.15628 h 116.09823 l 4.82146,2.26047 c 6.13998,2.87863 11.38104,8.11969 14.25966,14.25966 1.88941,4.03 2.26046,6.01259 2.26046,12.0776 0,6.06501 -0.37105,8.0476 -2.26046,12.07759 -2.87862,6.13998 -8.11968,11.38104 -14.25966,14.25967 l -4.82146,2.26047 -115.24456,0.16255 C 79.787725,278.87323 55.11134,278.6812 52.406798,277.82089 Z M 172.7648,176.53557 c -12.07503,-1.64791 -22.42002,-12.13961 -24.19216,-24.53524 l -0.57599,-4.02889 -47.79493,-0.42683 -47.794922,-0.42683 -4.246054,-2.08943 c -5.703997,-2.80687 -11.196151,-8.47668 -13.938386,-14.38926 -3.198901,-6.89722 -3.211161,-16.46112 -0.02989,-23.31911 4.315569,-9.303244 11.703062,-15.089622 21.572354,-16.896904 3.219665,-0.589591 20.984131,-0.927577 48.753318,-0.927577 h 43.68799 l 0.49859,-4.209933 c 1.31206,-11.078222 10.13333,-20.62009 21.79915,-23.579875 12.38059,-3.141135 25.85052,2.712587 31.92533,13.874017 3.7363,6.864804 4.20424,12.491317 3.89415,46.822822 -0.26957,29.84372 -0.38281,31.78486 -2.10027,36.00133 -5.24272,12.87115 -17.64127,20.01734 -31.45828,18.13171 z m 66.47184,-30.7631 c -12.65285,-4.8815 -20.50358,-19.94005 -17.38253,-33.34156 2.69334,-11.56495 11.45832,-19.787055 23.45833,-22.005375 7.00905,-1.295697 191.90786,-1.297982 198.98251,-0.0025 9.86929,1.807282 17.25679,7.593661 21.57236,16.896895 3.18126,6.85799 3.169,16.42189 -0.0299,23.31911 -2.74223,5.91259 -8.23439,11.58239 -13.93839,14.38926 l -4.24606,2.08945 -102.01278,0.17433 c -99.91897,0.17075 -102.10291,0.13957 -106.40356,-1.51964 z"
       id="path9957" />
  </g>
  <g
     inkscape:groupmode="layer"
     id="layer5"
     inkscape:label="team_dns"
     style="display:none">
    <path
       id="path10145"
       style="display:inline;fill:#cc5950;fill-opacity:1;stroke-width:1.68533"
       d="m 71.087445,72.752982 c -9.959458,9.172277 -13.44052,22.608637 -8.821979,36.246298 6.486717,19.1538 17.509182,24.47318 52.089994,25.14163 110.17145,2.12949 205.50074,71.25874 240.08923,174.10344 8.06109,23.96864 12.36262,49.46722 13.10491,77.67764 0.70864,26.93069 2.55753,33.70543 11.65264,42.69754 9.90566,9.79351 30.81548,11.86509 43.25079,4.28473 7.24082,-4.4139 8.46981,-5.74063 13.034,-14.06541 3.38709,-6.17784 4.20251,-11.62469 4.25998,-28.46815 C 440.04802,302.17145 406.03535,220.53033 343.04314,158.25138 280.00108,95.923039 196.58324,62.016179 107.5063,62.5117 c -16.853731,0.09392 -21.585106,0.861476 -28.508581,4.623103 -2.9683,1.61273 -5.61198,3.501533 -7.910274,5.618179 z M 83.04781,189.38648 c -12.786128,12.20852 -15.29804,32.85887 -2.733905,47.52722 8.711769,10.17084 17.852809,13.66042 33.640865,12.83998 62.33733,-3.23922 112.06202,27.72934 129.7983,80.83929 6.33068,18.9569 7.79751,32.0048 6.49255,57.75048 -0.7308,14.41773 2.50784,22.61262 12.30258,31.13701 9.89851,8.61481 21.20231,11.15698 33.25071,7.47674 10.65725,-3.25537 20.28083,-12.61369 24.07792,-23.41294 3.73155,-10.61285 3.58661,-49.86022 -0.25499,-68.81346 -16.19899,-79.9246 -74.38636,-137.46135 -155.00949,-153.27857 -18.70254,-3.66924 -53.13704,-4.15601 -65.532286,-0.92596 -6.367559,1.65931 -11.77044,4.79091 -16.032489,8.8604 z m 15.859904,126.08248 a 60.287157,59.604524 0 0 0 9.4e-4,84.29288 60.287157,59.604524 0 0 0 85.257286,-4e-5 60.287157,59.604524 0 0 0 9.6e-4,-84.29281 60.287157,59.604524 0 0 0 -85.259186,-3e-5 z" />
  </g>
  <g
     inkscape:groupmode="layer"
     id="layer6"
     inkscape:label="task_manager"
     style="display:none">
    <path
       id="path11553"
       style="color:#000000;display:inline;fill:#ffffff;stroke-width:1;stroke-linecap:round;stroke-linejoin:round;stroke-dashoffset:186.406;-inkscape-stroke:none;paint-order:markers fill stroke"
       d="m 251.30166,33.073451 c -10.96471,0 -20.85189,0.08035 -28.16055,0.214457 -3.65432,0.06705 -6.62812,0.14326 -8.99997,0.246496 -1.18592,0.05162 -2.15314,0.09772 -3.43131,0.212907 -0.63908,0.0576 -1.23244,0.08469 -2.81637,0.372587 -0.79197,0.143949 -1.68254,0.213437 -4.2385,1.144633 -1.27799,0.465597 -2.99345,0.962371 -6.20892,3.306776 -3.21546,2.344404 -10.2831,8.788389 -10.2831,20.220471 0,11.432077 7.06764,17.874517 10.2831,20.218919 3.21547,2.344404 4.93093,2.841177 6.20892,3.306775 2.55596,0.931196 3.44653,1.000684 4.2385,1.144633 1.58393,0.287898 2.17729,0.315508 2.81637,0.373105 1.27817,0.115191 2.24539,0.161287 3.43131,0.212907 1.67245,0.07279 3.76409,0.130297 6.06268,0.182933 v 7.244004 c -29.64616,4.944366 -56.99389,16.827866 -80.31138,33.920406 l -4.48913,-4.48913 c 1.58816,-1.66255 3.02676,-3.18217 4.15789,-4.41626 0.80208,-0.87506 1.45297,-1.59133 2.27531,-2.57659 0.41117,-0.49262 0.81164,-0.93209 1.72806,-2.25568 0.45823,-0.6618 1.03858,-1.34019 2.18747,-3.80597 0.57445,-1.2329 1.43612,-2.79735 2.05207,-6.72879 0.61593,-3.931411 1.05829,-13.484487 -7.02541,-21.56819 -8.0837,-8.0837 -17.63781,-7.642889 -21.56923,-7.02696 -3.93143,0.615944 -5.49589,1.477624 -6.72879,2.05207 -2.46579,1.148875 -3.14417,1.729239 -3.80597,2.187465 -1.32359,0.916435 -1.76305,1.317406 -2.25567,1.728576 -0.98526,0.822349 -1.70152,1.473758 -2.57659,2.275829 -1.75016,1.604161 -3.906687,3.652706 -6.538082,6.189287 -5.2628,5.073179 -12.310644,12.007331 -20.063864,19.760553 -7.753221,7.75322 -14.687897,14.80158 -19.761068,20.06441 -2.536581,2.6314 -4.585134,4.78795 -6.189286,6.5381 -0.802069,0.87507 -1.453476,1.59134 -2.27583,2.57659 -0.411168,0.49263 -0.811625,0.93158 -1.72806,2.25516 -0.458218,0.6618 -1.039098,1.34069 -2.18798,3.80648 -0.574447,1.2329 -1.436134,2.79736 -2.052071,6.72879 -0.615929,3.93141 -1.05674,13.48553 7.02696,21.56923 8.083704,8.0837 17.636779,7.64134 21.568193,7.02541 3.931425,-0.61593 5.495885,-1.47762 6.728788,-2.05207 2.46579,-1.14889 3.144174,-1.72925 3.805971,-2.18747 1.323583,-0.91643 1.763048,-1.3169 2.255676,-1.72806 0.985255,-0.82235 1.701511,-1.47324 2.576586,-2.27531 1.23407,-1.13112 2.753699,-2.56977 4.416269,-4.15789 l 4.962459,4.96249 c -21.473594,30.66326 -34.103315,67.93543 -34.103315,108.06368 0,104.09496 84.922904,189.01534 189.017864,189.01534 104.09497,0 189.01741,-84.92038 189.01741,-189.01534 0,-93.50605 -68.52894,-171.52757 -157.92008,-186.436156 V 84.23105 c 2.29859,-0.05264 4.39023,-0.110141 6.06269,-0.182933 1.18591,-0.05162 2.15312,-0.09772 3.4313,-0.212907 0.63907,-0.0576 1.23296,-0.08521 2.81688,-0.373105 0.79198,-0.143949 1.68204,-0.213437 4.23799,-1.144633 1.27799,-0.465598 2.99345,-0.962371 6.20893,-3.306775 3.21545,-2.344402 10.28308,-8.786842 10.28308,-20.218919 0,-11.432082 -7.06763,-17.876067 -10.28308,-20.220471 -3.21548,-2.344405 -4.93094,-2.841179 -6.20893,-3.306776 -2.55595,-0.931196 -3.44601,-1.000684 -4.23799,-1.144633 -1.58392,-0.287897 -2.17781,-0.314991 -2.81688,-0.372587 -1.27818,-0.115193 -2.24539,-0.161289 -3.4313,-0.212907 -2.37186,-0.103236 -5.34565,-0.179444 -8.99997,-0.246496 -7.30866,-0.134103 -17.19533,-0.214457 -28.16005,-0.214457 z m 0,105.819899 c 77.07299,0 139.01735,61.94489 139.01735,139.01786 0,77.07299 -61.94436,139.01581 -139.01735,139.01581 -77.07298,0 -139.01786,-61.94282 -139.01786,-139.01581 0,-77.07297 61.94488,-139.01786 139.01786,-139.01786 z m 44.80192,37.1352 a 25.00245,25.00245 0 0 0 -21.65088,12.49898 l -35.51307,61.51045 h -68.8728 a 25.00245,25.00245 0 0 0 -25.00002,25.00003 v 1.43558 a 25.00245,25.00245 0 0 0 25.00002,25.00001 h 85.46093 a 25.00245,25.00245 0 0 0 0.80977,-0.80976 25.00245,25.00245 0 0 0 19.93056,-12.40907 l 42.72917,-74.00943 a 25.00245,25.00245 0 0 0 -9.15035,-34.15089 l -1.24333,-0.71779 a 25.00245,25.00245 0 0 0 -12.5,-3.34811 z" />
    <path
       id="path12402"
       style="color:#000000;display:none;fill:#ffffff;stroke-width:3.77953;stroke-linecap:round;stroke-linejoin:round;stroke-dashoffset:186.406;-inkscape-stroke:none;paint-order:markers fill stroke"
       d="m 949.80078,125.00195 c -41.44142,0 -78.81031,0.30369 -106.43359,0.81055 -13.81161,0.25342 -25.05116,0.54146 -34.01563,0.93164 -4.48221,0.1951 -8.13787,0.36934 -12.96875,0.80469 -2.41542,0.2177 -4.65802,0.32009 -10.64453,1.4082 -2.99327,0.54406 -6.35921,0.80669 -16.01953,4.32617 -4.8302,1.75974 -11.31384,3.63731 -23.4668,12.49805 -12.15292,8.86074 -38.86523,33.21596 -38.86523,76.42383 0,43.20785 26.71231,67.55723 38.86523,76.41797 12.15296,8.86074 18.6366,10.7383 23.4668,12.49804 9.66032,3.51948 13.02626,3.78212 16.01953,4.32618 5.98651,1.08811 8.22911,1.19246 10.64453,1.41015 4.83088,0.43537 8.48654,0.60959 12.96875,0.80469 6.32107,0.27511 14.22648,0.49247 22.91406,0.69141 v 27.3789 c -112.04847,18.68737 -215.40996,63.6014 -303.53906,128.20313 l -16.96679,-16.9668 c 6.00249,-6.28365 11.4397,-12.02713 15.71484,-16.69141 3.03148,-3.30731 5.49155,-6.01446 8.59961,-9.73828 1.55403,-1.86187 3.06761,-3.52284 6.53125,-8.52539 1.73189,-2.50129 3.92532,-5.06528 8.26758,-14.38476 2.17115,-4.65978 5.42786,-10.57266 7.75586,-25.43164 2.32792,-14.85888 3.99983,-50.965 -26.55274,-81.51758 -30.55257,-30.55257 -66.66257,-28.88652 -81.52148,-26.5586 -14.85895,2.32798 -20.77186,5.58473 -25.43164,7.75586 -9.31952,4.34221 -11.88348,6.5357 -14.38477,8.26758 -5.00254,3.46369 -6.66352,4.97918 -8.52539,6.5332 -3.72382,3.1081 -6.43093,5.57012 -9.73828,8.60157 -6.61478,6.06297 -14.76551,13.8055 -24.71094,23.39258 -19.8909,19.17421 -46.52852,45.38203 -75.83203,74.68554 -29.30351,29.30351 -55.51331,55.94298 -74.6875,75.83399 -9.58708,9.94545 -17.32964,18.09619 -23.39258,24.71093 -3.03144,3.30735 -5.49345,6.01451 -8.60156,9.73828 -1.55402,1.86191 -3.06756,3.52094 -6.53125,8.52344 -1.73185,2.50129 -3.9273,5.0672 -8.26953,14.38672 -2.17114,4.65978 -5.42791,10.57269 -7.75586,25.43164 -2.32792,14.85887 -3.99397,50.96892 26.55859,81.52149 30.55259,30.55256 66.65869,28.88066 81.51758,26.55273 14.85893,-2.32792 20.77185,-5.58471 25.43164,-7.75586 9.31952,-4.34226 11.88349,-6.53572 14.38477,-8.26758 5.00252,-3.46367 6.66349,-4.97726 8.52539,-6.53125 3.7238,-3.10809 6.43091,-5.56816 9.73828,-8.59961 4.6642,-4.2751 10.40768,-9.7125 16.69141,-15.71484 l 18.75586,18.75586 C 283.13683,757.836 235.4043,898.70722 235.4043,1050.373 c 0,393.4298 320.96671,714.3887 714.39648,714.3887 393.42982,0 714.39652,-320.9589 714.39652,-714.3887 0,-57.85874 -6.9824,-114.13279 -20.0762,-168.06441 a 477.94019,477.94019 0 0 1 -179.7129,61.00391 c 7.0839,34.54377 10.8125,70.3459 10.8125,107.0605 0,291.2995 -234.1204,525.4141 -525.41992,525.4141 -291.29945,0 -525.42187,-234.1146 -525.42187,-525.4141 0,-284.31032 223.0352,-514.11299 504.56836,-524.97847 a 477.94019,477.94019 0 0 1 -3.60157,-55.82226 477.94019,477.94019 0 0 1 145.8516,-343.34961 c -5.106,-0.13064 -8.8886,-0.29867 -14.9649,-0.41016 -27.6233,-0.50685 -64.99016,-0.81055 -106.43162,-0.81055 z M 1016.1055,749.25586 903.07812,945.02539 H 642.77148 a 94.497449,94.497449 0 0 0 -94.48828,94.48831 v 5.4258 a 94.497449,94.497449 0 0 0 94.48828,94.4882 h 323.00196 a 94.497449,94.497449 0 0 0 3.06054,-3.0605 94.497449,94.497449 0 0 0 75.32812,-46.9004 l 119.252,-206.55274 a 477.94019,477.94019 0 0 1 -147.3086,-133.6582 z"
       transform="scale(0.26458333)" />
    <circle
       style="display:none;fill:#90ee6e;fill-opacity:1;stroke:none;stroke-width:42.9529;stroke-linecap:round;stroke-linejoin:round;stroke-miterlimit:4;stroke-dasharray:none;stroke-dashoffset:186.406;stroke-opacity:1;paint-order:markers fill stroke"
       id="circle12317"
       cx="371.28601"
       cy="124.24076"
       r="91.92379" />
  </g>
  <g
     inkscape:groupmode="layer"
     id="layer2"
     inkscape:label="wall"
     style="display:none">
    <path
       style="color:#000000;display:inline;fill:#ffffff;stroke-width:0.310107;stroke-linecap:round;stroke-linejoin:round;stroke-dashoffset:186.406;-inkscape-stroke:none;paint-order:markers fill stroke"
       d="M 84.032934,61.139153 A 29.304396,29.304396 0 0 0 54.731383,90.440706 V 347.74357 a 29.304396,29.304396 0 0 0 29.301551,29.30155 h 86.124576 l 51.1369,79.13626 a 29.304396,29.304396 0 0 0 49.22113,0 l 51.13629,-79.13626 h 96.56769 a 29.304396,29.304396 0 0 0 29.30156,-29.30155 V 90.440706 A 29.304396,29.304396 0 0 0 418.21952,61.139153 Z m 29.301556,58.603097 h 275.58347 v 198.69979 h -83.21852 a 29.304396,29.304396 0 0 0 -24.61056,13.39882 l -35.18391,54.44935 -35.18451,-54.44935 a 29.304396,29.304396 0 0 0 -24.61057,-13.39882 h -72.7754 z"
       id="rect1356" />
  </g>
  <g
     inkscape:groupmode="layer"
     id="g7863"
     inkscape:label="wall notif"
     style="display:none">
    <path
       id="path7859"
       style="color:#000000;display:inline;fill:#ffffff;stroke-width:1.17206;stroke-linecap:round;stroke-linejoin:round;stroke-dashoffset:186.406;-inkscape-stroke:none;paint-order:markers fill stroke"
       d="m 317.60547,231.07617 a 110.75677,110.75677 0 0 0 -110.74609,110.7461 v 972.48433 a 110.75677,110.75677 0 0 0 110.74609,110.7461 h 325.50976 l 193.27344,299.0977 a 110.75677,110.75677 0 0 0 186.03323,0 l 193.2695,-299.0977 h 364.9805 A 110.75677,110.75677 0 0 0 1691.418,1314.3066 V 850.23438 a 477.71421,477.71421 0 0 1 -221.4922,92.22851 v 261.09761 h -314.5254 a 110.75677,110.75677 0 0 0 -93.0176,50.6407 L 929.4043,1459.9941 796.42383,1254.2012 A 110.75677,110.75677 0 0 0 703.4082,1203.5605 H 428.35156 V 452.56836 h 497.85742 a 477.71421,477.71421 0 0 1 63.17188,-221.49219 z"
       transform="scale(0.26458333)" />
    <circle
       style="fill:#f0605b;fill-opacity:1;stroke:none;stroke-width:42.9529;stroke-linecap:round;stroke-linejoin:round;stroke-miterlimit:4;stroke-dasharray:none;stroke-dashoffset:186.406;stroke-opacity:1;paint-order:markers fill stroke"
       id="circle8069"
       cx="371.28601"
       cy="124.24076"
       r="91.92379" />
  </g>
  <g
     inkscape:groupmode="layer"
     id="layer7"
     inkscape:label="console">
    <path
       id="path13062"
       style="color:#000000;display:none;fill:#ffffff;stroke-width:52.7761;stroke-linecap:round;stroke-linejoin:round;stroke-dashoffset:186.406;-inkscape-stroke:none;paint-order:markers fill stroke"
       d="M 64.005524,51.468217 C 49.432361,51.469617 37.618831,63.283161 37.617419,77.856324 V 422.14367 c 0.0014,14.57317 11.814941,26.3867 26.388105,26.38811 H 435.99503 c 14.57295,-0.002 26.38615,-11.81515 26.38756,-26.38811 V 77.856324 c -10e-4,-14.57295 -11.81461,-26.386392 -26.38756,-26.388107 z M 90.39363,171.61598 h 319.21329 v 224.1396 H 90.39363 Z m 67.02682,39.41218 c -2.635,-0.0987 -5.26991,0.19804 -7.81695,0.88037 -4.47419,1.19913 -8.55396,3.55478 -11.82931,6.8302 l -0.75819,0.75655 c -10.30385,10.30579 -10.30385,27.01272 0,37.31852 l 31.37085,31.37083 -32.12958,32.12959 c -10.30384,10.30579 -10.30384,27.01271 0,37.3185 l 0.75873,0.75656 c 10.30579,10.30384 27.01272,10.30384 37.31851,0 l 50.78857,-50.78694 0.006,-0.006 0.75655,-0.75873 c 10.29818,-10.30676 10.29549,-27.00905 -0.006,-37.31249 l -50.78694,-50.78626 c -4.7074,-4.70712 -11.01984,-7.4613 -17.67224,-7.71057 z m 109.03081,96.91019 c -14.57317,10e-4 -26.3867,11.81493 -26.38812,26.3881 v 1.07239 c 0.001,14.57316 11.81496,26.38667 26.38812,26.38808 h 71.82518 c 14.57315,-0.001 26.38668,-11.81493 26.38811,-26.38808 v -1.07239 c -0.001,-14.57317 -11.81495,-26.38669 -26.38811,-26.3881 z"
       sodipodi:nodetypes="cccccccccccccccccccccccccccccccccccccccc" />
    <path
       id="path13631"
       style="color:#000000;display:inline;fill:#ffffff;stroke-width:199.469;stroke-linecap:round;stroke-linejoin:round;stroke-dashoffset:186.406;-inkscape-stroke:none;paint-order:markers fill stroke"
       d="m 241.91016,194.52539 c -55.07967,0.005 -99.72904,44.6547 -99.73438,99.73438 V 1595.5039 c 0.005,55.0797 44.6547,99.7291 99.73438,99.7344 H 1647.8555 c 55.0788,-0.01 99.7271,-44.6555 99.7324,-99.7344 V 891.64258 a 516.32599,516.32599 0 0 1 -199.4668,70.29687 V 1495.7695 H 341.64453 V 648.62695 H 1003.6172 A 516.32599,516.32599 0 0 1 963.73047,450.37891 516.32599,516.32599 0 0 1 1031.6855,194.52539 Z m 345.60156,603.06055 c -7.45361,0.27894 -14.86208,1.39396 -22.08203,3.32812 -16.91033,4.53215 -32.32971,13.43492 -44.70899,25.81446 l -2.86523,2.85937 c -38.94369,38.95102 -38.94369,102.09582 0,141.04688 l 118.56641,118.56643 -121.4336,121.4355 c -38.94365,38.951 -38.94365,102.0959 0,141.0469 l 2.86719,2.8594 c 38.95102,38.9436 102.09586,38.9436 141.04687,0 l 191.95704,-191.9512 0.0215,-0.023 2.85937,-2.8672 c 38.92226,-38.9547 38.91329,-102.0813 -0.0215,-141.0235 L 661.76758,826.73047 c -17.79175,-17.79069 -41.65004,-28.20046 -66.79297,-29.14258 v -0.002 c -2.48976,-0.0933 -4.97835,-0.093 -7.46289,0 z m 419.54878,366.27536 c -55.07965,0 -99.72896,44.6547 -99.73433,99.7344 v 4.0527 c 0.004,55.0797 44.65472,99.7291 99.73433,99.7344 h 271.4649 c 55.0796,-0 99.729,-44.6547 99.7344,-99.7344 v -4.0527 c -0,-55.0797 -44.6547,-99.729 -99.7344,-99.7344 z"
       transform="scale(0.26458333)" />
    <circle
       style="display:inline;fill:#89abff;fill-opacity:1;stroke:none;stroke-width:42.9529;stroke-linecap:round;stroke-linejoin:round;stroke-miterlimit:4;stroke-dasharray:none;stroke-dashoffset:186.406;stroke-opacity:1;paint-order:markers fill stroke"
       id="circle13189"
       cx="391.59848"
       cy="119.16264"
       r="91.92379" />
  </g>
</svg>
