<?xml version="1.0" encoding="UTF-8" standalone="no"?>
<!-- Created with Inkscape (http://www.inkscape.org/) -->

<svg
   width="500mm"
   height="500mm"
   viewBox="0 0 499.99999 500"
   version="1.1"
   id="svg1031"
   inkscape:version="1.1.1 (3bf5ae0d25, 2021-09-20)"
   sodipodi:docname="console.svg"
   xmlns:inkscape="http://www.inkscape.org/namespaces/inkscape"
   xmlns:sodipodi="http://sodipodi.sourceforge.net/DTD/sodipodi-0.dtd"
   xmlns="http://www.w3.org/2000/svg"
   xmlns:svg="http://www.w3.org/2000/svg">
  <sodipodi:namedview
     id="namedview1033"
     pagecolor="#505050"
     bordercolor="#eeeeee"
     borderopacity="1"
     inkscape:pageshadow="0"
     inkscape:pageopacity="0"
     inkscape:pagecheckerboard="0"
     inkscape:document-units="mm"
     showgrid="false"
     fit-margin-top="50"
     lock-margins="true"
     fit-margin-left="50"
     fit-margin-right="50"
     fit-margin-bottom="50"
     inkscape:zoom="0.13025653"
     inkscape:cx="710.13714"
     inkscape:cy="871.35747"
     inkscape:window-width="1920"
     inkscape:window-height="1121"
     inkscape:window-x="-7"
     inkscape:window-y="-7"
     inkscape:window-maximized="1"
     inkscape:current-layer="svg1031" />
  <defs
     id="defs1028" />
  <path
     id="path13062"
     style="color:#000000;display:inline;fill:#d9d9d9;stroke-width:52.7761;stroke-linecap:round;stroke-linejoin:round;stroke-dashoffset:186.406;-inkscape-stroke:none;paint-order:markers fill stroke;fill-opacity:1"
     d="M 64.005524,51.468217 C 49.432361,51.469617 37.618831,63.283161 37.617419,77.856324 V 422.14367 c 0.0014,14.57317 11.814941,26.3867 26.388105,26.38811 H 435.99503 c 14.57295,-0.002 26.38615,-11.81515 26.38756,-26.38811 V 77.856324 c -10e-4,-14.57295 -11.81461,-26.386392 -26.38756,-26.388107 z M 90.39363,171.61598 h 319.21329 v 224.1396 H 90.39363 Z m 67.02682,39.41218 c -2.635,-0.0987 -5.26991,0.19804 -7.81695,0.88037 -4.47419,1.19913 -8.55396,3.55478 -11.82931,6.8302 l -0.75819,0.75655 c -10.30385,10.30579 -10.30385,27.01272 0,37.31852 l 31.37085,31.37083 -32.12958,32.12959 c -10.30384,10.30579 -10.30384,27.01271 0,37.3185 l 0.75873,0.75656 c 10.30579,10.30384 27.01272,10.30384 37.31851,0 l 50.78857,-50.78694 0.006,-0.006 0.75655,-0.75873 c 10.29818,-10.30676 10.29549,-27.00905 -0.006,-37.31249 l -50.78694,-50.78626 c -4.7074,-4.70712 -11.01984,-7.4613 -17.67224,-7.71057 z m 109.03081,96.91019 c -14.57317,10e-4 -26.3867,11.81493 -26.38812,26.3881 v 1.07239 c 0.001,14.57316 11.81496,26.38667 26.38812,26.38808 h 71.82518 c 14.57315,-0.001 26.38668,-11.81493 26.38811,-26.38808 v -1.07239 c -0.001,-14.57317 -11.81495,-26.38669 -26.38811,-26.3881 z"
     sodipodi:nodetypes="cccccccccccccccccccccccccccccccccccccccc"
     inkscape:label="console" />
</svg>
