<?xml version="1.0" encoding="UTF-8" standalone="no"?>
<!-- Created with Inkscape (http://www.inkscape.org/) -->

<svg
   width="500mm"
   height="500mm"
   viewBox="0 0 499.99999 500"
   version="1.1"
   id="svg1031"
   inkscape:version="1.1.1 (3bf5ae0d25, 2021-09-20)"
   sodipodi:docname="console_error.svg"
   xmlns:inkscape="http://www.inkscape.org/namespaces/inkscape"
   xmlns:sodipodi="http://sodipodi.sourceforge.net/DTD/sodipodi-0.dtd"
   xmlns="http://www.w3.org/2000/svg"
   xmlns:svg="http://www.w3.org/2000/svg">
  <sodipodi:namedview
     id="namedview1033"
     pagecolor="#505050"
     bordercolor="#eeeeee"
     borderopacity="1"
     inkscape:pageshadow="0"
     inkscape:pageopacity="0"
     inkscape:pagecheckerboard="0"
     inkscape:document-units="mm"
     showgrid="false"
     fit-margin-top="50"
     lock-margins="true"
     fit-margin-left="50"
     fit-margin-right="50"
     fit-margin-bottom="50"
     inkscape:zoom="0.26051305"
     inkscape:cx="1579.5754"
     inkscape:cy="489.41886"
     inkscape:window-width="1920"
     inkscape:window-height="1121"
     inkscape:window-x="-7"
     inkscape:window-y="-7"
     inkscape:window-maximized="1"
     inkscape:current-layer="layer7" />
  <defs
     id="defs1028" />
  <g
     inkscape:groupmode="layer"
     id="layer7"
     inkscape:label="console">
    <path
       id="path13631"
       style="color:#000000;display:inline;fill:#d9d9d9;stroke-width:199.469;stroke-linecap:round;stroke-linejoin:round;stroke-dashoffset:186.406;-inkscape-stroke:none;paint-order:markers fill stroke;fill-opacity:1"
       d="m 241.91016,194.52539 c -55.07967,0.005 -99.72904,44.6547 -99.73438,99.73438 V 1595.5039 c 0.005,55.0797 44.6547,99.7291 99.73438,99.7344 H 1647.8555 c 55.0788,-0.01 99.7271,-44.6555 99.7324,-99.7344 V 891.64258 a 516.32599,516.32599 0 0 1 -199.4668,70.29687 V 1495.7695 H 341.64453 V 648.62695 H 1003.6172 A 516.32599,516.32599 0 0 1 963.73047,450.37891 516.32599,516.32599 0 0 1 1031.6855,194.52539 Z m 345.60156,603.06055 c -7.45361,0.27894 -14.86208,1.39396 -22.08203,3.32812 -16.91033,4.53215 -32.32971,13.43492 -44.70899,25.81446 l -2.86523,2.85937 c -38.94369,38.95102 -38.94369,102.09582 0,141.04688 l 118.56641,118.56643 -121.4336,121.4355 c -38.94365,38.951 -38.94365,102.0959 0,141.0469 l 2.86719,2.8594 c 38.95102,38.9436 102.09586,38.9436 141.04687,0 l 191.95704,-191.9512 0.0215,-0.023 2.85937,-2.8672 c 38.92226,-38.9547 38.91329,-102.0813 -0.0215,-141.0235 L 661.76758,826.73047 c -17.79175,-17.79069 -41.65004,-28.20046 -66.79297,-29.14258 v -0.002 c -2.48976,-0.0933 -4.97835,-0.093 -7.46289,0 z m 419.54878,366.27536 c -55.07965,0 -99.72896,44.6547 -99.73433,99.7344 v 4.0527 c 0.004,55.0797 44.65472,99.7291 99.73433,99.7344 h 271.4649 c 55.0796,0 99.729,-44.6547 99.7344,-99.7344 v -4.0527 c 0,-55.0797 -44.6547,-99.729 -99.7344,-99.7344 z"
       transform="scale(0.26458333)" />
    <circle
       style="display:inline;fill:#fd6463;fill-opacity:1;stroke:none;stroke-width:42.9529;stroke-linecap:round;stroke-linejoin:round;stroke-miterlimit:4;stroke-dasharray:none;stroke-dashoffset:186.406;stroke-opacity:1;paint-order:markers fill stroke"
       id="circle13189"
       cx="391.59848"
       cy="119.16264"
       r="91.92379" />
  </g>
</svg>
