<?xml version="1.0" encoding="UTF-8" standalone="no"?>
<!-- Created with Inkscape (http://www.inkscape.org/) -->

<svg
   width="545.90491mm"
   height="521.29297mm"
   viewBox="0 0 545.9049 521.29297"
   version="1.1"
   id="svg1031"
   inkscape:version="1.1.1 (3bf5ae0d25, 2021-09-20)"
   sodipodi:docname="create.svg"
   xmlns:inkscape="http://www.inkscape.org/namespaces/inkscape"
   xmlns:sodipodi="http://sodipodi.sourceforge.net/DTD/sodipodi-0.dtd"
   xmlns="http://www.w3.org/2000/svg"
   xmlns:svg="http://www.w3.org/2000/svg">
  <sodipodi:namedview
     id="namedview1033"
     pagecolor="#505050"
     bordercolor="#eeeeee"
     borderopacity="1"
     inkscape:pageshadow="0"
     inkscape:pageopacity="0"
     inkscape:pagecheckerboard="0"
     inkscape:document-units="mm"
     showgrid="false"
     fit-margin-top="50"
     lock-margins="true"
     fit-margin-left="50"
     fit-margin-right="50"
     fit-margin-bottom="50"
     inkscape:zoom="0.26051305"
     inkscape:cx="1322.3906"
     inkscape:cy="1483.6109"
     inkscape:window-width="1920"
     inkscape:window-height="1121"
     inkscape:window-x="-7"
     inkscape:window-y="-7"
     inkscape:window-maximized="1"
     inkscape:current-layer="svg1031" />
  <defs
     id="defs1028">
    <filter
       style="color-interpolation-filters:sRGB"
       inkscape:label="Drop Shadow"
       id="filter24645"
       x="-0.15275694"
       y="-0.15275694"
       width="1.3356634"
       height="1.30943">
      <feFlood
         flood-opacity="0.211765"
         flood-color="rgb(0,0,0)"
         result="flood"
         id="feFlood24635" />
      <feComposite
         in="flood"
         in2="SourceGraphic"
         operator="in"
         result="composite1"
         id="feComposite24637" />
      <feGaussianBlur
         in="composite1"
         stdDeviation="11.3772"
         result="blur"
         id="feGaussianBlur24639" />
      <feOffset
         dx="5.38922"
         dy="0.7"
         result="offset"
         id="feOffset24641" />
      <feComposite
         in="SourceGraphic"
         in2="offset"
         operator="over"
         result="composite2"
         id="feComposite24643" />
    </filter>
  </defs>
  <path
     style="fill:#d9d9d9;stroke-width:0.855662;fill-opacity:1"
     d="M 252.8444,478.75342 C 200.42053,473.33549 155.48163,452.04311 118.45881,415.08056 99.613631,396.26606 87.791937,379.83871 76.568357,356.86985 66.010359,335.2631 59.944997,316.04897 56.310213,292.69521 c -2.670003,-17.15498 -2.670003,-47.01967 0,-64.17464 7.419357,-47.66994 28.054313,-88.31204 62.148597,-122.40632 18.8587,-18.858706 35.2951,-30.682647 58.23168,-41.890457 21.60675,-10.557998 40.82089,-16.623361 64.17464,-20.258145 17.17451,-2.673043 47.03076,-2.67057 64.17465,0.0053 23.71346,3.701293 42.60505,9.659623 64.17464,20.240424 23.05616,11.310022 39.39888,23.070059 58.23168,41.902858 18.8328,18.83279 30.59283,35.17551 41.90286,58.23167 10.47703,21.35806 16.60493,40.78219 20.24574,64.17465 2.67,17.15497 2.67,47.01966 0,64.17463 -7.40057,47.54922 -28.14066,88.39839 -62.1486,122.40633 -18.8328,18.83279 -35.17552,30.59282 -58.23168,41.90286 -21.31003,10.45347 -41.21544,16.73172 -63.91062,20.15768 -13.18627,1.99052 -40.5617,2.82097 -52.4594,1.59135 z m 37.0411,-54.76353 c 19.50236,-2.12436 36.62703,-7.00994 54.0869,-15.43065 33.24275,-16.03267 58.89381,-41.34518 75.78973,-74.78947 37.13866,-73.51337 13.22456,-163.55685 -55.68168,-209.65761 -62.06504,-41.523741 -143.30502,-35.981794 -200.01981,13.64475 -34.58588,30.26333 -55.39527,76.41263 -55.39527,122.85097 0,53.36522 25.7681,102.72283 70.23893,134.53946 10.04337,7.18551 30.83961,17.65992 42.72834,21.52089 21.83362,7.09066 46.28944,9.7141 68.25286,7.32166 z m -24.20617,-41.30631 c -8.07964,-2.66421 -13.0031,-6.65413 -16.75934,-13.58157 l -2.92088,-5.38686 -0.25514,-37.82921 -0.25513,-37.82921 -37.39399,-0.24775 c -36.60343,-0.2425 -37.48135,-0.28806 -41.52641,-2.15496 -6.43703,-2.97085 -10.31059,-6.53364 -13.46654,-12.38615 -2.65236,-4.91863 -2.90484,-6.01904 -2.90484,-12.65999 0,-6.64224 0.25219,-7.74081 2.9075,-12.66498 3.22727,-5.98482 5.88917,-8.5633 12.37039,-11.98268 l 4.37024,-2.30568 37.82185,-0.25511 37.82185,-0.25511 0.25511,-37.82184 0.25511,-37.82185 2.92354,-5.39186 c 3.25787,-6.00842 5.94568,-8.60109 12.38643,-11.948 3.71362,-1.92976 5.46303,-2.27378 11.64338,-2.28963 6.65906,-0.0171 7.72794,0.2266 12.65998,2.88619 5.85251,3.15595 9.4153,7.0295 12.38615,13.46654 1.86689,4.04505 1.91245,4.92297 2.15497,41.52641 l 0.24773,37.39399 37.82922,0.25514 37.82921,0.25513 5.38685,2.92088 c 9.35326,5.07157 14.24988,13.31806 14.27005,24.03246 0.0209,11.06282 -5.66197,19.98907 -15.73243,24.71167 l -4.78014,2.24169 -37.40136,0.24776 -37.40136,0.24777 -0.24776,37.40136 -0.24777,37.40136 -2.24167,4.78014 c -2.84728,6.07152 -7.46189,10.69004 -13.39499,13.40629 -5.56115,2.54598 -13.66906,3.26024 -18.58981,1.63766 z"
     id="path1125"
     inkscape:label="create" />
</svg>
