<?xml version="1.0" encoding="UTF-8" standalone="no"?>
<!-- Created with Inkscape (http://www.inkscape.org/) -->

<svg
   width="500"
   height="500"
   viewBox="0 0 132.29167 132.29167"
   version="1.1"
   id="svg5"
   inkscape:version="1.1.1 (3bf5ae0d25, 2021-09-20)"
   sodipodi:docname="custom.svg"
   xmlns:inkscape="http://www.inkscape.org/namespaces/inkscape"
   xmlns:sodipodi="http://sodipodi.sourceforge.net/DTD/sodipodi-0.dtd"
   xmlns="http://www.w3.org/2000/svg"
   xmlns:svg="http://www.w3.org/2000/svg">
  <sodipodi:namedview
     id="namedview7"
     pagecolor="#505050"
     bordercolor="#eeeeee"
     borderopacity="1"
     inkscape:pageshadow="0"
     inkscape:pageopacity="0"
     inkscape:pagecheckerboard="0"
     inkscape:document-units="mm"
     showgrid="false"
     units="px"
     inkscape:zoom="1"
     inkscape:cx="166"
     inkscape:cy="204.5"
     inkscape:window-width="1920"
     inkscape:window-height="1121"
     inkscape:window-x="-7"
     inkscape:window-y="-7"
     inkscape:window-maximized="1"
     inkscape:current-layer="layer16" />
  <defs
     id="defs2" />
  <g
     inkscape:groupmode="layer"
     id="layer16"
     inkscape:label="custom">
    <path
       id="path888"
       style="display:inline;fill:#e2cc46;fill-opacity:1;stroke-width:0.80589"
       d="m 435.35547,179.85938 -185.55664,0.20312 -185.556642,0.20312 v 126.92774 126.92773 l 1.794921,3.35547 c 1.904527,3.56198 5.320627,6.44939 8.916016,7.53321 1.200574,0.3617 79.890905,0.68838 174.869145,0.72656 154.14678,0.062 173.00914,-0.0643 175.67382,-1.17774 3.98227,-1.6639 6.53342,-4.12018 8.33399,-8.02148 1.42613,-3.09018 1.49074,-8.46648 1.50586,-129.95117 z m -185.88086,49.96874 c 71.05841,0 68.24045,-0.18004 73.27539,4.64258 3.78168,3.62223 4.61523,8.31368 4.61523,25.98047 0,21.25501 -1.27172,25.20763 -9.42968,29.32227 -2.31058,1.16538 -9.40117,1.30135 -68.09766,1.30078 -65.3635,-6.4e-4 -65.52518,-0.005 -69.00781,-1.72852 -2.04356,-1.01153 -4.38378,-3.07438 -5.64258,-4.97656 l -2.15039,-3.25 V 260.45117 239.7832 l 2.16406,-3.26758 c 1.30299,-1.96895 3.56621,-3.94878 5.69336,-4.97851 3.50899,-1.69883 3.94027,-1.70899 68.58008,-1.70899 z"
       transform="scale(0.26458333)" />
    <path
       style="fill:#ffeb73;fill-opacity:1;stroke-width:0.213225"
       d="m 43.341554,14.354075 c -19.582818,0.0028 -28.423771,0.06069 -28.839584,0.180868 -1.063957,0.307499 -2.066039,1.187986 -2.54093,2.233455 -0.365098,0.803764 -0.391442,1.690397 -0.395841,13.17594 l -0.0052,12.313459 H 66.145845 120.73167 V 30.039423 17.82053 l -0.54054,-1.083654 c -0.33749,-0.677256 -0.87016,-1.31302 -1.42058,-1.694471 l -0.88109,-0.610298 -51.298681,-0.06305 c -9.000492,-0.011 -16.721621,-0.01593 -23.249225,-0.01499 z"
       id="path2343" />
  </g>
</svg>
