<?xml version="1.0" encoding="UTF-8" standalone="no"?>
<!-- Created with Inkscape (http://www.inkscape.org/) -->

<svg
   width="500"
   height="500"
   viewBox="0 0 132.29167 132.29167"
   version="1.1"
   id="svg5"
   inkscape:version="1.1.1 (3bf5ae0d25, 2021-09-20)"
   sodipodi:docname="custom.svg"
   xmlns:inkscape="http://www.inkscape.org/namespaces/inkscape"
   xmlns:sodipodi="http://sodipodi.sourceforge.net/DTD/sodipodi-0.dtd"
   xmlns="http://www.w3.org/2000/svg"
   xmlns:svg="http://www.w3.org/2000/svg">
  <sodipodi:namedview
     id="namedview7"
     pagecolor="#505050"
     bordercolor="#eeeeee"
     borderopacity="1"
     inkscape:pageshadow="0"
     inkscape:pageopacity="0"
     inkscape:pagecheckerboard="0"
     inkscape:document-units="mm"
     showgrid="false"
     units="px"
     inkscape:zoom="1"
     inkscape:cx="190"
     inkscape:cy="204.5"
     inkscape:window-width="1920"
     inkscape:window-height="1121"
     inkscape:window-x="-7"
     inkscape:window-y="-7"
     inkscape:window-maximized="1"
     inkscape:current-layer="layer16" />
  <defs
     id="defs2" />
  <g
     inkscape:groupmode="layer"
     id="layer16"
     inkscape:label="custom">
    <path
       style="fill:#e2cc46;fill-opacity:1;stroke-width:0.216076"
       d="m 58.65913,121.22972 c -1.319706,-0.39041 -1.894344,-1.37898 -2.693658,-4.63399 -0.584899,-2.38187 -0.815261,-3.00341 -1.162616,-3.13688 -0.238253,-0.0915 -1.794469,-0.60274 -3.458257,-1.13599 -1.663788,-0.53325 -3.70087,-1.27656 -4.526848,-1.6518 l -1.501778,-0.68226 7.580802,-7.5808 7.580801,-7.580798 2.488433,0.268049 c 5.357467,0.577097 11.817154,-0.64165 16.689559,-3.148812 4.809316,-2.474697 9.35434,-6.876922 11.943226,-11.567988 C 97.935188,68.896685 95.881789,54.566715 86.582566,45.371691 76.80392,35.702612 61.562068,34.25487 50.048141,41.90148 41.068443,47.865063 36.256701,57.898361 37.206368,68.678761 l 0.270715,3.073125 -7.423953,7.514617 c -4.083175,4.133042 -7.50237,7.547157 -7.598212,7.586924 -0.279441,0.115946 -1.437892,-2.636476 -2.485897,-5.906366 -0.533246,-1.663788 -1.044443,-3.220004 -1.135992,-3.458257 -0.133472,-0.347355 -0.755014,-0.577717 -3.136875,-1.162616 -3.325222,-0.816557 -4.247458,-1.372184 -4.643344,-2.797519 -0.285581,-1.028193 -0.291275,-13.717031 -0.0066,-14.741719 0.403762,-1.453425 1.194609,-1.935692 4.594244,-2.801629 l 3.076629,-0.783662 0.268026,-0.848147 c 1.919689,-6.074723 2.959614,-8.592908 5.347259,-12.948426 l 0.592253,-1.080382 -1.506839,-2.525926 c -1.73483,-2.908114 -1.965887,-3.767802 -1.352866,-5.033566 0.589824,-1.217864 9.783661,-10.349478 10.881572,-10.807925 1.167731,-0.487602 1.783836,-0.303863 4.844959,1.444893 l 2.65256,1.515353 1.885044,-1.066097 c 3.527246,-1.994854 5.403087,-2.753654 12.024477,-4.864044 l 0.848147,-0.270325 0.783662,-3.076629 c 0.873653,-3.429931 1.351741,-4.20036 2.85826,-4.606023 0.504711,-0.135905 3.521438,-0.197033 7.827593,-0.158611 6.687605,0.05967 7.03353,0.08278 7.602723,0.508018 1.067856,0.797777 1.399706,1.492431 2.066643,4.32606 0.361312,1.53511 0.729262,2.869339 0.817667,2.964953 0.08841,0.09561 1.002083,0.405322 2.030392,0.688238 3.569474,0.982061 7.88435,2.820653 11.914051,5.076642 l 0.864306,0.483873 2.525926,-1.50633 c 2.791614,-1.664771 3.713748,-1.935358 4.903106,-1.438746 1.083636,0.452467 10.264016,9.616445 10.853936,10.834544 0.60467,1.248556 0.45308,1.803874 -1.3577,4.973626 l -1.51262,2.647808 0.96218,1.673719 c 1.84332,3.206459 3.60744,7.435153 4.58681,10.994852 0.28291,1.028309 0.59262,1.941213 0.68823,2.028672 0.0956,0.08746 1.4379,0.461893 2.98284,0.832075 2.86378,0.686185 3.52051,0.999345 4.30818,2.054335 0.43002,0.575965 0.4455,0.858465 0.4455,8.127687 0,7.269222 -0.0155,7.551722 -0.4455,8.127687 -0.78767,1.05499 -1.4444,1.36815 -4.30818,2.054335 -1.54494,0.370182 -2.88722,0.744614 -2.98284,0.832075 -0.0956,0.08746 -0.40532,1.000363 -0.68823,2.028672 -0.97937,3.559699 -2.74349,7.788393 -4.58681,10.994852 l -0.96218,1.673719 1.51262,2.647808 c 1.74596,3.056288 1.92964,3.672752 1.44215,4.84021 -0.45844,1.097912 -9.59006,10.291752 -10.807926,10.881572 -1.265637,0.61296 -2.125247,0.38201 -5.033566,-1.35236 l -2.525926,-1.50633 -0.864306,0.48387 c -4.029701,2.25599 -8.344577,4.09459 -11.914051,5.07665 -1.028309,0.28291 -1.941986,0.59262 -2.030392,0.68823 -0.08841,0.0956 -0.456355,1.42985 -0.817667,2.96496 -0.666941,2.83364 -0.998794,3.5283 -2.06666,4.32606 -0.57162,0.42703 -0.893534,0.44711 -7.765398,0.48421 -3.942981,0.0213 -7.47519,-0.0519 -7.849352,-0.16255 z"
       id="path6305" />
    <path
       style="fill:#ffeb73;fill-opacity:1;stroke-width:0.216076"
       d="m 18.763533,121.23672 c -2.794697,-0.46987 -5.656566,-2.66106 -6.874314,-5.26333 -1.298896,-2.77568 -1.320693,-5.51058 -0.06682,-8.38372 0.555007,-1.27175 1.663246,-2.43341 16.781437,-17.590433 l 16.18719,-16.228759 -0.438032,-1.489503 c -1.810236,-6.155586 -0.67091,-13.249356 3.032889,-18.883651 1.330436,-2.023888 4.093414,-4.7239 6.303369,-6.159723 5.323383,-3.45864 11.362709,-4.516312 17.821504,-3.121098 1.458597,0.315083 2.557216,1.237232 2.774532,2.328865 0.160152,0.804467 0.153806,1.014001 -0.06002,1.9822 -0.07026,0.318114 -1.873605,2.31681 -4.386545,4.861718 -2.346983,2.37684 -4.468477,4.661848 -4.714432,5.077795 -0.688106,1.163692 -1.001853,3.041117 -0.724411,4.33479 0.689057,3.21296 3.173392,5.255841 6.391595,5.255841 2.492912,0 3.010776,-0.343535 8.081265,-5.360887 2.832126,-2.802445 4.679265,-4.467722 5.062265,-4.563848 0.331671,-0.08324 1.055775,-0.100322 1.609118,-0.03795 2.257128,0.254411 3.171403,2.614667 3.157317,8.150805 -0.011,4.324842 -0.762294,7.383461 -2.706821,11.019895 -1.67024,3.123492 -4.138241,5.915181 -6.863666,7.763861 -5.496916,3.728614 -13.287489,4.880973 -19.545447,2.891111 L 58.535121,87.486705 42.299394,103.68086 c -15.10191,15.06323 -16.329848,16.23521 -17.58345,16.78213 -2.06507,0.90097 -3.830628,1.13046 -5.952411,0.77373 z"
       id="path6203" />
  </g>
</svg>
