<?xml version="1.0" encoding="UTF-8" standalone="no"?>
<!-- Created with Inkscape (http://www.inkscape.org/) -->

<svg
   width="469.08316"
   height="460.84781"
   viewBox="0 0 124.11158 121.93264"
   version="1.1"
   id="svg5"
   inkscape:version="1.1.1 (3bf5ae0d25, 2021-09-20)"
   sodipodi:docname="destination.svg"
   inkscape:export-filename="C:\Users\leo\Desktop\svgs\combobox.png"
   inkscape:export-xdpi="96"
   inkscape:export-ydpi="96"
   xmlns:inkscape="http://www.inkscape.org/namespaces/inkscape"
   xmlns:sodipodi="http://sodipodi.sourceforge.net/DTD/sodipodi-0.dtd"
   xmlns="http://www.w3.org/2000/svg"
   xmlns:svg="http://www.w3.org/2000/svg">
  <sodipodi:namedview
     id="namedview7"
     pagecolor="#505050"
     bordercolor="#eeeeee"
     borderopacity="1"
     inkscape:pageshadow="0"
     inkscape:pageopacity="0"
     inkscape:pagecheckerboard="0"
     inkscape:document-units="mm"
     showgrid="false"
     inkscape:zoom="0.70710678"
     inkscape:cx="102.53048"
     inkscape:cy="160.51324"
     inkscape:window-width="1920"
     inkscape:window-height="1121"
     inkscape:window-x="-7"
     inkscape:window-y="-7"
     inkscape:window-maximized="1"
     inkscape:current-layer="layer28"
     fit-margin-top="50"
     fit-margin-left="50"
     fit-margin-right="50"
     fit-margin-bottom="50"
     lock-margins="true"
     units="px"
     showguides="false" />
  <defs
     id="defs2">
    <rect
       x="-190"
       y="50"
       width="409"
       height="109"
       id="rect62070" />
    <rect
       x="-268"
       y="6"
       width="249"
       height="367"
       id="rect60744" />
    <filter
       style="color-interpolation-filters:sRGB"
       inkscape:label="Drop Shadow"
       id="filter41397"
       x="-0.4636397"
       y="-0.4636397"
       width="2.0236785"
       height="2.0043981">
      <feFlood
         flood-opacity="0.498039"
         flood-color="rgb(0,0,0)"
         result="flood"
         id="feFlood41387" />
      <feComposite
         in="flood"
         in2="SourceGraphic"
         operator="in"
         result="composite1"
         id="feComposite41389" />
      <feGaussianBlur
         in="composite1"
         stdDeviation="3"
         result="blur"
         id="feGaussianBlur41391" />
      <feOffset
         dx="1.49701"
         dy="1.1976"
         result="offset"
         id="feOffset41393" />
      <feComposite
         in="SourceGraphic"
         in2="offset"
         operator="over"
         result="composite2"
         id="feComposite41395" />
    </filter>
    <filter
       style="color-interpolation-filters:sRGB"
       inkscape:label="Drop Shadow"
       id="filter48262"
       x="-0.11650321"
       y="-0.11797703"
       width="1.3759789"
       height="1.3795844">
      <feFlood
         flood-opacity="0.211765"
         flood-color="rgb(0,0,0)"
         result="flood"
         id="feFlood48252" />
      <feComposite
         in="flood"
         in2="SourceGraphic"
         operator="in"
         result="composite1"
         id="feComposite48254" />
      <feGaussianBlur
         in="composite1"
         stdDeviation="1"
         result="blur"
         id="feGaussianBlur48256" />
      <feOffset
         dx="0.7"
         dy="0.7"
         result="offset"
         id="feOffset48258" />
      <feComposite
         in="SourceGraphic"
         in2="offset"
         operator="over"
         result="composite2"
         id="feComposite48260" />
    </filter>
    <rect
       x="-268"
       y="6"
       width="249"
       height="367"
       id="rect71674" />
    <rect
       x="-268"
       y="6"
       width="249"
       height="367"
       id="rect72688" />
  </defs>
  <g
     inkscape:groupmode="layer"
     id="layer28"
     inkscape:label="destination">
    <path
       id="path985"
       style="color:#000000;fill:#d9d9d9;stroke-width:3.77953;stroke-linecap:round;-inkscape-stroke:none;fill-opacity:1"
       d="m 375.19141,82.574219 c -64.79071,0 -104.1495,38.098981 -133.08789,70.134761 -14.4692,16.0179 -27.22824,30.71159 -39.86914,40.48243 -12.64091,9.77083 -24.10976,14.97851 -40.42383,14.97851 a 22.253858,22.253858 0 0 0 -22.24805,22.25586 22.253858,22.253858 0 0 0 22.24805,22.24805 c 16.31407,0 27.78292,5.20768 40.42383,14.97851 12.6409,9.77084 25.39994,24.47235 39.86914,40.49024 28.93839,32.03578 68.29718,70.13476 133.08789,70.13476 a 22.253858,22.253858 0 0 0 22.25781,-22.25586 22.253858,22.253858 0 0 0 -22.25781,-22.25586 c -48.31649,0 -72.27187,-24.69793 -100.06055,-55.46093 -7.5707,-8.38102 -15.16649,-17.15187 -23.39063,-25.63086 h 127.61524 a 22.253858,22.253858 0 0 0 22.25586,-22.24805 22.253858,22.253858 0 0 0 -22.25586,-22.25586 H 251.74023 c 8.22414,-8.47899 15.81993,-17.24984 23.39063,-25.63086 27.78868,-30.763 51.74406,-55.45898 100.06055,-55.45898 a 22.253858,22.253858 0 0 0 22.25781,-22.25781 22.253858,22.253858 0 0 0 -22.25781,-22.248051 z"
       transform="scale(0.26458333)" />
    <circle
       style="opacity:0.5;fill:#ffffff;stroke:#ffffff;stroke-width:9.31204;stroke-linecap:round;stroke-linejoin:round;stroke-miterlimit:4;stroke-dasharray:none;stroke-dashoffset:187.087;stroke-opacity:1;paint-order:markers fill stroke"
       id="path2454"
       cx="25.339733"
       cy="60.966324"
       r="2.8310354" />
  </g>
</svg>
