<?xml version="1.0" encoding="UTF-8" standalone="no"?>
<!-- Created with Inkscape (http://www.inkscape.org/) -->

<svg
   width="524.76526mm"
   height="497.06363mm"
   viewBox="0 0 524.76525 497.06363"
   version="1.1"
   id="svg1031"
   inkscape:version="1.1.1 (3bf5ae0d25, 2021-09-20)"
   sodipodi:docname="documentation.svg"
   xmlns:inkscape="http://www.inkscape.org/namespaces/inkscape"
   xmlns:sodipodi="http://sodipodi.sourceforge.net/DTD/sodipodi-0.dtd"
   xmlns="http://www.w3.org/2000/svg"
   xmlns:svg="http://www.w3.org/2000/svg">
  <sodipodi:namedview
     id="namedview1033"
     pagecolor="#505050"
     bordercolor="#eeeeee"
     borderopacity="1"
     inkscape:pageshadow="0"
     inkscape:pageopacity="0"
     inkscape:pagecheckerboard="0"
     inkscape:document-units="mm"
     showgrid="false"
     fit-margin-top="50"
     lock-margins="true"
     fit-margin-left="50"
     fit-margin-right="50"
     fit-margin-bottom="50"
     inkscape:zoom="0.26051305"
     inkscape:cx="1322.3906"
     inkscape:cy="1395.3236"
     inkscape:window-width="1920"
     inkscape:window-height="1121"
     inkscape:window-x="-7"
     inkscape:window-y="-7"
     inkscape:window-maximized="1"
     inkscape:current-layer="svg1031" />
  <defs
     id="defs1028">
    <filter
       style="color-interpolation-filters:sRGB"
       inkscape:label="Drop Shadow"
       id="filter24645"
       x="-0.15275694"
       y="-0.15275694"
       width="1.3356634"
       height="1.30943">
      <feFlood
         flood-opacity="0.211765"
         flood-color="rgb(0,0,0)"
         result="flood"
         id="feFlood24635" />
      <feComposite
         in="flood"
         in2="SourceGraphic"
         operator="in"
         result="composite1"
         id="feComposite24637" />
      <feGaussianBlur
         in="composite1"
         stdDeviation="11.3772"
         result="blur"
         id="feGaussianBlur24639" />
      <feOffset
         dx="5.38922"
         dy="0.7"
         result="offset"
         id="feOffset24641" />
      <feComposite
         in="SourceGraphic"
         in2="offset"
         operator="over"
         result="composite2"
         id="feComposite24643" />
    </filter>
  </defs>
  <path
     style="fill:#d9d9d9;stroke-width:0.978037;fill-opacity:1"
     d="m 108.85983,455.848 c -4.32352,-1.74587 -8.80342,-5.79629 -11.041219,-9.98279 L 95.627055,441.7652 V 248.60259 55.439969 l 2.445102,-4.35772 c 1.344792,-2.396753 4.353353,-5.697638 6.685673,-7.335308 l 4.24059,-2.97755 88.67309,-0.291656 c 63.94357,-0.210332 89.76409,0.01849 92.5852,0.817376 3.32225,0.941762 13.767,10.940452 69.26713,66.309169 37.31348,37.22514 66.26876,66.8788 67.48466,69.11238 l 2.1297,3.91214 v 102.20504 102.20499 l -2.21199,8.31334 c -4.24731,15.96277 -12.01896,29.32944 -23.3495,40.15959 -10.81274,10.33519 -18.8346,15.13741 -33.60983,20.12028 l -8.31334,2.80364 -125.18894,0.19406 c -81.43667,0.12605 -126.03323,-0.14712 -127.60477,-0.78167 z m 245.81402,-41.45703 c 15.41764,-3.26651 27.34466,-14.80069 31.39846,-30.36424 1.29189,-4.95981 1.49922,-17.63227 1.49922,-91.61789 v -85.8619 l -54.52563,-0.0222 c -50.62538,-0.0185 -54.80607,-0.14898 -58.44618,-1.80259 -4.93077,-2.23997 -9.8451,-7.76753 -11.18025,-12.5753 -0.65809,-2.36974 -1.02789,-22.89391 -1.03137,-57.24197 l -0.004,-53.547539 h -62.594 -62.59446 v 167.244589 167.2446 l 105.38364,-0.0185 c 88.42126,-0.0147 106.46414,-0.24582 112.09649,-1.4392 z m -141.1831,-41.88604 c -5.04846,-1.60774 -11.12632,-8.16474 -12.66626,-13.66476 -2.69879,-9.63913 1.5378,-19.66215 10.19372,-24.11664 l 4.85539,-2.49867 h 46.50903 46.50903 l 4.85539,2.49867 c 8.65592,4.45449 12.89251,14.47751 10.19372,24.11664 -1.62289,5.79633 -7.686,12.08342 -13.25869,13.74852 -5.37235,1.60521 -92.12247,1.53043 -97.19133,-0.0839 z m -18.26002,-82.76687 c -16.2182,-3.95044 -21.48867,-24.47924 -9.1472,-35.62898 2.08222,-1.88113 5.46739,-3.88719 7.52265,-4.45791 5.15547,-1.43158 132.39743,-1.43158 137.5529,0 2.05526,0.57072 5.44043,2.57678 7.52265,4.45791 10.54747,9.52901 8.53238,26.60136 -3.96766,33.61503 l -4.35777,2.4451 -66.01758,0.16081 c -36.30969,0.0883 -67.40829,-0.17781 -69.10799,-0.59196 z M 357.25236,164.72899 c 0,-0.40717 -11.88318,-12.61738 -26.40704,-27.13378 l -26.40704,-26.39344 v 27.13378 27.13378 h 26.40704 c 14.52386,0 26.40704,-0.33306 26.40704,-0.74034 z"
     id="path1346"
     inkscape:label="documentation" />
</svg>
