<?xml version="1.0" encoding="UTF-8" standalone="no"?>
<!-- Created with Inkscape (http://www.inkscape.org/) -->

<svg
   width="500mm"
   height="500mm"
   viewBox="0 0 499.99999 500"
   version="1.1"
   id="svg1031"
   inkscape:version="1.3.2 (091e20e, 2023-11-25, custom)"
   sodipodi:docname="down_arrow.svg"
   xmlns:inkscape="http://www.inkscape.org/namespaces/inkscape"
   xmlns:sodipodi="http://sodipodi.sourceforge.net/DTD/sodipodi-0.dtd"
   xmlns="http://www.w3.org/2000/svg"
   xmlns:svg="http://www.w3.org/2000/svg">
  <sodipodi:namedview
     id="namedview1033"
     pagecolor="#505050"
     bordercolor="#eeeeee"
     borderopacity="1"
     inkscape:pageshadow="0"
     inkscape:pageopacity="0"
     inkscape:pagecheckerboard="0"
     inkscape:document-units="mm"
     showgrid="false"
     fit-margin-top="50"
     lock-margins="true"
     fit-margin-left="50"
     fit-margin-right="50"
     fit-margin-bottom="50"
     inkscape:zoom="0.26051305"
     inkscape:cx="1015.3042"
     inkscape:cy="946.2098"
     inkscape:window-width="2880"
     inkscape:window-height="1676"
     inkscape:window-x="-12"
     inkscape:window-y="-12"
     inkscape:window-maximized="1"
     inkscape:current-layer="svg1031"
     inkscape:showpageshadow="2"
     inkscape:deskcolor="#d1d1d1" />
  <defs
     id="defs1028" />
  <path
     id="rect15832"
     style="fill:#d9d9d9;fill-opacity:1;stroke:none;stroke-width:49.9999;stroke-linecap:round;stroke-linejoin:round;stroke-miterlimit:4;stroke-dasharray:none;stroke-dashoffset:186.406;stroke-opacity:1;paint-order:markers fill stroke"
     d="m 391.16179,286.72809 c 0,-8.94667 -3.42769,-17.89348 -10.28309,-24.74888 l -1.4919,-1.49138 c -13.7108,-13.7108 -35.78644,-13.7108 -49.49724,0 l -48.34537,48.34588 V 99.783427 c 0,-19.39 -15.60993,-34.99993 -34.99993,-34.99993 h -2.10943 c -19.38999,0 -34.99993,15.60993 -34.99993,34.99993 V 307.81777 l -47.32994,-47.32994 c -13.71079,-13.7108 -35.78693,-13.7108 -49.49775,0 l -1.49137,1.49138 c -13.710787,13.71081 -13.710787,35.78696 0,49.49774 L 218.1708,418.53192 c 7.64236,7.64235 17.88325,11.01931 27.82621,10.14203 9.94296,0.87728 20.18386,-2.49968 27.82621,-10.14203 L 380.8787,311.47695 c 6.8554,-6.85538 10.28309,-15.80218 10.28309,-24.74886 z"
     inkscape:label="view_arrow" />
</svg>
