<?xml version="1.0" encoding="UTF-8" standalone="no"?>
<!-- Created with Inkscape (http://www.inkscape.org/) -->

<svg
   width="500mm"
   height="500mm"
   viewBox="0 0 499.99999 500"
   version="1.1"
   id="svg1031"
   inkscape:version="1.1.1 (3bf5ae0d25, 2021-09-20)"
   sodipodi:docname="dragdrop.svg"
   xmlns:inkscape="http://www.inkscape.org/namespaces/inkscape"
   xmlns:sodipodi="http://sodipodi.sourceforge.net/DTD/sodipodi-0.dtd"
   xmlns="http://www.w3.org/2000/svg"
   xmlns:svg="http://www.w3.org/2000/svg">
  <sodipodi:namedview
     id="namedview1033"
     pagecolor="#505050"
     bordercolor="#eeeeee"
     borderopacity="1"
     inkscape:pageshadow="0"
     inkscape:pageopacity="0"
     inkscape:pagecheckerboard="0"
     inkscape:document-units="mm"
     showgrid="false"
     fit-margin-top="50"
     lock-margins="true"
     fit-margin-left="50"
     fit-margin-right="50"
     fit-margin-bottom="50"
     inkscape:zoom="0.26051305"
     inkscape:cx="1610.284"
     inkscape:cy="489.41886"
     inkscape:window-width="1920"
     inkscape:window-height="1121"
     inkscape:window-x="-7"
     inkscape:window-y="-7"
     inkscape:window-maximized="1"
     inkscape:current-layer="svg1031" />
  <defs
     id="defs1028" />
  <path
     style="fill:#999999;stroke-width:0.676249"
     d="m 201.44276,422.40036 c -10.64002,-2.09387 -19.00891,-10.65635 -21.07775,-21.56534 -0.37479,-1.97622 -0.68143,-9.94214 -0.68143,-17.70204 v -14.10892 h 13.52498 13.52498 v 13.52497 13.52498 h 13.18685 13.18684 v 13.52496 13.52498 l -14.37028,-0.0741 c -7.90366,-0.0408 -15.68604,-0.33302 -17.29419,-0.6495 z m 57.36193,-12.80139 v -13.52496 h 13.52497 13.52498 v 13.52496 13.52498 h -13.52498 -13.52497 z m 54.0999,0 v -13.52496 h 13.52497 13.52497 v 13.52496 13.52498 h -13.52497 -13.52497 z m 54.09989,0.0624 v -13.58732 h 13.18686 13.18684 v -13.52496 -13.52498 h 13.58641 13.58642 l -0.2667,16.39902 c -0.2455,15.09625 -0.38859,16.70805 -1.80117,20.28888 -2.87,7.27529 -8.18758,12.53556 -15.72029,15.55082 -3.2822,1.31383 -5.20158,1.4815 -19.69746,1.72076 l -16.06091,0.2651 z m -187.3209,-79.85971 v -13.52498 l -34.31962,-0.0118 c -27.55841,-0.009 -35.2522,-0.20754 -39.05336,-1.00561 -15.152283,-3.18125 -27.923209,-15.95218 -31.104471,-31.10446 -1.486686,-7.08105 -1.486686,-168.06737 0,-175.14842 3.181262,-15.152281 15.952188,-27.923207 31.104471,-31.104469 7.08105,-1.486686 168.06737,-1.486686 175.14842,0 15.15228,3.181262 27.92321,15.952188 31.10446,31.104469 0.79955,3.80819 0.99617,11.57621 1.00561,39.72961 l 0.0118,34.99587 h 13.18685 13.18685 v 13.52498 13.52497 h -13.18685 -13.18685 l -0.0118,34.31962 c -0.0131,38.38078 -0.16796,40.06563 -4.4882,48.84399 -3.42421,6.9577 -10.87356,14.40704 -17.83126,17.83126 -8.7986,4.3302 -10.39686,4.47507 -49.52023,4.4882 l -34.99585,0.0118 v 13.52498 13.52497 H 193.20858 179.6836 Z m 100.2994,-42.5179 c 1.4198,-0.88267 3.39783,-2.83847 4.39562,-4.34623 l 1.81416,-2.74138 v -83.61549 -83.61549 l -1.81416,-2.74138 c -0.99779,-1.50776 -2.97582,-3.46357 -4.39562,-4.34624 l -2.58146,-1.60484 h -83.5661 -83.5661 l -2.74138,1.81416 c -1.50776,0.99778 -3.46357,2.97581 -4.34624,4.39561 l -1.60484,2.58146 -0.17967,82.05257 c -0.12398,56.62139 0.0443,82.88421 0.54286,84.73583 0.87573,3.25222 5.14241,7.71769 8.23288,8.61645 1.3707,0.39861 33.87614,0.60321 84.72625,0.53328 l 82.50234,-0.11346 z M 177.65484,248.65178 v -13.52497 h 17.40983 17.40984 l -24,-24.00714 -23.99998,-24.00714 9.63297,-9.63296 9.63297,-9.63297 24.00714,23.99998 24.00712,23.99999 v -17.40983 -17.40983 h 13.52498 13.52498 v 40.57492 40.57493 h -40.57492 -40.57493 z m 215.72334,81.14985 v -13.52498 h 13.52498 13.52497 v 13.52498 13.52497 h -13.52497 -13.52498 z m 0,-52.7474 v -13.52497 h 13.52498 13.52497 v 13.52497 13.52497 h -13.52497 -13.52498 z m 0,-52.7474 v -13.52498 h -13.18684 -13.18686 v -13.58732 -13.58732 l 16.06091,0.26884 c 14.73472,0.24664 16.3821,0.39544 19.95075,1.80209 7.27283,2.8667 12.53305,8.1834 15.55205,15.71903 1.31953,3.29365 1.48171,5.18297 1.71987,20.0356 l 0.26295,16.39903 h -13.58642 -13.58641 z"
     id="path14864"
     inkscape:label="dragdrop" />
</svg>
