<?xml version="1.0" encoding="UTF-8" standalone="no"?>
<!-- Created with Inkscape (http://www.inkscape.org/) -->

<svg
   width="472.45312"
   height="472.45312"
   viewBox="0 0 125.00322 125.00321"
   version="1.1"
   id="svg5"
   inkscape:version="1.1.1 (3bf5ae0d25, 2021-09-20)"
   sodipodi:docname="estimated_time.svg"
   inkscape:export-filename="C:\Users\leo\Desktop\svgs\combobox.png"
   inkscape:export-xdpi="96"
   inkscape:export-ydpi="96"
   xmlns:inkscape="http://www.inkscape.org/namespaces/inkscape"
   xmlns:sodipodi="http://sodipodi.sourceforge.net/DTD/sodipodi-0.dtd"
   xmlns="http://www.w3.org/2000/svg"
   xmlns:svg="http://www.w3.org/2000/svg">
  <sodipodi:namedview
     id="namedview7"
     pagecolor="#505050"
     bordercolor="#eeeeee"
     borderopacity="1"
     inkscape:pageshadow="0"
     inkscape:pageopacity="0"
     inkscape:pagecheckerboard="0"
     inkscape:document-units="mm"
     showgrid="false"
     inkscape:zoom="1.0633329"
     inkscape:cx="63.949872"
     inkscape:cy="324.92178"
     inkscape:window-width="1920"
     inkscape:window-height="1121"
     inkscape:window-x="-7"
     inkscape:window-y="-7"
     inkscape:window-maximized="1"
     inkscape:current-layer="svg5"
     fit-margin-top="50"
     fit-margin-left="50"
     fit-margin-right="50"
     fit-margin-bottom="50"
     lock-margins="true"
     units="px"
     showguides="false" />
  <defs
     id="defs2">
    <filter
       style="color-interpolation-filters:sRGB"
       inkscape:label="Drop Shadow"
       id="filter41397"
       x="-0.4636397"
       y="-0.4636397"
       width="2.0236785"
       height="2.0043981">
      <feFlood
         flood-opacity="0.498039"
         flood-color="rgb(0,0,0)"
         result="flood"
         id="feFlood41387" />
      <feComposite
         in="flood"
         in2="SourceGraphic"
         operator="in"
         result="composite1"
         id="feComposite41389" />
      <feGaussianBlur
         in="composite1"
         stdDeviation="3"
         result="blur"
         id="feGaussianBlur41391" />
      <feOffset
         dx="1.49701"
         dy="1.1976"
         result="offset"
         id="feOffset41393" />
      <feComposite
         in="SourceGraphic"
         in2="offset"
         operator="over"
         result="composite2"
         id="feComposite41395" />
    </filter>
    <filter
       style="color-interpolation-filters:sRGB"
       inkscape:label="Drop Shadow"
       id="filter48262"
       x="-0.11650321"
       y="-0.11797703"
       width="1.3759789"
       height="1.3795844">
      <feFlood
         flood-opacity="0.211765"
         flood-color="rgb(0,0,0)"
         result="flood"
         id="feFlood48252" />
      <feComposite
         in="flood"
         in2="SourceGraphic"
         operator="in"
         result="composite1"
         id="feComposite48254" />
      <feGaussianBlur
         in="composite1"
         stdDeviation="1"
         result="blur"
         id="feGaussianBlur48256" />
      <feOffset
         dx="0.7"
         dy="0.7"
         result="offset"
         id="feOffset48258" />
      <feComposite
         in="SourceGraphic"
         in2="offset"
         operator="over"
         result="composite2"
         id="feComposite48260" />
    </filter>
  </defs>
  <path
     id="path50608"
     style="color:#000000;fill:#d9d9d9;stroke-width:1.12343;stroke-linecap:round;stroke-linejoin:round;-inkscape-stroke:none;fill-opacity:1"
     d="m 62.488148,7.1438974 c -30.51325,0 -55.3552772,24.8420296 -55.3552772,55.3552766 0,26.7045 19.0323452,49.047826 44.2365752,54.212706 a 4.9320002,4.8705185 0 0 0 0.09509,0.0238 c 0.541367,0.11056 1.084453,0.21212 1.628841,0.30644 0.18673,0.0321 0.37333,0.0644 0.560689,0.0946 0.796383,0.1296 1.595483,0.24156 2.396752,0.33641 0.04741,0.006 0.09466,0.0117 0.142111,0.0171 2.000924,0.23166 4.014414,0.35511 6.029605,0.36897 a 4.9320002,4.8705185 0 0 0 4.966623,-4.83588 4.9320002,4.8705185 0 0 0 -4.897376,-4.90461 c -0.192778,-10e-4 -0.385488,-0.004 -0.57826,-0.008 v -0.0522 C 36.848314,107.64678 16.919353,87.465214 16.919353,62.499174 c 0,-25.225049 20.343743,-45.568794 45.568795,-45.568794 22.324583,0 40.813972,15.938496 44.773492,37.088692 a 4.9320002,4.9320002 0 0 0 0.0563,0.437182 c 0.51397,2.920439 0.74179,5.894506 0.67903,8.859925 a 4.9320002,4.9320002 0 0 0 4.82606,5.034835 4.9320002,4.9320002 0 0 0 5.03483,-4.826063 c 0.0764,-3.608965 -0.19843,-7.222771 -0.82423,-10.77867 a 4.9320002,4.9320002 0 0 0 -0.21395,-0.797883 C 111.87624,26.462126 89.393362,7.1438974 62.488148,7.1438974 Z m -5.29e-4,22.2937296 c -3.12265,0 -5.63635,2.651437 -5.63635,5.944857 v 27.907855 c 0,1.79673 0.749765,3.401351 1.936832,4.489649 0.03199,0.0334 0.06271,0.06737 0.0956,0.100253 l 19.73368,19.734193 c 2.328799,2.3288 5.981115,2.4256 8.189164,0.21756 2.208048,-2.20805 2.110727,-5.86036 -0.218075,-8.18916 L 68.123966,61.177808 V 35.382484 c 0,-3.29342 -2.513695,-5.944857 -5.636347,-5.944857 z m 46.583721,48.152097 a 4.9320002,4.9320002 0 0 0 -4.59559,2.98638 c -1.16895,2.72203 -2.60908,5.33372 -4.28811,7.78041 a 4.9320002,4.9320002 0 0 0 1.27641,6.85694 4.9320002,4.9320002 0 0 0 6.85694,-1.27692 c 2.04164,-2.97508 3.79348,-6.14842 5.21932,-9.46867 a 4.9320002,4.9320002 0 0 0 -2.5864,-6.47816 4.9320002,4.9320002 0 0 0 -1.88257,-0.39998 z m -18.767848,22.34334 a 4.9320002,4.9320002 0 0 0 -2.748672,0.802526 c -2.479709,1.61989 -5.122976,2.99689 -7.874455,4.10208 a 4.9320002,4.9320002 0 0 0 -2.698541,2.64067 4.9320002,4.9320002 0 0 0 -0.03979,3.77341 4.9320002,4.9320002 0 0 0 6.41356,2.73833 c 3.350562,-1.34582 6.569054,-3.02054 9.594763,-4.99711 a 4.9320002,4.9320002 0 0 0 1.430919,-6.8249 4.9320002,4.9320002 0 0 0 -4.077784,-2.235006 z"
     inkscape:label="estimated_time" />
</svg>
