<?xml version="1.0" encoding="UTF-8" standalone="no"?>
<!-- Created with Inkscape (http://www.inkscape.org/) -->

<svg
   width="500"
   height="500"
   viewBox="0 0 132.29167 132.29167"
   version="1.1"
   id="svg5"
   inkscape:version="1.1.1 (3bf5ae0d25, 2021-09-20)"
   sodipodi:docname="export_icon.svg"
   xmlns:inkscape="http://www.inkscape.org/namespaces/inkscape"
   xmlns:sodipodi="http://sodipodi.sourceforge.net/DTD/sodipodi-0.dtd"
   xmlns="http://www.w3.org/2000/svg"
   xmlns:svg="http://www.w3.org/2000/svg">
  <sodipodi:namedview
     id="namedview7"
     pagecolor="#505050"
     bordercolor="#eeeeee"
     borderopacity="1"
     inkscape:pageshadow="0"
     inkscape:pageopacity="0"
     inkscape:pagecheckerboard="0"
     inkscape:document-units="mm"
     showgrid="false"
     units="px"
     inkscape:zoom="0.64052329"
     inkscape:cx="384.84159"
     inkscape:cy="258.38249"
     inkscape:window-width="1920"
     inkscape:window-height="1121"
     inkscape:window-x="-7"
     inkscape:window-y="-7"
     inkscape:window-maximized="1"
     inkscape:current-layer="svg5" />
  <defs
     id="defs2" />
  <path
     style="fill:#d9d9d9;stroke-width:0.238324;fill-opacity:1"
     d="M 64.460228,126.80122 C 64.001454,126.63124 51.389575,120.37298 36.433831,112.89398 15.804728,102.57787 9.0912959,99.117211 8.618968,98.555881 8.2765383,98.148928 7.9344757,97.470572 7.8588288,97.048426 7.7831818,96.62628 7.7521029,82.392548 7.7897646,65.41791 L 7.8582403,34.554931 8.435026,33.746212 c 0.4864528,-0.68206 2.379561,-1.699833 12.087733,-6.4986 l 11.510948,-5.689882 27.831562,14.364024 27.831565,14.364023 0.119162,14.91762 c 0.12839,16.072703 0.09643,15.705583 1.367049,15.705583 0.718578,0 11.449355,-5.567135 12.038685,-6.245675 0.3879,-0.446632 0.41706,-1.551938 0.41706,-15.808413 v -15.32821 l -0.56333,-0.434365 C 100.76563,42.853417 88.271502,36.384069 73.310729,28.715989 58.349956,21.047909 46.109311,14.713382 46.109296,14.639263 c -1.6e-5,-0.07412 4.341399,-2.260025 9.647589,-4.8575683 8.959372,-4.3858867 9.720196,-4.7140172 10.665006,-4.5996341 0.709238,0.085864 9.533457,4.3723411 29.133987,14.1522104 26.358272,13.151709 28.143032,14.08097 28.539312,14.859456 0.39832,0.782471 0.42272,2.618215 0.42272,31.795336 v 30.96492 l -0.62113,1.059882 c -0.6186,1.055556 -0.68883,1.093436 -17.21892,9.287265 -33.012256,16.36389 -40.166016,19.84255 -40.771412,19.82594 -0.336647,-0.009 -0.987446,-0.15586 -1.44622,-0.32585 z"
     id="path1232"
     inkscape:label="export" />
</svg>
