<?xml version="1.0" encoding="UTF-8" standalone="no"?>
<!-- Created with Inkscape (http://www.inkscape.org/) -->

<svg
   width="469.08316"
   height="460.84781"
   viewBox="0 0 124.11158 121.93264"
   version="1.1"
   id="svg5"
   inkscape:version="1.1.1 (3bf5ae0d25, 2021-09-20)"
   sodipodi:docname="file.svg"
   inkscape:export-filename="C:\Users\leo\Desktop\svgs\combobox.png"
   inkscape:export-xdpi="96"
   inkscape:export-ydpi="96"
   xmlns:inkscape="http://www.inkscape.org/namespaces/inkscape"
   xmlns:sodipodi="http://sodipodi.sourceforge.net/DTD/sodipodi-0.dtd"
   xmlns="http://www.w3.org/2000/svg"
   xmlns:svg="http://www.w3.org/2000/svg">
  <sodipodi:namedview
     id="namedview7"
     pagecolor="#505050"
     bordercolor="#eeeeee"
     borderopacity="1"
     inkscape:pageshadow="0"
     inkscape:pageopacity="0"
     inkscape:pagecheckerboard="0"
     inkscape:document-units="mm"
     showgrid="false"
     inkscape:zoom="0.34177885"
     inkscape:cx="16.092277"
     inkscape:cy="24.869883"
     inkscape:window-width="1920"
     inkscape:window-height="1121"
     inkscape:window-x="-7"
     inkscape:window-y="-7"
     inkscape:window-maximized="1"
     inkscape:current-layer="svg5"
     fit-margin-top="50"
     fit-margin-left="50"
     fit-margin-right="50"
     fit-margin-bottom="50"
     lock-margins="true"
     units="px"
     showguides="false" />
  <defs
     id="defs2">
    <rect
       x="-190"
       y="50"
       width="409"
       height="109"
       id="rect62070" />
    <rect
       x="-268"
       y="6"
       width="249"
       height="367"
       id="rect60744" />
    <filter
       style="color-interpolation-filters:sRGB"
       inkscape:label="Drop Shadow"
       id="filter41397"
       x="-0.4636397"
       y="-0.4636397"
       width="2.0236785"
       height="2.0043981">
      <feFlood
         flood-opacity="0.498039"
         flood-color="rgb(0,0,0)"
         result="flood"
         id="feFlood41387" />
      <feComposite
         in="flood"
         in2="SourceGraphic"
         operator="in"
         result="composite1"
         id="feComposite41389" />
      <feGaussianBlur
         in="composite1"
         stdDeviation="3"
         result="blur"
         id="feGaussianBlur41391" />
      <feOffset
         dx="1.49701"
         dy="1.1976"
         result="offset"
         id="feOffset41393" />
      <feComposite
         in="SourceGraphic"
         in2="offset"
         operator="over"
         result="composite2"
         id="feComposite41395" />
    </filter>
    <filter
       style="color-interpolation-filters:sRGB"
       inkscape:label="Drop Shadow"
       id="filter48262"
       x="-0.11650321"
       y="-0.11797703"
       width="1.3759789"
       height="1.3795844">
      <feFlood
         flood-opacity="0.211765"
         flood-color="rgb(0,0,0)"
         result="flood"
         id="feFlood48252" />
      <feComposite
         in="flood"
         in2="SourceGraphic"
         operator="in"
         result="composite1"
         id="feComposite48254" />
      <feGaussianBlur
         in="composite1"
         stdDeviation="1"
         result="blur"
         id="feGaussianBlur48256" />
      <feOffset
         dx="0.7"
         dy="0.7"
         result="offset"
         id="feOffset48258" />
      <feComposite
         in="SourceGraphic"
         in2="offset"
         operator="over"
         result="composite2"
         id="feComposite48260" />
    </filter>
    <rect
       x="-268"
       y="6"
       width="249"
       height="367"
       id="rect71674" />
    <rect
       x="-268"
       y="6"
       width="249"
       height="367"
       id="rect72688" />
  </defs>
  <path
     id="path3601"
     style="fill:#d9d9d9;stroke-width:0.208438;fill-opacity:1"
     d="m 51.581733,13.674893 -0.0026,9.85254 c -0.0019,7.553125 -0.06728,10.095554 -0.280699,10.894524 -0.875923,3.279092 -3.541362,5.681468 -6.831011,6.157049 -0.730143,0.105555 -5.477877,0.193901 -10.550724,0.196225 l -9.223359,0.004 0.0021,31.526175 0.0021,31.526164 0.488933,1.05013 c 0.606738,1.30296 2.17168,2.71382 3.448378,3.10886 0.811957,0.25123 5.929816,0.2901 33.785809,0.25708 l 32.828914,-0.0388 1.042185,-0.55365 c 1.241896,-0.65989 1.978815,-1.40761 2.638854,-2.67712 l 0.487714,-0.93797 V 60.997745 17.955397 l -0.487714,-0.937969 c -0.660039,-1.26952 -1.396958,-2.017039 -2.638854,-2.676916 l -1.042185,-0.553866 -21.833835,-0.05577 z m -6.963524,0.215968 -9.665068,9.640236 c -5.315755,5.30213 -9.798869,9.893488 -9.962459,10.203057 -0.668988,1.26596 0.0086,2.960772 1.377236,3.444308 0.534027,0.188665 2.977229,0.243021 9.372564,0.208437 9.428165,-0.05097 9.306695,-0.03635 10.7958,-1.291945 0.377609,-0.318396 0.893492,-0.965909 1.146407,-1.438708 0.450684,-0.842516 0.46103,-1.037818 0.520483,-9.810609 0.04403,-6.496956 -0.0064,-9.113041 -0.183808,-9.541512 -0.373927,-0.902735 -1.241152,-1.413264 -2.400696,-1.413264 z m 25.719236,39.421764 c 7.498544,-0.002 13.075151,0.03059 13.545182,0.08671 0.948433,0.113253 1.271665,0.26815 1.928043,0.924534 0.689412,0.689409 0.78857,0.912242 0.78857,1.771108 0,1.125242 -0.523808,2.022186 -1.465171,2.508986 -0.517914,0.267821 -3.470633,0.309211 -21.921563,0.308585 -20.780873,-7.29e-4 -21.340233,-0.01098 -21.990567,-0.407511 -1.729793,-1.054724 -1.736491,-3.400676 -0.01323,-4.629796 l 0.680679,-0.485473 20.426877,-0.06331 c 2.808695,-0.0087 5.521667,-0.01322 8.02118,-0.01384 z m -7.083212,15.188867 c 21.27903,0 21.316865,7.29e-4 22.022723,0.437026 1.887938,1.166808 1.749528,3.810356 -0.250165,4.778389 -0.831967,0.402833 -1.344283,0.412216 -21.7864,0.404255 -16.980162,-0.0066 -21.052239,-0.06056 -21.559441,-0.28599 -2.130527,-0.946922 -2.360579,-3.71551 -0.408936,-4.921691 0.652518,-0.403277 1.115315,-0.411989 21.982219,-0.411989 z m -10.320914,14.17375 c 9.637002,0 10.856679,0.03687 11.512509,0.348075 2.052255,0.973862 2.0398,3.963732 -0.02056,4.941435 -0.629806,0.298862 -1.97434,0.337813 -11.520243,0.333622 -11.962765,-0.0053 -11.732591,0.01929 -12.577698,-1.348127 -0.844952,-1.367162 -0.390163,-3.028668 1.050533,-3.838384 0.760509,-0.427435 1.001082,-0.436621 11.555459,-0.436621 z"
     inkscape:label="file" />
</svg>
