<?xml version="1.0" encoding="UTF-8" standalone="no"?>
<!-- Created with Inkscape (http://www.inkscape.org/) -->

<svg
   width="469.08316"
   height="460.84781"
   viewBox="0 0 124.11158 121.93264"
   version="1.1"
   id="svg5"
   inkscape:version="1.2.1 (9c6d41e410, 2022-07-14)"
   sodipodi:docname="filter_icon.svg"
   inkscape:export-filename="C:\Users\leo\Desktop\svgs\combobox.png"
   inkscape:export-xdpi="96"
   inkscape:export-ydpi="96"
   xml:space="preserve"
   xmlns:inkscape="http://www.inkscape.org/namespaces/inkscape"
   xmlns:sodipodi="http://sodipodi.sourceforge.net/DTD/sodipodi-0.dtd"
   xmlns="http://www.w3.org/2000/svg"
   xmlns:svg="http://www.w3.org/2000/svg"><sodipodi:namedview
     id="namedview7"
     pagecolor="#505050"
     bordercolor="#eeeeee"
     borderopacity="1"
     inkscape:pageshadow="0"
     inkscape:pageopacity="0"
     inkscape:pagecheckerboard="0"
     inkscape:document-units="mm"
     showgrid="false"
     inkscape:zoom="0.51533377"
     inkscape:cx="-278.46031"
     inkscape:cy="207.63243"
     inkscape:window-width="1920"
     inkscape:window-height="1121"
     inkscape:window-x="-7"
     inkscape:window-y="-7"
     inkscape:window-maximized="1"
     inkscape:current-layer="svg5"
     fit-margin-top="50"
     fit-margin-left="50"
     fit-margin-right="50"
     fit-margin-bottom="50"
     lock-margins="true"
     units="px"
     showguides="false"
     inkscape:showpageshadow="0"
     inkscape:deskcolor="#505050" /><defs
     id="defs2"><filter
       style="color-interpolation-filters:sRGB"
       inkscape:label="Drop Shadow"
       id="filter41397"
       x="-0.4636397"
       y="-0.4636397"
       width="2.0236785"
       height="2.0043981"><feFlood
         flood-opacity="0.498039"
         flood-color="rgb(0,0,0)"
         result="flood"
         id="feFlood41387" /><feComposite
         in="flood"
         in2="SourceGraphic"
         operator="in"
         result="composite1"
         id="feComposite41389" /><feGaussianBlur
         in="composite1"
         stdDeviation="3"
         result="blur"
         id="feGaussianBlur41391" /><feOffset
         dx="1.49701"
         dy="1.1976"
         result="offset"
         id="feOffset41393" /><feComposite
         in="SourceGraphic"
         in2="offset"
         operator="over"
         result="composite2"
         id="feComposite41395" /></filter><filter
       style="color-interpolation-filters:sRGB"
       inkscape:label="Drop Shadow"
       id="filter48262"
       x="-0.11650321"
       y="-0.11797703"
       width="1.3759789"
       height="1.3795844"><feFlood
         flood-opacity="0.211765"
         flood-color="rgb(0,0,0)"
         result="flood"
         id="feFlood48252" /><feComposite
         in="flood"
         in2="SourceGraphic"
         operator="in"
         result="composite1"
         id="feComposite48254" /><feGaussianBlur
         in="composite1"
         stdDeviation="1"
         result="blur"
         id="feGaussianBlur48256" /><feOffset
         dx="0.7"
         dy="0.7"
         result="offset"
         id="feOffset48258" /><feComposite
         in="SourceGraphic"
         in2="offset"
         operator="over"
         result="composite2"
         id="feComposite48260" /></filter></defs><path
     style="fill:#d9d9d9;fill-opacity:1;stroke-width:0.17721"
     d="m 54.255883,109.52566 c -0.465856,-0.23613 -0.932817,-0.65165 -1.145108,-1.01896 -0.353163,-0.61104 -0.359787,-0.94318 -0.447079,-22.416998 C 52.561819,61.027759 52.778549,63.724927 50.684379,61.457579 29.813458,38.86074 17.864072,25.782486 17.580166,25.225983 c -0.491835,-0.964077 -0.486519,-2.643697 0.01162,-3.672726 0.479268,-0.990033 1.573914,-1.917673 2.554197,-2.164511 1.102545,-0.277624 82.717087,-0.277624 83.819627,0 0.98029,0.246838 2.07493,1.174478 2.5542,2.164511 0.49899,1.030772 0.5035,2.708571 0.01,3.676132 -0.19806,0.38823 -7.94478,8.9349 -17.214939,18.992598 -14.138768,15.339941 -16.93633,18.45904 -17.36069,19.356045 l -0.505878,1.069318 -0.0016,13.113505 c -8.87e-4,7.212427 -0.05254,13.537029 -0.11471,14.054672 -0.07505,0.624881 -0.327626,1.292003 -0.751601,1.98514 -0.983425,1.60776 -13.169769,15.485613 -13.904156,15.834103 -0.829475,0.39361 -1.486812,0.36397 -2.420155,-0.10911 z"
     id="path334" /></svg>
