<?xml version="1.0" encoding="UTF-8" standalone="no"?>
<!-- Created with Inkscape (http://www.inkscape.org/) -->

<svg
   width="500"
   height="500"
   viewBox="0 0 132.29167 132.29167"
   version="1.1"
   id="svg5"
   inkscape:version="1.3.2 (091e20e, 2023-11-25, custom)"
   sodipodi:docname="focus_icon.svg"
   xml:space="preserve"
   xmlns:inkscape="http://www.inkscape.org/namespaces/inkscape"
   xmlns:sodipodi="http://sodipodi.sourceforge.net/DTD/sodipodi-0.dtd"
   xmlns="http://www.w3.org/2000/svg"
   xmlns:svg="http://www.w3.org/2000/svg"><sodipodi:namedview
     id="namedview7"
     pagecolor="#505050"
     bordercolor="#eeeeee"
     borderopacity="1"
     inkscape:pageshadow="0"
     inkscape:pageopacity="0"
     inkscape:pagecheckerboard="0"
     inkscape:document-units="mm"
     showgrid="false"
     units="px"
     inkscape:zoom="1.121145"
     inkscape:cx="269.81345"
     inkscape:cy="266.69164"
     inkscape:window-width="2880"
     inkscape:window-height="1676"
     inkscape:window-x="-12"
     inkscape:window-y="-12"
     inkscape:window-maximized="1"
     inkscape:current-layer="svg5"
     inkscape:showpageshadow="0"
     inkscape:deskcolor="#505050" /><defs
     id="defs2" /><path
     id="path1702"
     style="color:#000000;fill:#d9d9d9;stroke-width:5;-inkscape-stroke:none;fill-opacity:1"
     d="M 36.290291 21.968685 C 33.826127 21.96919 32.752785 22.028559 31.738114 22.238436 C 27.014415 23.215493 23.237523 26.960097 22.248254 31.671969 C 22.055128 32.591814 22.056079 33.349443 22.011576 34.568433 C 21.967076 35.787422 21.942869 37.247661 21.937679 38.69738 C 21.932479 40.147097 21.947988 41.580875 21.984188 42.744161 C 22.002288 43.325803 22.024535 43.837222 22.056535 44.273267 C 22.088525 44.709312 22.050774 44.907811 22.253939 45.585848 C 22.546269 46.561555 23.038444 47.216795 23.609412 47.812585 C 24.180379 48.408376 24.806 48.936489 25.814445 49.257975 C 27.86049 49.910245 30.218364 49.416052 31.755684 47.878731 C 32.324591 47.309827 33.126673 45.993041 33.30081 44.695463 C 33.474948 43.397886 33.464624 41.823086 33.464624 38.830188 C 33.464624 36.176735 33.471162 34.809312 33.508032 34.217033 C 33.516416 34.082313 33.512474 34.02297 33.506482 33.98759 C 33.518482 33.971592 33.533838 33.947224 33.554541 33.908008 C 33.461021 34.085156 33.958144 33.505832 33.855298 33.578312 L 33.915759 33.534904 L 39.115442 33.464624 C 41.835417 33.427534 43.33734 33.401441 44.349748 33.341634 C 45.362157 33.281834 46.226153 33.09225 46.785258 32.814535 C 49.231089 31.599649 50.390673 28.904876 49.691541 26.290902 C 49.28155 24.757991 48.25595 23.330174 46.785258 22.599654 C 46.246525 22.332053 45.367907 22.130833 44.377136 22.076172 C 43.386365 22.021512 41.926776 22.005508 39.267371 21.984188 C 38.087573 21.97473 37.111679 21.968517 36.290291 21.968685 z M 96.000859 21.968685 C 95.179287 21.968517 94.203061 21.974731 93.023263 21.984188 C 90.363857 22.005508 88.904785 22.021512 87.914014 22.076172 C 86.923244 22.130832 86.04462 22.332058 85.505892 22.599654 C 83.060061 23.814541 81.900477 26.509313 82.599609 29.123287 C 83.009601 30.656196 84.035201 32.084015 85.505892 32.814535 C 86.064998 33.09225 86.928994 33.281831 87.941402 33.341634 C 88.953811 33.401434 90.455734 33.427537 93.175708 33.464624 L 98.374874 33.534904 L 98.435335 33.578312 C 98.334021 33.50691 98.814058 34.064563 98.739193 33.912142 C 98.758643 33.948741 98.77364 33.971991 98.785185 33.98759 C 98.779004 34.022757 98.774725 34.082042 98.783118 34.217033 C 98.819938 34.809283 98.828076 36.176667 98.828076 38.830188 C 98.828076 40.728253 98.840952 42.137332 98.875102 43.169975 C 98.909252 44.202618 98.837815 44.600706 99.132967 45.585848 C 99.425295 46.561561 99.917473 47.216794 100.48844 47.812585 C 101.05941 48.408377 101.68502 48.93649 102.69347 49.257975 C 102.94506 49.338185 103.20201 49.301822 103.45725 49.347892 C 106.26228 49.85428 109.18437 48.432368 110.03721 45.585848 C 110.2404 44.907758 110.20262 44.709319 110.23462 44.273267 C 110.26662 43.837215 110.29041 43.325806 110.30851 42.744161 C 110.34471 41.58087 110.35867 40.147098 110.35347 38.69738 C 110.34847 37.24766 110.32356 35.787423 110.27906 34.568433 C 110.23456 33.349443 110.23603 32.591813 110.0429 31.671969 C 109.05363 26.960093 105.27828 23.215493 100.55459 22.238436 C 99.539914 22.02856 98.465573 21.96919 96.000859 21.968685 z M 27.759546 82.72415 C 27.274052 82.728535 26.781022 82.794598 26.290902 82.925688 C 24.757991 83.335679 23.330174 84.36128 22.599654 85.83197 C 22.332876 86.369053 22.131239 87.242443 22.076172 88.214771 C 22.021102 89.187097 22.005528 90.606271 21.984188 93.185527 C 21.946338 97.761336 21.96014 99.207085 22.238436 100.55252 C 23.207922 105.23959 26.909997 109.01553 31.572233 110.03308 L 34.60564 110.69505 L 34.60564 110.13695 C 35.789173 110.19355 36.34652 110.30523 39.121126 110.29094 C 41.858335 110.27684 43.350031 110.26688 44.355432 110.21498 C 45.360833 110.16308 46.253467 109.95564 46.785258 109.6915 C 48.255936 108.96097 49.281549 107.53471 49.691541 106.0018 C 50.390671 103.38783 49.231087 100.6915 46.785258 99.476615 C 46.226247 99.198937 45.362523 99.008829 44.351815 98.948999 C 43.341108 98.889169 41.84368 98.86518 39.130945 98.828076 L 33.906458 98.755729 L 33.859432 98.724723 C 33.913534 98.760552 33.679019 98.504713 33.58193 98.421899 C 33.582286 98.384673 33.582799 98.34635 33.578312 98.284957 C 33.531992 97.651106 33.504995 96.177279 33.464624 93.310583 C 33.427624 90.683704 33.401891 89.228772 33.341634 88.238025 C 33.281374 87.247278 33.091285 86.389132 32.814535 85.83197 C 31.90337 83.997597 30.159869 82.885956 28.242204 82.740169 C 28.082398 82.728019 27.921377 82.722688 27.759546 82.72415 z M 104.63651 82.72415 C 104.15101 82.728535 103.65798 82.794598 103.16786 82.925688 C 101.63494 83.335678 100.20713 84.361272 99.476615 85.83197 C 99.199721 86.38941 99.009193 87.248324 98.948999 88.242159 C 98.888809 89.235995 98.86509 90.697807 98.828076 93.337972 L 98.755729 98.374874 L 98.712838 98.435335 C 98.784898 98.333092 98.217878 98.821827 98.384692 98.736092 C 98.345453 98.756795 98.321806 98.772589 98.305627 98.784668 C 98.268956 98.77822 98.203842 98.774441 98.060681 98.783118 C 97.445755 98.820418 96.037488 98.826009 93.298698 98.826009 C 90.214737 98.826009 88.603902 98.816678 87.289246 98.99034 C 85.97459 99.164046 84.644888 99.977955 84.078072 100.54477 C 81.156291 103.46655 82.352078 108.64314 86.250033 110.00569 C 86.400865 110.05839 86.367362 110.0118 86.476375 110.0429 C 87.037154 110.20457 87.279828 110.2059 87.642712 110.23048 C 88.07614 110.25988 88.593689 110.28229 89.189388 110.29869 C 90.380787 110.33139 91.871856 110.34357 93.382931 110.33797 C 94.894006 110.33197 96.420698 110.30722 97.679826 110.26562 C 98.938955 110.22402 99.644635 110.24746 100.61918 110.0429 C 105.33125 109.05358 109.07763 105.2766 110.05478 100.55252 C 110.33308 99.207066 110.3443 97.761333 110.30645 93.185527 C 110.28515 90.606273 110.27008 89.187094 110.21498 88.214771 C 110.15988 87.242446 109.95828 86.369064 109.6915 85.83197 C 108.78033 83.997592 107.03683 82.885954 105.11917 82.740169 C 104.95936 82.728019 104.79834 82.722688 104.63651 82.72415 z " /></svg>
