<?xml version="1.0" encoding="UTF-8" standalone="no"?>
<!-- Created with Inkscape (http://www.inkscape.org/) -->

<svg
   width="500"
   height="500"
   viewBox="0 0 132.29167 132.29167"
   version="1.1"
   id="svg5"
   inkscape:version="1.1.1 (3bf5ae0d25, 2021-09-20)"
   sodipodi:docname="stages_icons.svg"
   xmlns:inkscape="http://www.inkscape.org/namespaces/inkscape"
   xmlns:sodipodi="http://sodipodi.sourceforge.net/DTD/sodipodi-0.dtd"
   xmlns="http://www.w3.org/2000/svg"
   xmlns:svg="http://www.w3.org/2000/svg">
  <sodipodi:namedview
     id="namedview7"
     pagecolor="#505050"
     bordercolor="#eeeeee"
     borderopacity="1"
     inkscape:pageshadow="0"
     inkscape:pageopacity="0"
     inkscape:pagecheckerboard="0"
     inkscape:document-units="mm"
     showgrid="false"
     units="px"
     inkscape:zoom="1.0766645"
     inkscape:cx="315.32571"
     inkscape:cy="283.7467"
     inkscape:window-width="1920"
     inkscape:window-height="1121"
     inkscape:window-x="-7"
     inkscape:window-y="-7"
     inkscape:window-maximized="1"
     inkscape:current-layer="layer9" />
  <defs
     id="defs2" />
  <g
     inkscape:label="modeling"
     inkscape:groupmode="layer"
     id="layer1"
     style="display:none">
    <path
       style="fill:#fc857f;fill-opacity:1;stroke:none;stroke-width:0.264583px;stroke-linecap:butt;stroke-linejoin:miter;stroke-opacity:1"
       d="M 11.775683,97.647587 12.138012,31.341435 64.934631,7.8913613 119.94869,31.565445 120.39963,98.529282 65.038004,124.64108 Z"
       id="path4942" />
    <path
       style="display:inline;fill:#fa6763;fill-opacity:1;stroke:none;stroke-width:0.264583px;stroke-linecap:butt;stroke-linejoin:miter;stroke-opacity:1"
       d="m 11.775683,97.647589 0.362329,-66.306154 52.537663,26.812325 0.362329,66.48732 z"
       id="path1083" />
    <path
       style="fill:#fb7771;fill-opacity:1;stroke:none;stroke-width:0.264583px;stroke-linecap:butt;stroke-linejoin:miter;stroke-opacity:1"
       d="M 64.675675,58.15376 119.94869,31.565445 120.39963,98.529284 65.038004,124.64108 Z"
       id="path2566" />
    <path
       style="fill:#fc857f;fill-opacity:1;stroke:none;stroke-width:0.264583px;stroke-linecap:butt;stroke-linejoin:miter;stroke-opacity:1"
       d="M 12.138012,31.341435 64.675675,58.15376 119.94869,31.565445 64.934631,7.8913613 Z"
       id="path3675" />
  </g>
  <g
     inkscape:groupmode="layer"
     id="layer2"
     inkscape:label="rigging"
     style="display:none">
    <circle
       style="fill:#fc857f;fill-opacity:1;stroke:none;stroke-width:21.7927;stroke-linecap:round;stroke-linejoin:round;stroke-dashoffset:186.406;stroke-opacity:0.551402;paint-order:markers fill stroke"
       id="path5169"
       cx="98.908493"
       cy="83.816467"
       r="15.723324" />
    <path
       id="rect5343"
       style="fill:#f25f5c;fill-opacity:1;stroke:none;stroke-width:21.7927;stroke-linecap:round;stroke-linejoin:round;stroke-dashoffset:186.406;stroke-opacity:0.551402;paint-order:markers fill stroke"
       d="m 53.094801,8.9793853 c -0.11783,-0.00136 -0.235759,-0.0011 -0.353616,0.00112 -2.262846,0.042499 -4.523199,0.746187 -6.486725,2.1633677 -5.236064,3.779149 -6.322593,11.156295 -2.436463,16.540585 l 32.641965,45.226327 a 25.059048,25.059048 0 0 1 18.794612,-13.7933 L 62.720718,14.041509 C 60.36779,10.781488 56.747551,9.0217938 53.094801,8.9793853 Z M 74.129922,80.969646 28.672169,99.144302 c -6.165689,2.465138 -9.199886,9.277128 -6.802615,15.273088 2.397272,5.99595 9.29096,8.83811 15.45665,6.37298 l 45.270808,-18.0992 a 25.059048,25.059048 0 0 1 -8.747504,-18.874573 25.059048,25.059048 0 0 1 0.280414,-2.846951 z" />
  </g>
  <g
     inkscape:groupmode="layer"
     id="layer3"
     inkscape:label="grooming"
     style="display:none">
    <path
       id="path7338"
       style="fill:#fc857f;fill-opacity:1;stroke:none;stroke-width:20;stroke-linecap:round;stroke-linejoin:round;stroke-dashoffset:186.406;stroke-opacity:0.551402;paint-order:markers fill stroke"
       d="M 86.562773,6.5019569 C 86.9061,7.6832029 86.450835,8.5469736 86.450835,8.5469736 L 68.641269,88.537028 A 18.7138,18.7138 0 0 1 83.611299,101.48182 18.7138,18.7138 0 0 1 71.272813,124.89501 18.7138,18.7138 0 0 1 47.859774,112.55702 18.7138,18.7138 0 0 1 52.88851,93.454286 c 2.011337,-3.968839 2.87975,-8.582349 3.333065,-11.812334 0.588758,-4.195037 0.0073,-13.692526 0.186373,-15.400269 0.179087,-1.707747 0.573514,-3.482047 0.573514,-3.482047 l 12.32135,-49.372263 c 0,0 0.455281,-4.6261133 4.644464,-7.1040424 4.189182,-2.4779289 9.943549,-1.4281503 9.943549,-1.4281503 0,0 1.789886,-0.3181357 2.472279,1.122734 0.0853,0.1801101 0.15062,0.3552926 0.19967,0.524042 z M 74.780903,104.21732 a 9.469634,9.469634 0 0 0 -11.84779,-6.243444 9.469634,9.469634 0 0 0 -6.243439,11.847794 9.469634,9.469634 0 0 0 11.847788,6.24344 9.469634,9.469634 0 0 0 6.243441,-11.84779 z" />
    <path
       id="path7150"
       style="fill:#f25f5c;fill-opacity:1;stroke:none;stroke-width:75.5906;stroke-linecap:round;stroke-linejoin:round;stroke-dashoffset:186.406;stroke-opacity:0.551402;paint-order:markers fill stroke"
       d="m 446.12109,112.34961 c -4.64859,0.0816 -7.25781,2.69141 -7.25781,2.69141 L 169.99609,268.79883 a 70.729323,70.729323 0 0 0 -63.47656,-39.56836 70.729323,70.729323 0 0 0 -70.728514,70.73047 70.729323,70.729323 0 0 0 70.728514,70.72851 70.729323,70.729323 0 0 0 63.3418,-39.51953 c 12.07909,-11.7002 27.76385,-19.99514 38.91797,-25.24414 14.48673,-6.81729 49.4255,-15.34 55.39062,-17.89648 5.96513,-2.55649 11.92969,-5.96485 11.92969,-5.96485 l 164.4668,-99.70117 c 0,0 16.19231,-6.81752 20.45312,-24.71289 4.26081,-17.89537 -5.96484,-37.49609 -5.96484,-37.49609 0,0 -0.85325,-6.81777 -6.81836,-7.66992 -0.74564,-0.10652 -1.45115,-0.14642 -2.11524,-0.13477 z M 106.51953,264.16992 a 35.790743,35.790743 0 0 1 35.79102,35.79102 35.790743,35.790743 0 0 1 -35.79102,35.79101 35.790743,35.790743 0 0 1 -35.791014,-35.79101 35.790743,35.790743 0 0 1 35.791014,-35.79102 z"
       transform="scale(0.26458333)" />
  </g>
  <g
     inkscape:groupmode="layer"
     id="layer4"
     inkscape:label="texturing"
     style="display:none">
    <path
       id="rect9844"
       style="fill:#f25f5c;fill-opacity:1;stroke:none;stroke-width:75.5906;stroke-linecap:round;stroke-linejoin:round;stroke-dashoffset:186.406;stroke-opacity:0.551402;paint-order:markers fill stroke"
       d="m 89.353516,25.169922 c -4.232104,0.08827 -8.487857,0.714067 -12.94336,1.853516 C 56.663912,32.073332 41.061953,44.036488 32.751953,60.5 20.236741,85.294751 24.752474,115.16914 44,134.9082 c 3.432934,3.5206 25.794804,19.84061 59.5,43.42578 29.7,20.78255 55.82543,39.73194 58.05664,42.10938 6.56381,6.994 8.27572,16.92305 4.39258,25.48242 -1.2984,2.862 -7.10931,9.59929 -16.44922,19.07422 -0.0507,0.0514 -0.0767,0.0894 -0.12695,0.14062 L 138.125,276.38867 c -16.28639,16.2864 -16.28639,42.50853 0,58.79492 l 7.70898,7.70899 5.02735,5.0293 c 0.0102,0.0102 0.0211,0.0191 0.0312,0.0293 l 18.67578,18.67774 c 5.92232,5.92232 15.45853,5.92232 21.38086,0 L 209.6562,347.92189 349.24018,208.3379 367.94722,189.63087 c 5.92232,-5.92233 5.92232,-15.45853 0,-21.38086 l -18.70704,-18.70703 -5.02734,-5.02735 -7.71094,-7.71093 c -8.14319,-8.1432 -18.76917,-12.21485 -29.39648,-12.21485 -10.62731,0 -21.25524,4.07165 -29.39844,12.21485 l -11.80664,11.80664 c -0.30291,0.29422 -0.50046,0.46664 -0.82617,0.78711 -16.40936,16.14493 -20.23106,18.61258 -28.78516,18.58008 -7.33167,-0.0278 -12.87673,-2.50564 -17.3457,-7.74805 C 217.04906,158.00832 198.85,132.41076 178.5,103.3457 136.33153,43.118236 133.38783,39.630167 118.80859,32.634766 107.85978,27.381315 98.664144,24.975724 89.353516,25.169922 Z M 86.375,66.326172 c 4.685063,-0.05519 9.511652,1.576619 13.623047,5.291016 10.627473,9.601284 8.638073,26.43401 -3.90625,33.056642 -7.601394,4.01306 -17.010288,2.61616 -23.431641,-3.47852 C 68.416053,97.167118 66.689627,93.118012 66.607422,87 66.442684,74.737216 76.067862,66.447599 86.375,66.326172 Z"
       transform="scale(0.26458333)" />
    <path
       id="rect10053"
       style="fill:#fc857f;fill-opacity:1;stroke:none;stroke-width:75.5906;stroke-linecap:round;stroke-linejoin:round;stroke-dashoffset:186.406;stroke-opacity:0.551402;paint-order:markers fill stroke"
       d="m 381.74023,208.05273 c -3.86447,0 -7.72829,1.48025 -10.68945,4.44141 l -16.03516,16.03516 -127.33789,127.33789 -16.03515,16.03515 c -5.92232,5.92233 -5.92232,15.45854 0,21.38086 l 16.03515,16.03516 40.31641,40.31641 15.06836,15.06835 c 14.80581,14.80582 38.64536,14.80582 53.45117,0 l 15.08399,-15.08398 c 2.81903,-5.9463 0.88232,-11.26931 -1.45313,-15.31445 -3.07224,-5.32127 -29.82226,-47.25781 -29.82226,-47.25781 0,0 36.78176,24.05987 43.58593,27.98828 5.39048,3.11219 10.60013,7.88307 17.77539,4.49804 l 82.16797,-82.16797 c 14.80582,-14.80581 14.80582,-38.64535 0,-53.45117 L 448.78125,268.8457 408.45508,228.51953 392.43164,212.49414 c -2.96116,-2.96116 -6.82693,-4.44141 -10.69141,-4.44141 z"
       transform="scale(0.26458333)" />
  </g>
  <g
     inkscape:groupmode="layer"
     id="layer5"
     inkscape:label="shading"
     style="display:none">
    <g
       id="g23306"
       transform="matrix(0.84615249,0,0,0.84615249,10.176372,10.176372)">
      <circle
         style="fill:#f25f5c;fill-opacity:1;stroke:none;stroke-width:20;stroke-linecap:round;stroke-linejoin:round;stroke-dashoffset:186.406;stroke-opacity:0.551402;paint-order:markers fill stroke"
         id="path20383"
         cx="66.145836"
         cy="66.145836"
         r="60.25909" />
      <path
         style="fill:none;stroke:#fc857f;stroke-width:13;stroke-linecap:round;stroke-linejoin:miter;stroke-miterlimit:4;stroke-dasharray:none;stroke-opacity:1"
         d="m 20.422538,66.058085 c 0,-21.431057 17.644311,-47.206475 46.770132,-46.770133"
         id="path20418"
         sodipodi:nodetypes="cc" />
    </g>
  </g>
  <g
     inkscape:groupmode="layer"
     id="layer6"
     inkscape:label="layout"
     style="display:none">
    <path
       id="rect23658"
       style="fill:#a7ec85;fill-opacity:1;stroke:none;stroke-width:11.3034;stroke-linecap:round;stroke-linejoin:round;stroke-miterlimit:4;stroke-dasharray:none;stroke-dashoffset:186.406;stroke-opacity:1;paint-order:markers fill stroke"
       d="m 13.586509,9.1206328 c -2.408498,0 -4.3475379,1.9390402 -4.3475379,4.3475392 v 13.317533 c 0,2.408497 1.9390399,4.347538 4.3475379,4.347538 h 13.317017 c 2.408497,0 4.347538,-1.939041 4.347538,-4.347538 V 13.468172 c 0,-2.408499 -1.939041,-4.3475392 -4.347538,-4.3475392 z m 91.801631,0 c -2.4085,0 -4.34754,1.9390402 -4.34754,4.3475392 v 13.317533 c 0,2.408497 1.93904,4.347538 4.34754,4.347538 h 13.31701 c 2.4085,0 4.34755,-1.939041 4.34755,-4.347538 V 13.468172 c 0,-2.408499 -1.93905,-4.3475392 -4.34755,-4.3475392 z M 13.586509,101.15842 c -2.408498,0 -4.3475379,1.93904 -4.3475379,4.34754 v 13.31753 c 0,2.4085 1.9390399,4.34754 4.3475379,4.34754 h 13.317017 c 2.408497,0 4.347538,-1.93904 4.347538,-4.34754 v -13.31753 c 0,-2.4085 -1.939041,-4.34754 -4.347538,-4.34754 z m 91.801631,0 c -2.4085,0 -4.34754,1.93904 -4.34754,4.34754 v 13.31753 c 0,2.4085 1.93904,4.34754 4.34754,4.34754 h 13.31701 c 2.40851,0 4.34755,-1.93904 4.34755,-4.34754 v -13.31753 c 0,-2.4085 -1.93904,-4.34754 -4.34755,-4.34754 z" />
    <path
       id="rect26650"
       style="fill:#6ba84d;fill-opacity:1;stroke:none;stroke-width:13;stroke-linecap:round;stroke-linejoin:round;stroke-miterlimit:4;stroke-dasharray:none;stroke-dashoffset:186.406;stroke-opacity:1;paint-order:markers fill stroke"
       d="m 39.840204,16.497961 c -1.108001,0 -1.999877,0.891878 -1.999877,1.999878 v 9.923941 c 0,1.108001 0.891876,1.999879 1.999877,1.999879 h 9.923425 c 1.107998,0 1.999877,-0.891878 1.999877,-1.999879 v -9.923941 c 0,-1.108 -0.891879,-1.999878 -1.999877,-1.999878 z m 21.711335,0 c -1.108001,0 -1.999877,0.891878 -1.999877,1.999878 v 9.923941 c 0,1.108001 0.891876,1.999879 1.999877,1.999879 h 9.923425 c 1.108001,0 2.000396,-0.891878 2.000396,-1.999879 v -9.923941 c 0,-1.108 -0.892395,-1.999878 -2.000396,-1.999878 z m 21.23953,0 c -1.107998,0 -1.999877,0.891878 -1.999877,1.999878 v 9.923941 c 0,1.108001 0.891879,1.999879 1.999877,1.999879 h 9.923425 c 1.108001,0 1.999882,-0.891878 1.99988,-1.999879 v -9.923941 c 0,-1.108 -0.891879,-1.999878 -1.99988,-1.999878 z M 18.718496,37.61967 c -1.108,0 -1.999879,0.891876 -1.999878,1.999877 v 9.923425 c 0,1.107999 0.891878,1.999877 1.999878,1.999877 h 9.923941 c 1.108001,0 1.999879,-0.891878 1.999879,-1.999877 v -9.923425 c 0,-1.108001 -0.891878,-1.99988 -1.999879,-1.999877 z m 85.193764,0 c -1.108,0 -1.99988,0.891876 -1.99988,1.999877 v 9.923425 c 0,1.107999 0.89188,1.999877 1.99988,1.999877 h 9.92394 c 1.108,0 1.99988,-0.891878 1.99988,-1.999877 v -9.923425 c 0,-1.108001 -0.89188,-1.99988 -1.99988,-1.999877 z M 18.718496,58.858682 c -1.108,0 -1.999879,0.892394 -1.999878,2.000395 v 9.923425 c 0,1.108001 0.891878,1.999877 1.999878,1.999877 h 9.923941 c 1.108001,0 1.999879,-0.891876 1.999879,-1.999877 v -9.923425 c 0,-1.108001 -0.891878,-2.000395 -1.999879,-2.000395 z m 85.193764,0 c -1.108,0 -1.99988,0.892394 -1.99988,2.000395 v 9.923425 c 0,1.108001 0.89188,1.999877 1.99988,1.999877 h 9.92394 c 1.108,0 1.99988,-0.891876 1.99988,-1.999877 v -9.923425 c 0,-1.108001 -0.89188,-2.000395 -1.99988,-2.000395 z M 18.718496,80.570535 c -1.108,0 -1.999879,0.891879 -1.999878,1.999877 v 9.923425 c 0,1.108001 0.891878,1.99988 1.999878,1.99988 h 9.923941 c 1.108001,0 1.999879,-0.891879 1.999879,-1.99988 v -9.923425 c 0,-1.107998 -0.891878,-1.999877 -1.999879,-1.999877 z m 85.193764,0 c -1.108,0 -1.99988,0.891879 -1.99988,1.999877 v 9.923425 c 0,1.108001 0.89188,1.99988 1.99988,1.99988 h 9.92394 c 1.108,0 1.99988,-0.891879 1.99988,-1.99988 v -9.923425 c 0,-1.107998 -0.89188,-1.999877 -1.99988,-1.999877 z M 39.840204,101.69172 c -1.108001,0 -1.999877,0.89188 -1.999877,1.99988 v 9.92394 c 0,1.108 0.891876,1.99988 1.999877,1.99988 h 9.923425 c 1.107998,0 1.999877,-0.89188 1.999877,-1.99988 v -9.92394 c 0,-1.108 -0.891879,-1.99988 -1.999877,-1.99988 z m 21.711335,0 c -1.108001,0 -1.999877,0.89188 -1.999877,1.99988 v 9.92394 c 0,1.108 0.891876,1.99988 1.999877,1.99988 h 9.923425 c 1.108001,0 2.000396,-0.89188 2.000396,-1.99988 v -9.92394 c 0,-1.108 -0.892395,-1.99988 -2.000396,-1.99988 z m 21.23953,0 c -1.107998,0 -1.999877,0.89188 -1.999877,1.99988 v 9.92394 c 0,1.108 0.891879,1.99988 1.999877,1.99988 h 9.923425 c 1.108001,0 1.999882,-0.89188 1.99988,-1.99988 v -9.92394 c 0,-1.108 -0.891879,-1.99988 -1.99988,-1.99988 z" />
  </g>
  <g
     inkscape:groupmode="layer"
     id="layer7"
     inkscape:label="animation"
     style="display:none">
    <path
       style="fill:#a7ec85;fill-opacity:1;stroke-width:0.264583"
       d="m 97.495502,33.919911 c -6.332331,-2.189668 -10.058971,-8.809514 -8.451429,-15.012757 1.52219,-5.873876 7.059331,-9.9486971 13.014127,-9.5771904 5.77646,0.3603807 10.91999,5.1071984 11.67917,10.7783724 0.81448,6.084273 -2.91472,11.978846 -8.72185,13.78623 -2.09205,0.651119 -5.675412,0.663194 -7.520018,0.02535 z"
       id="path30218" />
    <path
       style="fill:#74b554;fill-opacity:1;stroke-width:0.264583"
       d="m 73.38392,125.67153 c -1.79057,-0.70993 -3.661658,-2.38783 -4.493638,-4.02965 -1.049533,-2.07116 -1.185243,-3.59016 -0.620471,-6.94501 0.269475,-1.60073 0.684167,-4.27963 0.921538,-5.95312 0.237371,-1.67349 0.899393,-5.88803 1.471157,-9.36564 0.571768,-3.477612 1.038514,-6.75183 1.037215,-7.276041 -0.0021,-0.881759 -0.449879,-1.418596 -5.980052,-7.17082 -3.287728,-3.419739 -6.124868,-6.217708 -6.304758,-6.217708 -0.179888,0 -3.704196,3.600762 -7.831794,8.001696 -5.922266,6.314445 -7.674757,8.033072 -8.311107,8.150502 -0.44351,0.08185 -7.712008,0.112488 -16.152216,0.0681 L 11.773961,94.853124 10.397653,94.230715 C 7.4907023,92.916107 5.2916699,89.530983 5.2916699,86.370723 c 0,-3.267271 2.5551383,-6.644992 5.8747691,-7.76605 1.549888,-0.523404 2.187545,-0.55259 12.072957,-0.55259 8.601141,0 10.488305,-0.06479 10.730397,-0.368377 0.161562,-0.20261 3.210782,-3.618383 6.776042,-7.590612 3.56526,-3.972229 8.565885,-9.562451 11.112499,-12.422716 2.546615,-2.860265 6.505443,-7.289937 8.797396,-9.843714 2.291953,-2.553777 4.167187,-4.715441 4.167187,-4.803698 0,-0.08825 -0.982266,-0.154279 -2.182812,-0.146719 l -2.182813,0.01376 -7.276041,7.699708 c -7.709402,8.158302 -8.178099,8.542379 -10.80399,8.853376 -4.090956,0.484513 -7.838977,-2.977666 -7.799213,-7.204411 0.02246,-2.386991 0.772324,-3.750982 3.63683,-6.615289 4.501057,-4.500753 17.670563,-16.915196 18.306094,-17.256532 0.49729,-0.267089 3.355777,-0.324104 13.265308,-0.264583 l 12.631428,0.07585 1.342821,0.708631 c 0.738553,0.389744 3.050286,2.294744 5.137184,4.233333 10.909628,10.134306 12.286207,11.32855 13.058957,11.329238 0.63186,5.29e-4 1.72137,-0.975704 6.74687,-6.045594 6.7062,-6.76543 7.4405,-7.288333 10.21424,-7.273646 5.15796,0.02731 8.95709,5.478517 7.00894,10.05683 -0.43847,1.030436 -2.45479,3.197807 -10.38489,11.162881 -10.93745,10.985672 -11.14058,11.14503 -14.20641,11.14503 -2.949371,0 -3.899098,-0.624998 -9.662585,-6.358783 l -5.032372,-5.006438 -6.737964,6.741853 -6.737966,6.741853 8.765503,8.79907 c 4.821025,4.839491 8.843062,9.058401 8.937857,9.375359 0.0948,0.316958 -0.13589,2.221958 -0.512633,4.233333 -4.947972,26.416474 -6.181859,32.579634 -6.742638,33.678854 -1.826109,3.57946 -6.571004,5.42181 -10.228702,3.9716 z"
       id="path30116" />
  </g>
  <g
     inkscape:groupmode="layer"
     id="layer8"
     inkscape:label="cfx"
     style="display:none">
    <path
       id="path42148"
       style="fill:#74b554;fill-opacity:1;stroke-width:0.999999"
       d="m 116.83203,261.5293 c -7.80754,0.0126 -9.22058,0.38988 -14.89453,3.18164 -8.951161,4.40427 -17.352125,13.07839 -19.408203,20.03906 -0.664615,2.25 -0.663085,2.25 35.404293,2.25 40.88438,0 38.5683,0.57517 32.94532,-8.1875 -3.90395,-6.08378 -9.68435,-11.08036 -16.8418,-14.55859 -4.86402,-2.36372 -6.75515,-2.69545 -15.55469,-2.72266 -0.58049,-0.002 -1.12989,-0.003 -1.65039,-0.002 z M 79,364.97656 v 47.27735 c 0,52.84716 -0.0961,52.07876 7.0625,55.91797 C 89.313642,469.9156 95.593691,470 223.26562,470 c 143.56745,0 137.618,0.20786 142.23438,-4.96484 1.63178,-1.82843 2.06296,-3.97179 2.3457,-11.63868 L 368.19336,444 H 263.10742 158.02344 L 157.76172,404.75 157.5,365.5 118.25,365.23828 Z"
       transform="scale(0.26458333)" />
    <path
       style="fill:#a7ec85;fill-opacity:1;stroke-width:0.264583"
       d="m 54.573417,110.39234 -5.883878,-0.0712 -0.06925,-10.24755 -0.06925,-10.247549 -14.684374,-0.139325 C 17.453067,89.530985 17.961219,89.586598 14.529345,87.57041 5.9178381,82.511241 4.6236433,70.31532 11.985009,63.5937 c 2.907847,-2.655141 3.494271,-2.873481 16.21047,-6.035593 19.759775,-4.913627 32.56855,-8.110108 33.518584,-8.364698 l 0.992187,-0.265888 v -6.220647 c 0,-8.047495 0.136234,-8.337516 4.15585,-8.847153 6.3358,-0.803302 10.466059,-6.121416 9.370769,-12.065779 -1.710536,-9.283406 -13.718867,-11.659971 -18.844563,-3.729521 -0.96198,1.48837 -1.362062,2.793514 -1.704621,5.560808 -0.396563,3.203542 -3.626204,4.408086 -5.851778,2.182512 -0.848337,-0.848336 -0.883989,-0.965702 -0.883989,-2.909951 0,-4.199502 1.793166,-8.330139 4.991121,-11.497271 9.413787,-9.3230557 24.875896,-5.2854682 28.7874,7.517192 0.780122,2.553395 0.659562,7.611327 -0.241757,10.142696 -1.857505,5.216837 -6.003367,9.299722 -11.119622,10.950712 l -1.792232,0.578344 0.07244,4.215802 0.07244,4.215802 22.586436,5.626907 c 18.519336,4.613679 22.926316,5.79661 24.473956,6.56935 7.20804,3.598984 10.28294,12.325018 6.92736,19.658617 -1.81617,3.969213 -5.85171,7.325122 -9.94199,8.267631 -2.5283,0.582589 -2.39933,0.760344 -2.31542,-3.191306 l 0.0738,-3.476903 1.13195,-0.333846 c 4.4227,-1.304401 6.80637,-6.839547 4.72354,-10.9686 -1.85763,-3.682609 -1.47221,-3.530973 -21.893517,-8.613648 -9.660228,-2.404343 -20.20875,-5.034843 -23.441156,-5.845561 l -5.877105,-1.474031 -23.094769,5.736392 c -12.702124,3.155013 -23.63055,5.971963 -24.285394,6.259885 -3.949443,1.736495 -5.802039,6.711233 -3.99973,10.740395 0.809184,1.808974 2.693966,3.550311 4.624635,4.272668 1.498705,0.560737 1.754992,0.569124 15.332451,0.501772 l 13.808268,-0.0685 -0.06107,-2.910416 c -0.08435,-4.019645 -0.987113,-7.227819 -2.717826,-9.658379 -0.290616,-0.408133 -0.528392,-0.815822 -0.528392,-0.905976 0,-0.09015 11.578828,-0.131304 25.730728,-0.09145 25.730728,0.07247 25.730728,0.07247 27.236787,0.812052 2.23254,1.096335 4.01982,2.833867 5.03429,4.89418 l 0.86798,1.76281 0.0721,15.932218 0.0721,15.932222 -0.94085,0.94085 -0.94085,0.94085 -8.391696,0.0221 c -4.615437,0.0122 -14.047171,0.0419 -20.95941,0.0662 -6.912239,0.0243 -15.215451,0.012 -18.451583,-0.0271 z"
       id="path42146" />
  </g>
  <g
     inkscape:groupmode="layer"
     id="layer9"
     inkscape:label="fx"
     style="display:inline">
    <path
       style="fill:#a7ec85;fill-opacity:1;stroke-width:0.197433"
       d="M 61.40597,127.80721 C 45.977758,125.89644 32.961232,115.25233 28.212518,100.66366 22.72579,83.807719 28.342416,66.404007 42.737864,55.655329 c 3.678406,-2.746564 5.157712,-4.043305 6.945934,-6.088716 4.546786,-5.200723 7.347347,-11.442591 8.25064,-18.388964 0.316526,-2.43409 0.542275,-2.92918 1.692631,-3.712106 1.312064,-0.892982 2.715983,-0.434237 6.593811,2.154597 9.144922,6.105137 15.390617,15.775492 17.321083,26.81863 0.461165,2.638067 0.678779,7.712031 0.425335,9.917183 -0.172451,1.500438 -0.168955,1.520512 0.206272,1.184596 0.815252,-0.729839 3.029023,-3.747926 4.286499,-5.843882 1.51694,-2.528431 2.155042,-3.086516 3.527785,-3.085401 1.225449,9.88e-4 1.826125,0.408248 3.723656,2.524591 14.70962,16.405863 13.8205,40.723593 -2.04459,55.920073 -8.551901,8.19151 -20.575569,12.19851 -32.26095,10.75128 z"
       id="path60691" />
    <path
       id="path65222"
       style="fill:#74b554;fill-opacity:1;stroke:none;stroke-width:8.05383;stroke-linecap:round;stroke-linejoin:round;stroke-miterlimit:4;stroke-dasharray:none;stroke-dashoffset:186.406;stroke-opacity:1;paint-order:markers fill stroke"
       inkscape:transform-center-x="-0.40370667"
       inkscape:transform-center-y="-0.57691292"
       d="m 76.203833,6.352208 c -1.254154,0.00793 -3.230913,0.6069214 -6.16804,1.5826635 -8.544369,2.8385215 -8.638717,3.3029115 -1.94177,9.2977935 6.696948,5.994884 7.190537,5.83521 9.046533,-2.975045 1.217998,-5.7817302 1.457568,-7.9205497 -0.936723,-7.905412 z m -34.693245,26.89229 c -0.767032,0.03198 -1.204859,1.265545 -1.981292,3.859259 -1.461523,4.882285 -1.260237,5.097361 3.708501,3.92532 4.968738,-1.172041 5.04831,-1.470635 1.531283,-5.170899 -1.648608,-1.734498 -2.581697,-2.641898 -3.258492,-2.61368 z m 45.380032,8.16006 c -1.148931,0.01286 -1.006189,1.034953 -0.382255,3.811264 0.950756,4.230574 1.189546,4.305516 4.386623,1.365281 3.197081,-2.940234 3.131229,-3.194733 -1.019724,-4.473579 -1.426889,-0.439604 -2.382822,-0.709702 -2.984644,-0.702966 z" />
  </g>
  <g
     inkscape:groupmode="layer"
     id="layer10"
     inkscape:label="camera"
     style="display:none">
    <path
       style="fill:#74b554;fill-opacity:1;stroke-width:0.244303"
       d="m 22.232038,116.63589 c -4.123732,-0.80986 -7.825038,-4.39811 -8.935889,-8.66296 -0.55369,-2.12576 -0.562428,-42.527773 -0.0097,-44.650005 1.103483,-4.236556 4.349241,-7.492707 8.562778,-8.590195 2.169164,-0.564994 62.062115,-0.564994 64.231281,0 4.367742,1.137654 7.859068,4.809712 8.677833,9.127055 0.339168,1.788415 0.339168,41.750795 0,43.539215 -0.852447,4.49494 -4.783579,8.4288 -9.250708,9.25712 -1.638052,0.30373 -61.723839,0.28452 -63.275639,-0.0202 z"
       id="path69234" />
    <path
       id="path69342"
       style="fill:#a7ec85;fill-opacity:1;stroke-width:0.244303"
       d="m 37.969115,15.418506 c -2.182784,-0.01488 -3.507047,0.100403 -4.642094,0.403593 -6.019593,1.607932 -11.032641,6.62098 -12.640573,12.640573 -0.684217,2.561489 -0.560854,7.153214 0.259416,9.650055 2.028326,6.174076 7.465493,10.962399 13.72991,12.092286 1.679234,0.302877 5.800839,0.112477 7.568531,-0.34985 3.5473,-0.927767 6.62346,-3.000695 8.895064,-5.745385 2.6563,3.137249 6.333204,5.370227 10.352857,6.095235 1.679234,0.302877 5.800836,0.112477 7.568531,-0.34985 7.975015,-2.085798 13.574067,-9.9548 12.985252,-18.250048 -0.306649,-4.320143 -1.968598,-7.885033 -5.166608,-11.083044 -3.618971,-3.618972 -7.05543,-5.069205 -12.093837,-5.103565 -2.182781,-0.01488 -3.506528,0.100403 -4.641578,0.403593 -3.514759,0.938851 -6.685129,3.039719 -9.03614,5.8229 -0.328501,-0.379537 -0.676251,-0.753767 -1.045413,-1.122928 -3.618974,-3.618972 -7.054914,-5.069205 -12.093318,-5.103565 z m 73.772755,41.87393 c -2.19153,0.0028 -2.61067,0.174554 -8.02277,3.276801 l -3.725348,2.135272 v 22.924699 22.925212 l 3.725348,2.13527 c 2.0491,1.17455 4.27516,2.39855 4.94699,2.71973 1.05879,0.50618 1.49804,0.5717 3.29799,0.493 3.18498,-0.13922 5.43216,-1.5635 6.7722,-4.29225 0.6791,-1.38288 0.67902,-1.38297 0.67902,-23.980962 0,-22.566876 -5.3e-4,-22.599523 -0.52193,-23.727235 -1.32231,-2.859763 -4.04326,-4.613537 -7.1515,-4.609537 z" />
  </g>
  <g
     inkscape:groupmode="layer"
     id="layer11"
     inkscape:label="lighting"
     style="display:none">
    <path
       id="path80220"
       style="fill:#74b554;fill-opacity:1;stroke-width:0.999999"
       d="m 160,357 v 26.85156 c 0,26.25192 0.0503,26.92806 2.26953,30.25 1.24847,1.86883 3.83597,4.18482 5.75,5.14649 3.22479,1.62032 9.23873,1.74804 81.98047,1.74804 87.53686,0 82.87994,0.36625 87.73047,-6.89453 2.21924,-3.32194 2.26953,-3.99808 2.26953,-30.25 V 357 h -90 z m 90,93 c -30.21934,0 -51,0.3732 -51,0.91602 0,0.50384 2.8125,3.46651 6.25,6.58398 7.22493,6.55223 18.9271,12.60091 29.81445,15.41016 14.619,3.77215 29.53864,1.84986 45.41602,-5.85157 C 287.89498,463.46215 301,453.1524 301,450.91602 301,450.37335 280.21934,450 250,450 Z"
       transform="scale(0.26458333)" />
    <path
       id="path80330"
       style="fill:#a7ec85;fill-opacity:1;stroke-width:0.999999"
       d="m 250.5293,25.203125 c -11.96877,-0.06459 -23.84005,1.568384 -36.99219,4.894531 C 108.85436,56.571692 65.13974,180.7614 130.13867,267.02148 135.81001,274.54791 157.22853,296 159.07227,296 159.60467,296 160,302.82373 160,312 v 16 h 25.51562 25.51368 L 210.76562,297.75 210.5,267.5 202.24805,266.88672 C 181.61007,265.35237 167.75553,250.80286 167.59766,230.5 c -0.0539,-6.9333 0.34688,-8.86669 3.01367,-14.5 C 187.74325,179.81073 240,192.39594 240,232.71094 V 238 h 10 10 v -5.28906 c 0,-19.30976 12.56632,-34.71668 30.65234,-37.57813 30.78905,-4.87123 53.01082,28.90066 36.22657,55.05664 -6.57838,10.25153 -16.18981,15.73358 -29.29297,16.70899 L 289.5,267.5 289.23633,297.75 288.9707,328 H 314.48633 340 l 0.0234,-15.75 0.0234,-15.75 4.07421,-3 C 357.91983,283.33739 376.4477,260.02831 385.38273,241.5918 426.56817,156.61035 379.21056,53.83435 288.11328,30.5 274.56548,27.029762 262.49806,25.267717 250.5293,25.203125 Z M 203.21094,223.82422 c -1.49179,0.0253 -3.01674,0.59379 -4.38282,1.83008 -2.59377,2.34732 -2.3806,7.75338 0.40821,10.35156 1.71751,1.60009 3.285,2.01564 6.75,1.78906 4.50379,-0.29451 4.51516,-0.30369 4.8125,-4.34961 0.41212,-5.60804 -3.46355,-9.69105 -7.58789,-9.62109 z m 93.17968,0.0684 c -1.90203,0.0291 -3.8564,0.88361 -5.31835,2.74219 -1.99982,2.54236 -2.87851,9.22696 -1.40625,10.69921 1.07572,1.07574 7.27879,0.76394 9.65039,-0.48437 2.91581,-1.53477 3.64982,-2.79088 3.66797,-6.27149 0.0219,-4.1687 -3.20317,-6.73747 -6.59376,-6.68554 z M 240,267 v 30.5 30.5 h 10 10 V 297.5 267 h -10 z"
       transform="scale(0.26458333)" />
  </g>
  <g
     inkscape:groupmode="layer"
     id="layer12"
     inkscape:label="compositing"
     style="display:none">
    <path
       style="fill:#a7ec85;fill-opacity:1;stroke-width:0.264583"
       d="M 36.644793,73.683609 C 20.491982,61.55209 7.2760448,51.507849 7.2760448,51.363071 c 0,-0.14478 13.2529672,-10.204473 29.4510392,-22.354875 L 66.178123,6.9165544 95.663019,29.028389 c 16.216691,12.161512 29.484891,22.199033 29.484891,22.305607 0,0.172027 -58.902051,44.473517 -59.067653,44.426045 -0.03669,-0.01052 -13.282652,-9.944914 -29.435464,-22.076432 z"
       id="path94296" />
    <path
       style="fill:#74b554;fill-opacity:1;stroke-width:0.264583"
       d="M 36.644793,103.27113 C 20.491982,91.130288 7.2420072,81.101554 7.200406,80.985061 7.1249778,80.773838 20.123907,70.908333 20.477641,70.908333 c 0.102456,0 10.420321,7.679616 22.928587,17.065815 L 66.14853,105.03996 88.899745,87.974148 c 12.513165,-9.386199 22.829825,-17.065815 22.925895,-17.065815 0.28471,0 13.32227,9.83275 13.32227,10.047478 0,0.184018 -58.639595,44.286109 -58.978515,44.356989 -0.08572,0.0179 -13.37179,-9.90082 -29.524602,-22.04167 z"
       id="path94253" />
  </g>
</svg>
