<?xml version="1.0" encoding="UTF-8" standalone="no"?>
<!-- Created with Inkscape (http://www.inkscape.org/) -->

<svg
   width="500"
   height="500"
   viewBox="0 0 132.29167 132.29167"
   version="1.1"
   id="svg5"
   inkscape:version="1.1.1 (3bf5ae0d25, 2021-09-20)"
   sodipodi:docname="fx.svg"
   xmlns:inkscape="http://www.inkscape.org/namespaces/inkscape"
   xmlns:sodipodi="http://sodipodi.sourceforge.net/DTD/sodipodi-0.dtd"
   xmlns="http://www.w3.org/2000/svg"
   xmlns:svg="http://www.w3.org/2000/svg">
  <sodipodi:namedview
     id="namedview7"
     pagecolor="#505050"
     bordercolor="#eeeeee"
     borderopacity="1"
     inkscape:pageshadow="0"
     inkscape:pageopacity="0"
     inkscape:pagecheckerboard="0"
     inkscape:document-units="mm"
     showgrid="false"
     units="px"
     inkscape:zoom="1.0766645"
     inkscape:cx="315.32571"
     inkscape:cy="283.7467"
     inkscape:window-width="1920"
     inkscape:window-height="1121"
     inkscape:window-x="-7"
     inkscape:window-y="-7"
     inkscape:window-maximized="1"
     inkscape:current-layer="layer9" />
  <defs
     id="defs2" />
  <g
     inkscape:groupmode="layer"
     id="layer9"
     inkscape:label="fx"
     style="display:inline">
    <path
       style="fill:#a7ec85;fill-opacity:1;stroke-width:0.197433"
       d="M 61.40597,127.80721 C 45.977758,125.89644 32.961232,115.25233 28.212518,100.66366 22.72579,83.807719 28.342416,66.404007 42.737864,55.655329 c 3.678406,-2.746564 5.157712,-4.043305 6.945934,-6.088716 4.546786,-5.200723 7.347347,-11.442591 8.25064,-18.388964 0.316526,-2.43409 0.542275,-2.92918 1.692631,-3.712106 1.312064,-0.892982 2.715983,-0.434237 6.593811,2.154597 9.144922,6.105137 15.390617,15.775492 17.321083,26.81863 0.461165,2.638067 0.678779,7.712031 0.425335,9.917183 -0.172451,1.500438 -0.168955,1.520512 0.206272,1.184596 0.815252,-0.729839 3.029023,-3.747926 4.286499,-5.843882 1.51694,-2.528431 2.155042,-3.086516 3.527785,-3.085401 1.225449,9.88e-4 1.826125,0.408248 3.723656,2.524591 14.70962,16.405863 13.8205,40.723593 -2.04459,55.920073 -8.551901,8.19151 -20.575569,12.19851 -32.26095,10.75128 z"
       id="path60691" />
    <path
       id="path65222"
       style="fill:#74b554;fill-opacity:1;stroke:none;stroke-width:8.05383;stroke-linecap:round;stroke-linejoin:round;stroke-miterlimit:4;stroke-dasharray:none;stroke-dashoffset:186.406;stroke-opacity:1;paint-order:markers fill stroke"
       inkscape:transform-center-x="-0.40370667"
       inkscape:transform-center-y="-0.57691292"
       d="m 76.203833,6.352208 c -1.254154,0.00793 -3.230913,0.6069214 -6.16804,1.5826635 -8.544369,2.8385215 -8.638717,3.3029115 -1.94177,9.2977935 6.696948,5.994884 7.190537,5.83521 9.046533,-2.975045 1.217998,-5.7817302 1.457568,-7.9205497 -0.936723,-7.905412 z m -34.693245,26.89229 c -0.767032,0.03198 -1.204859,1.265545 -1.981292,3.859259 -1.461523,4.882285 -1.260237,5.097361 3.708501,3.92532 4.968738,-1.172041 5.04831,-1.470635 1.531283,-5.170899 -1.648608,-1.734498 -2.581697,-2.641898 -3.258492,-2.61368 z m 45.380032,8.16006 c -1.148931,0.01286 -1.006189,1.034953 -0.382255,3.811264 0.950756,4.230574 1.189546,4.305516 4.386623,1.365281 3.197081,-2.940234 3.131229,-3.194733 -1.019724,-4.473579 -1.426889,-0.439604 -2.382822,-0.709702 -2.984644,-0.702966 z" />
  </g>
</svg>
