<?xml version="1.0" encoding="UTF-8" standalone="no"?>
<!-- Created with Inkscape (http://www.inkscape.org/) -->

<svg
   width="500"
   height="500"
   viewBox="0 0 132.29167 132.29167"
   version="1.1"
   id="svg5"
   inkscape:version="1.1.1 (3bf5ae0d25, 2021-09-20)"
   xmlns:inkscape="http://www.inkscape.org/namespaces/inkscape"
   xmlns:sodipodi="http://sodipodi.sourceforge.net/DTD/sodipodi-0.dtd"
   xmlns="http://www.w3.org/2000/svg"
   xmlns:svg="http://www.w3.org/2000/svg">
  <sodipodi:namedview
     id="namedview7"
     pagecolor="#505050"
     bordercolor="#eeeeee"
     borderopacity="1"
     inkscape:pageshadow="0"
     inkscape:pageopacity="0"
     inkscape:pagecheckerboard="0"
     inkscape:document-units="mm"
     showgrid="false"
     units="px"
     inkscape:zoom="1.1734878"
     inkscape:cx="377.08103"
     inkscape:cy="260.33504"
     inkscape:window-width="1920"
     inkscape:window-height="1121"
     inkscape:window-x="-7"
     inkscape:window-y="-7"
     inkscape:window-maximized="1"
     inkscape:current-layer="layer3" />
  <defs
     id="defs2" />
  <g
     inkscape:label="modeling"
     inkscape:groupmode="layer"
     id="layer1"
     style="display:none">
    <path
       style="fill:#fc857f;fill-opacity:1;stroke:none;stroke-width:0.264583px;stroke-linecap:butt;stroke-linejoin:miter;stroke-opacity:1"
       d="M 11.775683,97.647587 12.138012,31.341435 64.934631,7.8913613 119.94869,31.565445 120.39963,98.529282 65.038004,124.64108 Z"
       id="path4942" />
    <path
       style="display:inline;fill:#fa6763;fill-opacity:1;stroke:none;stroke-width:0.264583px;stroke-linecap:butt;stroke-linejoin:miter;stroke-opacity:1"
       d="m 11.775683,97.647589 0.362329,-66.306154 52.537663,26.812325 0.362329,66.48732 z"
       id="path1083" />
    <path
       style="fill:#fb7771;fill-opacity:1;stroke:none;stroke-width:0.264583px;stroke-linecap:butt;stroke-linejoin:miter;stroke-opacity:1"
       d="M 64.675675,58.15376 119.94869,31.565445 120.39963,98.529284 65.038004,124.64108 Z"
       id="path2566" />
    <path
       style="fill:#fc857f;fill-opacity:1;stroke:none;stroke-width:0.264583px;stroke-linecap:butt;stroke-linejoin:miter;stroke-opacity:1"
       d="M 12.138012,31.341435 64.675675,58.15376 119.94869,31.565445 64.934631,7.8913613 Z"
       id="path3675" />
  </g>
  <g
     inkscape:groupmode="layer"
     id="layer2"
     inkscape:label="rigging"
     style="display:none">
    <circle
       style="fill:#fc857f;fill-opacity:1;stroke:none;stroke-width:20;stroke-linecap:round;stroke-linejoin:round;stroke-dashoffset:186.406;stroke-opacity:0.551402;paint-order:markers fill stroke"
       id="path5169"
       cx="96.352837"
       cy="82.295631"
       r="14.429918" />
    <path
       id="rect5343"
       style="fill:#f25f5c;fill-opacity:1;stroke:none;stroke-width:75.5906;stroke-linecap:round;stroke-linejoin:round;stroke-dashoffset:186.406;stroke-opacity:0.551402;paint-order:markers fill stroke"
       d="m 205.25781,51.457031 c -0.40871,-0.0047 -0.81776,-0.0038 -1.22656,0.0039 -7.84896,0.147413 -15.68927,2.588241 -22.5,7.503906 -18.16193,13.108438 -21.93069,38.696972 -8.45117,57.373043 l 113.22265,156.87305 a 86.920375,86.920375 0 0 1 65.19141,-47.84375 L 238.64648,69.015625 C 230.48506,57.707844 217.92782,51.60413 205.25781,51.457031 Z M 278.2207,301.16406 120.54492,364.20508 c -21.386445,8.55062 -31.910931,32.17887 -23.595701,52.97656 8.315231,20.7977 32.226831,30.65609 53.613281,22.10547 l 157.02734,-62.7793 a 86.920375,86.920375 0 0 1 -30.34179,-65.46875 86.920375,86.920375 0 0 1 0.97265,-9.875 z"
       transform="scale(0.26458333)" />
  </g>
  <g
     inkscape:groupmode="layer"
     id="layer3"
     inkscape:label="grooming">
    <path
       id="path7338"
       style="fill:#fc857f;fill-opacity:1;stroke:none;stroke-width:20;stroke-linecap:round;stroke-linejoin:round;stroke-dashoffset:186.406;stroke-opacity:0.551402;paint-order:markers fill stroke"
       d="M 86.562773,6.5019569 C 86.9061,7.6832029 86.450835,8.5469736 86.450835,8.5469736 L 68.641269,88.537028 A 18.7138,18.7138 0 0 1 83.611299,101.48182 18.7138,18.7138 0 0 1 71.272813,124.89501 18.7138,18.7138 0 0 1 47.859774,112.55702 18.7138,18.7138 0 0 1 52.88851,93.454286 c 2.011337,-3.968839 2.87975,-8.582349 3.333065,-11.812334 0.588758,-4.195037 0.0073,-13.692526 0.186373,-15.400269 0.179087,-1.707747 0.573514,-3.482047 0.573514,-3.482047 l 12.32135,-49.372263 c 0,0 0.455281,-4.6261133 4.644464,-7.1040424 4.189182,-2.4779289 9.943549,-1.4281503 9.943549,-1.4281503 0,0 1.789886,-0.3181357 2.472279,1.122734 0.0853,0.1801101 0.15062,0.3552926 0.19967,0.524042 z M 74.780903,104.21732 a 9.469634,9.469634 0 0 0 -11.84779,-6.243444 9.469634,9.469634 0 0 0 -6.243439,11.847794 9.469634,9.469634 0 0 0 11.847788,6.24344 9.469634,9.469634 0 0 0 6.243441,-11.84779 z" />
    <path
       id="path7150"
       style="fill:#f25f5c;fill-opacity:1;stroke:none;stroke-width:75.5906;stroke-linecap:round;stroke-linejoin:round;stroke-dashoffset:186.406;stroke-opacity:0.551402;paint-order:markers fill stroke"
       d="m 446.12109,112.34961 c -4.64859,0.0816 -7.25781,2.69141 -7.25781,2.69141 L 169.99609,268.79883 a 70.729323,70.729323 0 0 0 -63.47656,-39.56836 70.729323,70.729323 0 0 0 -70.728514,70.73047 70.729323,70.729323 0 0 0 70.728514,70.72851 70.729323,70.729323 0 0 0 63.3418,-39.51953 c 12.07909,-11.7002 27.76385,-19.99514 38.91797,-25.24414 14.48673,-6.81729 49.4255,-15.34 55.39062,-17.89648 5.96513,-2.55649 11.92969,-5.96485 11.92969,-5.96485 l 164.4668,-99.70117 c 0,0 16.19231,-6.81752 20.45312,-24.71289 4.26081,-17.89537 -5.96484,-37.49609 -5.96484,-37.49609 0,0 -0.85325,-6.81777 -6.81836,-7.66992 -0.74564,-0.10652 -1.45115,-0.14642 -2.11524,-0.13477 z M 106.51953,264.16992 a 35.790743,35.790743 0 0 1 35.79102,35.79102 35.790743,35.790743 0 0 1 -35.79102,35.79101 35.790743,35.790743 0 0 1 -35.791014,-35.79101 35.790743,35.790743 0 0 1 35.791014,-35.79102 z"
       transform="scale(0.26458333)" />
  </g>
</svg>
