<?xml version="1.0" encoding="UTF-8" standalone="no"?>
<!-- Created with Inkscape (http://www.inkscape.org/) -->

<svg
   width="533.33331"
   height="533.33331"
   viewBox="0 0 141.1111 141.11111"
   version="1.1"
   id="svg1369"
   inkscape:version="1.1.1 (3bf5ae0d25, 2021-09-20)"
   sodipodi:docname="guerilla_render.svg"
   xmlns:inkscape="http://www.inkscape.org/namespaces/inkscape"
   xmlns:sodipodi="http://sodipodi.sourceforge.net/DTD/sodipodi-0.dtd"
   xmlns="http://www.w3.org/2000/svg"
   xmlns:svg="http://www.w3.org/2000/svg">
  <sodipodi:namedview
     id="namedview1371"
     pagecolor="#505050"
     bordercolor="#eeeeee"
     borderopacity="1"
     inkscape:pageshadow="0"
     inkscape:pageopacity="0"
     inkscape:pagecheckerboard="0"
     inkscape:document-units="mm"
     showgrid="false"
     units="px"
     fit-margin-top="0"
     fit-margin-left="0"
     fit-margin-right="0"
     fit-margin-bottom="0"
     inkscape:zoom="0.64052329"
     inkscape:cx="434.02013"
     inkscape:cy="81.964233"
     inkscape:window-width="1920"
     inkscape:window-height="1121"
     inkscape:window-x="-7"
     inkscape:window-y="-7"
     inkscape:window-maximized="1"
     inkscape:current-layer="svg1369" />
  <defs
     id="defs1366" />
  <path
     style="fill:#e6e6e6;stroke-width:0.352778"
     d="m 32.353537,122.50029 c 0.370172,-0.92164 2.199084,-5.8032 4.06425,-10.84792 1.865164,-5.04472 4.35007,-11.712221 5.522012,-14.816665 1.171946,-3.104444 2.571415,-6.835069 3.109937,-8.290277 0.538519,-1.455208 1.146471,-3.070112 1.351005,-3.588678 0.339033,-0.859564 0.25672,-1.030086 -0.93193,-1.930608 -0.717094,-0.54327 -8.826248,-6.984928 -18.020344,-14.314793 L 10.731929,55.38432 h 22.210518 22.210516 l 3.229345,-8.025694 c 1.776137,-4.414132 4.207287,-10.406944 5.402551,-13.31736 1.195264,-2.910417 2.606167,-6.402917 3.135334,-7.761111 2.478009,-6.360189 3.717684,-9.34633 3.879532,-9.34503 0.09701,7.7e-4 1.783567,4.008722 3.747897,8.906552 1.964326,4.897829 5.445555,13.547399 7.736059,19.221265 l 4.164556,10.316121 21.965473,0.09082 21.96547,0.09082 -16.23679,13.052777 c -8.93023,7.179027 -16.920476,13.589969 -17.7561,14.246542 l -1.519315,1.193764 0.653411,1.628458 c 0.359375,0.895649 2.179454,5.755957 4.044618,10.800678 1.865166,5.044718 4.353156,11.712218 5.528886,14.816668 1.17572,3.10444 2.49504,6.67809 2.93181,7.94144 0.43678,1.26334 1.04214,2.89053 1.34525,3.61597 0.3031,0.72543 0.49218,1.31898 0.42017,1.31898 -0.16347,0 -1.65634,-0.93654 -21.931095,-13.75834 -9.050919,-5.72381 -16.651078,-10.454327 -16.889242,-10.512253 -0.381603,-0.09281 -10.940714,6.464823 -32.332281,20.079633 -3.62166,2.30503 -6.6688,4.19096 -6.771422,4.19096 -0.102621,0 0.116284,-0.75406 0.486457,-1.67569 z"
     id="path2561"
     inkscape:label="guerila_render" />
</svg>
