<?xml version="1.0" encoding="UTF-8" standalone="no"?>
<!-- Created with Inkscape (http://www.inkscape.org/) -->

<svg
   width="469.08316"
   height="460.84781"
   viewBox="0 0 124.11158 121.93264"
   version="1.1"
   id="svg5"
   inkscape:version="1.1.1 (3bf5ae0d25, 2021-09-20)"
   sodipodi:docname="guess.svg"
   inkscape:export-filename="C:\Users\leo\Desktop\svgs\combobox.png"
   inkscape:export-xdpi="96"
   inkscape:export-ydpi="96"
   xmlns:inkscape="http://www.inkscape.org/namespaces/inkscape"
   xmlns:sodipodi="http://sodipodi.sourceforge.net/DTD/sodipodi-0.dtd"
   xmlns="http://www.w3.org/2000/svg"
   xmlns:svg="http://www.w3.org/2000/svg">
  <sodipodi:namedview
     id="namedview7"
     pagecolor="#505050"
     bordercolor="#eeeeee"
     borderopacity="1"
     inkscape:pageshadow="0"
     inkscape:pageopacity="0"
     inkscape:pagecheckerboard="0"
     inkscape:document-units="mm"
     showgrid="false"
     inkscape:zoom="0.70710678"
     inkscape:cx="-67.175144"
     inkscape:cy="160.51324"
     inkscape:window-width="1920"
     inkscape:window-height="1121"
     inkscape:window-x="-7"
     inkscape:window-y="-7"
     inkscape:window-maximized="1"
     inkscape:current-layer="svg5"
     fit-margin-top="50"
     fit-margin-left="50"
     fit-margin-right="50"
     fit-margin-bottom="50"
     lock-margins="true"
     units="px"
     showguides="false" />
  <defs
     id="defs2">
    <rect
       x="-190"
       y="50"
       width="409"
       height="109"
       id="rect62070" />
    <rect
       x="-268"
       y="6"
       width="249"
       height="367"
       id="rect60744" />
    <filter
       style="color-interpolation-filters:sRGB"
       inkscape:label="Drop Shadow"
       id="filter41397"
       x="-0.4636397"
       y="-0.4636397"
       width="2.0236785"
       height="2.0043981">
      <feFlood
         flood-opacity="0.498039"
         flood-color="rgb(0,0,0)"
         result="flood"
         id="feFlood41387" />
      <feComposite
         in="flood"
         in2="SourceGraphic"
         operator="in"
         result="composite1"
         id="feComposite41389" />
      <feGaussianBlur
         in="composite1"
         stdDeviation="3"
         result="blur"
         id="feGaussianBlur41391" />
      <feOffset
         dx="1.49701"
         dy="1.1976"
         result="offset"
         id="feOffset41393" />
      <feComposite
         in="SourceGraphic"
         in2="offset"
         operator="over"
         result="composite2"
         id="feComposite41395" />
    </filter>
    <filter
       style="color-interpolation-filters:sRGB"
       inkscape:label="Drop Shadow"
       id="filter48262"
       x="-0.11650321"
       y="-0.11797703"
       width="1.3759789"
       height="1.3795844">
      <feFlood
         flood-opacity="0.211765"
         flood-color="rgb(0,0,0)"
         result="flood"
         id="feFlood48252" />
      <feComposite
         in="flood"
         in2="SourceGraphic"
         operator="in"
         result="composite1"
         id="feComposite48254" />
      <feGaussianBlur
         in="composite1"
         stdDeviation="1"
         result="blur"
         id="feGaussianBlur48256" />
      <feOffset
         dx="0.7"
         dy="0.7"
         result="offset"
         id="feOffset48258" />
      <feComposite
         in="SourceGraphic"
         in2="offset"
         operator="over"
         result="composite2"
         id="feComposite48260" />
    </filter>
    <rect
       x="-268"
       y="6"
       width="249"
       height="367"
       id="rect71674" />
    <rect
       x="-268"
       y="6"
       width="249"
       height="367"
       id="rect72688" />
  </defs>
  <path
     style="fill:#d9d9d9;stroke-width:0.213526;fill-opacity:1"
     d="m 48.069866,115.32623 c -1.134754,-0.50651 -1.818741,-1.46106 -2.345692,-3.27358 -1.657008,-5.69949 -5.499183,-9.58347 -11.25462,-11.37705 -1.788345,-0.55731 -2.170334,-0.762361 -2.808013,-1.507348 -1.253173,-1.464049 -1.251945,-2.983121 0.0036,-4.449937 0.60309,-0.704577 1.009289,-0.937358 2.270604,-1.301227 6.261289,-1.806286 10.080696,-5.625693 11.886982,-11.886982 0.364481,-1.263442 0.596208,-1.667136 1.305431,-2.274202 1.465149,-1.254112 2.983061,-1.251992 4.452999,0.0062 0.731667,0.626277 0.945763,1.015837 1.423911,2.59089 1.00161,3.299373 2.39881,5.583623 4.74268,7.753686 1.693096,1.567547 4.574041,3.137882 7.007682,3.819723 1.227377,0.343876 1.673293,0.591203 2.283336,1.266448 0.899895,0.996075 1.15484,2.053885 0.789169,3.274385 -0.373044,1.24511 -1.286693,1.997892 -3.0734,2.532274 -4.184213,1.25143 -7.293244,3.41718 -9.457821,6.58832 -0.96742,1.41729 -1.469189,2.486 -2.111471,4.4972 -0.759291,2.3776 -1.254064,3.15359 -2.319157,3.6373 -1.028275,0.46699 -1.909389,0.49972 -2.796216,0.10388 z M 90.849249,87.012621 c -1.017125,-0.537363 -1.516685,-1.38759 -2.193301,-3.732874 -2.11155,-7.319065 -7.697753,-12.93882 -14.877762,-14.967121 -1.10384,-0.311826 -2.3116,-0.7502 -2.683914,-0.974165 -0.943672,-0.567664 -1.565085,-1.707895 -1.565085,-2.871774 0,-1.951319 1.049245,-3.009998 3.66651,-3.699474 4.081172,-1.075121 8.622013,-3.933229 11.113007,-6.994782 2.342171,-2.878641 3.403782,-4.90931 4.443833,-8.500238 0.505675,-1.745911 0.752502,-2.258947 1.353662,-2.81361 1.452837,-1.340466 3.309034,-1.341543 4.741524,-0.0028 0.580341,0.542378 0.840155,1.07253 1.275589,2.602838 1.518566,5.336923 4.541298,9.715844 8.611418,12.47506 1.87114,1.26848 4.90584,2.660876 7.03595,3.228269 2.60426,0.69369 3.67604,1.767224 3.65756,3.663514 -0.0104,1.06746 -0.50052,2.085588 -1.30833,2.717861 -0.31346,0.245347 -1.41845,0.691923 -2.45554,0.99239 -2.58438,0.748755 -4.40126,1.54057 -6.18982,2.697584 -1.86948,1.20936 -4.27779,3.455337 -5.675895,5.293295 -1.347818,1.771859 -3.004832,5.172104 -3.589918,7.366633 -0.250485,0.939512 -0.662728,2.027051 -0.916097,2.416755 -0.930077,1.430534 -2.898245,1.91892 -4.443391,1.102593 z M 39.509902,71.025311 C 38.541201,70.434603 38.001658,69.643499 37.708398,68.383861 34.761655,55.726683 25.258781,45.923416 12.827444,42.716403 10.530008,42.123715 9.8962308,41.772912 9.1548275,40.683564 8.2557714,39.362578 8.6565967,37.257595 10.008744,36.199119 c 0.322856,-0.252735 1.449216,-0.69026 2.503022,-0.972278 7.155216,-1.914861 12.873378,-5.388739 17.465312,-10.610467 3.752076,-4.266683 6.002785,-8.673596 7.825924,-15.3232424 0.797341,-2.908195 3.649582,-3.8848414 5.716055,-1.9572558 0.753636,0.7029848 0.91769,1.0489747 1.48229,3.1261552 1.968452,7.241983 5.613669,13.08744 10.957885,17.572019 4.313008,3.619246 8.313361,5.670119 14.059336,7.207842 2.803736,0.750329 3.924618,1.949346 3.728674,3.988588 -0.146931,1.529131 -1.010433,2.516414 -2.632935,3.010367 -6.547284,1.99324 -8.525381,2.852676 -12.125153,5.268095 -4.713996,3.163057 -8.80913,7.828431 -11.339727,12.918765 -1.431956,2.880403 -1.911327,4.158492 -2.787025,7.430689 -0.529138,1.977214 -0.993687,2.712398 -2.066691,3.27068 -0.82833,0.43098 -2.495207,0.378339 -3.285809,-0.103765 z"
     id="path979"
     inkscape:label="guess" />
</svg>
