<?xml version="1.0" encoding="UTF-8" standalone="no"?>
<!-- Created with Inkscape (http://www.inkscape.org/) -->

<svg
   width="533.33331"
   height="533.33331"
   viewBox="0 0 141.1111 141.11111"
   version="1.1"
   id="svg1369"
   inkscape:version="1.1.1 (3bf5ae0d25, 2021-09-20)"
   sodipodi:docname="houdini.svg"
   xmlns:inkscape="http://www.inkscape.org/namespaces/inkscape"
   xmlns:sodipodi="http://sodipodi.sourceforge.net/DTD/sodipodi-0.dtd"
   xmlns="http://www.w3.org/2000/svg"
   xmlns:svg="http://www.w3.org/2000/svg">
  <sodipodi:namedview
     id="namedview1371"
     pagecolor="#505050"
     bordercolor="#eeeeee"
     borderopacity="1"
     inkscape:pageshadow="0"
     inkscape:pageopacity="0"
     inkscape:pagecheckerboard="0"
     inkscape:document-units="mm"
     showgrid="false"
     units="px"
     fit-margin-top="0"
     fit-margin-left="0"
     fit-margin-right="0"
     fit-margin-bottom="0"
     inkscape:zoom="0.64052329"
     inkscape:cx="-6.2448939"
     inkscape:cy="358.30079"
     inkscape:window-width="1920"
     inkscape:window-height="1121"
     inkscape:window-x="-7"
     inkscape:window-y="-7"
     inkscape:window-maximized="1"
     inkscape:current-layer="svg1369" />
  <defs
     id="defs1366" />
  <path
     style="fill:#e6e6e6;stroke-width:0.352778"
     d="m 19.050001,113.56488 v -8.49622 l 1.836388,2.74563 c 3.586659,5.3625 8.932535,10.18195 14.266402,12.86153 l 2.757498,1.38528 h -9.430144 -9.430144 z m 60.677774,8.35336 c 0,-0.0786 0.75406,-0.57587 1.67569,-1.10508 7.09854,-4.07608 13.99091,-11.41519 17.74402,-18.89413 3.440235,-6.855493 4.757875,-12.791698 4.455855,-20.074588 -0.26926,-6.49303 -1.30695,-10.40992 -4.277345,-16.14545 -4.35935,-8.41742 -12.56706,-16.29678 -21.82433,-20.95124 -18.19614,-9.14884 -37.366184,-8.17779 -55.541248,2.8134 l -2.910416,1.76005 v -15.1356 -15.1356 H 70.555555 122.0611 v 51.50555 51.505548 h -21.16667 c -11.641655,0 -21.166655,-0.0643 -21.166655,-0.14286 z m -25.58626,-6.19715 C 42.608245,114.07854 34.424738,107.85041 30.86684,98.007718 28.288083,90.873752 29.843182,83.996602 35.240678,78.665192 c 4.418309,-4.36422 10.473895,-6.88663 17.536507,-7.30472 4.03811,-0.23905 6.12421,0.38199 8.5207,2.53664 2.46921,2.22004 3.68963,4.66453 3.89037,7.79239 0.15088,2.35117 0.0773,2.69887 -0.99812,4.71657 -2.92519,5.488226 -8.82558,8.225143 -12.12947,5.626304 -1.21146,-0.952934 -2.27686,-3.079254 -2.553255,-5.095774 -0.275901,-2.01289 -1.091481,-3.06369 -2.377895,-3.06369 -4.108355,0 -7.503576,9.364348 -5.172484,14.266198 0.952606,2.00315 3.538647,4.49616 5.910894,5.69827 5.51263,2.79346 13.71562,2.76661 18.96508,-0.0621 8.6634,-4.66831 14.0543,-17.700578 11.48214,-27.757608 -2.07002,-8.0937 -8.01527,-13.51465 -18.24271,-16.63392 -2.83357,-0.86421 -3.62728,-0.94742 -9.27244,-0.97208 -5.52093,-0.0241 -6.453325,0.06 -8.819441,0.79576 -7.309394,2.27285 -15.757634,8.74601 -20.959534,16.05949 l -1.971019,2.7711 v -7.56392 -7.56392 l 2.381249,-2.2751 c 5.892218,-5.62956 13.307738,-9.43839 21.960514,-11.27954 5.571666,-1.18555 13.650101,-1.1154 18.495551,0.16061 12.5141,3.2955 21.91132,12.79199 25.24217,25.50881 2.84199,10.85041 0.78722,22.739114 -5.34542,30.928058 -3.04134,4.06111 -8.63432,7.53819 -14.5799,9.06412 -3.20792,0.82332 -9.74931,1.17583 -13.06265,0.70395 z"
     id="path2715"
     inkscape:label="houdini" />
</svg>
