<?xml version="1.0" encoding="UTF-8" standalone="no"?>
<!-- Created with Inkscape (http://www.inkscape.org/) -->

<svg
   width="500mm"
   height="500mm"
   viewBox="0 0 499.99999 500"
   version="1.1"
   id="svg1031"
   inkscape:version="1.2.1 (9c6d41e410, 2022-07-14)"
   sodipodi:docname="important.svg"
   xml:space="preserve"
   xmlns:inkscape="http://www.inkscape.org/namespaces/inkscape"
   xmlns:sodipodi="http://sodipodi.sourceforge.net/DTD/sodipodi-0.dtd"
   xmlns="http://www.w3.org/2000/svg"
   xmlns:svg="http://www.w3.org/2000/svg"><sodipodi:namedview
     id="namedview1033"
     pagecolor="#505050"
     bordercolor="#eeeeee"
     borderopacity="1"
     inkscape:pageshadow="0"
     inkscape:pageopacity="0"
     inkscape:pagecheckerboard="0"
     inkscape:document-units="mm"
     showgrid="false"
     fit-margin-top="50"
     lock-margins="true"
     fit-margin-left="50"
     fit-margin-right="50"
     fit-margin-bottom="50"
     inkscape:zoom="0.26051305"
     inkscape:cx="44.143662"
     inkscape:cy="948.12909"
     inkscape:window-width="1920"
     inkscape:window-height="1121"
     inkscape:window-x="-7"
     inkscape:window-y="-7"
     inkscape:window-maximized="1"
     inkscape:current-layer="svg1031"
     inkscape:showpageshadow="0"
     inkscape:deskcolor="#505050" /><defs
     id="defs1028" /><path
     id="rect3298"
     style="fill:#b6864e;fill-opacity:1;stroke-width:2;stroke-linecap:round;paint-order:stroke fill markers"
     d="m 232.73436,327.18745 h 34.53128 c 20.53692,0 37.07025,16.53333 37.07025,37.07026 v 33.5156 c 0,20.53692 -16.53333,37.07025 -37.07025,37.07025 h -34.53128 c -20.53692,0 -37.07025,-16.53333 -37.07025,-37.07025 v -33.5156 c 0,-20.53693 16.53333,-37.07026 37.07025,-37.07026 z M 229.96942,65.156438 h 40.06115 c 19.00515,0 34.30532,15.300172 34.30532,34.305314 V 268.50716 c 0,19.00514 -15.30017,34.30531 -34.30532,34.30531 h -40.06115 c -19.00514,0 -34.30531,-15.30017 -34.30531,-34.30531 V 99.461752 c 0,-19.005142 15.30017,-34.305314 34.30531,-34.305314 z"
     inkscape:label="important" /></svg>
