<?xml version="1.0" encoding="UTF-8" standalone="no"?>
<!-- Created with Inkscape (http://www.inkscape.org/) -->

<svg
   width="505.67874"
   height="505.67874"
   viewBox="0 0 133.79416 133.79415"
   version="1.1"
   id="svg5"
   inkscape:version="1.1.1 (3bf5ae0d25, 2021-09-20)"
   sodipodi:docname="info.svg"
   xmlns:inkscape="http://www.inkscape.org/namespaces/inkscape"
   xmlns:sodipodi="http://sodipodi.sourceforge.net/DTD/sodipodi-0.dtd"
   xmlns="http://www.w3.org/2000/svg"
   xmlns:svg="http://www.w3.org/2000/svg">
  <sodipodi:namedview
     id="namedview7"
     pagecolor="#505050"
     bordercolor="#eeeeee"
     borderopacity="1"
     inkscape:pageshadow="0"
     inkscape:pageopacity="0"
     inkscape:pagecheckerboard="0"
     inkscape:document-units="mm"
     showgrid="false"
     inkscape:zoom="1.1536234"
     inkscape:cx="219.30901"
     inkscape:cy="204.13941"
     inkscape:window-width="1920"
     inkscape:window-height="1121"
     inkscape:window-x="-7"
     inkscape:window-y="-7"
     inkscape:window-maximized="1"
     inkscape:current-layer="svg5"
     fit-margin-top="50"
     fit-margin-left="50"
     fit-margin-right="50"
     fit-margin-bottom="50"
     lock-margins="true"
     units="px" />
  <defs
     id="defs2" />
  <path
     id="path26781"
     style="opacity:1;fill:#d9d9d9;fill-opacity:1;stroke:none;stroke-width:7.47836;stroke-linecap:round;stroke-linejoin:round;stroke-miterlimit:4;stroke-dasharray:none;stroke-dashoffset:0;stroke-opacity:1;paint-order:normal"
     d="M 66.897087,13.229167 A 53.667852,53.667852 0 0 0 13.229166,66.897086 53.667852,53.667852 0 0 0 66.897087,120.565 53.667852,53.667852 0 0 0 120.565,66.897086 53.667852,53.667852 0 0 0 66.897087,13.229167 Z m -0.552882,17.193479 a 9.6823447,9.6823447 0 0 1 9.681929,9.681929 9.6823447,9.6823447 0 0 1 -9.681929,9.682551 9.6823447,9.6823447 0 0 1 -9.682552,-9.682551 9.6823447,9.6823447 0 0 1 9.682552,-9.681929 z m -10.252261,22.68425 h 14.141115 c 1.945284,0 3.614096,1.140329 4.378776,2.791197 0.372834,0.685361 0.584668,1.471915 0.584668,2.309999 v 40.698636 c 0,2.672902 -2.152161,4.825072 -4.82507,4.825072 h -8.331832 c -2.672905,0 -4.824447,-2.15217 -4.824447,-4.825072 v -31.96788 h -1.12321 c -2.672906,0 -4.825071,-2.152165 -4.825071,-4.825074 v -4.18243 c 0,-2.672909 2.152165,-4.824448 4.825071,-4.824448 z"
     inkscape:label="info" />
</svg>
