<?xml version="1.0" encoding="UTF-8" standalone="no"?>
<!-- Created with Inkscape (http://www.inkscape.org/) -->

<svg
   width="469.08316"
   height="460.84781"
   viewBox="0 0 124.11158 121.93264"
   version="1.1"
   id="svg5"
   inkscape:version="1.1.1 (3bf5ae0d25, 2021-09-20)"
   sodipodi:docname="isolate.svg"
   inkscape:export-filename="C:\Users\leo\Desktop\svgs\combobox.png"
   inkscape:export-xdpi="96"
   inkscape:export-ydpi="96"
   xmlns:inkscape="http://www.inkscape.org/namespaces/inkscape"
   xmlns:sodipodi="http://sodipodi.sourceforge.net/DTD/sodipodi-0.dtd"
   xmlns="http://www.w3.org/2000/svg"
   xmlns:svg="http://www.w3.org/2000/svg">
  <sodipodi:namedview
     id="namedview7"
     pagecolor="#505050"
     bordercolor="#eeeeee"
     borderopacity="1"
     inkscape:pageshadow="0"
     inkscape:pageopacity="0"
     inkscape:pagecheckerboard="0"
     inkscape:document-units="mm"
     showgrid="false"
     inkscape:zoom="0.70710678"
     inkscape:cx="140.71425"
     inkscape:cy="160.51324"
     inkscape:window-width="1920"
     inkscape:window-height="1121"
     inkscape:window-x="-7"
     inkscape:window-y="-7"
     inkscape:window-maximized="1"
     inkscape:current-layer="svg5"
     fit-margin-top="50"
     fit-margin-left="50"
     fit-margin-right="50"
     fit-margin-bottom="50"
     lock-margins="true"
     units="px"
     showguides="false" />
  <defs
     id="defs2">
    <rect
       x="-190"
       y="50"
       width="409"
       height="109"
       id="rect62070" />
    <rect
       x="-268"
       y="6"
       width="249"
       height="367"
       id="rect60744" />
    <filter
       style="color-interpolation-filters:sRGB"
       inkscape:label="Drop Shadow"
       id="filter41397"
       x="-0.4636397"
       y="-0.4636397"
       width="2.0236785"
       height="2.0043981">
      <feFlood
         flood-opacity="0.498039"
         flood-color="rgb(0,0,0)"
         result="flood"
         id="feFlood41387" />
      <feComposite
         in="flood"
         in2="SourceGraphic"
         operator="in"
         result="composite1"
         id="feComposite41389" />
      <feGaussianBlur
         in="composite1"
         stdDeviation="3"
         result="blur"
         id="feGaussianBlur41391" />
      <feOffset
         dx="1.49701"
         dy="1.1976"
         result="offset"
         id="feOffset41393" />
      <feComposite
         in="SourceGraphic"
         in2="offset"
         operator="over"
         result="composite2"
         id="feComposite41395" />
    </filter>
    <filter
       style="color-interpolation-filters:sRGB"
       inkscape:label="Drop Shadow"
       id="filter48262"
       x="-0.11650321"
       y="-0.11797703"
       width="1.3759789"
       height="1.3795844">
      <feFlood
         flood-opacity="0.211765"
         flood-color="rgb(0,0,0)"
         result="flood"
         id="feFlood48252" />
      <feComposite
         in="flood"
         in2="SourceGraphic"
         operator="in"
         result="composite1"
         id="feComposite48254" />
      <feGaussianBlur
         in="composite1"
         stdDeviation="1"
         result="blur"
         id="feGaussianBlur48256" />
      <feOffset
         dx="0.7"
         dy="0.7"
         result="offset"
         id="feOffset48258" />
      <feComposite
         in="SourceGraphic"
         in2="offset"
         operator="over"
         result="composite2"
         id="feComposite48260" />
    </filter>
    <rect
       x="-268"
       y="6"
       width="249"
       height="367"
       id="rect71674" />
    <rect
       x="-268"
       y="6"
       width="249"
       height="367"
       id="rect72688" />
  </defs>
  <path
     id="path1478"
     style="display:inline;fill:#d9d9d9;stroke-width:0.678626;fill-opacity:1"
     d="m 123.89453,56.673828 c -18.83412,9.92e-4 -37.672858,0.231524 -40.105468,0.689453 -10.922702,2.056154 -20.324617,11.200461 -22.316406,21.703125 -0.907593,4.786594 -0.904374,75.320024 0.0039,80.109374 2.073748,10.93483 10.345288,19.41059 21.152344,21.67774 v 0.002 c 1.613802,0.33857 4.85918,0.4681 7.210938,0.28906 10.850206,-0.826 19.207366,-7.01632 23.398436,-17.33008 1.4135,-3.47842 1.49276,-4.80001 1.70899,-28.24804 l 0.22656,-24.60157 h 22.93555 c 12.66408,0 24.57339,-0.30713 26.59179,-0.6875 13.91838,-2.6229 23.4988,-16.076018 21.57031,-30.287106 -1.50055,-11.057616 -10.74542,-20.439799 -22.29882,-22.630859 -2.41329,-0.457739 -21.24401,-0.686539 -40.07813,-0.685547 z m 211.4707,0.06641 c -27.76028,-0.07747 -30.56487,0.38929 -35.86718,3.076172 -19.60952,9.936862 -19.62161,38.113741 -0.0215,47.986324 5.59025,2.81581 9.14314,3.16211 32.46094,3.16211 h 22.02344 v 22.30274 c 0,12.26613 0.30749,23.92503 0.68359,25.9082 2.07374,10.93483 10.34528,19.41059 21.15235,21.67774 9.99301,2.09637 21.98647,-2.76929 27.55859,-11.18164 4.66787,-7.0471 4.55664,-5.79784 4.55664,-50.5625 0,-37.108797 -0.1,-40.66144 -1.2207,-43.873052 -2.66151,-7.626837 -8.37183,-13.601013 -15.91407,-16.646484 -3.89828,-1.574079 -3.95406,-1.576351 -41.90625,-1.789063 -5.06442,-0.02839 -9.5401,-0.04948 -13.50586,-0.06055 z M 234.54492,170.97852 c -32.56288,0 -59.44726,26.88438 -59.44726,59.44726 0,32.56288 26.88438,59.44531 59.44726,59.44531 32.56288,0 59.44531,-26.88243 59.44531,-59.44531 0,-32.56288 -26.88243,-59.44726 -59.44531,-59.44726 z M 87.939453,279.73047 c -11.668603,0 -20.866456,6.20016 -25.230469,17.00781 -1.575673,3.90224 -1.576424,3.91573 -1.777343,42.43164 -0.210429,40.33557 -0.02829,43.59466 2.738281,49.26172 3.306814,6.77378 12.092659,13.4974 19.548828,14.95898 4.350077,0.85282 76.98767,0.89981 81.48242,0.0527 13.91837,-2.62288 23.4988,-16.07405 21.57031,-30.28516 -1.50055,-11.05759 -10.74543,-20.44177 -22.29882,-22.63281 -1.98318,-0.3761 -13.77346,-0.68359 -26.20118,-0.68359 h -22.59765 l -0.23047,-24.59961 c -0.2232,-23.8077 -0.28055,-24.72614 -1.79102,-28.50391 -4.31102,-10.78214 -13.538939,-17.00781 -25.212887,-17.00781 z m 293.166017,0.004 c -11.66931,-0.007 -20.90274,6.21902 -25.21485,17.0039 -1.51047,3.77776 -1.56787,4.69621 -1.79101,28.50391 l -0.23047,24.59961 h -21.97656 c -23.27017,0 -26.82747,0.34715 -32.41602,3.16211 -22.27871,11.22178 -18.37862,44.04584 5.96289,50.1875 2.56976,0.64837 13.02562,0.82489 43.0918,0.72851 l 39.69922,-0.12695 4.41406,-2.0918 c 4.87994,-2.31269 10.18542,-7.16976 12.24609,-11.20898 3.27565,-6.42112 3.43501,-8.91563 3.22071,-50.72852 -0.19729,-38.53265 -0.22326,-39.17714 -1.69531,-42.77148 -4.58382,-11.19222 -13.46816,-17.25026 -25.31055,-17.25781 z"
     transform="scale(0.26458333)"
     inkscape:label="isolate" />
</svg>
