<?xml version="1.0" encoding="UTF-8" standalone="no"?>
<!-- Created with Inkscape (http://www.inkscape.org/) -->

<svg
   width="469.08316"
   height="460.84781"
   viewBox="0 0 124.11158 121.93264"
   version="1.1"
   id="svg5"
   inkscape:version="1.1.1 (3bf5ae0d25, 2021-09-20)"
   sodipodi:docname="launch.svg"
   inkscape:export-filename="C:\Users\leo\Desktop\svgs\combobox.png"
   inkscape:export-xdpi="96"
   inkscape:export-ydpi="96"
   xmlns:inkscape="http://www.inkscape.org/namespaces/inkscape"
   xmlns:sodipodi="http://sodipodi.sourceforge.net/DTD/sodipodi-0.dtd"
   xmlns="http://www.w3.org/2000/svg"
   xmlns:svg="http://www.w3.org/2000/svg">
  <path
     id="path920"
     style="color:#000000;fill:#d9d9d9;stroke-width:7.55906;-inkscape-stroke:none"
     d="m 298.7168,30.560547 c -3.59007,0.15526 -7.44901,1.467218 -12.52735,3.367187 -14.57064,5.451343 -19.84786,7.79446 -31.38867,13.921875 -46.22481,24.542374 -83.5335,66.160561 -102.41601,114.287111 -6.35553,16.19856 -12.58251,39.65251 -14.81641,55.90234 l -0.0801,0.60547 -8.69726,1.9043 c -6.33217,1.38687 -13.16901,3.15934 -16.37891,4.41406 -16.571694,6.47771 -30.819056,20.06732 -38.400391,36.54883 -0.84347,1.83367 -2.045521,5.43379 -3.972657,11.12305 -1.927135,5.68925 -4.335388,12.9752 -6.783203,20.4707 -4.895625,14.991 -9.885033,30.6457 -11.427734,36.25976 -1.737948,6.32452 -1.699882,13.34061 0.05273,19.8711 4.390874,16.36095 21.230624,27.85954 38.376953,26.38281 3.466122,-0.29851 6.944379,-1.21018 12.216798,-3.55664 5.27242,-2.34645 12.55853,-6.14699 24.44141,-12.54297 l 9.65625,-5.19531 1.18945,2.08008 c 3.78117,6.60568 7.55178,10.7371 13.72851,15.02929 2.32632,1.61655 5.16829,2.92346 12.50586,5.16797 7.33758,2.24452 19.51608,5.58202 41.36133,11.49414 13.30705,3.6014 25.94185,6.91275 35.58789,9.34571 4.82302,1.21647 8.8913,2.21208 11.95117,2.92187 3.05988,0.7098 4.53875,1.12889 6.26758,1.24024 8.02063,0.51651 14.28574,-0.99469 22.58008,-5.34375 l 3.88281,-2.03711 5.81836,9.41992 c 7.0766,11.45484 11.47714,18.38136 14.86719,23.04492 3.39005,4.66356 5.95258,7.19227 8.80469,9.18359 8.80115,6.14491 20.21649,7.96171 31.0039,5.08594 12.28094,-3.2739 22.11814,-13.37918 25.39453,-25.92578 1.4715,-5.6349 4.9823,-21.68401 8.23829,-37.11523 1.62799,-7.71561 3.1875,-15.236 4.36328,-21.12696 1.17573,-5.89095 1.93078,-9.60926 2.11719,-11.61914 1.67512,-18.06408 -3.86388,-36.95 -14.97657,-50.8457 -2.14802,-2.68601 -7.16002,-7.6163 -11.9082,-11.94531 l -6.5625,-5.98633 0.25977,-0.69336 c 17.945,-48.50728 21.74391,-88.08376 12.62304,-132.54883 -7.89852,-38.50571 -25.00895,-72.979873 -51.37109,-103.539062 -4.02245,-4.662864 -7.35831,-7.894737 -12.04688,-8.798828 -1.17214,-0.226023 -2.33846,-0.303706 -3.53515,-0.251953 z m -4.82227,34.6875 1.66992,2.015625 c 10.78894,13.055376 22.27614,32.711134 28.99414,49.666018 15.43488,38.95448 17.85525,81.65523 6.91797,121.94922 -9.09379,33.50239 -33.14963,84.67965 -56.50781,119.97656 -1.33426,2.01623 -2.78796,4.0473 -4.00977,5.64062 -1.2218,1.59333 -2.58537,2.97592 -2.2871,2.73829 -1.72949,1.37786 -6.57973,2.65493 -9.59766,2.1914 0.17533,0.0268 -1.86752,-0.41415 -4.45899,-1.0625 -2.59146,-0.64835 -6.1205,-1.555 -10.32617,-2.65039 -8.41134,-2.19078 -19.52192,-5.13752 -31.29297,-8.31055 -15.38215,-4.14643 -26.25523,-7.16643 -33.46093,-9.30859 -3.60285,-1.07108 -6.29589,-1.92509 -8.12696,-2.57031 -1.83106,-0.64522 -3.0697,-1.40062 -2.50976,-0.97461 -2.14943,-1.6353 -3.02516,-2.68257 -3.81055,-4.88672 -0.78539,-2.20415 -1.28391,-5.78751 -1.57812,-11.60352 -0.1445,-2.85635 -0.27183,-5.56955 -0.35547,-7.70703 1.30938,0.25629 2.36898,0.43843 4.6875,0.99024 6.95904,1.65627 18.67801,4.71593 37.41211,9.71289 20.68989,5.51863 32.5039,8.62294 39.61132,10.27734 7.10743,1.6544 9.79246,2.07633 12.39454,1.36524 5.48815,-1.49981 9.74726,-5.83272 11.22656,-11.35352 0.64443,-2.40506 0.58481,-4.8713 0.22851,-7.22656 -0.35629,-2.35527 -0.55023,-4.4813 -2.84179,-6.58594 -0.13198,-0.12121 -1.28153,-1.29041 -2.06641,-2.1543 -1.04118,-1.14598 -1.55297,-1.18373 -2.26562,-1.50586 -0.71266,-0.32213 -1.53913,-0.64172 -2.5918,-1.01171 -2.10534,-0.73999 -5.07593,-1.6639 -9.16797,-2.86524 -8.18409,-2.40268 -20.83554,-5.88855 -39.50781,-10.91016 l -47.25196,-12.71093 0.32422,-7.30078 c 1.32739,-29.30364 6.15158,-63.64519 11.73828,-84.16797 10.85526,-39.87686 35.23185,-76.18941 68.23047,-101.605472 13.87234,-10.68469 34.57502,-22.304705 48.46289,-27.289062 z m -35.51172,73.054683 c -9.54113,0.157 -18.47751,2.7104 -27.18945,7.74024 -16.73581,9.66243 -27.09949,26.20061 -28.36133,45.31836 -1.82308,27.62108 16.67234,52.0501 44.07813,58.39844 10.92309,2.53025 20.63481,1.99434 31.21679,-1.72071 28.37254,-9.96081 43.55872,-40.20357 35.08594,-69.5957 -2.13958,-7.42237 -7.966,-17.67776 -13.19727,-23.00195 -8.2084,-8.35415 -20.76986,-14.9079 -31.875,-16.5 -3.32879,-0.47724 -6.57743,-0.69101 -9.75781,-0.63868 z m 0.46485,32.08985 c 0.94751,-0.007 1.8914,0.0439 2.82617,0.15039 11.21724,1.27721 21.16907,10.50653 22.01172,22.77344 0.29858,4.3469 -2.56218,13.2831 -5.28516,16.58789 -2.74039,3.32593 -8.37276,7.23177 -11.62695,8.28906 -6.76999,2.19957 -15.46922,0.83531 -21.92383,-3.63867 -3.87594,-2.68658 -3.80273,-2.62393 -6.50391,-7.38281 -3.80757,-6.70817 -4.40901,-10.55166 -2.8125,-17.58204 1.92424,-8.47345 6.79438,-14.22126 14.79492,-17.48828 2.79779,-1.14247 5.67698,-1.68781 8.51954,-1.70898 z m -125.83985,81.85351 c -0.0625,1.68623 -0.15135,3.60645 -0.34765,5.89063 -1.598,18.59589 -2.38182,46.9054 -1.625,60.37695 0.0573,1.01898 0.0206,1.88101 -0.0293,2.57617 -0.20678,0.10787 -0.34334,0.18137 -0.58984,0.31055 -1.22522,0.64201 -2.92867,1.53924 -4.99805,2.63477 -4.13876,2.19105 -9.72799,5.16304 -15.76758,8.38672 -6.8664,3.66498 -12.488716,6.58586 -16.490234,8.57031 -2.000757,0.99222 -3.602061,1.75044 -4.703125,2.23633 -0.45442,0.20054 -0.760905,0.32324 -1.011719,0.41992 -2.551237,-0.0532 -3.908397,-0.96548 -4.783203,-3.45313 0.19646,0.55861 -0.0797,-0.71176 1.210938,-5.45703 1.290641,-4.74527 3.787253,-12.76636 8.113281,-26.30078 2.781158,-8.70116 5.584457,-17.14404 7.845703,-23.71094 1.130629,-3.28344 2.129529,-6.09997 2.916019,-8.23047 0.78648,-2.13049 1.46235,-3.73923 1.55078,-3.91211 3.36196,-6.57271 7.40843,-10.68097 15.08203,-15.11132 5.18023,-2.99081 7.20211,-3.82785 11.5957,-4.82813 0.76691,-0.17461 1.33898,-0.26366 2.03125,-0.39844 z m 206.76563,55.40821 c 0.53189,0.46266 0.98204,0.825 1.55859,1.35937 3.30483,3.06306 4.64201,4.80025 7.63281,9.98047 4.43035,7.67361 5.88069,13.25189 5.50586,20.625 -0.0468,0.91958 -0.96378,6.60772 -2.31836,13.48633 -1.35457,6.87861 -3.14385,15.41457 -4.97461,23.76953 -1.83075,8.35497 -3.70407,16.53675 -5.20507,22.69141 -0.7505,3.07733 -1.40737,5.64986 -1.91211,7.44921 -0.22938,0.81778 -0.40855,1.41707 -0.55274,1.85157 -1.86884,1.74663 -2.95143,1.99544 -5.58008,0.85742 -0.60382,-0.26154 -0.46448,-0.0385 -1.80859,-1.86719 -1.34411,-1.82861 -3.59684,-5.35538 -7.54492,-11.70117 -4.79467,-7.70657 -10.94077,-17.71428 -13.61914,-22.16016 l -3.72852,-6.17773 2.51758,-4.04688 c 8.68785,-13.9624 19.66578,-34.3542 27.38672,-50.8457 0.97077,-2.07351 1.85422,-3.78077 2.64258,-5.27148 z"
     transform="scale(0.26458333)"
     inkscape:label="launch" />
  <sodipodi:namedview
     id="namedview7"
     pagecolor="#505050"
     bordercolor="#eeeeee"
     borderopacity="1"
     inkscape:pageshadow="0"
     inkscape:pageopacity="0"
     inkscape:pagecheckerboard="0"
     inkscape:document-units="mm"
     showgrid="false"
     inkscape:zoom="0.5"
     inkscape:cx="849"
     inkscape:cy="-93"
     inkscape:window-width="1920"
     inkscape:window-height="1121"
     inkscape:window-x="-7"
     inkscape:window-y="-7"
     inkscape:window-maximized="1"
     inkscape:current-layer="svg5"
     fit-margin-top="50"
     fit-margin-left="50"
     fit-margin-right="50"
     fit-margin-bottom="50"
     lock-margins="true"
     units="px"
     showguides="false" />
  <defs
     id="defs2">
    <rect
       x="-190"
       y="50"
       width="409"
       height="109"
       id="rect62070" />
    <rect
       x="-268"
       y="6"
       width="249"
       height="367"
       id="rect60744" />
    <filter
       style="color-interpolation-filters:sRGB"
       inkscape:label="Drop Shadow"
       id="filter41397"
       x="-0.4636397"
       y="-0.4636397"
       width="2.0236785"
       height="2.0043981">
      <feFlood
         flood-opacity="0.498039"
         flood-color="rgb(0,0,0)"
         result="flood"
         id="feFlood41387" />
      <feComposite
         in="flood"
         in2="SourceGraphic"
         operator="in"
         result="composite1"
         id="feComposite41389" />
      <feGaussianBlur
         in="composite1"
         stdDeviation="3"
         result="blur"
         id="feGaussianBlur41391" />
      <feOffset
         dx="1.49701"
         dy="1.1976"
         result="offset"
         id="feOffset41393" />
      <feComposite
         in="SourceGraphic"
         in2="offset"
         operator="over"
         result="composite2"
         id="feComposite41395" />
    </filter>
    <filter
       style="color-interpolation-filters:sRGB"
       inkscape:label="Drop Shadow"
       id="filter48262"
       x="-0.11650321"
       y="-0.11797703"
       width="1.3759789"
       height="1.3795844">
      <feFlood
         flood-opacity="0.211765"
         flood-color="rgb(0,0,0)"
         result="flood"
         id="feFlood48252" />
      <feComposite
         in="flood"
         in2="SourceGraphic"
         operator="in"
         result="composite1"
         id="feComposite48254" />
      <feGaussianBlur
         in="composite1"
         stdDeviation="1"
         result="blur"
         id="feGaussianBlur48256" />
      <feOffset
         dx="0.7"
         dy="0.7"
         result="offset"
         id="feOffset48258" />
      <feComposite
         in="SourceGraphic"
         in2="offset"
         operator="over"
         result="composite2"
         id="feComposite48260" />
    </filter>
    <rect
       x="-268"
       y="6"
       width="249"
       height="367"
       id="rect71674" />
    <rect
       x="-268"
       y="6"
       width="249"
       height="367"
       id="rect72688" />
  </defs>
</svg>
