<?xml version="1.0" encoding="UTF-8" standalone="no"?>
<!-- Created with Inkscape (http://www.inkscape.org/) -->

<svg
   width="500"
   height="500"
   viewBox="0 0 132.29167 132.29167"
   version="1.1"
   id="svg5"
   inkscape:version="1.1.1 (3bf5ae0d25, 2021-09-20)"
   sodipodi:docname="layout.svg"
   xmlns:inkscape="http://www.inkscape.org/namespaces/inkscape"
   xmlns:sodipodi="http://sodipodi.sourceforge.net/DTD/sodipodi-0.dtd"
   xmlns="http://www.w3.org/2000/svg"
   xmlns:svg="http://www.w3.org/2000/svg">
  <sodipodi:namedview
     id="namedview7"
     pagecolor="#505050"
     bordercolor="#eeeeee"
     borderopacity="1"
     inkscape:pageshadow="0"
     inkscape:pageopacity="0"
     inkscape:pagecheckerboard="0"
     inkscape:document-units="mm"
     showgrid="false"
     units="px"
     inkscape:zoom="1.121145"
     inkscape:cx="410.74081"
     inkscape:cy="261.78594"
     inkscape:window-width="1920"
     inkscape:window-height="1121"
     inkscape:window-x="-7"
     inkscape:window-y="-7"
     inkscape:window-maximized="1"
     inkscape:current-layer="layer6" />
  <defs
     id="defs2" />
  <g
     inkscape:groupmode="layer"
     id="layer6"
     inkscape:label="layout">
    <path
       id="rect23658"
       style="fill:#a7ec85;fill-opacity:1;stroke:none;stroke-width:11.3034;stroke-linecap:round;stroke-linejoin:round;stroke-miterlimit:4;stroke-dasharray:none;stroke-dashoffset:186.406;stroke-opacity:1;paint-order:markers fill stroke"
       d="m 13.586509,9.1206328 c -2.408498,0 -4.3475379,1.9390402 -4.3475379,4.3475392 v 13.317533 c 0,2.408497 1.9390399,4.347538 4.3475379,4.347538 h 13.317017 c 2.408497,0 4.347538,-1.939041 4.347538,-4.347538 V 13.468172 c 0,-2.408499 -1.939041,-4.3475392 -4.347538,-4.3475392 z m 91.801631,0 c -2.4085,0 -4.34754,1.9390402 -4.34754,4.3475392 v 13.317533 c 0,2.408497 1.93904,4.347538 4.34754,4.347538 h 13.31701 c 2.4085,0 4.34755,-1.939041 4.34755,-4.347538 V 13.468172 c 0,-2.408499 -1.93905,-4.3475392 -4.34755,-4.3475392 z M 13.586509,101.15842 c -2.408498,0 -4.3475379,1.93904 -4.3475379,4.34754 v 13.31753 c 0,2.4085 1.9390399,4.34754 4.3475379,4.34754 h 13.317017 c 2.408497,0 4.347538,-1.93904 4.347538,-4.34754 v -13.31753 c 0,-2.4085 -1.939041,-4.34754 -4.347538,-4.34754 z m 91.801631,0 c -2.4085,0 -4.34754,1.93904 -4.34754,4.34754 v 13.31753 c 0,2.4085 1.93904,4.34754 4.34754,4.34754 h 13.31701 c 2.40851,0 4.34755,-1.93904 4.34755,-4.34754 v -13.31753 c 0,-2.4085 -1.93904,-4.34754 -4.34755,-4.34754 z" />
    <path
       id="rect26650"
       style="fill:#6ba84d;fill-opacity:1;stroke:none;stroke-width:13;stroke-linecap:round;stroke-linejoin:round;stroke-miterlimit:4;stroke-dasharray:none;stroke-dashoffset:186.406;stroke-opacity:1;paint-order:markers fill stroke"
       d="m 39.840204,16.497961 c -1.108001,0 -1.999877,0.891878 -1.999877,1.999878 v 9.923941 c 0,1.108001 0.891876,1.999879 1.999877,1.999879 h 9.923425 c 1.107998,0 1.999877,-0.891878 1.999877,-1.999879 v -9.923941 c 0,-1.108 -0.891879,-1.999878 -1.999877,-1.999878 z m 21.711335,0 c -1.108001,0 -1.999877,0.891878 -1.999877,1.999878 v 9.923941 c 0,1.108001 0.891876,1.999879 1.999877,1.999879 h 9.923425 c 1.108001,0 2.000396,-0.891878 2.000396,-1.999879 v -9.923941 c 0,-1.108 -0.892395,-1.999878 -2.000396,-1.999878 z m 21.23953,0 c -1.107998,0 -1.999877,0.891878 -1.999877,1.999878 v 9.923941 c 0,1.108001 0.891879,1.999879 1.999877,1.999879 h 9.923425 c 1.108001,0 1.999882,-0.891878 1.99988,-1.999879 v -9.923941 c 0,-1.108 -0.891879,-1.999878 -1.99988,-1.999878 z M 18.718496,37.61967 c -1.108,0 -1.999879,0.891876 -1.999878,1.999877 v 9.923425 c 0,1.107999 0.891878,1.999877 1.999878,1.999877 h 9.923941 c 1.108001,0 1.999879,-0.891878 1.999879,-1.999877 v -9.923425 c 0,-1.108001 -0.891878,-1.99988 -1.999879,-1.999877 z m 85.193764,0 c -1.108,0 -1.99988,0.891876 -1.99988,1.999877 v 9.923425 c 0,1.107999 0.89188,1.999877 1.99988,1.999877 h 9.92394 c 1.108,0 1.99988,-0.891878 1.99988,-1.999877 v -9.923425 c 0,-1.108001 -0.89188,-1.99988 -1.99988,-1.999877 z M 18.718496,58.858682 c -1.108,0 -1.999879,0.892394 -1.999878,2.000395 v 9.923425 c 0,1.108001 0.891878,1.999877 1.999878,1.999877 h 9.923941 c 1.108001,0 1.999879,-0.891876 1.999879,-1.999877 v -9.923425 c 0,-1.108001 -0.891878,-2.000395 -1.999879,-2.000395 z m 85.193764,0 c -1.108,0 -1.99988,0.892394 -1.99988,2.000395 v 9.923425 c 0,1.108001 0.89188,1.999877 1.99988,1.999877 h 9.92394 c 1.108,0 1.99988,-0.891876 1.99988,-1.999877 v -9.923425 c 0,-1.108001 -0.89188,-2.000395 -1.99988,-2.000395 z M 18.718496,80.570535 c -1.108,0 -1.999879,0.891879 -1.999878,1.999877 v 9.923425 c 0,1.108001 0.891878,1.99988 1.999878,1.99988 h 9.923941 c 1.108001,0 1.999879,-0.891879 1.999879,-1.99988 v -9.923425 c 0,-1.107998 -0.891878,-1.999877 -1.999879,-1.999877 z m 85.193764,0 c -1.108,0 -1.99988,0.891879 -1.99988,1.999877 v 9.923425 c 0,1.108001 0.89188,1.99988 1.99988,1.99988 h 9.92394 c 1.108,0 1.99988,-0.891879 1.99988,-1.99988 v -9.923425 c 0,-1.107998 -0.89188,-1.999877 -1.99988,-1.999877 z M 39.840204,101.69172 c -1.108001,0 -1.999877,0.89188 -1.999877,1.99988 v 9.92394 c 0,1.108 0.891876,1.99988 1.999877,1.99988 h 9.923425 c 1.107998,0 1.999877,-0.89188 1.999877,-1.99988 v -9.92394 c 0,-1.108 -0.891879,-1.99988 -1.999877,-1.99988 z m 21.711335,0 c -1.108001,0 -1.999877,0.89188 -1.999877,1.99988 v 9.92394 c 0,1.108 0.891876,1.99988 1.999877,1.99988 h 9.923425 c 1.108001,0 2.000396,-0.89188 2.000396,-1.99988 v -9.92394 c 0,-1.108 -0.892395,-1.99988 -2.000396,-1.99988 z m 21.23953,0 c -1.107998,0 -1.999877,0.89188 -1.999877,1.99988 v 9.92394 c 0,1.108 0.891879,1.99988 1.999877,1.99988 h 9.923425 c 1.108001,0 1.999882,-0.89188 1.99988,-1.99988 v -9.92394 c 0,-1.108 -0.891879,-1.99988 -1.99988,-1.99988 z" />
  </g>
</svg>
