<?xml version="1.0" encoding="UTF-8" standalone="no"?>
<!-- Created with Inkscape (http://www.inkscape.org/) -->

<svg
   width="500"
   height="500"
   viewBox="0 0 132.29166 132.29165"
   version="1.1"
   id="svg5"
   inkscape:version="1.1.1 (3bf5ae0d25, 2021-09-20)"
   sodipodi:docname="left.svg"
   xmlns:inkscape="http://www.inkscape.org/namespaces/inkscape"
   xmlns:sodipodi="http://sodipodi.sourceforge.net/DTD/sodipodi-0.dtd"
   xmlns="http://www.w3.org/2000/svg"
   xmlns:svg="http://www.w3.org/2000/svg">
  <sodipodi:namedview
     id="namedview7"
     pagecolor="#505050"
     bordercolor="#eeeeee"
     borderopacity="1"
     inkscape:pageshadow="0"
     inkscape:pageopacity="0"
     inkscape:pagecheckerboard="0"
     inkscape:document-units="mm"
     showgrid="false"
     inkscape:zoom="1.1536234"
     inkscape:cx="171.63313"
     inkscape:cy="197.20474"
     inkscape:window-width="1920"
     inkscape:window-height="1121"
     inkscape:window-x="-7"
     inkscape:window-y="-7"
     inkscape:window-maximized="1"
     inkscape:current-layer="svg5"
     fit-margin-top="50"
     fit-margin-left="50"
     fit-margin-right="50"
     fit-margin-bottom="50"
     lock-margins="true"
     units="px" />
  <defs
     id="defs2" />
  <path
     id="rect27429"
     style="opacity:1;fill:#d9d9d9;fill-opacity:1;stroke:none;stroke-width:1;stroke-linecap:round;stroke-linejoin:round;stroke-miterlimit:4;stroke-dasharray:none;stroke-dashoffset:0;stroke-opacity:1;paint-order:normal"
     d="m 84.829325,46.014728 c -0.01081,-2.22426 -0.824506,-4.38373 -2.460298,-6.01952 -3.489688,-3.48969 -9.361187,-3.23636 -13.165077,0.56752 L 50.48702,59.279665 c -0.10322,0.103209 -0.2026,0.208449 -0.30058,0.314624 -0.09,0.08243 -0.17986,0.165314 -0.26695,0.252401 -1.7042,1.704193 -2.5129,3.976915 -2.45428,6.299024 -0.0587,2.322286 0.74997,4.594708 2.45428,6.299025 0.0869,0.08692 0.17664,0.169617 0.26645,0.251901 0.0982,0.106359 0.19768,0.212236 0.30108,0.31563 l 18.71693,18.716925 c 3.80389,3.8039 9.675389,4.05672 13.165077,0.56704 3.489686,-3.48969 3.236862,-9.36119 -0.567027,-13.16508 L 68.817066,66.145714 81.802,53.160788 c 2.020815,-2.02082 3.039587,-4.62523 3.027325,-7.14606 z"
     inkscape:label="left" />
</svg>
