<?xml version="1.0" encoding="UTF-8" standalone="no"?>
<!-- Created with Inkscape (http://www.inkscape.org/) -->

<svg
   width="500"
   height="500"
   viewBox="0 0 132.29166 132.29167"
   version="1.1"
   id="svg1615"
   inkscape:version="1.1.1 (3bf5ae0d25, 2021-09-20)"
   xmlns:inkscape="http://www.inkscape.org/namespaces/inkscape"
   xmlns:sodipodi="http://sodipodi.sourceforge.net/DTD/sodipodi-0.dtd"
   xmlns="http://www.w3.org/2000/svg"
   xmlns:svg="http://www.w3.org/2000/svg">
  <sodipodi:namedview
     id="namedview1617"
     pagecolor="#505050"
     bordercolor="#eeeeee"
     borderopacity="1"
     inkscape:pageshadow="0"
     inkscape:pageopacity="0"
     inkscape:pagecheckerboard="0"
     inkscape:document-units="mm"
     showgrid="false"
     units="px"
     inkscape:zoom="0.69330737"
     inkscape:cx="253.13448"
     inkscape:cy="378.61995"
     inkscape:window-width="1920"
     inkscape:window-height="1121"
     inkscape:window-x="-7"
     inkscape:window-y="-7"
     inkscape:window-maximized="1"
     inkscape:current-layer="layer1" />
  <defs
     id="defs1612" />
  <g
     inkscape:label="Layer 1"
     inkscape:groupmode="layer"
     id="layer1">
    <rect
       style="fill:#d9d9d9;fill-opacity:1;stroke:none;stroke-width:4.53656;stroke-linecap:round;stroke-linejoin:round;stroke-dashoffset:186.406"
       id="rect2094"
       width="86.552704"
       height="28.032791"
       x="24.475773"
       y="91.305504"
       rx="1.8918105" />
    <path
       style="fill:#999999;stroke-width:0.25027"
       d="m 23.907699,125.83024 c -3.842529,-1.03451 -6.914056,-4.02099 -8.078573,-7.85492 -0.474128,-1.56096 -0.502755,-2.22953 -0.435298,-10.166 l 0.0722,-8.495155 0.706622,-1.438995 c 0.851099,-1.733215 2.850081,-3.982001 4.289535,-4.825578 0.577684,-0.338544 1.717066,-0.86946 2.53196,-1.17981 l 1.481625,-0.564276 45.744859,-0.06714 c 31.688411,-0.04651 45.896251,0.01387 46.237491,0.196509 0.46022,0.246302 0.49264,0.54246 0.49264,4.50064 0,3.948466 -0.0333,4.254825 -0.48933,4.498865 -0.33529,0.17945 -13.90483,0.26011 -43.109106,0.25625 -23.440885,-0.003 -43.659764,-0.004 -44.930843,-0.003 -2.197843,0.003 -2.351094,0.0386 -3.128383,0.73298 l -0.817328,0.73016 v 6.4894 c 0,6.88802 0.08426,7.44544 1.216332,8.04666 0.614921,0.32657 22.121091,0.43707 64.175764,0.32974 17.893514,-0.0457 26.254194,0.0161 26.591254,0.19652 0.45773,0.24497 0.49164,0.54382 0.49164,4.33372 0,2.83233 -0.0914,4.16196 -0.30033,4.37093 -0.23151,0.2315 -10.74044,0.29655 -45.862086,0.28385 -38.515859,-0.0139 -45.765722,-0.0714 -46.880651,-0.37155 z"
       id="path1700" />
    <path
       style="fill:#b3b3b3;stroke-width:0.25027"
       d="m 15.340899,58.512162 c 0,-42.798895 0.0016,-42.93403 0.520011,-44.485598 1.241585,-3.715834 4.066005,-6.4742783 7.721775,-7.5414026 1.218131,-0.355574 5.944512,-0.3967947 45.496653,-0.3967947 42.892602,0 44.163492,0.013429 45.065862,0.4761854 1.17401,0.6020706 1.92521,1.405085 2.41821,2.5850068 0.34432,0.8240519 0.38736,5.5163421 0.38736,42.2297471 0,24.069383 -0.0933,41.302688 -0.2235,41.302688 -0.12292,0 -0.28878,-0.170116 -0.36856,-0.378038 -0.1288,-0.335633 -5.30416,-0.370724 -46.139137,-0.312838 l -45.994068,0.0652 -1.747031,0.750812 c -3.025182,1.300115 -5.97034,4.783615 -6.519573,7.71128 -0.09524,0.50768 -0.273255,0.92306 -0.395585,0.92306 -0.128845,0 -0.222417,-18.060575 -0.222417,-42.929308 z"
       id="path1720" />
    <rect
       style="fill:#d9d9d9;fill-opacity:1;stroke:none;stroke-width:4.53656;stroke-linecap:round;stroke-linejoin:round;stroke-dashoffset:186.406"
       id="rect2163"
       width="64.079453"
       height="29.304626"
       x="36.790085"
       y="16.967466"
       rx="1.8918105" />
    <rect
       style="fill:#666666;fill-opacity:1;stroke:none;stroke-width:4.53656;stroke-linecap:round;stroke-linejoin:round;stroke-dashoffset:186.406"
       id="rect2285"
       width="41.411366"
       height="3.891583"
       x="44.213928"
       y="22.828394"
       rx="1.8918105" />
    <rect
       style="fill:#666666;fill-opacity:1;stroke:none;stroke-width:4.53656;stroke-linecap:round;stroke-linejoin:round;stroke-dashoffset:186.406"
       id="rect2285-7"
       width="47.638287"
       height="3.8915839"
       x="44.213924"
       y="29.337088"
       rx="1.8918105" />
    <rect
       style="fill:#cccccc;fill-opacity:1;stroke:none;stroke-width:4.53656;stroke-linecap:round;stroke-linejoin:round;stroke-dashoffset:186.406"
       id="rect2467"
       width="79.776749"
       height="2.1658845"
       x="31.734676"
       y="107.94263"
       rx="1.8918105" />
  </g>
</svg>
