<?xml version="1.0" encoding="UTF-8" standalone="no"?>
<!-- Created with Inkscape (http://www.inkscape.org/) -->

<svg
   width="545.90491mm"
   height="521.29297mm"
   viewBox="0 0 545.9049 521.29297"
   version="1.1"
   id="svg1031"
   inkscape:version="1.1.1 (3bf5ae0d25, 2021-09-20)"
   sodipodi:docname="license.svg"
   xmlns:inkscape="http://www.inkscape.org/namespaces/inkscape"
   xmlns:sodipodi="http://sodipodi.sourceforge.net/DTD/sodipodi-0.dtd"
   xmlns="http://www.w3.org/2000/svg"
   xmlns:svg="http://www.w3.org/2000/svg">
  <sodipodi:namedview
     id="namedview1033"
     pagecolor="#505050"
     bordercolor="#eeeeee"
     borderopacity="1"
     inkscape:pageshadow="0"
     inkscape:pageopacity="0"
     inkscape:pagecheckerboard="0"
     inkscape:document-units="mm"
     showgrid="false"
     fit-margin-top="50"
     lock-margins="true"
     fit-margin-left="50"
     fit-margin-right="50"
     fit-margin-bottom="50"
     inkscape:zoom="0.26051305"
     inkscape:cx="1322.3906"
     inkscape:cy="1483.6109"
     inkscape:window-width="1920"
     inkscape:window-height="1121"
     inkscape:window-x="-7"
     inkscape:window-y="-7"
     inkscape:window-maximized="1"
     inkscape:current-layer="svg1031" />
  <defs
     id="defs1028">
    <filter
       style="color-interpolation-filters:sRGB"
       inkscape:label="Drop Shadow"
       id="filter24645"
       x="-0.15275694"
       y="-0.15275694"
       width="1.3356634"
       height="1.30943">
      <feFlood
         flood-opacity="0.211765"
         flood-color="rgb(0,0,0)"
         result="flood"
         id="feFlood24635" />
      <feComposite
         in="flood"
         in2="SourceGraphic"
         operator="in"
         result="composite1"
         id="feComposite24637" />
      <feGaussianBlur
         in="composite1"
         stdDeviation="11.3772"
         result="blur"
         id="feGaussianBlur24639" />
      <feOffset
         dx="5.38922"
         dy="0.7"
         result="offset"
         id="feOffset24641" />
      <feComposite
         in="SourceGraphic"
         in2="offset"
         operator="over"
         result="composite2"
         id="feComposite24643" />
    </filter>
  </defs>
  <path
     style="fill:#d9d9d9;stroke-width:0.907377;fill-opacity:1"
     d="m 321.2101,491.2565 c -1.65706,-0.84484 -4.10697,-2.97018 -5.44427,-4.72298 l -2.43143,-3.18689 -0.25277,-42.51607 -0.25277,-42.51609 5.24335,3.55185 c 10.82901,7.33559 24.65497,13.14038 38.3626,16.10642 10.71495,2.31849 32.83913,2.31849 43.55409,0 13.72729,-2.97029 27.43814,-8.74135 38.33667,-16.13632 l 5.21741,-3.54016 v 41.40916 c 0,46.11563 0.0957,45.33978 -6.18184,50.1279 -2.60343,1.98572 -4.15348,2.44114 -8.26555,2.4285 -4.851,-0.0148 -5.98732,-0.55192 -27.3602,-12.93012 -12.26445,-7.10301 -22.78839,-12.91456 -23.38653,-12.91456 -0.59815,0 -11.18374,5.78373 -23.52354,12.85276 -24.41204,13.98476 -27.52143,15.09351 -33.61522,11.9866 z M 111.37894,426.15922 c -9.28113,-2.50246 -16.427415,-8.6341 -20.713816,-17.7728 l -2.36019,-5.03197 V 227.77702 52.19959 l 2.391085,-5.099468 C 94.059454,39.926941 98.858167,35.007868 105.8505,31.565554 l 6.00808,-2.957763 h 135.691 135.691 l 6.00806,2.957763 c 6.99235,3.442314 11.79106,8.361387 15.15449,15.534568 l 2.39109,5.099468 0.2468,77.00357 0.24679,77.00355 -2.51523,-0.652 c -13.83573,-3.58654 -33.18997,-4.1812 -47.17138,-1.44934 -41.21478,8.05305 -74.3942,39.78619 -85.2327,81.51743 -2.85291,10.98444 -3.84438,29.72768 -2.17737,41.1615 1.40533,9.63882 5.60132,22.83126 10.13398,31.86169 l 3.51954,7.01204 v 30.87095 30.87095 l -84.1592,-0.0612 c -63.67303,-0.0464 -85.16875,-0.33345 -88.30651,-1.17948 z M 255.36749,243.60005 c 4.76103,-3.556 6.24643,-6.4556 6.24643,-12.19353 0,-5.73789 -1.48536,-8.63745 -6.24638,-12.19352 -2.42609,-1.81208 -3.74909,-1.87954 -42.13696,-2.14857 -26.25031,-0.18398 -40.75272,0.0496 -42.95073,0.69174 -9.22366,2.69469 -12.78052,15.28794 -6.44467,22.81768 4.51739,5.36861 4.12795,5.32764 48.48798,5.10264 39.36344,-0.19966 40.61221,-0.25989 43.04433,-2.07644 z m 50.81257,-58.07212 c 4.7613,-3.55543 6.24697,-6.45532 6.24697,-12.19352 0,-5.7382 -1.48566,-8.63808 -6.24696,-12.19352 -2.46756,-1.84263 -3.48575,-1.87493 -67.5435,-2.14319 -44.00931,-0.1843 -66.11119,0.0394 -68.35672,0.69174 -9.22041,2.67875 -12.78095,15.28205 -6.44467,22.8123 4.63476,5.50809 1.86069,5.31671 73.89399,5.0976 65.03119,-0.1978 65.98029,-0.22653 68.45089,-2.07141 z m 0,-58.07213 c 4.7613,-3.55542 6.24697,-6.45531 6.24697,-12.19352 0,-5.73819 -1.48566,-8.63807 -6.24696,-12.19352 -2.46756,-1.84261 -3.48575,-1.87492 -67.5435,-2.14317 -44.00931,-0.1843 -66.11119,0.0394 -68.35672,0.69174 -9.22041,2.67873 -12.78095,15.28203 -6.44467,22.81228 4.63476,5.50809 1.86069,5.31673 73.89399,5.09761 65.03119,-0.19781 65.98029,-0.22654 68.45089,-2.07142 z m 57.96745,262.36334 c -31.60468,-6.20192 -55.22108,-28.49796 -63.59436,-60.03886 -2.48563,-9.36303 -2.34659,-28.33238 0.27879,-38.0332 7.84853,-29.00037 28.87092,-50.02278 57.87131,-57.87131 5.76049,-1.55899 9.78778,-1.96454 19.50861,-1.96454 9.72081,0 13.7481,0.40555 19.50859,1.96454 29.20578,7.90413 50.28875,29.24278 58.15011,58.85533 2.2772,8.57791 2.31229,28.31519 0.0652,36.67213 -8.15398,30.32441 -28.5304,51.02009 -58.21529,59.12736 -8.42273,2.30035 -25.14604,2.9422 -33.57294,1.28855 z m 14.81247,-43.76943 c 1.33523,-0.96496 9.77745,-12.70678 18.76047,-26.09297 l 16.33278,-24.33852 v -5.27169 c 0,-5.69569 -1.49642,-8.60692 -6.24739,-12.15403 -3.50326,-2.61556 -12.09705,-2.62031 -15.68995,-0.009 -1.40901,1.02419 -7.34175,8.94818 -13.18388,17.60885 -5.84212,8.66069 -11.0278,16.15244 -11.5237,16.64835 -0.5973,0.59729 -2.97023,-0.44608 -7.02955,-3.09082 -5.43267,-3.53953 -6.71707,-3.99248 -11.32101,-3.99248 -5.61071,0 -8.54426,1.51771 -12.07548,6.2474 -2.62219,3.51212 -2.62094,12.10219 0.002,15.68994 1.89864,2.59677 20.5078,15.85805 27.16296,19.3569 4.41375,2.32045 11.14704,2.04668 14.81247,-0.60228 z"
     id="path882"
     inkscape:label="license" />
</svg>
