<?xml version="1.0" encoding="UTF-8" standalone="no"?>
<!-- Created with Inkscape (http://www.inkscape.org/) -->

<svg
   width="500"
   height="500"
   viewBox="0 0 132.29167 132.29167"
   version="1.1"
   id="svg5"
   inkscape:version="1.1.1 (3bf5ae0d25, 2021-09-20)"
   sodipodi:docname="lighting.svg"
   xmlns:inkscape="http://www.inkscape.org/namespaces/inkscape"
   xmlns:sodipodi="http://sodipodi.sourceforge.net/DTD/sodipodi-0.dtd"
   xmlns="http://www.w3.org/2000/svg"
   xmlns:svg="http://www.w3.org/2000/svg">
  <sodipodi:namedview
     id="namedview7"
     pagecolor="#505050"
     bordercolor="#eeeeee"
     borderopacity="1"
     inkscape:pageshadow="0"
     inkscape:pageopacity="0"
     inkscape:pagecheckerboard="0"
     inkscape:document-units="mm"
     showgrid="false"
     units="px"
     inkscape:zoom="0.56057251"
     inkscape:cx="584.22415"
     inkscape:cy="284.53054"
     inkscape:window-width="1920"
     inkscape:window-height="1121"
     inkscape:window-x="-7"
     inkscape:window-y="-7"
     inkscape:window-maximized="1"
     inkscape:current-layer="layer11" />
  <defs
     id="defs2" />
  <g
     inkscape:groupmode="layer"
     id="layer11"
     inkscape:label="lighting">
    <path
       id="path80220"
       style="fill:#74b554;fill-opacity:1;stroke-width:0.999999"
       d="m 160,357 v 26.85156 c 0,26.25192 0.0503,26.92806 2.26953,30.25 1.24847,1.86883 3.83597,4.18482 5.75,5.14649 3.22479,1.62032 9.23873,1.74804 81.98047,1.74804 87.53686,0 82.87994,0.36625 87.73047,-6.89453 2.21924,-3.32194 2.26953,-3.99808 2.26953,-30.25 V 357 h -90 z m 90,93 c -30.21934,0 -51,0.3732 -51,0.91602 0,0.50384 2.8125,3.46651 6.25,6.58398 7.22493,6.55223 18.9271,12.60091 29.81445,15.41016 14.619,3.77215 29.53864,1.84986 45.41602,-5.85157 C 287.89498,463.46215 301,453.1524 301,450.91602 301,450.37335 280.21934,450 250,450 Z"
       transform="scale(0.26458333)" />
    <path
       id="path80330"
       style="fill:#a7ec85;fill-opacity:1;stroke-width:0.999999"
       d="m 250.5293,25.203125 c -11.96877,-0.06459 -23.84005,1.568384 -36.99219,4.894531 C 108.85436,56.571692 65.13974,180.7614 130.13867,267.02148 135.81001,274.54791 157.22853,296 159.07227,296 159.60467,296 160,302.82373 160,312 v 16 h 25.51562 25.51368 L 210.76562,297.75 210.5,267.5 202.24805,266.88672 C 181.61007,265.35237 167.75553,250.80286 167.59766,230.5 c -0.0539,-6.9333 0.34688,-8.86669 3.01367,-14.5 C 187.74325,179.81073 240,192.39594 240,232.71094 V 238 h 10 10 v -5.28906 c 0,-19.30976 12.56632,-34.71668 30.65234,-37.57813 30.78905,-4.87123 53.01082,28.90066 36.22657,55.05664 -6.57838,10.25153 -16.18981,15.73358 -29.29297,16.70899 L 289.5,267.5 289.23633,297.75 288.9707,328 H 314.48633 340 l 0.0234,-15.75 0.0234,-15.75 4.07421,-3 C 357.91983,283.33739 376.4477,260.02831 385.38273,241.5918 426.56817,156.61035 379.21056,53.83435 288.11328,30.5 274.56548,27.029762 262.49806,25.267717 250.5293,25.203125 Z M 203.21094,223.82422 c -1.49179,0.0253 -3.01674,0.59379 -4.38282,1.83008 -2.59377,2.34732 -2.3806,7.75338 0.40821,10.35156 1.71751,1.60009 3.285,2.01564 6.75,1.78906 4.50379,-0.29451 4.51516,-0.30369 4.8125,-4.34961 0.41212,-5.60804 -3.46355,-9.69105 -7.58789,-9.62109 z m 93.17968,0.0684 c -1.90203,0.0291 -3.8564,0.88361 -5.31835,2.74219 -1.99982,2.54236 -2.87851,9.22696 -1.40625,10.69921 1.07572,1.07574 7.27879,0.76394 9.65039,-0.48437 2.91581,-1.53477 3.64982,-2.79088 3.66797,-6.27149 0.0219,-4.1687 -3.20317,-6.73747 -6.59376,-6.68554 z M 240,267 v 30.5 30.5 h 10 10 V 297.5 267 h -10 z"
       transform="scale(0.26458333)" />
  </g>
</svg>
