<?xml version="1.0" encoding="UTF-8" standalone="no"?>
<!-- Created with Inkscape (http://www.inkscape.org/) -->

<svg
   width="533.33331"
   height="533.33331"
   viewBox="0 0 141.1111 141.11111"
   version="1.1"
   id="svg1369"
   inkscape:version="1.1.1 (3bf5ae0d25, 2021-09-20)"
   sodipodi:docname="manual_export.svg"
   xmlns:inkscape="http://www.inkscape.org/namespaces/inkscape"
   xmlns:sodipodi="http://sodipodi.sourceforge.net/DTD/sodipodi-0.dtd"
   xmlns="http://www.w3.org/2000/svg"
   xmlns:svg="http://www.w3.org/2000/svg">
  <sodipodi:namedview
     id="namedview1371"
     pagecolor="#505050"
     bordercolor="#eeeeee"
     borderopacity="1"
     inkscape:pageshadow="0"
     inkscape:pageopacity="0"
     inkscape:pagecheckerboard="0"
     inkscape:document-units="mm"
     showgrid="false"
     units="px"
     fit-margin-top="0"
     fit-margin-left="0"
     fit-margin-right="0"
     fit-margin-bottom="0"
     inkscape:zoom="0.64052329"
     inkscape:cx="188.90804"
     inkscape:cy="291.16818"
     inkscape:window-width="1920"
     inkscape:window-height="1121"
     inkscape:window-x="-7"
     inkscape:window-y="-7"
     inkscape:window-maximized="1"
     inkscape:current-layer="svg1369" />
  <defs
     id="defs1366" />
  <path
     style="fill:#e5e5e5;fill-opacity:1;stroke-width:0.352778"
     d="m 58.929851,125.59872 c -0.626551,-0.69233 -0.672038,-1.39884 -0.672038,-10.43811 v -9.69552 l 0.832831,-0.67438 c 0.77641,-0.6287 1.513173,-0.67439 10.875055,-0.67439 h 10.04222 l 1.031194,1.0312 1.031198,1.03119 v 8.8641 c 0,9.25284 -0.185593,10.53534 -1.603304,11.07937 -0.314089,0.12052 -5.137231,0.21914 -10.718094,0.21914 -9.867698,0 -10.165527,-0.0205 -10.819062,-0.7426 z m 1.041403,-35.590541 c -1.586498,-0.640232 -1.890246,-1.634641 -1.883716,-6.166883 0.0072,-4.977726 0.489112,-10.055221 1.130169,-11.906859 0.709898,-2.05049 3.257684,-5.28625 5.76248,-7.3185 1.25645,-1.01941 4.226665,-2.96188 6.600482,-4.31661 5.502261,-3.1401 7.180453,-4.44352 8.792996,-6.82939 1.465852,-2.16883 1.886359,-4.08099 1.597646,-7.26497 -0.612228,-6.75179 -8.383809,-11.55093 -14.788796,-9.13244 -4.410636,1.66544 -7.689144,6.13021 -7.689701,10.47208 -3.42e-4,2.64838 -0.655345,3.62223 -2.658914,3.95322 -0.76907,0.12705 -5.340523,0.15162 -10.158782,0.0546 -8.236881,-0.16585 -8.792266,-0.21856 -9.292452,-0.88195 -0.433423,-0.57484 -0.499802,-1.5552 -0.358299,-5.29166 0.199499,-5.2678 0.74192,-7.60604 2.735679,-11.79279 4.479991,-9.40768 12.867991,-15.84693 23.777312,-18.25323 3.034026,-0.66922 10.455203,-0.76225 13.481349,-0.16899 12.895409,2.52806 22.924263,11.68156 26.304383,24.00845 1.11598,4.06986 1.1055,12.87075 -0.02,16.77399 -1.90069,6.5917 -5.275638,10.74972 -12.942518,15.94551 -7.308486,4.952909 -8.268493,6.319298 -8.641714,12.299827 -0.133438,2.138274 -0.428325,4.234765 -0.655295,4.658867 -0.228632,0.427204 -1.000827,0.934438 -1.731448,1.137345 -1.590276,0.44165 -18.273446,0.459204 -19.360876,0.02035 z"
     id="path3148"
     inkscape:label="manual_export" />
</svg>
