<?xml version="1.0" encoding="UTF-8" standalone="no"?>
<!-- Created with Inkscape (http://www.inkscape.org/) -->

<svg
   width="533.33331"
   height="533.33331"
   viewBox="0 0 141.1111 141.11111"
   version="1.1"
   id="svg1369"
   inkscape:version="1.1.1 (3bf5ae0d25, 2021-09-20)"
   sodipodi:docname="maya.svg"
   xmlns:inkscape="http://www.inkscape.org/namespaces/inkscape"
   xmlns:sodipodi="http://sodipodi.sourceforge.net/DTD/sodipodi-0.dtd"
   xmlns="http://www.w3.org/2000/svg"
   xmlns:svg="http://www.w3.org/2000/svg">
  <sodipodi:namedview
     id="namedview1371"
     pagecolor="#505050"
     bordercolor="#eeeeee"
     borderopacity="1"
     inkscape:pageshadow="0"
     inkscape:pageopacity="0"
     inkscape:pagecheckerboard="0"
     inkscape:document-units="mm"
     showgrid="false"
     units="px"
     fit-margin-top="0"
     fit-margin-left="0"
     fit-margin-right="0"
     fit-margin-bottom="0"
     inkscape:zoom="0.64052329"
     inkscape:cx="137.38767"
     inkscape:cy="228.71924"
     inkscape:window-width="1920"
     inkscape:window-height="1121"
     inkscape:window-x="-7"
     inkscape:window-y="-7"
     inkscape:window-maximized="1"
     inkscape:current-layer="svg1369" />
  <defs
     id="defs1366" />
  <path
     style="fill:#e6e6e6;stroke-width:0.352778"
     d="m 19.843752,124.45014 -6.261806,-0.10501 V 71.796104 19.247081 l 0.79375,-0.16559 c 2.105398,-0.4392 29.673361,-2.6931 31.801913,-2.60005 l 2.433168,0.10636 10.972386,28.33586 c 7.042704,18.187563 11.075923,28.168816 11.261477,27.869442 0.158997,-0.256526 5.332589,-12.452038 11.496872,-27.101132 l 11.207787,-26.63472 16.989931,-0.0916 16.98993,-0.0916 v 52.743665 52.743664 h -11.66493 -11.66494 l -3.32812,-2.71051 -3.328121,-2.7105 V 97.944208 c 0,-12.152421 -0.13114,-20.854997 -0.31134,-20.661022 -0.17123,0.184326 -3.4611,6.169201 -7.31081,13.299721 l -6.999459,12.964583 -12.003778,-0.008 -12.003775,-0.008 -8.907486,-16.307928 -8.907487,-16.307924 -1.51e-4,1.861749 c -8.5e-5,1.023966 0.562687,11.342154 1.250604,22.929308 0.687916,11.587155 1.203854,21.702135 1.146528,22.477725 -0.0999,1.35157 -0.1995,1.45814 -2.397284,2.5651 -3.154429,1.58878 -11.396851,3.97455 -13.405555,3.88023 -0.873124,-0.041 -4.405312,-0.1218 -7.849304,-0.17955 z"
     id="path3008"
     inkscape:label="maya" />
</svg>
