<?xml version="1.0" encoding="UTF-8" standalone="no"?>
<!-- Created with Inkscape (http://www.inkscape.org/) -->

<svg
   width="469.08316"
   height="460.84781"
   viewBox="0 0 124.11158 121.93264"
   version="1.1"
   id="svg5"
   inkscape:version="1.2.1 (9c6d41e410, 2022-07-14)"
   sodipodi:docname="missing_image.svg"
   inkscape:export-filename="C:\Users\leo\Desktop\svgs\combobox.png"
   inkscape:export-xdpi="96"
   inkscape:export-ydpi="96"
   xml:space="preserve"
   xmlns:inkscape="http://www.inkscape.org/namespaces/inkscape"
   xmlns:sodipodi="http://sodipodi.sourceforge.net/DTD/sodipodi-0.dtd"
   xmlns="http://www.w3.org/2000/svg"
   xmlns:svg="http://www.w3.org/2000/svg"><sodipodi:namedview
     id="namedview7"
     pagecolor="#505050"
     bordercolor="#eeeeee"
     borderopacity="1"
     inkscape:pageshadow="0"
     inkscape:pageopacity="0"
     inkscape:pagecheckerboard="0"
     inkscape:document-units="mm"
     showgrid="false"
     inkscape:zoom="0.70710678"
     inkscape:cx="162.63456"
     inkscape:cy="230.51681"
     inkscape:window-width="1920"
     inkscape:window-height="1121"
     inkscape:window-x="-7"
     inkscape:window-y="-7"
     inkscape:window-maximized="1"
     inkscape:current-layer="svg5"
     fit-margin-top="50"
     fit-margin-left="50"
     fit-margin-right="50"
     fit-margin-bottom="50"
     lock-margins="true"
     units="px"
     showguides="false"
     inkscape:showpageshadow="0"
     inkscape:deskcolor="#505050" /><defs
     id="defs2"><rect
       x="-190"
       y="50"
       width="409"
       height="109"
       id="rect62070" /><rect
       x="-268"
       y="6"
       width="249"
       height="367"
       id="rect60744" /><filter
       style="color-interpolation-filters:sRGB"
       inkscape:label="Drop Shadow"
       id="filter41397"
       x="-0.4636397"
       y="-0.4636397"
       width="2.0236785"
       height="2.0043981"><feFlood
         flood-opacity="0.498039"
         flood-color="rgb(0,0,0)"
         result="flood"
         id="feFlood41387" /><feComposite
         in="flood"
         in2="SourceGraphic"
         operator="in"
         result="composite1"
         id="feComposite41389" /><feGaussianBlur
         in="composite1"
         stdDeviation="3"
         result="blur"
         id="feGaussianBlur41391" /><feOffset
         dx="1.49701"
         dy="1.1976"
         result="offset"
         id="feOffset41393" /><feComposite
         in="SourceGraphic"
         in2="offset"
         operator="over"
         result="composite2"
         id="feComposite41395" /></filter><filter
       style="color-interpolation-filters:sRGB"
       inkscape:label="Drop Shadow"
       id="filter48262"
       x="-0.11650321"
       y="-0.11797703"
       width="1.3759789"
       height="1.3795844"><feFlood
         flood-opacity="0.211765"
         flood-color="rgb(0,0,0)"
         result="flood"
         id="feFlood48252" /><feComposite
         in="flood"
         in2="SourceGraphic"
         operator="in"
         result="composite1"
         id="feComposite48254" /><feGaussianBlur
         in="composite1"
         stdDeviation="1"
         result="blur"
         id="feGaussianBlur48256" /><feOffset
         dx="0.7"
         dy="0.7"
         result="offset"
         id="feOffset48258" /><feComposite
         in="SourceGraphic"
         in2="offset"
         operator="over"
         result="composite2"
         id="feComposite48260" /></filter><rect
       x="-268"
       y="6"
       width="249"
       height="367"
       id="rect71674" /><rect
       x="-268"
       y="6"
       width="249"
       height="367"
       id="rect72688" /></defs><g
     id="g1622"
     style="image-rendering:auto;stroke-width:2;stroke-dasharray:none;paint-order:stroke fill markers"><path
       style="fill:#d9d9d9;stroke-width:2;fill-opacity:1;stroke:#d9d9d9;stroke-opacity:1;stroke-dasharray:none;paint-order:stroke fill markers"
       d="m 24.95298,101.23774 c -1.30813,-0.40159 -2.227352,-1.1652 -2.864019,-2.379179 l -0.37261,-0.710479 V 60.966326 23.784569 l 0.37261,-0.710479 c 0.508472,-0.969536 1.061347,-1.531302 1.995655,-2.027747 l 0.789421,-0.41946 H 62.055794 99.23755 l 0.78942,0.41946 c 0.93431,0.496445 1.48718,1.058211 1.99566,2.027747 l 0.37261,0.710479 v 37.181757 37.181756 l -0.41946,0.789421 c -0.49645,0.934307 -1.05822,1.487187 -2.027751,1.995657 l -0.710479,0.37261 -36.94493,0.0266 c -20.319711,0.0146 -37.122549,-0.028 -37.33964,-0.0946 z m 74.399953,-2.974273 0.516154,-0.516151 0.04064,-31.021241 0.04064,-31.02124 H 62.055794 24.161213 l 0.04064,31.011557 0.04064,31.011558 0.394711,0.424687 c 0.217091,0.233578 0.536807,0.4837 0.710479,0.555827 0.173673,0.07213 16.779765,0.117642 36.902429,0.101147 l 36.58666,-0.02999 z M 51.029057,81.080643 c -0.860091,-0.602431 -0.740602,-1.391065 0.435249,-2.872701 1.159401,-1.46091 3.426413,-2.905875 5.697074,-3.631245 1.777613,-0.567864 2.859973,-0.725827 4.973356,-0.725827 2.769238,0 4.793167,0.451171 7.025927,1.566211 2.238991,1.11815 4.262801,3.066467 4.262801,4.103784 0,0.738215 -0.463728,1.244154 -1.140354,1.244154 -0.47898,0 -0.709545,-0.163498 -1.796542,-1.273958 -1.398752,-1.428945 -2.691604,-2.158785 -4.897614,-2.764799 -1.670673,-0.458952 -5.121552,-0.494732 -6.769789,-0.07019 -2.522303,0.649675 -4.760694,2.087327 -5.893747,3.785377 -0.580097,0.869362 -1.246879,1.09411 -1.896361,0.639196 z M 42.16237,65.702855 c -0.201126,-0.201126 -0.315769,-0.526281 -0.315769,-0.8956 0,-0.534478 0.175419,-0.756759 2.242689,-2.8418 l 2.242688,-2.261967 -2.163746,-2.183678 c -1.989992,-2.00832 -2.163746,-2.230204 -2.163746,-2.763094 0,-0.765634 0.445319,-1.210953 1.210953,-1.210953 0.532888,0 0.754769,0.173751 2.762976,2.163629 l 2.183559,2.163628 2.183559,-2.163628 c 2.008206,-1.989878 2.230087,-2.163629 2.762975,-2.163629 0.368905,0 0.694142,0.114725 0.895185,0.315768 0.201044,0.201044 0.315769,0.526281 0.315769,0.895185 0,0.532888 -0.173752,0.75477 -2.163629,2.762976 l -2.163628,2.183559 2.163628,2.183559 c 1.989877,2.008206 2.163629,2.230088 2.163629,2.762976 0,0.765634 -0.445319,1.210953 -1.210954,1.210953 -0.532889,0 -0.754774,-0.173755 -2.763094,-2.163746 l -2.183677,-2.163746 -2.261968,2.242688 c -2.08504,2.06727 -2.307321,2.242689 -2.841799,2.242689 -0.36932,0 -0.694474,-0.114643 -0.8956,-0.315769 z m 27.787639,0 c -0.201125,-0.201126 -0.315768,-0.526281 -0.315768,-0.8956 0,-0.534478 0.175419,-0.756759 2.242688,-2.8418 l 2.242688,-2.261967 -2.163746,-2.183678 c -1.989991,-2.00832 -2.163746,-2.230204 -2.163746,-2.763094 0,-0.765634 0.445319,-1.210953 1.210954,-1.210953 0.532921,0 0.754851,0.173832 2.765572,2.166201 l 2.186157,2.166203 2.168312,-2.150544 c 1.192571,-1.1828 2.322127,-2.195985 2.510125,-2.251522 0.895738,-0.264619 1.7781,0.569609 1.552865,1.468154 -0.05989,0.238929 -1.023566,1.344745 -2.255419,2.588087 l -2.150847,2.170909 2.163628,2.183559 c 1.989878,2.008206 2.163629,2.230088 2.163629,2.762976 0,0.368904 -0.114725,0.694141 -0.315768,0.895185 -0.201044,0.201043 -0.526281,0.315768 -0.895185,0.315768 -0.53289,0 -0.754774,-0.173755 -2.763094,-2.163746 l -2.183678,-2.163746 -2.261967,2.242688 c -2.085041,2.06727 -2.307322,2.242689 -2.841799,2.242689 -0.36932,0 -0.694475,-0.114643 -0.895601,-0.315769 z m 29.965482,-37.021074 -0.0464,-4.496905 -0.51616,-0.515922 -0.51616,-0.515922 H 62.055794 25.274821 l -0.516161,0.515922 -0.51616,0.515922 -0.0464,4.496905 -0.0464,4.496905 h 37.906101 37.9061 z m -17.26297,0.320147 c -0.783138,-0.783136 -0.228209,-2.138614 0.875539,-2.138614 0.649078,0 1.263075,0.613996 1.263075,1.263074 0,0.649078 -0.613997,1.263075 -1.263075,1.263075 -0.307617,0 -0.631256,-0.14325 -0.875539,-0.387535 z m 5.052298,0 c -0.783138,-0.783136 -0.228209,-2.138614 0.875539,-2.138614 0.649079,0 1.263075,0.613996 1.263075,1.263074 0,0.649078 -0.613996,1.263075 -1.263075,1.263075 -0.307617,0 -0.631256,-0.14325 -0.875539,-0.387535 z m 5.052298,0 c -0.783138,-0.783136 -0.228209,-2.138614 0.875539,-2.138614 0.649079,0 1.263075,0.613996 1.263075,1.263074 0,0.649078 -0.613996,1.263075 -1.263075,1.263075 -0.307617,0 -0.631256,-0.14325 -0.875539,-0.387535 z"
       id="path1624" /></g></svg>
