<?xml version="1.0" encoding="UTF-8" standalone="no"?>
<!-- Created with Inkscape (http://www.inkscape.org/) -->

<svg
   width="500"
   height="500"
   viewBox="0 0 132.29167 132.29167"
   version="1.1"
   id="svg5"
   inkscape:version="1.2.1 (9c6d41e410, 2022-07-14)"
   sodipodi:docname="move_icon.svg"
   xmlns:inkscape="http://www.inkscape.org/namespaces/inkscape"
   xmlns:sodipodi="http://sodipodi.sourceforge.net/DTD/sodipodi-0.dtd"
   xmlns="http://www.w3.org/2000/svg"
   xmlns:svg="http://www.w3.org/2000/svg">
  <sodipodi:namedview
     id="namedview7"
     pagecolor="#505050"
     bordercolor="#eeeeee"
     borderopacity="1"
     inkscape:pageshadow="0"
     inkscape:pageopacity="0"
     inkscape:pagecheckerboard="0"
     inkscape:document-units="mm"
     showgrid="false"
     units="px"
     inkscape:zoom="0.56057251"
     inkscape:cx="318.42446"
     inkscape:cy="142.71124"
     inkscape:window-width="1920"
     inkscape:window-height="1121"
     inkscape:window-x="-7"
     inkscape:window-y="-7"
     inkscape:window-maximized="1"
     inkscape:current-layer="svg5"
     inkscape:showpageshadow="0"
     inkscape:deskcolor="#505050" />
  <defs
     id="defs2" />
  <path
     id="path951"
     style="color:#000000;fill:#ffffff;stroke-width:8.729;stroke-dasharray:none;fill-opacity:0.85000002"
     d="M 30.257068 41.212472 C 28.208484 41.211957 26.774623 41.219205 25.728662 41.23831 C 24.682701 41.2574 24.038715 41.277483 23.35568 41.3613 C 22.672645 41.44512 21.593942 41.802382 21.16615 42.033093 C 19.675789 42.836852 19.07833 43.730665 18.523417 44.670142 C 17.968506 45.609619 17.484204 46.564292 17.484204 48.224447 C 17.484204 51.056273 18.335201 52.303625 20.347595 53.806535 C 20.62139 54.011009 22.035668 54.696096 22.781038 54.818359 C 23.526409 54.940623 24.115811 54.958566 25.115263 54.988375 C 27.114168 55.047995 30.645129 55.068908 37.623027 55.111365 C 44.767817 55.154835 48.021827 55.18592 49.712728 55.265877 C 49.756978 56.100519 49.806517 56.995433 49.843986 59.718835 C 49.887366 62.871622 49.907571 64.507518 49.984546 65.720536 C 50.061526 66.933556 50.394988 68.227916 50.634635 68.82629 C 51.968906 72.157786 54.547294 74.760053 57.877087 76.103365 L 59.666125 76.824251 L 80.913924 76.873344 L 90.904529 76.896598 C 90.26649 77.552232 89.283392 78.529964 88.873128 78.984326 C 87.99852 79.952944 87.207166 80.930846 86.847412 82.281283 C 86.032617 85.339853 87.801132 88.912097 90.417737 90.355725 C 91.882831 91.164033 92.635151 91.080442 93.472847 91.08798 C 94.310544 91.09548 95.092748 91.042638 96.166223 90.640462 C 97.229014 90.242293 97.174466 90.115328 97.337728 89.99399 C 97.500989 89.872651 97.609325 89.7813 97.72065 89.687549 C 97.943301 89.500047 98.161306 89.307617 98.414148 89.076217 C 98.919832 88.613415 99.550886 88.013358 100.28897 87.302681 C 101.76515 85.88133 103.6495 84.027711 105.52948 82.152608 C 107.40944 80.277505 109.28074 78.385998 110.72864 76.890914 C 111.45258 76.143372 112.06871 75.496667 112.54714 74.978369 C 112.78635 74.719219 112.98851 74.496139 113.17759 74.27557 C 113.36668 74.055 113.3959 74.254 113.97444 73.140755 C 114.81995 71.513737 115.00314 69.208572 114.33979 67.437744 C 113.87669 66.20153 113.77676 66.378941 113.66025 66.226449 C 113.54374 66.073957 113.45934 65.974517 113.36931 65.869364 C 113.18926 65.659059 112.99808 65.449485 112.76934 65.201188 C 112.31186 64.704595 111.71201 64.073963 110.99994 63.334119 C 109.5758 61.854431 107.7136 59.95227 105.83178 58.054854 C 103.94996 56.157439 102.05458 54.267464 100.56647 52.81073 C 99.82241 52.082317 99.181163 51.464885 98.675631 50.990169 C 98.422865 50.752813 98.208582 50.554279 98.00022 50.371086 C 97.791858 50.187891 98.12745 50.226342 96.87109 49.560799 C 95.513603 48.841683 94.691023 48.835925 93.783423 48.814591 C 92.875824 48.793261 92.066225 48.71072 90.564498 49.482251 C 88.699336 50.440497 87.471585 51.596829 86.831909 53.972416 C 86.717616 54.39687 86.429836 55.401525 86.625203 56.67406 C 86.820571 57.946596 87.41877 58.93962 87.968791 59.677494 C 88.630869 60.565699 89.998606 61.875366 91.091597 62.982202 C 88.135786 62.990902 85.216987 63.001175 81.833765 62.996155 C 76.955216 62.988955 72.047814 62.968363 68.318311 62.935693 C 66.491995 62.919693 64.970488 62.901966 63.863285 62.880916 C 63.822275 61.78027 63.7835 60.337636 63.755798 58.38455 C 63.710618 55.199442 63.690745 53.568487 63.611104 52.349776 C 63.531464 51.131066 63.182431 49.830408 62.949129 49.24609 C 61.614568 45.903615 59.007402 43.365752 55.691174 42.00002 L 53.949162 41.281201 L 38.472587 41.232625 C 34.968755 41.22148 32.305652 41.212987 30.257068 41.212472 z "
     inkscape:label="move" />
</svg>
