<?xml version="1.0" encoding="UTF-8" standalone="no"?>
<svg
   viewBox="0 0 20 20"
   version="1.1"
   id="svg6"
   sodipodi:docname="note_slider.svg"
   width="20"
   height="20"
   inkscape:version="1.1.1 (3bf5ae0d25, 2021-09-20)"
   xmlns:inkscape="http://www.inkscape.org/namespaces/inkscape"
   xmlns:sodipodi="http://sodipodi.sourceforge.net/DTD/sodipodi-0.dtd"
   xmlns="http://www.w3.org/2000/svg"
   xmlns:svg="http://www.w3.org/2000/svg">
  <defs
     id="defs10" />
  <sodipodi:namedview
     id="namedview8"
     pagecolor="#505050"
     bordercolor="#eeeeee"
     borderopacity="1"
     inkscape:pageshadow="0"
     inkscape:pageopacity="0"
     inkscape:pagecheckerboard="0"
     showgrid="false"
     inkscape:zoom="19.972222"
     inkscape:cx="16.673157"
     inkscape:cy="18"
     inkscape:window-width="1920"
     inkscape:window-height="1121"
     inkscape:window-x="-7"
     inkscape:window-y="-7"
     inkscape:window-maximized="1"
     inkscape:current-layer="svg6" />
  <path
     fill="#f4900c"
     d="m 18.488178,10.488819 c 0,-1.0295659 -0.183245,-2.0166909 -0.519277,-2.9299189 -0.22968,2.6907519 -1.664182,4.0728269 -3.163094,3.4292239 -1.404045,-0.60316 -0.457863,-2.9543849 -0.38796,-4.0763229 0.117836,-1.901851 -0.006,-4.078819 -3.46068,-5.8887982 1.435501,2.7461752 0.166268,4.4522992 -1.164878,4.5561542 -1.476943,0.11534 -2.829559,-1.269232 -2.330254,-3.516103 -1.616748,1.191341 -1.663683,3.196548 -1.164878,4.493742 0.520276,1.352116 -0.02097,2.475552 -1.289704,2.600378 -1.418025,0.139805 -2.205927,-1.518385 -1.479439,-4.160705 -1.257249,1.480438 -2.016192,3.397767 -2.016192,5.4923499 0,4.687971 3.800207,8.488178 8.488178,8.488178 4.687971,0 8.488178,-3.800207 8.488178,-8.488178 z"
     id="path2"
     style="stroke-width:0.499305" />
  <path
     fill="#ffcc4d"
     d="m 15.189772,12.984843 c 0.0739,1.539855 -1.278719,2.143514 -2.006705,1.851921 C 12.131531,14.41585 12.413638,13.692857 12.143015,12.194943 11.872392,10.697029 10.832341,9.6569781 9.292985,9.1991151 10.41642,12.361211 8.670352,13.526588 7.755127,13.734798 6.820428,13.947502 5.881236,13.734299 5.773886,11.734085 4.683405,12.819573 4.008345,14.321481 4.008345,15.98117 c 0,0.183744 0.01148,0.364492 0.02746,0.544242 1.532865,1.51489 3.638432,2.451585 5.964193,2.451585 2.325761,0 4.431328,-0.936695 5.964193,-2.451585 0.01598,-0.17975 0.02746,-0.360498 0.02746,-0.544242 0,-1.091979 -0.291594,-2.115055 -0.801883,-2.996327 z"
     id="path4"
     style="stroke-width:0.499305" />
</svg>
