<?xml version="1.0" encoding="UTF-8" standalone="no"?>
<!-- Created with Inkscape (http://www.inkscape.org/) -->

<svg
   width="533.33331"
   height="533.33331"
   viewBox="0 0 141.1111 141.11111"
   version="1.1"
   id="svg1369"
   inkscape:version="1.1.1 (3bf5ae0d25, 2021-09-20)"
   sodipodi:docname="nuke.svg"
   xmlns:inkscape="http://www.inkscape.org/namespaces/inkscape"
   xmlns:sodipodi="http://sodipodi.sourceforge.net/DTD/sodipodi-0.dtd"
   xmlns="http://www.w3.org/2000/svg"
   xmlns:svg="http://www.w3.org/2000/svg">
  <sodipodi:namedview
     id="namedview1371"
     pagecolor="#505050"
     bordercolor="#eeeeee"
     borderopacity="1"
     inkscape:pageshadow="0"
     inkscape:pageopacity="0"
     inkscape:pagecheckerboard="0"
     inkscape:document-units="mm"
     showgrid="false"
     units="px"
     fit-margin-top="0"
     fit-margin-left="0"
     fit-margin-right="0"
     fit-margin-bottom="0"
     inkscape:zoom="0.64052329"
     inkscape:cx="413.72422"
     inkscape:cy="227.15802"
     inkscape:window-width="1920"
     inkscape:window-height="1121"
     inkscape:window-x="-7"
     inkscape:window-y="-7"
     inkscape:window-maximized="1"
     inkscape:current-layer="svg1369" />
  <defs
     id="defs1366" />
  <path
     style="fill:#e6e6e6;stroke-width:0.352778"
     d="M 62.108665,128.04117 C 42.159412,124.93112 25.639969,112.3012 17.446054,93.894431 14.186545,86.572289 12.648487,79.071017 12.659312,70.548982 12.685242,50.135291 22.908427,31.919161 40.42329,21.077881 c 10.928966,-6.76476 24.609172,-9.71114 37.302959,-8.03413 19.602184,2.5897 36.057881,14.34148 44.798191,31.99249 6.36326,12.850553 7.68063,28.290665 3.57642,41.916906 -2.90112,9.631881 -7.11021,16.818833 -14.02,23.938923 -9.20955,9.48984 -20.29145,15.20874 -33.258396,17.16326 -4.22438,0.63674 -12.584077,0.62966 -16.713799,-0.0142 z m 18.54607,-6.52697 c 16.146059,-3.37468 29.058625,-13.33925 36.490505,-28.159555 1.77913,-3.547861 3.28033,-8.026441 4.31392,-12.869903 1.02322,-4.794804 1.10592,-14.355165 0.1652,-19.095183 -2.93892,-14.808388 -11.41499,-27.220648 -23.834557,-34.903088 -5.762427,-3.56449 -11.664611,-5.78672 -18.898957,-7.11564 -4.085985,-0.75057 -12.628318,-0.75671 -16.761688,-0.012 -25.438387,4.58301 -43.378066,25.73244 -43.385576,51.148094 -0.0042,14.260713 5.139658,26.609317 15.310278,36.754535 8.530218,8.50891 18.629208,13.47358 30.467981,14.97809 3.811443,0.48436 12.135834,0.11011 16.132894,-0.72531 z m 0.948976,-5.67752 C 80.04759,115.26103 80.017844,114.54966 80.839587,97.56418 81.265954,88.751153 81.541103,80.886651 81.451028,80.08751 81.10435,77.011775 80.144763,75.78807 69.570281,64.936669 63.489977,58.697135 63.697227,58.7816 53.997528,58.589961 49.8383,58.507791 42.118207,58.426512 36.84177,58.409353 l -9.59352,-0.0312 -0.984236,-0.846603 c -0.966397,-0.831269 -0.975993,-0.877429 -0.529431,-2.547079 1.987778,-7.43208 9.365014,-17.38639 16.876091,-22.77139 5.862616,-4.20315 8.9035,-5.25817 11.267591,-3.90923 0.595083,0.33954 4.129249,3.8223 7.8537,7.73946 8.059007,8.47599 8.147177,8.52771 15.063131,8.8363 4.792567,0.21384 5.589566,-0.0116 6.318771,-1.78749 0.260029,-0.63327 0.557506,-3.41282 0.685998,-6.4098 0.323547,-7.54658 0.489465,-8.60556 1.507839,-9.62393 1.101235,-1.10124 2.298541,-0.94568 5.72897,0.74429 8.332024,4.10473 16.425856,11.78626 20.774936,19.71668 3.24887,5.9242 3.98019,8.86225 2.55997,10.284547 -0.70707,0.708092 -1.18849,0.760631 -8.49483,0.927022 l -7.745275,0.176389 -0.918915,0.919812 c -0.895068,0.895939 -0.920429,1.047013 -0.977258,5.820833 -0.08025,6.741043 -0.0018,6.889467 8.206178,15.484354 3.52048,3.686527 6.655,7.173319 6.96559,7.748424 0.31059,0.575106 0.56471,1.609224 0.56471,2.298044 0,3.541155 -6.85564,12.281224 -13.579087,17.311624 -5.836849,4.36705 -14.54369,8.17686 -16.788982,7.34627 z m 6.511183,-50.024212 c 1.365388,-0.832566 2.051833,-2.70867 1.762753,-4.81773 -0.6864,-5.007837 -5.944055,-10.011947 -10.52923,-10.021477 -3.200227,-0.007 -4.514515,1.32568 -4.514515,4.57648 0,6.438151 8.624104,13.102323 13.280992,10.262727 z"
     id="path2852"
     inkscape:label="nuke" />
</svg>
