<?xml version="1.0" encoding="UTF-8" standalone="no"?>
<!-- Created with Inkscape (http://www.inkscape.org/) -->

<svg
   width="500"
   height="500"
   viewBox="0 0 132.29167 132.29167"
   version="1.1"
   id="svg5"
   inkscape:version="1.2.1 (9c6d41e410, 2022-07-14)"
   sodipodi:docname="pan_icon.svg"
   xml:space="preserve"
   xmlns:inkscape="http://www.inkscape.org/namespaces/inkscape"
   xmlns:sodipodi="http://sodipodi.sourceforge.net/DTD/sodipodi-0.dtd"
   xmlns="http://www.w3.org/2000/svg"
   xmlns:svg="http://www.w3.org/2000/svg"><sodipodi:namedview
     id="namedview7"
     pagecolor="#505050"
     bordercolor="#eeeeee"
     borderopacity="1"
     inkscape:pageshadow="0"
     inkscape:pageopacity="0"
     inkscape:pagecheckerboard="0"
     inkscape:document-units="mm"
     showgrid="false"
     units="px"
     inkscape:zoom="1.121145"
     inkscape:cx="269.36747"
     inkscape:cy="266.69164"
     inkscape:window-width="1920"
     inkscape:window-height="1121"
     inkscape:window-x="-7"
     inkscape:window-y="-7"
     inkscape:window-maximized="1"
     inkscape:current-layer="svg5"
     inkscape:showpageshadow="0"
     inkscape:deskcolor="#505050" /><defs
     id="defs2" /><path
     id="path1666"
     style="fill:#d9d9d9;fill-opacity:1;stroke-width:0.188992"
     d="m 70.846421,63.999137 c 0.293749,0.568385 0.442578,1.290576 0.442576,2.147607 2e-6,2.170854 -1.239838,3.886795 -3.309617,4.580517 -0.51211,0.171643 -13.177846,0.275337 -22.727633,0.284741 l -15.019387,0.01479 4.73664,4.748387 c 5.094047,5.106633 5.277897,5.338592 5.491807,6.927833 0.33563,2.493541 -1.65369,4.994896 -4.250397,5.344411 -0.43558,0.05863 -1.28302,-0.03431 -1.8832,-0.206521 l -1.09123,-0.313118 -9.488243,-9.488241 c -9.47183,-9.471835 -9.48866,-9.489665 -9.73381,-10.311765 -0.2895,-0.970806 -0.2789,-2.270619 0.0267,-3.270861 0.20757,-0.679471 0.70995,-1.207604 9.70714,-10.204795 l 9.488243,-9.488241 1.09123,-0.313117 c 0.60018,-0.172217 1.44762,-0.265149 1.8832,-0.20652 2.596707,0.349514 4.586027,2.85087 4.250397,5.344407 -0.21391,1.589245 -0.39777,1.82119 -5.491797,6.927838 l -4.73687,4.748174 15.019397,0.01479 c 9.903704,0.0098 22.206998,0.110142 22.758385,0.29473 1.142905,0.382611 2.285835,1.359713 2.83626,2.424753 z m -9.401176,4.293393 c -0.293749,-0.568385 -0.442578,-1.290576 -0.442576,-2.147607 -2e-6,-2.170854 1.239838,-3.886795 3.309617,-4.580517 0.51211,-0.171643 13.177846,-0.275337 22.727633,-0.284741 l 15.019391,-0.01479 -4.736644,-4.748387 c -5.094047,-5.106633 -5.277897,-5.338592 -5.491807,-6.927833 -0.33563,-2.493541 1.65369,-4.994896 4.250397,-5.344411 0.43558,-0.05863 1.28302,0.03431 1.8832,0.206521 l 1.09123,0.313118 9.488244,9.488241 c 9.47183,9.471835 9.48866,9.489665 9.73381,10.311765 0.2895,0.970806 0.2789,2.270619 -0.0267,3.270861 -0.20757,0.679471 -0.70995,1.207604 -9.70714,10.204795 l -9.488244,9.488241 -1.09123,0.313117 c -0.60018,0.172217 -1.44762,0.265149 -1.8832,0.20652 -2.596707,-0.349514 -4.586027,-2.85087 -4.250397,-5.344407 0.21391,-1.589245 0.39777,-1.82119 5.491797,-6.927838 l 4.736874,-4.748174 -15.019401,-0.01479 c -9.903704,-0.0098 -22.206998,-0.110142 -22.758385,-0.29473 -1.142905,-0.382611 -2.285835,-1.359713 -2.83626,-2.424753 z m 2.55389,-6.847286 c 0.568385,-0.293749 1.290576,-0.442578 2.147607,-0.442576 2.170854,-2e-6 3.886795,1.239838 4.580517,3.309617 0.171643,0.51211 0.275337,13.177846 0.284741,22.727633 l 0.01479,15.019382 4.748387,-4.736635 c 5.106633,-5.094047 5.338592,-5.277897 6.927833,-5.491807 2.493541,-0.33563 4.994896,1.65369 5.344411,4.250397 0.05863,0.43558 -0.03431,1.28302 -0.206521,1.8832 l -0.313118,1.09123 -9.488241,9.488245 c -9.471835,9.47183 -9.489665,9.48866 -10.311765,9.73381 -0.970806,0.2895 -2.270619,0.2789 -3.270861,-0.0267 -0.679471,-0.20757 -1.207604,-0.70995 -10.204795,-9.70714 l -9.488241,-9.488245 -0.313117,-1.09123 c -0.172217,-0.60018 -0.265149,-1.44762 -0.20652,-1.8832 0.349514,-2.596707 2.85087,-4.586027 5.344407,-4.250397 1.589245,0.21391 1.82119,0.39777 6.927838,5.491797 l 4.748174,4.736865 0.01479,-15.019392 c 0.0098,-9.903704 0.110142,-22.206998 0.29473,-22.758385 0.382611,-1.142905 1.359713,-2.285835 2.424753,-2.83626 z m 4.293393,9.401176 c -0.568385,0.293749 -1.290576,0.442578 -2.147607,0.442576 -2.170854,2e-6 -3.886795,-1.239838 -4.580517,-3.309617 -0.171643,-0.51211 -0.275337,-13.177846 -0.284741,-22.727633 l -0.01479,-15.019387 -4.748387,4.73664 c -5.106633,5.094047 -5.338592,5.277897 -6.927833,5.491807 -2.493541,0.33563 -4.994896,-1.65369 -5.344411,-4.250397 -0.05863,-0.43558 0.03431,-1.28302 0.206521,-1.8832 l 0.313118,-1.09123 9.488241,-9.48824 c 9.471835,-9.47183 9.489665,-9.48866 10.311765,-9.73381 0.970806,-0.2895 2.270619,-0.2789 3.270861,0.0267 0.679471,0.20757 1.207604,0.70995 10.204795,9.70714 l 9.488241,9.48824 0.313117,1.09123 c 0.172217,0.60018 0.265149,1.44762 0.20652,1.8832 -0.349514,2.596707 -2.85087,4.586027 -5.344407,4.250397 -1.589245,-0.21391 -1.82119,-0.39777 -6.927838,-5.491797 l -4.748174,-4.73687 -0.01479,15.019397 c -0.0098,9.903704 -0.110142,22.206998 -0.29473,22.758385 -0.382611,1.142905 -1.359713,2.285835 -2.424753,2.83626 z" /></svg>
