<?xml version="1.0" encoding="UTF-8" standalone="no"?>
<!-- Created with Inkscape (http://www.inkscape.org/) -->

<svg
   width="500mm"
   height="500mm"
   viewBox="0 0 499.99999 500"
   version="1.1"
   id="svg1031"
   inkscape:version="1.1.1 (3bf5ae0d25, 2021-09-20)"
   sodipodi:docname="password_visibility_on.svg"
   xmlns:inkscape="http://www.inkscape.org/namespaces/inkscape"
   xmlns:sodipodi="http://sodipodi.sourceforge.net/DTD/sodipodi-0.dtd"
   xmlns="http://www.w3.org/2000/svg"
   xmlns:svg="http://www.w3.org/2000/svg">
  <sodipodi:namedview
     id="namedview1033"
     pagecolor="#505050"
     bordercolor="#eeeeee"
     borderopacity="1"
     inkscape:pageshadow="0"
     inkscape:pageopacity="0"
     inkscape:pagecheckerboard="0"
     inkscape:document-units="mm"
     showgrid="false"
     fit-margin-top="50"
     lock-margins="true"
     fit-margin-left="50"
     fit-margin-right="50"
     fit-margin-bottom="50"
     inkscape:zoom="0.26051305"
     inkscape:cx="1011.4656"
     inkscape:cy="946.2098"
     inkscape:window-width="1920"
     inkscape:window-height="1121"
     inkscape:window-x="-7"
     inkscape:window-y="-7"
     inkscape:window-maximized="1"
     inkscape:current-layer="svg1031" />
  <defs
     id="defs1028" />
  <path
     id="path935"
     style="display:inline;fill:#d9d9d9;stroke-width:3.21918;fill-opacity:1"
     d="m 1273.2734,257.17188 a 94.497449,94.497449 0 0 0 -81.83,47.24218 l -55.9395,96.88867 c -28.1427,-6.88382 -56.7676,-12.66897 -85.998,-17.04687 -18.631,-2.79039 -57.12608,-4.26787 -107.84379,-4.13672 -66.14215,0.17099 -85.62293,1.3589 -120.71875,7.35742 C 618.65617,422.0513 449.68551,513.05834 299.4375,668.35742 243.37087,726.30888 199.29512,783.04181 153.55469,856.13281 c -50.87657,81.29836 -44.90136,117.33121 39.28125,236.83199 67.18262,95.3687 155.58851,185.0544 247.76367,251.3555 34.99155,25.1693 72.38018,47.9422 111.17578,68.0313 l -55.11523,95.4629 a 94.497449,94.497449 0 0 0 34.58593,129.0722 l 16.6211,9.5957 a 94.497449,94.497449 0 0 0 129.07226,-34.584 L 1371.7227,408.49805 a 94.497449,94.497449 0 0 0 -34.584,-129.07422 l -16.6211,-9.59571 a 94.497449,94.497449 0 0 0 -47.2442,-12.65624 z M 944.88281,550.79297 c 48.26,0.0116 60.71769,1.09703 86.91599,7.57226 3.8936,0.96235 7.4627,2.07854 11.2383,3.09375 l -62.66601,108.54297 c -9.69022,-1.23728 -19.3928,-2.11613 -29.07812,-2.32617 -110.09838,-2.38766 -217.3146,60.80981 -263.32031,171.64844 -19.66175,47.36991 -25.47015,111.11013 -14.83985,162.83398 8.32688,40.5162 26.44001,78.3418 51.45899,110.8672 l -61.81055,107.0605 c -56.71078,-57.8103 -89.36458,-118.424 -106.39063,-197.9433 -8.98135,-41.94698 -7.97428,-123.4058 2.0293,-164.17776 19.39983,-79.06896 50.72153,-134.8602 107.70313,-191.84179 57.22503,-57.22507 111.6154,-87.6083 193.52929,-108.11133 24.4681,-6.12435 37.52369,-7.23009 85.23047,-7.21875 z m 561.46289,39.03906 -170.8242,295.875 c 2.451,18.9553 3.6726,38.6285 3.6465,59.17578 -0.1403,110.21419 -35.1737,196.51029 -112.0313,275.96099 -39.891,41.2367 -86.4631,72.2885 -138.6387,92.7207 L 975.59375,1509.123 c 35.04985,-1.2478 69.36585,-3.2117 83.56835,-5.3398 200.2617,-30.0078 379.7757,-125.4707 531.2324,-282.502 56.2424,-58.3123 92.8872,-105.2699 141.293,-181.0566 56.0773,-87.79761 51.4222,-120.30376 -34.877,-243.56054 -52.0884,-74.39529 -119.3592,-147.17174 -190.4648,-206.83203 z"
     transform="scale(0.26458333)"
     inkscape:label="visibility" />
</svg>
