<?xml version="1.0" encoding="UTF-8" standalone="no"?>
<!-- Created with Inkscape (http://www.inkscape.org/) -->

<svg
   width="500mm"
   height="500mm"
   viewBox="0 0 499.99999 500"
   version="1.1"
   id="svg1031"
   inkscape:version="1.1.1 (3bf5ae0d25, 2021-09-20)"
   sodipodi:docname="password_visibility_off.svg"
   xmlns:inkscape="http://www.inkscape.org/namespaces/inkscape"
   xmlns:sodipodi="http://sodipodi.sourceforge.net/DTD/sodipodi-0.dtd"
   xmlns="http://www.w3.org/2000/svg"
   xmlns:svg="http://www.w3.org/2000/svg">
  <sodipodi:namedview
     id="namedview1033"
     pagecolor="#505050"
     bordercolor="#eeeeee"
     borderopacity="1"
     inkscape:pageshadow="0"
     inkscape:pageopacity="0"
     inkscape:pagecheckerboard="0"
     inkscape:document-units="mm"
     showgrid="false"
     fit-margin-top="50"
     lock-margins="true"
     fit-margin-left="50"
     fit-margin-right="50"
     fit-margin-bottom="50"
     inkscape:zoom="0.26051305"
     inkscape:cx="1011.4656"
     inkscape:cy="946.2098"
     inkscape:window-width="1920"
     inkscape:window-height="1121"
     inkscape:window-x="-7"
     inkscape:window-y="-7"
     inkscape:window-maximized="1"
     inkscape:current-layer="svg1031" />
  <defs
     id="defs1028" />
  <path
     style="display:inline;fill:#d9d9d9;stroke-width:0.851741;fill-opacity:1"
     d="m 232.96518,399.39214 c -1.63961,-0.19602 -6.23901,-0.75358 -10.2209,-1.23901 C 186.66755,393.755 147.99729,378.2867 116.57526,355.68498 92.187249,338.14282 68.796836,314.41305 51.021433,289.18008 28.748119,257.56214 27.166807,248.02856 40.627899,226.51837 52.730054,207.17971 64.391626,192.16934 79.225922,176.83635 118.97904,135.7468 163.68615,111.66776 217.20797,102.51986 c 9.28577,-1.58711 14.44017,-1.90123 31.94028,-1.94647 13.41906,-0.0347 23.60388,0.35587 28.53333,1.09416 39.46314,5.91048 75.23025,20.44667 106.8935,43.44281 23.82387,17.30262 47.21119,41.16255 64.37292,65.67379 22.83333,32.61169 24.06484,41.2119 9.22771,64.44169 -12.80737,20.05189 -22.50319,32.47639 -37.38399,47.9049 -40.07294,41.54785 -87.56901,66.80561 -140.55492,74.74517 -8.11553,1.21604 -40.96853,2.26981 -47.27162,1.51623 z m 37.90247,-46.73343 c 20.88471,-4.38413 39.0652,-14.39931 53.81207,-29.6437 20.33524,-21.02131 29.60465,-43.85417 29.64175,-73.01501 0.0379,-29.80193 -9.57605,-52.80601 -30.99088,-74.15429 -14.94106,-14.89461 -29.29607,-22.912 -50.33359,-28.11171 -6.93163,-1.71324 -10.22821,-2.00045 -22.997,-2.00353 -12.62242,-0.003 -16.07642,0.28948 -22.55027,1.90988 -21.67305,5.42476 -36.06383,13.46396 -51.20462,28.60476 -15.07638,15.07638 -23.36359,29.83755 -28.49646,50.75788 -2.64678,10.78758 -2.91312,32.34033 -0.5368,43.43879 4.59666,21.46847 13.45501,37.73484 29.03326,53.3131 17.61944,17.61944 35.9967,26.61946 62.25638,30.48922 5.36324,0.79036 25.82285,-0.21182 32.36616,-1.58539 z m -36.62486,-30.82273 c -27.5971,-5.90096 -50.44821,-28.9712 -56.14326,-56.68167 -2.8126,-13.68527 -1.27553,-30.54997 3.92664,-43.08326 17.70523,-42.65608 69.67422,-58.6433 108.41642,-33.35213 33.69031,21.99328 43.05251,67.69517 20.83848,101.72367 -10.34807,15.85164 -27.66928,27.66449 -46.12676,31.45787 -8.16857,1.67881 -22.90239,1.64807 -30.91152,-0.0645 z"
     id="path15136"
     inkscape:label="visibility" />
</svg>
