<?xml version="1.0" encoding="UTF-8" standalone="no"?>
<!-- Created with Inkscape (http://www.inkscape.org/) -->

<svg
   width="469.08316"
   height="460.84781"
   viewBox="0 0 124.11158 121.93264"
   version="1.1"
   id="svg5"
   inkscape:version="1.2.1 (9c6d41e410, 2022-07-14)"
   sodipodi:docname="player_loop_icon.svg"
   inkscape:export-filename="C:\Users\leo\Desktop\svgs\combobox.png"
   inkscape:export-xdpi="96"
   inkscape:export-ydpi="96"
   xml:space="preserve"
   xmlns:inkscape="http://www.inkscape.org/namespaces/inkscape"
   xmlns:sodipodi="http://sodipodi.sourceforge.net/DTD/sodipodi-0.dtd"
   xmlns="http://www.w3.org/2000/svg"
   xmlns:svg="http://www.w3.org/2000/svg"><sodipodi:namedview
     id="namedview7"
     pagecolor="#505050"
     bordercolor="#eeeeee"
     borderopacity="1"
     inkscape:pageshadow="0"
     inkscape:pageopacity="0"
     inkscape:pagecheckerboard="0"
     inkscape:document-units="mm"
     showgrid="false"
     inkscape:zoom="1.2800164"
     inkscape:cx="104.29554"
     inkscape:cy="369.52652"
     inkscape:window-width="1920"
     inkscape:window-height="1121"
     inkscape:window-x="-7"
     inkscape:window-y="-7"
     inkscape:window-maximized="1"
     inkscape:current-layer="svg5"
     fit-margin-top="50"
     fit-margin-left="50"
     fit-margin-right="50"
     fit-margin-bottom="50"
     lock-margins="true"
     units="px"
     showguides="false"
     inkscape:showpageshadow="0"
     inkscape:deskcolor="#505050" /><defs
     id="defs2"><rect
       x="-190"
       y="50"
       width="409"
       height="109"
       id="rect62070" /><rect
       x="-268"
       y="6"
       width="249"
       height="367"
       id="rect60744" /><filter
       style="color-interpolation-filters:sRGB"
       inkscape:label="Drop Shadow"
       id="filter41397"
       x="-0.4636397"
       y="-0.4636397"
       width="2.0236785"
       height="2.0043981"><feFlood
         flood-opacity="0.498039"
         flood-color="rgb(0,0,0)"
         result="flood"
         id="feFlood41387" /><feComposite
         in="flood"
         in2="SourceGraphic"
         operator="in"
         result="composite1"
         id="feComposite41389" /><feGaussianBlur
         in="composite1"
         stdDeviation="3"
         result="blur"
         id="feGaussianBlur41391" /><feOffset
         dx="1.49701"
         dy="1.1976"
         result="offset"
         id="feOffset41393" /><feComposite
         in="SourceGraphic"
         in2="offset"
         operator="over"
         result="composite2"
         id="feComposite41395" /></filter><filter
       style="color-interpolation-filters:sRGB"
       inkscape:label="Drop Shadow"
       id="filter48262"
       x="-0.11650321"
       y="-0.11797703"
       width="1.3759789"
       height="1.3795844"><feFlood
         flood-opacity="0.211765"
         flood-color="rgb(0,0,0)"
         result="flood"
         id="feFlood48252" /><feComposite
         in="flood"
         in2="SourceGraphic"
         operator="in"
         result="composite1"
         id="feComposite48254" /><feGaussianBlur
         in="composite1"
         stdDeviation="1"
         result="blur"
         id="feGaussianBlur48256" /><feOffset
         dx="0.7"
         dy="0.7"
         result="offset"
         id="feOffset48258" /><feComposite
         in="SourceGraphic"
         in2="offset"
         operator="over"
         result="composite2"
         id="feComposite48260" /></filter><rect
       x="-268"
       y="6"
       width="249"
       height="367"
       id="rect71674" /><rect
       x="-268"
       y="6"
       width="249"
       height="367"
       id="rect72688" /></defs><path
     id="path12060"
     style="color:#000000;fill:#d9d9d9;stroke-width:2.457;-inkscape-stroke:none;fill-opacity:0.30000001"
     d="M 49.994364 15.908073 C 49.385283 15.880261 48.882433 16.094028 48.539156 16.236218 C 47.757403 16.560032 47.249786 17.027874 46.822465 17.728634 C 46.551238 18.17342 46.349815 18.821418 46.28503 19.740397 C 46.22024 20.659377 46.213033 22.024026 46.212683 24.464657 L 46.212683 28.662333 L 42.554508 28.757935 C 39.365402 28.842054 37.097093 28.994492 35.761641 29.282967 C 22.679894 32.108807 12.940638 41.885177 10.247953 54.906209 C 9.5871616 58.101597 9.5871617 63.857365 10.247953 67.052755 C 12.296105 76.957026 18.511427 85.206674 27.335799 89.699434 C 30.412452 91.265858 34.17575 92.381211 37.53311 92.874951 L 37.53311 92.992257 L 38.634851 93.105428 C 39.619522 93.207286 40.662119 93.244022 41.597461 93.220667 C 42.532803 93.197317 43.315216 93.140167 43.994214 92.939547 C 45.338263 92.542432 46.442424 91.595952 47.271533 90.459078 C 48.100642 89.322205 48.669897 87.969569 48.669897 86.558541 C 48.669897 84.824186 47.941489 83.252005 46.603357 81.913863 C 45.161714 80.472221 43.569406 79.850624 41.365434 79.845772 C 39.799019 79.842272 36.477306 79.131074 34.72863 78.386947 C 22.218581 73.063442 19.120045 57.071757 28.748116 47.574357 C 32.759075 43.617835 36.806006 42.118837 43.730664 42.113192 L 46.212683 42.111125 L 46.212683 46.259709 C 46.212683 49.299134 46.205525 50.912112 46.466931 52.12085 C 46.597636 52.725218 46.840783 53.287322 47.242078 53.705249 C 47.643373 54.123176 48.099196 54.328821 48.504016 54.497965 C 48.904193 54.665169 49.480718 54.935293 50.222774 54.839547 C 50.964832 54.743797 51.579901 54.360434 52.347709 53.750208 C 53.883328 52.529754 56.250147 50.141425 61.09963 45.290776 L 70.986365 35.400423 L 61.09963 25.509554 C 56.275322 20.684086 53.892921 18.287338 52.357528 17.054773 C 51.58983 16.438492 50.991043 16.053536 50.261532 15.935461 C 50.170343 15.920702 50.081376 15.912046 49.994364 15.908073 z M 83.000102 28.723311 C 81.941326 28.693928 81.081606 28.752795 80.275203 28.98221 C 79.2 29.288097 78.337853 29.918665 77.507931 30.752128 C 76.17054 32.095224 75.418136 33.731064 75.418136 35.40249 C 75.418136 37.073917 76.171436 38.706541 77.509998 40.045101 C 78.941438 41.476544 80.539452 42.109574 82.669889 42.109574 C 83.171416 42.109574 84.64074 42.267152 85.611312 42.451156 C 95.953443 44.411859 102.73939 54.495436 100.61711 64.726799 C 99.587581 69.690136 96.61367 74.052654 92.380924 76.808748 C 88.911074 79.068098 85.876779 79.84939 80.302592 79.84939 L 77.902222 79.84939 L 77.902222 75.65223 C 77.901835 73.196882 77.893044 71.82463 77.828324 70.902132 C 77.763624 69.979634 77.56436 69.331823 77.292957 68.886751 C 76.865635 68.185994 76.358019 67.718151 75.576265 67.394336 C 75.183949 67.231834 74.582884 66.975504 73.853373 67.093579 C 73.123862 67.211654 72.525591 67.596608 71.757894 68.212891 C 70.222501 69.445453 67.840096 71.842723 63.015792 76.668188 L 53.129057 86.558541 L 62.902104 96.351742 C 65.354706 98.809761 67.634815 101.06539 69.337887 102.72448 C 70.189422 103.55402 70.895815 104.23519 71.412179 104.72074 C 71.67036 104.96352 71.879902 105.15633 72.044698 105.30262 C 72.127098 105.37572 72.196964 105.43516 72.267424 105.49227 C 72.337883 105.54937 72.270233 105.57194 72.650346 105.73463 L 74.302958 106.44156 L 74.316394 106.0018 C 74.853409 105.966 75.387966 105.82627 75.874955 105.57443 C 76.241911 105.38467 76.666073 105.13732 77.013904 104.70885 C 77.361733 104.28039 77.560124 103.74582 77.673812 103.15649 C 77.901188 101.97783 77.902222 100.38397 77.902222 97.417826 L 77.902222 93.267692 L 80.277271 93.267692 C 84.540529 93.267692 87.165233 92.990621 90.154187 92.203158 C 102.39697 88.977713 111.25608 79.533227 113.8809 66.939583 C 114.52841 63.832849 114.51841 58.048476 113.86695 54.906209 C 110.84078 40.308895 98.826588 29.740972 84.130782 28.779122 C 83.728244 28.752775 83.353027 28.733106 83.000102 28.723311 z " /></svg>
