<?xml version="1.0" encoding="UTF-8" standalone="no"?>
<!-- Created with Inkscape (http://www.inkscape.org/) -->

<svg
   width="469.08316"
   height="460.84781"
   viewBox="0 0 124.11158 121.93264"
   version="1.1"
   id="svg5"
   inkscape:version="1.2.1 (9c6d41e410, 2022-07-14)"
   sodipodi:docname="player_next_icon_hover.svg"
   inkscape:export-filename="C:\Users\leo\Desktop\svgs\combobox.png"
   inkscape:export-xdpi="96"
   inkscape:export-ydpi="96"
   xml:space="preserve"
   xmlns:inkscape="http://www.inkscape.org/namespaces/inkscape"
   xmlns:sodipodi="http://sodipodi.sourceforge.net/DTD/sodipodi-0.dtd"
   xmlns="http://www.w3.org/2000/svg"
   xmlns:svg="http://www.w3.org/2000/svg"><sodipodi:namedview
     id="namedview7"
     pagecolor="#505050"
     bordercolor="#eeeeee"
     borderopacity="1"
     inkscape:pageshadow="0"
     inkscape:pageopacity="0"
     inkscape:pagecheckerboard="0"
     inkscape:document-units="mm"
     showgrid="false"
     inkscape:zoom="1.4142136"
     inkscape:cx="288.85311"
     inkscape:cy="224.85995"
     inkscape:window-width="1920"
     inkscape:window-height="1121"
     inkscape:window-x="-7"
     inkscape:window-y="-7"
     inkscape:window-maximized="1"
     inkscape:current-layer="svg5"
     fit-margin-top="50"
     fit-margin-left="50"
     fit-margin-right="50"
     fit-margin-bottom="50"
     lock-margins="true"
     units="px"
     showguides="false"
     inkscape:showpageshadow="0"
     inkscape:deskcolor="#505050" /><defs
     id="defs2"><rect
       x="-190"
       y="50"
       width="409"
       height="109"
       id="rect62070" /><rect
       x="-268"
       y="6"
       width="249"
       height="367"
       id="rect60744" /><filter
       style="color-interpolation-filters:sRGB"
       inkscape:label="Drop Shadow"
       id="filter41397"
       x="-0.4636397"
       y="-0.4636397"
       width="2.0236785"
       height="2.0043981"><feFlood
         flood-opacity="0.498039"
         flood-color="rgb(0,0,0)"
         result="flood"
         id="feFlood41387" /><feComposite
         in="flood"
         in2="SourceGraphic"
         operator="in"
         result="composite1"
         id="feComposite41389" /><feGaussianBlur
         in="composite1"
         stdDeviation="3"
         result="blur"
         id="feGaussianBlur41391" /><feOffset
         dx="1.49701"
         dy="1.1976"
         result="offset"
         id="feOffset41393" /><feComposite
         in="SourceGraphic"
         in2="offset"
         operator="over"
         result="composite2"
         id="feComposite41395" /></filter><filter
       style="color-interpolation-filters:sRGB"
       inkscape:label="Drop Shadow"
       id="filter48262"
       x="-0.11650321"
       y="-0.11797703"
       width="1.3759789"
       height="1.3795844"><feFlood
         flood-opacity="0.211765"
         flood-color="rgb(0,0,0)"
         result="flood"
         id="feFlood48252" /><feComposite
         in="flood"
         in2="SourceGraphic"
         operator="in"
         result="composite1"
         id="feComposite48254" /><feGaussianBlur
         in="composite1"
         stdDeviation="1"
         result="blur"
         id="feGaussianBlur48256" /><feOffset
         dx="0.7"
         dy="0.7"
         result="offset"
         id="feOffset48258" /><feComposite
         in="SourceGraphic"
         in2="offset"
         operator="over"
         result="composite2"
         id="feComposite48260" /></filter><rect
       x="-268"
       y="6"
       width="249"
       height="367"
       id="rect71674" /><rect
       x="-268"
       y="6"
       width="249"
       height="367"
       id="rect72688" /></defs><path
     style="fill:#d9d9d9;stroke-width:0.175166;fill-opacity:1"
     d="m 89.415139,105.45421 c -1.687544,-0.44208 -2.847216,-1.08793 -4.173114,-2.32409 -1.316718,-1.22759 -2.046611,-2.32842 -2.664408,-4.018472 l -0.46527,-1.272797 V 60.966324 24.093797 l 0.46527,-1.272798 c 0.617797,-1.690048 1.34769,-2.790876 2.664408,-4.018475 1.346883,-1.255721 2.489861,-1.8841 4.242277,-2.332293 1.713547,-0.438251 2.986012,-0.438251 4.69956,0 1.752415,0.448193 2.895394,1.076572 4.242276,2.332293 1.316719,1.227599 2.046612,2.328427 2.664412,4.018475 l 0.46527,1.272798 v 36.872527 36.872527 l -0.46527,1.272797 c -0.6178,1.690052 -1.347693,2.790882 -2.664412,4.018472 -1.346882,1.25573 -2.489861,1.8841 -4.242276,2.3323 -1.67911,0.42944 -3.107512,0.42698 -4.768723,-0.008 z m -61.02196,-0.15699 c -2.606875,-0.70332 -4.56893,-2.56032 -5.474333,-5.18121 -0.362257,-1.048628 -0.363189,-1.13502 -0.413856,-38.361437 -0.03399,-24.976259 0.0091,-37.765902 0.130346,-38.688188 0.584177,-4.443559 4.680436,-7.534397 9.002928,-6.793172 2.71381,0.465367 1.559022,-0.578528 21.704286,19.620038 19.777948,19.830276 19.255923,19.258556 20.094695,22.007661 0.460736,1.510076 0.502067,4.049789 0.09112,5.599278 -0.699919,2.639087 -0.647816,2.576593 -10.447271,12.530444 -4.979474,5.05793 -13.37586,13.498503 -18.658633,18.75683 -8.783395,8.742746 -9.696951,9.600656 -10.679426,10.028936 -1.976797,0.86173 -3.44793,0.99395 -5.349859,0.48082 z"
     id="path4634" /></svg>
