<?xml version="1.0" encoding="UTF-8" standalone="no"?>
<!-- Created with Inkscape (http://www.inkscape.org/) -->

<svg
   width="469.08316"
   height="460.84781"
   viewBox="0 0 124.11158 121.93264"
   version="1.1"
   id="svg5"
   inkscape:version="1.2.1 (9c6d41e410, 2022-07-14)"
   sodipodi:docname="player_beginning_icon.svg"
   inkscape:export-filename="C:\Users\leo\Desktop\svgs\combobox.png"
   inkscape:export-xdpi="96"
   inkscape:export-ydpi="96"
   xml:space="preserve"
   xmlns:inkscape="http://www.inkscape.org/namespaces/inkscape"
   xmlns:sodipodi="http://sodipodi.sourceforge.net/DTD/sodipodi-0.dtd"
   xmlns="http://www.w3.org/2000/svg"
   xmlns:svg="http://www.w3.org/2000/svg"><sodipodi:namedview
     id="namedview7"
     pagecolor="#505050"
     bordercolor="#eeeeee"
     borderopacity="1"
     inkscape:pageshadow="0"
     inkscape:pageopacity="0"
     inkscape:pagecheckerboard="0"
     inkscape:document-units="mm"
     showgrid="false"
     inkscape:zoom="0.8030713"
     inkscape:cx="172.46289"
     inkscape:cy="212.93253"
     inkscape:window-width="1920"
     inkscape:window-height="1121"
     inkscape:window-x="-7"
     inkscape:window-y="-7"
     inkscape:window-maximized="1"
     inkscape:current-layer="svg5"
     fit-margin-top="50"
     fit-margin-left="50"
     fit-margin-right="50"
     fit-margin-bottom="50"
     lock-margins="true"
     units="px"
     showguides="false"
     inkscape:showpageshadow="0"
     inkscape:deskcolor="#505050" /><defs
     id="defs2"><rect
       x="-190"
       y="50"
       width="409"
       height="109"
       id="rect62070" /><rect
       x="-268"
       y="6"
       width="249"
       height="367"
       id="rect60744" /><filter
       style="color-interpolation-filters:sRGB"
       inkscape:label="Drop Shadow"
       id="filter41397"
       x="-0.4636397"
       y="-0.4636397"
       width="2.0236785"
       height="2.0043981"><feFlood
         flood-opacity="0.498039"
         flood-color="rgb(0,0,0)"
         result="flood"
         id="feFlood41387" /><feComposite
         in="flood"
         in2="SourceGraphic"
         operator="in"
         result="composite1"
         id="feComposite41389" /><feGaussianBlur
         in="composite1"
         stdDeviation="3"
         result="blur"
         id="feGaussianBlur41391" /><feOffset
         dx="1.49701"
         dy="1.1976"
         result="offset"
         id="feOffset41393" /><feComposite
         in="SourceGraphic"
         in2="offset"
         operator="over"
         result="composite2"
         id="feComposite41395" /></filter><filter
       style="color-interpolation-filters:sRGB"
       inkscape:label="Drop Shadow"
       id="filter48262"
       x="-0.11650321"
       y="-0.11797703"
       width="1.3759789"
       height="1.3795844"><feFlood
         flood-opacity="0.211765"
         flood-color="rgb(0,0,0)"
         result="flood"
         id="feFlood48252" /><feComposite
         in="flood"
         in2="SourceGraphic"
         operator="in"
         result="composite1"
         id="feComposite48254" /><feGaussianBlur
         in="composite1"
         stdDeviation="1"
         result="blur"
         id="feGaussianBlur48256" /><feOffset
         dx="0.7"
         dy="0.7"
         result="offset"
         id="feOffset48258" /><feComposite
         in="SourceGraphic"
         in2="offset"
         operator="over"
         result="composite2"
         id="feComposite48260" /></filter><rect
       x="-268"
       y="6"
       width="249"
       height="367"
       id="rect71674" /><rect
       x="-268"
       y="6"
       width="249"
       height="367"
       id="rect72688" /></defs><path
     id="path341"
     style="fill:#d9d9d9;fill-opacity:0.30000001;stroke-width:0.175166"
     d="m 109.76241,105.78218 c 3.85264,0.0403 7.2665,-2.87545 7.79591,-6.902425 0.12125,-0.922285 0.16421,-13.71236 0.13023,-38.688594 -0.0507,-37.22638 -0.0517,-37.312856 -0.41393,-38.361483 -0.90541,-2.620896 -2.86773,-4.477756 -5.4746,-5.181076 -1.90193,-0.51313 -3.37275,-0.38062 -5.34955,0.4811 -0.98247,0.42828 -1.89606,1.28611 -10.67945,10.02885 -3.088219,3.073928 -7.203935,7.200402 -11.1156,11.137821 -0.03866,-15.679933 -0.107151,-15.940779 -0.378272,-16.725591 -0.905402,-2.62089 -2.867212,-4.47828 -5.474084,-5.1816 -1.901928,-0.51313 -3.373266,-0.38062 -5.350061,0.48111 -0.982474,0.42828 -1.896066,1.28611 -10.679452,10.028844 -5.282768,5.258322 -13.678824,13.69907 -18.658293,18.756995 -9.799445,9.953841 -9.747506,9.891417 -10.447424,12.530501 -0.410946,1.549487 -0.369785,4.089067 0.09095,5.599141 0.838771,2.749103 0.316969,2.177186 20.094897,22.007443 20.145244,20.198544 18.990294,19.154624 21.704102,19.619994 4.322487,0.74122 8.418891,-2.34932 9.003068,-6.79287 0.07184,-0.546506 0.11304,-5.787278 0.130224,-14.733985 0.752215,0.754182 1.339007,1.343554 2.159558,2.166276 20.145246,20.198549 18.990806,19.154629 21.704616,19.619989 0.40524,0.0695 0.80861,0.10538 1.20716,0.10956 z m -94.40044,-0.2372 c 0.74651,0 1.49296,-0.10953 2.34973,-0.32866 1.75241,-0.44819 2.89576,-1.07644 4.24264,-2.33216 1.31672,-1.2276 2.046121,-2.32831 2.663917,-4.018357 l 0.465605,-1.272791 V 60.720327 23.847643 l -0.465605,-1.272791 c -0.617796,-1.69005 -1.347197,-2.79077 -2.663917,-4.01836 -1.32589,-1.23616 -2.48585,-1.88181 -4.17339,-2.32389 v -5.2e-4 c -1.66121,-0.43497 -3.08959,-0.43719 -4.7687,-0.0077 -1.75242,0.4482 -2.89524,1.07643 -4.2421203,2.33216 -1.31672,1.22759 -2.04664,2.32831 -2.66444,4.01836 l -0.4656,1.272791 v 36.872684 36.872685 l 0.4656,1.272791 c 0.6178,1.690047 1.34772,2.790757 2.66444,4.018357 1.3468803,1.25572 2.4897003,1.88397 4.2421203,2.33216 0.85677,0.21913 1.60322,0.32866 2.34972,0.32866 z" /></svg>
