<?xml version="1.0" encoding="UTF-8" standalone="no"?>
<!-- Created with Inkscape (http://www.inkscape.org/) -->

<svg
   width="545.90491mm"
   height="521.29297mm"
   viewBox="0 0 545.9049 521.29297"
   version="1.1"
   id="svg1031"
   inkscape:version="1.2.1 (9c6d41e410, 2022-07-14)"
   sodipodi:docname="playlist_icon.svg"
   xml:space="preserve"
   xmlns:inkscape="http://www.inkscape.org/namespaces/inkscape"
   xmlns:sodipodi="http://sodipodi.sourceforge.net/DTD/sodipodi-0.dtd"
   xmlns="http://www.w3.org/2000/svg"
   xmlns:svg="http://www.w3.org/2000/svg"><sodipodi:namedview
     id="namedview1033"
     pagecolor="#505050"
     bordercolor="#eeeeee"
     borderopacity="1"
     inkscape:pageshadow="0"
     inkscape:pageopacity="0"
     inkscape:pagecheckerboard="0"
     inkscape:document-units="mm"
     showgrid="false"
     fit-margin-top="50"
     lock-margins="true"
     fit-margin-left="50"
     fit-margin-right="50"
     fit-margin-bottom="50"
     inkscape:zoom="0.26051305"
     inkscape:cx="704.3793"
     inkscape:cy="1009.5464"
     inkscape:window-width="1920"
     inkscape:window-height="1121"
     inkscape:window-x="-7"
     inkscape:window-y="-7"
     inkscape:window-maximized="1"
     inkscape:current-layer="svg1031"
     inkscape:showpageshadow="0"
     inkscape:deskcolor="#505050" /><defs
     id="defs1028"><rect
       x="537.4011"
       y="138.18885"
       width="360.82645"
       height="118.99596"
       id="rect27703" /><rect
       x="349.31072"
       y="103.64164"
       width="1358.8571"
       height="1301.2784"
       id="rect25365" /><filter
       style="color-interpolation-filters:sRGB"
       inkscape:label="Drop Shadow"
       id="filter24645"
       x="-0.15275694"
       y="-0.15275694"
       width="1.3356634"
       height="1.30943"><feFlood
         flood-opacity="0.211765"
         flood-color="rgb(0,0,0)"
         result="flood"
         id="feFlood24635" /><feComposite
         in="flood"
         in2="SourceGraphic"
         operator="in"
         result="composite1"
         id="feComposite24637" /><feGaussianBlur
         in="composite1"
         stdDeviation="11.3772"
         result="blur"
         id="feGaussianBlur24639" /><feOffset
         dx="5.38922"
         dy="0.7"
         result="offset"
         id="feOffset24641" /><feComposite
         in="SourceGraphic"
         in2="offset"
         operator="over"
         result="composite2"
         id="feComposite24643" /></filter><rect
       x="349.31072"
       y="103.64164"
       width="1358.8571"
       height="1301.2784"
       id="rect38893" /></defs><path
     id="rect2858"
     style="opacity:1;vector-effect:none;fill:#d9d9d9;stroke-width:2.2551;stroke-linecap:round;paint-order:markers stroke fill;stop-color:#000000;stop-opacity:1"
     d="m 465.20247,84.290644 h 10e-6 c 19.66711,0 35.50019,15.833096 35.50019,35.500196 v 281.71129 c 0,19.66711 -15.83308,35.50019 -35.50019,35.50019 h -10e-6 c -19.66711,0 -35.50021,-15.83308 -35.50021,-35.50019 V 119.79084 c 0,-19.6671 15.8331,-35.500196 35.50021,-35.500196 z m -280.56599,1.145264 c -21.57036,0 -38.9357,17.365352 -38.9357,38.935712 v 272.55004 c 0,21.57036 17.36534,38.93571 38.9357,38.93571 h 184.37161 c 21.57037,0 38.93572,-17.36535 38.93572,-38.93571 V 124.37162 c 0,-21.57036 -17.36535,-38.935712 -38.93572,-38.935712 z m 56.95214,101.212942 c 3.71431,0.0577 7.44039,0.93996 10.92289,2.69371 1.13383,0.571 4.93737,2.70268 8.45291,4.73719 3.51554,2.0345 22.01906,12.70957 41.11842,23.72256 19.09937,11.01299 35.80124,20.74344 37.11543,21.6232 9.23518,6.18228 13.25897,17.82714 10.02674,29.01736 -1.45705,5.04434 -5.71323,10.73203 -10.24582,13.69235 -0.87539,0.57172 -13.3119,7.80058 -27.63643,16.06445 -14.32451,8.26385 -33.29793,19.21117 -42.16316,24.32738 -8.86525,5.11624 -16.87111,9.63509 -17.79092,10.04188 -4.18145,1.84924 -10.40141,2.5908 -14.70679,1.75328 h -5.9e-4 c -11.74538,-2.2848 -20.14552,-11.46286 -21.26134,-23.22963 -0.40881,-4.31109 -0.40478,-96.62238 0.004,-100.93733 0.56693,-5.97861 2.75851,-10.87157 6.7882,-15.15604 5.23583,-5.56687 12.28484,-8.46065 19.3758,-8.35036 z M 87.297038,85.435818 h 1e-5 c 19.667102,0 35.500202,15.833082 35.500202,35.500202 v 279.42093 c 0,19.66712 -15.8331,35.5002 -35.500202,35.5002 h -1e-5 c -19.667112,0 -35.500201,-15.83308 -35.500201,-35.5002 V 120.93602 c 0,-19.66712 15.833089,-35.500202 35.500201,-35.500202 z"
     inkscape:label="playlist_icon" /></svg>
