<?xml version="1.0" encoding="UTF-8" standalone="no"?>
<!-- Created with Inkscape (http://www.inkscape.org/) -->

<svg
   width="469.08316"
   height="460.84781"
   viewBox="0 0 124.11158 121.93264"
   version="1.1"
   id="svg5"
   inkscape:version="1.2.1 (9c6d41e410, 2022-07-14)"
   sodipodi:docname="player_end_icon_hover.svg"
   inkscape:export-filename="C:\Users\leo\Desktop\svgs\combobox.png"
   inkscape:export-xdpi="96"
   inkscape:export-ydpi="96"
   xml:space="preserve"
   xmlns:inkscape="http://www.inkscape.org/namespaces/inkscape"
   xmlns:sodipodi="http://sodipodi.sourceforge.net/DTD/sodipodi-0.dtd"
   xmlns="http://www.w3.org/2000/svg"
   xmlns:svg="http://www.w3.org/2000/svg"><sodipodi:namedview
     id="namedview7"
     pagecolor="#505050"
     bordercolor="#eeeeee"
     borderopacity="1"
     inkscape:pageshadow="0"
     inkscape:pageopacity="0"
     inkscape:pagecheckerboard="0"
     inkscape:document-units="mm"
     showgrid="false"
     inkscape:zoom="0.8030713"
     inkscape:cx="172.46289"
     inkscape:cy="212.93253"
     inkscape:window-width="1920"
     inkscape:window-height="1121"
     inkscape:window-x="-7"
     inkscape:window-y="-7"
     inkscape:window-maximized="1"
     inkscape:current-layer="svg5"
     fit-margin-top="50"
     fit-margin-left="50"
     fit-margin-right="50"
     fit-margin-bottom="50"
     lock-margins="true"
     units="px"
     showguides="false"
     inkscape:showpageshadow="0"
     inkscape:deskcolor="#505050" /><defs
     id="defs2"><rect
       x="-190"
       y="50"
       width="409"
       height="109"
       id="rect62070" /><rect
       x="-268"
       y="6"
       width="249"
       height="367"
       id="rect60744" /><filter
       style="color-interpolation-filters:sRGB"
       inkscape:label="Drop Shadow"
       id="filter41397"
       x="-0.4636397"
       y="-0.4636397"
       width="2.0236785"
       height="2.0043981"><feFlood
         flood-opacity="0.498039"
         flood-color="rgb(0,0,0)"
         result="flood"
         id="feFlood41387" /><feComposite
         in="flood"
         in2="SourceGraphic"
         operator="in"
         result="composite1"
         id="feComposite41389" /><feGaussianBlur
         in="composite1"
         stdDeviation="3"
         result="blur"
         id="feGaussianBlur41391" /><feOffset
         dx="1.49701"
         dy="1.1976"
         result="offset"
         id="feOffset41393" /><feComposite
         in="SourceGraphic"
         in2="offset"
         operator="over"
         result="composite2"
         id="feComposite41395" /></filter><filter
       style="color-interpolation-filters:sRGB"
       inkscape:label="Drop Shadow"
       id="filter48262"
       x="-0.11650321"
       y="-0.11797703"
       width="1.3759789"
       height="1.3795844"><feFlood
         flood-opacity="0.211765"
         flood-color="rgb(0,0,0)"
         result="flood"
         id="feFlood48252" /><feComposite
         in="flood"
         in2="SourceGraphic"
         operator="in"
         result="composite1"
         id="feComposite48254" /><feGaussianBlur
         in="composite1"
         stdDeviation="1"
         result="blur"
         id="feGaussianBlur48256" /><feOffset
         dx="0.7"
         dy="0.7"
         result="offset"
         id="feOffset48258" /><feComposite
         in="SourceGraphic"
         in2="offset"
         operator="over"
         result="composite2"
         id="feComposite48260" /></filter><rect
       x="-268"
       y="6"
       width="249"
       height="367"
       id="rect71674" /><rect
       x="-268"
       y="6"
       width="249"
       height="367"
       id="rect72688" /></defs><path
     id="path341"
     style="fill:#d9d9d9;fill-opacity:1;stroke-width:0.175166"
     d="M 13.577466 15.904456 C 9.7248253 15.864124 6.3109688 18.779905 5.7815592 22.806877 C 5.6603134 23.729162 5.6173447 36.519237 5.6513346 61.495471 C 5.7020016 98.721851 5.7030062 98.808327 6.0652629 99.856954 C 6.9706647 102.47785 8.9329918 104.33471 11.539864 105.03803 C 13.441791 105.55116 14.912613 105.41865 16.889408 104.55693 C 17.871882 104.12865 18.785474 103.27082 27.56886 94.52808 C 30.657079 91.454152 34.772795 87.327678 38.68446 83.390259 C 38.723123 99.070192 38.791611 99.331038 39.062732 100.11585 C 39.968134 102.73674 41.929944 104.59413 44.536816 105.29745 C 46.438744 105.81058 47.910082 105.67807 49.886877 104.81634 C 50.869351 104.38806 51.782943 103.53023 60.566329 94.787496 C 65.849097 89.529174 74.245153 81.088426 79.224622 76.030501 C 89.024067 66.07666 88.972128 66.139084 89.672046 63.5 C 90.082992 61.950513 90.041831 59.410933 89.581095 57.900859 C 88.742324 55.151756 89.264126 55.723673 69.486198 35.893416 C 49.340954 15.694871 50.495904 16.738792 47.782096 16.273425 C 43.459609 15.532201 39.363205 18.622738 38.779028 23.066292 C 38.707183 23.612798 38.665988 28.85357 38.648804 37.800277 C 37.896589 37.046095 37.309797 36.456723 36.489246 35.634001 C 16.344002 15.435455 17.498435 16.479376 14.784627 16.01401 C 14.379394 15.94452 13.976015 15.908628 13.577466 15.904456 z M 107.97791 16.14165 C 107.2314 16.14165 106.48495 16.251187 105.62818 16.470312 C 103.87577 16.918505 102.73242 17.54675 101.38554 18.80247 C 100.06882 20.030068 99.339419 21.130783 98.721623 22.820829 L 98.256018 24.09362 L 98.256018 60.966305 L 98.256018 97.838989 L 98.721623 99.11178 C 99.339419 100.80183 100.06882 101.90255 101.38554 103.13014 C 102.71143 104.3663 103.87139 105.01195 105.55893 105.45403 L 105.55893 105.45455 C 107.22014 105.88952 108.64852 105.89174 110.32763 105.4623 C 112.08005 105.0141 113.22287 104.38587 114.56975 103.13014 C 115.88647 101.90255 116.61639 100.80183 117.23419 99.11178 L 117.69979 97.838989 L 117.69979 60.966305 L 117.69979 24.09362 L 117.23419 22.820829 C 116.61639 21.130783 115.88647 20.030068 114.56975 18.80247 C 113.22287 17.54675 112.08005 16.918505 110.32763 16.470312 C 109.47086 16.251187 108.72441 16.14165 107.97791 16.14165 z " /></svg>
