<?xml version="1.0" encoding="UTF-8" standalone="no"?>
<!-- Created with Inkscape (http://www.inkscape.org/) -->

<svg
   width="469.08316"
   height="460.84781"
   viewBox="0 0 124.11158 121.93264"
   version="1.1"
   id="svg5"
   inkscape:version="1.2.1 (9c6d41e410, 2022-07-14)"
   sodipodi:docname="player_pause_icon_hover.svg"
   inkscape:export-filename="C:\Users\leo\Desktop\svgs\combobox.png"
   inkscape:export-xdpi="96"
   inkscape:export-ydpi="96"
   xml:space="preserve"
   xmlns:inkscape="http://www.inkscape.org/namespaces/inkscape"
   xmlns:sodipodi="http://sodipodi.sourceforge.net/DTD/sodipodi-0.dtd"
   xmlns="http://www.w3.org/2000/svg"
   xmlns:svg="http://www.w3.org/2000/svg"><sodipodi:namedview
     id="namedview7"
     pagecolor="#505050"
     bordercolor="#eeeeee"
     borderopacity="1"
     inkscape:pageshadow="0"
     inkscape:pageopacity="0"
     inkscape:pagecheckerboard="0"
     inkscape:document-units="mm"
     showgrid="false"
     inkscape:zoom="1.4142136"
     inkscape:cx="288.85311"
     inkscape:cy="224.85995"
     inkscape:window-width="1920"
     inkscape:window-height="1121"
     inkscape:window-x="-7"
     inkscape:window-y="-7"
     inkscape:window-maximized="1"
     inkscape:current-layer="svg5"
     fit-margin-top="50"
     fit-margin-left="50"
     fit-margin-right="50"
     fit-margin-bottom="50"
     lock-margins="true"
     units="px"
     showguides="false"
     inkscape:showpageshadow="0"
     inkscape:deskcolor="#505050" /><defs
     id="defs2"><rect
       x="-190"
       y="50"
       width="409"
       height="109"
       id="rect62070" /><rect
       x="-268"
       y="6"
       width="249"
       height="367"
       id="rect60744" /><filter
       style="color-interpolation-filters:sRGB"
       inkscape:label="Drop Shadow"
       id="filter41397"
       x="-0.4636397"
       y="-0.4636397"
       width="2.0236785"
       height="2.0043981"><feFlood
         flood-opacity="0.498039"
         flood-color="rgb(0,0,0)"
         result="flood"
         id="feFlood41387" /><feComposite
         in="flood"
         in2="SourceGraphic"
         operator="in"
         result="composite1"
         id="feComposite41389" /><feGaussianBlur
         in="composite1"
         stdDeviation="3"
         result="blur"
         id="feGaussianBlur41391" /><feOffset
         dx="1.49701"
         dy="1.1976"
         result="offset"
         id="feOffset41393" /><feComposite
         in="SourceGraphic"
         in2="offset"
         operator="over"
         result="composite2"
         id="feComposite41395" /></filter><filter
       style="color-interpolation-filters:sRGB"
       inkscape:label="Drop Shadow"
       id="filter48262"
       x="-0.11650321"
       y="-0.11797703"
       width="1.3759789"
       height="1.3795844"><feFlood
         flood-opacity="0.211765"
         flood-color="rgb(0,0,0)"
         result="flood"
         id="feFlood48252" /><feComposite
         in="flood"
         in2="SourceGraphic"
         operator="in"
         result="composite1"
         id="feComposite48254" /><feGaussianBlur
         in="composite1"
         stdDeviation="1"
         result="blur"
         id="feGaussianBlur48256" /><feOffset
         dx="0.7"
         dy="0.7"
         result="offset"
         id="feOffset48258" /><feComposite
         in="SourceGraphic"
         in2="offset"
         operator="over"
         result="composite2"
         id="feComposite48260" /></filter><rect
       x="-268"
       y="6"
       width="249"
       height="367"
       id="rect71674" /><rect
       x="-268"
       y="6"
       width="249"
       height="367"
       id="rect72688" /></defs><path
     style="fill:#d9d9d9;stroke-width:0.17898;fill-opacity:1"
     d="m 35.56675,106.51975 c -5.165158,-1.16272 -9.20271,-5.31596 -10.01097,-10.297801 -0.261842,-1.613908 -0.261842,-68.897339 0,-70.511247 1.010771,-6.230054 6.976312,-10.934293 13.317549,-10.501801 3.270384,0.22305 5.859345,1.412275 8.243502,3.786606 1.664806,1.657945 2.743599,3.531279 3.310904,5.749419 0.344515,1.347038 0.352318,2.14939 0.352318,36.221399 0,34.07201 -0.0078,34.874363 -0.352318,36.221401 -0.567305,2.218138 -1.646098,4.091474 -3.310904,5.749414 -2.50048,2.49018 -5.045318,3.61616 -8.50742,3.76416 -1.271154,0.0543 -2.255756,-0.004 -3.042661,-0.18155 z m 48.59308,0.13938 c -1.155196,-0.15587 -3.456747,-0.96956 -4.563962,-1.61353 -0.639838,-0.37214 -1.810337,-1.32094 -2.601108,-2.10846 -1.664806,-1.65794 -2.743599,-3.531276 -3.310904,-5.749414 -0.344515,-1.347038 -0.352318,-2.149391 -0.352318,-36.221401 0,-34.072009 0.0078,-34.874361 0.352318,-36.221399 0.567305,-2.21814 1.646098,-4.091474 3.310904,-5.749419 2.384157,-2.374331 4.973118,-3.563556 8.243502,-3.786606 6.341237,-0.432492 12.306778,4.271747 13.31755,10.501801 0.261842,1.613908 0.261842,68.897339 0,70.511247 -1.072533,6.610721 -7.6128,11.352461 -14.395982,10.437181 z"
     id="path3128" /></svg>
