<?xml version="1.0" encoding="UTF-8" standalone="no"?>
<!-- Created with Inkscape (http://www.inkscape.org/) -->

<svg
   width="545.90491mm"
   height="521.29297mm"
   viewBox="0 0 545.9049 521.29297"
   version="1.1"
   id="svg1031"
   inkscape:version="1.1.1 (3bf5ae0d25, 2021-09-20)"
   sodipodi:docname="production_manager.svg"
   xmlns:inkscape="http://www.inkscape.org/namespaces/inkscape"
   xmlns:sodipodi="http://sodipodi.sourceforge.net/DTD/sodipodi-0.dtd"
   xmlns="http://www.w3.org/2000/svg"
   xmlns:svg="http://www.w3.org/2000/svg">
  <sodipodi:namedview
     id="namedview1033"
     pagecolor="#505050"
     bordercolor="#eeeeee"
     borderopacity="1"
     inkscape:pageshadow="0"
     inkscape:pageopacity="0"
     inkscape:pagecheckerboard="0"
     inkscape:document-units="mm"
     showgrid="false"
     fit-margin-top="50"
     lock-margins="true"
     fit-margin-left="50"
     fit-margin-right="50"
     fit-margin-bottom="50"
     inkscape:zoom="0.26051305"
     inkscape:cx="902.06613"
     inkscape:cy="1011.4656"
     inkscape:window-width="1920"
     inkscape:window-height="1121"
     inkscape:window-x="-7"
     inkscape:window-y="-7"
     inkscape:window-maximized="1"
     inkscape:current-layer="svg1031" />
  <defs
     id="defs1028">
    <rect
       x="537.4011"
       y="138.18885"
       width="360.82645"
       height="118.99596"
       id="rect27703" />
    <rect
       x="349.31072"
       y="103.64164"
       width="1358.8571"
       height="1301.2784"
       id="rect25365" />
    <filter
       style="color-interpolation-filters:sRGB"
       inkscape:label="Drop Shadow"
       id="filter24645"
       x="-0.15275694"
       y="-0.15275694"
       width="1.3356634"
       height="1.30943">
      <feFlood
         flood-opacity="0.211765"
         flood-color="rgb(0,0,0)"
         result="flood"
         id="feFlood24635" />
      <feComposite
         in="flood"
         in2="SourceGraphic"
         operator="in"
         result="composite1"
         id="feComposite24637" />
      <feGaussianBlur
         in="composite1"
         stdDeviation="11.3772"
         result="blur"
         id="feGaussianBlur24639" />
      <feOffset
         dx="5.38922"
         dy="0.7"
         result="offset"
         id="feOffset24641" />
      <feComposite
         in="SourceGraphic"
         in2="offset"
         operator="over"
         result="composite2"
         id="feComposite24643" />
    </filter>
    <rect
       x="349.31072"
       y="103.64164"
       width="1358.8571"
       height="1301.2784"
       id="rect38893" />
  </defs>
  <path
     style="fill:#d9d9d9;stroke-width:0.875545;fill-opacity:1"
     d="M 93.613229,453.64142 C 77.771581,450.20282 62.159438,437.9854 55.05114,423.46431 48.494634,410.07046 48.845175,418.1959 48.82821,279.21833 L 48.813008,154.6721 H 272.95245 497.0919 l -0.0152,124.54623 c -0.017,138.9805 0.33175,130.89743 -6.22044,144.18892 -7.32955,14.86846 -22.77613,26.89972 -38.85491,30.26393 -8.88306,1.85862 -349.81875,1.83031 -358.388117,-0.0298 z M 350.62185,407.18927 c 47.21865,-8.40259 82.87863,-49.56254 84.89054,-97.98353 2.04093,-49.11961 -30.37688,-92.70059 -78.25027,-105.19602 -11.41793,-2.98019 -31.06821,-3.78722 -42.7213,-1.75454 -42.69573,7.4475 -75.29494,38.92831 -85.05781,82.13969 -2.10146,9.30129 -2.07904,31.15148 0.0421,41.00844 9.75976,45.35413 46.63809,78.53944 92.45786,83.19907 8.09045,0.82275 19.13754,0.27767 28.6389,-1.41311 z m -35.20548,-26.10964 c -8.61234,-1.96305 -18.86029,-6.3289 -26.26252,-11.18838 -40.24913,-26.42315 -47.19198,-82.545 -14.51909,-117.3637 11.71963,-12.48933 25.24389,-20.2618 41.43826,-23.8148 l 2.40775,-0.52826 v 45.10724 45.10722 h 45.03478 45.03477 l -1.70696,6.3477 c -0.93882,3.49124 -3.65381,10.28766 -6.0333,15.10315 -9.40425,19.03181 -25.46123,32.66878 -46.43195,39.43403 -6.47568,2.08908 -9.14761,2.43933 -20.5753,2.69704 -8.95527,0.20196 -14.80433,-0.0848 -18.38644,-0.90124 z m 29.33075,-120.97397 v -32.02694 l 2.84551,0.59918 c 22.02909,4.63865 43.15386,20.84447 53.27726,40.8715 3.13316,6.1983 6.91645,17.31871 6.91645,20.32984 v 2.25338 H 376.26673 344.74712 Z M 201.15778,361.30064 v -13.13316 h -45.9661 -45.96608 v 13.13316 13.13317 h 45.96608 45.9661 z m 0,-56.03486 v -13.13316 h -45.9661 -45.96608 v 13.13316 13.13317 h 45.96608 45.9661 z m 0,-56.03486 v -13.13316 h -45.9661 -45.96608 v 13.13316 13.13317 h 45.96608 45.9661 z M 48.813008,97.323915 V 66.242077 H 272.95245 497.0919 V 97.323915 128.40575 H 272.95245 48.813008 Z"
     id="path1490"
     inkscape:label="production_manager" />
</svg>
