<?xml version="1.0" encoding="UTF-8" standalone="no"?>
<!-- Created with Inkscape (http://www.inkscape.org/) -->

<svg
   width="524.76526mm"
   height="497.06363mm"
   viewBox="0 0 524.76525 497.06363"
   version="1.1"
   id="svg1031"
   inkscape:version="1.1.1 (3bf5ae0d25, 2021-09-20)"
   sodipodi:docname="project_manager.svg"
   xmlns:inkscape="http://www.inkscape.org/namespaces/inkscape"
   xmlns:sodipodi="http://sodipodi.sourceforge.net/DTD/sodipodi-0.dtd"
   xmlns="http://www.w3.org/2000/svg"
   xmlns:svg="http://www.w3.org/2000/svg">
  <sodipodi:namedview
     id="namedview1033"
     pagecolor="#505050"
     bordercolor="#eeeeee"
     borderopacity="1"
     inkscape:pageshadow="0"
     inkscape:pageopacity="0"
     inkscape:pagecheckerboard="0"
     inkscape:document-units="mm"
     showgrid="false"
     fit-margin-top="50"
     lock-margins="true"
     fit-margin-left="50"
     fit-margin-right="50"
     fit-margin-bottom="50"
     inkscape:zoom="0.26051305"
     inkscape:cx="1322.3906"
     inkscape:cy="1395.3236"
     inkscape:window-width="1920"
     inkscape:window-height="1121"
     inkscape:window-x="-7"
     inkscape:window-y="-7"
     inkscape:window-maximized="1"
     inkscape:current-layer="svg1031" />
  <defs
     id="defs1028">
    <filter
       style="color-interpolation-filters:sRGB"
       inkscape:label="Drop Shadow"
       id="filter24645"
       x="-0.15275694"
       y="-0.15275694"
       width="1.3356634"
       height="1.30943">
      <feFlood
         flood-opacity="0.211765"
         flood-color="rgb(0,0,0)"
         result="flood"
         id="feFlood24635" />
      <feComposite
         in="flood"
         in2="SourceGraphic"
         operator="in"
         result="composite1"
         id="feComposite24637" />
      <feGaussianBlur
         in="composite1"
         stdDeviation="11.3772"
         result="blur"
         id="feGaussianBlur24639" />
      <feOffset
         dx="5.38922"
         dy="0.7"
         result="offset"
         id="feOffset24641" />
      <feComposite
         in="SourceGraphic"
         in2="offset"
         operator="over"
         result="composite2"
         id="feComposite24643" />
    </filter>
  </defs>
  <path
     style="fill:#d9d9d9;stroke-width:0.844981;fill-opacity:1"
     d="M 347.65148,443.40143 C 247.14791,416.90234 71.866157,369.2911 68.098595,367.46738 c -6.032583,-2.9202 -14.222722,-11.05387 -17.224547,-17.10584 -3.570707,-7.19887 -5.16829,-14.65949 -4.612215,-21.5388 0.349703,-4.32658 6.375101,-25.54205 22.438443,-79.00585 l 21.960355,-73.09098 0.297327,65.48614 c 0.295411,65.07055 0.309463,65.52903 2.213828,72.24598 6.759167,23.84271 23.932164,41.4687 47.481994,48.73444 l 6.31426,1.94812 136.75963,0.23665 c 122.96114,0.21301 136.70907,0.36861 136.25835,1.5431 -0.27561,0.71847 -4.33641,13.54382 -9.02377,28.50079 -5.34314,17.04941 -9.50914,28.84877 -11.16722,31.62886 -7.12522,11.9471 -21.15693,19.71948 -35.41085,19.61466 -2.46434,-0.0192 -9.9941,-1.48664 -16.73283,-3.26338 z M 151.75185,336.82267 c -15.31099,-4.01057 -26.33372,-14.79365 -31.9311,-31.23694 -1.51305,-4.44487 -1.582,-9.2876 -1.582,-111.11519 V 88.002761 l 1.89219,-6.016295 c 3.48937,-11.094686 12.22255,-21.484057 22.36151,-26.602207 10.46535,-5.282878 1.11803,-4.983219 155.44101,-4.983219 99.59579,0 142.20538,0.273694 145.37066,0.933786 11.75043,2.450412 24.02188,11.789652 29.70718,22.608791 5.85467,11.141472 5.58608,5.398551 5.59995,119.738003 0.01,69.98402 -0.27977,104.7558 -0.89646,108.15772 -3.14132,17.3277 -18.46403,32.65044 -35.79173,35.79173 -3.45283,0.62595 -48.439,0.89447 -144.49199,0.86244 -134.80362,-0.045 -139.68595,-0.10092 -145.67922,-1.67084 z M 212.8768,209.5116 c 4.49076,-2.09605 6.03507,-2.36632 13.5197,-2.36632 12.35921,0 15.17066,1.56967 31.36823,17.51338 l 12.77863,12.57832 34.72796,-41.66282 c 36.05019,-43.24902 38.25747,-45.52755 46.84582,-48.35772 8.87425,-2.92438 21.31068,-0.66319 28.65661,5.21035 2.18368,1.74599 16.91808,18.31869 32.74305,36.82816 l 28.7727,33.65359 V 157.37019 91.831833 l -2.46558,-2.759523 -2.46558,-2.759524 -136.74526,-0.248784 c -97.55588,-0.177566 -137.66496,0.01597 -139.95438,0.679765 -2.12948,0.616244 -3.76296,1.837074 -4.85547,3.628863 -1.6034,2.629638 -1.64648,4.950388 -1.64958,88.87066 l -0.003,86.17051 26.82819,-26.76786 c 23.0003,-22.94862 27.55155,-27.10552 31.89809,-29.13421 z m -13.94223,-34.56282 c -13.48956,-3.60913 -23.89701,-15.20499 -26.13846,-29.12317 -3.46072,-21.48907 13.46995,-41.34568 35.25325,-41.34568 10.66741,0 18.88518,3.56745 26.31558,11.42398 13.30506,14.06815 12.96002,35.66958 -0.79097,49.52053 -9.38446,9.45267 -21.97166,12.91362 -34.6394,9.52434 z"
     id="path1051"
     inkscape:label="project_manager" />
</svg>
