<?xml version="1.0" encoding="UTF-8" standalone="no"?>
<!-- Created with Inkscape (http://www.inkscape.org/) -->

<svg
   width="491.41043"
   height="491.41043"
   viewBox="0 0 130.01901 130.019"
   version="1.1"
   id="svg5"
   inkscape:version="1.1.1 (3bf5ae0d25, 2021-09-20)"
   sodipodi:docname="python.svg"
   xmlns:inkscape="http://www.inkscape.org/namespaces/inkscape"
   xmlns:sodipodi="http://sodipodi.sourceforge.net/DTD/sodipodi-0.dtd"
   xmlns="http://www.w3.org/2000/svg"
   xmlns:svg="http://www.w3.org/2000/svg">
  <sodipodi:namedview
     id="namedview7"
     pagecolor="#505050"
     bordercolor="#eeeeee"
     borderopacity="1"
     inkscape:pageshadow="0"
     inkscape:pageopacity="0"
     inkscape:pagecheckerboard="0"
     inkscape:document-units="mm"
     showgrid="false"
     inkscape:zoom="1.1536234"
     inkscape:cx="223.64318"
     inkscape:cy="185.9359"
     inkscape:window-width="1920"
     inkscape:window-height="1121"
     inkscape:window-x="-7"
     inkscape:window-y="-7"
     inkscape:window-maximized="1"
     inkscape:current-layer="svg5"
     fit-margin-top="50"
     fit-margin-left="50"
     fit-margin-right="50"
     fit-margin-bottom="50"
     lock-margins="true"
     units="px" />
  <defs
     id="defs2" />
  <path
     style="fill:#d9d9d9;fill-opacity:1;stroke-width:0.202267"
     d="m 56.514293,116.65361 c -2.21693,-0.36578 -3.12057,-0.59668 -4.38307,-1.11998 -4.37482,-1.81335 -7.702588,-5.7088 -8.919832,-10.44144 -0.317537,-1.23458 -0.350118,-2.84822 -0.350118,-17.340343 0,-15.195869 0.01847,-16.013788 0.376611,-16.687023 0.525714,-0.988206 1.501358,-1.979897 2.455126,-2.495495 0.809063,-0.437374 0.809153,-0.437376 19.923293,-0.53925 17.50158,-0.09328 19.18811,-0.131395 19.9899,-0.451785 2.94012,-1.174856 5.14371,-3.037874 6.38323,-5.396701 1.29175,-2.458187 1.33744,-2.854887 1.33744,-11.61 v -7.867687 l 5.30951,0.09942 c 5.774737,0.108136 6.737447,0.250219 9.170547,1.353439 4.22339,1.914975 7.34976,5.680419 8.53166,10.275649 0.3069,1.193238 0.35012,2.49717 0.35012,10.564399 0,8.067229 -0.0432,9.371161 -0.35012,10.564399 -1.18564,4.609743 -4.30665,8.359938 -8.5638,10.290222 -2.9212,1.324535 -1.83683,1.261628 -23.862407,1.384301 -18.86084,0.105045 -20.0661,0.13294 -20.59032,0.476533 -1.84267,1.207768 -1.77832,4.042262 0.11802,5.198477 0.63753,0.388702 1.041,0.401955 12.26077,0.402685 l 11.60156,8.09e-4 -0.0994,5.309508 c -0.10786,5.759833 -0.25151,6.740283 -1.33887,9.138413 -1.52745,3.36872 -4.24009,6.08765 -7.58817,7.60573 -2.71963,1.23314 -3.04011,1.26684 -12.55851,1.32033 -4.78362,0.0269 -8.92503,0.0113 -9.20315,-0.0346 z m 17.14397,-9.58417 c 2.63106,-1.60418 1.50621,-5.66306 -1.56942,-5.66306 -1.72577,0 -3.03249,1.30672 -3.03249,3.03249 0,1.72578 1.30672,3.0325 3.03249,3.0325 0.55223,0 1.16947,-0.15808 1.56942,-0.40193 z M 26.983317,87.115143 c -1.958294,-0.294114 -3.120129,-0.589007 -4.38307,-1.112492 -4.374815,-1.813352 -7.702587,-5.708799 -8.919832,-10.441437 -0.306904,-1.193238 -0.350118,-2.49717 -0.350118,-10.564399 0,-8.067229 0.04321,-9.371161 0.350118,-10.564399 1.185636,-4.609743 4.306648,-8.359938 8.563798,-10.290222 2.921203,-1.324535 1.836827,-1.261628 23.86241,-1.384301 18.86084,-0.105045 20.0661,-0.13294 20.59032,-0.476533 1.84268,-1.207768 1.77832,-4.042262 -0.11802,-5.198477 -0.63752,-0.388702 -1.04099,-0.401955 -12.26077,-0.402685 l -11.601558,-7.56e-4 0.09942,-5.309508 c 0.107857,-5.759829 0.251503,-6.740278 1.338866,-9.13841 1.930282,-4.25715 5.680482,-7.378162 10.290222,-8.563798 1.19324,-0.306904 2.49717,-0.350118 10.5644,-0.350118 8.06723,0 9.37116,0.04321 10.5644,0.350118 5.57611,1.434188 9.79953,5.657603 11.23371,11.233716 0.31754,1.234577 0.35012,2.848219 0.35012,17.340341 0,15.195869 -0.0185,16.013788 -0.37661,16.687023 -0.52571,0.988206 -1.50136,1.979897 -2.45512,2.495495 -0.80907,0.437374 -0.80916,0.437376 -19.9233,0.53925 -17.50158,0.09328 -19.188109,0.131395 -19.989897,0.451785 -2.940124,1.174856 -5.143709,3.037874 -6.383238,5.396701 -1.291308,2.457364 -1.337439,2.857061 -1.337439,11.588228 V 87.24618 L 32.090555,87.21863 C 29.55969,87.20348 27.261432,87.15691 26.983315,87.115138 Z M 59.499583,28.185322 c 2.63105,-1.604173 1.5062,-5.663055 -1.56942,-5.663055 -1.72578,0 -3.03249,1.306717 -3.03249,3.032492 0,1.725775 1.30671,3.032492 3.03249,3.032492 0.55222,0 1.16946,-0.158075 1.56942,-0.401929 z"
     id="path26262"
     inkscape:label="python" />
</svg>
