<?xml version="1.0" encoding="UTF-8" standalone="no"?>
<!-- Created with Inkscape (http://www.inkscape.org/) -->

<svg
   width="500"
   height="500"
   viewBox="0 0 132.29166 132.29165"
   version="1.1"
   id="svg5"
   inkscape:version="1.1.1 (3bf5ae0d25, 2021-09-20)"
   sodipodi:docname="QTreeViewRight.svg"
   xmlns:inkscape="http://www.inkscape.org/namespaces/inkscape"
   xmlns:sodipodi="http://sodipodi.sourceforge.net/DTD/sodipodi-0.dtd"
   xmlns="http://www.w3.org/2000/svg"
   xmlns:svg="http://www.w3.org/2000/svg">
  <sodipodi:namedview
     id="namedview7"
     pagecolor="#505050"
     bordercolor="#eeeeee"
     borderopacity="1"
     inkscape:pageshadow="0"
     inkscape:pageopacity="0"
     inkscape:pagecheckerboard="0"
     inkscape:document-units="mm"
     showgrid="false"
     inkscape:zoom="1.1536234"
     inkscape:cx="194.17082"
     inkscape:cy="197.20474"
     inkscape:window-width="1920"
     inkscape:window-height="1121"
     inkscape:window-x="-7"
     inkscape:window-y="-7"
     inkscape:window-maximized="1"
     inkscape:current-layer="svg5"
     fit-margin-top="50"
     fit-margin-left="50"
     fit-margin-right="50"
     fit-margin-bottom="50"
     lock-margins="true"
     units="px" />
  <defs
     id="defs2" />
  <path
     id="rect27429"
     style="opacity:1;fill:#d9d9d9;fill-opacity:1;stroke:none;stroke-width:6.0204;stroke-linecap:round;stroke-linejoin:round;stroke-miterlimit:4;stroke-dasharray:none;stroke-dashoffset:0;stroke-opacity:1;paint-order:normal"
     d="m 47.462341,86.276937 c 0.01081,2.22426 0.824506,4.38373 2.460298,6.01952 3.489688,3.48969 9.361187,3.23636 13.165077,-0.56752 L 81.804646,73.012 c 0.10322,-0.103209 0.2026,-0.208449 0.30058,-0.314624 0.09,-0.08243 0.17986,-0.165314 0.26695,-0.252401 1.7042,-1.704193 2.5129,-3.976915 2.45428,-6.299024 0.0587,-2.322286 -0.74997,-4.594708 -2.45428,-6.299025 -0.0869,-0.08692 -0.17664,-0.169617 -0.26645,-0.251901 -0.0982,-0.106359 -0.19768,-0.212236 -0.30108,-0.31563 L 63.087716,40.562468 c -3.80389,-3.803894 -9.675389,-4.056714 -13.165077,-0.567034 -3.489686,3.489691 -3.236862,9.361191 0.567027,13.165081 L 63.4746,66.145951 50.489666,79.130877 c -2.020815,2.02082 -3.039587,4.62523 -3.027325,7.14606 z"
     inkscape:label="right" />
</svg>
