<?xml version="1.0" encoding="UTF-8" standalone="no"?>
<!-- Created with Inkscape (http://www.inkscape.org/) -->

<svg
   width="500"
   height="500"
   viewBox="0 0 132.29166 132.29165"
   version="1.1"
   id="svg5"
   inkscape:version="1.1.1 (3bf5ae0d25, 2021-09-20)"
   sodipodi:docname="QTreeViewDown.svg"
   xmlns:inkscape="http://www.inkscape.org/namespaces/inkscape"
   xmlns:sodipodi="http://sodipodi.sourceforge.net/DTD/sodipodi-0.dtd"
   xmlns="http://www.w3.org/2000/svg"
   xmlns:svg="http://www.w3.org/2000/svg">
  <sodipodi:namedview
     id="namedview7"
     pagecolor="#505050"
     bordercolor="#eeeeee"
     borderopacity="1"
     inkscape:pageshadow="0"
     inkscape:pageopacity="0"
     inkscape:pagecheckerboard="0"
     inkscape:document-units="mm"
     showgrid="false"
     inkscape:zoom="1.1536234"
     inkscape:cx="194.17082"
     inkscape:cy="197.20474"
     inkscape:window-width="1920"
     inkscape:window-height="1121"
     inkscape:window-x="-7"
     inkscape:window-y="-7"
     inkscape:window-maximized="1"
     inkscape:current-layer="svg5"
     fit-margin-top="50"
     fit-margin-left="50"
     fit-margin-right="50"
     fit-margin-bottom="50"
     lock-margins="true"
     units="px" />
  <defs
     id="defs2" />
  <path
     id="rect27429"
     style="opacity:1;fill:#d9d9d9;fill-opacity:1;stroke:none;stroke-width:6.0204;stroke-linecap:round;stroke-linejoin:round;stroke-miterlimit:4;stroke-dasharray:none;stroke-dashoffset:0;stroke-opacity:1;paint-order:normal"
     d="m 46.014726,47.462341 c -2.224256,0.01081 -4.38373,0.824506 -6.019516,2.460298 -3.489692,3.489688 -3.23636,9.361187 0.567525,13.165077 l 18.716932,18.71693 c 0.103209,0.10322 0.208449,0.2026 0.314624,0.30058 0.08243,0.09 0.165314,0.17986 0.252401,0.26695 1.704193,1.7042 3.976915,2.5129 6.299024,2.45428 2.322286,0.0587 4.594708,-0.74997 6.299025,-2.45428 0.08692,-0.0869 0.169617,-0.17664 0.251901,-0.26645 0.106359,-0.0982 0.212236,-0.19768 0.31563,-0.30108 l 18.716927,-18.71693 c 3.803894,-3.80389 4.056714,-9.675389 0.567034,-13.165077 -3.489691,-3.489686 -9.361191,-3.236862 -13.165081,0.567027 L 66.145716,63.4746 53.160787,50.489666 c -2.020815,-2.020815 -4.625224,-3.039587 -7.146061,-3.027325 z"
     inkscape:label="down" />
</svg>
