<?xml version="1.0" encoding="UTF-8" standalone="no"?>
<!-- Created with Inkscape (http://www.inkscape.org/) -->

<svg
   width="500"
   height="500"
   viewBox="0 0 132.29167 132.29167"
   version="1.1"
   id="svg4143"
   inkscape:version="1.1.1 (3bf5ae0d25, 2021-09-20)"
   xmlns:inkscape="http://www.inkscape.org/namespaces/inkscape"
   xmlns:sodipodi="http://sodipodi.sourceforge.net/DTD/sodipodi-0.dtd"
   xmlns="http://www.w3.org/2000/svg"
   xmlns:svg="http://www.w3.org/2000/svg">
  <sodipodi:namedview
     id="namedview4145"
     pagecolor="#505050"
     bordercolor="#eeeeee"
     borderopacity="1"
     inkscape:pageshadow="0"
     inkscape:pageopacity="0"
     inkscape:pagecheckerboard="0"
     inkscape:document-units="mm"
     showgrid="false"
     units="px"
     inkscape:zoom="1.4521788"
     inkscape:cx="249.62492"
     inkscape:cy="250.31354"
     inkscape:window-width="1920"
     inkscape:window-height="1141"
     inkscape:window-x="-7"
     inkscape:window-y="-7"
     inkscape:window-maximized="1"
     inkscape:current-layer="layer1" />
  <defs
     id="defs4140" />
  <g
     inkscape:label="Layer 1"
     inkscape:groupmode="layer"
     id="layer1">
    <rect
       style="display:none;fill:#ffffff;stroke-width:8.32621;stroke-linecap:round;stroke-linejoin:round;stroke-dashoffset:186.406;paint-order:markers fill stroke"
       id="rect4343"
       width="93.285179"
       height="21.736351"
       x="19.503246"
       y="90.825653"
       rx="11.184458"
       inkscape:label="reduce" />
    <path
       id="rect4425"
       style="display:inline;fill:#ffffff;stroke-width:8.32621;stroke-linecap:round;stroke-linejoin:round;stroke-dashoffset:186.406;paint-order:markers fill stroke"
       inkscape:label="close"
       d="m 32.349144,21.471365 c -2.818537,-0.04043 -5.621249,0.998745 -7.749983,3.127481 -4.257471,4.257469 -4.157887,11.212362 0.223483,15.593727 L 50.775587,66.146162 24.822644,92.099105 c -4.38137,4.381367 -4.480954,11.336255 -0.223483,15.593725 4.257466,4.25747 11.212362,4.15725 15.593727,-0.22412 L 66.145832,81.515765 92.098776,107.46871 c 4.381366,4.38137 11.336264,4.48159 15.593724,0.22412 4.25747,-4.25747 4.1579,-11.212358 -0.22348,-15.593725 L 81.516077,66.146162 107.46902,40.192573 c 4.38138,-4.381365 4.48095,-11.336258 0.22348,-15.593727 -4.25746,-4.257468 -11.212358,-4.157242 -15.593724,0.224124 L 66.145832,50.775913 40.192888,24.82297 c -2.190684,-2.190682 -5.025207,-3.311178 -7.843744,-3.351605 z" />
    <path
       id="rect4534"
       style="display:none;fill:#ffffff;stroke-width:8.32621;stroke-linecap:round;stroke-linejoin:round;stroke-dashoffset:186.406;paint-order:markers fill stroke"
       inkscape:label="reduce"
       d="m 30.371168,19.503366 c -2.948362,0 -5.612849,1.198378 -7.566963,3.146744 -0.02617,0.02521 -0.0518,0.05094 -0.07771,0.07643 -0.02548,0.02591 -0.05119,0.05154 -0.07643,0.07771 -1.948366,1.954113 -3.146744,4.619242 -3.146744,7.567603 0,0.05216 0.003,0.103431 0.0039,0.155408 -6.57e-4,0.05366 -0.0039,0.1067 -0.0039,0.160548 v 70.916081 c 0,0.0538 0.0032,0.10688 0.0039,0.16055 -6.57e-4,0.0521 -0.0039,0.10374 -0.0039,0.15605 0,2.94712 1.197259,5.61114 3.144177,7.56504 0.02667,0.0277 0.05396,0.0548 0.08091,0.0821 0.02495,0.0245 0.04932,0.0496 0.0745,0.0738 1.9542,1.94894 4.619396,3.14675 7.568245,3.14675 0.05232,0 0.103916,-0.002 0.156053,-0.004 0.05366,6.6e-4 0.1067,0.004 0.160548,0.004 h 70.916076 c 0.0538,0 0.10689,-0.004 0.16055,-0.004 0.0521,6.6e-4 0.10374,0.004 0.15605,0.004 2.94885,0 5.61405,-1.19781 7.56825,-3.14675 0.0252,-0.0242 0.0496,-0.0493 0.0746,-0.0738 0.027,-0.0273 0.0542,-0.0546 0.0809,-0.0821 1.94692,-1.9539 3.14418,-4.61792 3.14418,-7.56504 0,-0.0523 -0.002,-0.10392 -0.004,-0.15605 6.6e-4,-0.0537 0.004,-0.1067 0.004,-0.16055 V 30.687804 c 0,-0.05385 -0.004,-0.106886 -0.004,-0.160548 6.6e-4,-0.05197 0.004,-0.103257 0.004,-0.155408 0,-2.948361 -1.19838,-5.61349 -3.14675,-7.567603 -0.0252,-0.02617 -0.051,-0.0518 -0.0764,-0.07771 -0.0259,-0.02549 -0.0516,-0.05119 -0.0777,-0.07643 -1.95412,-1.948366 -4.61861,-3.146744 -7.56697,-3.146744 -0.0512,0 -0.10178,0.0032 -0.15284,0.0039 -0.0547,-6.58e-4 -0.10884,-0.0039 -0.16376,-0.0039 H 30.687769 c -0.05493,0 -0.109036,0.003 -0.163761,0.0039 -0.05106,-6.58e-4 -0.101604,-0.0039 -0.15284,-0.0039 z m 10.86847,36.906827 H 91.051979 V 91.052011 H 41.239638 Z" />
  </g>
</svg>
