<?xml version="1.0" encoding="UTF-8" standalone="no"?>
<!-- Created with Inkscape (http://www.inkscape.org/) -->

<svg
   width="500"
   height="500"
   viewBox="0 0 132.29167 132.29167"
   version="1.1"
   id="svg4143"
   inkscape:version="1.1.1 (3bf5ae0d25, 2021-09-20)"
   sodipodi:docname="quit_decoration.svg"
   xmlns:inkscape="http://www.inkscape.org/namespaces/inkscape"
   xmlns:sodipodi="http://sodipodi.sourceforge.net/DTD/sodipodi-0.dtd"
   xmlns="http://www.w3.org/2000/svg"
   xmlns:svg="http://www.w3.org/2000/svg">
  <sodipodi:namedview
     id="namedview4145"
     pagecolor="#505050"
     bordercolor="#eeeeee"
     borderopacity="1"
     inkscape:pageshadow="0"
     inkscape:pageopacity="0"
     inkscape:pagecheckerboard="0"
     inkscape:document-units="mm"
     showgrid="false"
     units="px"
     inkscape:zoom="1.4521788"
     inkscape:cx="244.11594"
     inkscape:cy="250.31353"
     inkscape:window-width="1920"
     inkscape:window-height="1121"
     inkscape:window-x="-7"
     inkscape:window-y="-7"
     inkscape:window-maximized="1"
     inkscape:current-layer="svg4143" />
  <defs
     id="defs4140" />
  <path
     id="rect4425"
     style="display:inline;fill:#d9d9d9;stroke-width:8.32621;stroke-linecap:round;stroke-linejoin:round;stroke-dashoffset:186.406;paint-order:markers fill stroke;fill-opacity:1"
     inkscape:label="close"
     d="m 32.349144,21.471365 c -2.818537,-0.04043 -5.621249,0.998745 -7.749983,3.127481 -4.257471,4.257469 -4.157887,11.212362 0.223483,15.593727 L 50.775587,66.146162 24.822644,92.099105 c -4.38137,4.381367 -4.480954,11.336255 -0.223483,15.593725 4.257466,4.25747 11.212362,4.15725 15.593727,-0.22412 L 66.145832,81.515765 92.098776,107.46871 c 4.381366,4.38137 11.336264,4.48159 15.593724,0.22412 4.25747,-4.25747 4.1579,-11.212358 -0.22348,-15.593725 L 81.516077,66.146162 107.46902,40.192573 c 4.38138,-4.381365 4.48095,-11.336258 0.22348,-15.593727 -4.25746,-4.257468 -11.212358,-4.157242 -15.593724,0.224124 L 66.145832,50.775913 40.192888,24.82297 c -2.190684,-2.190682 -5.025207,-3.311178 -7.843744,-3.351605 z" />
</svg>
