<?xml version="1.0" encoding="UTF-8" standalone="no"?>
<!-- Created with Inkscape (http://www.inkscape.org/) -->

<svg
   width="500"
   height="500"
   viewBox="0 0 132.29167 132.29167"
   version="1.1"
   id="svg5"
   inkscape:version="1.1.1 (3bf5ae0d25, 2021-09-20)"
   sodipodi:docname="quote.svg"
   xmlns:inkscape="http://www.inkscape.org/namespaces/inkscape"
   xmlns:sodipodi="http://sodipodi.sourceforge.net/DTD/sodipodi-0.dtd"
   xmlns="http://www.w3.org/2000/svg"
   xmlns:svg="http://www.w3.org/2000/svg">
  <sodipodi:namedview
     id="namedview7"
     pagecolor="#505050"
     bordercolor="#eeeeee"
     borderopacity="1"
     inkscape:pageshadow="0"
     inkscape:pageopacity="0"
     inkscape:pagecheckerboard="0"
     inkscape:document-units="mm"
     showgrid="false"
     units="px"
     inkscape:zoom="0.56057251"
     inkscape:cx="542.30273"
     inkscape:cy="141.8193"
     inkscape:window-width="1920"
     inkscape:window-height="1121"
     inkscape:window-x="-7"
     inkscape:window-y="-7"
     inkscape:window-maximized="1"
     inkscape:current-layer="svg5" />
  <defs
     id="defs2" />
  <path
     style="fill:#d9d9d9;fill-opacity:1;stroke-width:0.199203"
     d="m 18.901291,110.88569 c -1.694693,-0.46127 -2.852898,-1.55022 -3.460641,-3.25373 -0.216159,-0.60589 -0.270519,-3.66417 -0.277551,-15.614751 -0.01107,-18.801489 0.255909,-24.48439 1.505699,-32.051221 1.510311,-9.14415 4.276807,-15.733603 9.241459,-22.012024 1.598832,-2.021921 5.765807,-6.173671 7.96926,-7.94014 3.614266,-2.897496 8.883756,-6.061619 13.335959,-8.007726 1.330795,-0.581706 1.93464,-0.73541 2.888456,-0.735243 1.478588,2.59e-4 2.864453,0.597828 3.679414,1.586518 0.313155,0.379909 1.580704,2.811537 2.816778,5.40362 2.420815,5.076514 2.67279,5.96998 2.189653,7.764213 -0.393807,1.462486 -1.368352,2.300182 -4.476367,3.847787 -7.000667,3.485907 -10.938174,7.11372 -13.738847,12.658257 -2.025224,4.009372 -3.393052,9.740426 -3.533565,14.805279 l -0.04145,1.49403 8.449976,0.0996 8.449975,0.0996 0.954617,0.561129 c 1.201731,0.706385 2.046913,1.86101 2.334087,3.188654 0.157581,0.728508 0.204652,5.971033 0.160397,17.863833 -0.06258,16.817535 -0.06302,16.833445 -0.493388,17.629545 -0.557175,1.03067 -1.555115,1.979 -2.557305,2.43015 -0.744839,0.3353 -1.894815,0.36125 -17.629539,0.39782 -13.13287,0.0305 -17.038097,-0.0168 -17.767079,-0.2152 z m 58.167521,0 c -1.694695,-0.46127 -2.8529,-1.55022 -3.460641,-3.25373 -0.216337,-0.60639 -0.269815,-3.66977 -0.273971,-15.693756 -0.0063,-18.356742 0.177001,-22.98844 1.20251,-30.378586 0.475264,-3.424891 0.98827,-5.914117 1.806382,-8.764968 2.261852,-7.881812 7.237735,-15.44475 13.965878,-21.227002 4.120938,-3.541585 8.120724,-6.132074 13.45516,-8.714326 2.4213,-1.172083 3.13242,-1.429302 4.13363,-1.495175 1.53091,-0.100723 3.01033,0.488699 3.93343,1.567129 0.35379,0.413324 1.66978,2.888166 2.92443,5.499648 2.23942,4.661243 2.28117,4.77367 2.28108,6.142575 -1.7e-4,2.468583 -0.84984,3.501386 -4.17255,5.071827 -8.38417,3.962697 -13.062424,8.884284 -15.730096,16.548311 -1.097186,3.152134 -2.098961,8.984842 -2.098961,12.220932 v 0.505468 l 8.515957,0.05786 8.51597,0.05786 0.95462,0.561129 c 1.20204,0.706566 2.04714,1.861353 2.33355,3.188654 0.15684,0.726865 0.20416,5.997862 0.16039,17.863834 -0.062,16.818056 -0.0625,16.833426 -0.49285,17.629546 -0.55717,1.03067 -1.55511,1.979 -2.5573,2.43015 -0.74484,0.3353 -1.89482,0.36125 -17.62954,0.39782 -13.13287,0.0305 -17.038098,-0.0168 -17.767078,-0.2152 z"
     id="path1539"
     inkscape:label="quote" />
</svg>
