<?xml version="1.0" encoding="UTF-8" standalone="no"?>
<!-- Created with Inkscape (http://www.inkscape.org/) -->

<svg
   width="469.08316"
   height="460.84781"
   viewBox="0 0 124.11158 121.93264"
   version="1.1"
   id="svg5"
   inkscape:version="1.1.1 (3bf5ae0d25, 2021-09-20)"
   sodipodi:docname="random.svg"
   inkscape:export-filename="C:\Users\leo\Desktop\svgs\combobox.png"
   inkscape:export-xdpi="96"
   inkscape:export-ydpi="96"
   xmlns:inkscape="http://www.inkscape.org/namespaces/inkscape"
   xmlns:sodipodi="http://sodipodi.sourceforge.net/DTD/sodipodi-0.dtd"
   xmlns="http://www.w3.org/2000/svg"
   xmlns:svg="http://www.w3.org/2000/svg">
  <sodipodi:namedview
     id="namedview7"
     pagecolor="#505050"
     bordercolor="#eeeeee"
     borderopacity="1"
     inkscape:pageshadow="0"
     inkscape:pageopacity="0"
     inkscape:pagecheckerboard="0"
     inkscape:document-units="mm"
     showgrid="false"
     inkscape:zoom="1"
     inkscape:cx="51.5"
     inkscape:cy="313.5"
     inkscape:window-width="1920"
     inkscape:window-height="1121"
     inkscape:window-x="-7"
     inkscape:window-y="-7"
     inkscape:window-maximized="1"
     inkscape:current-layer="svg5"
     fit-margin-top="50"
     fit-margin-left="50"
     fit-margin-right="50"
     fit-margin-bottom="50"
     lock-margins="true"
     units="px"
     showguides="false" />
  <defs
     id="defs2">
    <rect
       x="-190"
       y="50"
       width="409"
       height="109"
       id="rect62070" />
    <rect
       x="-268"
       y="6"
       width="249"
       height="367"
       id="rect60744" />
    <filter
       style="color-interpolation-filters:sRGB"
       inkscape:label="Drop Shadow"
       id="filter41397"
       x="-0.4636397"
       y="-0.4636397"
       width="2.0236785"
       height="2.0043981">
      <feFlood
         flood-opacity="0.498039"
         flood-color="rgb(0,0,0)"
         result="flood"
         id="feFlood41387" />
      <feComposite
         in="flood"
         in2="SourceGraphic"
         operator="in"
         result="composite1"
         id="feComposite41389" />
      <feGaussianBlur
         in="composite1"
         stdDeviation="3"
         result="blur"
         id="feGaussianBlur41391" />
      <feOffset
         dx="1.49701"
         dy="1.1976"
         result="offset"
         id="feOffset41393" />
      <feComposite
         in="SourceGraphic"
         in2="offset"
         operator="over"
         result="composite2"
         id="feComposite41395" />
    </filter>
    <filter
       style="color-interpolation-filters:sRGB"
       inkscape:label="Drop Shadow"
       id="filter48262"
       x="-0.11650321"
       y="-0.11797703"
       width="1.3759789"
       height="1.3795844">
      <feFlood
         flood-opacity="0.211765"
         flood-color="rgb(0,0,0)"
         result="flood"
         id="feFlood48252" />
      <feComposite
         in="flood"
         in2="SourceGraphic"
         operator="in"
         result="composite1"
         id="feComposite48254" />
      <feGaussianBlur
         in="composite1"
         stdDeviation="1"
         result="blur"
         id="feGaussianBlur48256" />
      <feOffset
         dx="0.7"
         dy="0.7"
         result="offset"
         id="feOffset48258" />
      <feComposite
         in="SourceGraphic"
         in2="offset"
         operator="over"
         result="composite2"
         id="feComposite48260" />
    </filter>
    <rect
       x="-268"
       y="6"
       width="249"
       height="367"
       id="rect71674" />
    <rect
       x="-268"
       y="6"
       width="249"
       height="367"
       id="rect72688" />
  </defs>
  <path
     style="fill:#d9d9d9;fill-opacity:1;stroke-width:0.187011"
     d="m 83.90094,102.77027 c -0.974068,-0.34995 -1.594075,-1.00161 -1.800764,-1.89268 -0.09322,-0.40191 -0.171504,-2.597538 -0.173958,-4.879181 l -0.0044,-4.148428 -7.994732,-0.0695 c -9.017873,-0.07841 -9.018637,-0.07851 -11.124691,-1.516382 -0.955148,-0.652115 -1.642393,-1.420498 -3.724066,-4.163755 l -2.552766,-3.364072 4.703396,-7.509991 c 2.586867,-4.130496 4.753514,-7.513569 4.814772,-7.517942 0.06125,-0.0044 1.354404,1.633074 2.873658,3.63877 l 2.762282,3.64672 h 5.121074 5.121073 l 0.0044,-4.161001 c 0.005,-4.60844 0.108562,-5.364202 0.840184,-6.127849 0.551809,-0.575965 1.775149,-0.961122 2.558076,-0.805388 0.604823,0.120308 23.616382,17.323821 24.156762,18.059671 0.51235,0.697684 0.51509,2.196063 0.005,2.900149 -0.32029,0.442359 -20.184727,15.543039 -22.795993,17.329199 -1.142773,0.78168 -1.832547,0.9255 -2.789607,0.58166 z M 16.159539,91.620543 c -0.843346,-0.244315 -1.699084,-1.296936 -1.841922,-2.265707 -0.06509,-0.441483 -0.09182,-3.426543 -0.0594,-6.633467 0.0561,-5.548296 0.07764,-5.855774 0.444534,-6.346828 0.212067,-0.283831 0.617885,-0.689565 0.901816,-0.901632 0.502812,-0.37555 0.757883,-0.386964 9.80775,-0.438863 l 9.291513,-0.05329 4.711828,-7.52067 C 55.143171,42.357 60.791492,33.516629 61.683159,32.608502 c 1.18438,-1.206243 2.897812,-2.06039 4.623155,-2.304648 0.719993,-0.10193 4.528011,-0.186995 8.462261,-0.189032 l 7.153181,-0.0037 0.0044,-4.161001 c 0.0025,-2.288551 0.07986,-4.485978 0.172026,-4.883172 0.221062,-0.952744 0.984515,-1.720794 1.95287,-1.964628 0.983462,-0.247637 1.464597,-0.127967 2.639435,0.656491 2.262565,1.510757 22.461153,16.855296 22.795993,17.317744 0.50668,0.699811 0.50668,2.200337 0,2.900148 -0.33484,0.462447 -20.533428,15.806986 -22.795993,17.317744 -1.174838,0.784458 -1.655973,0.904128 -2.639435,0.65649 -0.968325,-0.243829 -1.731778,-1.011879 -1.95284,-1.964622 -0.09216,-0.397194 -0.169573,-2.594622 -0.172027,-4.883172 l -0.0045,-4.161001 h -4.818593 -4.818594 l -12.99423,20.691313 c -9.342519,14.876523 -13.265909,20.96752 -13.960968,21.67417 -1.165164,1.184593 -2.883479,2.062105 -4.550097,2.323642 -1.522356,0.238901 -23.791541,0.229206 -24.619735,-0.01073 z M 33.982772,52.654626 29.71567,46.95943 22.918126,46.90403 c -6.528318,-0.05321 -6.817986,-0.07067 -7.313668,-0.440979 -0.283869,-0.212067 -0.689635,-0.617976 -0.901702,-0.902018 -0.372176,-0.498489 -0.385578,-0.74299 -0.385578,-7.034406 0,-6.291417 0.0134,-6.535918 0.385578,-7.034408 0.212067,-0.284042 0.618026,-0.689949 0.902131,-0.902017 0.505969,-0.377677 0.712647,-0.385578 10.087054,-0.385578 10.819986,0 10.68862,-0.0148 12.873771,1.449858 1.051446,0.704761 1.641837,1.40489 5.238461,6.212163 l 4.05346,5.417885 -0.406741,0.675421 c -1.486842,2.469009 -9.027324,14.382877 -9.105139,14.386012 -0.05273,0.0021 -2.016076,-2.558979 -4.362981,-5.691336 z"
     id="path74023"
     inkscape:label="random" />
</svg>
