<?xml version="1.0" encoding="UTF-8" standalone="no"?>
<!-- Created with Inkscape (http://www.inkscape.org/) -->

<svg
   width="545.90491mm"
   height="521.29297mm"
   viewBox="0 0 545.9049 521.29297"
   version="1.1"
   id="svg1031"
   inkscape:version="1.1.1 (3bf5ae0d25, 2021-09-20)"
   sodipodi:docname="ranking_icon.svg"
   xmlns:inkscape="http://www.inkscape.org/namespaces/inkscape"
   xmlns:sodipodi="http://sodipodi.sourceforge.net/DTD/sodipodi-0.dtd"
   xmlns="http://www.w3.org/2000/svg"
   xmlns:svg="http://www.w3.org/2000/svg">
  <sodipodi:namedview
     id="namedview1033"
     pagecolor="#505050"
     bordercolor="#eeeeee"
     borderopacity="1"
     inkscape:pageshadow="0"
     inkscape:pageopacity="0"
     inkscape:pagecheckerboard="0"
     inkscape:document-units="mm"
     showgrid="false"
     fit-margin-top="50"
     lock-margins="true"
     fit-margin-left="50"
     fit-margin-right="50"
     fit-margin-bottom="50"
     inkscape:zoom="0.26051305"
     inkscape:cx="1322.3906"
     inkscape:cy="1483.6109"
     inkscape:window-width="1920"
     inkscape:window-height="1121"
     inkscape:window-x="-7"
     inkscape:window-y="-7"
     inkscape:window-maximized="1"
     inkscape:current-layer="svg1031" />
  <defs
     id="defs1028">
    <filter
       style="color-interpolation-filters:sRGB"
       inkscape:label="Drop Shadow"
       id="filter24645"
       x="-0.15275694"
       y="-0.15275694"
       width="1.3356634"
       height="1.30943">
      <feFlood
         flood-opacity="0.211765"
         flood-color="rgb(0,0,0)"
         result="flood"
         id="feFlood24635" />
      <feComposite
         in="flood"
         in2="SourceGraphic"
         operator="in"
         result="composite1"
         id="feComposite24637" />
      <feGaussianBlur
         in="composite1"
         stdDeviation="11.3772"
         result="blur"
         id="feGaussianBlur24639" />
      <feOffset
         dx="5.38922"
         dy="0.7"
         result="offset"
         id="feOffset24641" />
      <feComposite
         in="SourceGraphic"
         in2="offset"
         operator="over"
         result="composite2"
         id="feComposite24643" />
    </filter>
  </defs>
  <path
     style="fill:#d9d9d9;stroke-width:0.919185;fill-opacity:1"
     d="m 157.57388,476.28093 c -5.10712,-2.28047 -8.7504,-7.8162 -8.71714,-13.24516 0.0227,-3.70535 3.70958,-9.41099 7.32402,-11.33428 2.45528,-1.30649 5.1906,-1.70426 11.71961,-1.70426 h 8.5168 v -48.68446 c 0,-48.05708 -0.0242,-48.69738 -1.87457,-49.68769 -1.56373,-0.83688 -2.59256,-0.47997 -6.2045,2.15236 -12.09014,8.81115 -25.23426,12.27098 -40.36798,10.62577 -20.47691,-2.22608 -36.761182,-13.09676 -50.093752,-33.44041 -8.47873,-12.93739 -15.43812,-26.52028 -15.43812,-30.13116 0,-11.16086 13.35058,-17.92834 37.38511,-18.9507 l 13.026722,-0.55412 -2.4453,-5.63942 -2.44529,-5.63942 -10.581422,-0.41318 c -8.28498,-0.32351 -12.03903,-0.92881 -17.29771,-2.78909 -8.70745,-3.08028 -16.98395,-8.52875 -23.78375,-15.65702 -7.12705,-7.47133 -11.49555,-14.86713 -15.05226,-25.4832 -3.56381,-10.63726 -4.41951,-23.66475 -2.77659,-42.27185 1.2101,-13.7051 2.25615,-16.51559 7.47486,-20.08317 2.80382,-1.91672 3.90612,-2.11067 9.60174,-1.68937 9.23262,0.68293 20.8585,5.19515 31.19977,12.10922 l 8.63339,5.7722 0.99488,-5.71301 c 0.54718,-3.14215 0.99487,-6.13858 0.99487,-6.65871 0,-0.52013 -2.63163,-2.64761 -5.84807,-4.72772 -6.62994,-4.28767 -15.58381,-13.43389 -19.21169,-19.62441 -11.01818,-18.80109 -10.22244,-44.490204 2.01623,-65.090934 4.93632,-8.30907 16.60451,-23.94281 21.5921,-28.9304 7.495662,-7.49566 15.078162,-6.34886 24.217082,3.66266 8.66794,9.49557 13.74901,19.22725 17.87554,34.23665 1.57224,5.7187 1.96915,9.82457 2.02079,20.904244 0.0734,15.73313 -0.59139,19.01204 -7.91968,39.06535 -11.29635,30.91165 -13.46458,57.04616 -7.13026,85.94378 3.45301,15.75284 11.62312,36.17669 19.47292,48.67889 10.41838,16.59312 25.24109,32.52829 41.51778,44.63376 5.00129,3.7196 10.1717,8.32435 11.48981,10.23277 l 2.39656,3.46985 29.64371,0.0348 29.64371,0.0349 V 312.1556 284.6162 l -29.80772,-0.26594 c -28.4516,-0.25385 -29.92313,-0.35217 -32.34447,-2.16111 -1.39521,-1.04234 -3.38958,-3.03677 -4.43191,-4.43206 -1.81601,-2.43092 -1.90493,-3.84908 -2.12892,-33.95304 -0.23164,-31.13309 -0.21508,-31.44842 1.83837,-34.9972 3.59942,-6.22054 6.22777,-6.98958 23.88842,-6.98958 h 15.41068 v -20.6224 -20.62241 l -16.02164,-0.28905 c -17.49676,-0.31566 -18.49377,-0.6026 -22.98691,-6.61561 -1.78405,-2.38752 -1.91115,-3.95785 -2.16756,-26.78248 -0.25491,-22.69007 -0.15507,-24.47623 1.55562,-27.829464 2.473,-4.84748 5.61003,-6.67821 13.04259,-7.61147 11.83431,-1.48597 19.24747,-6.43342 23.73797,-15.84241 2.74085,-5.74294 5.24086,-8.70054 8.984,-10.62838 1.37414,-0.70772 12.11152,-1.03405 34.02418,-1.03405 36.14875,0 36.50299,0.0612 40.4751,6.98958 l 2.05305,3.58105 0.0151,63.653544 0.0151,63.65355 h 15.41068 c 17.66065,0 20.289,0.76904 23.88842,6.98958 2.05345,3.54878 2.07001,3.86411 1.83837,34.9972 -0.22399,30.10396 -0.31291,31.52212 -2.12892,33.95304 -1.04233,1.39529 -3.0367,3.38972 -4.43191,4.43206 -2.42134,1.80894 -3.89287,1.90726 -32.34447,2.16111 l -29.80772,0.26594 v 27.5394 27.53939 h 29.28891 29.2889 l 2.51022,-3.62225 c 1.38063,-1.99224 5.67662,-5.7866 9.54665,-8.43191 23.13921,-15.81649 40.97998,-36.43818 52.41675,-60.58722 9.20524,-19.4371 13.57282,-37.30744 14.48377,-59.26164 0.93382,-22.50566 -1.57468,-37.05572 -10.80727,-62.6856 -2.96635,-8.23463 -6.06257,-18.8012 -6.8805,-23.48124 -3.66812,-20.98854 2.09271,-45.882174 14.70971,-63.563314 11.33407,-15.88328 20.92275,-18.29409 30.48511,-7.66467 6.45744,7.17801 15.01938,18.98824 19.97132,27.54819 14.03632,24.263224 12.99396,51.591614 -2.73123,71.607274 -4.15074,5.28322 -12.5027,12.32509 -17.9734,15.15411 -2.25556,1.16639 -2.53036,1.73522 -2.07288,4.29085 0.29006,1.62041 0.82238,4.73219 1.18291,6.91508 l 0.65552,3.96888 4.13633,-3.2103 c 10.39275,-8.06603 24.93505,-14.23368 35.38862,-15.00894 5.69668,-0.42249 6.7974,-0.22896 9.60174,1.68812 5.00755,3.42323 6.249,6.51055 7.33646,18.2448 1.94701,21.00924 1.05304,34.18916 -3.13818,46.2668 -3.30323,9.51878 -7.49022,15.89762 -16.16511,24.62744 -12.0246,12.10072 -24.46247,17.30489 -41.42764,17.33391 -5.47961,0.009 -8.09135,0.37008 -8.41774,1.16257 -0.26028,0.63194 -1.49417,3.42396 -2.74199,6.2045 l -2.26876,5.05551 12.06529,0.008 c 13.13803,0.009 18.93769,1.06429 27.69142,5.03998 7.60516,3.45403 9.85816,6.13564 10.37323,12.34661 0.37928,4.57361 0.0477,5.69062 -3.88971,13.10545 -11.20592,21.10245 -23.49664,35.99707 -35.79745,43.38142 -20.22891,12.14373 -44.5553,11.64985 -64.03471,-1.30004 -5.15276,-3.42554 -6.95176,-4.19358 -8.11074,-3.46262 -1.33753,0.84355 -1.51356,5.91777 -1.72717,49.78584 l -0.23786,48.84631 h 8.52486 c 10.11239,0 13.82078,1.52146 17.0363,6.98957 3.65217,6.21068 1.79134,13.34139 -4.75763,18.23122 -2.52809,1.88761 -2.99074,1.89595 -116.22008,2.0947 -93.34312,0.16383 -114.17523,-0.0208 -116.43943,-1.03179 z m 148.9081,-55.6977 c 7.59496,-3.67665 9.98966,-13.29238 5.04109,-20.24202 -3.77749,-5.30498 -5.11247,-5.49507 -38.5915,-5.49507 -33.47903,0 -34.81401,0.19009 -38.5915,5.49507 -4.92309,6.91385 -2.56878,16.49206 4.97113,20.22432 3.52517,1.74496 5.51091,1.85475 33.55996,1.85543 27.93573,6.8e-4 30.05224,-0.11505 33.61082,-1.83773 z"
     id="path1313"
     inkscape:label="trophee" />
</svg>
