<?xml version="1.0" encoding="UTF-8" standalone="no"?>
<!-- Created with Inkscape (http://www.inkscape.org/) -->

<svg
   width="500"
   height="500"
   viewBox="0 0 132.29167 132.29167"
   version="1.1"
   id="svg5"
   inkscape:version="1.1.1 (3bf5ae0d25, 2021-09-20)"
   sodipodi:docname="reference_icon.svg"
   xmlns:inkscape="http://www.inkscape.org/namespaces/inkscape"
   xmlns:sodipodi="http://sodipodi.sourceforge.net/DTD/sodipodi-0.dtd"
   xmlns="http://www.w3.org/2000/svg"
   xmlns:svg="http://www.w3.org/2000/svg">
  <sodipodi:namedview
     id="namedview7"
     pagecolor="#505050"
     bordercolor="#eeeeee"
     borderopacity="1"
     inkscape:pageshadow="0"
     inkscape:pageopacity="0"
     inkscape:pagecheckerboard="0"
     inkscape:document-units="mm"
     showgrid="false"
     units="px"
     inkscape:zoom="0.64052329"
     inkscape:cx="384.84159"
     inkscape:cy="258.38249"
     inkscape:window-width="1920"
     inkscape:window-height="1121"
     inkscape:window-x="-7"
     inkscape:window-y="-7"
     inkscape:window-maximized="1"
     inkscape:current-layer="svg5" />
  <defs
     id="defs2" />
  <path
     style="fill:#d9d9d9;stroke-width:0.232337;fill-opacity:1"
     d="M 44.544099,125.36327 C 35.174465,124.29566 26.468237,120.19605 19.722174,113.67504 3.5687225,98.060507 2.2556573,72.671959 16.717181,55.57252 19.465036,52.323429 58.132082,13.868554 59.878337,12.648191 65.992686,8.3752065 72.427141,6.4257405 79.39464,6.735276 c 8.136444,0.3614678 14.839279,3.320463 20.574623,9.082756 6.068727,6.097243 9.005767,13.247443 8.981137,21.864544 -0.0183,6.394799 -1.80087,12.131698 -5.44098,17.510556 -1.81926,2.688261 -40.232505,41.166153 -42.817903,42.889967 -3.473753,2.316121 -6.702047,3.266351 -10.919836,3.214181 -8.723518,-0.10789 -15.989454,-5.822665 -18.256819,-14.359275 -0.711689,-2.679509 -0.714568,-6.727396 -0.0067,-9.409645 0.628664,-2.382091 1.951527,-5.101559 3.362505,-6.912446 0.572321,-0.734534 9.543586,-9.82027 19.936145,-20.190524 13.430316,-13.401492 19.197962,-19.007011 19.94108,-19.380541 0.712119,-0.35795 1.601178,-0.557554 2.788043,-0.625947 2.308916,-0.133049 4.064542,0.500922 5.569772,2.011295 1.563488,1.56883 2.176811,3.002665 2.197015,5.13621 0.03211,3.391139 1.374531,1.829068 -19.966683,23.233693 -18.752446,18.808168 -19.116191,19.19016 -19.387112,20.359642 -0.751634,3.244569 1.93677,5.934469 5.186606,5.189497 1.172066,-0.26868 1.512321,-0.593784 20.503772,-19.590863 C 88.035957,50.356859 91.093695,47.195216 91.894987,45.814369 95.099422,40.292221 94.93041,33.830581 91.44524,28.61982 90.812809,27.674257 89.646214,26.312636 88.852808,25.593994 87.1046,24.010527 83.873161,22.356515 81.601826,21.88258 c -4.477219,-0.934211 -9.414853,0.112969 -12.884473,2.732557 -1.666098,1.257915 -40.125286,39.760975 -41.441399,41.488669 -6.361848,8.35137 -7.538491,19.445896 -3.055527,28.810473 1.436191,3.000097 3.12469,5.385161 5.455766,7.706471 7.322968,7.29228 17.749731,9.90307 27.729665,6.94333 3.03231,-0.89928 5.893656,-2.38137 8.86173,-4.59008 0.766711,-0.57056 11.901459,-11.513873 24.743884,-24.31849 25.965618,-25.889177 24.022198,-24.170924 27.299598,-24.13662 2.07544,0.02172 3.62168,0.676667 5.06384,2.144903 1.57953,1.608081 2.13765,2.995097 2.12173,5.272856 -0.01,1.441911 -0.13465,2.119185 -0.55557,3.02038 -0.44103,0.944257 -4.85202,5.480985 -23.56727,24.238986 -12.663564,12.692515 -24.02512,23.887635 -25.247886,24.878035 -8.868904,7.18357 -20.370788,10.56664 -31.581815,9.28922 z"
     id="path836"
     inkscape:label="reference" />
</svg>
