<?xml version="1.0" encoding="UTF-8" standalone="no"?>
<!-- Created with Inkscape (http://www.inkscape.org/) -->

<svg
   width="500mm"
   height="500mm"
   viewBox="0 0 499.99999 500"
   version="1.1"
   id="svg1031"
   inkscape:version="1.1.1 (3bf5ae0d25, 2021-09-20)"
   sodipodi:docname="refresh_icon.svg"
   xmlns:inkscape="http://www.inkscape.org/namespaces/inkscape"
   xmlns:sodipodi="http://sodipodi.sourceforge.net/DTD/sodipodi-0.dtd"
   xmlns="http://www.w3.org/2000/svg"
   xmlns:svg="http://www.w3.org/2000/svg">
  <sodipodi:namedview
     id="namedview1033"
     pagecolor="#505050"
     bordercolor="#eeeeee"
     borderopacity="1"
     inkscape:pageshadow="0"
     inkscape:pageopacity="0"
     inkscape:pagecheckerboard="0"
     inkscape:document-units="mm"
     showgrid="false"
     fit-margin-top="50"
     lock-margins="true"
     fit-margin-left="50"
     fit-margin-right="50"
     fit-margin-bottom="50"
     inkscape:zoom="0.36842108"
     inkscape:cx="636.49995"
     inkscape:cy="1021.9285"
     inkscape:window-width="1920"
     inkscape:window-height="1121"
     inkscape:window-x="-7"
     inkscape:window-y="-7"
     inkscape:window-maximized="1"
     inkscape:current-layer="svg1031" />
  <defs
     id="defs1028" />
  <path
     style="fill:#d9d9d9;stroke-width:0.815228;fill-opacity:1"
     d="M 229.51782,454.18053 C 196.249,450.38769 165.2272,437.90099 137.88938,417.29884 127.66831,409.59609 110.38634,392.32026 102.6405,382.06246 70.73747,339.81341 58.716777,291.02114 67.693751,240.21286 79.236859,174.88064 126.52634,120.31605 189.82295,99.295037 c 16.49903,-5.479383 38.9993,-9.49168 53.2277,-9.49168 h 3.87454 l 0.26383,-21.399726 c 0.25837,-20.958691 0.30421,-21.464714 2.22406,-24.553091 3.13011,-5.035279 9.85849,-7.394781 15.31027,-5.368985 2.59138,0.962915 83.68841,81.498835 85.50104,84.909455 0.64348,1.21077 1.16997,3.70524 1.16997,5.54327 0,1.83804 -0.52649,4.33251 -1.16997,5.54327 -1.81263,3.41063 -82.90966,83.94655 -85.50104,84.90946 -5.45178,2.0258 -12.18016,-0.33371 -15.31027,-5.36898 -1.92044,-3.08932 -1.96562,-3.58983 -2.22488,-24.64445 l -0.26462,-21.49108 -7.07243,0.58327 c -14.75015,1.21647 -26.48166,4.48903 -39.4725,11.01105 -10.85969,5.45209 -17.58133,10.3708 -26.70392,19.54118 -20.13408,20.23958 -30.34698,44.79999 -30.35072,72.98873 -0.002,18.5681 3.47334,33.47413 11.37135,48.76612 13.97569,27.05953 40.77146,47.52054 70.04313,53.48433 34.11334,6.95023 66.68676,-1.73163 92.12554,-24.55443 10.55793,-9.47222 16.9863,-17.83389 23.38104,-30.41281 4.724,-9.29243 7.38216,-17.29979 9.83639,-29.63074 2.15532,-10.82917 3.40475,-13.17902 8.29591,-15.60255 3.1312,-1.55148 4.88648,-1.6423 31.7403,-1.6423 27.08426,0 28.5904,0.0797 31.91336,1.68829 5.18799,2.51147 7.24053,6.33868 7.03782,13.12289 -0.33126,11.08673 -4.36945,30.58718 -9.16289,44.24754 -17.22832,49.09745 -53.14398,87.80552 -100.59705,108.41836 -15.48866,6.72801 -28.78036,10.564 -45.36118,13.09124 -10.23705,1.56032 -35.31904,2.23655 -44.42991,1.19786 z"
     id="path9261"
     inkscape:label="refresh" />
</svg>
