<?xml version="1.0" encoding="UTF-8" standalone="no"?>
<!-- Created with Inkscape (http://www.inkscape.org/) -->

<svg
   width="500mm"
   height="500mm"
   viewBox="0 0 499.99999 500"
   version="1.1"
   id="svg1031"
   inkscape:version="1.1.1 (3bf5ae0d25, 2021-09-20)"
   sodipodi:docname="footer_icons.svg"
   xmlns:inkscape="http://www.inkscape.org/namespaces/inkscape"
   xmlns:sodipodi="http://sodipodi.sourceforge.net/DTD/sodipodi-0.dtd"
   xmlns="http://www.w3.org/2000/svg"
   xmlns:svg="http://www.w3.org/2000/svg">
  <sodipodi:namedview
     id="namedview1033"
     pagecolor="#505050"
     bordercolor="#eeeeee"
     borderopacity="1"
     inkscape:pageshadow="0"
     inkscape:pageopacity="0"
     inkscape:pagecheckerboard="0"
     inkscape:document-units="mm"
     showgrid="false"
     fit-margin-top="50"
     lock-margins="true"
     fit-margin-left="50"
     fit-margin-right="50"
     fit-margin-bottom="50"
     inkscape:zoom="0.36842108"
     inkscape:cx="658.21423"
     inkscape:cy="1021.9285"
     inkscape:window-width="1920"
     inkscape:window-height="1141"
     inkscape:window-x="-7"
     inkscape:window-y="-7"
     inkscape:window-maximized="1"
     inkscape:current-layer="layer3" />
  <defs
     id="defs1028" />
  <g
     inkscape:label="running"
     inkscape:groupmode="layer"
     id="layer1"
     transform="translate(129.90465,89.272399)"
     style="display:none;opacity:0.481707">
    <path
       id="path22015"
       style="display:inline;fill:#ffffff;stroke:#000000;stroke-width:1.14427px;stroke-linecap:butt;stroke-linejoin:miter;stroke-opacity:0"
       d="m 258.92492,-63.709423 a 48.159666,48.159666 0 0 0 -48.16005,48.160071 48.159666,48.159666 0 0 0 48.16005,48.157805 48.159666,48.159666 0 0 0 48.1601,-48.157805 48.159666,48.159666 0 0 0 -48.1601,-48.160071 z M 89.84957,11.16455 c -2.492537,-0.04682 -4.499301,0.453983 -7.509309,3.464015 -4.815933,4.815952 -72.5618259,67.424587 -77.6988536,73.845873 -5.13703095,6.421291 -8.3460357,22.473452 2.5701013,35.316022 10.9162123,12.84263 30.5002983,8.66873 39.1690343,0 8.668738,-8.66873 53.939537,-55.863812 53.939537,-55.863812 h 18.62127 L -4.3474462,205.34234 H -82.687709 c 0,0 -30.179521,0.64083 -30.821631,31.46301 -0.64204,30.82224 27.612314,32.75039 27.612314,32.75039 H 22.621225 c 8.347681,0 11.237388,0.96283 16.053362,-3.853 4.815971,-4.816 56.507444,-59.71904 56.507444,-59.71904 l 48.801519,50.72799 c 0,0 -12.59538,88.85197 -14.7683,96.96152 -2.17287,8.10954 3.85261,34.03259 26.3272,36.60113 22.4745,2.56852 32.49026,-9.05883 36.60107,-24.40078 4.11091,-15.34189 23.10655,-120.55077 25.04443,-127.78313 1.93786,-7.23242 -1.10388,-11.29199 -3.85299,-16.05337 -2.74913,-4.76143 -64.85482,-64.2134 -64.85482,-64.2134 l 53.29592,-54.58099 c 0,0 27.93165,27.93388 37.2425,37.24476 9.31087,9.31087 26.32704,11.55692 36.60109,1.2829 10.27407,-10.27406 65.81999,-64.532702 73.20446,-71.917185 7.38453,-7.384444 12.20038,-24.40075 -1.92649,-38.527621 -14.12687,-14.126784 -31.14387,-8.668852 -37.8862,-1.926498 -6.74237,6.742352 -37.24357,37.243549 -42.3806,42.380579 -5.13705,5.137033 -8.99045,5.136405 -11.55895,2.567779 -2.56856,-2.568552 -50.08489,-48.160514 -59.71679,-55.866045 -9.63191,-7.705546 -17.97985,-7.062311 -17.97985,-7.062311 H 95.181994 c -2.167018,0 -3.836937,-0.227119 -5.3325,-0.254774 z"
       inkscape:label="running" />
  </g>
  <g
     inkscape:groupmode="layer"
     id="layer3"
     inkscape:label="refresh">
    <path
       style="fill:#ffffff;stroke-width:0.815228"
       d="M 229.51782,454.18053 C 196.249,450.38769 165.2272,437.90099 137.88938,417.29884 127.66831,409.59609 110.38634,392.32026 102.6405,382.06246 70.73747,339.81341 58.716777,291.02114 67.693751,240.21286 79.236859,174.88064 126.52634,120.31605 189.82295,99.295037 c 16.49903,-5.479383 38.9993,-9.49168 53.2277,-9.49168 h 3.87454 l 0.26383,-21.399726 c 0.25837,-20.958691 0.30421,-21.464714 2.22406,-24.553091 3.13011,-5.035279 9.85849,-7.394781 15.31027,-5.368985 2.59138,0.962915 83.68841,81.498835 85.50104,84.909455 0.64348,1.21077 1.16997,3.70524 1.16997,5.54327 0,1.83804 -0.52649,4.33251 -1.16997,5.54327 -1.81263,3.41063 -82.90966,83.94655 -85.50104,84.90946 -5.45178,2.0258 -12.18016,-0.33371 -15.31027,-5.36898 -1.92044,-3.08932 -1.96562,-3.58983 -2.22488,-24.64445 l -0.26462,-21.49108 -7.07243,0.58327 c -14.75015,1.21647 -26.48166,4.48903 -39.4725,11.01105 -10.85969,5.45209 -17.58133,10.3708 -26.70392,19.54118 -20.13408,20.23958 -30.34698,44.79999 -30.35072,72.98873 -0.002,18.5681 3.47334,33.47413 11.37135,48.76612 13.97569,27.05953 40.77146,47.52054 70.04313,53.48433 34.11334,6.95023 66.68676,-1.73163 92.12554,-24.55443 10.55793,-9.47222 16.9863,-17.83389 23.38104,-30.41281 4.724,-9.29243 7.38216,-17.29979 9.83639,-29.63074 2.15532,-10.82917 3.40475,-13.17902 8.29591,-15.60255 3.1312,-1.55148 4.88648,-1.6423 31.7403,-1.6423 27.08426,0 28.5904,0.0797 31.91336,1.68829 5.18799,2.51147 7.24053,6.33868 7.03782,13.12289 -0.33126,11.08673 -4.36945,30.58718 -9.16289,44.24754 -17.22832,49.09745 -53.14398,87.80552 -100.59705,108.41836 -15.48866,6.72801 -28.78036,10.564 -45.36118,13.09124 -10.23705,1.56032 -35.31904,2.23655 -44.42991,1.19786 z"
       id="path9261" />
  </g>
  <g
     inkscape:groupmode="layer"
     id="layer2"
     inkscape:label="wall"
     style="display:none">
    <path
       style="color:#000000;display:inline;fill:#ffffff;stroke-width:0.310107;stroke-linecap:round;stroke-linejoin:round;stroke-dashoffset:186.406;-inkscape-stroke:none;paint-order:markers fill stroke"
       d="M 84.032934,61.139153 A 29.304396,29.304396 0 0 0 54.731383,90.440706 V 347.74357 a 29.304396,29.304396 0 0 0 29.301551,29.30155 h 86.124576 l 51.1369,79.13626 a 29.304396,29.304396 0 0 0 49.22113,0 l 51.13629,-79.13626 h 96.56769 a 29.304396,29.304396 0 0 0 29.30156,-29.30155 V 90.440706 A 29.304396,29.304396 0 0 0 418.21952,61.139153 Z m 29.301556,58.603097 h 275.58347 v 198.69979 h -83.21852 a 29.304396,29.304396 0 0 0 -24.61056,13.39882 l -35.18391,54.44935 -35.18451,-54.44935 a 29.304396,29.304396 0 0 0 -24.61057,-13.39882 h -72.7754 z"
       id="rect1356" />
  </g>
  <g
     inkscape:groupmode="layer"
     id="g7863"
     inkscape:label="wall notif"
     style="display:none">
    <path
       id="path7859"
       style="color:#000000;display:inline;fill:#ffffff;stroke-width:1.17206;stroke-linecap:round;stroke-linejoin:round;stroke-dashoffset:186.406;-inkscape-stroke:none;paint-order:markers fill stroke"
       d="m 317.60547,231.07617 a 110.75677,110.75677 0 0 0 -110.74609,110.7461 v 972.48433 a 110.75677,110.75677 0 0 0 110.74609,110.7461 h 325.50976 l 193.27344,299.0977 a 110.75677,110.75677 0 0 0 186.03323,0 l 193.2695,-299.0977 h 364.9805 A 110.75677,110.75677 0 0 0 1691.418,1314.3066 V 850.23438 a 477.71421,477.71421 0 0 1 -221.4922,92.22851 v 261.09761 h -314.5254 a 110.75677,110.75677 0 0 0 -93.0176,50.6407 L 929.4043,1459.9941 796.42383,1254.2012 A 110.75677,110.75677 0 0 0 703.4082,1203.5605 H 428.35156 V 452.56836 h 497.85742 a 477.71421,477.71421 0 0 1 63.17188,-221.49219 z"
       transform="scale(0.26458333)" />
    <circle
       style="fill:#f0605b;fill-opacity:1;stroke:none;stroke-width:42.9529;stroke-linecap:round;stroke-linejoin:round;stroke-miterlimit:4;stroke-dasharray:none;stroke-dashoffset:186.406;stroke-opacity:1;paint-order:markers fill stroke"
       id="circle8069"
       cx="371.28601"
       cy="124.24076"
       r="91.92379" />
  </g>
</svg>
