<?xml version="1.0" encoding="UTF-8" standalone="no"?>
<!-- Created with Inkscape (http://www.inkscape.org/) -->

<svg
   width="500"
   height="500"
   viewBox="0 0 132.29167 132.29167"
   version="1.1"
   id="svg5"
   inkscape:version="1.3.2 (091e20e, 2023-11-25, custom)"
   sodipodi:docname="rendering.svg"
   xml:space="preserve"
   xmlns:inkscape="http://www.inkscape.org/namespaces/inkscape"
   xmlns:sodipodi="http://sodipodi.sourceforge.net/DTD/sodipodi-0.dtd"
   xmlns="http://www.w3.org/2000/svg"
   xmlns:svg="http://www.w3.org/2000/svg"><sodipodi:namedview
     id="namedview7"
     pagecolor="#505050"
     bordercolor="#eeeeee"
     borderopacity="1"
     inkscape:pageshadow="0"
     inkscape:pageopacity="0"
     inkscape:pagecheckerboard="0"
     inkscape:document-units="mm"
     showgrid="false"
     units="px"
     inkscape:zoom="1.4142136"
     inkscape:cx="502.39937"
     inkscape:cy="87.681241"
     inkscape:window-width="2880"
     inkscape:window-height="1676"
     inkscape:window-x="-12"
     inkscape:window-y="-12"
     inkscape:window-maximized="1"
     inkscape:current-layer="svg5"
     inkscape:showpageshadow="2"
     inkscape:deskcolor="#d1d1d1" /><defs
     id="defs2" /><path
     style="fill:#70acd4;fill-opacity:1"
     d="m 20.158459,47.310291 -5.844087,19.53059 C 11.023498,77.838413 8.4181584,86.936107 8.3514282,87.6639 c -0.3802869,4.147598 2.3154458,8.825088 6.0843828,10.558528 0.843259,0.387839 11.019967,3.223432 24.818124,6.915342 12.863975,3.44195 29.948444,8.01891 37.965124,10.17095 15.50942,4.16347 16.294071,4.31704 18.956983,3.70314 2.574198,-0.59345 5.645958,-2.88419 6.854878,-5.11184 0.32507,-0.59898 1.63036,-4.39417 2.9006,-8.43359 1.27024,-4.03942 2.35716,-7.471562 2.41535,-7.626924 0.0844,-0.225231 -7.21478,-0.283187 -36.018985,-0.286287 -39.033352,-0.0042 -37.444988,0.04286 -40.523108,-1.200444 -5.31985,-2.148783 -9.272917,-6.670356 -10.90011,-12.467456 -0.500543,-1.783255 -0.509282,-2.044393 -0.626835,-19.191593 z"
     id="path10"
     inkscape:label="image_2" /><path
     style="fill:#4291c6"
     d="m 74.846077,13.313916 -37.738781,0.06511 -1.472262,0.574125 c -3.071216,1.197648 -5.182493,3.065568 -6.630086,5.866309 -1.469606,2.84334 -1.389063,0.982361 -1.389063,32.089514 v 28.360543 l 0.505913,1.609204 c 1.220308,3.880059 4.522456,7.032608 8.482686,8.099247 0.991871,0.267153 7.228007,0.320307 38.965064,0.332797 26.765232,0.01054 38.133302,-0.05771 38.981602,-0.234611 3.14251,-0.655333 6.42426,-3.153203 7.94473,-6.04666 1.56574,-2.979665 1.49359,-1.443527 1.49759,-32.022335 0.002,-18.716453 -0.0743,-28.016073 -0.23927,-28.925883 -0.85112,-4.694832 -4.99271,-8.786387 -9.70018,-9.583394 -1.03907,-0.175939 -12.51177,-0.229988 -39.207943,-0.183968 z m 38.112923,9.669694 0.66042,0.660425 0.66043,0.660425 v 17.579288 c 0,14.819755 -0.0483,17.527517 -0.30696,17.24856 -0.16876,-0.181995 -3.66214,-4.252081 -7.76335,-9.044409 -4.10122,-4.792329 -7.852865,-9.039931 -8.336961,-9.439217 -3.056363,-2.520914 -7.834858,-2.337124 -10.789522,0.414961 -0.515875,0.480505 -4.904048,5.654053 -9.751343,11.496456 -4.847295,5.842402 -8.910666,10.62801 -9.02994,10.63501 -0.119274,0.007 -1.748572,-1.507302 -3.620968,-3.365686 -2.69043,-2.670299 -3.683185,-3.506476 -4.733561,-3.987354 -2.406008,-1.101507 -5.534847,-0.934342 -7.812443,0.418063 -0.435013,0.258306 -3.9687,3.626961 -7.85275,7.485848 l -7.061585,7.016109 V 47.761943 c 0,-16.494931 0.07115,-23.140183 0.252181,-23.494174 0.138836,-0.27148 0.469217,-0.668924 0.734322,-0.883667 0.452267,-0.366347 2.773456,-0.391141 37.616826,-0.395841 z m -61.281017,4.78007 c -2.432659,0.009 -4.872533,0.972514 -6.789767,2.888713 -5.014197,5.011488 -2.997636,13.48524 3.762044,15.809887 2.550249,0.877028 5.90304,0.479264 8.191748,-0.971517 1.25564,-0.795932 2.942995,-2.71935 3.545004,-4.04058 1.68346,-3.694694 0.913899,-7.952056 -1.961638,-10.847917 -1.888842,-1.90219 -4.314732,-2.847539 -6.747391,-2.838586 z"
     id="path9"
     inkscape:label="image" /></svg>
