<?xml version="1.0" encoding="UTF-8" standalone="no"?>
<!-- Created with Inkscape (http://www.inkscape.org/) -->

<svg
   width="500"
   height="500"
   viewBox="0 0 132.29167 132.29167"
   version="1.1"
   id="svg5"
   inkscape:version="1.3.2 (091e20e, 2023-11-25, custom)"
   sodipodi:docname="render_node.svg"
   xml:space="preserve"
   xmlns:inkscape="http://www.inkscape.org/namespaces/inkscape"
   xmlns:sodipodi="http://sodipodi.sourceforge.net/DTD/sodipodi-0.dtd"
   xmlns="http://www.w3.org/2000/svg"
   xmlns:svg="http://www.w3.org/2000/svg"><path
     id="path1"
     style="fill:#d9d9d9;fill-opacity:1"
     d="M 66.145833 17.500741 C 22.334948 17.500741 24.390497 17.452936 22.26169 18.531685 C 21.005432 19.16828 19.16828 21.005432 18.531685 22.26169 C 17.601904 24.096525 17.500741 25.144137 17.500741 32.983 C 17.500741 40.6174 17.613113 41.900221 18.416964 43.475899 C 19.739948 46.069162 22.33383 47.93042 25.191227 48.336584 C 25.504801 48.381154 44.190781 48.408336 66.715824 48.397046 L 107.67043 48.376892 L 108.78044 47.969165 C 110.92559 47.181117 112.85103 45.482465 113.8747 43.475899 C 114.67855 41.900221 114.79093 40.6174 114.79093 32.983 C 114.79093 25.144137 114.68977 24.096525 113.75998 22.26169 C 113.12339 21.005432 111.28624 19.16828 110.02998 18.531685 C 107.90117 17.452933 109.95672 17.500741 66.145833 17.500741 z M 96.912948 28.585335 C 98.518209 28.515712 100.15028 29.315607 100.99952 31.019812 C 102.23887 33.50686 100.98394 36.383309 98.308728 37.188428 C 97.267677 37.501733 96.891607 37.50005 95.857198 37.176542 C 93.995425 36.59428 92.937449 35.24523 92.796403 33.273938 C 92.736188 32.43235 92.797421 31.817327 92.986056 31.367078 C 93.728971 29.593818 95.307686 28.654958 96.912948 28.585335 z M 83.71427 28.593604 C 85.216645 28.500655 86.540076 29.186424 87.518689 30.580046 C 88.048102 31.333968 88.095831 31.530122 88.093331 32.952511 C 88.090948 34.309387 88.026918 34.602038 87.581217 35.290869 C 86.958812 36.2528 86.162038 36.840571 85.011348 37.186877 C 83.965549 37.501567 83.589253 37.500324 82.559302 37.178092 C 79.918199 36.351795 78.699214 33.416004 79.979614 30.965035 C 80.627968 29.723945 81.644366 28.970349 83.060046 28.680937 C 83.281481 28.635668 83.499645 28.606882 83.71427 28.593604 z M 66.145833 50.752458 C 25.733658 50.752458 24.922798 50.759425 23.738086 51.125562 C 20.636536 52.084101 18.200208 54.877047 17.681608 58.068807 C 17.440676 59.551638 17.440676 72.740028 17.681608 74.22286 C 18.063299 76.572002 19.814646 79.157822 21.827091 80.34445 C 22.276307 80.609328 23.131202 80.981732 23.727234 81.172306 C 24.761758 81.503085 26.683264 81.51959 66.078137 81.52939 C 106.57254 81.539418 107.3684 81.532387 108.55358 81.166105 C 111.65513 80.207566 114.09146 77.41462 114.61006 74.22286 C 114.85099 72.740028 114.85099 59.551638 114.61006 58.068807 C 114.09146 54.877047 111.65513 52.084101 108.55358 51.125562 C 107.36887 50.75939 106.55801 50.752458 66.145833 50.752458 z M 32.978866 59.512646 C 33.260267 59.511053 33.539222 59.604788 33.937463 59.793766 C 35.082499 60.337121 35.168396 60.781837 35.168396 66.145833 C 35.168396 71.50983 35.082499 71.954546 33.937463 72.4979 C 33.146471 72.873248 32.766649 72.869291 31.975309 72.479297 C 30.849735 71.924581 30.797603 71.643349 30.797603 66.145833 C 30.797603 60.623919 30.849127 60.354012 32.005798 59.805135 C 32.413662 59.611592 32.697464 59.51424 32.978866 59.512646 z M 50.661507 59.512646 C 50.942909 59.51424 51.226711 59.611591 51.634574 59.805135 C 52.791243 60.354012 52.842769 60.623919 52.842769 66.145833 C 52.842769 71.667748 52.791245 71.937655 51.634574 72.486532 C 50.825163 72.870627 50.445082 72.871455 49.672937 72.490666 C 48.559537 71.941583 48.47146 71.477617 48.47146 66.145833 C 48.47146 60.781837 48.557873 60.337121 49.702909 59.793766 C 50.101151 59.604787 50.380105 59.511053 50.661507 59.512646 z M 41.907003 59.543652 C 42.111034 59.548133 42.310314 59.612437 42.612903 59.739506 C 43.945529 60.29913 43.998574 60.517856 44.064494 65.75671 C 44.12839 70.83486 44.01801 71.617993 43.150338 72.254504 C 42.110425 73.017371 40.669377 72.778213 39.981539 71.728438 C 39.667536 71.249213 39.63479 70.716739 39.63479 66.120512 C 39.63479 61.266846 39.65192 61.01871 40.031665 60.505868 C 40.250183 60.21076 40.763534 59.851771 41.172164 59.707983 C 41.494298 59.594633 41.702971 59.539172 41.907003 59.543652 z M 66.145833 83.914775 C 26.725499 83.914775 24.760711 83.931171 23.721033 84.26049 C 21.582015 84.938023 19.469785 86.752068 18.416964 88.815767 C 17.613113 90.391446 17.500741 91.674267 17.500741 99.308667 C 17.500741 107.14753 17.601904 108.19515 18.531685 110.02998 C 19.169472 111.2886 21.006103 113.1242 22.267891 113.7636 C 22.809951 114.03828 23.775052 114.37629 24.412463 114.51497 C 25.354074 114.71982 33.161811 114.76904 66.050749 114.77904 C 109.97347 114.79185 107.89965 114.83951 110.02998 113.75998 C 111.28624 113.12339 113.12339 111.28624 113.75998 110.02998 C 114.68977 108.19515 114.79093 107.14753 114.79093 99.308667 C 114.79093 91.674267 114.67855 90.391446 113.8747 88.815767 C 112.82188 86.752068 110.70965 84.938023 108.57063 84.26049 C 107.53095 83.931168 105.56617 83.914775 66.145833 83.914775 z M 50.74574 92.746794 C 51.527429 92.773124 52.29117 93.209677 52.636064 94.042322 C 52.795221 94.42647 52.844042 96.071226 52.804012 99.670919 L 52.747685 104.75691 L 52.127051 105.31088 C 51.035671 106.28554 49.417876 106.00336 48.75568 104.72281 C 48.345344 103.92925 48.337796 94.702175 48.746895 93.911064 C 49.164196 93.104092 49.964051 92.720464 50.74574 92.746794 z M 32.89515 92.760746 C 33.348526 92.749511 33.810808 92.850258 34.139518 93.065637 C 35.109823 93.701409 35.168396 94.056396 35.168396 99.308667 C 35.168396 104.51617 35.104892 104.919 34.177242 105.56875 C 33.460478 106.0708 32.230829 105.95165 31.513322 105.31088 L 30.892688 104.75691 L 30.835844 99.670919 C 30.77535 94.230997 30.83091 93.812361 31.704008 93.125582 C 31.997419 92.894785 32.441773 92.771982 32.89515 92.760746 z M 41.820186 92.76488 C 42.217457 92.76488 42.614706 92.863303 42.946733 93.059436 C 43.967172 93.662223 44.001058 93.830423 44.067078 98.643591 C 44.14044 103.99176 44.07967 104.52677 43.314669 105.29176 C 42.834346 105.7721 42.59136 105.86537 41.820186 105.86537 C 41.049013 105.86537 40.806026 105.77209 40.325704 105.29176 C 39.560708 104.52677 39.499935 103.99176 39.573295 98.643591 C 39.639318 93.830423 39.673201 93.662223 40.69364 93.059436 C 41.025666 92.863303 41.422916 92.76488 41.820186 92.76488 z " /><sodipodi:namedview
     id="namedview7"
     pagecolor="#505050"
     bordercolor="#eeeeee"
     borderopacity="1"
     inkscape:pageshadow="0"
     inkscape:pageopacity="0"
     inkscape:pagecheckerboard="0"
     inkscape:document-units="mm"
     showgrid="false"
     units="px"
     inkscape:zoom="1.121145"
     inkscape:cx="270.70539"
     inkscape:cy="266.69164"
     inkscape:window-width="2880"
     inkscape:window-height="1676"
     inkscape:window-x="-12"
     inkscape:window-y="-12"
     inkscape:window-maximized="1"
     inkscape:current-layer="svg5"
     inkscape:showpageshadow="0"
     inkscape:deskcolor="#505050" /><defs
     id="defs2" /></svg>
