<?xml version="1.0" encoding="UTF-8" standalone="no"?>
<!-- Created with Inkscape (http://www.inkscape.org/) -->

<svg
   width="500"
   height="500"
   viewBox="0 0 132.29167 132.29167"
   version="1.1"
   id="svg5"
   inkscape:version="1.1.1 (3bf5ae0d25, 2021-09-20)"
   sodipodi:docname="rigging.svg"
   xmlns:inkscape="http://www.inkscape.org/namespaces/inkscape"
   xmlns:sodipodi="http://sodipodi.sourceforge.net/DTD/sodipodi-0.dtd"
   xmlns="http://www.w3.org/2000/svg"
   xmlns:svg="http://www.w3.org/2000/svg">
  <sodipodi:namedview
     id="namedview7"
     pagecolor="#505050"
     bordercolor="#eeeeee"
     borderopacity="1"
     inkscape:pageshadow="0"
     inkscape:pageopacity="0"
     inkscape:pagecheckerboard="0"
     inkscape:document-units="mm"
     showgrid="false"
     units="px"
     inkscape:zoom="0.74203227"
     inkscape:cx="299.85219"
     inkscape:cy="259.42268"
     inkscape:window-width="1920"
     inkscape:window-height="1121"
     inkscape:window-x="-7"
     inkscape:window-y="-7"
     inkscape:window-maximized="1"
     inkscape:current-layer="layer2" />
  <defs
     id="defs2" />
  <g
     inkscape:groupmode="layer"
     id="layer2"
     inkscape:label="rigging"
     style="display:inline">
    <circle
       style="fill:#fc857f;fill-opacity:1;stroke:none;stroke-width:21.7927;stroke-linecap:round;stroke-linejoin:round;stroke-dashoffset:186.406;stroke-opacity:0.551402;paint-order:markers fill stroke"
       id="path5169"
       cx="98.908493"
       cy="83.816467"
       r="15.723324" />
    <path
       id="rect5343"
       style="fill:#f25f5c;fill-opacity:1;stroke:none;stroke-width:21.7927;stroke-linecap:round;stroke-linejoin:round;stroke-dashoffset:186.406;stroke-opacity:0.551402;paint-order:markers fill stroke"
       d="m 53.094801,8.9793853 c -0.11783,-0.00136 -0.235759,-0.0011 -0.353616,0.00112 -2.262846,0.042499 -4.523199,0.746187 -6.486725,2.1633677 -5.236064,3.779149 -6.322593,11.156295 -2.436463,16.540585 l 32.641965,45.226327 a 25.059048,25.059048 0 0 1 18.794612,-13.7933 L 62.720718,14.041509 C 60.36779,10.781488 56.747551,9.0217938 53.094801,8.9793853 Z M 74.129922,80.969646 28.672169,99.144302 c -6.165689,2.465138 -9.199886,9.277128 -6.802615,15.273088 2.397272,5.99595 9.29096,8.83811 15.45665,6.37298 l 45.270808,-18.0992 a 25.059048,25.059048 0 0 1 -8.747504,-18.874573 25.059048,25.059048 0 0 1 0.280414,-2.846951 z" />
  </g>
</svg>
