<?xml version="1.0" encoding="UTF-8" standalone="no"?>
<!-- Created with Inkscape (http://www.inkscape.org/) -->

<svg
   width="500mm"
   height="500mm"
   viewBox="0 0 499.99999 500"
   version="1.1"
   id="svg1031"
   inkscape:version="1.1.1 (3bf5ae0d25, 2021-09-20)"
   sodipodi:docname="running_softwares.svg"
   xmlns:inkscape="http://www.inkscape.org/namespaces/inkscape"
   xmlns:sodipodi="http://sodipodi.sourceforge.net/DTD/sodipodi-0.dtd"
   xmlns="http://www.w3.org/2000/svg"
   xmlns:svg="http://www.w3.org/2000/svg">
  <sodipodi:namedview
     id="namedview1033"
     pagecolor="#505050"
     bordercolor="#eeeeee"
     borderopacity="1"
     inkscape:pageshadow="0"
     inkscape:pageopacity="0"
     inkscape:pagecheckerboard="0"
     inkscape:document-units="mm"
     showgrid="false"
     fit-margin-top="50"
     lock-margins="true"
     fit-margin-left="50"
     fit-margin-right="50"
     fit-margin-bottom="50"
     inkscape:zoom="0.26051305"
     inkscape:cx="1520.0774"
     inkscape:cy="489.41886"
     inkscape:window-width="1920"
     inkscape:window-height="1121"
     inkscape:window-x="-7"
     inkscape:window-y="-7"
     inkscape:window-maximized="1"
     inkscape:current-layer="svg1031" />
  <defs
     id="defs1028" />
  <path
     id="path22015"
     style="display:inline;fill:#d9d9d9;stroke:#000000;stroke-width:1.00599px;stroke-linecap:butt;stroke-linejoin:miter;stroke-opacity:0;fill-opacity:1"
     d="M 371.062,50.283646 A 42.339609,42.339609 0 0 0 328.72206,92.623612 42.339609,42.339609 0 0 0 371.062,134.96159 42.339609,42.339609 0 0 0 413.40199,92.623612 42.339609,42.339609 0 0 0 371.062,50.283646 Z M 222.41927,116.10916 c -2.19132,-0.0412 -3.95556,0.39912 -6.60182,3.04539 -4.23393,4.23395 -63.79278,59.27638 -68.30901,64.92166 -4.51622,5.64528 -7.33742,19.75755 2.25951,31.04811 9.597,11.2906 26.81436,7.62112 34.43549,0 7.62113,-7.62113 47.42099,-49.11272 47.42099,-49.11272 h 16.3709 L 139.60589,286.82072 H 70.732981 c 0,0 -26.53235,0.56338 -27.096861,27.66073 -0.56445,27.09739 24.275388,28.79253 24.275388,28.79253 h 95.403912 c 7.33887,0 9.87935,0.84647 14.11332,-3.38737 4.23397,-4.23399 49.67857,-52.50204 49.67857,-52.50204 l 42.90389,44.59755 c 0,0 -11.07323,78.11428 -12.98356,85.2438 -1.91028,7.12951 3.38703,29.91978 23.14558,32.17791 19.75848,2.25812 28.56384,-7.96407 32.17786,-21.45196 3.61411,-13.48784 20.31414,-105.98231 22.01783,-112.34064 1.70367,-6.35839 -0.97047,-9.92737 -3.38736,-14.11334 -2.4169,-4.18601 -57.01716,-56.45326 -57.01716,-56.45326 l 46.85515,-47.98492 c 0,0 24.55613,24.55809 32.74177,32.74376 8.18566,8.18566 23.14544,10.16028 32.17788,1.12786 9.03246,-9.03245 57.8657,-56.73397 64.35776,-63.22604 6.49211,-6.49204 10.72597,-21.45194 -1.69368,-33.87159 -12.41965,-12.41958 -27.38016,-7.62123 -33.30768,-1.69369 -5.92756,5.92755 -32.74271,32.7427 -37.25894,37.25893 -4.51624,4.51622 -7.90396,4.51567 -10.16206,2.25746 -2.25815,-2.25814 -44.03217,-42.34035 -52.50006,-49.11468 -8.4679,-6.77434 -15.807,-6.20884 -15.807,-6.20884 h -72.26026 c -1.90513,0 -3.37324,-0.19967 -4.68807,-0.22398 z"
     inkscape:label="running" />
</svg>
