<?xml version="1.0" encoding="UTF-8" standalone="no"?>
<!-- Created with Inkscape (http://www.inkscape.org/) -->

<svg
   width="469.08316"
   height="460.84781"
   viewBox="0 0 124.11158 121.93264"
   version="1.1"
   id="svg5"
   inkscape:version="1.1.1 (3bf5ae0d25, 2021-09-20)"
   sodipodi:docname="sandbox.svg"
   inkscape:export-filename="C:\Users\leo\Desktop\svgs\combobox.png"
   inkscape:export-xdpi="96"
   inkscape:export-ydpi="96"
   xmlns:inkscape="http://www.inkscape.org/namespaces/inkscape"
   xmlns:sodipodi="http://sodipodi.sourceforge.net/DTD/sodipodi-0.dtd"
   xmlns="http://www.w3.org/2000/svg"
   xmlns:svg="http://www.w3.org/2000/svg">
  <sodipodi:namedview
     id="namedview7"
     pagecolor="#505050"
     bordercolor="#eeeeee"
     borderopacity="1"
     inkscape:pageshadow="0"
     inkscape:pageopacity="0"
     inkscape:pagecheckerboard="0"
     inkscape:document-units="mm"
     showgrid="false"
     inkscape:zoom="1.4142136"
     inkscape:cx="296.98484"
     inkscape:cy="225.2135"
     inkscape:window-width="1920"
     inkscape:window-height="1121"
     inkscape:window-x="-7"
     inkscape:window-y="-7"
     inkscape:window-maximized="1"
     inkscape:current-layer="svg5"
     fit-margin-top="50"
     fit-margin-left="50"
     fit-margin-right="50"
     fit-margin-bottom="50"
     lock-margins="true"
     units="px"
     showguides="false" />
  <defs
     id="defs2">
    <rect
       x="-190"
       y="50"
       width="409"
       height="109"
       id="rect62070" />
    <rect
       x="-268"
       y="6"
       width="249"
       height="367"
       id="rect60744" />
    <filter
       style="color-interpolation-filters:sRGB"
       inkscape:label="Drop Shadow"
       id="filter41397"
       x="-0.4636397"
       y="-0.4636397"
       width="2.0236785"
       height="2.0043981">
      <feFlood
         flood-opacity="0.498039"
         flood-color="rgb(0,0,0)"
         result="flood"
         id="feFlood41387" />
      <feComposite
         in="flood"
         in2="SourceGraphic"
         operator="in"
         result="composite1"
         id="feComposite41389" />
      <feGaussianBlur
         in="composite1"
         stdDeviation="3"
         result="blur"
         id="feGaussianBlur41391" />
      <feOffset
         dx="1.49701"
         dy="1.1976"
         result="offset"
         id="feOffset41393" />
      <feComposite
         in="SourceGraphic"
         in2="offset"
         operator="over"
         result="composite2"
         id="feComposite41395" />
    </filter>
    <filter
       style="color-interpolation-filters:sRGB"
       inkscape:label="Drop Shadow"
       id="filter48262"
       x="-0.11650321"
       y="-0.11797703"
       width="1.3759789"
       height="1.3795844">
      <feFlood
         flood-opacity="0.211765"
         flood-color="rgb(0,0,0)"
         result="flood"
         id="feFlood48252" />
      <feComposite
         in="flood"
         in2="SourceGraphic"
         operator="in"
         result="composite1"
         id="feComposite48254" />
      <feGaussianBlur
         in="composite1"
         stdDeviation="1"
         result="blur"
         id="feGaussianBlur48256" />
      <feOffset
         dx="0.7"
         dy="0.7"
         result="offset"
         id="feOffset48258" />
      <feComposite
         in="SourceGraphic"
         in2="offset"
         operator="over"
         result="composite2"
         id="feComposite48260" />
    </filter>
    <rect
       x="-268"
       y="6"
       width="249"
       height="367"
       id="rect71674" />
    <rect
       x="-268"
       y="6"
       width="249"
       height="367"
       id="rect72688" />
  </defs>
  <path
     style="fill:#d9d9d9;stroke-width:0.206118;fill-opacity:1"
     d="m 14.93272,109.10886 c -1.104091,-0.48217 -1.624524,-1.74929 -1.186883,-2.88976 0.128043,-0.33368 10.775043,-9.31385 11.265953,-9.50223 0.1518,-0.05825 1.335263,1.196996 2.830406,3.002083 2.132102,2.574087 2.702746,3.142107 3.352086,3.336657 1.003237,0.30058 2.041864,-0.14665 2.529197,-1.08905 0.589088,-1.13917 0.297109,-1.73364 -2.482726,-5.054869 -1.413043,-1.688242 -2.570726,-3.128482 -2.572631,-3.200532 -0.0051,-0.191781 6.326223,-5.537246 6.558444,-5.537246 0.108258,0 1.332255,1.348439 2.719993,2.996533 1.387737,1.648094 2.689892,3.085767 2.893679,3.194831 1.183528,0.633405 2.943239,-0.217999 3.192077,-1.544427 0.171627,-0.914845 0.01253,-1.178461 -2.679968,-4.440818 -1.2631,-1.530427 -2.364032,-2.892804 -2.446515,-3.027504 -0.09643,-0.157483 1.035682,-1.214887 3.17143,-2.962134 3.090496,-2.528321 3.345141,-2.693527 3.662888,-2.376379 0.187819,0.187464 1.409656,1.613177 2.715194,3.168252 1.975636,2.35325 2.499879,2.858722 3.126072,3.014137 1.475236,0.366144 2.641887,-0.618571 2.641887,-2.229889 0,-0.625071 -0.36467,-1.162912 -2.672057,-3.940928 l -2.672057,-3.217067 3.285056,-2.768146 c 1.806782,-1.522481 3.326083,-2.768145 3.376227,-2.768145 0.05014,0 1.171831,1.29672 2.49264,2.881601 2.785103,3.341935 3.203445,3.714178 4.174147,3.714178 0.968129,0 2.115832,-1.114229 2.115832,-2.054119 0,-0.925642 -0.183544,-1.207463 -2.934343,-4.505528 -1.354452,-1.623918 -2.430922,-2.976553 -2.392155,-3.005855 0.03877,-0.0293 1.539339,-1.275076 3.334605,-2.768387 1.795264,-1.493311 3.340515,-2.667896 3.433891,-2.610187 0.09337,0.05771 1.213763,1.379977 2.489754,2.938373 1.275991,1.558397 2.513334,2.993702 2.749653,3.18957 0.258224,0.214027 0.785532,0.357953 1.321526,0.360707 1.636761,0.0084 2.636805,-1.689336 1.856815,-3.152267 -0.201514,-0.377957 -3.473686,-4.396191 -4.744324,-5.82604 -0.378713,-0.426164 -0.35888,-0.447466 3.012078,-3.235467 l 3.3933,-2.806477 2.585556,3.046959 c 2.570167,3.02883 3.158546,3.527034 4.165406,3.527034 0.77702,0 1.927812,-1.226193 1.927812,-2.05412 0,-0.904417 -0.151369,-1.138873 -2.806279,-4.346652 -1.290671,-1.559446 -2.346674,-2.887887 -2.346674,-2.952093 0,-0.163134 6.386139,-5.487639 6.581801,-5.487639 0.0877,0 1.210433,1.264429 2.494946,2.809843 1.284516,1.545414 2.520198,2.981933 2.745963,3.192265 0.978057,0.911198 2.693034,0.58286 3.323482,-0.636291 0.673295,-1.302005 0.52335,-1.603972 -2.754227,-5.546669 C 90.500978,44.428439 89.4695,43.11408 89.4695,43.024171 c 0,-0.175373 6.400334,-5.562604 6.587145,-5.54447 0.06143,0.006 1.178354,1.312715 2.482051,2.903893 2.813864,3.434354 3.093054,3.681045 4.166014,3.681045 0.91393,0 1.89605,-0.783983 2.12503,-1.696319 0.20961,-0.835154 -0.34183,-1.750712 -2.87557,-4.774295 -1.31979,-1.574951 -2.373116,-2.93916 -2.340723,-3.031577 0.07808,-0.22274 6.686603,-5.688198 7.479153,-6.185488 1.23818,-0.776908 2.78961,-0.194795 3.19294,1.198025 0.16222,0.560223 0.20937,11.814334 0.16581,39.580586 l -0.0609,38.797789 -0.67384,0.67383 -0.67384,0.67383 -46.733324,0.0444 c -39.077546,0.0371 -46.838734,-0.002 -47.376766,-0.23657 z M 92.767389,78.689696 V 65.701469 l -9.945198,8.284855 c -5.46986,4.556669 -12.449534,10.368782 -15.510388,12.915806 -3.060854,2.547024 -5.603836,4.663541 -5.651072,4.703372 -0.04723,0.03983 6.93244,0.07242 15.510388,0.07242 h 15.59627 z m -66.704291,4.039766 c -0.353891,-0.156594 -0.794468,-0.500343 -0.979061,-0.763886 -0.748579,-1.068745 -0.553259,-1.546446 3.612525,-8.83524 2.171482,-3.7994 4.066097,-7.036994 4.210256,-7.194651 0.217682,-0.238063 0.961679,0.652805 4.389424,5.255917 2.270024,3.048412 4.053329,5.616555 3.962898,5.706985 -0.206732,0.206733 -13.549619,5.894046 -14.127228,6.021634 -0.233957,0.05168 -0.714923,-0.03416 -1.068814,-0.190759 z M 40.629602,68.264605 c -2.516566,-3.354669 -4.536608,-6.138364 -4.48898,-6.18599 0.04763,-0.04763 10.187855,-8.853045 22.533843,-19.567598 17.523174,-15.207611 22.735411,-19.624436 23.760877,-20.134862 1.104138,-0.549586 1.606338,-0.667853 3.149134,-0.741615 2.06458,-0.09871 3.656319,0.333915 5.252594,1.427617 3.575311,2.449658 4.452704,8.018272 1.823769,11.575017 -0.462684,0.625974 -9.142186,7.997673 -23.961511,20.351052 C 55.919503,65.641482 45.40521,74.359179 45.334229,74.36089 c -0.07098,0.0016 -2.188061,-2.741618 -4.704627,-6.096285 z M 32.683961,55.191597 c -6.996452,-1.394849 -10.750049,-8.951293 -7.626158,-15.352379 0.707956,-1.450655 1.804763,-2.713281 3.669638,-4.224426 1.361094,-1.102919 1.64964,-1.258817 1.87489,-1.012971 0.146423,0.159809 3.123209,3.722429 6.615081,7.916932 3.491871,4.194504 6.482495,7.781927 6.645831,7.972053 0.26806,0.31203 0.129632,0.479035 -1.42185,1.715374 -0.945355,0.753329 -2.264028,1.648574 -2.930388,1.989432 -2.022653,1.03463 -4.684994,1.423035 -6.827044,0.995985 z m 8.963838,-14.261893 c -3.229636,-3.878147 -6.31273,-7.578771 -6.851321,-8.223605 L 33.817226,31.53367 43.988099,23.395354 c 5.593979,-4.476074 10.364756,-8.24208 10.601724,-8.368901 0.663207,-0.354938 1.364479,-0.276011 2.071806,0.233181 0.524317,0.377445 6.363895,7.262501 11.020439,12.993461 1.262766,1.554128 1.304447,2.284889 0.19656,3.446078 -0.73223,0.76746 -20.030582,16.281267 -20.253404,16.281568 -0.05795,7.8e-5 -2.747787,-3.172888 -5.977425,-7.051037 z"
     id="path933"
     inkscape:label="sandbox" />
</svg>
