<?xml version="1.0" encoding="UTF-8" standalone="no"?>
<!-- Created with Inkscape (http://www.inkscape.org/) -->

<svg
   width="500mm"
   height="500mm"
   viewBox="0 0 499.99999 500"
   version="1.1"
   id="svg1031"
   inkscape:version="1.1.1 (3bf5ae0d25, 2021-09-20)"
   sodipodi:docname="save.svg"
   xmlns:inkscape="http://www.inkscape.org/namespaces/inkscape"
   xmlns:sodipodi="http://sodipodi.sourceforge.net/DTD/sodipodi-0.dtd"
   xmlns="http://www.w3.org/2000/svg"
   xmlns:svg="http://www.w3.org/2000/svg">
  <sodipodi:namedview
     id="namedview1033"
     pagecolor="#505050"
     bordercolor="#eeeeee"
     borderopacity="1"
     inkscape:pageshadow="0"
     inkscape:pageopacity="0"
     inkscape:pagecheckerboard="0"
     inkscape:document-units="mm"
     showgrid="false"
     fit-margin-top="50"
     lock-margins="true"
     fit-margin-left="50"
     fit-margin-right="50"
     fit-margin-bottom="50"
     inkscape:zoom="0.26051305"
     inkscape:cx="1011.4656"
     inkscape:cy="946.2098"
     inkscape:window-width="1920"
     inkscape:window-height="1121"
     inkscape:window-x="-7"
     inkscape:window-y="-7"
     inkscape:window-maximized="1"
     inkscape:current-layer="svg1031" />
  <defs
     id="defs1028" />
  <path
     id="rect18545"
     style="opacity:1;fill:#d9d9d9;fill-opacity:0.98039198;stroke:none;stroke-width:51.4247;stroke-linecap:round;stroke-linejoin:round;stroke-miterlimit:4;stroke-dasharray:none;stroke-dashoffset:186.406;stroke-opacity:1;paint-order:markers fill stroke"
     d="m 96.247887,48.398616 c -25.64044,0 -46.282445,20.642006 -46.282445,46.282448 V 405.31893 c 0,25.64046 20.642005,46.28245 46.282445,46.28245 H 142.9086 v -94.48207 c 0,-30.16207 24.98445,-55.14652 55.14651,-55.14652 h 112.41433 c 30.16205,0 55.1465,24.98445 55.1465,55.14652 v 94.48207 h 38.13617 c 25.64045,0 46.28245,-20.64199 46.28245,-46.28245 V 154.14823 L 344.28494,48.398616 Z M 198.05511,346.97315 c -6.01046,0 -10.14615,4.1357 -10.14615,10.14616 v 94.48207 h 132.70662 v -94.48207 c 0,-6.01046 -4.13568,-10.14616 -10.14614,-10.14616 z"
     inkscape:label="save" />
</svg>
