<?xml version="1.0" encoding="UTF-8" standalone="no"?>
<!-- Created with Inkscape (http://www.inkscape.org/) -->

<svg
   width="500"
   height="500"
   viewBox="0 0 132.29167 132.29167"
   version="1.1"
   id="svg5"
   inkscape:version="1.1.1 (3bf5ae0d25, 2021-09-20)"
   sodipodi:docname="sequences.svg"
   xmlns:inkscape="http://www.inkscape.org/namespaces/inkscape"
   xmlns:sodipodi="http://sodipodi.sourceforge.net/DTD/sodipodi-0.dtd"
   xmlns="http://www.w3.org/2000/svg"
   xmlns:svg="http://www.w3.org/2000/svg">
  <sodipodi:namedview
     id="namedview7"
     pagecolor="#505050"
     bordercolor="#eeeeee"
     borderopacity="1"
     inkscape:pageshadow="0"
     inkscape:pageopacity="0"
     inkscape:pagecheckerboard="0"
     inkscape:document-units="mm"
     showgrid="false"
     units="px"
     inkscape:zoom="0.53833225"
     inkscape:cx="470.89878"
     inkscape:cy="374.30416"
     inkscape:window-width="1920"
     inkscape:window-height="1121"
     inkscape:window-x="-7"
     inkscape:window-y="-7"
     inkscape:window-maximized="1"
     inkscape:current-layer="layer14" />
  <defs
     id="defs2" />
  <g
     inkscape:groupmode="layer"
     id="layer14"
     inkscape:label="sequences">
    <rect
       style="fill:#f2f2f2;fill-opacity:1;stroke:none;stroke-width:4.99999;stroke-linecap:round;stroke-linejoin:round;stroke-miterlimit:4;stroke-dasharray:none;stroke-dashoffset:186.406;stroke-opacity:1;paint-order:markers fill stroke"
       id="rect120259"
       width="79.620895"
       height="25.557325"
       x="25.557325"
       y="91.908073" />
    <path
       style="display:inline;fill:#d9d9d9;fill-opacity:1;stroke:none;stroke-width:0.264583px;stroke-linecap:butt;stroke-linejoin:miter;stroke-opacity:1"
       d="m 15.812789,42.399127 88.794891,-34.0583151 6.60314,18.9405921 0.5213,0.26065 -75.28451,29.019077 z"
       id="path126366"
       sodipodi:nodetypes="cccccc" />
    <path
       style="fill:#d9d9d9;fill-opacity:1;stroke:none;stroke-width:0.264583px;stroke-linecap:butt;stroke-linejoin:miter;stroke-opacity:1"
       d="M 115.20746,57.34308 H 25.543736 l -4.691707,18.419294 c 0,0 53.693978,7.819512 55.084112,7.819512 1.390136,0 33.884549,-7.471979 33.884549,-7.471979 z"
       id="path126185" />
    <path
       style="fill:#a6a6a6;fill-opacity:1;stroke-width:0.226176"
       d="m 22.306837,123.7113 c -1.958669,-0.61124 -3.646534,-2.24589 -4.300676,-4.16507 -0.193309,-0.56715 -0.26205,-8.45342 -0.26205,-30.063679 v -29.29485 l -1.936588,-7.346223 c -2.156655,-8.181018 -2.188256,-8.518346 -0.923611,-9.859259 1.109694,-1.176619 3.39065,-1.616982 4.959594,-0.957502 0.936353,0.393581 17.943804,11.559148 18.76255,12.317809 0.841118,0.77939 1.014623,1.84437 0.476314,2.923638 -0.233287,0.467726 -2.821124,4.00557 -5.750749,7.861876 -2.929623,3.856305 -5.402156,7.138688 -5.494519,7.294185 -0.132325,0.222774 0.911,0.28272 4.92062,0.28272 h 5.088552 l 6.248162,-7.181097 c 5.055644,-5.81052 6.469153,-7.301374 7.406043,-7.811296 1.157882,-0.630199 1.157882,-0.630199 9.052304,-0.56544 7.894421,0.06476 7.894421,0.06476 8.440057,0.699355 0.599467,0.697204 0.705759,1.767346 0.254901,2.56635 -0.151088,0.267758 -2.539294,3.090425 -5.307127,6.272594 -2.767832,3.182168 -5.032422,5.83836 -5.032422,5.902648 0,0.06429 2.164851,0.116886 4.810779,0.116886 h 4.81078 l 6.434831,-7.384122 c 4.965573,-5.698113 6.642921,-7.478647 7.346196,-7.798114 0.824894,-0.374713 1.636688,-0.414463 8.556044,-0.41896 8.393608,-0.0055 8.658996,0.03283 9.194848,1.326486 0.50586,1.221259 0.14159,1.815641 -4.127262,6.734475 -2.264662,2.609484 -4.661979,5.373552 -5.327372,6.142375 l -1.209805,1.39786 4.941714,-0.01545 4.941712,-0.01545 6.332933,-7.278732 c 4.93954,-5.677235 6.55498,-7.390701 7.34211,-7.787629 1.93002,-0.97325 4.23634,-0.473143 5.04292,1.093519 0.37445,0.72732 0.39426,2.522825 0.33926,30.740791 -0.0584,29.968346 -0.0584,29.968346 -0.67261,31.132896 -0.74548,1.41344 -1.92519,2.42644 -3.52201,3.02431 -1.17757,0.44089 -1.88349,0.44753 -46.026868,0.43263 -36.973811,-0.0125 -45.002472,-0.0687 -45.809555,-0.32053 z m 67.899381,-15.94714 c 3.629494,-1.85357 4.387955,-6.62516 1.499608,-9.434267 -1.712404,-1.665424 0.778643,-1.537175 -29.857342,-1.537175 -30.828773,0 -28.249317,-0.140899 -29.976385,1.637407 -1.21018,1.246082 -1.576183,2.210265 -1.567777,4.130085 0.01274,2.90857 1.749051,5.10032 4.473136,5.64645 0.521216,0.10449 12.957627,0.17447 27.636467,0.15552 26.688799,-0.0345 26.688799,-0.0345 27.792293,-0.59802 z M 49.408789,49.22489 c -5.681661,-2.970348 -17.137545,-9.187712 -17.463601,-9.477885 -1.137149,-1.011996 -0.876772,-3.083549 0.475465,-3.782819 1.460133,-0.755064 13.077634,-5.121823 13.963035,-5.248393 0.524028,-0.07491 1.317149,-0.0082 1.80941,0.152169 1.318642,0.429613 18.574636,9.72501 19.183118,10.33349 0.993344,0.993346 0.809664,2.780961 -0.363329,3.536008 -0.290284,0.186853 -3.37761,1.433883 -6.860725,2.771177 -7.757229,2.978282 -8.195463,3.048291 -10.743373,1.716253 z M 79.377145,38.823832 C 77.677405,38.1996 60.891184,29.109066 60.432014,28.564148 c -0.785256,-0.931898 -0.785256,-2.149497 0,-3.106226 0.257701,-0.313976 2.797993,-1.40801 7.183965,-3.093938 9.168611,-3.524332 7.258403,-3.765073 18.597378,2.34381 10.153629,5.470277 9.859062,5.295497 10.205236,6.055267 0.61469,1.349097 0.151117,2.520421 -1.280599,3.235737 -1.65208,0.825415 -13.003973,5.057942 -13.807464,5.148082 -0.463587,0.05201 -1.315986,-0.08896 -1.953385,-0.323048 z M 105.43864,26.582572 C 96.689136,22.003403 89.710159,18.168473 89.159269,17.6371 c -0.473455,-0.456681 -0.621985,-0.814498 -0.621985,-1.498396 0,-1.205696 0.487952,-1.876043 1.763675,-2.422931 2.128081,-0.912282 13.677991,-5.2685333 14.296841,-5.3923032 0.83982,-0.1679648 2.06939,0.2548847 2.70332,0.9296761 0.56862,0.6052646 5.88289,14.2401901 6.04214,15.5024301 0.22514,1.784477 -1.58789,3.392644 -3.82483,3.392644 -0.90734,0 -1.58566,-0.260309 -4.07979,-1.565648 z"
       id="path116742" />
  </g>
</svg>
