<?xml version="1.0" encoding="UTF-8" standalone="no"?>
<!-- Created with Inkscape (http://www.inkscape.org/) -->

<svg
   width="500mm"
   height="500mm"
   viewBox="0 0 499.99999 500"
   version="1.1"
   id="svg1031"
   inkscape:version="1.1.1 (3bf5ae0d25, 2021-09-20)"
   sodipodi:docname="settings.svg"
   xmlns:inkscape="http://www.inkscape.org/namespaces/inkscape"
   xmlns:sodipodi="http://sodipodi.sourceforge.net/DTD/sodipodi-0.dtd"
   xmlns="http://www.w3.org/2000/svg"
   xmlns:svg="http://www.w3.org/2000/svg">
  <sodipodi:namedview
     id="namedview1033"
     pagecolor="#505050"
     bordercolor="#eeeeee"
     borderopacity="1"
     inkscape:pageshadow="0"
     inkscape:pageopacity="0"
     inkscape:pagecheckerboard="0"
     inkscape:document-units="mm"
     showgrid="false"
     fit-margin-top="50"
     lock-margins="true"
     fit-margin-left="50"
     fit-margin-right="50"
     fit-margin-bottom="50"
     inkscape:zoom="0.36842108"
     inkscape:cx="1034.1428"
     inkscape:cy="696.21423"
     inkscape:window-width="1920"
     inkscape:window-height="1121"
     inkscape:window-x="-7"
     inkscape:window-y="-7"
     inkscape:window-maximized="1"
     inkscape:current-layer="svg1031" />
  <defs
     id="defs1028" />
  <path
     style="fill:#d9d9d9;fill-opacity:1;stroke-width:0.853663"
     d="m 244.35733,438.64548 c -7.54983,-1.56967 -16.47623,-8.04677 -19.8961,-14.43684 -1.42935,-2.67076 -3.43575,-9.54862 -3.44666,-11.81495 l -0.01,-1.92074 h -80.08759 c -53.969224,0 -81.739503,-0.30251 -85.152928,-0.92757 -9.869292,-1.80729 -17.256785,-7.59367 -21.572354,-16.89691 -3.181268,-6.858 -3.169008,-16.42189 0.02989,-23.31911 2.742235,-5.91259 8.234389,-11.58239 13.938386,-14.38927 l 4.246054,-2.08942 84.018472,-0.42683 84.01847,-0.42683 1.11027,-4.88923 c 1.5996,-7.04396 4.76927,-12.74051 9.31589,-16.74261 14.36831,-12.64751 37.28546,-7.8772 45.27422,9.42403 l 2.4835,5.3785 0.25749,34.14653 c 0.30842,40.9008 0.12069,42.08664 -8.04518,50.81661 -6.36341,6.80299 -17.4973,10.38275 -26.48259,8.51464 z m 73.8552,-29.0411 c -8.78272,-1.48402 -17.24681,-7.54108 -21.10449,-15.10276 -7.24028,-14.1921 -1.50504,-31.70415 12.86238,-39.27414 l 4.51105,-2.37681 h 66.58576 66.58575 l 4.24605,2.08942 c 5.70399,2.80688 11.19615,8.47668 13.93838,14.38927 3.1989,6.89722 3.21116,16.46111 0.0299,23.31911 -4.31557,9.30324 -11.70307,15.08962 -21.57236,16.89691 -5.89651,1.07978 -119.72603,1.13304 -126.08243,0.059 z m 25.2935,-102.70909 c -4.94133,-1.6278 -7.03645,-2.89261 -11.29719,-6.82003 -4.73319,-4.36289 -7.5833,-9.88971 -8.72343,-16.91605 -1.14484,-7.05544 -1.14484,-59.29454 0,-66.34997 1.15253,-7.10276 3.99838,-12.56066 8.91005,-17.08809 6.20719,-5.72158 10.55664,-7.3498 19.6472,-7.3549 6.67233,-0.004 8.31649,0.3068 12.49893,2.36074 8.42175,4.13581 14.67018,12.68063 15.98072,21.85392 l 0.5646,3.95192 32.8562,0.42683 c 32.01101,0.41585 32.96599,0.4773 37.12452,2.38842 12.19714,5.60542 19.3471,19.24932 16.75436,31.97154 -0.59803,2.93447 -1.98875,6.87198 -3.09048,8.75005 -2.88103,4.91111 -8.72928,10.2829 -13.66388,12.5507 -4.15853,1.91111 -5.11351,1.97256 -37.12452,2.38841 l -32.8562,0.42683 -0.59147,4.13985 c -1.30922,9.16347 -8.26139,18.32803 -16.77836,22.11773 -4.93439,2.19562 -15.32002,2.81331 -20.21105,1.2021 z M 52.406796,277.82089 c -5.591974,-1.77872 -8.374658,-3.55438 -12.527089,-7.99366 -4.883773,-5.22115 -6.244558,-7.81327 -7.634497,-14.54268 -2.040052,-9.87696 1.182854,-19.21504 9.229549,-26.74178 8.319119,-7.78156 -2.929382,-7.15628 128.737591,-7.15628 h 116.09823 l 4.82146,2.26047 c 6.13998,2.87863 11.38104,8.11969 14.25966,14.25966 1.88941,4.03 2.26046,6.01259 2.26046,12.0776 0,6.06501 -0.37105,8.0476 -2.26046,12.07759 -2.87862,6.13998 -8.11968,11.38104 -14.25966,14.25967 l -4.82146,2.26047 -115.24456,0.16255 C 79.787723,278.87323 55.111338,278.6812 52.406796,277.82089 Z M 172.7648,176.53557 c -12.07503,-1.64791 -22.42002,-12.13961 -24.19216,-24.53524 l -0.57599,-4.02889 -47.79493,-0.42683 -47.794924,-0.42683 -4.246054,-2.08943 c -5.703997,-2.80687 -11.196151,-8.47668 -13.938386,-14.38926 -3.198901,-6.89722 -3.211161,-16.46112 -0.02989,-23.31911 4.315569,-9.303242 11.703062,-15.08962 21.572354,-16.896902 3.219665,-0.589591 20.984131,-0.927577 48.75332,-0.927577 h 43.68799 l 0.49859,-4.209933 c 1.31206,-11.078222 10.13333,-20.62009 21.79915,-23.579875 12.38059,-3.141135 25.85052,2.712587 31.92533,13.874017 3.7363,6.864804 4.20424,12.491317 3.89415,46.82282 -0.26957,29.84372 -0.38281,31.78486 -2.10027,36.00133 -5.24272,12.87115 -17.64127,20.01734 -31.45828,18.13171 z m 66.47184,-30.7631 c -12.65285,-4.8815 -20.50358,-19.94005 -17.38253,-33.34156 2.69334,-11.56495 11.45832,-19.787053 23.45833,-22.005373 7.00905,-1.295697 191.90786,-1.297982 198.98251,-0.0025 9.86929,1.807282 17.25679,7.593661 21.57236,16.896893 3.18126,6.85799 3.169,16.42189 -0.0299,23.31911 -2.74223,5.91259 -8.23439,11.58239 -13.93839,14.38926 l -4.24606,2.08945 -102.01278,0.17433 c -99.91897,0.17075 -102.10291,0.13957 -106.40356,-1.51964 z"
     id="path9957"
     inkscape:label="settings" />
</svg>
