<?xml version="1.0" encoding="UTF-8" standalone="no"?>
<!-- Created with Inkscape (http://www.inkscape.org/) -->

<svg
   width="545.90491mm"
   height="521.29297mm"
   viewBox="0 0 545.9049 521.29297"
   version="1.1"
   id="svg1031"
   inkscape:version="1.1.1 (3bf5ae0d25, 2021-09-20)"
   sodipodi:docname="silver.svg"
   xmlns:inkscape="http://www.inkscape.org/namespaces/inkscape"
   xmlns:sodipodi="http://sodipodi.sourceforge.net/DTD/sodipodi-0.dtd"
   xmlns="http://www.w3.org/2000/svg"
   xmlns:svg="http://www.w3.org/2000/svg">
  <sodipodi:namedview
     id="namedview1033"
     pagecolor="#505050"
     bordercolor="#eeeeee"
     borderopacity="1"
     inkscape:pageshadow="0"
     inkscape:pageopacity="0"
     inkscape:pagecheckerboard="0"
     inkscape:document-units="mm"
     showgrid="false"
     fit-margin-top="50"
     lock-margins="true"
     fit-margin-left="50"
     fit-margin-right="50"
     fit-margin-bottom="50"
     inkscape:zoom="0.26051305"
     inkscape:cx="992.27275"
     inkscape:cy="1011.4656"
     inkscape:window-width="1920"
     inkscape:window-height="1121"
     inkscape:window-x="-7"
     inkscape:window-y="-7"
     inkscape:window-maximized="1"
     inkscape:current-layer="g40326" />
  <defs
     id="defs1028">
    <rect
       x="537.4011"
       y="138.18885"
       width="360.82645"
       height="118.99596"
       id="rect27703" />
    <rect
       x="349.31072"
       y="103.64164"
       width="1358.8571"
       height="1301.2784"
       id="rect25365" />
    <filter
       style="color-interpolation-filters:sRGB"
       inkscape:label="Drop Shadow"
       id="filter24645"
       x="-0.15275694"
       y="-0.15275694"
       width="1.3356634"
       height="1.30943">
      <feFlood
         flood-opacity="0.211765"
         flood-color="rgb(0,0,0)"
         result="flood"
         id="feFlood24635" />
      <feComposite
         in="flood"
         in2="SourceGraphic"
         operator="in"
         result="composite1"
         id="feComposite24637" />
      <feGaussianBlur
         in="composite1"
         stdDeviation="11.3772"
         result="blur"
         id="feGaussianBlur24639" />
      <feOffset
         dx="5.38922"
         dy="0.7"
         result="offset"
         id="feOffset24641" />
      <feComposite
         in="SourceGraphic"
         in2="offset"
         operator="over"
         result="composite2"
         id="feComposite24643" />
    </filter>
    <rect
       x="349.31072"
       y="103.64164"
       width="1358.8571"
       height="1301.2784"
       id="rect38893" />
  </defs>
  <g
     inkscape:groupmode="layer"
     id="g40326"
     inkscape:label="second"
     style="display:inline">
    <path
       style="display:inline;fill:#cccccc;fill-opacity:1;stroke:none;stroke-width:0.226472px;stroke-linecap:butt;stroke-linejoin:miter;stroke-opacity:1"
       d="m 115.47662,400.27809 h 310.35176 c 11.30132,0 21.57004,-2.30427 21.57004,-12.45345 V 134.26231 c 0,0 -0.58088,-9.31777 -7.77899,-13.47361 -7.19812,-4.15584 -15.16057,2.6503 -17.08935,4.57907 -1.9288,1.92879 -67.5634,67.5634 -67.5634,67.5634 l -72.14352,-72.14351 c 0,0 -4.18697,-4.99349 -8.64082,-4.98878 -5.64855,0.006 -10.91423,6.30134 -10.91423,6.30134 l -72.15279,72.15279 -67.38004,-67.38003 c 0,0 -8.92625,-10.3787 -16.7216,-7.42823 -2.35901,0.89286 -7.557299,2.35155 -7.557299,14.23522 v 251.81948 c 0,13.03999 16.020239,14.77864 16.020239,14.77864 z"
       id="path40306"
       sodipodi:nodetypes="csscssccscccsssc" />
    <path
       id="path40308"
       style="display:inline;fill:#e6e6e6;fill-opacity:1;stroke:none;stroke-width:0.226472px;stroke-linecap:butt;stroke-linejoin:miter;stroke-opacity:1"
       d="m 139.37459,142.51244 v 257.76551 h 74.99469 V 170.99887 L 191.11515,194.253 Z" />
    <rect
       style="display:inline;fill:#999999;fill-opacity:1;stroke:none;stroke-width:1.5627;stroke-linecap:round;stroke-linejoin:round;stroke-dashoffset:186.406;paint-order:markers fill stroke"
       id="rect40310"
       width="372.07437"
       height="63.461288"
       x="87.390213"
       y="342.03281"
       rx="13.602646" />
    <path
       id="circle40312"
       style="display:inline;fill:#638850;fill-opacity:1;stroke:none;stroke-width:5.75135;stroke-linecap:round;stroke-linejoin:round;stroke-dashoffset:186.406;paint-order:markers fill stroke"
       d="M 472.38672,827.4082 A 157.712,157.712 0 0 0 314.67578,985.12109 157.712,157.712 0 0 0 472.38672,1142.832 157.712,157.712 0 0 0 630.09961,985.12109 157.712,157.712 0 0 0 472.38672,827.4082 Z m 561.03908,0 A 157.712,157.712 0 0 0 875.71484,985.12109 157.712,157.712 0 0 0 1033.4258,1142.832 157.712,157.712 0 0 0 1191.1387,985.12109 157.712,157.712 0 0 0 1033.4258,827.4082 Z m 582.373,0 A 157.712,157.712 0 0 0 1458.0879,985.12109 157.712,157.712 0 0 0 1615.7988,1142.832 157.712,157.712 0 0 0 1773.5117,985.12109 157.712,157.712 0 0 0 1615.7988,827.4082 Z"
       transform="scale(0.26458333)" />
    <path
       style="display:inline;fill:none;fill-opacity:1;stroke:#f2f2f2;stroke-width:11.9834;stroke-linecap:round;stroke-linejoin:miter;stroke-miterlimit:4;stroke-dasharray:none;stroke-opacity:0.551402"
       d="m 245.71946,260.68386 c 0.61472,-19.67075 17.95153,-29.38771 29.26123,-29.38771"
       id="path40318"
       sodipodi:nodetypes="cc" />
    <path
       style="display:inline;fill:none;fill-opacity:1;stroke:#f2f2f2;stroke-width:11.9834;stroke-linecap:round;stroke-linejoin:miter;stroke-miterlimit:4;stroke-dasharray:none;stroke-opacity:0.551402"
       d="m 398.90495,261.23937 c 0.61472,-19.67075 17.95153,-29.38771 29.26123,-29.38771"
       id="path40320"
       sodipodi:nodetypes="cc" />
    <path
       style="display:inline;fill:none;fill-opacity:1;stroke:#f2f2f2;stroke-width:11.9834;stroke-linecap:round;stroke-linejoin:miter;stroke-miterlimit:4;stroke-dasharray:none;stroke-opacity:0.551402"
       d="M 96.467138,260.62465 C 97.081854,240.9539 114.41866,231.23694 125.72836,231.23694"
       id="path40322"
       sodipodi:nodetypes="cc" />
    <rect
       style="display:inline;fill:#cccccc;fill-opacity:1;stroke:none;stroke-width:11.9834;stroke-linecap:round;stroke-linejoin:round;stroke-miterlimit:4;stroke-dasharray:none;stroke-dashoffset:186.406;stroke-opacity:1;paint-order:markers fill stroke"
       id="rect40324"
       width="58.024971"
       height="63.238678"
       x="110.42753"
       y="342.03281" />
  </g>
</svg>
