<?xml version="1.0" encoding="UTF-8" standalone="no"?>
<!-- Created with Inkscape (http://www.inkscape.org/) -->

<svg
   width="469.08316"
   height="460.84781"
   viewBox="0 0 124.11158 121.93264"
   version="1.1"
   id="svg5"
   inkscape:version="1.2.1 (9c6d41e410, 2022-07-14)"
   sodipodi:docname="star.svg"
   inkscape:export-filename="C:\Users\leo\Desktop\svgs\combobox.png"
   inkscape:export-xdpi="96"
   inkscape:export-ydpi="96"
   xml:space="preserve"
   xmlns:inkscape="http://www.inkscape.org/namespaces/inkscape"
   xmlns:sodipodi="http://sodipodi.sourceforge.net/DTD/sodipodi-0.dtd"
   xmlns="http://www.w3.org/2000/svg"
   xmlns:svg="http://www.w3.org/2000/svg"><sodipodi:namedview
     id="namedview7"
     pagecolor="#505050"
     bordercolor="#eeeeee"
     borderopacity="1"
     inkscape:pageshadow="0"
     inkscape:pageopacity="0"
     inkscape:pagecheckerboard="0"
     inkscape:document-units="mm"
     showgrid="false"
     inkscape:zoom="1.3545781"
     inkscape:cx="205.59908"
     inkscape:cy="145.43274"
     inkscape:window-width="1920"
     inkscape:window-height="1121"
     inkscape:window-x="-7"
     inkscape:window-y="-7"
     inkscape:window-maximized="1"
     inkscape:current-layer="svg5"
     fit-margin-top="50"
     fit-margin-left="50"
     fit-margin-right="50"
     fit-margin-bottom="50"
     lock-margins="true"
     units="px"
     showguides="false"
     inkscape:showpageshadow="0"
     inkscape:deskcolor="#505050" /><defs
     id="defs2"><filter
       style="color-interpolation-filters:sRGB"
       inkscape:label="Drop Shadow"
       id="filter41397"
       x="-0.4636397"
       y="-0.4636397"
       width="2.0236785"
       height="2.0043981"><feFlood
         flood-opacity="0.498039"
         flood-color="rgb(0,0,0)"
         result="flood"
         id="feFlood41387" /><feComposite
         in="flood"
         in2="SourceGraphic"
         operator="in"
         result="composite1"
         id="feComposite41389" /><feGaussianBlur
         in="composite1"
         stdDeviation="3"
         result="blur"
         id="feGaussianBlur41391" /><feOffset
         dx="1.49701"
         dy="1.1976"
         result="offset"
         id="feOffset41393" /><feComposite
         in="SourceGraphic"
         in2="offset"
         operator="over"
         result="composite2"
         id="feComposite41395" /></filter><filter
       style="color-interpolation-filters:sRGB"
       inkscape:label="Drop Shadow"
       id="filter48262"
       x="-0.11650321"
       y="-0.11797703"
       width="1.3759789"
       height="1.3795844"><feFlood
         flood-opacity="0.211765"
         flood-color="rgb(0,0,0)"
         result="flood"
         id="feFlood48252" /><feComposite
         in="flood"
         in2="SourceGraphic"
         operator="in"
         result="composite1"
         id="feComposite48254" /><feGaussianBlur
         in="composite1"
         stdDeviation="1"
         result="blur"
         id="feGaussianBlur48256" /><feOffset
         dx="0.7"
         dy="0.7"
         result="offset"
         id="feOffset48258" /><feComposite
         in="SourceGraphic"
         in2="offset"
         operator="over"
         result="composite2"
         id="feComposite48260" /></filter></defs><path
     style="fill:#ffffff;stroke-width:0.433967;fill-opacity:0.85000002"
     d="m 31.6753,113.96681 c -3.638635,-1.20053 -6.355234,-3.86608 -7.756174,-7.61043 -1.208299,-3.22947 -1.212804,-8.211843 -0.01462,-16.162609 0.498159,-3.305613 0.937551,-7.474846 0.976426,-9.26496 0.09107,-4.193974 -0.273825,-4.781461 -7.967092,-12.82714 -3.280842,-3.431129 -6.57029,-7.151984 -7.3098824,-8.268568 -4.2549985,-6.423874 -4.011517,-12.71045 0.6644944,-17.156979 3.189085,-3.032579 6.824834,-4.311419 17.069974,-6.004202 2.983523,-0.492961 6.718442,-1.280459 8.299822,-1.749994 3.422867,-1.016303 4.982956,-2.531243 7.616706,-7.396264 0.961597,-1.776249 2.876646,-5.318456 4.255667,-7.871575 4.485739,-8.3049 8.294367,-11.5602336 13.991603,-11.9589798 2.764331,-0.1934755 3.411575,-0.084194 5.472098,0.9239243 4.265743,2.0870345 6.63151,5.1857795 12.86795,16.8547915 1.494239,2.795875 3.365769,5.841586 4.158957,6.768244 1.785722,2.086218 3.58172,2.685327 13.245592,4.418465 8.871179,1.59098 12.199299,2.595474 14.854859,4.483504 6.23596,4.433611 7.26095,11.491502 2.67249,18.402231 -0.86954,1.309621 -3.87593,4.75242 -6.68086,7.650659 -2.80494,2.89824 -5.91359,6.31231 -6.90813,7.586824 -1.785501,2.28816 -1.808202,2.361817 -1.805394,5.858554 0.0017,1.947691 0.398394,6.177606 0.881854,9.399811 1.57334,10.486253 1.17671,15.527263 -1.520155,19.320453 -2.489373,3.50138 -5.483216,4.9817 -10.075163,4.9817 -3.657344,0 -6.506038,-0.99155 -15.97833,-5.56158 -7.353801,-3.54794 -7.976652,-3.76871 -10.632191,-3.76871 -2.641292,0 -3.290225,0.22607 -10.198224,3.55288 -4.057591,1.95408 -8.451507,3.97657 -9.764257,4.49441 -2.576796,1.01649 -8.516888,1.53279 -10.418015,0.90554 z"
     id="path969"
     inkscape:label="star" /></svg>
