<?xml version="1.0" encoding="UTF-8" standalone="no"?>
<!-- Created with Inkscape (http://www.inkscape.org/) -->

<svg
   width="500"
   height="500"
   viewBox="0 0 132.29167 132.29167"
   version="1.1"
   id="svg5"
   inkscape:version="1.1.1 (3bf5ae0d25, 2021-09-20)"
   sodipodi:docname="star.svg"
   xmlns:inkscape="http://www.inkscape.org/namespaces/inkscape"
   xmlns:sodipodi="http://sodipodi.sourceforge.net/DTD/sodipodi-0.dtd"
   xmlns="http://www.w3.org/2000/svg"
   xmlns:svg="http://www.w3.org/2000/svg">
  <sodipodi:namedview
     id="namedview7"
     pagecolor="#505050"
     bordercolor="#eeeeee"
     borderopacity="1"
     inkscape:pageshadow="0"
     inkscape:pageopacity="0"
     inkscape:pagecheckerboard="0"
     inkscape:document-units="mm"
     showgrid="false"
     units="px"
     inkscape:zoom="0.56057251"
     inkscape:cx="542.30273"
     inkscape:cy="141.8193"
     inkscape:window-width="1920"
     inkscape:window-height="1121"
     inkscape:window-x="-7"
     inkscape:window-y="-7"
     inkscape:window-maximized="1"
     inkscape:current-layer="svg5" />
  <defs
     id="defs2" />
  <path
     style="fill:#d9d9d9;stroke-width:0.264583;fill-opacity:1"
     d="m 37.041668,117.90943 c -4.392887,-1.00586 -7.514214,-4.30076 -8.273528,-8.7336 -0.281789,-1.64507 -0.188955,-2.36202 1.878687,-14.508941 1.196319,-7.02809 2.17206,-12.93587 2.168316,-13.128397 -0.0037,-0.192524 -2.775011,-3.043153 -6.15837,-6.33473 C 14.880646,63.747097 13.820095,62.640512 13.09203,61.05021 10.59379,55.593335 12.638544,49.494182 17.810514,46.975772 c 1.822976,-0.887669 2.394728,-0.997204 13.939488,-2.6705 6.621198,-0.959676 12.486264,-1.86041 13.033483,-2.001631 1.102982,-0.284652 0.02312,1.728438 10.058032,-18.750574 1.93971,-3.958519 2.652156,-5.145486 3.74129,-6.233154 4.226692,-4.221005 10.872226,-4.246327 15.061164,-0.05739 1.119315,1.119315 2.042552,2.817023 7.079202,13.017716 3.264406,6.611371 5.982679,11.803694 6.228913,11.898182 0.240292,0.09221 6.104919,1.003022 13.032507,2.024033 14.152027,2.085769 14.755297,2.249736 17.173207,4.667647 3.21821,3.218206 4.00259,7.897259 2.04184,12.180106 -0.72623,1.586294 -1.66576,2.567064 -13.56475,14.160208 -4.27961,4.169609 -6.151558,6.167467 -6.151558,6.565307 0,0.314527 0.966018,6.124046 2.146708,12.910047 2.00554,11.526791 2.13002,12.459981 1.89284,14.190271 -0.91083,6.64466 -7.678516,10.88277 -13.899126,8.70399 -0.54782,-0.19187 -5.978975,-2.9729 -12.069236,-6.18007 -6.090263,-3.20717 -11.22168,-5.83121 -11.403152,-5.83121 -0.181472,0 -5.306708,2.62098 -11.389412,5.82441 -6.082705,3.20343 -11.519048,5.98656 -12.080764,6.18475 -1.584827,0.55916 -4.020126,0.70232 -5.639522,0.33152 z"
     id="path927"
     inkscape:label="star"
     sodipodi:nodetypes="ssscsssssssssssssssssssssss" />
</svg>
