<?xml version="1.0" encoding="UTF-8" standalone="no"?>
<!-- Created with Inkscape (http://www.inkscape.org/) -->

<svg
   width="533.33331"
   height="533.33331"
   viewBox="0 0 141.1111 141.11111"
   version="1.1"
   id="svg1369"
   inkscape:version="1.1.1 (3bf5ae0d25, 2021-09-20)"
   sodipodi:docname="substance_painter.svg"
   xmlns:inkscape="http://www.inkscape.org/namespaces/inkscape"
   xmlns:sodipodi="http://sodipodi.sourceforge.net/DTD/sodipodi-0.dtd"
   xmlns="http://www.w3.org/2000/svg"
   xmlns:svg="http://www.w3.org/2000/svg">
  <sodipodi:namedview
     id="namedview1371"
     pagecolor="#505050"
     bordercolor="#eeeeee"
     borderopacity="1"
     inkscape:pageshadow="0"
     inkscape:pageopacity="0"
     inkscape:pagecheckerboard="0"
     inkscape:document-units="mm"
     showgrid="false"
     units="px"
     fit-margin-top="0"
     fit-margin-left="0"
     fit-margin-right="0"
     fit-margin-bottom="0"
     inkscape:zoom="0.64052329"
     inkscape:cx="179.5407"
     inkscape:cy="306.78041"
     inkscape:window-width="1920"
     inkscape:window-height="1121"
     inkscape:window-x="-7"
     inkscape:window-y="-7"
     inkscape:window-maximized="1"
     inkscape:current-layer="svg1369" />
  <defs
     id="defs1366" />
  <path
     style="fill:#e6e6e6;stroke-width:0.352778"
     d="m 114.61858,124.80217 c -10.46179,-3.72677 -9.73776,-18.92907 1.03817,-21.79789 2.50944,-0.66807 3.63709,-0.62467 6.27574,0.24155 4.08719,1.34176 6.78065,4.42222 7.75789,8.87258 1.04632,4.765 -1.61377,10.0428 -6.17419,12.24998 -2.3702,1.14715 -6.35032,1.34118 -8.89761,0.43378 z m -55.327001,-0.44484 c -6.43263,-1.37671 -8.754307,-2.14655 -13.008771,-4.31352 -18.403166,-9.37349 -27.659039,-30.349849 -22.277646,-50.487283 3.994479,-14.94753 16.63281,-27.28742 31.582251,-30.83646 0.873125,-0.20728 2.332485,-0.54542 3.243022,-0.75142 2.464492,-0.55756 11.979313,-0.46754 15.101421,0.14288 6.152581,1.20292 11.443719,3.35474 16.596987,6.74973 5.16492,3.40267 11.577277,10.6453 14.400247,16.26482 1.9755,3.9325 2.77026,6.34622 4.2965,13.04855 0.45211,1.98539 0.42934,11.600404 -0.033,13.937528 -1.78773,9.036921 -4.85159,15.561075 -10.155467,21.625005 -6.450104,7.37441 -14.102185,11.89703 -23.870541,14.10824 -3.258618,0.73763 -4.72865,0.87325 -9.172221,0.84618 -2.910417,-0.0177 -5.926667,-0.16815 -6.702778,-0.33425 z m 8.290277,-10.26385 c 0.679098,-0.41597 1.710973,-1.02713 2.293056,-1.35812 2.788891,-1.58587 13.405,-7.7072 16.227776,-9.35706 1.74625,-1.02065 3.889375,-2.27312 4.7625,-2.78327 0.873125,-0.51015 2.265189,-1.274646 3.09348,-1.698886 l 1.50598,-0.771345 -0.09487,-7.562613 -0.09487,-7.562613 -4.7625,-1.512997 C 87.893033,80.65443 82.416159,78.916125 78.341576,77.623681 74.266993,76.331237 68.790118,74.583487 66.170743,73.739797 c -4.743541,-1.52789 -9.690885,-3.07849 -11.200693,-3.51054 -0.436563,-0.12493 -0.792745,-0.33551 -0.791513,-0.46795 0.0011,-0.13245 2.717588,-1.79047 6.036351,-3.68449 l 6.034116,-3.44367 7.104619,4.16976 c 3.907539,2.29336 8.16829,4.7842 9.468333,5.53518 2.131723,1.23142 2.374088,1.48603 2.469444,2.59416 l 0.105731,1.22874 5.027083,1.623395 5.027083,1.623399 v -7.448614 -7.44861 l -7.496527,-4.34228 c -4.12309,-2.38826 -8.369653,-4.85577 -9.436805,-5.48336 -1.067153,-0.62758 -4.271433,-2.49049 -7.120622,-4.13981 l -5.180343,-2.99875 -5.755767,3.35302 c -7.800403,4.54412 -6.922099,4.03631 -15.721738,9.08966 l -7.849305,4.50761 v 7.36833 7.36832 l 1.146528,0.497981 c 0.63059,0.273889 1.940278,0.730299 2.910416,1.014243 0.970139,0.283944 5.018264,1.551901 8.995833,2.817689 3.977569,1.265784 10.089444,3.201461 13.581943,4.301507 12.739443,4.012582 14.116571,4.467253 14.417667,4.760136 0.17012,0.165481 -0.354848,0.635617 -1.179565,1.056358 -0.817369,0.416986 -2.542819,1.406323 -3.834334,2.198521 -1.291516,0.792198 -3.062588,1.838667 -3.935713,2.325486 -0.873124,0.48682 -1.840395,1.041097 -2.149496,1.231731 -0.622183,0.38373 -0.180929,0.609541 -12.272224,-6.280347 l -7.429217,-4.233333 -0.01065,-1.274988 C 47.121578,86.47031 47.00665,86.33273 45.621433,85.840259 43.214,84.984368 37.362526,83.102436 37.108755,83.102436 c -0.127926,0 -0.189748,3.355887 -0.137382,7.457528 l 0.09521,7.457527 3.351389,1.940821 c 1.843263,1.067458 3.827638,2.213218 4.409722,2.546148 1.218843,0.69714 9.609119,5.54692 12.611804,7.28992 1.11566,0.64763 2.941285,1.70661 4.056944,2.3533 1.11566,0.64669 2.584097,1.51922 3.263194,1.93896 1.500805,0.92762 1.319728,0.92718 2.822222,0.007 z m -49.475138,4.43875 c -0.532509,-0.28891 -1.286572,-1.14936 -1.675695,-1.91211 -2.3483,-4.60304 2.143126,-9.38453 6.653709,-7.0834 3.627664,1.8507 3.912052,6.64743 0.526448,8.87951 -1.231162,0.81169 -4.11035,0.87237 -5.504462,0.116 z M 63.958286,29.731147 c -2.855835,-0.9172 -5.195873,-3.92449 -5.195873,-6.67744 0,-2.99278 2.084567,-6.18788 4.511533,-6.91502 1.729193,-0.51808 4.296325,-0.53711 5.607861,-0.0416 3.734915,1.41115 5.523244,6.65994 3.504851,10.28684 -1.548137,2.78187 -5.411473,4.31614 -8.428372,3.3472 z"
     id="path3509"
     inkscape:label="substance_painter" />
</svg>
