<?xml version="1.0" encoding="UTF-8" standalone="no"?>
<!-- Created with Inkscape (http://www.inkscape.org/) -->

<svg
   width="533.33331"
   height="533.33331"
   viewBox="0 0 141.1111 141.11111"
   version="1.1"
   id="svg1369"
   inkscape:version="1.1.1 (3bf5ae0d25, 2021-09-20)"
   sodipodi:docname="substance_designer.svg"
   xmlns:inkscape="http://www.inkscape.org/namespaces/inkscape"
   xmlns:sodipodi="http://sodipodi.sourceforge.net/DTD/sodipodi-0.dtd"
   xmlns="http://www.w3.org/2000/svg"
   xmlns:svg="http://www.w3.org/2000/svg">
  <sodipodi:namedview
     id="namedview1371"
     pagecolor="#505050"
     bordercolor="#eeeeee"
     borderopacity="1"
     inkscape:pageshadow="0"
     inkscape:pageopacity="0"
     inkscape:pagecheckerboard="0"
     inkscape:document-units="mm"
     showgrid="false"
     units="px"
     fit-margin-top="0"
     fit-margin-left="0"
     fit-margin-right="0"
     fit-margin-bottom="0"
     inkscape:zoom="0.64052329"
     inkscape:cx="188.90804"
     inkscape:cy="291.16818"
     inkscape:window-width="1920"
     inkscape:window-height="1121"
     inkscape:window-x="-7"
     inkscape:window-y="-7"
     inkscape:window-maximized="1"
     inkscape:current-layer="svg1369" />
  <defs
     id="defs1366" />
  <path
     style="fill:#e6e6e6;stroke-width:0.360953"
     d="m 30.785506,124.84562 c -0.869398,-0.43037 -1.878246,-1.32266 -2.346177,-2.07521 -0.818964,-1.31699 -0.821436,-1.36499 -1.001472,-19.5483 L 27.257523,84.993999 16.125877,84.813659 4.9942706,84.633328 4.2824841,83.75378 C 3.7907641,83.146149 3.640742,82.588182 3.7971592,81.94904 4.289262,79.938247 4.1919332,79.955471 16.170598,79.760471 l 11.086925,-0.18033 0.180334,-18.228123 c 0.127896,-12.91239 0.303115,-18.43859 0.600601,-18.95 0.806942,-1.38648 2.578182,-2.76747 3.961255,-3.0884 0.766612,-0.17778 9.149847,-0.32742 18.629366,-0.33211 l 17.235472,-0.009 v -10.77989 c 0,-10.35919 0.02986,-10.81702 0.748106,-11.73097 0.977938,-1.24324 2.574511,-1.27073 3.780194,-0.0653 l 0.885978,0.88599 v 10.83219 10.83216 l 17.957407,0.10317 c 20.046684,0.11511 19.233744,0.0128 21.277524,2.69115 l 1.01128,1.32557 0.0998,18.16625 0.0998,18.166304 h 10.2891 c 10.95251,0 12.28344,0.179048 13.13318,1.76676 0.47276,0.883337 0.17437,2.34822 -0.61134,3.001046 -0.41992,0.349159 -3.33289,0.511289 -11.60528,0.646482 l -11.04447,0.18033 -0.18033,18.22811 c -0.1279,12.9124 -0.30312,18.43859 -0.60061,18.95001 -0.65658,1.12813 -2.3669,2.6232 -3.48364,3.04513 -0.69456,0.26219 -13.08759,0.38369 -39.163353,0.38369 -37.977128,-2.6e-4 -38.154009,-0.004 -39.672439,-0.75523 z m 54.370525,-17.65305 14.094879,-8.121428 0.009,-7.600336 0.009,-7.600378 -7.850722,-2.484475 C 87.100323,80.01946 78.077386,77.17138 71.367254,75.056898 c -6.710132,-2.11446 -12.211901,-3.98627 -12.226102,-4.15953 -0.01282,-0.17309 2.533545,-1.77516 5.661679,-3.55974 l 5.687516,-3.2447 1.66573,0.91062 c 4.249063,2.3229 16.854247,9.85076 17.090901,10.20675 0.145796,0.21955 0.270711,0.80502 0.277534,1.301302 0.01282,0.83465 0.343619,1.00762 4.427183,2.304311 2.428165,0.771043 4.617835,1.474901 4.865995,1.564134 0.35172,0.126619 0.45118,-1.496308 0.45118,-7.359727 v -7.52189 l -4.782613,-2.7557 c -2.630443,-1.51566 -8.356035,-4.8229 -12.723574,-7.34945 -4.367538,-2.52651 -8.687241,-5.01406 -9.599362,-5.5279 l -1.658342,-0.9342 -5.921654,3.44234 c -3.256887,1.89325 -9.698059,5.62182 -14.313716,8.28569 l -8.392062,4.84335 -3.9e-5,7.59979 -3.8e-5,7.599737 11.821174,3.711813 c 25.401578,7.975887 28.229882,8.890091 28.237088,9.127126 0.0086,0.20975 -4.941803,3.235015 -9.93812,6.076322 l -1.463218,0.832094 -8.462998,-4.809036 C 51.351917,89.549121 51.623183,89.740198 51.623183,88.281411 v -1.175378 l -4.421681,-1.388607 c -2.431912,-0.763761 -4.6247,-1.45939 -4.872857,-1.545847 -0.351723,-0.122782 -0.449223,1.502269 -0.442314,7.371187 l 0.0086,7.528376 14.158533,8.191818 c 7.787197,4.50549 14.349869,8.16014 14.5837,8.12143 0.234052,-0.0384 6.767901,-3.72503 14.520094,-8.19182 z"
     id="path3368"
     inkscape:label="substance_designer" />
</svg>
