<?xml version="1.0" encoding="UTF-8" standalone="no"?>
<!-- Created with Inkscape (http://www.inkscape.org/) -->

<svg
   width="500"
   height="500"
   viewBox="0 0 132.29167 132.29167"
   version="1.1"
   id="svg5"
   inkscape:version="1.1.1 (3bf5ae0d25, 2021-09-20)"
   sodipodi:docname="table_viewer.svg"
   xmlns:inkscape="http://www.inkscape.org/namespaces/inkscape"
   xmlns:sodipodi="http://sodipodi.sourceforge.net/DTD/sodipodi-0.dtd"
   xmlns="http://www.w3.org/2000/svg"
   xmlns:svg="http://www.w3.org/2000/svg">
  <sodipodi:namedview
     id="namedview7"
     pagecolor="#505050"
     bordercolor="#eeeeee"
     borderopacity="1"
     inkscape:pageshadow="0"
     inkscape:pageopacity="0"
     inkscape:pagecheckerboard="0"
     inkscape:document-units="mm"
     showgrid="false"
     units="px"
     inkscape:zoom="0.56057251"
     inkscape:cx="501.27324"
     inkscape:cy="141.8193"
     inkscape:window-width="1920"
     inkscape:window-height="1121"
     inkscape:window-x="-7"
     inkscape:window-y="-7"
     inkscape:window-maximized="1"
     inkscape:current-layer="svg5" />
  <defs
     id="defs2" />
  <path
     style="fill:#d9d9d9;fill-opacity:1;stroke-width:0.206743"
     d="m 20.555472,108.932 c -3.227898,-0.30699 -6.195595,-1.96946 -7.980659,-4.47068 -1.779276,-2.49311 -1.63437,0.90482 -1.63437,-38.324833 0,-32.715296 0.02384,-34.98376 0.378395,-36.005125 0.802185,-2.31086 3.052384,-4.694182 5.455444,-5.778195 2.456111,-1.107944 -0.541196,-1.04453 49.371551,-1.04453 49.912747,0 46.915447,-0.06342 49.371547,1.04453 2.40306,1.084013 4.65326,3.467335 5.45546,5.778195 0.35454,1.021365 0.37838,3.289829 0.37838,36.005125 0,39.229653 0.14492,35.831723 -1.63437,38.324833 -1.38238,1.93699 -3.35623,3.30639 -6.01043,4.16988 -0.91226,0.29679 -4.92,0.3267 -46.696314,0.34868 -25.134118,0.0132 -46.038703,-0.009 -46.454634,-0.0479 z m 23.619611,-8.29354 c 0.776734,-0.71113 0.834964,-1.319564 0.756508,-7.904518 -0.07711,-6.471344 -0.110696,-6.615408 -1.632911,-7.002438 -1.201029,-0.305368 -21.533563,-0.260507 -22.52714,0.0497 -1.433981,0.44771 -1.511759,0.83131 -1.51214,7.457814 -1.91e-4,3.303899 0.09351,6.136556 0.215915,6.527307 0.45082,1.439155 -0.139466,1.374845 12.664352,1.379745 l 11.47616,0.004 z m 34.087182,-0.0662 0.631585,-0.578234 v -6.435033 c 0,-4.295427 -0.07978,-6.595336 -0.239937,-6.917155 -0.508188,-1.021155 -0.495711,-1.020138 -12.50808,-1.020138 -12.012368,0 -11.999891,-0.001 -12.508081,1.020138 -0.160158,0.321819 -0.239934,2.621728 -0.239934,6.917155 v 6.435033 l 0.631584,0.578234 0.631582,0.57824 h 11.484849 11.484851 z m 33.801615,0.26118 c 0.2907,-0.17439 0.62705,-0.64173 0.74743,-1.038552 0.12494,-0.411836 0.21926,-3.226017 0.21976,-6.557149 9.6e-4,-6.625234 -0.0768,-7.008726 -1.51093,-7.45651 -0.99359,-0.310207 -21.326123,-0.355069 -22.527154,-0.0497 -1.522212,0.38703 -1.555805,0.531094 -1.632909,7.002438 -0.07846,6.584958 -0.02022,7.193392 0.756505,7.904523 l 0.559258,0.51202 h 11.42974 c 10.12174,0 11.49024,-0.0363 11.9583,-0.31707 z M 43.73025,77.595922 c 1.097144,-0.457672 1.12821,-0.642017 1.198148,-7.109844 0.0745,-6.889581 -0.004,-7.387941 -1.253643,-7.959483 -0.691513,-0.316274 -1.680874,-0.344214 -11.559641,-0.326466 -5.941872,0.01069 -11.037715,0.07942 -11.324096,0.152766 -0.28638,0.07335 -0.723917,0.382565 -0.972307,0.687154 -0.436283,0.535002 -0.451614,0.770528 -0.451614,6.93847 0,6.788589 0.05061,7.154449 1.051074,7.597973 0.649981,0.288151 22.623992,0.306465 23.312079,0.01943 z m 34.532015,-0.366345 0.631585,-0.578239 v -6.454165 c 0,-7.139415 -0.04238,-7.389373 -1.322087,-7.797802 -0.956976,-0.305429 -21.894884,-0.305429 -22.85186,0 -1.279706,0.408429 -1.322085,0.658387 -1.322085,7.797802 v 6.454165 l 0.631584,0.578239 0.631582,0.578242 h 11.484849 11.484851 z m 33.548065,0.358571 c 1.07173,-0.447069 1.11424,-0.741587 1.11424,-7.718845 v -6.493452 l -0.59894,-0.54842 -0.59894,-0.548417 -11.17677,-0.05285 c -10.325094,-0.04881 -11.234396,-0.02621 -11.933008,0.29673 -1.251328,0.57843 -1.328078,1.069981 -1.253643,8.029123 l 0.06527,6.101858 0.70563,0.57697 0.705629,0.57697 h 11.221962 c 7.7653,0 11.38418,-0.06767 11.74857,-0.21967 z M 44.264161,53.817662 44.863129,53.269078 V 46.651142 40.033206 L 44.264032,39.484779 43.664935,38.936351 H 32.115114 20.565293 l -0.599097,0.548499 -0.599099,0.548497 v 6.601679 c 0,6.323213 0.01823,6.620227 0.432137,7.041433 0.237674,0.241865 0.626597,0.513829 0.864273,0.604365 0.237674,0.09053 5.510283,0.146794 11.716909,0.125015 l 11.284773,-0.03959 z m 33.401501,0.426522 c 1.225948,-0.574004 1.218175,-0.526633 1.223381,-7.454345 0.0053,-7.069812 -0.03813,-7.32488 -1.31728,-7.733131 -0.956976,-0.305429 -21.894884,-0.305429 -22.85186,0 -1.279149,0.408251 -1.322598,0.663319 -1.31728,7.733131 0.0051,6.897419 -0.0026,6.848496 1.183569,7.445712 0.61194,0.308101 22.422444,0.316261 23.07947,0.0087 z m 34.659938,-0.426437 0.59897,-0.548496 v -6.617953 -6.617951 l -0.5991,-0.548497 -0.59909,-0.548499 H 100.17656 88.626732 l -0.599097,0.548428 -0.599097,0.548427 v 6.601655 c 0,6.323159 0.01823,6.620209 0.432135,7.041503 0.237676,0.241919 0.626598,0.513924 0.864272,0.60446 0.237676,0.09053 5.510286,0.146794 11.716915,0.125015 l 11.28478,-0.0396 z"
     id="path833"
     inkscape:label="table" />
</svg>
