<?xml version="1.0" encoding="UTF-8" standalone="no"?>
<!-- Created with Inkscape (http://www.inkscape.org/) -->

<svg
   width="500"
   height="500"
   viewBox="0 0 132.29167 132.29167"
   version="1.1"
   id="svg5"
   inkscape:version="1.2.1 (9c6d41e410, 2022-07-14)"
   sodipodi:docname="tag.svg"
   inkscape:export-filename="D:\SCRIPT\wizard_2\softwares\icons\compositing.png"
   inkscape:export-xdpi="11.52"
   inkscape:export-ydpi="11.52"
   xml:space="preserve"
   xmlns:inkscape="http://www.inkscape.org/namespaces/inkscape"
   xmlns:sodipodi="http://sodipodi.sourceforge.net/DTD/sodipodi-0.dtd"
   xmlns="http://www.w3.org/2000/svg"
   xmlns:svg="http://www.w3.org/2000/svg"><sodipodi:namedview
     id="namedview7"
     pagecolor="#505050"
     bordercolor="#eeeeee"
     borderopacity="1"
     inkscape:pageshadow="0"
     inkscape:pageopacity="0"
     inkscape:pagecheckerboard="0"
     inkscape:document-units="mm"
     showgrid="false"
     units="px"
     inkscape:zoom="1"
     inkscape:cx="53.5"
     inkscape:cy="204"
     inkscape:window-width="1920"
     inkscape:window-height="1121"
     inkscape:window-x="-7"
     inkscape:window-y="-7"
     inkscape:window-maximized="1"
     inkscape:current-layer="svg5"
     inkscape:showpageshadow="0"
     inkscape:deskcolor="#505050" /><defs
     id="defs2" /><path
     style="fill:#d9d9d9;stroke-width:0.200176;fill-opacity:1"
     d="m 73.774212,117.18704 c -0.48351,-0.1019 -1.460535,-0.45735 -2.171169,-0.7899 C 70.398039,115.83325 68.609507,114.08456 45.058018,90.443391 31.168888,76.501372 19.459187,64.587714 19.036462,63.968597 17.297613,61.421902 15.756324,57.587882 15.208487,54.446356 14.773841,51.95391 14.75503,23.719854 15.186674,21.706727 c 0.352401,-1.643547 1.043023,-2.873175 2.344951,-4.175102 1.301927,-1.301928 2.531555,-1.99255 4.175102,-2.344951 2.013127,-0.431644 30.247183,-0.412833 32.739629,0.02181 3.169999,0.552802 6.740295,1.981288 9.546164,3.819449 1.123817,0.736227 7.149592,6.642045 26.61646,26.086594 23.80994,23.782642 25.19715,25.206771 25.78426,26.470529 0.82653,1.779094 1.11946,3.591319 0.84665,5.237696 -0.4845,2.923836 0.50213,1.807688 -18.24924,20.645021 -9.422045,9.465247 -17.608737,17.590237 -18.192651,18.055537 -0.583914,0.4653 -1.560598,1.03268 -2.170408,1.26084 -1.282167,0.47972 -3.582695,0.67069 -4.853379,0.40289 z M 40.145031,44.395013 c 1.751349,-0.822863 3.429145,-2.501496 4.247864,-4.249982 1.146657,-2.448841 0.95754,-5.851333 -0.448453,-8.068355 -3.08853,-4.870106 -9.714959,-5.583117 -13.610201,-1.464474 -3.776869,3.993483 -3.029429,10.186402 1.599107,13.249423 1.453293,0.961743 2.680127,1.264845 4.886679,1.207307 1.760217,-0.0459 2.161432,-0.127218 3.325004,-0.673919 z"
     id="path299"
     inkscape:label="tag" /></svg>
