<?xml version="1.0" encoding="UTF-8" standalone="no"?>
<!-- Created with Inkscape (http://www.inkscape.org/) -->

<svg
   width="500mm"
   height="500mm"
   viewBox="0 0 499.99999 500"
   version="1.1"
   id="svg1031"
   inkscape:version="1.1.1 (3bf5ae0d25, 2021-09-20)"
   sodipodi:docname="tasks.svg"
   xmlns:inkscape="http://www.inkscape.org/namespaces/inkscape"
   xmlns:sodipodi="http://sodipodi.sourceforge.net/DTD/sodipodi-0.dtd"
   xmlns="http://www.w3.org/2000/svg"
   xmlns:svg="http://www.w3.org/2000/svg">
  <sodipodi:namedview
     id="namedview1033"
     pagecolor="#505050"
     bordercolor="#eeeeee"
     borderopacity="1"
     inkscape:pageshadow="0"
     inkscape:pageopacity="0"
     inkscape:pagecheckerboard="0"
     inkscape:document-units="mm"
     showgrid="false"
     fit-margin-top="50"
     lock-margins="true"
     fit-margin-left="50"
     fit-margin-right="50"
     fit-margin-bottom="50"
     inkscape:zoom="0.26051305"
     inkscape:cx="1579.5754"
     inkscape:cy="489.41886"
     inkscape:window-width="1920"
     inkscape:window-height="1121"
     inkscape:window-x="-7"
     inkscape:window-y="-7"
     inkscape:window-maximized="1"
     inkscape:current-layer="svg1031" />
  <defs
     id="defs1028" />
  <path
     id="path11553"
     style="color:#000000;display:inline;fill:#d9d9d9;stroke-width:1;stroke-linecap:round;stroke-linejoin:round;stroke-dashoffset:186.406;-inkscape-stroke:none;paint-order:markers fill stroke;fill-opacity:1"
     d="m 251.30166,33.073451 c -10.96471,0 -20.85189,0.08035 -28.16055,0.214457 -3.65432,0.06705 -6.62812,0.14326 -8.99997,0.246496 -1.18592,0.05162 -2.15314,0.09772 -3.43131,0.212907 -0.63908,0.0576 -1.23244,0.08469 -2.81637,0.372587 -0.79197,0.143949 -1.68254,0.213437 -4.2385,1.144633 -1.27799,0.465597 -2.99345,0.962371 -6.20892,3.306776 -3.21546,2.344404 -10.2831,8.788389 -10.2831,20.220471 0,11.432077 7.06764,17.874517 10.2831,20.218919 3.21547,2.344404 4.93093,2.841177 6.20892,3.306775 2.55596,0.931196 3.44653,1.000684 4.2385,1.144633 1.58393,0.287898 2.17729,0.315508 2.81637,0.373105 1.27817,0.115191 2.24539,0.161287 3.43131,0.212907 1.67245,0.07279 3.76409,0.130297 6.06268,0.182933 v 7.244004 c -29.64616,4.944366 -56.99389,16.827866 -80.31138,33.920406 l -4.48913,-4.48913 c 1.58816,-1.66255 3.02676,-3.18217 4.15789,-4.41626 0.80208,-0.87506 1.45297,-1.59133 2.27531,-2.57659 0.41117,-0.49262 0.81164,-0.93209 1.72806,-2.25568 0.45823,-0.6618 1.03858,-1.34019 2.18747,-3.80597 0.57445,-1.2329 1.43612,-2.79735 2.05207,-6.72879 0.61593,-3.931411 1.05829,-13.484487 -7.02541,-21.56819 -8.0837,-8.0837 -17.63781,-7.642889 -21.56923,-7.02696 -3.93143,0.615944 -5.49589,1.477624 -6.72879,2.05207 -2.46579,1.148875 -3.14417,1.729239 -3.80597,2.187465 -1.32359,0.916435 -1.76305,1.317406 -2.25567,1.728576 -0.98526,0.822349 -1.70152,1.473758 -2.57659,2.275829 -1.75016,1.604161 -3.906687,3.652706 -6.538082,6.189287 -5.2628,5.073179 -12.310644,12.007331 -20.063864,19.760553 -7.753221,7.75322 -14.687897,14.80158 -19.761068,20.06441 -2.536581,2.6314 -4.585134,4.78795 -6.189286,6.5381 -0.802069,0.87507 -1.453476,1.59134 -2.27583,2.57659 -0.411168,0.49263 -0.811625,0.93158 -1.72806,2.25516 -0.458218,0.6618 -1.039098,1.34069 -2.18798,3.80648 -0.574447,1.2329 -1.436134,2.79736 -2.052071,6.72879 -0.615929,3.93141 -1.05674,13.48553 7.02696,21.56923 8.083704,8.0837 17.636779,7.64134 21.568193,7.02541 3.931425,-0.61593 5.495885,-1.47762 6.728788,-2.05207 2.46579,-1.14889 3.144174,-1.72925 3.805971,-2.18747 1.323583,-0.91643 1.763048,-1.3169 2.255676,-1.72806 0.985255,-0.82235 1.701511,-1.47324 2.576586,-2.27531 1.23407,-1.13112 2.753699,-2.56977 4.416269,-4.15789 l 4.962459,4.96249 c -21.473594,30.66326 -34.103315,67.93543 -34.103315,108.06368 0,104.09496 84.922904,189.01534 189.017864,189.01534 104.09497,0 189.01741,-84.92038 189.01741,-189.01534 0,-93.50605 -68.52894,-171.52757 -157.92008,-186.436156 V 84.23105 c 2.29859,-0.05264 4.39023,-0.110141 6.06269,-0.182933 1.18591,-0.05162 2.15312,-0.09772 3.4313,-0.212907 0.63907,-0.0576 1.23296,-0.08521 2.81688,-0.373105 0.79198,-0.143949 1.68204,-0.213437 4.23799,-1.144633 1.27799,-0.465598 2.99345,-0.962371 6.20893,-3.306775 3.21545,-2.344402 10.28308,-8.786842 10.28308,-20.218919 0,-11.432082 -7.06763,-17.876067 -10.28308,-20.220471 -3.21548,-2.344405 -4.93094,-2.841179 -6.20893,-3.306776 -2.55595,-0.931196 -3.44601,-1.000684 -4.23799,-1.144633 -1.58392,-0.287897 -2.17781,-0.314991 -2.81688,-0.372587 -1.27818,-0.115193 -2.24539,-0.161289 -3.4313,-0.212907 -2.37186,-0.103236 -5.34565,-0.179444 -8.99997,-0.246496 -7.30866,-0.134103 -17.19533,-0.214457 -28.16005,-0.214457 z m 0,105.819899 c 77.07299,0 139.01735,61.94489 139.01735,139.01786 0,77.07299 -61.94436,139.01581 -139.01735,139.01581 -77.07298,0 -139.01786,-61.94282 -139.01786,-139.01581 0,-77.07297 61.94488,-139.01786 139.01786,-139.01786 z m 44.80192,37.1352 a 25.00245,25.00245 0 0 0 -21.65088,12.49898 l -35.51307,61.51045 h -68.8728 a 25.00245,25.00245 0 0 0 -25.00002,25.00003 v 1.43558 a 25.00245,25.00245 0 0 0 25.00002,25.00001 h 85.46093 a 25.00245,25.00245 0 0 0 0.80977,-0.80976 25.00245,25.00245 0 0 0 19.93056,-12.40907 l 42.72917,-74.00943 a 25.00245,25.00245 0 0 0 -9.15035,-34.15089 l -1.24333,-0.71779 a 25.00245,25.00245 0 0 0 -12.5,-3.34811 z"
     inkscape:label="task_manager" />
</svg>
