<?xml version="1.0" encoding="UTF-8" standalone="no"?>
<!-- Created with Inkscape (http://www.inkscape.org/) -->

<svg
   width="500mm"
   height="500mm"
   viewBox="0 0 499.99999 500"
   version="1.1"
   id="svg1031"
   inkscape:version="1.1.1 (3bf5ae0d25, 2021-09-20)"
   sodipodi:docname="tasks_process.svg"
   xmlns:inkscape="http://www.inkscape.org/namespaces/inkscape"
   xmlns:sodipodi="http://sodipodi.sourceforge.net/DTD/sodipodi-0.dtd"
   xmlns="http://www.w3.org/2000/svg"
   xmlns:svg="http://www.w3.org/2000/svg">
  <sodipodi:namedview
     id="namedview1033"
     pagecolor="#505050"
     bordercolor="#eeeeee"
     borderopacity="1"
     inkscape:pageshadow="0"
     inkscape:pageopacity="0"
     inkscape:pagecheckerboard="0"
     inkscape:document-units="mm"
     showgrid="false"
     fit-margin-top="50"
     lock-margins="true"
     fit-margin-left="50"
     fit-margin-right="50"
     fit-margin-bottom="50"
     inkscape:zoom="0.26051305"
     inkscape:cx="1579.5754"
     inkscape:cy="489.41886"
     inkscape:window-width="1920"
     inkscape:window-height="1121"
     inkscape:window-x="-7"
     inkscape:window-y="-7"
     inkscape:window-maximized="1"
     inkscape:current-layer="layer6" />
  <defs
     id="defs1028" />
  <g
     inkscape:groupmode="layer"
     id="layer6"
     inkscape:label="task_manager">
    <path
       id="path12402"
       style="color:#000000;fill:#d9d9d9;stroke-width:3.77953;stroke-linecap:round;stroke-linejoin:round;stroke-dashoffset:186.406;-inkscape-stroke:none;paint-order:markers fill stroke;fill-opacity:1"
       d="m 949.80078,125.00195 c -41.44142,0 -78.81031,0.30369 -106.43359,0.81055 -13.81161,0.25342 -25.05116,0.54146 -34.01563,0.93164 -4.48221,0.1951 -8.13787,0.36934 -12.96875,0.80469 -2.41542,0.2177 -4.65802,0.32009 -10.64453,1.4082 -2.99327,0.54406 -6.35921,0.80669 -16.01953,4.32617 -4.8302,1.75974 -11.31384,3.63731 -23.4668,12.49805 -12.15292,8.86074 -38.86523,33.21596 -38.86523,76.42383 0,43.20785 26.71231,67.55723 38.86523,76.41797 12.15296,8.86074 18.6366,10.7383 23.4668,12.49804 9.66032,3.51948 13.02626,3.78212 16.01953,4.32618 5.98651,1.08811 8.22911,1.19246 10.64453,1.41015 4.83088,0.43537 8.48654,0.60959 12.96875,0.80469 6.32107,0.27511 14.22648,0.49247 22.91406,0.69141 v 27.3789 c -112.04847,18.68737 -215.40996,63.6014 -303.53906,128.20313 l -16.96679,-16.9668 c 6.00249,-6.28365 11.4397,-12.02713 15.71484,-16.69141 3.03148,-3.30731 5.49155,-6.01446 8.59961,-9.73828 1.55403,-1.86187 3.06761,-3.52284 6.53125,-8.52539 1.73189,-2.50129 3.92532,-5.06528 8.26758,-14.38476 2.17115,-4.65978 5.42786,-10.57266 7.75586,-25.43164 2.32792,-14.85888 3.99983,-50.965 -26.55274,-81.51758 -30.55257,-30.55257 -66.66257,-28.88652 -81.52148,-26.5586 -14.85895,2.32798 -20.77186,5.58473 -25.43164,7.75586 -9.31952,4.34221 -11.88348,6.5357 -14.38477,8.26758 -5.00254,3.46369 -6.66352,4.97918 -8.52539,6.5332 -3.72382,3.1081 -6.43093,5.57012 -9.73828,8.60157 -6.61478,6.06297 -14.76551,13.8055 -24.71094,23.39258 -19.8909,19.17421 -46.52852,45.38203 -75.83203,74.68554 -29.30351,29.30351 -55.51331,55.94298 -74.6875,75.83399 -9.58708,9.94545 -17.32964,18.09619 -23.39258,24.71093 -3.03144,3.30735 -5.49345,6.01451 -8.60156,9.73828 -1.55402,1.86191 -3.06756,3.52094 -6.53125,8.52344 -1.73185,2.50129 -3.9273,5.0672 -8.26953,14.38672 -2.17114,4.65978 -5.42791,10.57269 -7.75586,25.43164 -2.32792,14.85887 -3.99397,50.96892 26.55859,81.52149 30.55259,30.55256 66.65869,28.88066 81.51758,26.55273 14.85893,-2.32792 20.77185,-5.58471 25.43164,-7.75586 9.31952,-4.34226 11.88349,-6.53572 14.38477,-8.26758 5.00252,-3.46367 6.66349,-4.97726 8.52539,-6.53125 3.7238,-3.10809 6.43091,-5.56816 9.73828,-8.59961 4.6642,-4.2751 10.40768,-9.7125 16.69141,-15.71484 l 18.75586,18.75586 C 283.13683,757.836 235.4043,898.70722 235.4043,1050.373 c 0,393.4298 320.96671,714.3887 714.39648,714.3887 393.42982,0 714.39652,-320.9589 714.39652,-714.3887 0,-57.85874 -6.9824,-114.13279 -20.0762,-168.06441 a 477.94019,477.94019 0 0 1 -179.7129,61.00391 c 7.0839,34.54377 10.8125,70.3459 10.8125,107.0605 0,291.2995 -234.1204,525.4141 -525.41992,525.4141 -291.29945,0 -525.42187,-234.1146 -525.42187,-525.4141 0,-284.31032 223.0352,-514.11299 504.56836,-524.97847 a 477.94019,477.94019 0 0 1 -3.60157,-55.82226 477.94019,477.94019 0 0 1 145.8516,-343.34961 c -5.106,-0.13064 -8.8886,-0.29867 -14.9649,-0.41016 -27.6233,-0.50685 -64.99016,-0.81055 -106.43162,-0.81055 z M 1016.1055,749.25586 903.07812,945.02539 H 642.77148 a 94.497449,94.497449 0 0 0 -94.48828,94.48831 v 5.4258 a 94.497449,94.497449 0 0 0 94.48828,94.4882 h 323.00196 a 94.497449,94.497449 0 0 0 3.06054,-3.0605 94.497449,94.497449 0 0 0 75.32812,-46.9004 l 119.252,-206.55274 a 477.94019,477.94019 0 0 1 -147.3086,-133.6582 z"
       transform="scale(0.26458333)" />
    <circle
       style="fill:#f0965b;fill-opacity:1;stroke:none;stroke-width:42.9529;stroke-linecap:round;stroke-linejoin:round;stroke-miterlimit:4;stroke-dasharray:none;stroke-dashoffset:186.406;stroke-opacity:1;paint-order:markers fill stroke"
       id="circle12317"
       cx="371.28601"
       cy="124.24076"
       r="91.92379" />
  </g>
</svg>
