<?xml version="1.0" encoding="UTF-8" standalone="no"?>
<!-- Created with Inkscape (http://www.inkscape.org/) -->

<svg
   width="500mm"
   height="500mm"
   viewBox="0 0 499.99999 500"
   version="1.1"
   id="svg1031"
   inkscape:version="1.1.1 (3bf5ae0d25, 2021-09-20)"
   sodipodi:docname="team_connection_off.svg"
   xmlns:inkscape="http://www.inkscape.org/namespaces/inkscape"
   xmlns:sodipodi="http://sodipodi.sourceforge.net/DTD/sodipodi-0.dtd"
   xmlns="http://www.w3.org/2000/svg"
   xmlns:svg="http://www.w3.org/2000/svg">
  <sodipodi:namedview
     id="namedview1033"
     pagecolor="#505050"
     bordercolor="#eeeeee"
     borderopacity="1"
     inkscape:pageshadow="0"
     inkscape:pageopacity="0"
     inkscape:pagecheckerboard="0"
     inkscape:document-units="mm"
     showgrid="false"
     fit-margin-top="50"
     lock-margins="true"
     fit-margin-left="50"
     fit-margin-right="50"
     fit-margin-bottom="50"
     inkscape:zoom="0.36842108"
     inkscape:cx="1100.6428"
     inkscape:cy="696.21423"
     inkscape:window-width="1920"
     inkscape:window-height="1121"
     inkscape:window-x="-7"
     inkscape:window-y="-7"
     inkscape:window-maximized="1"
     inkscape:current-layer="svg1031" />
  <defs
     id="defs1028" />
  <path
     id="path10145"
     style="fill:#cc5950;fill-opacity:1;stroke-width:1.68533"
     d="m 71.087445,72.752982 c -9.959458,9.172277 -13.44052,22.608637 -8.821979,36.246298 6.486717,19.1538 17.509182,24.47318 52.089994,25.14163 110.17145,2.12949 205.50074,71.25874 240.08923,174.10344 8.06109,23.96864 12.36262,49.46722 13.10491,77.67764 0.70864,26.93069 2.55753,33.70543 11.65264,42.69754 9.90566,9.79351 30.81548,11.86509 43.25079,4.28473 7.24082,-4.4139 8.46981,-5.74063 13.034,-14.06541 3.38709,-6.17784 4.20251,-11.62469 4.25998,-28.46815 C 440.04802,302.17145 406.03535,220.53033 343.04314,158.25138 280.00108,95.923039 196.58324,62.016179 107.5063,62.5117 c -16.853731,0.09392 -21.585106,0.861476 -28.508581,4.623103 -2.9683,1.61273 -5.61198,3.501533 -7.910274,5.618179 z M 83.04781,189.38648 c -12.786128,12.20852 -15.29804,32.85887 -2.733905,47.52722 8.711769,10.17084 17.852809,13.66042 33.640865,12.83998 62.33733,-3.23922 112.06202,27.72934 129.7983,80.83929 6.33068,18.9569 7.79751,32.0048 6.49255,57.75048 -0.7308,14.41773 2.50784,22.61262 12.30258,31.13701 9.89851,8.61481 21.20231,11.15698 33.25071,7.47674 10.65725,-3.25537 20.28083,-12.61369 24.07792,-23.41294 3.73155,-10.61285 3.58661,-49.86022 -0.25499,-68.81346 -16.19899,-79.9246 -74.38636,-137.46135 -155.00949,-153.27857 -18.70254,-3.66924 -53.13704,-4.15601 -65.532286,-0.92596 -6.367559,1.65931 -11.77044,4.79091 -16.032489,8.8604 z m 15.859904,126.08248 a 60.287157,59.604524 0 0 0 9.4e-4,84.29288 60.287157,59.604524 0 0 0 85.257286,-4e-5 60.287157,59.604524 0 0 0 9.6e-4,-84.29281 60.287157,59.604524 0 0 0 -85.259186,-3e-5 z"
     inkscape:label="connection)off" />
</svg>
