<?xml version="1.0" encoding="UTF-8" standalone="no"?>
<!-- Created with Inkscape (http://www.inkscape.org/) -->

<svg
   width="500"
   height="500"
   viewBox="0 0 132.29167 132.29167"
   version="1.1"
   id="svg5"
   inkscape:version="1.1.1 (3bf5ae0d25, 2021-09-20)"
   sodipodi:docname="texturing.svg"
   xmlns:inkscape="http://www.inkscape.org/namespaces/inkscape"
   xmlns:sodipodi="http://sodipodi.sourceforge.net/DTD/sodipodi-0.dtd"
   xmlns="http://www.w3.org/2000/svg"
   xmlns:svg="http://www.w3.org/2000/svg">
  <sodipodi:namedview
     id="namedview7"
     pagecolor="#505050"
     bordercolor="#eeeeee"
     borderopacity="1"
     inkscape:pageshadow="0"
     inkscape:pageopacity="0"
     inkscape:pagecheckerboard="0"
     inkscape:document-units="mm"
     showgrid="false"
     units="px"
     inkscape:zoom="1.0493921"
     inkscape:cx="303.50905"
     inkscape:cy="249.19189"
     inkscape:window-width="1920"
     inkscape:window-height="1121"
     inkscape:window-x="-7"
     inkscape:window-y="-7"
     inkscape:window-maximized="1"
     inkscape:current-layer="layer4" />
  <defs
     id="defs2" />
  <g
     inkscape:groupmode="layer"
     id="layer4"
     inkscape:label="texturing">
    <path
       id="rect9844"
       style="fill:#f25f5c;fill-opacity:1;stroke:none;stroke-width:75.5906;stroke-linecap:round;stroke-linejoin:round;stroke-dashoffset:186.406;stroke-opacity:0.551402;paint-order:markers fill stroke"
       d="m 89.353516,25.169922 c -4.232104,0.08827 -8.487857,0.714067 -12.94336,1.853516 C 56.663912,32.073332 41.061953,44.036488 32.751953,60.5 20.236741,85.294751 24.752474,115.16914 44,134.9082 c 3.432934,3.5206 25.794804,19.84061 59.5,43.42578 29.7,20.78255 55.82543,39.73194 58.05664,42.10938 6.56381,6.994 8.27572,16.92305 4.39258,25.48242 -1.2984,2.862 -7.10931,9.59929 -16.44922,19.07422 -0.0507,0.0514 -0.0767,0.0894 -0.12695,0.14062 L 138.125,276.38867 c -16.28639,16.2864 -16.28639,42.50853 0,58.79492 l 7.70898,7.70899 5.02735,5.0293 c 0.0102,0.0102 0.0211,0.0191 0.0312,0.0293 l 18.67578,18.67774 c 5.92232,5.92232 15.45853,5.92232 21.38086,0 L 209.6562,347.92189 349.24018,208.3379 367.94722,189.63087 c 5.92232,-5.92233 5.92232,-15.45853 0,-21.38086 l -18.70704,-18.70703 -5.02734,-5.02735 -7.71094,-7.71093 c -8.14319,-8.1432 -18.76917,-12.21485 -29.39648,-12.21485 -10.62731,0 -21.25524,4.07165 -29.39844,12.21485 l -11.80664,11.80664 c -0.30291,0.29422 -0.50046,0.46664 -0.82617,0.78711 -16.40936,16.14493 -20.23106,18.61258 -28.78516,18.58008 -7.33167,-0.0278 -12.87673,-2.50564 -17.3457,-7.74805 C 217.04906,158.00832 198.85,132.41076 178.5,103.3457 136.33153,43.118236 133.38783,39.630167 118.80859,32.634766 107.85978,27.381315 98.664144,24.975724 89.353516,25.169922 Z M 86.375,66.326172 c 4.685063,-0.05519 9.511652,1.576619 13.623047,5.291016 10.627473,9.601284 8.638073,26.43401 -3.90625,33.056642 -7.601394,4.01306 -17.010288,2.61616 -23.431641,-3.47852 C 68.416053,97.167118 66.689627,93.118012 66.607422,87 66.442684,74.737216 76.067862,66.447599 86.375,66.326172 Z"
       transform="scale(0.26458333)" />
    <path
       id="rect10053"
       style="fill:#fc857f;fill-opacity:1;stroke:none;stroke-width:75.5906;stroke-linecap:round;stroke-linejoin:round;stroke-dashoffset:186.406;stroke-opacity:0.551402;paint-order:markers fill stroke"
       d="m 381.74023,208.05273 c -3.86447,0 -7.72829,1.48025 -10.68945,4.44141 l -16.03516,16.03516 -127.33789,127.33789 -16.03515,16.03515 c -5.92232,5.92233 -5.92232,15.45854 0,21.38086 l 16.03515,16.03516 40.31641,40.31641 15.06836,15.06835 c 14.80581,14.80582 38.64536,14.80582 53.45117,0 l 15.08399,-15.08398 c 2.81903,-5.9463 0.88232,-11.26931 -1.45313,-15.31445 -3.07224,-5.32127 -29.82226,-47.25781 -29.82226,-47.25781 0,0 36.78176,24.05987 43.58593,27.98828 5.39048,3.11219 10.60013,7.88307 17.77539,4.49804 l 82.16797,-82.16797 c 14.80582,-14.80581 14.80582,-38.64535 0,-53.45117 L 448.78125,268.8457 408.45508,228.51953 392.43164,212.49414 c -2.96116,-2.96116 -6.82693,-4.44141 -10.69141,-4.44141 z"
       transform="scale(0.26458333)" />
  </g>
</svg>
