<?xml version="1.0" encoding="UTF-8" standalone="no"?>
<!-- Created with Inkscape (http://www.inkscape.org/) -->

<svg
   width="500"
   height="500"
   viewBox="0 0 132.29167 132.29167"
   version="1.1"
   id="svg5"
   inkscape:version="1.1.1 (3bf5ae0d25, 2021-09-20)"
   xmlns:inkscape="http://www.inkscape.org/namespaces/inkscape"
   xmlns:sodipodi="http://sodipodi.sourceforge.net/DTD/sodipodi-0.dtd"
   xmlns="http://www.w3.org/2000/svg"
   xmlns:svg="http://www.w3.org/2000/svg">
  <sodipodi:namedview
     id="namedview7"
     pagecolor="#505050"
     bordercolor="#eeeeee"
     borderopacity="1"
     inkscape:pageshadow="0"
     inkscape:pageopacity="0"
     inkscape:pagecheckerboard="0"
     inkscape:document-units="mm"
     showgrid="false"
     units="px"
     inkscape:zoom="0.64052329"
     inkscape:cx="397.33138"
     inkscape:cy="258.38249"
     inkscape:window-width="1920"
     inkscape:window-height="1141"
     inkscape:window-x="-7"
     inkscape:window-y="-7"
     inkscape:window-maximized="1"
     inkscape:current-layer="layer1" />
  <defs
     id="defs2" />
  <g
     inkscape:label="Layer 1"
     inkscape:groupmode="layer"
     id="layer1">
    <path
       style="display:none;fill:#ffffff;stroke-width:0.232337"
       d="M 44.544099,125.36327 C 35.174465,124.29566 26.468237,120.19605 19.722174,113.67504 3.5687225,98.060507 2.2556573,72.671959 16.717181,55.57252 19.465036,52.323429 58.132082,13.868554 59.878337,12.648191 65.992686,8.3752065 72.427141,6.4257405 79.39464,6.735276 c 8.136444,0.3614678 14.839279,3.320463 20.574623,9.082756 6.068727,6.097243 9.005767,13.247443 8.981137,21.864544 -0.0183,6.394799 -1.80087,12.131698 -5.44098,17.510556 -1.81926,2.688261 -40.232505,41.166153 -42.817903,42.889967 -3.473753,2.316121 -6.702047,3.266351 -10.919836,3.214181 -8.723518,-0.10789 -15.989454,-5.822665 -18.256819,-14.359275 -0.711689,-2.679509 -0.714568,-6.727396 -0.0067,-9.409645 0.628664,-2.382091 1.951527,-5.101559 3.362505,-6.912446 0.572321,-0.734534 9.543586,-9.82027 19.936145,-20.190524 13.430316,-13.401492 19.197962,-19.007011 19.94108,-19.380541 0.712119,-0.35795 1.601178,-0.557554 2.788043,-0.625947 2.308916,-0.133049 4.064542,0.500922 5.569772,2.011295 1.563488,1.56883 2.176811,3.002665 2.197015,5.13621 0.03211,3.391139 1.374531,1.829068 -19.966683,23.233693 -18.752446,18.808168 -19.116191,19.19016 -19.387112,20.359642 -0.751634,3.244569 1.93677,5.934469 5.186606,5.189497 1.172066,-0.26868 1.512321,-0.593784 20.503772,-19.590863 C 88.035957,50.356859 91.093695,47.195216 91.894987,45.814369 95.099422,40.292221 94.93041,33.830581 91.44524,28.61982 90.812809,27.674257 89.646214,26.312636 88.852808,25.593994 87.1046,24.010527 83.873161,22.356515 81.601826,21.88258 c -4.477219,-0.934211 -9.414853,0.112969 -12.884473,2.732557 -1.666098,1.257915 -40.125286,39.760975 -41.441399,41.488669 -6.361848,8.35137 -7.538491,19.445896 -3.055527,28.810473 1.436191,3.000097 3.12469,5.385161 5.455766,7.706471 7.322968,7.29228 17.749731,9.90307 27.729665,6.94333 3.03231,-0.89928 5.893656,-2.38137 8.86173,-4.59008 0.766711,-0.57056 11.901459,-11.513873 24.743884,-24.31849 25.965618,-25.889177 24.022198,-24.170924 27.299598,-24.13662 2.07544,0.02172 3.62168,0.676667 5.06384,2.144903 1.57953,1.608081 2.13765,2.995097 2.12173,5.272856 -0.01,1.441911 -0.13465,2.119185 -0.55557,3.02038 -0.44103,0.944257 -4.85202,5.480985 -23.56727,24.238986 -12.663564,12.692515 -24.02512,23.887635 -25.247886,24.878035 -8.868904,7.18357 -20.370788,10.56664 -31.581815,9.28922 z"
       id="path836" />
    <path
       style="display:none;fill:#ffffff;stroke-width:0.238766"
       d="M 11.714995,121.63662 C 9.09511,120.92908 6.6928378,118.81131 5.6862534,116.32186 L 5.1410673,114.97352 5.0783374,78.812305 C 5.0219601,46.313132 5.0541509,42.516897 5.3962088,41.32601 6.3884397,37.871524 9.0807719,35.488262 12.688788,34.8706 c 0.868476,-0.148677 3.581914,-0.231288 6.30072,-0.191829 l 4.775324,0.06931 0.120002,28.532563 c 0.113177,26.909489 0.145046,28.607265 0.56023,29.845776 1.859942,5.548289 6.115419,9.6069 11.522985,10.98993 1.787086,0.45706 2.773233,0.47084 33.678088,0.47084 h 31.837093 v 4.25394 c 0,2.33967 -0.11705,4.88716 -0.26012,5.6611 -0.54965,2.97334 -2.196265,5.14061 -4.933488,6.49347 l -1.825091,0.90204 -40.72209,0.0457 c -35.26004,0.0396 -40.897176,-0.002 -42.027446,-0.30682 z M 38.396537,97.416959 c -3.723043,-0.627241 -6.617704,-3.53662 -7.347509,-7.384869 -0.346233,-1.825681 -0.328273,-70.356851 0.01893,-72.252254 0.331921,-1.811941 1.459141,-3.934026 2.6715,-5.029322 0.522335,-0.471897 1.661345,-1.195178 2.531137,-1.607292 l 1.581439,-0.749298 15.281038,-0.06625 15.281037,-0.06625 1.055791,0.543783 c 0.985479,0.507571 1.371698,1.060555 5.799495,8.303686 2.609039,4.267946 5.008401,8.161 5.331917,8.651231 l 0.588213,0.891329 19.757195,0.06374 19.75719,0.06374 1.36952,0.641844 c 2.44165,1.144321 4.32473,3.508491 4.94853,6.212797 0.14816,0.642308 0.23853,10.873034 0.24219,27.417837 0.006,29.056287 0.0571,28.001346 -1.45932,30.364515 -1.35745,2.115409 -3.47508,3.510981 -6.04974,3.986933 -1.66294,0.307409 -79.537482,0.320916 -81.358557,0.01411 z"
       id="path959" />
    <path
       style="fill:#ffffff;stroke-width:0.233926"
       d="m 27.509848,125.59597 c -1.727701,-0.57088 -2.731687,-1.20718 -3.893472,-2.46757 -1.16004,-1.25849 -1.776468,-2.44063 -2.121493,-4.06843 -0.189819,-0.89556 -0.261619,-15.27706 -0.258685,-51.814504 0.0044,-54.713978 -0.05079,-52.276379 1.240877,-54.816197 1.55037,-3.0485199 4.330189,-5.2018517 7.628406,-5.9091924 1.700268,-0.3646426 70.358259,-0.3660277 72.111849,-0.00145 3.0208,0.6280263 5.95008,2.8329945 7.41506,5.5815704 1.50143,2.816982 1.41862,-0.383497 1.42308,54.996862 0.003,35.305371 -0.0722,50.842681 -0.25012,51.814491 -0.34136,1.8641 -1.22486,3.41859 -2.71922,4.78435 -1.727,1.57838 -3.38976,2.19546 -5.91577,2.19546 -1.52181,0 -2.317695,-0.12751 -3.391918,-0.54343 -1.325361,-0.51316 -2.185472,-1.32317 -15.439083,-14.53973 -9.685616,-9.65854 -14.305072,-14.108422 -14.905238,-14.358093 -1.116779,-0.464586 -3.459796,-0.464586 -4.576575,0 -0.600166,0.249671 -5.219622,4.699553 -14.905237,14.358093 -13.368483,13.33111 -14.102234,14.02127 -15.439084,14.52185 -1.928145,0.72199 -4.304564,0.82725 -6.003377,0.26592 z"
       id="path1095" />
  </g>
</svg>
