<?xml version="1.0" encoding="UTF-8" standalone="no"?>
<!-- Created with Inkscape (http://www.inkscape.org/) -->

<svg
   width="469.08316"
   height="460.84781"
   viewBox="0 0 124.11158 121.93264"
   version="1.1"
   id="svg5"
   inkscape:version="1.1.1 (3bf5ae0d25, 2021-09-20)"
   sodipodi:docname="tool_add.svg"
   inkscape:export-filename="C:\Users\leo\Desktop\svgs\combobox.png"
   inkscape:export-xdpi="96"
   inkscape:export-ydpi="96"
   xmlns:inkscape="http://www.inkscape.org/namespaces/inkscape"
   xmlns:sodipodi="http://sodipodi.sourceforge.net/DTD/sodipodi-0.dtd"
   xmlns="http://www.w3.org/2000/svg"
   xmlns:svg="http://www.w3.org/2000/svg">
  <sodipodi:namedview
     id="namedview7"
     pagecolor="#505050"
     bordercolor="#eeeeee"
     borderopacity="1"
     inkscape:pageshadow="0"
     inkscape:pageopacity="0"
     inkscape:pagecheckerboard="0"
     inkscape:document-units="mm"
     showgrid="false"
     inkscape:zoom="1"
     inkscape:cx="237.5"
     inkscape:cy="144.5"
     inkscape:window-width="1920"
     inkscape:window-height="1121"
     inkscape:window-x="-7"
     inkscape:window-y="-7"
     inkscape:window-maximized="1"
     inkscape:current-layer="layer24"
     fit-margin-top="50"
     fit-margin-left="50"
     fit-margin-right="50"
     fit-margin-bottom="50"
     lock-margins="true"
     units="px"
     showguides="false" />
  <defs
     id="defs2">
    <rect
       x="-190"
       y="50"
       width="409"
       height="109"
       id="rect62070" />
    <rect
       x="-268"
       y="6"
       width="249"
       height="367"
       id="rect60744" />
    <filter
       style="color-interpolation-filters:sRGB"
       inkscape:label="Drop Shadow"
       id="filter41397"
       x="-0.4636397"
       y="-0.4636397"
       width="2.0236785"
       height="2.0043981">
      <feFlood
         flood-opacity="0.498039"
         flood-color="rgb(0,0,0)"
         result="flood"
         id="feFlood41387" />
      <feComposite
         in="flood"
         in2="SourceGraphic"
         operator="in"
         result="composite1"
         id="feComposite41389" />
      <feGaussianBlur
         in="composite1"
         stdDeviation="3"
         result="blur"
         id="feGaussianBlur41391" />
      <feOffset
         dx="1.49701"
         dy="1.1976"
         result="offset"
         id="feOffset41393" />
      <feComposite
         in="SourceGraphic"
         in2="offset"
         operator="over"
         result="composite2"
         id="feComposite41395" />
    </filter>
    <filter
       style="color-interpolation-filters:sRGB"
       inkscape:label="Drop Shadow"
       id="filter48262"
       x="-0.11650321"
       y="-0.11797703"
       width="1.3759789"
       height="1.3795844">
      <feFlood
         flood-opacity="0.211765"
         flood-color="rgb(0,0,0)"
         result="flood"
         id="feFlood48252" />
      <feComposite
         in="flood"
         in2="SourceGraphic"
         operator="in"
         result="composite1"
         id="feComposite48254" />
      <feGaussianBlur
         in="composite1"
         stdDeviation="1"
         result="blur"
         id="feGaussianBlur48256" />
      <feOffset
         dx="0.7"
         dy="0.7"
         result="offset"
         id="feOffset48258" />
      <feComposite
         in="SourceGraphic"
         in2="offset"
         operator="over"
         result="composite2"
         id="feComposite48260" />
    </filter>
    <rect
       x="-268"
       y="6"
       width="249"
       height="367"
       id="rect71674" />
    <rect
       x="-268"
       y="6"
       width="249"
       height="367"
       id="rect72688" />
  </defs>
  <g
     inkscape:groupmode="layer"
     id="layer24"
     inkscape:label="tool_add">
    <rect
       style="opacity:0.5;fill:none;stroke:#ffffff;stroke-width:11;stroke-linecap:round;stroke-linejoin:round;stroke-miterlimit:4;stroke-dasharray:none;stroke-dashoffset:186.406;paint-order:normal"
       id="rect1041-9"
       width="79.110413"
       height="79.309998"
       x="29.704981"
       y="14.442225"
       rx="12" />
    <path
       id="rect1041"
       style="color:#000000;fill:#d9d9d9;stroke-width:3.77953;stroke-linecap:round;stroke-linejoin:round;stroke-dashoffset:186.406;-inkscape-stroke:none;fill-opacity:1"
       d="m 103.16992,85.71875 c -36.282918,0 -66.142576,29.85771 -66.142576,66.14063 V 360.9082 c 0,36.28292 29.859658,66.14063 66.142576,66.14063 h 208.28711 c 36.28292,0 66.14063,-29.85771 66.14063,-66.14063 V 151.85938 c 0,-36.28292 -29.85771,-66.14063 -66.14063,-66.14063 z m 0,41.57422 h 208.28711 c 13.96963,0 24.56641,10.59678 24.56641,24.56641 V 360.9082 c 0,13.96963 -10.59678,24.56641 -24.56641,24.56641 H 103.16992 c -13.969627,0 -24.568357,-10.59678 -24.568358,-24.56641 V 151.85938 c 0,-13.96963 10.598731,-24.56641 24.568358,-24.56641 z m 100.38477,31.78711 c -10.73777,0 -19.38281,8.64504 -19.38281,19.38281 v 54.7832 h -54.78321 c -10.73777,0 -19.38281,8.64505 -19.38281,19.38282 v 7.51562 c 0,10.73778 8.64504,19.38086 19.38281,19.38086 h 54.78321 v 54.78516 c 0,10.73776 8.64504,19.38281 19.38281,19.38281 h 7.51562 c 10.73777,0 19.38282,-8.64505 19.38281,-19.38281 v -54.78516 h 54.78516 c 10.73776,0 19.38086,-8.64308 19.38086,-19.38086 v -7.51562 c 0,-10.73777 -8.6431,-19.38282 -19.38086,-19.38282 h -54.78516 v -54.7832 c 0,-10.73777 -8.64504,-19.38281 -19.38281,-19.38281 z"
       transform="scale(0.26458333)" />
  </g>
</svg>
