<?xml version="1.0" encoding="UTF-8" standalone="no"?>
<!-- Created with Inkscape (http://www.inkscape.org/) -->

<svg
   width="469.08316"
   height="460.84781"
   viewBox="0 0 124.11158 121.93264"
   version="1.1"
   id="svg5"
   inkscape:version="1.1.1 (3bf5ae0d25, 2021-09-20)"
   sodipodi:docname="tool_error.svg"
   inkscape:export-filename="C:\Users\leo\Desktop\svgs\combobox.png"
   inkscape:export-xdpi="96"
   inkscape:export-ydpi="96"
   xmlns:inkscape="http://www.inkscape.org/namespaces/inkscape"
   xmlns:sodipodi="http://sodipodi.sourceforge.net/DTD/sodipodi-0.dtd"
   xmlns="http://www.w3.org/2000/svg"
   xmlns:svg="http://www.w3.org/2000/svg">
  <sodipodi:namedview
     id="namedview7"
     pagecolor="#505050"
     bordercolor="#eeeeee"
     borderopacity="1"
     inkscape:pageshadow="0"
     inkscape:pageopacity="0"
     inkscape:pagecheckerboard="0"
     inkscape:document-units="mm"
     showgrid="false"
     inkscape:zoom="0.70710678"
     inkscape:cx="137.17872"
     inkscape:cy="160.51324"
     inkscape:window-width="1920"
     inkscape:window-height="1121"
     inkscape:window-x="-7"
     inkscape:window-y="-7"
     inkscape:window-maximized="1"
     inkscape:current-layer="g2913"
     fit-margin-top="50"
     fit-margin-left="50"
     fit-margin-right="50"
     fit-margin-bottom="50"
     lock-margins="true"
     units="px"
     showguides="false" />
  <defs
     id="defs2">
    <rect
       x="-190"
       y="50"
       width="409"
       height="109"
       id="rect62070" />
    <rect
       x="-268"
       y="6"
       width="249"
       height="367"
       id="rect60744" />
    <filter
       style="color-interpolation-filters:sRGB"
       inkscape:label="Drop Shadow"
       id="filter41397"
       x="-0.4636397"
       y="-0.4636397"
       width="2.0236785"
       height="2.0043981">
      <feFlood
         flood-opacity="0.498039"
         flood-color="rgb(0,0,0)"
         result="flood"
         id="feFlood41387" />
      <feComposite
         in="flood"
         in2="SourceGraphic"
         operator="in"
         result="composite1"
         id="feComposite41389" />
      <feGaussianBlur
         in="composite1"
         stdDeviation="3"
         result="blur"
         id="feGaussianBlur41391" />
      <feOffset
         dx="1.49701"
         dy="1.1976"
         result="offset"
         id="feOffset41393" />
      <feComposite
         in="SourceGraphic"
         in2="offset"
         operator="over"
         result="composite2"
         id="feComposite41395" />
    </filter>
    <filter
       style="color-interpolation-filters:sRGB"
       inkscape:label="Drop Shadow"
       id="filter48262"
       x="-0.11650321"
       y="-0.11797703"
       width="1.3759789"
       height="1.3795844">
      <feFlood
         flood-opacity="0.211765"
         flood-color="rgb(0,0,0)"
         result="flood"
         id="feFlood48252" />
      <feComposite
         in="flood"
         in2="SourceGraphic"
         operator="in"
         result="composite1"
         id="feComposite48254" />
      <feGaussianBlur
         in="composite1"
         stdDeviation="1"
         result="blur"
         id="feGaussianBlur48256" />
      <feOffset
         dx="0.7"
         dy="0.7"
         result="offset"
         id="feOffset48258" />
      <feComposite
         in="SourceGraphic"
         in2="offset"
         operator="over"
         result="composite2"
         id="feComposite48260" />
    </filter>
    <rect
       x="-268"
       y="6"
       width="249"
       height="367"
       id="rect71674" />
    <rect
       x="-268"
       y="6"
       width="249"
       height="367"
       id="rect72688" />
  </defs>
  <g
     inkscape:groupmode="layer"
     id="g2913"
     inkscape:label="tool_batch_publish"
     style="display:inline">
    <path
       id="path40490"
       style="color:#000000;display:inline;fill:#ffffff;fill-opacity:0.501961;stroke-width:3.77953;-inkscape-stroke:none"
       d="m 234.57422,45.310547 c -6.79406,-0.0033 -13.48681,0.532198 -18.78711,1.933594 -18.17912,4.806527 -34.2423,16.519479 -44.65234,32.49414 -0.99915,1.533237 -2.89103,4.838296 -6.62891,11.25 -3.73789,6.4117 -8.8946,15.282319 -14.98633,25.792969 -12.18346,21.02132 -28.13064,48.60923 -44.05469,76.19531 -15.924034,27.58609 -31.82245,55.16788 -43.908199,76.18946 -6.042872,10.51078 -11.128392,19.38097 -14.792969,25.79296 -1.832289,3.206 -3.312438,5.80213 -4.376953,7.6836 -1.064519,1.88147 -1.559969,2.73616 -1.992188,3.5957 -3.521127,7.00231 -6.350496,17.03812 -7.419922,25.74024 -2.052404,16.70082 2.565958,35.5873 12.083985,49.61328 12.333188,18.17442 31.516888,30.46454 52.226562,33.14453 1.509574,0.1954 2.51539,0.1671 4.865234,0.22265 2.34984,0.0556 5.52322,0.10744 9.42773,0.1543 7.80905,0.0941 18.52059,0.17359 31.17969,0.23633 25.31821,0.1251 58.41396,0.18322 91.49219,0.18359 33.07823,3.4e-4 66.13576,-0.0589 91.38672,-0.18359 12.62548,-0.0624 23.29776,-0.14222 31.05664,-0.23633 3.87944,-0.0469 7.03012,-0.0925 9.35156,-0.14844 2.32144,-0.0556 3.18925,-0.008 4.82031,-0.23632 16.93221,-2.35507 31.53022,-9.65325 43.60547,-21.80469 6.2699,-6.30955 10.906,-13.06734 14.94922,-21.69531 9.75398,-20.8144 9.5128,-44.65218 -0.7168,-64.99024 -0.84592,-1.68184 -2.95963,-5.36619 -6.7246,-11.97461 -3.76498,-6.60842 -8.93536,-15.63471 -15.04493,-26.27148 -12.21917,-21.27337 -28.19388,-48.9871 -44.17187,-76.64649 -15.97799,-27.65939 -31.96141,-55.25979 -44.18945,-76.30664 -6.11403,-10.52342 -11.28665,-19.412889 -15.0586,-25.85156 -1.88597,-3.219334 -3.42397,-5.824598 -4.55469,-7.728516 -1.13071,-1.903914 -1.66182,-2.824621 -2.25195,-3.697265 -10.02585,-14.82559 -25.62116,-25.748097 -43.38281,-30.496094 -3.62932,-0.970122 -8.35548,-1.088379 -12.88867,-1.34375 V 45.318359 Z M 234.25,88.287109 c 1.56938,-0.0057 3.15803,0.11101 4.77539,0.361329 8.6414,1.337407 16.44975,5.991426 20.93555,12.128902 -0.48396,-0.66214 0.60023,0.96779 1.68164,2.77539 1.08141,1.80761 2.59081,4.35527 4.45312,7.52344 3.72463,6.33635 8.87523,15.1622 14.97657,25.65039 12.20267,20.9764 28.20034,48.59953 44.1875,76.27735 15.98715,27.67781 31.96422,55.41535 44.1289,76.625 6.08234,10.60482 11.21554,19.57627 14.91211,26.08789 1.84827,3.2558 3.33986,5.89768 4.40625,7.80859 1.06643,1.91091 1.86189,3.44925 1.73633,3.18164 8.64858,18.43283 -4.45078,42.113 -25.13672,45.00781 0.82418,-0.11535 -1.15698,0.0535 -3.32812,0.10352 -2.17114,0.05 -5.21048,0.0975 -8.9629,0.14062 -7.50481,0.0862 -17.89139,0.15715 -30.1914,0.2129 -24.60001,0.11152 -56.85316,0.16437 -89.09961,0.15624 -32.24646,-0.008 -64.48784,-0.0753 -89.06836,-0.19921 -12.29026,-0.062 -22.66613,-0.13857 -30.15625,-0.22852 -3.74506,-0.045 -6.77715,-0.0895 -8.93945,-0.14062 -2.1623,-0.0511 -4.17688,-0.23953 -3.28516,-0.11133 -1.30917,-0.18822 -5.953276,-1.65205 -8.488281,-2.90039 -15.1149,-7.44325 -22.155517,-26.7757 -15.376953,-41.58203 -0.311508,0.68039 0.505266,-0.94229 1.476563,-2.67969 0.971297,-1.7374 2.356462,-4.19078 4.097656,-7.25781 3.482392,-6.13407 8.402196,-14.74431 14.394531,-25.20118 11.984674,-20.91373 28.255284,-49.19893 45.921874,-79.79882 35.43265,-61.37203 52.3332,-90.75991 61.49219,-105.11719 4.57949,-7.178646 7.21967,-10.502524 8.85742,-12.039064 1.63775,-1.536541 2.51501,-1.762534 5.48438,-3.248047 4.79224,-2.397464 9.40004,-3.519909 14.11523,-3.53711 z"
       transform="scale(0.26458333)" />
    <path
       id="path40560"
       style="color:#000000;display:inline;fill:#d9d9d9;fill-opacity:1;stroke-width:3.77953;-inkscape-stroke:none"
       d="m 234.81055,155.34375 c -8.86047,-0.0314 -16.8622,3.96443 -21.5918,11.11133 -2.25334,3.40503 -3.95935,7.29313 -4.47461,12.20898 -0.51526,4.91586 -0.22569,10.90433 0.42969,20.82422 0.64049,9.69463 1.96821,31.54448 2.94531,48.47656 0.87687,15.19492 1.30954,22.85868 1.83008,27.55664 0.52054,4.69797 1.71784,7.54299 2.76172,9.32422 1.9197,3.27574 4.90635,5.95035 8.45898,7.72071 7.75816,3.86604 16.87882,2.56937 23.3418,-3.26953 2.66392,-2.40669 4.88477,-5.91965 5.91211,-10.17383 1.02734,-4.25419 1.35751,-9.36194 1.63086,-17.22852 0.23418,-6.73877 1.3362,-26.86054 2.42969,-44.33594 0.54985,-8.78762 1.01172,-17.33252 1.31445,-24.05664 0.30274,-6.72412 0.51566,-10.86768 0.33789,-13.54687 -0.92458,-13.93491 -11.64716,-24.56277 -25.32617,-24.61133 z m -0.25782,142.33008 c -7.66804,0 -14.10596,2.7533 -19.06835,8.24609 -11.61735,12.85901 -7.26066,33.80962 8.51953,40.97656 12.7944,5.81088 28.49893,-0.50428 34.04492,-13.4707 1.40853,-3.29314 1.6995,-6.6577 1.71875,-10.1875 0.0193,-3.52979 -0.22403,-6.8903 -1.60742,-10.20117 -2.32302,-5.55976 -6.64157,-10.19207 -11.97461,-13.01563 -3.20116,-1.69483 -6.86812,-2.34765 -11.63282,-2.34765 z"
       transform="scale(0.26458333)" />
  </g>
</svg>
