<?xml version="1.0" encoding="UTF-8" standalone="no"?>
<!-- Created with Inkscape (http://www.inkscape.org/) -->

<svg
   width="469.08316"
   height="460.84781"
   viewBox="0 0 124.11158 121.93264"
   version="1.1"
   id="svg5"
   inkscape:version="1.1.1 (3bf5ae0d25, 2021-09-20)"
   sodipodi:docname="tool_batch_camera.svg"
   inkscape:export-filename="C:\Users\leo\Desktop\svgs\combobox.png"
   inkscape:export-xdpi="96"
   inkscape:export-ydpi="96"
   xmlns:inkscape="http://www.inkscape.org/namespaces/inkscape"
   xmlns:sodipodi="http://sodipodi.sourceforge.net/DTD/sodipodi-0.dtd"
   xmlns="http://www.w3.org/2000/svg"
   xmlns:svg="http://www.w3.org/2000/svg">
  <sodipodi:namedview
     id="namedview7"
     pagecolor="#505050"
     bordercolor="#eeeeee"
     borderopacity="1"
     inkscape:pageshadow="0"
     inkscape:pageopacity="0"
     inkscape:pagecheckerboard="0"
     inkscape:document-units="mm"
     showgrid="false"
     inkscape:zoom="0.70710678"
     inkscape:cx="141.42136"
     inkscape:cy="160.51324"
     inkscape:window-width="1920"
     inkscape:window-height="1121"
     inkscape:window-x="-7"
     inkscape:window-y="-7"
     inkscape:window-maximized="1"
     inkscape:current-layer="g2913"
     fit-margin-top="50"
     fit-margin-left="50"
     fit-margin-right="50"
     fit-margin-bottom="50"
     lock-margins="true"
     units="px"
     showguides="false" />
  <defs
     id="defs2">
    <rect
       x="-190"
       y="50"
       width="409"
       height="109"
       id="rect62070" />
    <rect
       x="-268"
       y="6"
       width="249"
       height="367"
       id="rect60744" />
    <filter
       style="color-interpolation-filters:sRGB"
       inkscape:label="Drop Shadow"
       id="filter41397"
       x="-0.4636397"
       y="-0.4636397"
       width="2.0236785"
       height="2.0043981">
      <feFlood
         flood-opacity="0.498039"
         flood-color="rgb(0,0,0)"
         result="flood"
         id="feFlood41387" />
      <feComposite
         in="flood"
         in2="SourceGraphic"
         operator="in"
         result="composite1"
         id="feComposite41389" />
      <feGaussianBlur
         in="composite1"
         stdDeviation="3"
         result="blur"
         id="feGaussianBlur41391" />
      <feOffset
         dx="1.49701"
         dy="1.1976"
         result="offset"
         id="feOffset41393" />
      <feComposite
         in="SourceGraphic"
         in2="offset"
         operator="over"
         result="composite2"
         id="feComposite41395" />
    </filter>
    <filter
       style="color-interpolation-filters:sRGB"
       inkscape:label="Drop Shadow"
       id="filter48262"
       x="-0.11650321"
       y="-0.11797703"
       width="1.3759789"
       height="1.3795844">
      <feFlood
         flood-opacity="0.211765"
         flood-color="rgb(0,0,0)"
         result="flood"
         id="feFlood48252" />
      <feComposite
         in="flood"
         in2="SourceGraphic"
         operator="in"
         result="composite1"
         id="feComposite48254" />
      <feGaussianBlur
         in="composite1"
         stdDeviation="1"
         result="blur"
         id="feGaussianBlur48256" />
      <feOffset
         dx="0.7"
         dy="0.7"
         result="offset"
         id="feOffset48258" />
      <feComposite
         in="SourceGraphic"
         in2="offset"
         operator="over"
         result="composite2"
         id="feComposite48260" />
    </filter>
    <rect
       x="-268"
       y="6"
       width="249"
       height="367"
       id="rect71674" />
    <rect
       x="-268"
       y="6"
       width="249"
       height="367"
       id="rect72688" />
  </defs>
  <g
     inkscape:groupmode="layer"
     id="g2913"
     inkscape:label="tool_batch_camera"
     style="display:inline">
    <path
       id="path69342"
       style="color:#000000;fill:#ffffff;fill-opacity:0.501961;stroke-width:0.930414;stroke-linecap:round;stroke-linejoin:round;-inkscape-stroke:none"
       d="m 35.636406,10.937011 c -1.934256,-0.01318 -3.509449,0.08021 -5.066722,0.496191 -6.691279,1.787351 -11.93963,7.035701 -13.726982,13.726982 -0.98268,3.678843 -0.903238,7.005468 0.288964,10.634445 2.223094,6.766937 7.943951,11.843822 14.929956,13.103859 3.165437,0.570937 5.278089,0.415304 8.25398,-0.363008 2.131938,-0.557593 4.048617,-1.530864 5.789854,-2.731455 2.175797,1.496525 4.621849,2.610538 7.30487,3.094463 3.165431,0.570935 5.278094,0.415302 8.253978,-0.363008 8.858081,-2.316758 14.839675,-10.758476 14.190477,-19.904365 -0.323398,-4.55612 -2.343455,-8.843457 -5.615319,-12.115324 -3.55066,-3.55066 -8.264713,-5.544764 -13.252909,-5.57878 -1.934252,-0.01318 -3.509349,0.08031 -5.066243,0.496191 -2.133729,0.569954 -4.062382,1.558048 -5.827837,2.774725 -3.07362,-2.092711 -6.684166,-3.245194 -10.456067,-3.270916 z m -0.06923,10.348846 c 3.034389,0.02069 3.792333,0.335826 6.004293,2.547785 0.206411,0.206409 0.397475,0.413194 0.577929,0.621682 a 5.1754362,5.1754362 0 0 0 7.866449,-0.04712 c 1.220208,-1.444511 2.887559,-2.523777 4.57582,-2.97474 0.250434,-0.0669 0.782847,-0.158113 2.324212,-0.147608 3.034394,0.02069 3.792511,0.336003 6.004294,2.547786 1.820283,1.820284 2.446377,3.208873 2.611252,5.531662 0.288368,4.06253 -2.645147,8.152498 -6.485581,9.156929 0.161208,-0.04217 -4.289968,0.102211 -3.798357,0.190882 -1.916091,-0.345599 -3.835943,-1.479046 -5.211445,-3.103598 a 5.1754362,5.1754362 0 0 0 -7.936169,0.0452 c -1.161419,1.403298 -2.697515,2.421033 -4.404653,2.86752 0.161216,-0.04217 -4.28805,0.102211 -3.796437,0.190882 -2.988747,-0.53907 -5.927586,-3.085532 -6.93417,-6.149496 -0.113901,-0.346714 -0.22843,-4.332303 -0.121643,-4.732084 0.772939,-2.89364 3.504433,-5.625132 6.398073,-6.398071 0.25005,-0.06679 0.784773,-0.157632 2.326133,-0.147127 z m 66.804494,31.924969 c -1.00714,0.0012 -2.763092,0.18407 -4.181565,0.76352 -1.418468,0.57945 -2.603334,1.288347 -4.771992,2.531437 l -2.965607,1.698684 a 5.1754362,5.1754362 0 0 0 -2.602115,4.49072 v 18.251837 18.250398 a 5.1754362,5.1754362 0 0 0 2.602115,4.490238 l 2.965607,1.70108 v -0.002 c 1.68851,0.96786 3.142109,1.80204 4.279645,2.34586 1.188651,0.56826 3.489582,0.9621 5.084512,0.89237 3.96797,-0.17345 8.04757,-2.71813 9.80939,-6.30576 0.13518,-0.2753 0.6046,-1.37926 0.76689,-2.30979 0.16227,-0.930534 0.19824,-1.751066 0.23463,-3.036276 0.0728,-2.570437 0.0687,-7.030579 0.0687,-16.026195 0,-8.983279 0.003,-13.452212 -0.0524,-15.960802 -0.0275,-1.254294 -0.0536,-2.010687 -0.17453,-2.858386 -0.12095,-0.847699 -0.55733,-2.011136 -0.66496,-2.243916 -1.84947,-3.99984 -5.97332,-6.678786 -10.39837,-6.673094 z m -0.25723,10.340192 c 0.0513,0.006 0.12806,0.01125 0.27164,0.01105 0.41324,-4.92e-4 0.62257,0.136284 0.82171,0.437534 0.0142,0.193474 0.0361,0.383525 0.0543,1.214033 0.0488,2.220481 0.051,6.750186 0.051,15.733382 0,8.995627 -0.003,13.530716 -0.0654,15.733379 -0.0282,0.996902 -0.0756,1.360294 -0.0783,1.404917 -0.047,0.170535 -0.0777,0.166711 -0.83948,0.200011 -0.34242,0.01498 -0.1787,0.0548 -0.20146,0.08895 0.0259,0.01014 -2.00477,-1.072898 -3.56373,-1.966496 L 98.201191,96.199115 V 80.94702 65.69348 l 0.363494,-0.209148 c 2.139565,-1.226416 3.277505,-1.820859 3.539675,-1.928031 0,0 5e-4,0 5e-4,0 0.006,-0.0022 0.005,-0.0033 0.01,-0.0053 z" />
    <path
       style="color:#000000;fill:#d9d9d9;stroke-width:0.930414;stroke-linecap:square;stroke-linejoin:round;-inkscape-stroke:none;paint-order:fill markers stroke"
       d="m 48.336789,50.83584 c -6.191999,0 -12.381507,0.0288 -17.154517,0.08541 -2.386504,0.02831 -4.415448,0.06354 -5.940478,0.107216 -0.762515,0.02184 -1.393724,0.04544 -1.91898,0.07451 -0.525256,0.02907 -0.345785,-0.156091 -1.859011,0.238054 -5.143348,1.339673 -9.182283,5.399381 -10.52168,10.541669 -0.280052,1.075276 -0.197847,1.160288 -0.228968,1.586429 -0.03112,0.426142 -0.05625,0.900539 -0.07815,1.457407 -0.04378,1.113735 -0.07785,2.542365 -0.105398,4.205037 -0.0551,3.325344 -0.08088,7.575533 -0.07996,11.830075 9.22e-4,4.254541 0.02886,8.504386 0.08541,11.830067 0.02828,1.662846 0.06295,3.091069 0.107217,4.205036 0.02213,0.556992 0.04684,1.031206 0.07814,1.457419 0.0313,0.426195 -0.04851,0.512314 0.230786,1.584621 1.412672,5.42361 5.580194,9.58174 11.124995,10.67069 0.811876,0.15942 0.757989,0.0997 0.955855,0.11085 0.197867,0.0112 0.396659,0.0198 0.630574,0.0273 0.467831,0.015 1.062318,0.0263 1.791775,0.0381 1.458912,0.0236 3.442997,0.044 5.791466,0.06 4.696939,0.0319 10.840486,0.0489 16.987332,0.0509 6.146847,0.002 12.294596,-0.0111 17.000053,-0.04 2.352729,-0.0144 4.342738,-0.0318 5.807821,-0.0545 0.732543,-0.0113 1.330141,-0.0254 1.800861,-0.04 0.47072,-0.0146 0.07213,0.14866 1.550086,-0.12539 5.909253,-1.09572 10.388261,-5.59685 11.506609,-11.493884 0.181218,-0.955554 0.114764,-0.950837 0.132656,-1.32839 0.01789,-0.377553 0.03221,-0.819584 0.04543,-1.346552 0.02644,-1.053945 0.04658,-2.435332 0.0636,-4.052392 0.03405,-3.234129 0.05088,-7.399426 0.05088,-11.568392 0,-4.168968 -0.01682,-8.336082 -0.05088,-11.570213 -0.01703,-1.617066 -0.03716,-2.998446 -0.0636,-4.052391 -0.01322,-0.526973 -0.02754,-0.969003 -0.04543,-1.346557 -0.01789,-0.377553 0.04856,-0.371009 -0.132656,-1.326567 -1.053545,-5.55534 -5.233978,-9.889531 -10.688863,-11.310351 -1.513223,-0.394143 -1.333755,-0.208989 -1.859011,-0.238055 -0.525257,-0.02907 -1.156465,-0.05267 -1.91898,-0.07451 -1.52503,-0.04367 -3.553973,-0.07891 -5.940478,-0.107217 -4.77301,-0.05662 -10.962518,-0.08541 -17.154516,-0.08541 z m 0,10.35086 c 6.160591,0 12.323641,0.02775 17.030945,0.08359 2.353651,0.02792 4.347889,0.06291 5.767842,0.103581 0.686445,0.01966 1.225122,0.04037 1.590064,0.05997 1.42187,0.437294 2.697158,1.82068 2.96933,3.083816 0.01126,0.246759 0.02296,0.605868 0.03453,1.066705 0.02419,0.964074 0.04506,2.313423 0.06179,3.901562 0.03345,3.176279 0.05088,7.320239 0.05088,11.46118 0,4.14094 -0.01744,8.283082 -0.05088,11.459362 -0.01673,1.58814 -0.0376,2.937483 -0.06179,3.90156 -0.0115,0.458517 -0.02332,0.816261 -0.03453,1.063072 -0.272096,1.230809 -1.9267,2.866302 -3.111073,3.140152 -0.02083,9.3e-4 -0.04331,0.007 -0.06179,0.007 -0.373895,0.0116 -0.938224,0.0236 -1.640946,0.0345 -1.405441,0.0218 -3.376829,0.0402 -5.711509,0.0545 -4.669357,0.0286 -10.802985,0.042 -16.932815,0.04 -6.12983,-0.002 -12.259387,-0.0193 -16.920095,-0.0509 -2.330355,-0.0158 -4.296418,-0.0354 -5.695155,-0.0581 -0.699368,-0.0114 -1.258951,-0.0246 -1.628225,-0.0364 -0.0044,-1.4e-4 -0.0047,1.4e-4 -0.0091,0 -1.00136,-0.25071 -2.546591,-1.659678 -2.951158,-2.967515 -0.01546,-0.236577 -0.03251,-0.531844 -0.04906,-0.948586 -0.03877,-0.975641 -0.07245,-2.351706 -0.09995,-3.968803 -0.05499,-3.234188 -0.0845,-7.447771 -0.08541,-11.657433 -9.12e-4,-4.209662 0.02638,-8.423606 0.07996,-11.657439 0.0268,-1.616917 0.05979,-2.993456 0.09813,-3.968799 0.01666,-0.423828 0.03535,-0.728347 0.05088,-0.964942 0.430736,-1.470401 1.470019,-2.507019 2.903911,-2.934804 0.364711,-0.01976 0.912923,-0.04011 1.606418,-0.05996 1.419954,-0.04067 3.414191,-0.07566 5.767843,-0.103581 4.707303,-0.05583 10.870355,-0.08359 17.030946,-0.08359 z"
       id="path69234" />
  </g>
</svg>
