<?xml version="1.0" encoding="UTF-8" standalone="no"?>
<!-- Created with Inkscape (http://www.inkscape.org/) -->

<svg
   width="469.08316"
   height="460.84781"
   viewBox="0 0 124.11158 121.93264"
   version="1.1"
   id="svg5"
   inkscape:version="1.1.1 (3bf5ae0d25, 2021-09-20)"
   sodipodi:docname="tool_icon_view.svg"
   inkscape:export-filename="C:\Users\leo\Desktop\svgs\combobox.png"
   inkscape:export-xdpi="96"
   inkscape:export-ydpi="96"
   xmlns:inkscape="http://www.inkscape.org/namespaces/inkscape"
   xmlns:sodipodi="http://sodipodi.sourceforge.net/DTD/sodipodi-0.dtd"
   xmlns="http://www.w3.org/2000/svg"
   xmlns:svg="http://www.w3.org/2000/svg">
  <sodipodi:namedview
     id="namedview7"
     pagecolor="#505050"
     bordercolor="#eeeeee"
     borderopacity="1"
     inkscape:pageshadow="0"
     inkscape:pageopacity="0"
     inkscape:pagecheckerboard="0"
     inkscape:document-units="mm"
     showgrid="false"
     inkscape:zoom="1"
     inkscape:cx="281.5"
     inkscape:cy="212.5"
     inkscape:window-width="1920"
     inkscape:window-height="1121"
     inkscape:window-x="-7"
     inkscape:window-y="-7"
     inkscape:window-maximized="1"
     inkscape:current-layer="g6111"
     fit-margin-top="50"
     fit-margin-left="50"
     fit-margin-right="50"
     fit-margin-bottom="50"
     lock-margins="true"
     units="px"
     showguides="false" />
  <defs
     id="defs2">
    <rect
       x="-190"
       y="50"
       width="409"
       height="109"
       id="rect62070" />
    <rect
       x="-268"
       y="6"
       width="249"
       height="367"
       id="rect60744" />
    <filter
       style="color-interpolation-filters:sRGB"
       inkscape:label="Drop Shadow"
       id="filter41397"
       x="-0.4636397"
       y="-0.4636397"
       width="2.0236785"
       height="2.0043981">
      <feFlood
         flood-opacity="0.498039"
         flood-color="rgb(0,0,0)"
         result="flood"
         id="feFlood41387" />
      <feComposite
         in="flood"
         in2="SourceGraphic"
         operator="in"
         result="composite1"
         id="feComposite41389" />
      <feGaussianBlur
         in="composite1"
         stdDeviation="3"
         result="blur"
         id="feGaussianBlur41391" />
      <feOffset
         dx="1.49701"
         dy="1.1976"
         result="offset"
         id="feOffset41393" />
      <feComposite
         in="SourceGraphic"
         in2="offset"
         operator="over"
         result="composite2"
         id="feComposite41395" />
    </filter>
    <filter
       style="color-interpolation-filters:sRGB"
       inkscape:label="Drop Shadow"
       id="filter48262"
       x="-0.11650321"
       y="-0.11797703"
       width="1.3759789"
       height="1.3795844">
      <feFlood
         flood-opacity="0.211765"
         flood-color="rgb(0,0,0)"
         result="flood"
         id="feFlood48252" />
      <feComposite
         in="flood"
         in2="SourceGraphic"
         operator="in"
         result="composite1"
         id="feComposite48254" />
      <feGaussianBlur
         in="composite1"
         stdDeviation="1"
         result="blur"
         id="feGaussianBlur48256" />
      <feOffset
         dx="0.7"
         dy="0.7"
         result="offset"
         id="feOffset48258" />
      <feComposite
         in="SourceGraphic"
         in2="offset"
         operator="over"
         result="composite2"
         id="feComposite48260" />
    </filter>
    <rect
       x="-268"
       y="6"
       width="249"
       height="367"
       id="rect71674" />
    <rect
       x="-268"
       y="6"
       width="249"
       height="367"
       id="rect72688" />
  </defs>
  <g
     inkscape:groupmode="layer"
     id="g6111"
     inkscape:label="tool_icon_view"
     style="display:inline">
    <path
       style="color:#000000;opacity:0.5;fill:#ffffff;stroke-width:1;stroke-linejoin:round;stroke-dashoffset:187.087;-inkscape-stroke:none;paint-order:markers fill stroke"
       d="m 45.111458,51.56791 c -4.59958,0 -9.239329,1.794309 -12.728422,5.283399 L 18.785416,70.447897 V 87.418951 L 40.86934,65.335546 c 1.211744,-1.211747 2.706849,-1.767335 4.242118,-1.767335 1.535271,0 3.030371,0.555588 4.242117,1.767335 L 66.13653,82.118501 a 6.0005999,6.0005999 0 0 0 8.484753,0 l 7.124631,-7.124629 c 2.423803,-2.423805 6.062499,-2.423805 8.486304,0 L 101.61085,86.371987 V 69.401448 l -2.893878,-2.89388 c -6.97787,-6.977869 -18.477426,-6.977869 -25.455295,0 L 70.37865,69.390079 57.839879,56.851309 C 54.35079,53.362219 49.711041,51.56791 45.111458,51.56791 Z"
       id="rect6314" />
    <circle
       style="opacity:0.5;fill:#ffffff;fill-opacity:1;stroke:none;stroke-width:12;stroke-linecap:butt;stroke-linejoin:round;stroke-miterlimit:4;stroke-dasharray:none;stroke-dashoffset:187.087;stroke-opacity:1;paint-order:markers fill stroke"
       id="path7012"
       cx="74.877083"
       cy="44.185417"
       r="10.054167" />
    <path
       style="color:#000000;fill:#d9d9d9;fill-opacity:1;stroke-linecap:round;stroke-linejoin:round;stroke-dashoffset:186.406;-inkscape-stroke:none"
       d="m 34.5,15.810547 c -9.599856,0 -17.5,7.900144 -17.5,17.5 v 55.310547 c 0,9.599855 7.900144,17.499996 17.5,17.499996 h 55.111328 c 9.599856,0 17.500002,-7.900141 17.500002,-17.499996 V 33.310547 c 0,-9.599856 -7.900146,-17.5 -17.500002,-17.5 z m 0,11 h 55.111328 c 3.696131,0 6.5,2.803869 6.5,6.5 v 55.310547 c 0,3.696131 -2.803869,6.5 -6.5,6.5 H 34.5 c -3.696131,0 -6.5,-2.803869 -6.5,-6.5 V 33.310547 c 0,-3.696131 2.803869,-6.5 6.5,-6.5 z"
       id="rect6107" />
  </g>
</svg>
