<?xml version="1.0" encoding="UTF-8" standalone="no"?>
<!-- Created with Inkscape (http://www.inkscape.org/) -->

<svg
   width="469.08316"
   height="460.84781"
   viewBox="0 0 124.11158 121.93264"
   version="1.1"
   id="svg5"
   inkscape:version="1.1.1 (3bf5ae0d25, 2021-09-20)"
   sodipodi:docname="tool_manually_publish.svg"
   inkscape:export-filename="C:\Users\leo\Desktop\svgs\combobox.png"
   inkscape:export-xdpi="96"
   inkscape:export-ydpi="96"
   xmlns:inkscape="http://www.inkscape.org/namespaces/inkscape"
   xmlns:sodipodi="http://sodipodi.sourceforge.net/DTD/sodipodi-0.dtd"
   xmlns="http://www.w3.org/2000/svg"
   xmlns:svg="http://www.w3.org/2000/svg">
  <sodipodi:namedview
     id="namedview7"
     pagecolor="#505050"
     bordercolor="#eeeeee"
     borderopacity="1"
     inkscape:pageshadow="0"
     inkscape:pageopacity="0"
     inkscape:pagecheckerboard="0"
     inkscape:document-units="mm"
     showgrid="false"
     inkscape:zoom="0.70710678"
     inkscape:cx="402.34376"
     inkscape:cy="10.606602"
     inkscape:window-width="1920"
     inkscape:window-height="1121"
     inkscape:window-x="-7"
     inkscape:window-y="-7"
     inkscape:window-maximized="1"
     inkscape:current-layer="g2913"
     fit-margin-top="50"
     fit-margin-left="50"
     fit-margin-right="50"
     fit-margin-bottom="50"
     lock-margins="true"
     units="px"
     showguides="false" />
  <defs
     id="defs2">
    <rect
       x="-190"
       y="50"
       width="409"
       height="109"
       id="rect62070" />
    <rect
       x="-268"
       y="6"
       width="249"
       height="367"
       id="rect60744" />
    <filter
       style="color-interpolation-filters:sRGB"
       inkscape:label="Drop Shadow"
       id="filter41397"
       x="-0.4636397"
       y="-0.4636397"
       width="2.0236785"
       height="2.0043981">
      <feFlood
         flood-opacity="0.498039"
         flood-color="rgb(0,0,0)"
         result="flood"
         id="feFlood41387" />
      <feComposite
         in="flood"
         in2="SourceGraphic"
         operator="in"
         result="composite1"
         id="feComposite41389" />
      <feGaussianBlur
         in="composite1"
         stdDeviation="3"
         result="blur"
         id="feGaussianBlur41391" />
      <feOffset
         dx="1.49701"
         dy="1.1976"
         result="offset"
         id="feOffset41393" />
      <feComposite
         in="SourceGraphic"
         in2="offset"
         operator="over"
         result="composite2"
         id="feComposite41395" />
    </filter>
    <filter
       style="color-interpolation-filters:sRGB"
       inkscape:label="Drop Shadow"
       id="filter48262"
       x="-0.11650321"
       y="-0.11797703"
       width="1.3759789"
       height="1.3795844">
      <feFlood
         flood-opacity="0.211765"
         flood-color="rgb(0,0,0)"
         result="flood"
         id="feFlood48252" />
      <feComposite
         in="flood"
         in2="SourceGraphic"
         operator="in"
         result="composite1"
         id="feComposite48254" />
      <feGaussianBlur
         in="composite1"
         stdDeviation="1"
         result="blur"
         id="feGaussianBlur48256" />
      <feOffset
         dx="0.7"
         dy="0.7"
         result="offset"
         id="feOffset48258" />
      <feComposite
         in="SourceGraphic"
         in2="offset"
         operator="over"
         result="composite2"
         id="feComposite48260" />
    </filter>
    <rect
       x="-268"
       y="6"
       width="249"
       height="367"
       id="rect71674" />
    <rect
       x="-268"
       y="6"
       width="249"
       height="367"
       id="rect72688" />
  </defs>
  <g
     inkscape:groupmode="layer"
     id="g2913"
     inkscape:label="tool_merge"
     style="display:inline">
    <path
       id="path2909"
       style="color:#000000;display:inline;opacity:0.5;fill:#ffffff;stroke-width:1;stroke-linecap:round;stroke-linejoin:round;stroke-dashoffset:186.406;-inkscape-stroke:none"
       d="m 34.501402,15.811201 c -9.599855,0 -17.500223,7.899853 -17.500223,17.499708 v 55.310833 c 0,9.599857 7.900368,17.499708 17.500223,17.499708 h 55.109297 c 9.599856,0 17.499711,-7.899851 17.499711,-17.499708 V 48.269168 L 106.59106,47.74982 96.110562,37.269322 85.652284,26.811047 74.998672,16.157433 74.652441,15.811201 Z m 0,10.999846 h 40.49727 v 3.439067 c 0,9.599856 7.900368,17.499706 17.500224,17.499706 h 3.611666 v 40.871922 c 0,3.696132 -2.803732,6.499867 -6.499863,6.499867 H 34.501402 c -3.69613,0 -6.500377,-2.803735 -6.500378,-6.499867 V 33.310909 c 0,-3.696131 2.804248,-6.499862 6.500378,-6.499862 z" />
    <path
       id="rect3018"
       style="opacity:1;fill:#d9d9d9;stroke:none;stroke-width:41.5748;stroke-linecap:butt;stroke-linejoin:round;stroke-miterlimit:4.4;stroke-dasharray:83.1496, 41.5748;stroke-dashoffset:187.087;paint-order:markers fill stroke;fill-opacity:1"
       d="m 233.9082,143.85352 c -6.37919,0 -12.75842,2.44396 -17.64648,7.33203 l -50.70508,50.70507 c -9.77613,9.77614 -9.77613,25.51684 0,35.29297 l 0.70703,0.70703 c 9.77613,9.77614 25.51684,9.77614 35.29297,0 l 7.5293,-7.52929 v 59.16601 c 0,14.65701 11.35254,26.45704 25.45508,26.45704 14.10253,-10e-6 25.45703,-11.80003 25.45703,-26.45704 v -58.10546 l 6.46875,6.46874 c 9.77613,9.77614 25.51684,9.77614 35.29297,0 l 0.70703,-0.70703 c 9.77613,-9.77613 9.77613,-25.51683 0,-35.29297 l -50.70508,-50.70507 c -4.91448,-4.91448 -11.33639,-7.35663 -17.75,-7.33008 -0.0345,-1.4e-4 -0.069,-0.002 -0.10352,-0.002 z"
       transform="scale(0.26458333)" />
  </g>
</svg>
