<?xml version="1.0" encoding="UTF-8" standalone="no"?>
<!-- Created with Inkscape (http://www.inkscape.org/) -->

<svg
   width="469.08316"
   height="460.84781"
   viewBox="0 0 124.11158 121.93264"
   version="1.1"
   id="svg5"
   inkscape:version="1.1.1 (3bf5ae0d25, 2021-09-20)"
   sodipodi:docname="tool_update.svg"
   inkscape:export-filename="C:\Users\leo\Desktop\svgs\combobox.png"
   inkscape:export-xdpi="96"
   inkscape:export-ydpi="96"
   xmlns:inkscape="http://www.inkscape.org/namespaces/inkscape"
   xmlns:sodipodi="http://sodipodi.sourceforge.net/DTD/sodipodi-0.dtd"
   xmlns="http://www.w3.org/2000/svg"
   xmlns:svg="http://www.w3.org/2000/svg">
  <sodipodi:namedview
     id="namedview7"
     pagecolor="#505050"
     bordercolor="#eeeeee"
     borderopacity="1"
     inkscape:pageshadow="0"
     inkscape:pageopacity="0"
     inkscape:pagecheckerboard="0"
     inkscape:document-units="mm"
     showgrid="false"
     inkscape:zoom="1"
     inkscape:cx="281.5"
     inkscape:cy="132.5"
     inkscape:window-width="1920"
     inkscape:window-height="1121"
     inkscape:window-x="-7"
     inkscape:window-y="-7"
     inkscape:window-maximized="1"
     inkscape:current-layer="path5748"
     fit-margin-top="50"
     fit-margin-left="50"
     fit-margin-right="50"
     fit-margin-bottom="50"
     lock-margins="true"
     units="px"
     showguides="false" />
  <defs
     id="defs2">
    <rect
       x="-190"
       y="50"
       width="409"
       height="109"
       id="rect62070" />
    <rect
       x="-268"
       y="6"
       width="249"
       height="367"
       id="rect60744" />
    <filter
       style="color-interpolation-filters:sRGB"
       inkscape:label="Drop Shadow"
       id="filter41397"
       x="-0.4636397"
       y="-0.4636397"
       width="2.0236785"
       height="2.0043981">
      <feFlood
         flood-opacity="0.498039"
         flood-color="rgb(0,0,0)"
         result="flood"
         id="feFlood41387" />
      <feComposite
         in="flood"
         in2="SourceGraphic"
         operator="in"
         result="composite1"
         id="feComposite41389" />
      <feGaussianBlur
         in="composite1"
         stdDeviation="3"
         result="blur"
         id="feGaussianBlur41391" />
      <feOffset
         dx="1.49701"
         dy="1.1976"
         result="offset"
         id="feOffset41393" />
      <feComposite
         in="SourceGraphic"
         in2="offset"
         operator="over"
         result="composite2"
         id="feComposite41395" />
    </filter>
    <filter
       style="color-interpolation-filters:sRGB"
       inkscape:label="Drop Shadow"
       id="filter48262"
       x="-0.11650321"
       y="-0.11797703"
       width="1.3759789"
       height="1.3795844">
      <feFlood
         flood-opacity="0.211765"
         flood-color="rgb(0,0,0)"
         result="flood"
         id="feFlood48252" />
      <feComposite
         in="flood"
         in2="SourceGraphic"
         operator="in"
         result="composite1"
         id="feComposite48254" />
      <feGaussianBlur
         in="composite1"
         stdDeviation="1"
         result="blur"
         id="feGaussianBlur48256" />
      <feOffset
         dx="0.7"
         dy="0.7"
         result="offset"
         id="feOffset48258" />
      <feComposite
         in="SourceGraphic"
         in2="offset"
         operator="over"
         result="composite2"
         id="feComposite48260" />
    </filter>
    <rect
       x="-268"
       y="6"
       width="249"
       height="367"
       id="rect71674" />
    <rect
       x="-268"
       y="6"
       width="249"
       height="367"
       id="rect72688" />
  </defs>
  <g
     id="path5748"
     inkscape:label="tool_update">
    <path
       style="color:#000000;fill:#d9d9d9;stroke-width:11.3386;-inkscape-stroke:none;fill-opacity:1"
       d="m 370.19727,198.49805 c -0.44878,-0.005 -0.8965,0.004 -1.34571,0.0234 -2.39576,0.10515 -4.78903,0.56046 -7.10156,1.38672 -1.43613,0.51313 -1.48942,0.6972 -2.13477,1.08594 -0.64534,0.38874 -1.40596,0.87358 -2.32421,1.46875 -1.83652,1.19034 -4.26283,2.80894 -7.13086,4.76172 -5.73608,3.90555 -13.24748,9.14194 -21.19336,14.78516 -16.15812,11.4756 -24.43217,17.29167 -29.43164,22.32421 -4.99948,5.03255 -6.12366,10.69546 -6.15625,15.67774 -0.0903,13.79794 10.84189,24.70117 24.68359,24.70117 3.4804,0 7.13428,-0.70314 10.875,-2.54687 1.52348,-0.7509 3.90102,-2.58699 5.63867,-3.69922 -0.40567,0.85785 -0.72741,1.73772 -1.1289,2.53906 -14.77116,29.48145 -43.12,51.32225 -75.78321,58.32422 -9.9971,2.14306 -32.42436,2.58499 -41.92773,0.8789 -14.97492,-2.68836 -32.83048,-10.17049 -45.45899,-19.0664 -3.03731,-2.13958 -10.40508,-8.51589 -15.25,-13.34766 -5.28381,-5.26948 -9.13237,-8.74245 -13.2207,-11.01367 -4.08833,-2.27122 -8.56605,-2.91319 -12.73437,-2.44336 -12.654,1.4263 -22.24118,12.1146 -22.16016,24.81055 0.0246,3.8502 0.595,7.63336 2.53125,11.1914 1.93625,3.55804 4.77054,6.71328 9.18359,11.33789 27.70493,29.03307 65.70501,46.88636 104.78516,49.14258 19.74964,1.14021 36.95833,-0.57822 54.48633,-5.5 49.38527,-13.86714 89.89393,-51.39018 107.05273,-98.67383 3.19476,4.40478 6.15697,7.81451 9.83203,10.10547 3.79068,2.36306 8.13273,3.26953 12.63086,3.26953 13.04946,0 23.57051,-9.76447 24.39649,-22.73632 0.30652,-4.8167 -0.29203,-8.71509 -2.06641,-12.16407 -0.65465,-1.27243 -1.35102,-2.27396 -2.55469,-4.08984 -1.20363,-1.81587 -2.78119,-4.13198 -4.61328,-6.79883 -3.66417,-5.33369 -8.3555,-12.05052 -13.08789,-18.75 -4.73238,-6.69948 -9.50131,-13.37879 -13.31055,-18.625 -1.90461,-2.6231 -3.56472,-4.88813 -4.8789,-6.63672 -1.31418,-1.74859 -2.04821,-2.75701 -3.01172,-3.78711 -4.73329,-5.06026 -11.35815,-7.86463 -18.08984,-7.93554 z"
       transform="scale(0.26458333)"
       id="path5973" />
    <path
       style="color:#000000;opacity:0.5;fill:#ffffff;stroke-width:11.3386;-inkscape-stroke:none"
       d="m 234.98828,69.794922 c -27.02823,-0.04827 -49.06676,5.191716 -73.57617,17.480469 -16.47286,8.25931 -29.63879,18.199579 -43.83984,33.019529 -14.79102,15.43563 -26.354717,34.079 -33.500004,53.84375 -3.17322,-4.36579 -6.120177,-7.76948 -9.773438,-10.04687 -3.790677,-2.36306 -8.132707,-3.26172 -12.630859,-3.26172 -13.052837,0 -23.570095,9.76398 -24.396485,22.74219 -0.292981,4.60115 0.134173,8.406 1.800782,11.68554 0.659213,1.2972 1.337399,2.2741 2.53125,4.08203 1.193847,1.80794 2.756978,4.11774 4.578125,6.77735 3.642293,5.31921 8.314699,12.02642 13.029297,18.7207 4.714594,6.69429 9.465568,13.36844 13.271484,18.625 1.902958,2.62828 3.568896,4.89967 4.886719,6.6582 1.317826,1.75854 2.078561,2.80064 3.019531,3.81641 2.129628,2.29891 4.663358,4.36029 7.417969,5.83203 3.375416,1.8034 7.032225,2.34526 10.734375,2.38281 3.702144,0.0374 7.360514,-0.42143 10.769534,-2.16992 1.32533,-0.67977 1.94103,-1.16657 3.53711,-2.22851 1.59607,-1.06195 3.67505,-2.47499 6.11132,-4.14258 4.87255,-3.33519 11.13858,-7.6828 17.53125,-12.15039 12.78534,-8.93518 25.77988,-18.11957 29.76563,-21.22266 11.42967,-8.89852 12.6318,-25.90966 2.81836,-36.70898 -4.46771,-4.91654 -11.04684,-7.39649 -18.0625,-7.39649 -3.47762,0 -7.12767,0.70102 -10.86719,2.54492 -1.52262,0.75078 -3.90182,2.5875 -5.63867,3.69922 0.40547,-0.85739 0.72762,-1.73814 1.12891,-2.53906 12.05532,-24.06096 33.64612,-43.5704 59.19531,-53.4375 12.79076,-4.9398 23.11613,-6.77949 38.82812,-6.83594 15.25638,-0.0547 21.79173,0.86846 34.28907,4.8125 17.56975,5.54486 31.12702,13.90734 45.70117,28.31055 5.53058,5.46571 9.45571,9.01339 13.57617,11.33008 4.12046,2.31669 8.62223,2.96531 12.78516,2.49609 12.65399,-1.42629 22.24117,-12.1146 22.16015,-24.81055 -0.0249,-3.91488 -0.62616,-7.80161 -2.67969,-11.44921 -2.05352,-3.64761 -5.06521,-6.93329 -9.85351,-11.90039 C 319.33381,86.919056 279.06418,69.873623 234.98828,69.794922 Z"
       transform="scale(0.26458333)"
       id="path5966" />
  </g>
</svg>
