<?xml version="1.0" encoding="UTF-8" standalone="no"?>
<!-- Created with Inkscape (http://www.inkscape.org/) -->

<svg
   width="469.08316"
   height="460.84781"
   viewBox="0 0 124.11158 121.93264"
   version="1.1"
   id="svg5"
   inkscape:version="1.1.1 (3bf5ae0d25, 2021-09-20)"
   sodipodi:docname="tool_edit.svg"
   inkscape:export-filename="C:\Users\leo\Desktop\svgs\combobox.png"
   inkscape:export-xdpi="96"
   inkscape:export-ydpi="96"
   xmlns:inkscape="http://www.inkscape.org/namespaces/inkscape"
   xmlns:sodipodi="http://sodipodi.sourceforge.net/DTD/sodipodi-0.dtd"
   xmlns="http://www.w3.org/2000/svg"
   xmlns:svg="http://www.w3.org/2000/svg">
  <sodipodi:namedview
     id="namedview7"
     pagecolor="#505050"
     bordercolor="#eeeeee"
     borderopacity="1"
     inkscape:pageshadow="0"
     inkscape:pageopacity="0"
     inkscape:pagecheckerboard="0"
     inkscape:document-units="mm"
     showgrid="false"
     inkscape:zoom="0.70710678"
     inkscape:cx="12.727922"
     inkscape:cy="160.51324"
     inkscape:window-width="1920"
     inkscape:window-height="1121"
     inkscape:window-x="-7"
     inkscape:window-y="-7"
     inkscape:window-maximized="1"
     inkscape:current-layer="svg5"
     fit-margin-top="50"
     fit-margin-left="50"
     fit-margin-right="50"
     fit-margin-bottom="50"
     lock-margins="true"
     units="px"
     showguides="false" />
  <defs
     id="defs2">
    <rect
       x="-190"
       y="50"
       width="409"
       height="109"
       id="rect62070" />
    <rect
       x="-268"
       y="6"
       width="249"
       height="367"
       id="rect60744" />
    <filter
       style="color-interpolation-filters:sRGB"
       inkscape:label="Drop Shadow"
       id="filter41397"
       x="-0.4636397"
       y="-0.4636397"
       width="2.0236785"
       height="2.0043981">
      <feFlood
         flood-opacity="0.498039"
         flood-color="rgb(0,0,0)"
         result="flood"
         id="feFlood41387" />
      <feComposite
         in="flood"
         in2="SourceGraphic"
         operator="in"
         result="composite1"
         id="feComposite41389" />
      <feGaussianBlur
         in="composite1"
         stdDeviation="3"
         result="blur"
         id="feGaussianBlur41391" />
      <feOffset
         dx="1.49701"
         dy="1.1976"
         result="offset"
         id="feOffset41393" />
      <feComposite
         in="SourceGraphic"
         in2="offset"
         operator="over"
         result="composite2"
         id="feComposite41395" />
    </filter>
    <filter
       style="color-interpolation-filters:sRGB"
       inkscape:label="Drop Shadow"
       id="filter48262"
       x="-0.11650321"
       y="-0.11797703"
       width="1.3759789"
       height="1.3795844">
      <feFlood
         flood-opacity="0.211765"
         flood-color="rgb(0,0,0)"
         result="flood"
         id="feFlood48252" />
      <feComposite
         in="flood"
         in2="SourceGraphic"
         operator="in"
         result="composite1"
         id="feComposite48254" />
      <feGaussianBlur
         in="composite1"
         stdDeviation="1"
         result="blur"
         id="feGaussianBlur48256" />
      <feOffset
         dx="0.7"
         dy="0.7"
         result="offset"
         id="feOffset48258" />
      <feComposite
         in="SourceGraphic"
         in2="offset"
         operator="over"
         result="composite2"
         id="feComposite48260" />
    </filter>
    <rect
       x="-268"
       y="6"
       width="249"
       height="367"
       id="rect71674" />
    <rect
       x="-268"
       y="6"
       width="249"
       height="367"
       id="rect72688" />
  </defs>
  <path
     id="path1135"
     style="fill:#d9d9d9;fill-opacity:1;stroke-width:0.206615"
     d="m 103.64691,10.769028 c -2.00728,0.02453 -4.028149,0.594782 -5.817221,1.778186 -0.681832,0.451004 -2.726648,2.312941 -4.54391,4.137732 l -3.30419,3.317626 7.745264,7.747331 c 4.259917,4.261048 7.798177,7.74733 7.862577,7.74733 0.0644,0 1.69855,-1.603864 3.63182,-3.564123 3.86776,-3.921762 4.59368,-4.960124 5.24361,-7.501351 0.69248,-2.707543 0.46343,-4.936658 -0.7736,-7.529773 -1.88229,-3.945747 -5.93419,-6.183192 -10.04435,-6.132958 z M 29.936159,20.853683 c -9.599855,0 -17.500223,7.900367 -17.500223,17.500224 v 55.310317 c 0,9.599856 7.900368,17.500226 17.500223,17.500226 h 55.111363 c 9.599856,0 17.499718,-7.90037 17.499718,-17.500226 V 47.868054 L 91.547385,59.500421 v 34.163803 c 0,3.696132 -2.803731,6.500376 -6.499863,6.500376 H 29.936159 c -3.696131,0 -6.500379,-2.804244 -6.500379,-6.500376 V 38.353907 c 0,-3.696131 2.804248,-6.499862 6.500379,-6.499862 H 70.613264 L 81.438958,20.853683 Z m 55.393518,3.797184 -17.556036,17.555001 c -9.655645,9.655145 -17.652216,17.790514 -17.769974,18.078484 -0.259228,0.633942 -3.311425,15.811582 -3.311425,16.466693 0,0.711049 0.387718,1.403598 0.997355,1.781804 0.303871,0.188516 0.788548,0.3453 1.076936,0.348301 0.680956,0.0071 15.841988,-3.025659 16.52819,-3.30626 0.28797,-0.117756 8.423339,-8.114326 18.078484,-17.769975 L 100.92769,40.249398 93.128683,32.450392 Z"
     inkscape:label="tool_edit" />
</svg>
