<?xml version="1.0" encoding="UTF-8" standalone="no"?>
<!-- Created with Inkscape (http://www.inkscape.org/) -->

<svg
   width="469.08316"
   height="460.84781"
   viewBox="0 0 124.11158 121.93264"
   version="1.1"
   id="svg5"
   inkscape:version="1.2.1 (9c6d41e410, 2022-07-14)"
   sodipodi:docname="tool_video.svg"
   inkscape:export-filename="C:\Users\leo\Desktop\svgs\combobox.png"
   inkscape:export-xdpi="96"
   inkscape:export-ydpi="96"
   xml:space="preserve"
   xmlns:inkscape="http://www.inkscape.org/namespaces/inkscape"
   xmlns:sodipodi="http://sodipodi.sourceforge.net/DTD/sodipodi-0.dtd"
   xmlns="http://www.w3.org/2000/svg"
   xmlns:svg="http://www.w3.org/2000/svg"><sodipodi:namedview
     id="namedview7"
     pagecolor="#505050"
     bordercolor="#eeeeee"
     borderopacity="1"
     inkscape:pageshadow="0"
     inkscape:pageopacity="0"
     inkscape:pagecheckerboard="0"
     inkscape:document-units="mm"
     showgrid="false"
     inkscape:zoom="0.70710678"
     inkscape:cx="-13.435029"
     inkscape:cy="271.529"
     inkscape:window-width="1920"
     inkscape:window-height="1121"
     inkscape:window-x="-7"
     inkscape:window-y="-7"
     inkscape:window-maximized="1"
     inkscape:current-layer="g2913"
     fit-margin-top="50"
     fit-margin-left="50"
     fit-margin-right="50"
     fit-margin-bottom="50"
     lock-margins="true"
     units="px"
     showguides="false"
     inkscape:showpageshadow="0"
     inkscape:deskcolor="#505050" /><defs
     id="defs2"><rect
       x="-190"
       y="50"
       width="409"
       height="109"
       id="rect62070" /><rect
       x="-268"
       y="6"
       width="249"
       height="367"
       id="rect60744" /><filter
       style="color-interpolation-filters:sRGB"
       inkscape:label="Drop Shadow"
       id="filter41397"
       x="-0.4636397"
       y="-0.4636397"
       width="2.0236785"
       height="2.0043981"><feFlood
         flood-opacity="0.498039"
         flood-color="rgb(0,0,0)"
         result="flood"
         id="feFlood41387" /><feComposite
         in="flood"
         in2="SourceGraphic"
         operator="in"
         result="composite1"
         id="feComposite41389" /><feGaussianBlur
         in="composite1"
         stdDeviation="3"
         result="blur"
         id="feGaussianBlur41391" /><feOffset
         dx="1.49701"
         dy="1.1976"
         result="offset"
         id="feOffset41393" /><feComposite
         in="SourceGraphic"
         in2="offset"
         operator="over"
         result="composite2"
         id="feComposite41395" /></filter><filter
       style="color-interpolation-filters:sRGB"
       inkscape:label="Drop Shadow"
       id="filter48262"
       x="-0.11650321"
       y="-0.11797703"
       width="1.3759789"
       height="1.3795844"><feFlood
         flood-opacity="0.211765"
         flood-color="rgb(0,0,0)"
         result="flood"
         id="feFlood48252" /><feComposite
         in="flood"
         in2="SourceGraphic"
         operator="in"
         result="composite1"
         id="feComposite48254" /><feGaussianBlur
         in="composite1"
         stdDeviation="1"
         result="blur"
         id="feGaussianBlur48256" /><feOffset
         dx="0.7"
         dy="0.7"
         result="offset"
         id="feOffset48258" /><feComposite
         in="SourceGraphic"
         in2="offset"
         operator="over"
         result="composite2"
         id="feComposite48260" /></filter><rect
       x="-268"
       y="6"
       width="249"
       height="367"
       id="rect71674" /><rect
       x="-268"
       y="6"
       width="249"
       height="367"
       id="rect72688" /><rect
       x="-190"
       y="50"
       width="409"
       height="109"
       id="rect62070-3" /><rect
       x="-268"
       y="6"
       width="249"
       height="367"
       id="rect60744-5" /><filter
       style="color-interpolation-filters:sRGB"
       inkscape:label="Drop Shadow"
       id="filter41397-5"
       x="-0.4636397"
       y="-0.4636397"
       width="2.0236785"
       height="2.0043981"><feFlood
         flood-opacity="0.498039"
         flood-color="rgb(0,0,0)"
         result="flood"
         id="feFlood41387-4" /><feComposite
         in="flood"
         in2="SourceGraphic"
         operator="in"
         result="composite1"
         id="feComposite41389-4" /><feGaussianBlur
         in="composite1"
         stdDeviation="3"
         result="blur"
         id="feGaussianBlur41391-1" /><feOffset
         dx="1.49701"
         dy="1.1976"
         result="offset"
         id="feOffset41393-2" /><feComposite
         in="SourceGraphic"
         in2="offset"
         operator="over"
         result="composite2"
         id="feComposite41395-6" /></filter><filter
       style="color-interpolation-filters:sRGB"
       inkscape:label="Drop Shadow"
       id="filter48262-1"
       x="-0.11650321"
       y="-0.11797703"
       width="1.3759789"
       height="1.3795844"><feFlood
         flood-opacity="0.211765"
         flood-color="rgb(0,0,0)"
         result="flood"
         id="feFlood48252-1" /><feComposite
         in="flood"
         in2="SourceGraphic"
         operator="in"
         result="composite1"
         id="feComposite48254-4" /><feGaussianBlur
         in="composite1"
         stdDeviation="1"
         result="blur"
         id="feGaussianBlur48256-0" /><feOffset
         dx="0.7"
         dy="0.7"
         result="offset"
         id="feOffset48258-6" /><feComposite
         in="SourceGraphic"
         in2="offset"
         operator="over"
         result="composite2"
         id="feComposite48260-6" /></filter><rect
       x="-268"
       y="6"
       width="249"
       height="367"
       id="rect71674-3" /><rect
       x="-268"
       y="6"
       width="249"
       height="367"
       id="rect72688-8" /></defs><g
     inkscape:groupmode="layer"
     id="g2913"
     inkscape:label="tool_batch_camera"
     style="display:inline"><path
       id="path394"
       style="fill:#d9d9d9;stroke-width:0.190408;fill-opacity:1"
       d="m 29.006207,42.593838 c 0.08375,-0.139858 3.7658,-5.088076 8.182339,-10.99604 l 8.030074,-10.741756 7.483692,-1.083434 c 4.11603,-0.595888 7.512879,-1.054245 7.548552,-1.018571 0.03567,0.03567 -3.618625,4.995047 -8.120666,11.020827 -7.49043,10.025607 -8.239336,10.965371 -8.819156,11.066729 -1.544444,0.269985 -13.72072,2.006529 -14.069348,2.006529 -0.272512,0 -0.3425,-0.07558 -0.235487,-0.254284 z M 14.782699,39.936677 c 0,-0.06534 -0.350384,-2.492615 -0.778632,-5.393943 -0.859374,-5.822166 -0.858069,-6.403206 0.01734,-7.724837 0.970642,-1.465402 1.499334,-1.6419 7.601063,-2.53753 2.992835,-0.439298 5.460874,-0.784625 5.484532,-0.767392 0.03908,0.02847 -11.988893,16.207088 -12.223739,16.441935 -0.05531,0.05531 -0.100566,0.04711 -0.100566,-0.01823 z m 47.36543,-2.086755 c 0.105033,-0.130906 3.805867,-5.079124 8.224076,-10.99604 4.418209,-5.916917 8.091414,-10.777576 8.162678,-10.801464 0.246094,-0.08249 15.915881,-2.32245 15.957278,-2.281055 0.03709,0.03709 -16.092035,21.693048 -16.345626,21.946639 -0.09564,0.09564 -15.33689,2.360656 -15.92805,2.367086 -0.184054,0.002 -0.204856,-0.06754 -0.07036,-0.235166 z m 34.240676,-4.950598 c 0.415677,-0.737657 11.781125,-15.774292 11.818815,-15.636439 0.19436,0.710987 1.39711,9.753817 1.39362,10.477894 -0.006,1.304082 -0.78168,2.65201 -1.93429,3.362536 -0.80031,0.493352 -1.40407,0.625122 -5.90264,1.288249 -5.708727,0.841517 -5.555419,0.827035 -5.375505,0.50776 z"
       inkscape:label="clap" /><path
       id="path388"
       style="fill:#ffffff;stroke-width:0.190408;fill-opacity:0.50196081"
       d="m 17.997314,107.53775 c -0.762818,-0.39489 -1.425382,-0.91826 -1.823867,-1.44071 -1.277222,-1.67455 -1.210721,0.0615 -1.155291,-30.159658 0.02759,-15.039939 0.117807,-27.412986 0.200493,-27.495659 0.08269,-0.08267 3.938798,3.637425 8.569137,8.266887 l 8.418797,8.417203 h 8.995967 c 4.947782,0 8.995966,-0.06395 8.995966,-0.142113 0,-0.07816 -4.34812,-4.490858 -9.662486,-9.805992 l -9.662487,-9.66388 h 8.187521 8.18752 l 9.804606,9.805993 9.804607,9.805992 h 9.044362 9.044361 l -9.804606,-9.805992 -9.804606,-9.805993 h 7.711509 7.711508 l 9.804606,9.805993 9.804599,9.805992 h 5.1893 5.1893 v 19.209305 c 0,21.948052 0.10601,20.488322 -1.61353,22.218382 -1.75617,1.76691 2.9413,1.60443 -46.386464,1.60443 H 19.195347 Z M 104.8455,51.321261 99.040412,45.513828 h 5.853858 5.85386 v 5.807433 c 0,3.194088 -0.0219,5.807432 -0.0488,5.807432 -0.0268,0 -2.66106,-2.613344 -5.85386,-5.807432 z"
       inkscape:label="down" /></g></svg>
