<?xml version="1.0" encoding="UTF-8" standalone="no"?>
<!-- Created with Inkscape (http://www.inkscape.org/) -->

<svg
   width="469.08316"
   height="460.84781"
   viewBox="0 0 124.11158 121.93264"
   version="1.1"
   id="svg5"
   inkscape:version="1.2.1 (9c6d41e410, 2022-07-14)"
   sodipodi:docname="tool_save.svg"
   inkscape:export-filename="C:\Users\leo\Desktop\svgs\combobox.png"
   inkscape:export-xdpi="96"
   inkscape:export-ydpi="96"
   xml:space="preserve"
   xmlns:inkscape="http://www.inkscape.org/namespaces/inkscape"
   xmlns:sodipodi="http://sodipodi.sourceforge.net/DTD/sodipodi-0.dtd"
   xmlns="http://www.w3.org/2000/svg"
   xmlns:svg="http://www.w3.org/2000/svg"><path
     style="color:#000000;fill:#d9d9d9;-inkscape-stroke:none"
     d="m 56.351562,11.167969 c -12.787281,7.37e-4 -20.289976,0.0094 -24.767578,0.04687 -4.477601,0.03743 -5.479501,-0.06598 -7.300781,0.316406 -5.859558,1.230229 -10.43188,5.804502 -11.662109,11.664062 -0.170476,0.811971 -0.11507,0.813478 -0.13086,1.072266 -0.01579,0.258788 -0.02757,0.537101 -0.03906,0.869141 -0.02298,0.66408 -0.04208,1.529178 -0.06055,2.589843 -0.03694,2.121332 -0.06746,5.017599 -0.0918,8.445313 -0.04867,6.855429 -0.07422,15.824586 -0.07422,24.794922 0,8.970336 0.02555,17.939493 0.07422,24.794922 0.02433,3.427714 0.05486,6.323981 0.0918,8.445312 0.01847,1.060666 0.03757,1.923811 0.06055,2.587891 0.01149,0.33204 0.02327,0.612306 0.03906,0.871094 0.01579,0.258787 -0.03962,0.260295 0.13086,1.072265 1.224097,5.830344 5.724224,10.392954 11.548828,11.648434 l 10.13177,0.21315 -4.233333,0.0329 c 1.982071,0.0287 4.207574,0.0559 7.085938,0.0762 6.862684,0.0483 15.849598,0.073 24.839844,0.0742 8.990245,0.001 17.979447,-0.02 24.847656,-0.0664 3.434104,-0.0232 6.337113,-0.0523 8.458984,-0.0879 1.060936,-0.0178 1.924005,-0.0383 2.585938,-0.0606 0.330966,-0.0111 0.60841,-0.0218 0.865234,-0.0371 0.256824,-0.0153 0.239232,0.0464 1.074219,-0.12892 5.859568,-1.23023 10.433818,-5.80451 11.664058,-11.664054 0.38197,-1.819977 0.27891,-2.821151 0.31641,-7.298828 0.0375,-4.477676 0.0464,-11.980253 0.0469,-24.767578 5.6e-4,-9.773639 -0.0149,-17.337558 -0.0449,-22.564453 -0.015,-2.613448 -0.0319,-4.640778 -0.0547,-6.083985 -0.0114,-0.721603 -0.0246,-1.295025 -0.0391,-1.74414 -0.0145,-0.449115 0.0514,-0.400898 -0.0977,-1.345703 -0.46633,-2.955659 -1.59607,-5.787172 -3.27344,-8.279297 -0.95625,-1.420727 -1.28565,-1.563945 -2.21094,-2.541016 -0.92529,-0.977071 -2.07219,-2.154225 -3.24218,-3.333984 -1.17,-1.17976 -2.35849,-2.356858 -3.361333,-3.324219 -1.002839,-0.967361 -1.534334,-1.534598 -2.503906,-2.267578 -2.613807,-1.975995 -5.689567,-3.26912 -8.935547,-3.78125 -0.944804,-0.149075 -0.898539,-0.08513 -1.347657,-0.09961 -0.449117,-0.01448 -1.022535,-0.02571 -1.74414,-0.03711 -1.443211,-0.02281 -3.470533,-0.0416 -6.083985,-0.05664 -5.226903,-0.03009 -12.788851,-0.04552 -22.5625,-0.04492 z m 0,9.740234 c 9.7633,-6e-4 17.316317,0.01504 22.507813,0.04492 2.595748,0.01494 4.601682,0.03479 5.984375,0.05664 0.691346,0.01093 1.228932,0.02176 1.583984,0.0332 0.355053,0.01145 0.900632,0.103983 0.142578,-0.01563 1.486864,0.234587 3.435337,1.064281 4.580079,1.929687 -0.300652,-0.227287 0.689619,0.615013 1.617187,1.509766 0.927568,0.894753 2.07672,2.034099 3.205078,3.171875 1.128358,1.137776 2.240429,2.278943 3.087891,3.173828 0.847462,0.894885 1.803803,2.1766 1.201173,1.28125 0.77327,1.148869 1.53035,3.076671 1.73242,4.357422 -0.1196,-0.758055 -0.0271,-0.212477 -0.0156,0.142578 0.0114,0.355055 0.0242,0.892636 0.0352,1.583984 0.0219,1.382697 0.0397,3.390576 0.0547,5.986328 0.0299,5.191505 0.0455,12.742552 0.0449,22.50586 -4.8e-4,12.782555 -0.01,20.2876 -0.0469,24.6875 -0.0369,4.399899 -0.27037,6.146005 -0.10938,5.378906 -0.40101,1.910008 -2.136803,3.635443 -4.041014,4.082033 -0.112892,0.005 -0.193372,0.0101 -0.357422,0.0156 -0.562993,0.0189 -1.391117,0.0374 -2.421875,0.0547 -2.061516,0.0346 -4.943431,0.0628 -8.359375,0.0859 -6.831888,0.0462 -15.80808,0.0696 -24.78125,0.0684 -8.97317,-0.001 -17.947151,-0.0262 -24.773438,-0.0742 -3.413143,-0.024 -6.292403,-0.0546 -8.349609,-0.0898 -1.028603,-0.0176 -1.853927,-0.0356 -2.414063,-0.0547 -0.150824,-0.005 -0.220618,-0.0108 -0.328125,-0.0156 -1.768692,-0.43108 -3.503329,-2.1678 -3.929687,-3.990232 -0.0053,-0.113252 -0.0099,-0.194402 -0.01563,-0.359375 -0.01949,-0.563087 -0.03871,-1.392172 -0.05664,-2.421875 -0.03586,-2.059406 -0.06564,-4.936677 -0.08984,-8.345703 -0.0484,-6.818052 -0.07227,-15.771859 -0.07227,-24.724609 0,-8.95275 0.02386,-17.906557 0.07227,-24.72461 0.0242,-3.409026 0.05398,-6.286297 0.08984,-8.345703 0.01793,-1.029703 0.03715,-1.858787 0.05664,-2.421875 0.0057,-0.165867 0.01034,-0.247788 0.01563,-0.361328 0.44401,-1.906896 2.171718,-3.647343 4.083984,-4.048828 -0.768402,0.161328 0.978932,-0.07064 5.378906,-0.107422 4.399975,-0.03678 11.904903,-0.04809 24.6875,-0.04883 z"
     id="path3086"
     sodipodi:nodetypes="cccsssscsssssccccccsscsscscssscssssssssscccsssccsssccccccsccssscssccccssssscccscc" /><sodipodi:namedview
     id="namedview7"
     pagecolor="#505050"
     bordercolor="#eeeeee"
     borderopacity="1"
     inkscape:pageshadow="0"
     inkscape:pageopacity="0"
     inkscape:pagecheckerboard="0"
     inkscape:document-units="mm"
     showgrid="false"
     inkscape:zoom="1"
     inkscape:cx="161.5"
     inkscape:cy="292"
     inkscape:window-width="1920"
     inkscape:window-height="1121"
     inkscape:window-x="-7"
     inkscape:window-y="-7"
     inkscape:window-maximized="1"
     inkscape:current-layer="svg5"
     fit-margin-top="50"
     fit-margin-left="50"
     fit-margin-right="50"
     fit-margin-bottom="50"
     lock-margins="true"
     units="px"
     showguides="false"
     inkscape:showpageshadow="0"
     inkscape:deskcolor="#505050" /><defs
     id="defs2"><rect
       x="-190"
       y="50"
       width="409"
       height="109"
       id="rect62070" /><rect
       x="-268"
       y="6"
       width="249"
       height="367"
       id="rect60744" /><filter
       style="color-interpolation-filters:sRGB"
       inkscape:label="Drop Shadow"
       id="filter41397"
       x="-0.4636397"
       y="-0.4636397"
       width="2.0236785"
       height="2.0043981"><feFlood
         flood-opacity="0.498039"
         flood-color="rgb(0,0,0)"
         result="flood"
         id="feFlood41387" /><feComposite
         in="flood"
         in2="SourceGraphic"
         operator="in"
         result="composite1"
         id="feComposite41389" /><feGaussianBlur
         in="composite1"
         stdDeviation="3"
         result="blur"
         id="feGaussianBlur41391" /><feOffset
         dx="1.49701"
         dy="1.1976"
         result="offset"
         id="feOffset41393" /><feComposite
         in="SourceGraphic"
         in2="offset"
         operator="over"
         result="composite2"
         id="feComposite41395" /></filter><filter
       style="color-interpolation-filters:sRGB"
       inkscape:label="Drop Shadow"
       id="filter48262"
       x="-0.11650321"
       y="-0.11797703"
       width="1.3759789"
       height="1.3795844"><feFlood
         flood-opacity="0.211765"
         flood-color="rgb(0,0,0)"
         result="flood"
         id="feFlood48252" /><feComposite
         in="flood"
         in2="SourceGraphic"
         operator="in"
         result="composite1"
         id="feComposite48254" /><feGaussianBlur
         in="composite1"
         stdDeviation="1"
         result="blur"
         id="feGaussianBlur48256" /><feOffset
         dx="0.7"
         dy="0.7"
         result="offset"
         id="feOffset48258" /><feComposite
         in="SourceGraphic"
         in2="offset"
         operator="over"
         result="composite2"
         id="feComposite48260" /></filter><rect
       x="-268"
       y="6"
       width="249"
       height="367"
       id="rect71674" /><rect
       x="-268"
       y="6"
       width="249"
       height="367"
       id="rect72688" /></defs><path
     id="path3563"
     style="fill:#ffffff;stroke-width:7.53425;stroke-linecap:round;paint-order:markers stroke fill;stop-color:#000000;fill-opacity:0.5"
     d="M 60.324998,78.052078 A 14.552083,14.552083 0 0 1 45.772915,92.604161 14.552083,14.552083 0 0 1 31.220832,78.052078 14.552083,14.552083 0 0 1 45.772915,63.499995 14.552083,14.552083 0 0 1 60.324998,78.052078 Z M 34.925,27.78125 h 42.333331 c 2.931583,0 5.291666,2.360083 5.291666,5.291667 0,2.931583 -2.360083,5.291666 -5.291666,5.291666 H 34.925 c -2.931584,0 -5.291667,-2.360083 -5.291667,-5.291666 0,-2.931584 2.360083,-5.291667 5.291667,-5.291667 z" /></svg>
