<?xml version="1.0" encoding="UTF-8" standalone="no"?>
<!-- Created with Inkscape (http://www.inkscape.org/) -->

<svg
   width="469.08316"
   height="460.84781"
   viewBox="0 0 124.11158 121.93264"
   version="1.1"
   id="svg5"
   inkscape:version="1.2.1 (9c6d41e410, 2022-07-14)"
   sodipodi:docname="tool_video.svg"
   inkscape:export-filename="C:\Users\leo\Desktop\svgs\combobox.png"
   inkscape:export-xdpi="96"
   inkscape:export-ydpi="96"
   xmlns:inkscape="http://www.inkscape.org/namespaces/inkscape"
   xmlns:sodipodi="http://sodipodi.sourceforge.net/DTD/sodipodi-0.dtd"
   xmlns="http://www.w3.org/2000/svg"
   xmlns:svg="http://www.w3.org/2000/svg">
  <sodipodi:namedview
     id="namedview7"
     pagecolor="#505050"
     bordercolor="#eeeeee"
     borderopacity="1"
     inkscape:pageshadow="0"
     inkscape:pageopacity="0"
     inkscape:pagecheckerboard="0"
     inkscape:document-units="mm"
     showgrid="false"
     inkscape:zoom="0.70710678"
     inkscape:cx="156.97771"
     inkscape:cy="271.529"
     inkscape:window-width="1920"
     inkscape:window-height="1121"
     inkscape:window-x="-7"
     inkscape:window-y="-7"
     inkscape:window-maximized="1"
     inkscape:current-layer="g2913"
     fit-margin-top="50"
     fit-margin-left="50"
     fit-margin-right="50"
     fit-margin-bottom="50"
     lock-margins="true"
     units="px"
     showguides="false"
     inkscape:showpageshadow="0"
     inkscape:deskcolor="#505050" />
  <defs
     id="defs2">
    <rect
       x="-190"
       y="50"
       width="409"
       height="109"
       id="rect62070" />
    <rect
       x="-268"
       y="6"
       width="249"
       height="367"
       id="rect60744" />
    <filter
       style="color-interpolation-filters:sRGB"
       inkscape:label="Drop Shadow"
       id="filter41397"
       x="-0.4636397"
       y="-0.4636397"
       width="2.0236785"
       height="2.0043981">
      <feFlood
         flood-opacity="0.498039"
         flood-color="rgb(0,0,0)"
         result="flood"
         id="feFlood41387" />
      <feComposite
         in="flood"
         in2="SourceGraphic"
         operator="in"
         result="composite1"
         id="feComposite41389" />
      <feGaussianBlur
         in="composite1"
         stdDeviation="3"
         result="blur"
         id="feGaussianBlur41391" />
      <feOffset
         dx="1.49701"
         dy="1.1976"
         result="offset"
         id="feOffset41393" />
      <feComposite
         in="SourceGraphic"
         in2="offset"
         operator="over"
         result="composite2"
         id="feComposite41395" />
    </filter>
    <filter
       style="color-interpolation-filters:sRGB"
       inkscape:label="Drop Shadow"
       id="filter48262"
       x="-0.11650321"
       y="-0.11797703"
       width="1.3759789"
       height="1.3795844">
      <feFlood
         flood-opacity="0.211765"
         flood-color="rgb(0,0,0)"
         result="flood"
         id="feFlood48252" />
      <feComposite
         in="flood"
         in2="SourceGraphic"
         operator="in"
         result="composite1"
         id="feComposite48254" />
      <feGaussianBlur
         in="composite1"
         stdDeviation="1"
         result="blur"
         id="feGaussianBlur48256" />
      <feOffset
         dx="0.7"
         dy="0.7"
         result="offset"
         id="feOffset48258" />
      <feComposite
         in="SourceGraphic"
         in2="offset"
         operator="over"
         result="composite2"
         id="feComposite48260" />
    </filter>
    <rect
       x="-268"
       y="6"
       width="249"
       height="367"
       id="rect71674" />
    <rect
       x="-268"
       y="6"
       width="249"
       height="367"
       id="rect72688" />
  </defs>
  <g
     inkscape:groupmode="layer"
     id="g2913"
     inkscape:label="tool_batch_camera"
     style="display:inline">
    <path
       style="fill:#ffffff;fill-opacity:0.50196081;stroke-width:0.203303"
       d="m 22.616014,112.68237 c -1.760579,-0.54943 -3.277746,-2.01875 -3.86573,-3.74384 -0.173762,-0.50979 -0.235548,-7.60072 -0.235548,-27.032432 V 55.564735 l -1.75579,-6.679787 c -1.618342,-6.156882 -1.737317,-6.741447 -1.519804,-7.467436 0.577792,-1.928497 3.154463,-3.006336 5.162668,-2.159576 0.778077,0.328075 16.309524,10.53984 16.966091,11.155027 0.675339,0.632778 0.790736,1.619091 0.299655,2.561245 -0.22458,0.430869 -2.550673,3.611337 -5.169094,7.067711 -2.618421,3.456374 -4.82864,6.398675 -4.911597,6.538445 -0.118844,0.200239 0.819081,0.254128 4.423262,0.254128 h 4.574095 l 5.549342,-6.353194 c 3.052138,-3.494256 5.733595,-6.510677 5.958794,-6.703161 1.095325,-0.936199 1.627356,-0.990995 9.016776,-0.928699 l 6.980911,0.05886 0.490445,0.570417 c 0.533137,0.620069 0.635613,1.520927 0.254627,2.238353 -0.1297,0.244236 -2.27962,2.794485 -4.777601,5.66722 -2.49798,2.872735 -4.541782,5.274242 -4.541782,5.336681 0,0.06245 1.947447,0.113525 4.32766,0.113525 h 4.327659 l 5.772345,-6.621 c 3.17479,-3.641548 6.053227,-6.774943 6.396528,-6.963099 0.544085,-0.298198 1.522293,-0.349917 7.622496,-0.403006 7.620664,-0.06632 7.933396,-0.02837 8.480236,1.0291 0.601171,1.162536 0.347198,1.568567 -4.419361,7.065273 -2.471117,2.849646 -4.635106,5.341275 -4.808866,5.536953 -0.29984,0.337667 -0.08921,0.355094 4.137411,0.342305 l 4.453333,-0.01349 5.692456,-6.543019 c 4.440239,-5.103694 5.892009,-6.643645 6.599579,-7.00045 1.73487,-0.87485 3.80835,-0.425197 4.53251,0.982928 0.33605,0.65343 0.35401,2.274603 0.30496,27.530204 l -0.0521,26.835877 -0.6099,1.21979 c -0.3958,0.79159 -0.91638,1.44992 -1.4829,1.87534 -1.81889,1.3658 1.20551,1.27728 -43.128002,1.26227 -33.124581,-0.0112 -40.320315,-0.0616 -41.045733,-0.28811 z m 60.95542,-14.304043 c 1.877659,-0.977472 2.836831,-2.381122 2.997848,-4.387056 0.08658,-1.078545 0.02171,-1.46797 -0.396716,-2.381943 -0.579954,-1.266791 -1.436503,-2.191374 -2.535984,-2.737411 -0.74991,-0.372434 -1.632341,-0.385747 -25.579572,-0.385747 -23.331709,0 -24.841866,0.02133 -25.460376,0.359337 -4.248728,2.321957 -3.643634,8.586333 0.950019,9.835288 0.71742,0.195066 6.380068,0.243258 25.018614,0.212955 l 24.091308,-0.0392 z m -36.492742,-52.6039 c -5.167066,-2.702625 -15.510212,-8.310795 -15.79909,-8.566443 -0.19147,-0.169446 -0.447561,-0.609375 -0.569096,-0.977619 -0.288971,-0.875597 0.151419,-1.984324 0.95203,-2.396839 0.945246,-0.487034 11.722863,-4.593004 12.42421,-4.733272 0.356573,-0.07131 1.06061,-0.02585 1.564525,0.101039 1.106036,0.278501 16.81499,8.654681 17.48177,9.321462 0.870586,0.870588 0.697321,2.518117 -0.332988,3.166262 -0.260534,0.163896 -3.035304,1.284151 -6.166157,2.489456 -6.907328,2.659156 -7.373602,2.737034 -9.555204,1.595954 z M 74.371669,36.53136 c -0.419498,-0.102288 -4.480667,-2.177202 -9.024822,-4.610912 -8.538998,-4.573228 -9.015113,-4.894925 -9.017145,-6.092607 -10e-4,-0.649348 0.402281,-1.434407 0.906933,-1.76507 0.241133,-0.157995 2.994483,-1.271925 6.118559,-2.475398 6.910975,-2.662285 7.437663,-2.752664 9.604879,-1.648192 2.110205,1.075419 15.085573,8.056244 15.596449,8.390982 0.881317,0.577461 1.182631,2.041099 0.593382,2.882372 -0.174513,0.249148 -0.587366,0.592661 -0.917456,0.763354 -1.131948,0.585355 -11.674589,4.531789 -12.386496,4.636646 -0.391357,0.05765 -1.054783,0.02112 -1.474283,-0.08117 z m 25.463943,-9.887827 c -0.167724,-0.05959 -4.085039,-2.127487 -8.705136,-4.595349 -8.935708,-4.773077 -8.989881,-4.811 -8.975692,-6.283271 0.0073,-0.748877 0.259031,-1.156556 1.010046,-1.63524 0.62179,-0.396319 12.445777,-4.9327283 13.366414,-5.1281787 0.823045,-0.1747317 1.88605,0.16263 2.469565,0.7837539 0.500788,0.5330648 5.307641,12.8461428 5.445571,13.9491798 0.19902,1.591745 -1.44651,3.067174 -3.38321,3.033482 -0.50743,-0.0089 -1.05983,-0.06479 -1.227558,-0.124375 z"
       id="path249"
       inkscape:label="video" />
    <rect
       style="fill:#d9d9d9;fill-opacity:1;stroke:#d9d9d9;stroke-width:1.88305;stroke-linecap:round;paint-order:stroke fill markers"
       id="rect1098"
       width="74.952415"
       height="29.676962"
       x="26.508116"
       y="76.273697"
       ry="4.8522158" />
  </g>
</svg>
