<?xml version="1.0" encoding="UTF-8" standalone="no"?>
<!-- Created with Inkscape (http://www.inkscape.org/) -->

<svg
   width="469.08316"
   height="460.84781"
   viewBox="0 0 124.11158 121.93264"
   version="1.1"
   id="svg5"
   inkscape:version="1.2.1 (9c6d41e410, 2022-07-14)"
   sodipodi:docname="tool_clear_cache.svg"
   inkscape:export-filename="C:\Users\leo\Desktop\svgs\combobox.png"
   inkscape:export-xdpi="96"
   inkscape:export-ydpi="96"
   xml:space="preserve"
   xmlns:inkscape="http://www.inkscape.org/namespaces/inkscape"
   xmlns:sodipodi="http://sodipodi.sourceforge.net/DTD/sodipodi-0.dtd"
   xmlns="http://www.w3.org/2000/svg"
   xmlns:svg="http://www.w3.org/2000/svg"><sodipodi:namedview
     id="namedview7"
     pagecolor="#505050"
     bordercolor="#eeeeee"
     borderopacity="1"
     inkscape:pageshadow="0"
     inkscape:pageopacity="0"
     inkscape:pagecheckerboard="0"
     inkscape:document-units="mm"
     showgrid="false"
     inkscape:zoom="1"
     inkscape:cx="161.5"
     inkscape:cy="292"
     inkscape:window-width="1920"
     inkscape:window-height="1121"
     inkscape:window-x="-7"
     inkscape:window-y="-7"
     inkscape:window-maximized="1"
     inkscape:current-layer="svg5"
     fit-margin-top="50"
     fit-margin-left="50"
     fit-margin-right="50"
     fit-margin-bottom="50"
     lock-margins="true"
     units="px"
     showguides="false"
     inkscape:showpageshadow="0"
     inkscape:deskcolor="#505050" /><defs
     id="defs2"><rect
       x="-190"
       y="50"
       width="409"
       height="109"
       id="rect62070" /><rect
       x="-268"
       y="6"
       width="249"
       height="367"
       id="rect60744" /><filter
       style="color-interpolation-filters:sRGB"
       inkscape:label="Drop Shadow"
       id="filter41397"
       x="-0.4636397"
       y="-0.4636397"
       width="2.0236785"
       height="2.0043981"><feFlood
         flood-opacity="0.498039"
         flood-color="rgb(0,0,0)"
         result="flood"
         id="feFlood41387" /><feComposite
         in="flood"
         in2="SourceGraphic"
         operator="in"
         result="composite1"
         id="feComposite41389" /><feGaussianBlur
         in="composite1"
         stdDeviation="3"
         result="blur"
         id="feGaussianBlur41391" /><feOffset
         dx="1.49701"
         dy="1.1976"
         result="offset"
         id="feOffset41393" /><feComposite
         in="SourceGraphic"
         in2="offset"
         operator="over"
         result="composite2"
         id="feComposite41395" /></filter><filter
       style="color-interpolation-filters:sRGB"
       inkscape:label="Drop Shadow"
       id="filter48262"
       x="-0.11650321"
       y="-0.11797703"
       width="1.3759789"
       height="1.3795844"><feFlood
         flood-opacity="0.211765"
         flood-color="rgb(0,0,0)"
         result="flood"
         id="feFlood48252" /><feComposite
         in="flood"
         in2="SourceGraphic"
         operator="in"
         result="composite1"
         id="feComposite48254" /><feGaussianBlur
         in="composite1"
         stdDeviation="1"
         result="blur"
         id="feGaussianBlur48256" /><feOffset
         dx="0.7"
         dy="0.7"
         result="offset"
         id="feOffset48258" /><feComposite
         in="SourceGraphic"
         in2="offset"
         operator="over"
         result="composite2"
         id="feComposite48260" /></filter><rect
       x="-268"
       y="6"
       width="249"
       height="367"
       id="rect71674" /><rect
       x="-268"
       y="6"
       width="249"
       height="367"
       id="rect72688" /></defs><path
     style="fill:#ffffff;stroke-width:0.227376;fill-opacity:0.5"
     d="m 29.652723,47.809202 c -1.076125,-0.488872 -2.32324,-1.831025 -2.514893,-2.706542 -0.07478,-0.341612 -0.176735,-0.752577 -0.226565,-0.913252 -0.04983,-0.160675 0.0214,-0.814391 0.158297,-1.452705 0.468175,-2.183015 2.886658,-3.850117 5.00958,-3.453186 2.036611,0.380791 3.58943,1.995404 3.774846,3.925062 0.337893,3.516532 -3.051885,6.031354 -6.201265,4.600623 z"
     id="path6434" /><path
     style="fill:#ffffff;stroke-width:0.227376;fill-opacity:0.5"
     d="m 17.014208,61.574676 c -1.128212,-0.595041 -1.909879,-1.609039 -2.269288,-2.943784 -0.492843,-1.830281 0.623964,-4.194344 2.373691,-5.024645 0.889692,-0.422185 2.761995,-0.487217 3.710429,-0.128872 1.505325,0.56875 2.790175,2.499127 2.790175,4.191995 0,3.311695 -3.644655,5.466649 -6.605007,3.905306 z"
     id="path6432" /><path
     style="fill:#d9d9d9;stroke-width:0.227376;fill-opacity:1"
     d="M 87.863004,69.978295 C 87.362776,69.684852 79.637666,65.630458 70.696094,60.96853 61.754521,56.306602 54.25963,52.33671 54.040781,52.146546 c -0.21885,-0.190164 -0.397909,-0.481315 -0.397909,-0.647002 0,-0.509955 3.793457,-4.66924 5.521992,-6.054516 2.956206,-2.36915 6.650659,-3.811777 10.64878,-4.158185 l 1.732378,-0.150098 6.112104,-11.837069 c 6.974868,-13.507945 7.145566,-13.758209 10.46538,-15.343341 1.74479,-0.833096 1.846321,-0.852717 4.412503,-0.852717 2.587386,0 2.652984,0.01303 4.391448,0.872225 4.815003,2.379706 7.110933,7.713837 5.441463,12.642182 -0.42127,1.243612 -11.237566,22.035509 -12.168706,23.391604 l -0.673284,0.980556 0.796954,1.520584 c 1.552789,2.962708 1.859269,4.300295 1.859269,8.114493 v 3.410645 l -1.076201,3.05379 c -1.32163,3.750206 -1.501757,3.910602 -3.243948,2.888598 z"
     id="path6430" /><path
     style="fill:#ffffff;stroke-width:0.227376;fill-opacity:0.5"
     d="m 64.556934,104.72561 c -2.135248,-0.77476 -5.733423,-2.26611 -7.276041,-3.01573 -1.425204,-0.69256 -1.245815,-1.10891 1.758035,-4.080393 2.701712,-2.672595 5.906162,-6.676496 6.840172,-8.546668 1.010769,-2.023872 0.434739,-3.880745 -1.424087,-4.590639 -0.878432,-0.335475 -1.194074,-0.357783 -1.932415,-0.136571 -0.97332,0.291615 -1.412584,0.763407 -3.468172,3.72499 -1.673369,2.410905 -4.364125,5.3245 -6.728763,7.286018 -3.013732,2.499957 -2.728706,2.421228 -4.651227,1.284772 -2.693482,-1.592189 -8.763192,-5.673345 -8.875029,-5.967395 -0.249216,-0.655269 0.284088,-1.232105 1.5773,-1.706055 3.028441,-1.109894 6.594233,-3.716936 7.111012,-5.199045 0.291219,-0.835214 0.283702,-1.040608 -0.07219,-1.9725 -0.486808,-1.274683 -1.491625,-1.967835 -2.852652,-1.967835 -1.121028,0 -1.359505,0.113786 -3.271449,1.560931 -1.836552,1.390083 -4.115899,2.333213 -7.430293,3.074455 l -2.614827,0.584787 -0.723698,-0.51431 c -1.309233,-0.930428 -5.993513,-5.234757 -7.217923,-6.632464 -1.672281,-1.908965 -2.043698,-2.694795 -2.044776,-4.326247 -10e-4,-1.595818 0.491338,-2.768102 1.648881,-3.925645 1.001413,-1.001413 1.606885,-1.246327 4.915925,-1.988483 6.696932,-1.502 13.05652,-4.675505 18.364776,-9.164229 1.21054,-1.023648 2.313163,-1.861177 2.450271,-1.861177 0.397806,0 37.811169,19.572294 38.306092,20.039311 0.442841,0.417875 0.43332,0.456119 -0.996949,4.004406 -2.625594,6.51371 -6.590936,14.194656 -10.183798,19.726216 -1.899676,2.92474 -2.605193,3.66131 -4.273198,4.4613 -1.98766,0.9533 -4.011389,0.909 -6.934977,-0.1518 z"
     id="path6426" /></svg>
