<?xml version="1.0" encoding="UTF-8" standalone="no"?>
<!-- Created with Inkscape (http://www.inkscape.org/) -->

<svg
   width="500mm"
   height="500mm"
   viewBox="0 0 499.99999 500"
   version="1.1"
   id="svg1031"
   inkscape:version="1.2.1 (9c6d41e410, 2022-07-14)"
   sodipodi:docname="update_icon.svg"
   xml:space="preserve"
   xmlns:inkscape="http://www.inkscape.org/namespaces/inkscape"
   xmlns:sodipodi="http://sodipodi.sourceforge.net/DTD/sodipodi-0.dtd"
   xmlns="http://www.w3.org/2000/svg"
   xmlns:svg="http://www.w3.org/2000/svg"><sodipodi:namedview
     id="namedview1033"
     pagecolor="#505050"
     bordercolor="#eeeeee"
     borderopacity="1"
     inkscape:pageshadow="0"
     inkscape:pageopacity="0"
     inkscape:pagecheckerboard="0"
     inkscape:document-units="mm"
     showgrid="false"
     fit-margin-top="50"
     lock-margins="true"
     fit-margin-left="50"
     fit-margin-right="50"
     fit-margin-bottom="50"
     inkscape:zoom="0.36842108"
     inkscape:cx="289.07141"
     inkscape:cy="1023.2856"
     inkscape:window-width="1920"
     inkscape:window-height="1121"
     inkscape:window-x="-7"
     inkscape:window-y="-7"
     inkscape:window-maximized="1"
     inkscape:current-layer="svg1031"
     inkscape:showpageshadow="0"
     inkscape:deskcolor="#505050" /><defs
     id="defs1028" /><path
     style="fill:#d9d9d9;stroke-width:0.732831;fill-opacity:1"
     d="m 232.04564,436.8373 c -36.52914,-3.76335 -71.58995,-18.1121 -99.66499,-40.78821 -4.03057,-3.25547 -8.12778,-6.77934 -9.10492,-7.8308 -0.97713,-1.05147 -2.13415,-1.91176 -2.57115,-1.91176 -0.437,0 -8.04676,7.27703 -16.91058,16.17119 -8.863814,8.89415 -17.105349,16.69616 -18.31452,17.33778 -5.953293,3.15902 -12.621449,2.43443 -17.421436,-1.89307 -5.976779,-5.38846 -5.629035,-1.33992 -5.642554,-65.69253 -0.0073,-34.87971 0.266183,-58.1606 0.701673,-59.72571 0.997525,-3.58503 4.852496,-8.00016 8.38669,-9.60536 2.821798,-1.28163 6.134587,-1.35492 61.243217,-1.35492 55.10863,0 58.42142,0.0733 61.24321,1.35492 5.11057,2.32117 9.10038,8.4601 9.10038,14.00234 0,5.77326 -0.99059,7.07189 -19.91383,26.10641 l -18.30404,18.41169 5.23039,4.30607 c 30.10328,24.78339 67.95078,34.3188 105.69038,26.62796 29.97387,-6.10828 57.48957,-24.05695 75.59846,-49.31334 4.9829,-6.94964 8.07538,-12.89013 14.37023,-27.60445 2.539,-5.93496 5.34538,-11.35398 6.35688,-12.27492 1.80739,-1.64558 1.86344,-1.64887 28.07455,-1.64887 h 26.26355 l 2.27598,2.1261 c 3.19443,2.98404 3.20357,4.73716 0.0826,15.82826 -10.24193,36.39666 -30.15898,68.61578 -56.79945,91.88248 -29.18255,25.48685 -60.45387,39.80287 -97.10008,44.45246 -10.67567,1.35451 -34.25037,1.92436 -42.87061,1.03628 z M 69.804764,216.61202 C 66.42456,213.76777 66.288669,211.17535 69.014341,201.53305 81.02897,159.03023 104.08501,124.88999 138.39862,98.792274 181.54886,65.973724 240.65425,54.477715 295.43551,68.248575 c 28.03636,7.047755 53.7765,20.384472 76.72738,39.754705 3.70812,3.1296 7.00867,5.69019 7.33455,5.69019 0.32589,0 7.84474,-7.27704 16.70855,-16.171191 8.86382,-8.894153 17.10536,-16.696155 18.31453,-17.337783 5.95329,-3.159018 12.62145,-2.434434 17.42143,1.893071 5.97679,5.388462 5.62904,1.339914 5.64256,65.692533 0.007,34.87971 -0.26618,58.1606 -0.70167,59.72571 -0.99753,3.58502 -4.8525,8.00015 -8.3867,9.60535 -2.82179,1.28164 -6.13458,1.35493 -61.24321,1.35493 -55.10863,0 -58.42142,-0.0733 -61.24321,-1.35493 -5.11058,-2.32116 -9.10038,-8.4601 -9.10038,-14.00233 0,-5.77632 0.98523,-7.06651 20.0076,-26.20065 l 18.39782,-18.50593 -2.5349,-2.19594 c -12.7988,-11.08743 -26.73157,-19.28865 -41.5047,-24.43084 -20.4708,-7.12542 -44.93309,-8.62973 -67.04756,-4.12309 -29.99419,6.11243 -57.59049,24.13195 -75.71718,49.44095 -4.88717,6.8236 -7.99634,12.81013 -14.27267,27.48116 -2.53901,5.93496 -5.34538,11.35397 -6.35688,12.27491 -1.80937,1.64738 -1.83551,1.64887 -28.828658,1.64887 H 72.034563 Z"
     id="path2333"
     inkscape:label="update" /></svg>
