<?xml version="1.0" encoding="UTF-8" standalone="no"?>
<!-- Created with Inkscape (http://www.inkscape.org/) -->

<svg
   width="524.76526mm"
   height="497.06363mm"
   viewBox="0 0 524.76525 497.06363"
   version="1.1"
   id="svg1031"
   inkscape:version="1.1.1 (3bf5ae0d25, 2021-09-20)"
   sodipodi:docname="user_icon.svg"
   xmlns:inkscape="http://www.inkscape.org/namespaces/inkscape"
   xmlns:sodipodi="http://sodipodi.sourceforge.net/DTD/sodipodi-0.dtd"
   xmlns="http://www.w3.org/2000/svg"
   xmlns:svg="http://www.w3.org/2000/svg">
  <sodipodi:namedview
     id="namedview1033"
     pagecolor="#505050"
     bordercolor="#eeeeee"
     borderopacity="1"
     inkscape:pageshadow="0"
     inkscape:pageopacity="0"
     inkscape:pagecheckerboard="0"
     inkscape:document-units="mm"
     showgrid="false"
     fit-margin-top="50"
     lock-margins="true"
     fit-margin-left="50"
     fit-margin-right="50"
     fit-margin-bottom="50"
     inkscape:zoom="0.26051305"
     inkscape:cx="1322.3906"
     inkscape:cy="1395.3236"
     inkscape:window-width="1920"
     inkscape:window-height="1121"
     inkscape:window-x="-7"
     inkscape:window-y="-7"
     inkscape:window-maximized="1"
     inkscape:current-layer="svg1031" />
  <defs
     id="defs1028">
    <filter
       style="color-interpolation-filters:sRGB"
       inkscape:label="Drop Shadow"
       id="filter24645"
       x="-0.15275694"
       y="-0.15275694"
       width="1.3356634"
       height="1.30943">
      <feFlood
         flood-opacity="0.211765"
         flood-color="rgb(0,0,0)"
         result="flood"
         id="feFlood24635" />
      <feComposite
         in="flood"
         in2="SourceGraphic"
         operator="in"
         result="composite1"
         id="feComposite24637" />
      <feGaussianBlur
         in="composite1"
         stdDeviation="11.3772"
         result="blur"
         id="feGaussianBlur24639" />
      <feOffset
         dx="5.38922"
         dy="0.7"
         result="offset"
         id="feOffset24641" />
      <feComposite
         in="SourceGraphic"
         in2="offset"
         operator="over"
         result="composite2"
         id="feComposite24643" />
    </filter>
  </defs>
  <path
     style="fill:#d9d9d9;stroke-width:0.73241;fill-opacity:1"
     d="m 131.24881,419.86887 c -9.97955,-1.30989 -19.24846,-5.98878 -26.77679,-13.51674 -11.228257,-11.22773 -15.077311,-23.24427 -13.46598,-42.03996 1.771531,-20.6643 9.20465,-40.15466 21.62573,-56.7048 8.71451,-11.61141 24.34359,-24.93797 36.42885,-31.06204 l 3.63591,-1.84245 6.87357,7.33314 c 16.89305,18.02249 38.62274,31.56232 61.94927,38.60076 34.3272,10.35771 69.77408,7.54871 102.00345,-8.08331 16.41696,-7.96262 29.46833,-17.5318 41.67869,-30.55851 l 6.83508,-7.29208 3.63591,1.84245 c 13.78553,6.98566 31.06594,22.56146 39.98347,36.03934 10.63338,16.07123 16.18883,32.11722 18.08644,52.23969 1.70135,18.04132 -2.43599,30.53823 -13.85007,41.83428 -5.94023,5.87883 -11.13489,9.03567 -19.46642,11.82995 l -5.12687,1.71948 -130.00285,0.0958 c -71.50156,0.0528 -131.82289,-0.14305 -134.04739,-0.43503 z m 117.93436,-125.3063 c -35.38802,-4.406 -67.68462,-26.88547 -83.63291,-58.21118 -8.39684,-16.49312 -11.50147,-28.52884 -12.08568,-46.85259 -0.337,-10.56998 -0.16373,-13.81515 1.14699,-21.48088 5.12136,-29.95239 21.7366,-55.75294 46.89001,-72.811971 6.13737,-4.162353 19.33629,-10.666022 26.44168,-13.028928 26.86054,-8.932505 57.66902,-6.744512 82.91241,5.888374 31.74588,15.887015 53.28816,44.997515 59.29556,80.127265 2.07601,12.14003 1.60145,30.03319 -1.09928,41.44742 -5.26795,22.26423 -15.55791,40.28298 -31.86807,55.80421 -14.67094,13.96131 -33.26243,23.5406 -53.86742,27.75529 -8.53741,1.74631 -25.58661,2.42711 -34.13329,1.36299 z"
     id="path1539"
     inkscape:label="user_icon" />
</svg>
