<?xml version="1.0" encoding="UTF-8" standalone="no"?>
<!-- Created with Inkscape (http://www.inkscape.org/) -->

<svg
   width="500"
   height="500"
   viewBox="0 0 132.29167 132.29167"
   version="1.1"
   id="svg5"
   inkscape:version="1.2.1 (9c6d41e410, 2022-07-14)"
   sodipodi:docname="video_icon.svg"
   xml:space="preserve"
   xmlns:inkscape="http://www.inkscape.org/namespaces/inkscape"
   xmlns:sodipodi="http://sodipodi.sourceforge.net/DTD/sodipodi-0.dtd"
   xmlns="http://www.w3.org/2000/svg"
   xmlns:svg="http://www.w3.org/2000/svg"><sodipodi:namedview
     id="namedview7"
     pagecolor="#505050"
     bordercolor="#eeeeee"
     borderopacity="1"
     inkscape:pageshadow="0"
     inkscape:pageopacity="0"
     inkscape:pagecheckerboard="0"
     inkscape:document-units="mm"
     showgrid="false"
     units="px"
     inkscape:zoom="0.64052329"
     inkscape:cx="199.05599"
     inkscape:cy="259.1631"
     inkscape:window-width="1920"
     inkscape:window-height="1121"
     inkscape:window-x="-7"
     inkscape:window-y="-7"
     inkscape:window-maximized="1"
     inkscape:current-layer="svg5"
     inkscape:showpageshadow="0"
     inkscape:deskcolor="#505050" /><defs
     id="defs2" /><path
     style="fill:#d9d9d9;stroke-width:0.23548;fill-opacity:1"
     d="m 20.463798,126.04714 c -2.039232,-0.63639 -3.796525,-2.33827 -4.477572,-4.33639 -0.201263,-0.59048 -0.272828,-8.80371 -0.272828,-31.31094 V 59.889317 l -2.033685,-7.737018 c -1.874482,-7.13135 -2.012287,-7.808436 -1.760348,-8.64933 0.669241,-2.233726 3.65373,-3.482158 5.97978,-2.501378 0.901225,0.38 18.890882,12.208013 19.651366,12.920567 0.782227,0.73293 0.915888,1.875349 0.347083,2.966621 -0.260126,0.499064 -2.954376,4.182915 -5.987223,8.18634 -3.032846,4.003425 -5.592884,7.411412 -5.68897,7.573304 -0.137654,0.231932 0.948719,0.29435 5.123345,0.29435 h 5.298051 l 6.427653,-7.358734 c 3.53521,-4.047302 6.641069,-7.541141 6.901911,-7.76409 1.268686,-1.084375 1.884923,-1.147843 10.443889,-1.075688 l 8.085801,0.06818 0.568069,0.660698 c 0.617519,0.71821 0.736214,1.761649 0.294928,2.592625 -0.150228,0.282891 -2.640423,3.236776 -5.533767,6.564188 -2.893343,3.327411 -5.260624,6.109012 -5.260624,6.181334 0,0.07233 2.255676,0.131493 5.012613,0.131493 h 5.012611 l 6.685951,-7.668926 c 3.677274,-4.217907 7.01129,-7.847234 7.408927,-8.065171 0.630198,-0.345394 1.763231,-0.405299 8.828931,-0.466791 8.82681,-0.07682 9.18904,-0.03286 9.82243,1.191979 0.69632,1.346534 0.40215,1.816829 -5.118827,8.183516 -2.862229,3.300668 -5.368719,6.186655 -5.56998,6.413304 -0.347297,0.39111 -0.103334,0.411295 4.792251,0.396482 l 5.158176,-0.01562 6.59342,-7.578603 c 5.14301,-5.911472 6.82455,-7.695155 7.64411,-8.108433 2.00946,-1.013315 4.41111,-0.492494 5.24989,1.138499 0.38924,0.75685 0.41004,2.634612 0.35323,31.887494 l -0.0603,31.083281 -0.70643,1.41285 c -0.45845,0.91688 -1.06142,1.6794 -1.71761,2.17215 -2.10677,1.58197 1.39631,1.47944 -49.954003,1.46206 -38.36731,-0.013 -46.701935,-0.0714 -47.542167,-0.33371 z M 91.06682,109.47915 c 2.174841,-1.13218 3.285824,-2.75799 3.472326,-5.08141 0.100283,-1.24925 0.02515,-1.70031 -0.459505,-2.75894 -0.671745,-1.46729 -1.663863,-2.538208 -2.937362,-3.170676 -0.868601,-0.431379 -1.890697,-0.446791 -29.62813,-0.446791 -27.02449,0 -28.773664,0.02469 -29.490068,0.416206 -4.921187,2.689461 -4.220323,9.945321 1.100382,11.391951 0.830968,0.22594 7.38986,0.28176 28.978386,0.24666 l 27.904314,-0.0454 z M 48.798259,48.549467 C 42.813385,45.419089 30.833198,38.923296 30.498598,38.627186 30.276824,38.430922 29.9802,37.921364 29.83943,37.494836 c -0.334708,-1.01418 0.175384,-2.298388 1.10271,-2.776193 1.094854,-0.564119 13.578277,-5.319953 14.390628,-5.482422 0.413009,-0.0826 1.228477,-0.02994 1.812148,0.117031 1.281091,0.32258 19.47635,10.024484 20.248663,10.796798 1.008377,1.008379 0.807688,2.916667 -0.385691,3.667396 -0.301769,0.189837 -3.515711,1.487398 -7.142094,2.88347 -8.000572,3.080029 -8.540644,3.170233 -11.067535,1.848549 z M 80.410979,37.843471 C 79.925086,37.724994 75.221144,35.321676 69.957771,32.502776 60.06728,27.205729 59.515808,26.833116 59.513455,25.445873 c -0.0012,-0.752122 0.465951,-1.661435 1.050476,-2.044433 0.279298,-0.183001 3.468429,-1.473236 7.086962,-2.867187 8.004796,-3.083653 8.614845,-3.188337 11.125073,-1.909056 2.444194,1.245629 17.473213,9.33133 18.064947,9.719048 1.020805,0.668858 1.36981,2.36415 0.687298,3.338574 -0.202133,0.288582 -0.68033,0.686463 -1.062664,0.884173 -1.311105,0.678 -13.522362,5.249049 -14.346945,5.370502 -0.453299,0.06677 -1.221727,0.02446 -1.707623,-0.09402 z M 109.90518,26.390667 c -0.19427,-0.06902 -4.73159,-2.464211 -10.082925,-5.322669 -10.349991,-5.528527 -10.412738,-5.572452 -10.396303,-7.277743 0.0084,-0.867404 0.300029,-1.339608 1.169909,-1.894055 0.720203,-0.459045 14.415609,-5.7134462 15.481959,-5.9398308 0.95331,-0.2023871 2.18456,0.1883699 2.86043,0.9078006 0.58005,0.6174352 6.1477,14.8793412 6.30746,16.1569592 0.23052,1.843676 -1.67545,3.552625 -3.91868,3.513601 -0.58775,-0.01027 -1.22758,-0.07505 -1.42185,-0.144061 z"
     id="path249"
     inkscape:label="video" /></svg>
