<?xml version="1.0" encoding="UTF-8" standalone="no"?>
<!-- Created with Inkscape (http://www.inkscape.org/) -->

<svg
   width="545.90491mm"
   height="521.29297mm"
   viewBox="0 0 545.9049 521.29297"
   version="1.1"
   id="svg1031"
   inkscape:version="1.2.1 (9c6d41e410, 2022-07-14)"
   sodipodi:docname="videos_manager.svg"
   xml:space="preserve"
   xmlns:inkscape="http://www.inkscape.org/namespaces/inkscape"
   xmlns:sodipodi="http://sodipodi.sourceforge.net/DTD/sodipodi-0.dtd"
   xmlns="http://www.w3.org/2000/svg"
   xmlns:svg="http://www.w3.org/2000/svg"><sodipodi:namedview
     id="namedview1033"
     pagecolor="#505050"
     bordercolor="#eeeeee"
     borderopacity="1"
     inkscape:pageshadow="0"
     inkscape:pageopacity="0"
     inkscape:pagecheckerboard="0"
     inkscape:document-units="mm"
     showgrid="false"
     fit-margin-top="50"
     lock-margins="true"
     fit-margin-left="50"
     fit-margin-right="50"
     fit-margin-bottom="50"
     inkscape:zoom="0.26051305"
     inkscape:cx="704.3793"
     inkscape:cy="1009.5464"
     inkscape:window-width="1920"
     inkscape:window-height="1121"
     inkscape:window-x="-7"
     inkscape:window-y="-7"
     inkscape:window-maximized="1"
     inkscape:current-layer="svg1031"
     inkscape:showpageshadow="0"
     inkscape:deskcolor="#505050" /><defs
     id="defs1028"><rect
       x="537.4011"
       y="138.18885"
       width="360.82645"
       height="118.99596"
       id="rect27703" /><rect
       x="349.31072"
       y="103.64164"
       width="1358.8571"
       height="1301.2784"
       id="rect25365" /><filter
       style="color-interpolation-filters:sRGB"
       inkscape:label="Drop Shadow"
       id="filter24645"
       x="-0.15275694"
       y="-0.15275694"
       width="1.3356634"
       height="1.30943"><feFlood
         flood-opacity="0.211765"
         flood-color="rgb(0,0,0)"
         result="flood"
         id="feFlood24635" /><feComposite
         in="flood"
         in2="SourceGraphic"
         operator="in"
         result="composite1"
         id="feComposite24637" /><feGaussianBlur
         in="composite1"
         stdDeviation="11.3772"
         result="blur"
         id="feGaussianBlur24639" /><feOffset
         dx="5.38922"
         dy="0.7"
         result="offset"
         id="feOffset24641" /><feComposite
         in="SourceGraphic"
         in2="offset"
         operator="over"
         result="composite2"
         id="feComposite24643" /></filter><rect
       x="349.31072"
       y="103.64164"
       width="1358.8571"
       height="1301.2784"
       id="rect38893" /></defs><path
     id="path2287"
     style="fill:#d9d9d9;stroke-width:3.26316;stroke-linecap:round;paint-order:markers stroke fill"
     d="m 251.87476,442.44318 a 47.226521,47.226521 0 0 1 -47.22652,47.22652 47.226521,47.226521 0 0 1 -47.22652,-47.22652 47.226521,47.226521 0 0 1 47.22652,-47.22652 47.226521,47.226521 0 0 1 47.22652,47.22652 z M 96.741671,414.00571 H 449.16324 c 15.75436,0 28.43748,12.68312 28.43748,28.43748 0,15.75437 -12.68312,28.43749 -28.43748,28.43749 H 96.741671 c -15.754368,0 -28.437487,-12.68312 -28.437487,-28.43749 0,-15.75436 12.683119,-28.43748 28.437487,-28.43748 z M 91.626449,61.953324 c -26.14302,0 -47.189368,21.046348 -47.189368,47.189366 V 309.2943 c 0,26.14302 21.046348,47.18988 47.189368,47.18988 H 454.27821 c 26.14302,0 47.18989,-21.04686 47.18989,-47.18988 V 109.14269 c 0,-26.143018 -21.04687,-47.189366 -47.18989,-47.189366 z M 231.41326,139.20339 c 3.75098,0.0583 7.51347,0.94918 11.03034,2.72025 1.145,0.57662 4.98618,2.72911 8.53643,4.78368 3.55025,2.0546 22.23619,12.8355 41.52408,23.9572 19.28788,11.12169 36.15477,20.94793 37.48195,21.83639 9.32633,6.24332 13.38964,18.00296 10.12548,29.30364 -1.47142,5.09413 -5.76933,10.83802 -10.34666,13.82758 -0.88401,0.57737 -13.44297,7.87787 -27.90889,16.2233 -14.4659,8.34543 -33.62657,19.40077 -42.57931,24.56749 -8.95274,5.16673 -17.03797,9.73018 -17.96686,10.14098 -4.22257,1.86743 -10.50395,2.61607 -14.85181,1.77044 h -5.1e-4 c -11.86106,-2.30754 -20.34422,-11.57627 -21.47105,-23.45903 -0.41284,-4.35363 -0.40879,-97.57577 0.004,-101.93332 0.57254,-6.03759 2.78542,-10.97927 6.85488,-15.30604 5.28751,-5.62183 12.40685,-8.54394 19.56779,-8.43256 z"
     inkscape:label="videos_manager" /></svg>
