<?xml version="1.0" encoding="UTF-8" standalone="no"?>
<!-- Created with Inkscape (http://www.inkscape.org/) -->

<svg
   width="500mm"
   height="500mm"
   viewBox="0 0 499.99999 500"
   version="1.1"
   id="svg1031"
   inkscape:version="1.1.1 (3bf5ae0d25, 2021-09-20)"
   sodipodi:docname="wall_notification.svg"
   xmlns:inkscape="http://www.inkscape.org/namespaces/inkscape"
   xmlns:sodipodi="http://sodipodi.sourceforge.net/DTD/sodipodi-0.dtd"
   xmlns="http://www.w3.org/2000/svg"
   xmlns:svg="http://www.w3.org/2000/svg">
  <sodipodi:namedview
     id="namedview1033"
     pagecolor="#505050"
     bordercolor="#eeeeee"
     borderopacity="1"
     inkscape:pageshadow="0"
     inkscape:pageopacity="0"
     inkscape:pagecheckerboard="0"
     inkscape:document-units="mm"
     showgrid="false"
     fit-margin-top="50"
     lock-margins="true"
     fit-margin-left="50"
     fit-margin-right="50"
     fit-margin-bottom="50"
     inkscape:zoom="0.36842108"
     inkscape:cx="1429.0713"
     inkscape:cy="940.49993"
     inkscape:window-width="1920"
     inkscape:window-height="1121"
     inkscape:window-x="-7"
     inkscape:window-y="-7"
     inkscape:window-maximized="1"
     inkscape:current-layer="g7863" />
  <defs
     id="defs1028" />
  <g
     inkscape:groupmode="layer"
     id="g7863"
     inkscape:label="wall copy"
     style="display:inline">
    <path
       id="path7859"
       style="color:#000000;display:inline;fill:#d9d9d9;stroke-width:1.17206;stroke-linecap:round;stroke-linejoin:round;stroke-dashoffset:186.406;-inkscape-stroke:none;paint-order:markers fill stroke;fill-opacity:1"
       d="m 317.60547,231.07617 a 110.75677,110.75677 0 0 0 -110.74609,110.7461 v 972.48433 a 110.75677,110.75677 0 0 0 110.74609,110.7461 h 325.50976 l 193.27344,299.0977 a 110.75677,110.75677 0 0 0 186.03323,0 l 193.2695,-299.0977 h 364.9805 A 110.75677,110.75677 0 0 0 1691.418,1314.3066 V 850.23438 a 477.71421,477.71421 0 0 1 -221.4922,92.22851 v 261.09761 h -314.5254 a 110.75677,110.75677 0 0 0 -93.0176,50.6407 L 929.4043,1459.9941 796.42383,1254.2012 A 110.75677,110.75677 0 0 0 703.4082,1203.5605 H 428.35156 V 452.56836 h 497.85742 a 477.71421,477.71421 0 0 1 63.17188,-221.49219 z"
       transform="scale(0.26458333)" />
    <circle
       style="fill:#f0605b;fill-opacity:1;stroke:none;stroke-width:42.9529;stroke-linecap:round;stroke-linejoin:round;stroke-miterlimit:4;stroke-dasharray:none;stroke-dashoffset:186.406;stroke-opacity:1;paint-order:markers fill stroke"
       id="circle8069"
       cx="371.28601"
       cy="124.24076"
       r="91.92379" />
  </g>
</svg>
