<?xml version="1.0" encoding="UTF-8" standalone="no"?>
<!-- Created with Inkscape (http://www.inkscape.org/) -->

<svg
   width="500mm"
   height="500mm"
   viewBox="0 0 499.99999 500"
   version="1.1"
   id="svg1031"
   inkscape:version="1.1.1 (3bf5ae0d25, 2021-09-20)"
   sodipodi:docname="wall.svg"
   xmlns:inkscape="http://www.inkscape.org/namespaces/inkscape"
   xmlns:sodipodi="http://sodipodi.sourceforge.net/DTD/sodipodi-0.dtd"
   xmlns="http://www.w3.org/2000/svg"
   xmlns:svg="http://www.w3.org/2000/svg">
  <sodipodi:namedview
     id="namedview1033"
     pagecolor="#505050"
     bordercolor="#eeeeee"
     borderopacity="1"
     inkscape:pageshadow="0"
     inkscape:pageopacity="0"
     inkscape:pagecheckerboard="0"
     inkscape:document-units="mm"
     showgrid="false"
     fit-margin-top="50"
     lock-margins="true"
     fit-margin-left="50"
     fit-margin-right="50"
     fit-margin-bottom="50"
     inkscape:zoom="0.36842108"
     inkscape:cx="1429.0713"
     inkscape:cy="940.49993"
     inkscape:window-width="1920"
     inkscape:window-height="1121"
     inkscape:window-x="-7"
     inkscape:window-y="-7"
     inkscape:window-maximized="1"
     inkscape:current-layer="svg1031" />
  <defs
     id="defs1028" />
  <path
     style="color:#000000;display:inline;fill:#d9d9d9;stroke-width:0.310107;stroke-linecap:round;stroke-linejoin:round;stroke-dashoffset:186.406;-inkscape-stroke:none;paint-order:markers fill stroke;fill-opacity:1"
     d="M 84.032934,61.139153 A 29.304396,29.304396 0 0 0 54.731383,90.440706 V 347.74357 a 29.304396,29.304396 0 0 0 29.301551,29.30155 h 86.124576 l 51.1369,79.13626 a 29.304396,29.304396 0 0 0 49.22113,0 l 51.13629,-79.13626 h 96.56769 a 29.304396,29.304396 0 0 0 29.30156,-29.30155 V 90.440706 A 29.304396,29.304396 0 0 0 418.21952,61.139153 Z m 29.301556,58.603097 h 275.58347 v 198.69979 h -83.21852 a 29.304396,29.304396 0 0 0 -24.61056,13.39882 l -35.18391,54.44935 -35.18451,-54.44935 a 29.304396,29.304396 0 0 0 -24.61057,-13.39882 h -72.7754 z"
     id="rect1356"
     inkscape:label="wall" />
</svg>
