<?xml version="1.0" encoding="UTF-8" standalone="no"?>
<!-- Created with Inkscape (http://www.inkscape.org/) -->

<svg
   width="469.08316"
   height="460.84781"
   viewBox="0 0 124.11158 121.93264"
   version="1.1"
   id="svg5"
   inkscape:version="1.1.1 (3bf5ae0d25, 2021-09-20)"
   sodipodi:docname="whatsnew.svg"
   inkscape:export-filename="C:\Users\leo\Desktop\svgs\combobox.png"
   inkscape:export-xdpi="96"
   inkscape:export-ydpi="96"
   xmlns:inkscape="http://www.inkscape.org/namespaces/inkscape"
   xmlns:sodipodi="http://sodipodi.sourceforge.net/DTD/sodipodi-0.dtd"
   xmlns="http://www.w3.org/2000/svg"
   xmlns:svg="http://www.w3.org/2000/svg">
  <sodipodi:namedview
     id="namedview7"
     pagecolor="#505050"
     bordercolor="#eeeeee"
     borderopacity="1"
     inkscape:pageshadow="0"
     inkscape:pageopacity="0"
     inkscape:pagecheckerboard="0"
     inkscape:document-units="mm"
     showgrid="false"
     inkscape:zoom="0.728792"
     inkscape:cx="-133.09696"
     inkscape:cy="334.11453"
     inkscape:window-width="1920"
     inkscape:window-height="1121"
     inkscape:window-x="-7"
     inkscape:window-y="-7"
     inkscape:window-maximized="1"
     inkscape:current-layer="svg5"
     fit-margin-top="50"
     fit-margin-left="50"
     fit-margin-right="50"
     fit-margin-bottom="50"
     lock-margins="true"
     units="px"
     showguides="false" />
  <defs
     id="defs2">
    <filter
       style="color-interpolation-filters:sRGB"
       inkscape:label="Drop Shadow"
       id="filter41397"
       x="-0.4636397"
       y="-0.4636397"
       width="2.0236785"
       height="2.0043981">
      <feFlood
         flood-opacity="0.498039"
         flood-color="rgb(0,0,0)"
         result="flood"
         id="feFlood41387" />
      <feComposite
         in="flood"
         in2="SourceGraphic"
         operator="in"
         result="composite1"
         id="feComposite41389" />
      <feGaussianBlur
         in="composite1"
         stdDeviation="3"
         result="blur"
         id="feGaussianBlur41391" />
      <feOffset
         dx="1.49701"
         dy="1.1976"
         result="offset"
         id="feOffset41393" />
      <feComposite
         in="SourceGraphic"
         in2="offset"
         operator="over"
         result="composite2"
         id="feComposite41395" />
    </filter>
    <filter
       style="color-interpolation-filters:sRGB"
       inkscape:label="Drop Shadow"
       id="filter48262"
       x="-0.11650321"
       y="-0.11797703"
       width="1.3759789"
       height="1.3795844">
      <feFlood
         flood-opacity="0.211765"
         flood-color="rgb(0,0,0)"
         result="flood"
         id="feFlood48252" />
      <feComposite
         in="flood"
         in2="SourceGraphic"
         operator="in"
         result="composite1"
         id="feComposite48254" />
      <feGaussianBlur
         in="composite1"
         stdDeviation="1"
         result="blur"
         id="feGaussianBlur48256" />
      <feOffset
         dx="0.7"
         dy="0.7"
         result="offset"
         id="feOffset48258" />
      <feComposite
         in="SourceGraphic"
         in2="offset"
         operator="over"
         result="composite2"
         id="feComposite48260" />
    </filter>
  </defs>
  <path
     style="fill:#d9d9d9;fill-opacity:1;stroke-width:0.188004"
     d="m 66.476705,106.47141 c -2.888418,-0.90587 -5.460782,-1.72531 -5.716362,-1.82097 -0.378959,-0.14183 -1.542584,0.0635 -6.307506,1.11316 -5.694091,1.2543 -5.865998,1.28111 -6.753033,1.05441 -0.864235,-0.22089 -1.117017,-0.45848 -5.004475,-4.70342 l -4.094264,-4.470781 -5.763763,-1.828176 c -5.474542,-1.73644 -5.793548,-1.864717 -6.357325,-2.55639 -0.578026,-0.709152 -0.62697,-0.87977 -1.869975,-6.518479 l -1.276413,-5.790266 -4.064927,-4.474636 c -3.246368,-3.573573 -4.095145,-4.611816 -4.214989,-5.155866 -0.119844,-0.544049 0.214132,-1.84283 1.658507,-6.449685 l 1.808568,-5.768455 -1.274647,-5.790655 c -1.24128,-5.63909 -1.268552,-5.814481 -1.041996,-6.700868 0.220974,-0.864538 0.456555,-1.11498 4.694787,-4.99096 l 4.462143,-4.080748 1.836812,-5.777279 c 1.744034,-5.485462 1.873595,-5.80726 2.565025,-6.37084 0.709411,-0.578235 0.878206,-0.626602 6.536978,-1.873122 l 5.808765,-1.279561 3.909562,-3.576189 c 4.807535,-4.397591 4.983664,-4.543174 5.682732,-4.697165 0.698707,-0.153912 1.296178,0.0026 7.353057,1.926044 l 4.861186,1.543744 5.79321,-1.276134 c 5.642643,-1.242967 5.816868,-1.270081 6.703421,-1.043485 0.864165,0.220878 1.117018,0.458472 4.998189,4.696558 l 4.087977,4.463911 5.354376,1.695892 c 6.677241,2.114882 6.237723,1.93802 6.851342,2.757002 0.471336,0.629081 0.628398,1.195196 1.795426,6.471765 l 1.278867,5.782388 4.06493,4.474637 c 3.24636,3.573574 4.09515,4.611815 4.21499,5.155865 0.11984,0.54405 -0.21414,1.842831 -1.65851,6.449686 l -1.80857,5.768455 1.26911,5.784539 c 1.15766,5.278632 1.25339,5.858257 1.09001,6.627153 -0.21271,1.001007 0.11181,0.655842 -5.05878,5.380578 l -4.146228,3.788693 -1.833992,5.76841 c -1.741213,5.476587 -1.870831,5.798436 -2.562205,6.361971 -0.709287,0.57813 -0.87878,0.62673 -6.521422,1.869697 l -5.79321,1.276134 -3.762614,3.443398 c -4.740681,4.3385 -5.160768,4.68261 -5.921037,4.85008 -0.465107,0.10245 -1.94704,-0.27853 -5.873727,-1.51004 z M 37.846489,78.050819 c 1.048273,-1.005085 1.048093,-1.142821 -0.0084,-6.421758 l -0.956421,-4.778779 4.635863,4.440471 c 5.189537,4.970811 5.52324,5.195821 7.024652,4.736624 1.010619,-0.309095 1.595165,-0.862565 1.926731,-1.824314 0.201773,-0.585274 0.08052,-1.237624 -1.907845,-10.264104 -1.988362,-9.02648 -2.152431,-9.669398 -2.581444,-10.115722 -0.709005,-0.737608 -1.467027,-0.990858 -2.513578,-0.839769 -0.712182,0.102814 -1.070799,0.259582 -1.451417,0.634464 -1.045536,1.029784 -1.045325,1.155552 0.01083,6.432665 l 0.956421,4.778779 -4.635862,-4.440471 c -5.189538,-4.970811 -5.52324,-5.195822 -7.024652,-4.736624 -1.010619,0.309095 -1.595166,0.862565 -1.926731,1.824314 -0.200199,0.58071 -0.07513,1.27972 1.764992,9.864826 1.280307,5.973272 2.102909,9.475129 2.326835,9.905399 0.359734,0.691235 1.28574,1.404471 1.978285,1.523731 0.724085,0.124689 1.858636,-0.218153 2.381768,-0.719732 z m 29.42742,-6.44294 c 1.754145,-1.442944 1.082317,-4.272062 -1.140312,-4.801911 -0.742461,-0.176995 -1.214667,-0.117472 -4.086336,0.515102 l -3.24687,0.715224 -0.363996,-1.652418 -0.363996,-1.652418 1.843335,-0.406052 c 1.485113,-0.327142 1.968327,-0.508909 2.486525,-0.935347 0.722979,-0.594956 1.139433,-1.795786 0.938745,-2.706841 -0.200688,-0.911055 -1.083154,-1.825758 -1.989202,-2.06187 -0.649413,-0.169234 -1.164276,-0.131145 -2.64939,0.195997 l -1.843335,0.406052 -0.363996,-1.652418 -0.363996,-1.652419 3.24687,-0.715223 c 2.871668,-0.632574 3.325179,-0.776966 3.924552,-1.249545 1.794278,-1.414696 1.215203,-4.264246 -0.982867,-4.836593 -0.617387,-0.160755 -1.308741,-0.04825 -5.84104,0.950497 -4.806119,1.059081 -5.17449,1.165164 -5.658786,1.629486 -0.28491,0.27316 -0.622879,0.80209 -0.751044,1.175404 -0.224711,0.654531 -0.157254,1.022731 1.890286,10.317859 2.04754,9.295128 2.141033,9.657592 2.619964,10.157124 0.273159,0.28491 0.802089,0.622878 1.175404,0.751044 0.634567,0.217858 1.013414,0.159336 5.819696,-0.899005 4.532458,-0.998029 5.20709,-1.186446 5.699789,-1.591729 z m 11.767468,-2.539875 c 0.256092,-0.213119 0.585888,-0.636655 0.732884,-0.941192 0.146994,-0.304536 0.525723,-3.007939 0.841619,-6.007559 l 0.574355,-5.453855 2.849882,4.750287 c 1.800162,3.000575 3.03578,4.878239 3.354575,5.097663 0.848761,0.584196 1.610082,0.696734 2.583984,0.381959 0.709989,-0.229479 0.984784,-0.440933 1.383103,-1.06431 0.486319,-0.761105 0.503405,-0.995511 0.789534,-10.831669 0.263411,-9.055209 0.257963,-10.1157 -0.05484,-10.677672 -0.383789,-0.689494 -1.32935,-1.37579 -2.041074,-1.481429 -1.296887,-0.192489 -2.64739,0.633191 -3.073544,1.879125 -0.123175,0.360121 -0.2785,2.691168 -0.345166,5.180101 l -0.121209,4.525334 -2.524427,-4.203605 c -1.562421,-2.6017 -2.71617,-4.335585 -3.027588,-4.549936 -1.375809,-0.946976 -3.111137,-0.653798 -3.955941,0.668341 -0.419845,0.657069 -0.559484,1.444995 -1.006743,5.680606 l -0.519285,4.917726 -2.014126,-4.074252 c -1.107768,-2.240839 -2.207327,-4.291289 -2.443466,-4.556555 -0.736316,-0.827149 -1.740533,-1.107669 -2.802503,-0.782858 -1.202637,0.367832 -1.833639,1.077774 -2.010123,2.261582 l -0.138059,0.926074 4.416657,8.880747 c 2.522842,5.072778 4.616476,9.076117 4.882661,9.336375 0.937522,0.91665 2.656131,0.98175 3.668844,0.138972 z"
     id="path845"
     inkscape:label="new" />
</svg>
