<?xml version="1.0" encoding="UTF-8" standalone="no"?>
<!-- Created with Inkscape (http://www.inkscape.org/) -->

<svg
   width="500"
   height="500"
   viewBox="0 0 132.29167 132.29167"
   version="1.1"
   id="svg5"
   inkscape:version="1.1.1 (3bf5ae0d25, 2021-09-20)"
   sodipodi:docname="work_icon.svg"
   xmlns:inkscape="http://www.inkscape.org/namespaces/inkscape"
   xmlns:sodipodi="http://sodipodi.sourceforge.net/DTD/sodipodi-0.dtd"
   xmlns="http://www.w3.org/2000/svg"
   xmlns:svg="http://www.w3.org/2000/svg">
  <sodipodi:namedview
     id="namedview7"
     pagecolor="#505050"
     bordercolor="#eeeeee"
     borderopacity="1"
     inkscape:pageshadow="0"
     inkscape:pageopacity="0"
     inkscape:pagecheckerboard="0"
     inkscape:document-units="mm"
     showgrid="false"
     units="px"
     inkscape:zoom="0.64052329"
     inkscape:cx="384.84159"
     inkscape:cy="258.38249"
     inkscape:window-width="1920"
     inkscape:window-height="1121"
     inkscape:window-x="-7"
     inkscape:window-y="-7"
     inkscape:window-maximized="1"
     inkscape:current-layer="svg5" />
  <defs
     id="defs2" />
  <path
     style="fill:#d9d9d9;stroke-width:0.238766;fill-opacity:1"
     d="M 11.714995,121.63662 C 9.09511,120.92908 6.6928378,118.81131 5.6862534,116.32186 L 5.1410673,114.97352 5.0783374,78.812305 C 5.0219601,46.313132 5.0541509,42.516897 5.3962088,41.32601 6.3884397,37.871524 9.0807719,35.488262 12.688788,34.8706 c 0.868476,-0.148677 3.581914,-0.231288 6.30072,-0.191829 l 4.775324,0.06931 0.120002,28.532563 c 0.113177,26.909489 0.145046,28.607265 0.56023,29.845776 1.859942,5.548289 6.115419,9.6069 11.522985,10.98993 1.787086,0.45706 2.773233,0.47084 33.678088,0.47084 h 31.837093 v 4.25394 c 0,2.33967 -0.11705,4.88716 -0.26012,5.6611 -0.54965,2.97334 -2.196265,5.14061 -4.933488,6.49347 l -1.825091,0.90204 -40.72209,0.0457 c -35.26004,0.0396 -40.897176,-0.002 -42.027446,-0.30682 z M 38.396537,97.416959 c -3.723043,-0.627241 -6.617704,-3.53662 -7.347509,-7.384869 -0.346233,-1.825681 -0.328273,-70.356851 0.01893,-72.252254 0.331921,-1.811941 1.459141,-3.934026 2.6715,-5.029322 0.522335,-0.471897 1.661345,-1.195178 2.531137,-1.607292 l 1.581439,-0.749298 15.281038,-0.06625 15.281037,-0.06625 1.055791,0.543783 c 0.985479,0.507571 1.371698,1.060555 5.799495,8.303686 2.609039,4.267946 5.008401,8.161 5.331917,8.651231 l 0.588213,0.891329 19.757195,0.06374 19.75719,0.06374 1.36952,0.641844 c 2.44165,1.144321 4.32473,3.508491 4.94853,6.212797 0.14816,0.642308 0.23853,10.873034 0.24219,27.417837 0.006,29.056287 0.0571,28.001346 -1.45932,30.364515 -1.35745,2.115409 -3.47508,3.510981 -6.04974,3.986933 -1.66294,0.307409 -79.537482,0.320916 -81.358557,0.01411 z"
     id="path959"
     inkscape:label="work" />
</svg>
