<?xml version="1.0" encoding="UTF-8" standalone="no"?>
<!-- Created with Inkscape (http://www.inkscape.org/) -->

<svg
   width="500"
   height="500"
   viewBox="0 0 132.29167 132.29167"
   version="1.1"
   id="svg5"
   inkscape:version="1.2.1 (9c6d41e410, 2022-07-14)"
   sodipodi:docname="zoom_vertical_icon.svg"
   xml:space="preserve"
   xmlns:inkscape="http://www.inkscape.org/namespaces/inkscape"
   xmlns:sodipodi="http://sodipodi.sourceforge.net/DTD/sodipodi-0.dtd"
   xmlns="http://www.w3.org/2000/svg"
   xmlns:svg="http://www.w3.org/2000/svg"><path
     id="path256"
     style="fill:#d9d9d9;fill-opacity:1;stroke-width:0.188992"
     d="m 68.561001,122.93958 c -1.210068,0.63804 -2.72107,0.76362 -4.104081,0.34112 -0.679474,-0.20758 -1.207606,-0.70996 -10.204796,-9.70715 l -9.488241,-9.48824 -0.313118,-1.09123 c -0.172214,-0.60017 -0.265149,-1.44761 -0.20652,-1.88319 0.349515,-2.596709 2.85087,-4.586032 5.34441,-4.250404 1.589204,0.213907 1.821273,0.397862 6.926707,5.490684 l 4.747261,4.73552 0.0099,-15.024297 c 0.0075,-11.430304 0.0888,-15.233093 0.339757,-15.897161 0.429496,-1.136497 1.763088,-2.496384 2.845149,-2.90125 0.89954,-0.336573 2.661286,-0.296127 3.58279,0.08225 0.944685,0.387897 2.245567,1.777402 2.639196,2.818996 0.25096,0.664067 0.332233,4.466857 0.339758,15.897161 l 0.0099,15.024301 4.747049,-4.73574 c 5.105489,-5.092758 5.337543,-5.276728 6.92671,-5.490671 1.896184,-0.25523 3.962642,0.89504 4.874111,2.713117 0.519803,1.036834 0.60869,2.559164 0.217242,3.720674 -0.256429,0.76087 -0.619943,1.14619 -9.530669,10.10254 -5.095271,5.12129 -9.461497,9.41553 -9.702709,9.54277 z M 68.292528,58.915152 c -0.568385,0.293749 -1.290576,0.442578 -2.147607,0.442576 -2.170854,2e-6 -3.886795,-1.239838 -4.580517,-3.309617 -0.171643,-0.51211 -0.275337,-6.275026 -0.284741,-15.824813 l -0.01479,-15.019387 -4.748387,4.73664 c -5.106633,5.094047 -5.338592,5.277897 -6.927833,5.491807 -2.493541,0.33563 -4.994896,-1.65369 -5.344411,-4.250397 -0.05863,-0.43558 0.03431,-1.28302 0.206521,-1.8832 l 0.313118,-1.09123 9.488241,-9.48824 c 9.471835,-9.4718303 9.489665,-9.4886603 10.311765,-9.7338103 0.970806,-0.2895 2.270619,-0.2789 3.270861,0.0267 0.679471,0.20757 1.207604,0.70995 10.204795,9.7071403 l 9.488241,9.48824 0.313117,1.09123 c 0.172217,0.60018 0.265149,1.44762 0.20652,1.8832 -0.349514,2.596707 -2.85087,4.586027 -5.344407,4.250397 -1.589245,-0.21391 -1.82119,-0.39777 -6.927838,-5.491797 l -4.748174,-4.73687 -0.01479,15.019397 c -0.0098,9.903704 -0.110142,15.304178 -0.29473,15.855565 -0.382611,1.142905 -1.359713,2.285835 -2.424753,2.83626 z" /><sodipodi:namedview
     id="namedview7"
     pagecolor="#505050"
     bordercolor="#eeeeee"
     borderopacity="1"
     inkscape:pageshadow="0"
     inkscape:pageopacity="0"
     inkscape:pagecheckerboard="0"
     inkscape:document-units="mm"
     showgrid="false"
     units="px"
     inkscape:zoom="0.56057251"
     inkscape:cx="227.44604"
     inkscape:cy="142.71124"
     inkscape:window-width="1920"
     inkscape:window-height="1121"
     inkscape:window-x="-7"
     inkscape:window-y="-7"
     inkscape:window-maximized="1"
     inkscape:current-layer="svg5"
     inkscape:showpageshadow="0"
     inkscape:deskcolor="#505050" /><defs
     id="defs2" /></svg>
