<?xml version="1.0" encoding="UTF-8" standalone="no"?>
<!-- Created with Inkscape (http://www.inkscape.org/) -->

<svg
   width="500"
   height="500"
   viewBox="0 0 132.29167 132.29167"
   version="1.1"
   id="svg5"
   inkscape:version="1.2.1 (9c6d41e410, 2022-07-14)"
   sodipodi:docname="zoom_horizontal_icon.svg"
   xml:space="preserve"
   xmlns:inkscape="http://www.inkscape.org/namespaces/inkscape"
   xmlns:sodipodi="http://sodipodi.sourceforge.net/DTD/sodipodi-0.dtd"
   xmlns="http://www.w3.org/2000/svg"
   xmlns:svg="http://www.w3.org/2000/svg"><path
     id="path256"
     style="fill:#d9d9d9;fill-opacity:1;stroke-width:0.188992"
     d="m 9.3574965,68.566418 c -0.638034,-1.210068 -0.763615,-2.72107 -0.341114,-4.104081 0.207577,-0.679474 0.709955,-1.207606 9.7071455,-10.204796 l 9.488241,-9.488241 1.091229,-0.313118 c 0.600176,-0.172214 1.447616,-0.265149 1.883197,-0.20652 2.596705,0.349515 4.586028,2.85087 4.2504,5.34441 -0.213907,1.589204 -0.397862,1.821273 -5.49068,6.926707 l -4.735523,4.747261 15.024296,0.0099 c 11.430304,0.0075 15.233093,0.0888 15.897161,0.339757 1.136497,0.429496 2.496384,1.763088 2.90125,2.845149 0.336573,0.89954 0.296127,2.661286 -0.08225,3.58279 -0.387897,0.944685 -1.777402,2.245567 -2.818996,2.639196 -0.664067,0.25096 -4.466857,0.332233 -15.897161,0.339758 l -15.0243,0.0099 4.735735,4.747049 c 5.092762,5.105489 5.276732,5.337543 5.490675,6.92671 0.25523,1.896184 -0.89504,3.962642 -2.713117,4.874111 -1.036835,0.519803 -2.559162,0.60869 -3.720677,0.217242 C 28.242144,87.543173 27.856822,87.179659 18.900474,78.268933 13.779182,73.173662 9.4849385,68.807436 9.3576975,68.566224 Z M 73.381929,68.297945 c -0.293749,-0.568385 -0.442578,-1.290576 -0.442576,-2.147607 -2e-6,-2.170854 1.239838,-3.886795 3.309617,-4.580517 0.51211,-0.171643 6.275026,-0.275337 15.824813,-0.284741 l 15.019387,-0.01479 -4.73664,-4.748387 c -5.094047,-5.106633 -5.277897,-5.338592 -5.491807,-6.927833 -0.33563,-2.493541 1.65369,-4.994896 4.250397,-5.344411 0.43558,-0.05863 1.28302,0.03431 1.8832,0.206521 l 1.09123,0.313118 9.48824,9.488241 c 9.47183,9.471835 9.48866,9.489665 9.73381,10.311765 0.2895,0.970806 0.2789,2.270619 -0.0267,3.270861 -0.20757,0.679471 -0.70995,1.207604 -9.70714,10.204795 l -9.48824,9.488241 -1.09123,0.313117 c -0.60018,0.172217 -1.44762,0.265149 -1.8832,0.20652 -2.596707,-0.349514 -4.586027,-2.85087 -4.250397,-5.344407 0.21391,-1.589245 0.39777,-1.82119 5.491797,-6.927838 l 4.73687,-4.748174 -15.019397,-0.01479 c -9.903704,-0.0098 -15.304178,-0.110142 -15.855565,-0.29473 -1.142905,-0.382611 -2.285835,-1.359713 -2.83626,-2.424753 z" /><sodipodi:namedview
     id="namedview7"
     pagecolor="#505050"
     bordercolor="#eeeeee"
     borderopacity="1"
     inkscape:pageshadow="0"
     inkscape:pageopacity="0"
     inkscape:pagecheckerboard="0"
     inkscape:document-units="mm"
     showgrid="false"
     units="px"
     inkscape:zoom="0.56057251"
     inkscape:cx="227.44604"
     inkscape:cy="142.71124"
     inkscape:window-width="1920"
     inkscape:window-height="1121"
     inkscape:window-x="-7"
     inkscape:window-y="-7"
     inkscape:window-maximized="1"
     inkscape:current-layer="svg5"
     inkscape:showpageshadow="0"
     inkscape:deskcolor="#505050" /><defs
     id="defs2" /></svg>
