<?xml version="1.0" encoding="UTF-8" standalone="no"?>
<!-- Created with Inkscape (http://www.inkscape.org/) -->

<svg
   width="500"
   height="500"
   viewBox="0 0 132.29167 132.29167"
   version="1.1"
   id="svg5"
   inkscape:version="1.2.1 (9c6d41e410, 2022-07-14)"
   sodipodi:docname="zoom_icon.svg"
   xml:space="preserve"
   xmlns:inkscape="http://www.inkscape.org/namespaces/inkscape"
   xmlns:sodipodi="http://sodipodi.sourceforge.net/DTD/sodipodi-0.dtd"
   xmlns="http://www.w3.org/2000/svg"
   xmlns:svg="http://www.w3.org/2000/svg"><sodipodi:namedview
     id="namedview7"
     pagecolor="#505050"
     bordercolor="#eeeeee"
     borderopacity="1"
     inkscape:pageshadow="0"
     inkscape:pageopacity="0"
     inkscape:pagecheckerboard="0"
     inkscape:document-units="mm"
     showgrid="false"
     units="px"
     inkscape:zoom="0.56057251"
     inkscape:cx="227.44604"
     inkscape:cy="142.71124"
     inkscape:window-width="1920"
     inkscape:window-height="1121"
     inkscape:window-x="-7"
     inkscape:window-y="-7"
     inkscape:window-maximized="1"
     inkscape:current-layer="svg5"
     inkscape:showpageshadow="0"
     inkscape:deskcolor="#505050" /><defs
     id="defs2" /><path
     style="fill:#d9d9d9;stroke-width:0.188992;fill-opacity:1"
     d="m 21.353616,114.35361 c -1.306805,-0.40449 -2.464044,-1.38413 -3.143227,-2.66082 -0.333682,-0.62724 -0.351893,-1.35592 -0.351893,-14.079868 V 84.194523 l 0.550208,-0.993024 c 0.302615,-0.546162 0.83613,-1.211107 1.185589,-1.477653 2.083292,-1.589003 5.258681,-1.226942 6.784556,0.773582 0.972482,1.274992 1.006503,1.569165 1.015424,8.780418 l 0.0083,6.705341 10.630774,-10.616789 c 8.087766,-8.077125 10.834213,-10.708634 11.481235,-11.000745 1.107324,-0.499926 3.011902,-0.518519 4.063318,-0.03967 0.874063,0.398078 2.091207,1.67242 2.475254,2.591576 0.393709,0.942278 0.331042,2.844669 -0.127138,3.859525 -0.292111,0.647022 -2.92362,3.393469 -11.000745,11.481235 l -10.616788,10.630781 6.70534,0.008 c 7.211253,0.009 7.505426,0.043 8.780418,1.01543 1.521279,1.16033 2.169122,3.4349 1.528053,5.36498 -0.365597,1.10071 -1.379192,2.24001 -2.477303,2.78453 -0.719321,0.3567 -1.248828,0.37212 -13.882757,0.40438 -7.224201,0.0184 -13.348077,-0.0325 -13.608613,-0.11309 z M 79.118224,56.209323 c -0.609621,-0.194197 -1.225525,-0.599625 -1.831536,-1.205638 -1.535027,-1.535025 -1.871681,-3.625077 -0.898662,-5.579168 0.240747,-0.483486 4.242421,-4.631806 10.988491,-11.391175 l 10.609856,-10.630774 -6.706933,-0.0083 c -7.21297,-0.0089 -7.50699,-0.04292 -8.782012,-1.015424 -2.000524,-1.525875 -2.362585,-4.701264 -0.773582,-6.784556 0.266546,-0.349459 0.931491,-0.882974 1.477653,-1.185589 l 0.993024,-0.550208 h 13.418399 c 13.395198,0 13.419708,7.06e-4 14.174368,0.40867 0.89117,0.481758 1.80278,1.40836 2.29399,2.331707 0.33368,0.627237 0.35189,1.35592 0.35189,14.079869 v 13.418399 l -0.55021,0.993024 c -0.30261,0.546162 -0.83613,1.211107 -1.18559,1.477653 -2.08329,1.589003 -5.25868,1.226942 -6.78455,-0.773582 -0.97251,-1.275022 -1.00651,-1.569042 -1.01543,-8.782012 l -0.008,-6.706933 -10.630778,10.609856 c -7.009892,6.996102 -10.899587,10.74383 -11.42,11.003197 -1.078703,0.537609 -2.577792,0.654867 -3.720098,0.290979 z"
     id="path256" /></svg>
