<?xml version="1.0" encoding="UTF-8" standalone="no"?>
<!-- Created with Inkscape (http://www.inkscape.org/) -->

<svg
   width="533.33331"
   height="533.33331"
   viewBox="0 0 141.1111 141.11111"
   version="1.1"
   id="svg1369"
   inkscape:version="1.1.1 (3bf5ae0d25, 2021-09-20)"
   sodipodi:docname="software_icons.svg"
   xmlns:inkscape="http://www.inkscape.org/namespaces/inkscape"
   xmlns:sodipodi="http://sodipodi.sourceforge.net/DTD/sodipodi-0.dtd"
   xmlns="http://www.w3.org/2000/svg"
   xmlns:svg="http://www.w3.org/2000/svg">
  <sodipodi:namedview
     id="namedview1371"
     pagecolor="#505050"
     bordercolor="#eeeeee"
     borderopacity="1"
     inkscape:pageshadow="0"
     inkscape:pageopacity="0"
     inkscape:pagecheckerboard="0"
     inkscape:document-units="mm"
     showgrid="false"
     units="px"
     fit-margin-top="0"
     fit-margin-left="0"
     fit-margin-right="0"
     fit-margin-bottom="0"
     inkscape:zoom="0.64052329"
     inkscape:cx="216.22945"
     inkscape:cy="306.78041"
     inkscape:window-width="1920"
     inkscape:window-height="1141"
     inkscape:window-x="-7"
     inkscape:window-y="-7"
     inkscape:window-maximized="1"
     inkscape:current-layer="layer1" />
  <defs
     id="defs1366" />
  <g
     inkscape:label="Layer 1"
     inkscape:groupmode="layer"
     id="layer1"
     transform="translate(-1.2596387,177.532)">
    <path
       style="display:none;fill:#e6e6e6;stroke-width:0.352778"
       d="M 13.791588,-2.8433428 C 5.757339,-4.0462408 -2.5826199,-8.2646901 -8.1475054,-13.940394 c -2.9240656,-2.982295 -3.0644886,-3.141641 -4.2229046,-4.791932 -3.805029,-5.420684 -5.887473,-11.550123 -5.700677,-16.779309 0.07138,-1.998341 -0.02021,-3.153956 -0.249978,-3.153445 -0.31253,7.06e-4 -4.183369,3.002996 -5.913885,4.586922 -0.683599,0.625694 -0.932766,0.829236 -3.25918,2.66241 -2.023999,1.594877 -2.770738,2.216909 -3.622188,3.017263 -0.330232,0.310416 -3.018383,2.486307 -5.973666,4.835313 -5.544197,4.406804 -6.876921,5.101526 -9.796201,5.106563 -3.138298,0.0054 -5.748715,-2.218351 -6.082735,-5.181769 -0.133957,-1.188462 0.03584,-1.990495 0.727693,-3.437332 1.365989,-2.856611 0.664115,-2.223576 12.234208,-11.034292 2.037291,-1.551414 4.974166,-3.774309 6.526388,-4.93977 1.552222,-1.165465 3.774722,-2.890601 4.938889,-3.833643 1.164166,-0.943042 2.396292,-1.940147 2.738059,-2.215794 0.341768,-0.275642 0.743049,-0.50117 0.891738,-0.50117 0.148689,0 0.520852,-0.277812 0.827031,-0.617361 0.306176,-0.339548 1.000351,-0.934861 1.542612,-1.322916 0.542262,-0.388056 2.214954,-1.658056 3.717092,-2.822222 1.502142,-1.164167 4.493743,-3.466042 6.648005,-5.115278 2.154259,-1.649236 3.9175903,-3.117673 3.9185111,-3.263194 0.00106,-0.145521 -5.4719891,-0.264583 -12.1620201,-0.264583 -13.594011,0 -14.357123,-0.110931 -15.698976,-2.282095 -0.883681,-1.429826 -0.902742,-2.656861 -0.06554,-4.218901 0.8144,-1.519491 2.277986,-2.734532 4.201946,-3.488372 1.341709,-0.525702 3.936008,-0.587964 24.9590255,-0.599002 12.9039221,-0.0068 23.4616785,-0.139683 23.4616785,-0.295349 0,-0.155671 -1.230313,-1.261756 -2.734028,-2.457965 -1.503715,-1.196213 -3.051527,-2.465585 -3.439583,-2.820825 -0.3880554,-0.35524 -2.6667316,-2.215159 -5.0637223,-4.133152 -2.3969943,-1.917994 -4.51326215,-3.890791 -4.70282022,-4.383994 -1.11581486,-2.903179 1.92784922,-6.012009 5.88598742,-6.012009 1.4668922,0 3.8131001,0.826082 4.6905721,1.651514 0.375094,0.352847 2.465539,1.990916 4.645437,3.640152 6.100603,4.615509 11.039541,8.410038 11.948819,9.180138 0.453044,0.383702 0.906826,0.697639 1.008404,0.697639 0.101576,0 1.431932,1.031875 2.956348,2.293055 1.524417,1.261181 2.935951,2.293056 3.136738,2.293056 0.200787,0 0.365068,0.126703 0.365068,0.281558 0,0.154859 1.211305,1.147047 2.69179,2.204861 1.480485,1.057819 2.944516,2.201115 3.253401,2.540663 0.308885,0.339549 0.764455,0.617361 1.012377,0.617361 0.247922,0 0.450765,0.132363 0.450765,0.29414 0,0.161776 0.874977,0.896761 1.944395,1.633297 1.069421,0.736536 2.934733,2.314875 4.145138,3.507419 5.644035,5.560737 8.455706,10.254505 10.206076,17.037895 1.0604,4.10949 1.132889,10.992019 0.157155,14.921691 -1.90458,7.670521 -6.19096,14.490741 -12.038276,19.154551 -2.708186,2.1600443 -3.089991,2.449629 -3.913205,2.9680323 -8.488887,5.3457118 -18.980674,7.475163 -29.252668,5.9372319 z M 28.760872,-20.158934 c 2.863183,-1.000337 4.895846,-1.969509 6.539335,-3.117949 2.214658,-1.547565 6.037093,-5.770957 7.147567,-7.897318 1.404351,-2.689087 2.564644,-6.994002 2.564644,-9.51534 0,-3.68234 -1.629843,-8.957951 -3.677704,-11.904302 -0.997715,-1.435456 -4.99522,-5.473202 -5.418656,-5.473202 -0.188235,0 -0.526866,-0.222451 -0.75251,-0.494337 -0.477097,-0.574869 -3.316354,-2.019049 -5.849739,-2.975458 -0.970139,-0.36625 -3.311702,-0.874881 -5.203472,-1.130296 -2.851009,-0.384923 -4.028158,-0.384196 -6.879166,0.0042 -4.39983,0.599454 -9.8093913,2.602802 -11.0434714,4.089777 -0.2310024,0.278342 -0.5726536,0.506074 -0.7592236,0.506074 -0.6031406,0 -4.1983798,3.652717 -5.3820091,5.468055 -1.7504726,2.684706 -2.2193213,3.669221 -2.9997045,6.298967 -1.7649435,5.947494 -0.306779,13.068225 3.69204848,18.029578 1.82636212,2.265969 4.46452592,4.771132 5.02708292,4.773648 0.2425347,0.0011 0.4409722,0.131554 0.4409722,0.289934 0,0.321694 3.5571886,2.149901 5.997222,3.082251 3.902544,1.491181 12.239924,1.473898 16.556784,-0.03433 z m -9.32484,-7.813149 c -1.461343,-0.200723 -4.751049,-1.341441 -6.504915,-2.255608 -1.963318,-1.023338 -4.8340078,-4.292257 -5.8597973,-6.672689 -1.118496,-2.595559 -1.1928721,-6.762668 -0.1588982,-8.902748 0.3880555,-0.80318 0.7055555,-1.602232 0.7055555,-1.775668 0,-0.703792 2.735555,-3.585976 4.569442,-4.814376 4.281353,-2.86779 9.256451,-3.572196 13.86291,-1.962795 5.566519,1.944828 8.725492,5.418758 9.86423,10.847721 1.013361,4.831225 -1.761472,10.410292 -6.595699,13.261286 -2.58234,1.522942 -7.356488,2.621876 -9.882828,2.274877 z"
       id="path2272" />
    <path
       style="display:none;fill:#e6e6e6;stroke-width:0.352778"
       d="m -34.155332,4.5428614 c 0.370172,-0.9216318 2.199084,-5.8031939 4.06425,-10.8479158 1.865164,-5.0447216 4.35007,-11.7122216 5.522012,-14.8166656 1.171946,-3.104444 2.571415,-6.835069 3.109937,-8.290277 0.538519,-1.455208 1.146471,-3.070112 1.351005,-3.588678 0.339033,-0.859564 0.25672,-1.030086 -0.93193,-1.930608 -0.717094,-0.54327 -8.826248,-6.984928 -18.020344,-14.314793 L -55.77694,-62.573105 h 22.210518 22.210516 l 3.229345,-8.025694 c 1.7761372,-4.414132 4.2072875,-10.406944 5.4025514,-13.31736 1.1952639,-2.910417 2.60616678,-6.402917 3.13533341,-7.761111 2.47800969,-6.360189 3.71768479,-9.34633 3.87953219,-9.34503 0.097014,7.7e-4 1.7835667,4.008722 3.7478967,8.906552 1.9643263,4.897829 5.4455553,13.547399 7.7360593,19.221265 l 4.164556,10.316121 21.96547,0.09082 21.96547,0.09082 -16.236786,13.052777 c -8.93023,7.179027 -16.920477,13.589969 -17.756101,14.246542 l -1.519315,1.193764 0.653411,1.628458 c 0.359375,0.895649 2.179454,5.755957 4.044618,10.800678 1.865164,5.044722 4.353161,11.7122217 5.528885,14.8166659 1.175723,3.1044442 2.495038,6.67808984 2.931816,7.9414399 0.436777,1.2633465 1.042137,2.8905339 1.345243,3.6159719 0.303107,0.7254345 0.492185,1.3189761 0.420169,1.3189761 -0.16347,0 -1.656334,-0.9365368 -21.931092,-13.7583323 C 12.300237,-13.263595 4.7000782,-17.994112 4.4619144,-18.052038 c -0.3816032,-0.09281 -10.940714,6.464818 -32.3322814,20.0796294 -3.62166,2.3050286 -6.6688,4.1909644 -6.771422,4.1909644 -0.102621,0 0.116284,-0.7540625 0.486457,-1.6756944 z"
       id="path2561" />
    <path
       style="display:none;fill:#e6e6e6;stroke-width:0.352778"
       d="m 69.352146,-77.7811 v -8.496218 l 1.836388,2.745626 c 3.586659,5.362501 8.932535,10.181946 14.266402,12.861526 l 2.757498,1.385288 H 78.78229 69.352146 Z m 60.677774,8.353354 c 0,-0.07858 0.75406,-0.575861 1.67569,-1.105073 7.09854,-4.076086 13.99091,-11.415197 17.74402,-18.894134 3.44024,-6.855492 4.75788,-12.791697 4.45586,-20.074587 -0.26926,-6.49303 -1.30695,-10.40992 -4.27735,-16.14545 -4.35935,-8.41742 -12.56706,-16.29678 -21.82433,-20.95124 -18.19614,-9.14884 -37.366184,-8.17779 -55.541248,2.8134 l -2.910416,1.76005 v -15.1356 -15.1356 h 51.505554 51.50555 v 51.50555 51.505552 h -21.16667 c -11.64166,0 -21.16666,-0.06429 -21.16666,-0.142868 z m -25.58626,-6.197141 c -11.53327,-1.642558 -19.716777,-7.87068 -23.274675,-17.713377 -2.578757,-7.133966 -1.023658,-14.011116 4.373838,-19.342526 4.418309,-4.36422 10.473895,-6.88663 17.536507,-7.30472 4.03811,-0.23905 6.12421,0.38199 8.5207,2.53664 2.46921,2.22004 3.68963,4.66453 3.89037,7.79239 0.15088,2.35117 0.0773,2.69887 -0.99812,4.71657 -2.92519,5.488226 -8.82558,8.225143 -12.12947,5.626304 -1.21146,-0.952934 -2.27686,-3.079254 -2.553255,-5.095774 -0.275901,-2.01289 -1.091481,-3.06369 -2.377895,-3.06369 -4.108355,0 -7.503576,9.364348 -5.172484,14.266198 0.952606,2.003146 3.538647,4.496163 5.910894,5.698275 5.51263,2.79346 13.71562,2.766603 18.96508,-0.06209 8.6634,-4.668315 14.0543,-17.700583 11.48214,-27.757613 -2.07002,-8.0937 -8.01527,-13.51465 -18.24271,-16.63392 -2.83357,-0.86421 -3.62728,-0.94742 -9.27244,-0.97208 -5.52093,-0.0241 -6.453325,0.06 -8.819441,0.79576 -7.309394,2.27285 -15.757634,8.74601 -20.959534,16.05949 l -1.971019,2.7711 v -7.56392 -7.56392 l 2.381249,-2.2751 c 5.892218,-5.62956 13.307738,-9.43839 21.960514,-11.27954 5.571666,-1.18555 13.650101,-1.1154 18.495551,0.16061 12.5141,3.2955 21.91132,12.79199 25.24217,25.50881 2.84199,10.85041 0.78722,22.739114 -5.34542,30.928063 -3.04134,4.061106 -8.63432,7.538186 -14.5799,9.064119 -3.20792,0.823313 -9.74931,1.175826 -13.06265,0.703944 z"
       id="path2715" />
    <path
       style="display:none;fill:#e6e6e6;stroke-width:0.352778"
       d="M 1.3290153,-28.696379 C -18.620238,-31.806436 -35.139681,-44.436352 -43.333596,-62.84312 c -3.259509,-7.322142 -4.797567,-14.823414 -4.786742,-23.345449 0.02593,-20.413691 10.249115,-38.629821 27.763978,-49.471101 10.9289665,-6.76476 24.6091726,-9.71114 37.302959,-8.03413 19.602184,2.5897 36.05788,14.34148 44.798192,31.99249 6.363257,12.850553 7.680631,28.290665 3.576415,41.916906 -2.901117,9.631881 -7.110208,16.818835 -14.019991,23.93892 -9.209553,9.489845 -20.291455,15.208746 -33.258401,17.163258 -4.22438,0.636743 -12.5840765,0.629663 -16.7137987,-0.01415 z m 18.5460697,-6.526974 c 16.146059,-3.374682 29.058624,-13.33925 36.490505,-28.159553 1.779132,-3.547861 3.280328,-8.026441 4.313925,-12.869903 1.023211,-4.794804 1.105919,-14.355165 0.165199,-19.095183 -2.938928,-14.808388 -11.414992,-27.220648 -23.834561,-34.903088 -5.762427,-3.56449 -11.664611,-5.78672 -18.898957,-7.11564 -4.085985,-0.75057 -12.628318,-0.75671 -16.7616879,-0.012 -25.4383871,4.58301 -43.3780661,25.73244 -43.3855761,51.148094 -0.0042,14.260713 5.139658,26.609317 15.310278,36.754535 8.530218,8.508911 18.6292082,13.473584 30.4679815,14.978086 3.8114425,0.484367 12.1358335,0.110116 16.1328935,-0.725308 z m 0.948976,-5.677517 c -1.556121,-0.575648 -1.585867,-1.287025 -0.764124,-18.272501 0.426367,-8.813027 0.701516,-16.677529 0.611441,-17.47667 C 20.3247,-79.725776 19.365113,-80.949481 8.7906316,-91.800882 2.7103271,-98.040416 2.917577,-97.955951 -6.7821213,-98.14759 -10.94135,-98.229762 -18.661443,-98.311039 -23.93788,-98.328198 l -9.59352,-0.0312 -0.984236,-0.846603 c -0.966397,-0.831269 -0.975993,-0.877429 -0.529431,-2.547079 1.987778,-7.43208 9.365014,-17.38639 16.876091,-22.77139 5.862616,-4.20315 8.9035004,-5.25817 11.2675911,-3.90923 0.5950832,0.33954 4.1292495,3.8223 7.85370057,7.73946 8.05900663,8.47599 8.14717633,8.52771 15.06313033,8.8363 4.792567,0.21384 5.589566,-0.0116 6.318771,-1.78749 0.260029,-0.63327 0.557506,-3.41282 0.685998,-6.4098 0.323547,-7.54658 0.489465,-8.60556 1.507839,-9.62393 1.101235,-1.10124 2.298541,-0.94568 5.72897,0.74429 8.332024,4.10473 16.425854,11.78626 20.77494,19.71668 3.248868,5.9242 3.98019,8.86225 2.559964,10.284547 -0.707066,0.708092 -1.188491,0.760631 -8.494825,0.927022 l -7.745278,0.176389 -0.918915,0.919812 c -0.895068,0.895939 -0.920429,1.047013 -0.977258,5.820833 -0.08025,6.741043 -0.0018,6.889467 8.206175,15.484354 3.520485,3.686527 6.655,7.173319 6.965589,7.748424 0.310593,0.575106 0.564713,1.609224 0.564713,2.298044 0,3.541155 -6.85564,12.281223 -13.579086,17.311619 -5.836849,4.367053 -14.54369,8.176866 -16.788982,7.346279 z m 6.511183,-50.024213 c 1.365388,-0.832566 2.051833,-2.70867 1.762753,-4.81773 -0.6864,-5.007837 -5.944055,-10.011947 -10.52923,-10.021477 -3.200227,-0.007 -4.514515,1.32568 -4.514515,4.57648 0,6.438151 8.624104,13.102323 13.280992,10.262727 z"
       id="path2852" />
    <path
       style="display:none;fill:#e6e6e6;stroke-width:0.352778"
       d="m 32.126833,-32.281464 -6.261806,-0.105011 v -52.549022 -52.549023 l 0.79375,-0.16559 c 2.105398,-0.4392 29.673361,-2.6931 31.801913,-2.60005 l 2.433168,0.10636 10.972386,28.33586 c 7.042704,18.187563 11.075923,28.168816 11.261477,27.869442 0.158997,-0.256526 5.332589,-12.452038 11.496872,-27.101132 l 11.207787,-26.63472 16.98993,-0.0916 16.98993,-0.0916 v 52.743665 52.743661 h -11.66493 -11.66494 l -3.32812,-2.710505 -3.32812,-2.710504 v -20.99616 c 0,-12.152421 -0.13114,-20.854997 -0.31134,-20.661022 -0.17123,0.184326 -3.4611,6.169201 -7.31081,13.299721 l -6.999459,12.964582 -12.003778,-0.008 -12.003775,-0.008 -8.907486,-16.307927 -8.907487,-16.307924 -1.51e-4,1.861749 c -8.5e-5,1.023966 0.562687,11.342154 1.250604,22.929308 0.687916,11.587158 1.203854,21.702133 1.146528,22.477722 -0.0999,1.351576 -0.1995,1.458146 -2.397284,2.565099 -3.154429,1.588784 -11.396851,3.97455 -13.405555,3.880235 -0.873124,-0.041 -4.405312,-0.121797 -7.849304,-0.179554 z"
       id="path3008" />
    <path
       style="display:none;fill:#e6e6e6;stroke-width:0.352778"
       d="m 58.463452,-47.223924 c -0.626551,-0.692329 -0.672038,-1.398845 -0.672038,-10.438111 v -9.695522 l 0.832831,-0.674384 c 0.77641,-0.628699 1.513173,-0.674387 10.875055,-0.674387 h 10.04222 l 1.031194,1.031197 1.031198,1.031194 v 8.864102 c 0,9.252835 -0.185593,10.535337 -1.603304,11.079367 -0.314089,0.120526 -5.137231,0.219138 -10.718094,0.219138 -9.867698,0 -10.165527,-0.02046 -10.819062,-0.742594 z m 1.041403,-35.590544 c -1.586498,-0.640232 -1.890246,-1.634641 -1.883716,-6.166883 0.0072,-4.977726 0.489112,-10.055221 1.130169,-11.906859 0.709898,-2.05049 3.257684,-5.28625 5.76248,-7.3185 1.25645,-1.01941 4.226665,-2.96188 6.600482,-4.31661 5.502261,-3.1401 7.180453,-4.44352 8.792996,-6.82939 1.465852,-2.16883 1.886359,-4.08099 1.597646,-7.26497 -0.612228,-6.75179 -8.383809,-11.55093 -14.788796,-9.13244 -4.410636,1.66544 -7.689144,6.13021 -7.689701,10.47208 -3.42e-4,2.64838 -0.655345,3.62223 -2.658914,3.95322 -0.76907,0.12705 -5.340523,0.15162 -10.158782,0.0546 -8.236881,-0.16585 -8.792266,-0.21856 -9.292452,-0.88195 -0.433423,-0.57484 -0.499802,-1.5552 -0.358299,-5.29166 0.199499,-5.2678 0.74192,-7.60604 2.735679,-11.79279 4.479991,-9.40768 12.867991,-15.84693 23.777312,-18.25323 3.034026,-0.66922 10.455203,-0.76225 13.481349,-0.16899 12.895409,2.52806 22.924263,11.68156 26.304382,24.00845 1.11598,4.06986 1.1055,12.87075 -0.02,16.77399 -1.90069,6.5917 -5.275637,10.74972 -12.942517,15.94551 -7.308486,4.952909 -8.268493,6.319298 -8.641714,12.299827 -0.133438,2.138274 -0.428325,4.234765 -0.655295,4.658867 -0.228632,0.427204 -1.000827,0.934438 -1.731448,1.137345 -1.590276,0.44165 -18.273446,0.459204 -19.360876,0.02035 z"
       id="path3148" />
    <path
       style="display:none;fill:#e6e6e6;stroke-width:0.360953"
       d="m 29.404331,-51.582448 c -0.869398,-0.430371 -1.878246,-1.322663 -2.346177,-2.075206 -0.818964,-1.316993 -0.821436,-1.364997 -1.001472,-19.548303 L 25.876348,-91.434069 14.744702,-91.614409 3.6130957,-91.79474 2.9013092,-92.674288 c -0.49172,-0.607631 -0.6417421,-1.165598 -0.4853249,-1.80474 0.4921028,-2.010793 0.394774,-1.993569 12.3734387,-2.188569 l 11.086925,-0.18033 0.180334,-18.228123 c 0.127896,-12.91239 0.303115,-18.43859 0.600601,-18.95 0.806942,-1.38648 2.578182,-2.76747 3.961255,-3.0884 0.766612,-0.17778 9.149847,-0.32742 18.629366,-0.33211 l 17.235472,-0.009 v -10.77989 c 0,-10.35919 0.02986,-10.81702 0.748106,-11.73097 0.977938,-1.24324 2.574511,-1.27073 3.780194,-0.0653 l 0.885978,0.88599 v 10.83219 10.83216 l 17.957407,0.10317 c 20.046689,0.11511 19.233749,0.0128 21.277529,2.69115 l 1.01128,1.32557 0.0998,18.16625 0.0998,18.166304 h 10.2891 c 10.95251,0 12.28344,0.179048 13.13318,1.76676 0.47276,0.883337 0.17437,2.34822 -0.61134,3.001046 -0.41992,0.349159 -3.33289,0.511289 -11.60528,0.646482 l -11.04447,0.18033 -0.18033,18.228113 c -0.1279,12.912393 -0.30312,18.438589 -0.60061,18.950005 -0.65658,1.128133 -2.3669,2.6232 -3.48364,3.045132 -0.69456,0.262187 -13.087595,0.383689 -39.163358,0.383689 -37.977128,-2.56e-4 -38.154009,-0.0036 -39.672439,-0.75523 z m 54.370525,-17.653047 14.094879,-8.121431 0.009,-7.600336 0.009,-7.600378 -7.850722,-2.484475 c -4.317865,-1.366493 -13.340802,-4.214573 -20.050934,-6.329055 -6.710132,-2.11446 -12.211901,-3.98627 -12.226102,-4.15953 -0.01282,-0.17309 2.533545,-1.77516 5.661679,-3.55974 l 5.687516,-3.2447 1.66573,0.91062 c 4.249063,2.3229 16.854247,9.85076 17.090901,10.20675 0.145796,0.21955 0.270711,0.80502 0.277534,1.301302 0.01282,0.83465 0.343619,1.00762 4.427183,2.304311 2.428165,0.771043 4.617835,1.474901 4.865995,1.564134 0.35172,0.126619 0.45118,-1.496308 0.45118,-7.359727 v -7.52189 l -4.782613,-2.7557 c -2.630443,-1.51566 -8.356035,-4.8229 -12.723574,-7.34945 -4.367538,-2.52651 -8.687241,-5.01406 -9.599362,-5.5279 l -1.658342,-0.9342 -5.921654,3.44234 c -3.256887,1.89325 -9.698059,5.62182 -14.313716,8.28569 l -8.392062,4.84335 -3.9e-5,7.59979 -3.8e-5,7.599737 11.821174,3.711813 c 25.401578,7.975887 28.229882,8.890091 28.237088,9.127126 0.0086,0.20975 -4.941803,3.235015 -9.93812,6.076322 l -1.463218,0.832095 -8.462998,-4.809037 C 49.970742,-86.878947 50.242008,-86.68787 50.242008,-88.146657 v -1.175378 l -4.421681,-1.388607 c -2.431912,-0.763761 -4.6247,-1.45939 -4.872857,-1.545847 -0.351723,-0.122782 -0.449223,1.502269 -0.442314,7.371187 l 0.0086,7.528376 14.158533,8.191817 c 7.787197,4.505496 14.349869,8.16014 14.5837,8.12143 0.234052,-0.03837 6.767901,-3.725029 14.520094,-8.191816 z"
       id="path3368" />
    <path
       style="fill:#e6e6e6;stroke-width:0.352778"
       d="m 114.61858,-52.57672 c -10.46179,-3.726762 -9.73776,-18.929067 1.03817,-21.797884 2.50944,-0.668076 3.63709,-0.624674 6.27574,0.241551 4.08719,1.341758 6.78065,4.422217 7.75789,8.872572 1.04632,4.765004 -1.61377,10.042806 -6.17419,12.249985 -2.3702,1.147145 -6.35032,1.341183 -8.89761,0.433776 z m -55.327001,-0.444836 c -6.43263,-1.376711 -8.754307,-2.146546 -13.008771,-4.313519 -18.403166,-9.373495 -27.659039,-30.349851 -22.277646,-50.487285 3.994479,-14.94753 16.63281,-27.28742 31.582251,-30.83646 0.873125,-0.20728 2.332485,-0.54542 3.243022,-0.75142 2.464492,-0.55756 11.979313,-0.46754 15.101421,0.14288 6.152581,1.20292 11.443719,3.35474 16.596987,6.74973 5.16492,3.40267 11.577277,10.6453 14.400247,16.26482 1.9755,3.9325 2.77026,6.34622 4.2965,13.04855 0.45211,1.98539 0.42934,11.600404 -0.033,13.937528 -1.78773,9.036921 -4.85159,15.56108 -10.155467,21.625001 -6.450104,7.37441 -14.102185,11.897031 -23.870541,14.108242 -3.258618,0.737637 -4.72865,0.873252 -9.172221,0.84618 -2.910417,-0.01774 -5.926667,-0.168145 -6.702778,-0.334247 z m 8.290277,-10.263849 c 0.679098,-0.415975 1.710973,-1.02713 2.293056,-1.358124 2.788891,-1.58587 13.405,-7.707199 16.227776,-9.357056 1.74625,-1.02065 3.889375,-2.273124 4.7625,-2.783268 0.873125,-0.510149 2.265189,-1.27465 3.09348,-1.69889 l 1.50598,-0.771345 -0.09487,-7.562613 -0.09487,-7.562613 -4.7625,-1.512997 c -2.619375,-0.832146 -8.096249,-2.570451 -12.170832,-3.862895 -4.074583,-1.292444 -9.551458,-3.040194 -12.170833,-3.883884 -4.743541,-1.52789 -9.690885,-3.07849 -11.200693,-3.51054 -0.436563,-0.12493 -0.792745,-0.33551 -0.791513,-0.46795 0.0011,-0.13245 2.717588,-1.79047 6.036351,-3.68449 l 6.034116,-3.44367 7.104619,4.16976 c 3.907539,2.29336 8.16829,4.7842 9.468333,5.53518 2.131723,1.23142 2.374088,1.48603 2.469444,2.59416 l 0.105731,1.22874 5.027083,1.623395 5.027083,1.623399 v -7.448614 -7.44861 l -7.496527,-4.34228 c -4.12309,-2.38826 -8.369653,-4.85577 -9.436805,-5.48336 -1.067153,-0.62758 -4.271433,-2.49049 -7.120622,-4.13981 l -5.180343,-2.99875 -5.755767,3.35302 c -7.800403,4.54412 -6.922099,4.03631 -15.721738,9.08966 l -7.849305,4.50761 v 7.36833 7.36832 l 1.146528,0.497981 c 0.63059,0.273889 1.940278,0.730299 2.910416,1.014243 0.970139,0.283944 5.018264,1.551901 8.995833,2.817689 3.977569,1.265784 10.089444,3.201461 13.581943,4.301507 12.739443,4.012582 14.116571,4.467253 14.417667,4.760136 0.17012,0.165481 -0.354848,0.635617 -1.179565,1.056358 -0.817369,0.416986 -2.542819,1.406323 -3.834334,2.198521 -1.291516,0.792198 -3.062588,1.838667 -3.935713,2.325486 -0.873124,0.48682 -1.840395,1.041097 -2.149496,1.231731 -0.622183,0.38373 -0.180929,0.609543 -12.272224,-6.280347 l -7.429217,-4.233333 -0.01065,-1.274988 c -0.0098,-1.177971 -0.124728,-1.315551 -1.509945,-1.808022 -2.407433,-0.855891 -8.258907,-2.737823 -8.512678,-2.737823 -0.127926,0 -0.189748,3.355887 -0.137382,7.457528 l 0.09521,7.457527 3.351389,1.940821 c 1.843263,1.067456 3.827638,2.213222 4.409722,2.546152 1.218843,0.697135 9.609119,5.546912 12.611804,7.28992 1.11566,0.647622 2.941285,1.706604 4.056944,2.353295 1.11566,0.646691 2.584097,1.519224 3.263194,1.938959 1.500805,0.927618 1.319728,0.927181 2.822222,0.0068 z m -49.475138,4.438744 c -0.532509,-0.28891 -1.286572,-1.149357 -1.675695,-1.912101 -2.3483,-4.603047 2.143126,-9.38453 6.653709,-7.0834 3.627664,1.850694 3.912052,6.647423 0.526448,8.879508 -1.231162,0.811692 -4.11035,0.872363 -5.504462,0.115993 z m 45.851568,-88.801079 c -2.855835,-0.9172 -5.195873,-3.92449 -5.195873,-6.67744 0,-2.99278 2.084567,-6.18788 4.511533,-6.91502 1.729193,-0.51808 4.296325,-0.53711 5.607861,-0.0416 3.734915,1.41115 5.523244,6.65994 3.504851,10.28684 -1.548137,2.78187 -5.411473,4.31614 -8.428372,3.3472 z"
       id="path3509" />
  </g>
</svg>
