<?xml version="1.0" encoding="UTF-8" standalone="no"?>
<!-- Created with Inkscape (http://www.inkscape.org/) -->

<svg
   width="500"
   height="500"
   viewBox="0 0 132.29166 132.29167"
   version="1.1"
   id="svg5"
   inkscape:version="1.1.1 (3bf5ae0d25, 2021-09-20)"
   sodipodi:docname="wizard_main_logo.svg"
   xmlns:inkscape="http://www.inkscape.org/namespaces/inkscape"
   xmlns:sodipodi="http://sodipodi.sourceforge.net/DTD/sodipodi-0.dtd"
   xmlns="http://www.w3.org/2000/svg"
   xmlns:svg="http://www.w3.org/2000/svg">
  <sodipodi:namedview
     id="namedview7"
     pagecolor="#505050"
     bordercolor="#eeeeee"
     borderopacity="1"
     inkscape:pageshadow="0"
     inkscape:pageopacity="0"
     inkscape:pagecheckerboard="0"
     inkscape:document-units="mm"
     showgrid="false"
     units="px"
     inkscape:zoom="0.64"
     inkscape:cx="114.84375"
     inkscape:cy="216.40625"
     inkscape:window-width="1920"
     inkscape:window-height="1121"
     inkscape:window-x="-7"
     inkscape:window-y="-7"
     inkscape:window-maximized="1"
     inkscape:current-layer="g986" />
  <defs
     id="defs2">
    <filter
       style="color-interpolation-filters:sRGB;"
       inkscape:label="Drop Shadow"
       id="filter45407"
       x="-0.2787253"
       y="-0.2787253"
       width="1.6301805"
       height="1.6495751">
      <feFlood
         flood-opacity="0.247059"
         flood-color="rgb(0,0,0)"
         result="flood"
         id="feFlood45397" />
      <feComposite
         in="flood"
         in2="SourceGraphic"
         operator="in"
         result="composite1"
         id="feComposite45399" />
      <feGaussianBlur
         in="composite1"
         stdDeviation="2.39521"
         result="blur"
         id="feGaussianBlur45401" />
      <feOffset
         dx="1.5"
         dy="1.9"
         result="offset"
         id="feOffset45403" />
      <feComposite
         in="SourceGraphic"
         in2="offset"
         operator="over"
         result="composite2"
         id="feComposite45405" />
    </filter>
    <filter
       style="color-interpolation-filters:sRGB;"
       inkscape:label="Drop Shadow"
       id="filter55588"
       x="-0.14726026"
       y="-0.18620821"
       width="1.3073291"
       height="1.3929316">
      <feFlood
         flood-opacity="0.129412"
         flood-color="rgb(0,0,0)"
         result="flood"
         id="feFlood55578" />
      <feComposite
         in="flood"
         in2="SourceGraphic"
         operator="in"
         result="composite1"
         id="feComposite55580" />
      <feGaussianBlur
         in="composite1"
         stdDeviation="7.18563"
         result="blur"
         id="feGaussianBlur55582" />
      <feOffset
         dx="1.5"
         dy="1.9"
         result="offset"
         id="feOffset55584" />
      <feComposite
         in="SourceGraphic"
         in2="offset"
         operator="over"
         result="composite2"
         id="feComposite55586" />
    </filter>
    <filter
       style="color-interpolation-filters:sRGB;"
       inkscape:label="Drop Shadow"
       id="filter6997"
       x="-0.18806124"
       y="-0.18801507"
       width="1.3906351"
       height="1.3944083">
      <feFlood
         flood-opacity="0.258824"
         flood-color="rgb(0,0,0)"
         result="flood"
         id="feFlood6987" />
      <feComposite
         in="flood"
         in2="SourceGraphic"
         operator="in"
         result="composite1"
         id="feComposite6989" />
      <feGaussianBlur
         in="composite1"
         stdDeviation="7.18563"
         result="blur"
         id="feGaussianBlur6991" />
      <feOffset
         dx="1.5"
         dy="1.9"
         result="offset"
         id="feOffset6993" />
      <feComposite
         in="SourceGraphic"
         in2="offset"
         operator="over"
         result="composite2"
         id="feComposite6995" />
    </filter>
  </defs>
  <g
     inkscape:groupmode="layer"
     id="layer2"
     inkscape:label="main"
     style="display:none">
    <path
       id="path47800"
       style="color:#000000;display:inline;fill:#7785de;stroke-width:5.68403;stroke-linecap:round;stroke-linejoin:round;-inkscape-stroke:none"
       d="m 72.621739,14.288938 a 2.8422957,2.8422957 0 0 0 -1.358502,0.232783 L 39.823111,28.376965 a 2.8422957,2.8422957 0 0 0 -1.500961,3.635643 l 12.362362,31.617101 20.047808,1.240275 -20.333461,3.363208 -19.58739,32.328668 -28.3368698,9.78928 a 2.8422957,2.8422957 0 0 0 0.7636983,5.52286 l 36.4988955,2.13175 a 2.8422957,2.8422957 0 0 0 0.277575,0.003 l 47.883873,-1.86225 40.956979,0.53239 a 2.8422957,2.8422957 0 0 0 1.0354,-5.50085 l -28.08426,-10.56214 -26.278562,-0.31135 25.211582,-3.322823 1.15289,-33.402244 a 2.8422957,2.8422957 0 0 0 -1.06844,-2.319732 L 65.809404,33.341068 59.619779,32.043516 64.052901,31.236494 74.566234,18.973997 a 2.8422957,2.8422957 0 0 0 -1.944495,-4.684991 z"
       inkscape:label="hat" />
    <path
       id="path47972"
       style="color:#000000;fill:#3c436f;fill-opacity:1;stroke-width:5.68403;stroke-linecap:round;stroke-linejoin:round;-inkscape-stroke:none"
       d="m 101.28171,81.271137 -60.316727,2.532685 -9.848035,16.254288 45.148513,0.1498 24.474319,-3.225891 z"
       inkscape:label="bandeau" />
    <path
       id="path52222"
       style="color:#000000;fill:#5661a1;fill-opacity:1;stroke-width:5.68404;stroke-linecap:round;stroke-linejoin:round;-inkscape-stroke:none"
       d="M 74.993774,18.277075 59.619987,32.043569 64.05293,31.236736 74.566049,18.973937 a 2.8422957,2.8422957 0 0 0 0.427725,-0.696862 z M 38.207113,30.312988 a 2.8422957,2.8422957 0 0 0 0.115181,1.699904 l 12.362349,31.61692 20.047509,1.240343 -16.393614,-5.206784 z m 47.849053,78.200162 -44.914014,6.25092 -40.41798213,-0.91854 a 2.8422957,2.8422957 0 0 0 2.51425873,2.02865 l 36.4990044,2.13168 a 2.8422957,2.8422957 0 0 0 0.277238,0.003 l 47.883781,-1.86254 40.957408,0.53248 a 2.8422957,2.8422957 0 0 0 2.64565,-3.93345 z"
       inkscape:label="shadows" />
    <path
       style="fill:#32395e;fill-opacity:1;stroke:none;stroke-width:0.29634px;stroke-linecap:butt;stroke-linejoin:miter;stroke-opacity:1"
       d="M 75.528196,100.30491 36.280327,91.525697 30.811468,100.56186 Z"
       id="path52276"
       sodipodi:nodetypes="cccc"
       inkscape:label="bandeau_shadow" />
  </g>
  <g
     inkscape:groupmode="layer"
     id="g986"
     inkscape:label="PyWizard">
    <path
       id="path978"
       style="color:#000000;display:inline;fill:#7785de;stroke-width:5.68403;stroke-linecap:round;stroke-linejoin:round;-inkscape-stroke:none"
       d="m 72.621739,14.288938 a 2.8422957,2.8422957 0 0 0 -1.358502,0.232783 L 39.823111,28.376965 a 2.8422957,2.8422957 0 0 0 -1.500961,3.635643 l 12.362362,31.617101 20.047808,1.240275 -20.333461,3.363208 -19.58739,32.328668 -28.3368698,9.78928 a 2.8422957,2.8422957 0 0 0 0.7636983,5.52286 l 36.4988955,2.13175 a 2.8422957,2.8422957 0 0 0 0.277575,0.003 l 47.883873,-1.86225 40.956979,0.53239 a 2.8422957,2.8422957 0 0 0 1.0354,-5.50085 l -28.08426,-10.56214 -26.278562,-0.31135 25.211582,-3.322823 1.15289,-33.402244 a 2.8422957,2.8422957 0 0 0 -1.06844,-2.319732 L 65.809404,33.341068 59.619779,32.043516 64.052901,31.236494 74.566234,18.973997 a 2.8422957,2.8422957 0 0 0 -1.944495,-4.684991 z"
       inkscape:label="hat" />
    <path
       id="path980"
       style="color:#000000;fill:#3c436f;fill-opacity:1;stroke-width:5.68403;stroke-linecap:round;stroke-linejoin:round;-inkscape-stroke:none"
       d="m 101.28171,81.271137 -60.316727,2.532685 -9.848035,16.254288 45.148513,0.1498 24.474319,-3.225891 z"
       inkscape:label="bandeau" />
    <path
       id="path982"
       style="color:#000000;fill:#5661a1;fill-opacity:1;stroke-width:5.68404;stroke-linecap:round;stroke-linejoin:round;-inkscape-stroke:none"
       d="M 74.993774,18.277075 59.619987,32.043569 64.05293,31.236736 74.566049,18.973937 a 2.8422957,2.8422957 0 0 0 0.427725,-0.696862 z M 38.207113,30.312988 a 2.8422957,2.8422957 0 0 0 0.115181,1.699904 l 12.362349,31.61692 20.047509,1.240343 -16.393614,-5.206784 z m 47.849053,78.200162 -44.914014,6.25092 -40.41798213,-0.91854 a 2.8422957,2.8422957 0 0 0 2.51425873,2.02865 l 36.4990044,2.13168 a 2.8422957,2.8422957 0 0 0 0.277238,0.003 l 47.883781,-1.86254 40.957408,0.53248 a 2.8422957,2.8422957 0 0 0 2.64565,-3.93345 z"
       inkscape:label="shadows" />
    <path
       style="fill:#32395e;fill-opacity:1;stroke:none;stroke-width:0.29634px;stroke-linecap:butt;stroke-linejoin:miter;stroke-opacity:1"
       d="M 75.528196,100.30491 36.280327,91.525697 30.811468,100.56186 Z"
       id="path984"
       sodipodi:nodetypes="cccc"
       inkscape:label="bandeau_shadow" />
    <rect
       style="fill:#1a1a1a;fill-opacity:1;stroke:none;stroke-width:2;stroke-linecap:square;stroke-linejoin:round;stroke-miterlimit:4;stroke-dasharray:none;stroke-dashoffset:186.406;stroke-opacity:1;paint-order:markers stroke fill"
       id="rect7199"
       width="70.693352"
       height="54.570305"
       x="60.978191"
       y="77.101234"
       rx="10" />
    <path
       id="rect7415"
       style="fill:#ececec;fill-opacity:1;stroke:none;stroke-width:7.55906;stroke-linecap:square;stroke-linejoin:round;stroke-miterlimit:4;stroke-dasharray:none;stroke-dashoffset:186.406;stroke-opacity:1;paint-order:markers stroke fill"
       d="m 268.26367,291.40625 c -20.93858,0 -37.79492,16.85634 -37.79492,37.79492 V 343.75 h 267.1875 v -14.54883 c 0,-20.93858 -16.85634,-37.79492 -37.79492,-37.79492 z"
       transform="scale(0.26458333)" />
    <path
       id="rect7440"
       style="display:none;fill:#b3b3b3;fill-opacity:1;stroke:none;stroke-width:1.65562;stroke-linecap:square;stroke-linejoin:round;stroke-miterlimit:4;stroke-dasharray:none;stroke-dashoffset:186.406;stroke-opacity:1;paint-order:markers stroke fill"
       d="m 74.589426,98.48162 c -0.678323,0.0114 -1.320936,0.25405 -1.804819,0.73793 -1.10602,1.10602 -0.951917,3.04059 0.345221,4.33773 l 7.096502,7.09607 -7.096502,7.0965 c -1.297138,1.29714 -1.451241,3.23214 -0.345221,4.33816 1.10602,1.10602 3.040587,0.95191 4.337726,-0.34523 l 8.747747,-8.74774 c 0.06521,-0.0652 0.126671,-0.13238 0.186086,-0.20063 0.05447,-0.0457 0.108052,-0.0931 0.159136,-0.14416 0.529228,-0.52923 0.768999,-1.24842 0.734076,-1.99647 0.03493,-0.74806 -0.204848,-1.46724 -0.734076,-1.99647 -0.05109,-0.0511 -0.104661,-0.0984 -0.159136,-0.14416 -0.05941,-0.0682 -0.120877,-0.13542 -0.186086,-0.20063 l -8.747747,-8.74775 c -0.729641,-0.72964 -1.660777,-1.09774 -2.532907,-1.08315 z" />
    <circle
       style="display:inline;fill:#ff8080;fill-opacity:1;stroke:none;stroke-width:1.30769;stroke-linecap:square;stroke-linejoin:round;stroke-miterlimit:4;stroke-dasharray:none;stroke-dashoffset:186.406;stroke-opacity:1;paint-order:markers stroke fill"
       id="path7603"
       cx="121.74968"
       cy="84.542641"
       r="3.5139976" />
  </g>
</svg>
